<?xml version="1.0" encoding="UTF-8"?>
<!-- Generator: visioncortex VTracer -->
<svg id="svg" version="1.1" xmlns="http://www.w3.org/2000/svg" style="display: block;" viewBox="0 0 174 361"><path d="M0 0 C1.0725 -0.103125 2.145 -0.20625 3.25 -0.3125 C3.83652344 -0.29960937 4.42304687 -0.28671875 5.02734375 -0.2734375 C6.00380859 -0.13808594 6.00380859 -0.13808594 7 0 C7.76441406 0.21398438 8.52882812 0.42796875 9.31640625 0.6484375 C10.14011719 0.95007812 10.96382812 1.25171875 11.8125 1.5625 C12.66199219 1.91957031 13.51148438 2.27664063 14.38671875 2.64453125 C15.24910156 3.09183594 16.11148438 3.53914062 17 4 C17.85207031 4.60199219 18.70414062 5.20398438 19.58203125 5.82421875 C20.42121094 6.45972656 21.26039062 7.09523438 22.125 7.75 C22.87007813 8.36359375 23.61515625 8.9771875 24.3828125 9.609375 C25.24648437 10.06828125 26.11015625 10.5271875 27 11 C27.58217285 11.10046631 28.1643457 11.20093262 28.76416016 11.30444336 C29.41433105 11.33159424 30.06450195 11.35874512 30.734375 11.38671875 C31.76618896 11.34248779 31.76618896 11.34248779 32.81884766 11.29736328 C33.53862793 11.1992334 34.2584082 11.10110352 35 11 C36.10480713 10.72325439 36.10480713 10.72325439 37.23193359 10.44091797 C37.98297363 10.2038916 38.73401367 9.96686523 39.5078125 9.72265625 C40.26707031 9.45646484 41.02632813 9.19027344 41.80859375 8.91601562 C42.57300781 8.63435547 43.33742188 8.35269531 44.125 8.0625 C44.89714844 7.78470703 45.66929688 7.50691406 46.46484375 7.22070312 C47.59986328 6.81948242 47.59986328 6.81948242 48.7578125 6.41015625 C49.4295752 6.16402588 50.10133789 5.91789551 50.79345703 5.66430664 C51.52161621 5.44508545 52.24977539 5.22586426 53 5 C53.95608154 4.81083008 54.91216309 4.62166016 55.8972168 4.42675781 C56.92113525 4.28592773 57.94505371 4.14509766 59 4 C60.43218872 3.91238403 60.43218872 3.91238403 61.89331055 3.82299805 C62.88113525 3.80277588 63.86895996 3.78255371 64.88671875 3.76171875 C65.99080078 3.74689453 67.09488281 3.73207031 68.23242188 3.71679688 C69.37259766 3.70712891 70.51277344 3.69746094 71.6875 3.6875 C72.80833984 3.65849609 73.92917969 3.62949219 75.08398438 3.59960938 C76.74977539 3.58704102 76.74977539 3.58704102 78.44921875 3.57421875 C79.54435791 3.60394775 80.63949707 3.63367676 81.76782227 3.66430664 C82.83444092 3.77508545 83.90105957 3.88586426 85 4 C86.03503662 4.26997803 87.07007324 4.53995605 88.13647461 4.81811523 C89.58872437 5.32967163 89.58872437 5.32967163 91.0703125 5.8515625 C92.34865967 6.35743896 92.34865967 6.35743896 93.65283203 6.87353516 C94.81468018 7.43113525 94.81468018 7.43113525 96 8 C96.7532959 8.45552246 97.5065918 8.91104492 98.28271484 9.38037109 C98.91129395 9.81172363 99.53987305 10.24307617 100.1875 10.6875 C100.8165625 11.203125 101.445625 11.71875 102.09375 12.25 C103.03734375 13.11625 103.03734375 13.11625 104 14 C104.6909375 14.66 105.381875 15.32 106.09375 16 C106.7846875 16.721875 107.475625 17.44375 108.1875 18.1875 C108.84363281 18.96351562 109.49976563 19.73953125 110.17578125 20.5390625 C110.77777344 21.35117187 111.37976563 22.16328125 112 23 C112.76376953 24.21816406 112.76376953 24.21816406 113.54296875 25.4609375 C114.20232422 26.74871094 114.20232422 26.74871094 114.875 28.0625 C115.22876709 28.95606201 115.58253418 29.84962402 115.94702148 30.77026367 C116.29450439 31.83607666 116.6419873 32.90188965 117 34 C117.22155762 35.05050537 117.44311523 36.10101074 117.67138672 37.18334961 C117.80265961 38.03908569 117.80265961 38.03908569 117.93658447 38.91210938 C118.01680847 39.52763672 118.09703247 40.14316406 118.1796875 40.77734375 C118.26506775 41.45482666 118.350448 42.13230957 118.43841553 42.83032227 C118.51626282 43.5636377 118.59411011 44.29695313 118.67431641 45.05249023 C118.73822571 45.83695526 118.80213501 46.62142029 118.86798096 47.42965698 C118.91154724 48.27787018 118.95511353 49.12608337 119 50 C119.01053406 50.93176056 119.02106812 51.86352112 119.03192139 52.82351685 C119.02187073 53.81253998 119.01182007 54.80156311 119.00146484 55.82055664 C118.9783725 56.84991837 118.95528015 57.87928009 118.93148804 58.93983459 C118.89737823 60.00125168 118.86326843 61.06266876 118.828125 62.15625 C118.78716705 63.23639877 118.74620911 64.31654755 118.70401001 65.4294281 C118.65731171 66.52650589 118.6106134 67.62358368 118.5625 68.75390625 C118.5109375 69.8639502 118.459375 70.97399414 118.40625 72.11767578 C118.3546875 73.23384277 118.303125 74.35000977 118.25 75.5 C118.20552734 76.61616699 118.16105469 77.73233398 118.11523438 78.88232422 C118.05045898 80.54739014 118.05045898 80.54739014 117.984375 82.24609375 C117.91674454 83.8916198 117.91674454 83.8916198 117.8477478 85.57038879 C117.77615952 87.19070259 117.77615952 87.19070259 117.703125 88.84375 C117.65064606 89.90571091 117.59816711 90.96767181 117.5440979 92.06181335 C117.45966934 93.6064904 117.45966934 93.6064904 117.37353516 95.18237305 C117.28401581 96.66608902 117.28401581 96.66608902 117.19268799 98.17977905 C117.09730743 99.57578842 117.09730743 99.57578842 117 101 C116.93206238 101.84422516 116.86412476 102.68845032 116.79412842 103.55825806 C116.72204163 104.33800995 116.64995483 105.11776184 116.57568359 105.92114258 C116.49751404 106.65107422 116.41934448 107.38100586 116.33880615 108.13305664 C116.26051575 108.80715576 116.18222534 109.48125488 116.1015625 110.17578125 C116.00201263 111.089646 116.00201263 111.089646 115.90045166 112.02197266 C115.82582703 112.59004639 115.75120239 113.15812012 115.67431641 113.7434082 C115.45179199 114.8180835 115.22926758 115.89275879 115 117 C114.78308502 117.59705246 114.56617004 118.19410492 114.34268188 118.80924988 C113.96857681 119.69451103 113.96857681 119.69451103 113.58691406 120.59765625 C113.10448242 121.61730469 112.62205078 122.63695312 112.125 123.6875 C111.63257813 124.59886719 111.14015625 125.51023437 110.6328125 126.44921875 C110.09398437 127.29097656 109.55515625 128.13273438 109 129 C107.99332275 130.14009521 107.99332275 130.14009521 106.96630859 131.30322266 C106.31742676 132.19315918 105.66854492 133.0830957 105 134 C104.75572266 134.89291748 104.51144531 135.78583496 104.25976562 136.70581055 C104.14310547 137.69363525 104.02644531 138.68145996 103.90625 139.69921875 C103.79935852 140.53328499 103.79935852 140.53328499 103.69030762 141.38420105 C103.61461548 141.97461685 103.53892334 142.56503265 103.4609375 143.17333984 C103.35120605 144.09998444 103.35120605 144.09998444 103.23925781 145.04534912 C103.1208252 146.01290131 103.1208252 146.01290131 103 147 C102.90686523 147.67081604 102.81373047 148.34163208 102.71777344 149.03277588 C102.61754883 149.72659363 102.51732422 150.42041138 102.4140625 151.13525391 C102.31064545 151.84986282 102.20722839 152.56447174 102.10067749 153.30073547 C101.99526642 154.03293808 101.88985535 154.76514069 101.78125 155.51953125 C101.67688629 156.2650676 101.57252258 157.01060394 101.46499634 157.7787323 C101.36004852 158.53857925 101.25510071 159.29842621 101.14697266 160.08129883 C101.04088684 160.85422272 100.93480103 161.62714661 100.82550049 162.42349243 C100.71808533 163.21186493 100.61067017 164.00023743 100.5 164.8125 C100.39016785 165.62270599 100.28033569 166.43291199 100.16717529 167.26766968 C100.05706116 168.08643585 99.94694702 168.90520203 99.83349609 169.7487793 C99.72470123 170.56597946 99.61590637 171.38317963 99.5038147 172.22514343 C99.39685272 173.0377211 99.28989075 173.85029877 99.1796875 174.6875 C99.02274918 175.89542961 99.02274918 175.89542961 98.86264038 177.12776184 C98.76198273 177.91446762 98.66132507 178.7011734 98.55761719 179.51171875 C98.46186401 180.27355469 98.36611084 181.03539062 98.26745605 181.8203125 C98.13506531 182.89925781 98.13506531 182.89925781 98 184 C97.8850116 184.97259766 97.8850116 184.97259766 97.7677002 185.96484375 C97.69901733 186.568125 97.63033447 187.17140625 97.55957031 187.79296875 C97.3792627 189.47326172 97.3792627 189.47326172 97.1953125 191.1875 C97.04195435 192.75141479 97.04195435 192.75141479 96.88549805 194.34692383 C96.79953369 195.32556396 96.71356934 196.3042041 96.625 197.3125 C96.54999268 198.26471436 96.47498535 199.21692871 96.39770508 200.19799805 C96.33736084 201.10590088 96.2770166 202.01380371 96.21484375 202.94921875 C96.17085449 203.80563965 96.12686523 204.66206055 96.08154297 205.54443359 C96.05463379 206.35477051 96.02772461 207.16510742 96 208 C95.98864014 209.14782959 95.98864014 209.14782959 95.97705078 210.31884766 C95.98591309 211.04507324 95.99477539 211.77129883 96.00390625 212.51953125 C96.02952637 213.22102295 96.05514648 213.92251465 96.08154297 214.64526367 C96.1339917 215.62523315 96.1339917 215.62523315 96.1875 216.625 C96.26355469 217.73101562 96.33960938 218.83703125 96.41796875 219.9765625 C96.49329834 220.5756543 96.56862793 221.17474609 96.64624023 221.79199219 C96.76298096 222.52063477 96.87972168 223.24927734 97 224 C97.17926025 224.9993457 97.35852051 225.99869141 97.54321289 227.02832031 C97.65168549 227.5862326 97.76015808 228.1441449 97.87191772 228.71896362 C98.05133408 229.59670944 98.05133408 229.59670944 98.234375 230.4921875 C98.36317047 231.09354523 98.49196594 231.69490295 98.62466431 232.31448364 C98.76423553 232.93048431 98.90380676 233.54648499 99.04760742 234.18115234 C99.19853851 234.81027527 99.3494696 235.43939819 99.50497437 236.08758545 C99.66833282 236.71868225 99.83169128 237.34977905 100 238 C100.26715317 238.92561737 100.26715317 238.92561737 100.53970337 239.86993408 C100.82422867 240.79404083 100.82422867 240.79404083 101.11450195 241.73681641 C101.3137175 242.35927246 101.51293304 242.98172852 101.71818542 243.62304688 C101.9259108 244.25275391 102.13363617 244.88246094 102.34765625 245.53125 C102.56227005 246.17143066 102.77688385 246.81161133 102.9980011 247.47119141 C103.21925156 248.12216797 103.44050201 248.77314453 103.66845703 249.44384766 C103.89583557 250.10539856 104.12321411 250.76694946 104.35748291 251.44854736 C104.59013855 252.12552673 104.82279419 252.8025061 105.0625 253.5 C105.29966736 254.20034363 105.53683472 254.90068726 105.78118896 255.62225342 C106.14255951 256.69361542 106.14255951 256.69361542 106.51123047 257.78662109 C106.75510498 258.50878815 106.99897949 259.2309552 107.25024414 259.9750061 C107.49637451 260.70255096 107.74250488 261.43009583 107.99609375 262.1796875 C108.24383545 262.90827972 108.49157715 263.63687195 108.74682617 264.38754272 C108.9952124 265.11655792 109.24359863 265.84557312 109.49951172 266.59667969 C109.74771667 267.32495972 109.99592163 268.05323975 110.25164795 268.80358887 C110.62208221 269.89081238 110.62208221 269.89081238 111 271 C111.24437805 271.71837036 111.4887561 272.43674072 111.74053955 273.17687988 C111.98229919 273.8884021 112.22405884 274.59992432 112.47314453 275.33300781 C112.71207932 276.0368158 112.9510141 276.74062378 113.19718933 277.46575928 C113.43246841 278.16026184 113.6677475 278.8547644 113.91015625 279.5703125 C114.14080276 280.25401917 114.37144928 280.93772583 114.60908508 281.64215088 C114.83533066 282.31389343 115.06157623 282.98563599 115.29467773 283.67773438 C115.51614471 284.33604248 115.73761169 284.99435059 115.96578979 285.67260742 C116.18332916 286.31689697 116.40086853 286.96118652 116.625 287.625 C116.84068634 288.25543213 117.05637268 288.88586426 117.27859497 289.53540039 C117.48837982 290.14826904 117.69816467 290.7611377 117.91430664 291.39257812 C118.11500259 291.98445419 118.31569855 292.57633026 118.5224762 293.18614197 C118.71357468 293.75635574 118.90467316 294.32656952 119.1015625 294.9140625 C119.62459961 296.51906616 119.62459961 296.51906616 120.15820312 298.15649414 C120.43599609 299.09485107 120.71378906 300.03320801 121 301 C121.15919922 301.7417749 121.31839844 302.4835498 121.48242188 303.24780273 C121.57330078 303.85825439 121.66417969 304.46870605 121.7578125 305.09765625 C121.87769531 306.53431641 121.87769531 306.53431641 122 308 C122.06703125 308.68707031 122.1340625 309.37414062 122.203125 310.08203125 C122.22632813 310.93861328 122.22632813 310.93861328 122.25 311.8125 C122.23259766 312.81216797 122.23259766 312.81216797 122.21484375 313.83203125 C122.14394531 314.54746094 122.07304687 315.26289063 122 316 C121.83628906 316.80824219 121.67257813 317.61648438 121.50390625 318.44921875 C121.27574219 319.29097656 121.04757813 320.13273437 120.8125 321 C120.5340625 321.84046875 120.255625 322.6809375 119.96875 323.546875 C119.6490625 324.35640625 119.329375 325.1659375 119 326 C118.6596875 326.72703125 118.319375 327.4540625 117.96875 328.203125 C117.39640625 329.21632813 117.39640625 329.21632813 116.8125 330.25 C116.38066406 330.889375 115.94882813 331.52875 115.50390625 332.1875 C115.00761719 332.785625 114.51132813 333.38375 114 334 C113.11634766 334.8353125 113.11634766 334.8353125 112.21484375 335.6875 C111.56644531 336.203125 110.91804687 336.71875 110.25 337.25 C109.20972656 337.95769531 109.20972656 337.95769531 108.1484375 338.6796875 C107.43945312 339.11539062 106.73046875 339.55109375 106 340 C105.33226562 340.41507812 104.66453125 340.83015625 103.9765625 341.2578125 C103.28304687 341.62648438 102.58953125 341.99515625 101.875 342.375 C101.12605469 342.68050781 100.37710938 342.98601562 99.60546875 343.30078125 C98.74566406 343.53152344 97.88585937 343.76226562 97 344 C95.92363281 344.13792969 94.84726563 344.27585937 93.73828125 344.41796875 C93.16013672 344.452854 92.58199219 344.48773926 91.98632812 344.52368164 C91.0959082 344.54289673 91.0959082 344.54289673 90.1875 344.5625 C89.58744141 344.55532959 88.98738281 344.54815918 88.36914062 344.54077148 C87.76908203 344.50927002 87.16902344 344.47776855 86.55078125 344.4453125 C85.95475098 344.38762695 85.3587207 344.32994141 84.74462891 344.27050781 C84.16890137 344.18124023 83.59317383 344.09197266 83 344 C81.44345703 343.56300781 81.44345703 343.56300781 79.85546875 343.1171875 C78.38013672 342.53324219 78.38013672 342.53324219 76.875 341.9375 C75.41707031 341.24333984 75.41707031 341.24333984 73.9296875 340.53515625 C72.47949219 339.77525391 72.47949219 339.77525391 71 339 C70.01257813 338.50371094 69.02515625 338.00742187 68.0078125 337.49609375 C66.51894531 336.69365234 66.51894531 336.69365234 65 335.875 C64.01515625 335.28203125 63.0303125 334.6890625 62.015625 334.078125 C61.52126953 333.75134766 61.02691406 333.42457031 60.51757812 333.08789062 C60.01677734 332.72888672 59.51597656 332.36988281 59 332 C58.48373047 331.58943359 57.96746094 331.17886719 57.43554688 330.75585938 C56.91541016 330.31564453 56.39527344 329.87542969 55.859375 329.421875 C55.34358887 328.96659424 54.82780273 328.51131348 54.29638672 328.04223633 C53.7860791 327.57454834 53.27577148 327.10686035 52.75 326.625 C52.2461377 326.14893311 51.74227539 325.67286621 51.22314453 325.18237305 C50.73442871 324.70840088 50.24571289 324.23442871 49.7421875 323.74609375 C49.03787598 323.04589111 49.03787598 323.04589111 48.31933594 322.33154297 C47.88395508 321.89213379 47.44857422 321.45272461 47 321 C45.92105469 319.90365234 45.92105469 319.90365234 44.8203125 318.78515625 C44.17835937 318.09292969 43.53640625 317.40070313 42.875 316.6875 C42.25367187 315.96304687 41.63234375 315.23859375 40.9921875 314.4921875 C40.33476563 313.66976563 39.67734375 312.84734375 39 312 C38.61102539 311.49629883 38.22205078 310.99259766 37.82128906 310.47363281 C37.4084668 309.92803711 36.99564453 309.38244141 36.5703125 308.8203125 C36.14854736 308.25086914 35.72678223 307.68142578 35.29223633 307.09472656 C34.86579834 306.5065918 34.43936035 305.91845703 34 305.3125 C33.57807373 304.71663086 33.15614746 304.12076172 32.72143555 303.50683594 C32.30418213 302.90387695 31.88692871 302.30091797 31.45703125 301.6796875 C31.04533691 301.07092773 30.63364258 300.46216797 30.20947266 299.83496094 C29.61078369 298.92665527 29.61078369 298.92665527 29 298 C28.62278809 297.40993164 28.24557617 296.81986328 27.85693359 296.21191406 C27.4955127 295.62893555 27.1340918 295.04595703 26.76171875 294.4453125 C26.41044922 293.85709717 26.05917969 293.26888184 25.69726562 292.6628418 C25.36404297 292.093479 25.03082031 291.52411621 24.6875 290.9375 C24.38650391 290.43323486 24.08550781 289.92896973 23.77539062 289.40942383 C23.48212891 288.8914624 23.18886719 288.37350098 22.88671875 287.83984375 C22.59055664 287.26991699 22.29439453 286.69999023 21.98925781 286.11279297 C21.66280273 285.41557129 21.33634766 284.71834961 21 284 C20.59362305 283.04109863 20.18724609 282.08219727 19.76855469 281.09423828 C19.5546257 280.56431778 19.34069672 280.03439728 19.12028503 279.48841858 C18.90398941 278.93665451 18.68769379 278.38489044 18.46484375 277.81640625 C18.24955521 277.25171127 18.03426666 276.6870163 17.81245422 276.10520935 C17.60243271 275.53625443 17.39241119 274.9672995 17.17602539 274.38110352 C16.87222458 273.52804123 16.87222458 273.52804123 16.56228638 272.65774536 C16.37673187 272.11068939 16.19117737 271.56363342 16 271 C15.7105249 270.03956787 15.4210498 269.07913574 15.12280273 268.08959961 C14.87344971 267.15253174 14.62409668 266.21546387 14.3671875 265.25 C14.12411865 264.25637451 13.8810498 263.26274902 13.63061523 262.23901367 C13.38126221 261.17013916 13.13190918 260.10126465 12.875 259 C12.73748322 258.42327545 12.59996643 257.8465509 12.45828247 257.25234985 C12.31357513 256.6448288 12.1688678 256.03730774 12.01977539 255.41137695 C11.86909103 254.77016403 11.71840668 254.12895111 11.56315613 253.4683075 C11.40696304 252.79427383 11.25076996 252.12024017 11.08984375 251.42578125 C10.93022659 250.72415359 10.77060944 250.02252594 10.6061554 249.29963684 C10.43947861 248.55445297 10.27280182 247.8092691 10.10107422 247.04150391 C9.83795441 245.84778168 9.83795441 245.84778168 9.56951904 244.62994385 C9.28760712 243.32812164 9.28760712 243.32812164 9 242 C8.79272278 241.02254822 8.58544556 240.04509644 8.37188721 239.0380249 C8.15264587 237.99213196 7.93340454 236.94623901 7.70751953 235.86865234 C7.48100708 234.78019012 7.25449463 233.69172791 7.02111816 232.57028198 C6.78856323 231.44751862 6.5560083 230.32475525 6.31640625 229.16796875 C6.19856277 228.59883884 6.0807193 228.02970894 5.95930481 227.44333267 C5.78143684 226.58351603 5.78143684 226.58351603 5.59997559 225.70632935 C5.48093998 225.12993273 5.36190437 224.55353611 5.23926163 223.95967293 C5.11986095 223.38065664 5.00046028 222.80164036 4.87744141 222.20507812 C4.75760769 221.62324705 4.63777397 221.04141598 4.51430893 220.44195366 C4.3948 219.86048639 4.27529106 219.27901913 4.15216064 218.67993164 C4.03337807 218.10065918 3.91459549 217.52138672 3.79221344 216.92456055 C3.675158 216.35133057 3.55810257 215.77810059 3.4375 215.1875 C3.21197449 214.0725415 2.98644897 212.95758301 2.75408936 211.80883789 C2.53279358 210.71240967 2.3114978 209.61598145 2.08349609 208.48632812 C1.86260818 207.3977652 1.64172028 206.30920227 1.41413879 205.18765259 C1.19368393 204.10865692 0.97322906 203.02966125 0.74609375 201.91796875 C0.52575974 200.84807709 0.30542572 199.77818542 0.07841492 198.6758728 C-0.144608 197.61091583 -0.36763092 196.54595886 -0.59741211 195.44873047 C-0.93734695 193.85916534 -0.93734695 193.85916534 -1.28414917 192.23748779 C-1.52037994 191.16911682 -1.75661072 190.10074585 -2 189 C-2.25629181 187.89746887 -2.51258362 186.79493774 -2.77664185 185.65899658 C-3.04056732 184.55739197 -3.3044928 183.45578735 -3.57641602 182.32080078 C-3.84119247 181.24099442 -4.10596893 180.16118805 -4.37876892 179.04866028 C-4.6379158 178.0077977 -4.89706268 176.96693512 -5.1640625 175.89453125 C-5.40560562 174.92210983 -5.64714874 173.94968842 -5.89601135 172.94779968 C-6.1296489 172.02763565 -6.36328644 171.10747162 -6.60400391 170.15942383 C-6.833311 169.28666809 -7.0626181 168.41391235 -7.2988739 167.51470947 C-7.64593132 166.26992828 -7.64593132 166.26992828 -8 165 C-8.24736404 164.19737732 -8.49472809 163.39475464 -8.74958801 162.56781006 C-8.99392075 161.82106018 -9.23825348 161.0743103 -9.48999023 160.30493164 C-9.81712257 159.3346981 -9.81712257 159.3346981 -10.15086365 158.34486389 C-10.47837364 157.43165627 -10.47837364 157.43165627 -10.8125 156.5 C-11.06996506 155.83699387 -11.32743011 155.17398773 -11.59269714 154.4908905 C-11.82894302 153.90866226 -12.0651889 153.32643402 -12.30859375 152.7265625 C-12.57526855 152.1171582 -12.84194336 151.50775391 -13.11669922 150.87988281 C-13.40818848 150.25952148 -13.69967773 149.63916016 -14 149 C-14.50104248 148.0114502 -14.50104248 148.0114502 -15.01220703 147.00292969 C-15.37040527 146.32907227 -15.72860352 145.65521484 -16.09765625 144.9609375 C-16.46882568 144.28587158 -16.83999512 143.61080566 -17.22241211 142.9152832 C-17.60276611 142.24198975 -17.98312012 141.56869629 -18.375 140.875 C-18.7572876 140.21137451 -19.1395752 139.54774902 -19.53344727 138.86401367 C-19.91686279 138.20892822 -20.30027832 137.55384277 -20.6953125 136.87890625 C-21.07848633 136.23195801 -21.46166016 135.58500977 -21.85644531 134.91845703 C-22.42250488 133.9688208 -22.42250488 133.9688208 -23 133 C-23.54672363 132.08323486 -23.54672363 132.08323486 -24.10449219 131.14794922 C-24.45930664 130.55127441 -24.81412109 129.95459961 -25.1796875 129.33984375 C-25.52563965 128.75372314 -25.8715918 128.16760254 -26.22802734 127.5637207 C-26.56527832 126.98581787 -26.9025293 126.40791504 -27.25 125.8125 C-27.58080566 125.23781982 -27.91161133 124.66313965 -28.25244141 124.07104492 C-28.73076416 123.21990112 -28.73076416 123.21990112 -29.21875 122.3515625 C-29.67507812 121.51286621 -29.67507812 121.51286621 -30.140625 120.65722656 C-30.42421875 120.1103418 -30.7078125 119.56345703 -31 119 C-31.4846875 117.95585937 -31.969375 116.91171875 -32.46875 115.8359375 C-32.8915625 114.79695313 -33.314375 113.75796875 -33.75 112.6875 C-34.13800781 111.61371094 -34.52601562 110.53992188 -34.92578125 109.43359375 C-35.10705566 108.87655762 -35.28833008 108.31952148 -35.47509766 107.74560547 C-35.64831543 107.16955566 -35.8215332 106.59350586 -36 106 C-36.16419434 105.39945801 -36.32838867 104.79891602 -36.49755859 104.18017578 C-36.65691895 103.55481934 -36.8162793 102.92946289 -36.98046875 102.28515625 C-37.13894287 101.63144043 -37.29741699 100.97772461 -37.46069336 100.30419922 C-37.69671265 99.28737061 -37.69671265 99.28737061 -37.9375 98.25 C-38.09162354 97.55922363 -38.24574707 96.86844727 -38.40454102 96.15673828 C-38.56494873 95.42825684 -38.72535645 94.69977539 -38.890625 93.94921875 C-39.06142578 93.17368652 -39.23222656 92.3981543 -39.40820312 91.59912109 C-39.70114258 90.31255615 -39.70114258 90.31255615 -40 89 C-40.36641602 87.49493896 -40.36641602 87.49493896 -40.74023438 85.95947266 C-41.13952148 84.34951416 -41.13952148 84.34951416 -41.546875 82.70703125 C-41.81765869 81.60907227 -42.08844238 80.51111328 -42.36743164 79.37988281 C-42.6380542 78.28514648 -42.90867676 77.19041016 -43.1875 76.0625 C-43.44974365 75.02061523 -43.7119873 73.97873047 -43.98217773 72.90527344 C-44.22911377 71.89625977 -44.4760498 70.88724609 -44.73046875 69.84765625 C-44.95806885 68.86603516 -45.18566895 67.88441406 -45.42016602 66.87304688 C-45.61151123 65.92494141 -45.80285645 64.97683594 -46 64 C-46.12882568 63.08283203 -46.25765137 62.16566406 -46.39038086 61.22070312 C-46.4806958 60.35509766 -46.57101074 59.48949219 -46.6640625 58.59765625 C-46.72972412 57.79158936 -46.79538574 56.98552246 -46.86303711 56.1550293 C-46.90823486 55.44386963 -46.95343262 54.73270996 -47 54 C-47.05542969 52.97648437 -47.11085937 51.95296875 -47.16796875 50.8984375 C-47.17441406 50.06570312 -47.18085937 49.23296875 -47.1875 48.375 C-47.17589844 47.45976563 -47.16429687 46.54453125 -47.15234375 45.6015625 C-47.10207031 44.74304687 -47.05179688 43.88453125 -47 43 C-46.89816406 42.26523437 -46.79632813 41.53046875 -46.69140625 40.7734375 C-46.54574219 40.10570312 -46.40007813 39.43796875 -46.25 38.75 C-46.06308594 38.11578125 -45.87617187 37.4815625 -45.68359375 36.828125 C-45.45800781 36.22484375 -45.23242188 35.6215625 -45 35 C-44.74347656 34.41734375 -44.48695312 33.8346875 -44.22265625 33.234375 C-43.92230469 32.66203125 -43.62195312 32.0896875 -43.3125 31.5 C-42.78849609 30.64921875 -42.78849609 30.64921875 -42.25390625 29.78125 C-41.84011719 29.1934375 -41.42632812 28.605625 -41 28 C-40.49339844 27.3503125 -39.98679687 26.700625 -39.46484375 26.03125 C-38.89894531 25.3609375 -38.33304688 24.690625 -37.75 24 C-37.1415625 23.3296875 -36.533125 22.659375 -35.90625 21.96875 C-35.2771875 21.3190625 -34.648125 20.669375 -34 20 C-33.3915625 19.4121875 -32.783125 18.824375 -32.15625 18.21875 C-31.21265625 17.36796875 -31.21265625 17.36796875 -30.25 16.5 C-29.58355469 15.93667969 -28.91710937 15.37335937 -28.23046875 14.79296875 C-27.49441406 14.20128906 -26.75835938 13.60960937 -26 13 C-25.12988281 12.31550781 -24.25976562 11.63101562 -23.36328125 10.92578125 C-22.90493896 10.57588135 -22.44659668 10.22598145 -21.97436523 9.86547852 C-21.50844971 9.51799561 -21.04253418 9.1705127 -20.5625 8.8125 C-19.63179687 8.14734375 -18.70109375 7.4821875 -17.7421875 6.796875 C-16.83726563 6.20390625 -15.93234375 5.6109375 -15 5 C-14.17757812 4.55140625 -13.35515625 4.1028125 -12.5078125 3.640625 C-11.74210937 3.28484375 -10.97640625 2.9290625 -10.1875 2.5625 C-9.46175781 2.26988281 -8.73601563 1.97726562 -7.98828125 1.67578125 C-7.33214844 1.45277344 -6.67601562 1.22976563 -6 1 C-4.453125 0.62875 -4.453125 0.62875 -2.875 0.25 C-1.92625 0.1675 -0.9775 0.085 0 0 Z " transform="translate(48,11)" style="fill: #DEA999;"/><path d="M0 0 C1.12462646 -0.0609082 1.12462646 -0.0609082 2.27197266 -0.12304688 C3.07554199 -0.14947266 3.87911133 -0.17589844 4.70703125 -0.203125 C5.95166138 -0.22161499 5.95166138 -0.22161499 7.22143555 -0.24047852 C8.07648682 -0.24362061 8.93153809 -0.2467627 9.8125 -0.25 C11.13664917 -0.25374634 11.13664917 -0.25374634 12.48754883 -0.25756836 C13.36048584 -0.24862549 14.23342285 -0.23968262 15.1328125 -0.23046875 C15.97360352 -0.2051709 16.81439453 -0.17987305 17.68066406 -0.15380859 C18.82873535 -0.07767334 18.82873535 -0.07767334 20 0 C20.62100586 0.0932959 21.24201172 0.1865918 21.88183594 0.28271484 C22.67895996 0.45794678 22.67895996 0.45794678 23.4921875 0.63671875 C24.38164063 0.90097656 25.27109375 1.16523438 26.1875 1.4375 C26.92355469 1.70433594 27.65960938 1.97117188 28.41796875 2.24609375 C28.94003906 2.49488281 29.46210938 2.74367187 30 3 C30.495 3.495 30.495 3.495 31 4 C31.83789062 3.86980469 32.67578125 3.73960937 33.5390625 3.60546875 C34.55742187 3.46753906 35.57578125 3.32960937 36.625 3.1875 C37.62144531 3.17847656 38.61789063 3.16945312 39.64453125 3.16015625 C40.42183594 3.43730469 41.19914062 3.71445313 42 4 C42.18949219 4.86496094 42.37898438 5.72992188 42.57421875 6.62109375 C42.55472168 7.17321533 42.53522461 7.72533691 42.51513672 8.29418945 C42.4482666 8.89835693 42.38139648 9.50252441 42.3125 10.125 C42.18512451 11.07088989 42.18512451 11.07088989 42.05517578 12.03588867 C41.95060059 12.68662354 41.84602539 13.3373584 41.73828125 14.0078125 C41.61533691 14.67329102 41.49239258 15.33876953 41.36572266 16.02441406 C41.24503418 16.67635742 41.1243457 17.32830078 41 18 C40.90895996 18.59780273 40.81791992 19.19560547 40.72412109 19.81152344 C40.64371582 20.38676758 40.56331055 20.96201172 40.48046875 21.5546875 C40.24263672 23.26011719 40.24263672 23.26011719 40 25 C39.91210205 25.57202148 39.8242041 26.14404297 39.73364258 26.73339844 C39.64622803 27.30864258 39.55881348 27.88388672 39.46875 28.4765625 C39.38625 29.0530957 39.30375 29.62962891 39.21875 30.22363281 C39.1465625 30.80983398 39.074375 31.39603516 39 32 C38.92265625 32.91410645 38.92265625 32.91410645 38.84375 33.84667969 C38.8025 34.46188477 38.76125 35.07708984 38.71875 35.7109375 C38.68136719 36.319375 38.64398438 36.9278125 38.60546875 37.5546875 C38.57066406 38.15539062 38.53585938 38.75609375 38.5 39.375 C38.46519531 39.96796875 38.43039063 40.5609375 38.39453125 41.171875 C38.35714844 41.74164063 38.31976563 42.31140625 38.28125 42.8984375 C38.1884375 43.92195313 38.095625 44.94546875 38 46 C37.8453125 46.71414062 37.690625 47.42828125 37.53125 48.1640625 C37.3559375 48.76992187 37.180625 49.37578125 37 50 C36.82726562 50.61101562 36.65453125 51.22203125 36.4765625 51.8515625 C36.31929688 52.56054688 36.16203125 53.26953125 36 54 C35.88398438 54.97710937 35.76796875 55.95421875 35.6484375 56.9609375 C35.55820313 58.08757812 35.46796875 59.21421875 35.375 60.375 C35.33793945 60.96684082 35.30087891 61.55868164 35.26269531 62.16845703 C35.21387207 63.09053955 35.21387207 63.09053955 35.1640625 64.03125 C35.13602539 64.67191406 35.10798828 65.31257813 35.07910156 65.97265625 C35.05299805 66.64167969 35.02689453 67.31070313 35 68 C34.97131836 68.70511719 34.94263672 69.41023438 34.91308594 70.13671875 C34.88762695 70.86503906 34.86216797 71.59335938 34.8359375 72.34375 C34.81781006 73.08641113 34.79968262 73.82907227 34.78100586 74.59423828 C34.77077393 75.34688965 34.76054199 76.09954102 34.75 76.875 C34.74814697 77.63151855 34.74629395 78.38803711 34.74438477 79.16748047 C34.75526123 79.92432129 34.7661377 80.68116211 34.77734375 81.4609375 C34.80296387 82.2147168 34.82858398 82.96849609 34.85498047 83.74511719 C34.90283691 84.48922852 34.95069336 85.23333984 35 86 C35.08266113 86.72606445 35.16532227 87.45212891 35.25048828 88.20019531 C35.35474121 88.91014648 35.45899414 89.62009766 35.56640625 90.3515625 C35.6859668 91.05039551 35.80552734 91.74922852 35.92871094 92.46923828 C36.05536133 93.13938965 36.18201172 93.80954102 36.3125 94.5 C36.43012695 95.10956543 36.54775391 95.71913086 36.66894531 96.34716797 C36.8579541 97.24266357 36.8579541 97.24266357 37.05078125 98.15625 C37.19370605 98.76581543 37.33663086 99.37538086 37.48388672 100.00341797 C37.73936279 100.99172607 37.73936279 100.99172607 38 102 C38.2180127 102.77359863 38.43602539 103.54719727 38.66064453 104.34423828 C38.90540527 105.17165527 39.15016602 105.99907227 39.40234375 106.8515625 C39.66233154 107.70073242 39.92231934 108.54990234 40.19018555 109.42480469 C40.45742432 110.27461914 40.72466309 111.12443359 41 112 C41.25885986 112.80598633 41.51771973 113.61197266 41.78442383 114.44238281 C42.04634521 115.24256836 42.3082666 116.04275391 42.578125 116.8671875 C42.84834473 117.67969971 43.11856445 118.49221191 43.39697266 119.3293457 C43.67847168 120.16941162 43.9599707 121.00947754 44.25 121.875 C44.55083496 122.77629639 44.85166992 123.67759277 45.16162109 124.60620117 C45.47180176 125.53150635 45.78198242 126.45681152 46.1015625 127.41015625 C46.57190918 128.80258545 46.57190918 128.80258545 47.05175781 130.22314453 C47.36467773 131.13950684 47.67759766 132.05586914 48 133 C48.30518555 133.87640137 48.61037109 134.75280273 48.92480469 135.65576172 C49.22547852 136.51057129 49.52615234 137.36538086 49.8359375 138.24609375 C50.13330811 139.08769043 50.43067871 139.92928711 50.73706055 140.79638672 C51.03008057 141.6267041 51.32310059 142.45702148 51.625 143.3125 C51.9135083 144.14023926 52.2020166 144.96797852 52.49926758 145.82080078 C52.92308716 147.04065674 52.92308716 147.04065674 53.35546875 148.28515625 C53.63052246 149.07809082 53.90557617 149.87102539 54.18896484 150.68798828 C54.45660645 151.45095215 54.72424805 152.21391602 55 153 C55.39179443 154.07290283 55.39179443 154.07290283 55.79150391 155.16748047 C56.16734619 156.19639404 56.16734619 156.19639404 56.55078125 157.24609375 C56.78724365 157.91471436 57.02370605 158.58333496 57.26733398 159.2722168 C57.48848877 159.92488525 57.70964355 160.57755371 57.9375 161.25 C58.1425415 161.8891333 58.34758301 162.5282666 58.55883789 163.18676758 C58.74309326 163.82122803 58.92734863 164.45568848 59.1171875 165.109375 C59.35840332 166.05973633 59.35840332 166.05973633 59.60449219 167.02929688 C59.73500977 167.67962891 59.86552734 168.32996094 60 169 C60.08926758 169.69673828 60.17853516 170.39347656 60.27050781 171.11132812 C60.32819336 171.82224609 60.38587891 172.53316406 60.4453125 173.265625 C60.4769751 173.96985596 60.5086377 174.67408691 60.54125977 175.3996582 C60.54826904 176.092771 60.55527832 176.78588379 60.5625 177.5 C60.54823975 178.17442139 60.53397949 178.84884277 60.51928711 179.54370117 C60.46526733 180.5101355 60.46526733 180.5101355 60.41015625 181.49609375 C60.32338623 182.4085083 60.32338623 182.4085083 60.23486328 183.33935547 C60.1573584 183.88736816 60.07985352 184.43538086 60 185 C59.79246094 185.83660156 59.58492188 186.67320312 59.37109375 187.53515625 C59.08363281 188.20417969 58.79617187 188.87320313 58.5 189.5625 C58.13132812 190.14515625 57.76265625 190.7278125 57.3828125 191.328125 C56.92648438 191.87984375 56.47015625 192.4315625 56 193 C55.44054687 193.63421875 54.88109375 194.2684375 54.3046875 194.921875 C53.66789062 195.54578125 53.03109375 196.1696875 52.375 196.8125 C51.68277344 197.37710938 50.99054688 197.94171875 50.27734375 198.5234375 C49.52582031 199.01070312 48.77429688 199.49796875 48 200 C47.17628906 200.36351562 46.35257812 200.72703125 45.50390625 201.1015625 C44.65699219 201.37742187 43.81007813 201.65328125 42.9375 201.9375 C42.16277344 202.15277344 41.38804687 202.36804688 40.58984375 202.58984375 C39.73519531 202.72519531 38.88054687 202.86054688 38 203 C36.33904297 203.09474609 36.33904297 203.09474609 34.64453125 203.19140625 C34.04777588 203.18052979 33.45102051 203.16965332 32.83618164 203.15844727 C32.2302417 203.10615967 31.62430176 203.05387207 31 203 C30.41017334 202.88648193 29.82034668 202.77296387 29.21264648 202.65600586 C28.3262146 202.42409546 28.3262146 202.42409546 27.421875 202.1875 C26.82383057 202.0033252 26.22578613 201.81915039 25.60961914 201.62939453 C24.99594482 201.42169434 24.38227051 201.21399414 23.75 201 C23.0995874 200.78069824 22.4491748 200.56139648 21.77905273 200.33544922 C21.12364502 200.09842285 20.4682373 199.86139648 19.79296875 199.6171875 C19.15020996 199.3603418 18.50745117 199.10349609 17.84521484 198.83886719 C17.23629395 198.56204102 16.62737305 198.28521484 16 198 C15.46197754 197.6999707 14.92395508 197.39994141 14.36962891 197.09082031 C13.87253418 196.77467773 13.37543945 196.45853516 12.86328125 196.1328125 C11.93902344 195.47023438 11.01476562 194.80765625 10.0625 194.125 C9.19367188 193.43664062 8.32484375 192.74828125 7.4296875 192.0390625 C6.62789063 191.36617187 5.82609375 190.69328125 5 190 C4.26007813 189.40960938 3.52015625 188.81921875 2.7578125 188.2109375 C2.07460937 187.64632812 1.39140625 187.08171875 0.6875 186.5 C0.05714844 185.93667969 -0.57320312 185.37335938 -1.22265625 184.79296875 C-2.10244141 183.90544922 -2.10244141 183.90544922 -3 183 C-3.55558594 182.31550781 -4.11117187 181.63101563 -4.68359375 180.92578125 C-5.20050781 180.22839844 -5.71742187 179.53101563 -6.25 178.8125 C-6.68828125 178.17957031 -7.1265625 177.54664063 -7.578125 176.89453125 C-8.04734375 176.26933594 -8.5165625 175.64414062 -9 175 C-9.61488281 174.4121875 -10.22976562 173.824375 -10.86328125 173.21875 C-11.56839844 172.4865625 -12.27351563 171.754375 -13 171 C-13.38816895 170.46914795 -13.77633789 169.9382959 -14.17626953 169.39135742 C-14.58087402 168.79170166 -14.98547852 168.1920459 -15.40234375 167.57421875 C-15.81806641 166.94193359 -16.23378906 166.30964844 -16.66210938 165.65820312 C-17.08298828 165.00787109 -17.50386719 164.35753906 -17.9375 163.6875 C-18.35451172 163.04876953 -18.77152344 162.41003906 -19.20117188 161.75195312 C-19.61818359 161.11580078 -20.03519531 160.47964844 -20.46484375 159.82421875 C-20.88137207 159.18484375 -21.29790039 158.54546875 -21.72705078 157.88671875 C-22.14712402 157.26410156 -22.56719727 156.64148438 -23 156 C-23.43425293 155.42378906 -23.86850586 154.84757813 -24.31591797 154.25390625 C-24.95811279 153.40699219 -24.95811279 153.40699219 -25.61328125 152.54296875 C-26.02457275 151.9713501 -26.43586426 151.39973145 -26.85961914 150.81079102 C-27.23594482 150.21322998 -27.61227051 149.61566895 -28 149 C-28.30993896 148.3412085 -28.61987793 147.68241699 -28.93920898 147.00366211 C-29.34828491 145.9693103 -29.34828491 145.9693103 -29.765625 144.9140625 C-30.01513916 144.21587402 -30.26465332 143.51768555 -30.52172852 142.79833984 C-30.76205811 142.0811377 -31.0023877 141.36393555 -31.25 140.625 C-31.51031006 139.87041504 -31.77062012 139.11583008 -32.03881836 138.33837891 C-32.28768799 137.59249512 -32.53655762 136.84661133 -32.79296875 136.078125 C-33.0151709 135.36462891 -33.23737305 134.65113281 -33.46630859 133.91601562 C-33.64242676 133.28373047 -33.81854492 132.65144531 -34 132 C-34.14050781 131.14921875 -34.28101562 130.2984375 -34.42578125 129.421875 C-34.47089844 128.74640625 -34.51601562 128.0709375 -34.5625 127.375 C-34.59730469 126.7046875 -34.63210937 126.034375 -34.66796875 125.34375 C-34.77753906 124.5703125 -34.88710937 123.796875 -35 123 C-35.15291504 122.47792969 -35.30583008 121.95585937 -35.46337891 121.41796875 C-35.65722168 120.83660156 -35.85106445 120.25523437 -36.05078125 119.65625 C-36.26299316 119.04394531 -36.47520508 118.43164062 -36.69384766 117.80078125 C-36.91862793 117.16527344 -37.1434082 116.52976562 -37.375 115.875 C-37.59978027 115.23433594 -37.82456055 114.59367187 -38.05615234 113.93359375 C-38.27867676 113.28519531 -38.50120117 112.63679688 -38.73046875 111.96875 C-38.94880371 111.31261719 -39.16713867 110.65648437 -39.39208984 109.98046875 C-39.5927002 109.32691406 -39.79331055 108.67335938 -40 108 C-40.16322754 107.36191406 -40.32645508 106.72382813 -40.49462891 106.06640625 C-40.63690918 105.43605469 -40.77918945 104.80570312 -40.92578125 104.15625 C-41.05621826 103.52984619 -41.18665527 102.90344238 -41.32104492 102.25805664 C-41.4419751 101.63664795 -41.56290527 101.01523926 -41.6875 100.375 C-41.80520752 99.75810303 -41.92291504 99.14120605 -42.04418945 98.50561523 C-42.15593506 97.89403564 -42.26768066 97.28245605 -42.3828125 96.65234375 C-42.48754883 96.0476123 -42.59228516 95.44288086 -42.70019531 94.81982422 C-42.79913086 94.21928223 -42.89806641 93.61874023 -43 93 C-43.0937793 92.39816895 -43.18755859 91.79633789 -43.28417969 91.17626953 C-43.37344727 90.58313965 -43.46271484 89.99000977 -43.5546875 89.37890625 C-43.72226562 88.24324219 -43.88984375 87.10757813 -44.0625 85.9375 C-44.19785156 84.93589844 -44.33320312 83.93429688 -44.47265625 82.90234375 C-44.64667969 81.94457031 -44.82070313 80.98679687 -45 80 C-45.31066406 79.11570312 -45.62132813 78.23140625 -45.94140625 77.3203125 C-46.46541016 75.67675781 -46.46541016 75.67675781 -47 74 C-47.15573486 73.20182861 -47.31146973 72.40365723 -47.47192383 71.58129883 C-47.69851685 70.22427856 -47.69851685 70.22427856 -47.9296875 68.83984375 C-48.15978516 67.41200562 -48.15978516 67.41200562 -48.39453125 65.95532227 C-48.55308594 64.95944092 -48.71164063 63.96355957 -48.875 62.9375 C-49.13216797 61.39050415 -49.13216797 61.39050415 -49.39453125 59.81225586 C-49.57113281 58.7888208 -49.74773438 57.76538574 -49.9296875 56.7109375 C-50.10725586 55.71932617 -50.28482422 54.72771484 -50.46777344 53.70605469 C-50.6434082 52.81305664 -50.81904297 51.92005859 -51 51 C-51.16790039 50.31325195 -51.33580078 49.62650391 -51.50878906 48.91894531 C-51.6734668 48.33983398 -51.83814453 47.76072266 -52.0078125 47.1640625 C-52.33523437 46.14054687 -52.66265625 45.11703125 -53 44.0625 C-53.32871094 43.08925781 -53.65742187 42.11601562 -53.99609375 41.11328125 C-54.49302734 39.57220703 -54.49302734 39.57220703 -55 38 C-55.25547607 37.039729 -55.25547607 37.039729 -55.51611328 36.06005859 C-55.68739746 35.37379395 -55.85868164 34.6875293 -56.03515625 33.98046875 C-56.20724609 33.27849365 -56.37933594 32.57651855 -56.55664062 31.85327148 C-56.72357422 31.15919189 -56.89050781 30.4651123 -57.0625 29.75 C-57.21267578 29.11199463 -57.36285156 28.47398926 -57.51757812 27.81665039 C-57.66775391 27.19137451 -57.81792969 26.56609863 -57.97265625 25.921875 C-58.11437256 25.29667969 -58.25608887 24.67148438 -58.40209961 24.02734375 C-58.59940674 23.35832031 -58.79671387 22.68929687 -59 22 C-59.56763062 20.79537109 -59.56763062 20.79537109 -60.14672852 19.56640625 C-60.51338623 18.75558594 -60.88004395 17.94476563 -61.2578125 17.109375 C-61.51280518 16.35688477 -61.76779785 15.60439453 -62.03051758 14.82910156 C-62.02044678 14.22549805 -62.01037598 13.62189453 -62 13 C-61.45174561 12.70834961 -60.90349121 12.41669922 -60.33862305 12.11621094 C-59.51144775 11.98504883 -58.68427246 11.85388672 -57.83203125 11.71875 C-56.87490234 11.66203125 -55.91777344 11.6053125 -54.93164062 11.546875 C-53.38766602 11.52367187 -53.38766602 11.52367187 -51.8125 11.5 C-50.83345703 11.45359375 -49.85441406 11.4071875 -48.84570312 11.359375 C-47.87181641 11.31296875 -46.89792969 11.2665625 -45.89453125 11.21875 C-44.91822754 11.18523437 -43.94192383 11.15171875 -42.93603516 11.1171875 C-41.96714355 11.07851562 -40.99825195 11.03984375 -40 11 C-38.52926025 10.91105469 -38.52926025 10.91105469 -37.02880859 10.8203125 C-35.65909912 10.70816406 -35.65909912 10.70816406 -34.26171875 10.59375 C-33.44018311 10.52865234 -32.61864746 10.46355469 -31.7722168 10.39648438 C-31.18738525 10.26564453 -30.60255371 10.13480469 -30 10 C-30 9.34 -30 8.68 -30 8 C-29.48091064 7.78408203 -28.96182129 7.56816406 -28.42700195 7.34570312 C-27.70472412 7.15943359 -26.98244629 6.97316406 -26.23828125 6.78125 C-25.44873047 6.57113281 -24.65917969 6.36101562 -23.84570312 6.14453125 C-23.00974609 5.93183594 -22.17378906 5.71914062 -21.3125 5.5 C-20.08756836 5.18095703 -20.08756836 5.18095703 -18.83789062 4.85546875 C-18.04189453 4.64535156 -17.24589844 4.43523437 -16.42578125 4.21875 C-15.26103271 3.91130859 -15.26103271 3.91130859 -14.07275391 3.59765625 C-13.38874512 3.40042969 -12.70473633 3.20320312 -12 3 C-11.12730469 2.6390625 -10.25460938 2.278125 -9.35546875 1.90625 C-8.57816406 1.6071875 -7.80085938 1.308125 -7 1 C-5.41638672 0.69835937 -5.41638672 0.69835937 -3.80078125 0.390625 C-3.20475098 0.31779297 -2.6087207 0.24496094 -1.99462891 0.16992188 C-1.0072876 0.08581055 -1.0072876 0.08581055 0 0 Z " transform="translate(103,146)" style="fill: #EAB2A1;"/><path d="M0 0 C1.0725 -0.103125 2.145 -0.20625 3.25 -0.3125 C3.83652344 -0.29960937 4.42304687 -0.28671875 5.02734375 -0.2734375 C6.00380859 -0.13808594 6.00380859 -0.13808594 7 0 C7.76441406 0.21398438 8.52882812 0.42796875 9.31640625 0.6484375 C10.14011719 0.95007812 10.96382812 1.25171875 11.8125 1.5625 C12.66199219 1.91957031 13.51148438 2.27664063 14.38671875 2.64453125 C15.24910156 3.09183594 16.11148438 3.53914062 17 4 C17.85207031 4.60199219 18.70414062 5.20398438 19.58203125 5.82421875 C20.42121094 6.45972656 21.26039062 7.09523438 22.125 7.75 C22.87007813 8.36359375 23.61515625 8.9771875 24.3828125 9.609375 C25.24648437 10.06828125 26.11015625 10.5271875 27 11 C27.58217285 11.10046631 28.1643457 11.20093262 28.76416016 11.30444336 C29.41433105 11.33159424 30.06450195 11.35874512 30.734375 11.38671875 C31.76618896 11.34248779 31.76618896 11.34248779 32.81884766 11.29736328 C33.53862793 11.1992334 34.2584082 11.10110352 35 11 C36.10480713 10.72325439 36.10480713 10.72325439 37.23193359 10.44091797 C37.98297363 10.2038916 38.73401367 9.96686523 39.5078125 9.72265625 C40.26707031 9.45646484 41.02632813 9.19027344 41.80859375 8.91601562 C42.57300781 8.63435547 43.33742188 8.35269531 44.125 8.0625 C44.89714844 7.78470703 45.66929688 7.50691406 46.46484375 7.22070312 C47.59986328 6.81948242 47.59986328 6.81948242 48.7578125 6.41015625 C49.4295752 6.16402588 50.10133789 5.91789551 50.79345703 5.66430664 C51.52161621 5.44508545 52.24977539 5.22586426 53 5 C53.95608154 4.81083008 54.91216309 4.62166016 55.8972168 4.42675781 C56.92113525 4.28592773 57.94505371 4.14509766 59 4 C60.43218872 3.91238403 60.43218872 3.91238403 61.89331055 3.82299805 C62.88113525 3.80277588 63.86895996 3.78255371 64.88671875 3.76171875 C65.99080078 3.74689453 67.09488281 3.73207031 68.23242188 3.71679688 C69.37259766 3.70712891 70.51277344 3.69746094 71.6875 3.6875 C72.80833984 3.65849609 73.92917969 3.62949219 75.08398438 3.59960938 C76.74977539 3.58704102 76.74977539 3.58704102 78.44921875 3.57421875 C79.54435791 3.60394775 80.63949707 3.63367676 81.76782227 3.66430664 C82.83444092 3.77508545 83.90105957 3.88586426 85 4 C86.03503662 4.26997803 87.07007324 4.53995605 88.13647461 4.81811523 C89.58872437 5.32967163 89.58872437 5.32967163 91.0703125 5.8515625 C92.34865967 6.35743896 92.34865967 6.35743896 93.65283203 6.87353516 C94.81468018 7.43113525 94.81468018 7.43113525 96 8 C96.7532959 8.45552246 97.5065918 8.91104492 98.28271484 9.38037109 C98.91129395 9.81172363 99.53987305 10.24307617 100.1875 10.6875 C100.8165625 11.203125 101.445625 11.71875 102.09375 12.25 C103.03734375 13.11625 103.03734375 13.11625 104 14 C104.6909375 14.66 105.381875 15.32 106.09375 16 C106.7846875 16.721875 107.475625 17.44375 108.1875 18.1875 C108.84363281 18.96351562 109.49976563 19.73953125 110.17578125 20.5390625 C110.77777344 21.35117187 111.37976563 22.16328125 112 23 C112.76376953 24.21816406 112.76376953 24.21816406 113.54296875 25.4609375 C114.20232422 26.74871094 114.20232422 26.74871094 114.875 28.0625 C115.22876709 28.95606201 115.58253418 29.84962402 115.94702148 30.77026367 C116.29450439 31.83607666 116.6419873 32.90188965 117 34 C117.22155762 35.05050537 117.44311523 36.10101074 117.67138672 37.18334961 C117.80265961 38.03908569 117.80265961 38.03908569 117.93658447 38.91210938 C118.01680847 39.52763672 118.09703247 40.14316406 118.1796875 40.77734375 C118.26506775 41.45482666 118.350448 42.13230957 118.43841553 42.83032227 C118.51626282 43.5636377 118.59411011 44.29695313 118.67431641 45.05249023 C118.73822571 45.83695526 118.80213501 46.62142029 118.86798096 47.42965698 C118.91154724 48.27787018 118.95511353 49.12608337 119 50 C119.01053406 50.93176056 119.02106812 51.86352112 119.03192139 52.82351685 C119.02187073 53.81253998 119.01182007 54.80156311 119.00146484 55.82055664 C118.9783725 56.84991837 118.95528015 57.87928009 118.93148804 58.93983459 C118.89737823 60.00125168 118.86326843 61.06266876 118.828125 62.15625 C118.78716705 63.23639877 118.74620911 64.31654755 118.70401001 65.4294281 C118.65731171 66.52650589 118.6106134 67.62358368 118.5625 68.75390625 C118.5109375 69.8639502 118.459375 70.97399414 118.40625 72.11767578 C118.3546875 73.23384277 118.303125 74.35000977 118.25 75.5 C118.20552734 76.61616699 118.16105469 77.73233398 118.11523438 78.88232422 C118.05045898 80.54739014 118.05045898 80.54739014 117.984375 82.24609375 C117.91674454 83.8916198 117.91674454 83.8916198 117.8477478 85.57038879 C117.77615952 87.19070259 117.77615952 87.19070259 117.703125 88.84375 C117.65064606 89.90571091 117.59816711 90.96767181 117.5440979 92.06181335 C117.45966934 93.6064904 117.45966934 93.6064904 117.37353516 95.18237305 C117.28401581 96.66608902 117.28401581 96.66608902 117.19268799 98.17977905 C117.09730743 99.57578842 117.09730743 99.57578842 117 101 C116.93206238 101.84422516 116.86412476 102.68845032 116.79412842 103.55825806 C116.72204163 104.33800995 116.64995483 105.11776184 116.57568359 105.92114258 C116.49751404 106.65107422 116.41934448 107.38100586 116.33880615 108.13305664 C116.26051575 108.80715576 116.18222534 109.48125488 116.1015625 110.17578125 C116.00201263 111.089646 116.00201263 111.089646 115.90045166 112.02197266 C115.82582703 112.59004639 115.75120239 113.15812012 115.67431641 113.7434082 C115.45179199 114.8180835 115.22926758 115.89275879 115 117 C114.78308502 117.59705246 114.56617004 118.19410492 114.34268188 118.80924988 C113.96857681 119.69451103 113.96857681 119.69451103 113.58691406 120.59765625 C113.10448242 121.61730469 112.62205078 122.63695312 112.125 123.6875 C111.63257813 124.59886719 111.14015625 125.51023437 110.6328125 126.44921875 C110.09398437 127.29097656 109.55515625 128.13273438 109 129 C107.99332275 130.14009521 107.99332275 130.14009521 106.96630859 131.30322266 C106.31742676 132.19315918 105.66854492 133.0830957 105 134 C104.75572266 134.89291748 104.51144531 135.78583496 104.25976562 136.70581055 C104.14310547 137.69363525 104.02644531 138.68145996 103.90625 139.69921875 C103.79935852 140.53328499 103.79935852 140.53328499 103.69030762 141.38420105 C103.61461548 141.97461685 103.53892334 142.56503265 103.4609375 143.17333984 C103.35120605 144.09998444 103.35120605 144.09998444 103.23925781 145.04534912 C103.1208252 146.01290131 103.1208252 146.01290131 103 147 C102.90686523 147.67081604 102.81373047 148.34163208 102.71777344 149.03277588 C102.61754883 149.72659363 102.51732422 150.42041138 102.4140625 151.13525391 C102.31064545 151.84986282 102.20722839 152.56447174 102.10067749 153.30073547 C101.99526642 154.03293808 101.88985535 154.76514069 101.78125 155.51953125 C101.67688629 156.2650676 101.57252258 157.01060394 101.46499634 157.7787323 C101.36004852 158.53857925 101.25510071 159.29842621 101.14697266 160.08129883 C101.04088684 160.85422272 100.93480103 161.62714661 100.82550049 162.42349243 C100.71808533 163.21186493 100.61067017 164.00023743 100.5 164.8125 C100.39016785 165.62270599 100.28033569 166.43291199 100.16717529 167.26766968 C100.05706116 168.08643585 99.94694702 168.90520203 99.83349609 169.7487793 C99.72470123 170.56597946 99.61590637 171.38317963 99.5038147 172.22514343 C99.39685272 173.0377211 99.28989075 173.85029877 99.1796875 174.6875 C99.02274918 175.89542961 99.02274918 175.89542961 98.86264038 177.12776184 C98.76198273 177.91446762 98.66132507 178.7011734 98.55761719 179.51171875 C98.46186401 180.27355469 98.36611084 181.03539062 98.26745605 181.8203125 C98.13506531 182.89925781 98.13506531 182.89925781 98 184 C97.8850116 184.97259766 97.8850116 184.97259766 97.7677002 185.96484375 C97.69901733 186.568125 97.63033447 187.17140625 97.55957031 187.79296875 C97.3792627 189.47326172 97.3792627 189.47326172 97.1953125 191.1875 C97.04195435 192.75141479 97.04195435 192.75141479 96.88549805 194.34692383 C96.79953369 195.32556396 96.71356934 196.3042041 96.625 197.3125 C96.54999268 198.26471436 96.47498535 199.21692871 96.39770508 200.19799805 C96.33736084 201.10590088 96.2770166 202.01380371 96.21484375 202.94921875 C96.17085449 203.80563965 96.12686523 204.66206055 96.08154297 205.54443359 C96.05463379 206.35477051 96.02772461 207.16510742 96 208 C95.98864014 209.14782959 95.98864014 209.14782959 95.97705078 210.31884766 C95.98591309 211.04507324 95.99477539 211.77129883 96.00390625 212.51953125 C96.02952637 213.22102295 96.05514648 213.92251465 96.08154297 214.64526367 C96.1339917 215.62523315 96.1339917 215.62523315 96.1875 216.625 C96.26355469 217.73101562 96.33960938 218.83703125 96.41796875 219.9765625 C96.49329834 220.5756543 96.56862793 221.17474609 96.64624023 221.79199219 C96.76298096 222.52063477 96.87972168 223.24927734 97 224 C97.17926025 224.9993457 97.35852051 225.99869141 97.54321289 227.02832031 C97.65168549 227.5862326 97.76015808 228.1441449 97.87191772 228.71896362 C98.05133408 229.59670944 98.05133408 229.59670944 98.234375 230.4921875 C98.36317047 231.09354523 98.49196594 231.69490295 98.62466431 232.31448364 C98.76423553 232.93048431 98.90380676 233.54648499 99.04760742 234.18115234 C99.19853851 234.81027527 99.3494696 235.43939819 99.50497437 236.08758545 C99.66833282 236.71868225 99.83169128 237.34977905 100 238 C100.26715317 238.92561737 100.26715317 238.92561737 100.53970337 239.86993408 C100.82422867 240.79404083 100.82422867 240.79404083 101.11450195 241.73681641 C101.3137175 242.35927246 101.51293304 242.98172852 101.71818542 243.62304688 C101.9259108 244.25275391 102.13363617 244.88246094 102.34765625 245.53125 C102.56227005 246.17143066 102.77688385 246.81161133 102.9980011 247.47119141 C103.21925156 248.12216797 103.44050201 248.77314453 103.66845703 249.44384766 C103.89583557 250.10539856 104.12321411 250.76694946 104.35748291 251.44854736 C104.59013855 252.12552673 104.82279419 252.8025061 105.0625 253.5 C105.29966736 254.20034363 105.53683472 254.90068726 105.78118896 255.62225342 C106.14255951 256.69361542 106.14255951 256.69361542 106.51123047 257.78662109 C106.75510498 258.50878815 106.99897949 259.2309552 107.25024414 259.9750061 C107.49637451 260.70255096 107.74250488 261.43009583 107.99609375 262.1796875 C108.24383545 262.90827972 108.49157715 263.63687195 108.74682617 264.38754272 C108.9952124 265.11655792 109.24359863 265.84557312 109.49951172 266.59667969 C109.74771667 267.32495972 109.99592163 268.05323975 110.25164795 268.80358887 C110.62208221 269.89081238 110.62208221 269.89081238 111 271 C111.24437805 271.71837036 111.4887561 272.43674072 111.74053955 273.17687988 C111.98229919 273.8884021 112.22405884 274.59992432 112.47314453 275.33300781 C112.71207932 276.0368158 112.9510141 276.74062378 113.19718933 277.46575928 C113.43246841 278.16026184 113.6677475 278.8547644 113.91015625 279.5703125 C114.14080276 280.25401917 114.37144928 280.93772583 114.60908508 281.64215088 C114.83533066 282.31389343 115.06157623 282.98563599 115.29467773 283.67773438 C115.51614471 284.33604248 115.73761169 284.99435059 115.96578979 285.67260742 C116.18332916 286.31689697 116.40086853 286.96118652 116.625 287.625 C116.84068634 288.25543213 117.05637268 288.88586426 117.27859497 289.53540039 C117.48837982 290.14826904 117.69816467 290.7611377 117.91430664 291.39257812 C118.11500259 291.98445419 118.31569855 292.57633026 118.5224762 293.18614197 C118.71357468 293.75635574 118.90467316 294.32656952 119.1015625 294.9140625 C119.62459961 296.51906616 119.62459961 296.51906616 120.15820312 298.15649414 C120.43599609 299.09485107 120.71378906 300.03320801 121 301 C121.15919922 301.7417749 121.31839844 302.4835498 121.48242188 303.24780273 C121.57330078 303.85825439 121.66417969 304.46870605 121.7578125 305.09765625 C121.87769531 306.53431641 121.87769531 306.53431641 122 308 C122.06703125 308.68707031 122.1340625 309.37414062 122.203125 310.08203125 C122.22632813 310.93861328 122.22632813 310.93861328 122.25 311.8125 C122.23259766 312.81216797 122.23259766 312.81216797 122.21484375 313.83203125 C122.14394531 314.54746094 122.07304687 315.26289063 122 316 C121.83628906 316.80824219 121.67257813 317.61648438 121.50390625 318.44921875 C121.27574219 319.29097656 121.04757813 320.13273437 120.8125 321 C120.5340625 321.84046875 120.255625 322.6809375 119.96875 323.546875 C119.6490625 324.35640625 119.329375 325.1659375 119 326 C118.6596875 326.72703125 118.319375 327.4540625 117.96875 328.203125 C117.39640625 329.21632813 117.39640625 329.21632813 116.8125 330.25 C116.38066406 330.889375 115.94882813 331.52875 115.50390625 332.1875 C115.00761719 332.785625 114.51132813 333.38375 114 334 C113.11634766 334.8353125 113.11634766 334.8353125 112.21484375 335.6875 C111.56644531 336.203125 110.91804687 336.71875 110.25 337.25 C109.20972656 337.95769531 109.20972656 337.95769531 108.1484375 338.6796875 C107.43945312 339.11539062 106.73046875 339.55109375 106 340 C105.33226562 340.41507812 104.66453125 340.83015625 103.9765625 341.2578125 C103.28304687 341.62648438 102.58953125 341.99515625 101.875 342.375 C101.12605469 342.68050781 100.37710938 342.98601562 99.60546875 343.30078125 C98.74566406 343.53152344 97.88585937 343.76226562 97 344 C95.92363281 344.13792969 94.84726563 344.27585937 93.73828125 344.41796875 C93.16013672 344.452854 92.58199219 344.48773926 91.98632812 344.52368164 C91.0959082 344.54289673 91.0959082 344.54289673 90.1875 344.5625 C89.58744141 344.55532959 88.98738281 344.54815918 88.36914062 344.54077148 C87.76908203 344.50927002 87.16902344 344.47776855 86.55078125 344.4453125 C85.95475098 344.38762695 85.3587207 344.32994141 84.74462891 344.27050781 C84.16890137 344.18124023 83.59317383 344.09197266 83 344 C81.44345703 343.56300781 81.44345703 343.56300781 79.85546875 343.1171875 C78.38013672 342.53324219 78.38013672 342.53324219 76.875 341.9375 C75.41707031 341.24333984 75.41707031 341.24333984 73.9296875 340.53515625 C72.47949219 339.77525391 72.47949219 339.77525391 71 339 C70.01257813 338.50371094 69.02515625 338.00742187 68.0078125 337.49609375 C66.51894531 336.69365234 66.51894531 336.69365234 65 335.875 C64.01515625 335.28203125 63.0303125 334.6890625 62.015625 334.078125 C61.52126953 333.75134766 61.02691406 333.42457031 60.51757812 333.08789062 C60.01677734 332.72888672 59.51597656 332.36988281 59 332 C58.48373047 331.58943359 57.96746094 331.17886719 57.43554688 330.75585938 C56.91541016 330.31564453 56.39527344 329.87542969 55.859375 329.421875 C55.34358887 328.96659424 54.82780273 328.51131348 54.29638672 328.04223633 C53.7860791 327.57454834 53.27577148 327.10686035 52.75 326.625 C52.2461377 326.14893311 51.74227539 325.67286621 51.22314453 325.18237305 C50.73442871 324.70840088 50.24571289 324.23442871 49.7421875 323.74609375 C49.03787598 323.04589111 49.03787598 323.04589111 48.31933594 322.33154297 C47.88395508 321.89213379 47.44857422 321.45272461 47 321 C45.92105469 319.90365234 45.92105469 319.90365234 44.8203125 318.78515625 C44.17835937 318.09292969 43.53640625 317.40070313 42.875 316.6875 C42.25367187 315.96304687 41.63234375 315.23859375 40.9921875 314.4921875 C40.33476563 313.66976563 39.67734375 312.84734375 39 312 C38.61102539 311.49629883 38.22205078 310.99259766 37.82128906 310.47363281 C37.4084668 309.92803711 36.99564453 309.38244141 36.5703125 308.8203125 C36.14854736 308.25086914 35.72678223 307.68142578 35.29223633 307.09472656 C34.86579834 306.5065918 34.43936035 305.91845703 34 305.3125 C33.57807373 304.71663086 33.15614746 304.12076172 32.72143555 303.50683594 C32.30418213 302.90387695 31.88692871 302.30091797 31.45703125 301.6796875 C31.04533691 301.07092773 30.63364258 300.46216797 30.20947266 299.83496094 C29.61078369 298.92665527 29.61078369 298.92665527 29 298 C28.62278809 297.40993164 28.24557617 296.81986328 27.85693359 296.21191406 C27.4955127 295.62893555 27.1340918 295.04595703 26.76171875 294.4453125 C26.41044922 293.85709717 26.05917969 293.26888184 25.69726562 292.6628418 C25.36404297 292.093479 25.03082031 291.52411621 24.6875 290.9375 C24.38650391 290.43323486 24.08550781 289.92896973 23.77539062 289.40942383 C23.48212891 288.8914624 23.18886719 288.37350098 22.88671875 287.83984375 C22.59055664 287.26991699 22.29439453 286.69999023 21.98925781 286.11279297 C21.66280273 285.41557129 21.33634766 284.71834961 21 284 C20.59362305 283.04109863 20.18724609 282.08219727 19.76855469 281.09423828 C19.5546257 280.56431778 19.34069672 280.03439728 19.12028503 279.48841858 C18.90398941 278.93665451 18.68769379 278.38489044 18.46484375 277.81640625 C18.24955521 277.25171127 18.03426666 276.6870163 17.81245422 276.10520935 C17.60243271 275.53625443 17.39241119 274.9672995 17.17602539 274.38110352 C16.87222458 273.52804123 16.87222458 273.52804123 16.56228638 272.65774536 C16.37673187 272.11068939 16.19117737 271.56363342 16 271 C15.7105249 270.03956787 15.4210498 269.07913574 15.12280273 268.08959961 C14.87344971 267.15253174 14.62409668 266.21546387 14.3671875 265.25 C14.12411865 264.25637451 13.8810498 263.26274902 13.63061523 262.23901367 C13.38126221 261.17013916 13.13190918 260.10126465 12.875 259 C12.73748322 258.42327545 12.59996643 257.8465509 12.45828247 257.25234985 C12.31357513 256.6448288 12.1688678 256.03730774 12.01977539 255.41137695 C11.86909103 254.77016403 11.71840668 254.12895111 11.56315613 253.4683075 C11.40696304 252.79427383 11.25076996 252.12024017 11.08984375 251.42578125 C10.93022659 250.72415359 10.77060944 250.02252594 10.6061554 249.29963684 C10.43947861 248.55445297 10.27280182 247.8092691 10.10107422 247.04150391 C9.83795441 245.84778168 9.83795441 245.84778168 9.56951904 244.62994385 C9.28760712 243.32812164 9.28760712 243.32812164 9 242 C8.79272278 241.02254822 8.58544556 240.04509644 8.37188721 239.0380249 C8.15264587 237.99213196 7.93340454 236.94623901 7.70751953 235.86865234 C7.48100708 234.78019012 7.25449463 233.69172791 7.02111816 232.57028198 C6.78856323 231.44751862 6.5560083 230.32475525 6.31640625 229.16796875 C6.19856277 228.59883884 6.0807193 228.02970894 5.95930481 227.44333267 C5.78143684 226.58351603 5.78143684 226.58351603 5.59997559 225.70632935 C5.48093998 225.12993273 5.36190437 224.55353611 5.23926163 223.95967293 C5.11986095 223.38065664 5.00046028 222.80164036 4.87744141 222.20507812 C4.75760769 221.62324705 4.63777397 221.04141598 4.51430893 220.44195366 C4.3948 219.86048639 4.27529106 219.27901913 4.15216064 218.67993164 C4.03337807 218.10065918 3.91459549 217.52138672 3.79221344 216.92456055 C3.675158 216.35133057 3.55810257 215.77810059 3.4375 215.1875 C3.21197449 214.0725415 2.98644897 212.95758301 2.75408936 211.80883789 C2.53279358 210.71240967 2.3114978 209.61598145 2.08349609 208.48632812 C1.86260818 207.3977652 1.64172028 206.30920227 1.41413879 205.18765259 C1.19368393 204.10865692 0.97322906 203.02966125 0.74609375 201.91796875 C0.52575974 200.84807709 0.30542572 199.77818542 0.07841492 198.6758728 C-0.144608 197.61091583 -0.36763092 196.54595886 -0.59741211 195.44873047 C-0.93734695 193.85916534 -0.93734695 193.85916534 -1.28414917 192.23748779 C-1.52037994 191.16911682 -1.75661072 190.10074585 -2 189 C-2.25629181 187.89746887 -2.51258362 186.79493774 -2.77664185 185.65899658 C-3.04056732 184.55739197 -3.3044928 183.45578735 -3.57641602 182.32080078 C-3.84119247 181.24099442 -4.10596893 180.16118805 -4.37876892 179.04866028 C-4.6379158 178.0077977 -4.89706268 176.96693512 -5.1640625 175.89453125 C-5.40560562 174.92210983 -5.64714874 173.94968842 -5.89601135 172.94779968 C-6.1296489 172.02763565 -6.36328644 171.10747162 -6.60400391 170.15942383 C-6.833311 169.28666809 -7.0626181 168.41391235 -7.2988739 167.51470947 C-7.64593132 166.26992828 -7.64593132 166.26992828 -8 165 C-8.24736404 164.19737732 -8.49472809 163.39475464 -8.74958801 162.56781006 C-8.99392075 161.82106018 -9.23825348 161.0743103 -9.48999023 160.30493164 C-9.81712257 159.3346981 -9.81712257 159.3346981 -10.15086365 158.34486389 C-10.47837364 157.43165627 -10.47837364 157.43165627 -10.8125 156.5 C-11.06996506 155.83699387 -11.32743011 155.17398773 -11.59269714 154.4908905 C-11.82894302 153.90866226 -12.0651889 153.32643402 -12.30859375 152.7265625 C-12.57526855 152.1171582 -12.84194336 151.50775391 -13.11669922 150.87988281 C-13.40818848 150.25952148 -13.69967773 149.63916016 -14 149 C-14.50104248 148.0114502 -14.50104248 148.0114502 -15.01220703 147.00292969 C-15.37040527 146.32907227 -15.72860352 145.65521484 -16.09765625 144.9609375 C-16.46882568 144.28587158 -16.83999512 143.61080566 -17.22241211 142.9152832 C-17.60276611 142.24198975 -17.98312012 141.56869629 -18.375 140.875 C-18.7572876 140.21137451 -19.1395752 139.54774902 -19.53344727 138.86401367 C-19.91686279 138.20892822 -20.30027832 137.55384277 -20.6953125 136.87890625 C-21.07848633 136.23195801 -21.46166016 135.58500977 -21.85644531 134.91845703 C-22.42250488 133.9688208 -22.42250488 133.9688208 -23 133 C-23.54672363 132.08323486 -23.54672363 132.08323486 -24.10449219 131.14794922 C-24.45930664 130.55127441 -24.81412109 129.95459961 -25.1796875 129.33984375 C-25.52563965 128.75372314 -25.8715918 128.16760254 -26.22802734 127.5637207 C-26.56527832 126.98581787 -26.9025293 126.40791504 -27.25 125.8125 C-27.58080566 125.23781982 -27.91161133 124.66313965 -28.25244141 124.07104492 C-28.73076416 123.21990112 -28.73076416 123.21990112 -29.21875 122.3515625 C-29.67507812 121.51286621 -29.67507812 121.51286621 -30.140625 120.65722656 C-30.42421875 120.1103418 -30.7078125 119.56345703 -31 119 C-31.4846875 117.95585937 -31.969375 116.91171875 -32.46875 115.8359375 C-32.8915625 114.79695313 -33.314375 113.75796875 -33.75 112.6875 C-34.13800781 111.61371094 -34.52601562 110.53992188 -34.92578125 109.43359375 C-35.10705566 108.87655762 -35.28833008 108.31952148 -35.47509766 107.74560547 C-35.64831543 107.16955566 -35.8215332 106.59350586 -36 106 C-36.16419434 105.39945801 -36.32838867 104.79891602 -36.49755859 104.18017578 C-36.65691895 103.55481934 -36.8162793 102.92946289 -36.98046875 102.28515625 C-37.13894287 101.63144043 -37.29741699 100.97772461 -37.46069336 100.30419922 C-37.69671265 99.28737061 -37.69671265 99.28737061 -37.9375 98.25 C-38.09162354 97.55922363 -38.24574707 96.86844727 -38.40454102 96.15673828 C-38.56494873 95.42825684 -38.72535645 94.69977539 -38.890625 93.94921875 C-39.06142578 93.17368652 -39.23222656 92.3981543 -39.40820312 91.59912109 C-39.70114258 90.31255615 -39.70114258 90.31255615 -40 89 C-40.36641602 87.49493896 -40.36641602 87.49493896 -40.74023438 85.95947266 C-41.13952148 84.34951416 -41.13952148 84.34951416 -41.546875 82.70703125 C-41.81765869 81.60907227 -42.08844238 80.51111328 -42.36743164 79.37988281 C-42.6380542 78.28514648 -42.90867676 77.19041016 -43.1875 76.0625 C-43.44974365 75.02061523 -43.7119873 73.97873047 -43.98217773 72.90527344 C-44.22911377 71.89625977 -44.4760498 70.88724609 -44.73046875 69.84765625 C-44.95806885 68.86603516 -45.18566895 67.88441406 -45.42016602 66.87304688 C-45.61151123 65.92494141 -45.80285645 64.97683594 -46 64 C-46.12882568 63.08283203 -46.25765137 62.16566406 -46.39038086 61.22070312 C-46.4806958 60.35509766 -46.57101074 59.48949219 -46.6640625 58.59765625 C-46.72972412 57.79158936 -46.79538574 56.98552246 -46.86303711 56.1550293 C-46.90823486 55.44386963 -46.95343262 54.73270996 -47 54 C-47.05542969 52.97648437 -47.11085937 51.95296875 -47.16796875 50.8984375 C-47.17441406 50.06570312 -47.18085937 49.23296875 -47.1875 48.375 C-47.17589844 47.45976563 -47.16429687 46.54453125 -47.15234375 45.6015625 C-47.10207031 44.74304687 -47.05179688 43.88453125 -47 43 C-46.89816406 42.26523437 -46.79632813 41.53046875 -46.69140625 40.7734375 C-46.54574219 40.10570312 -46.40007813 39.43796875 -46.25 38.75 C-46.06308594 38.11578125 -45.87617187 37.4815625 -45.68359375 36.828125 C-45.45800781 36.22484375 -45.23242188 35.6215625 -45 35 C-44.74347656 34.41734375 -44.48695312 33.8346875 -44.22265625 33.234375 C-43.92230469 32.66203125 -43.62195312 32.0896875 -43.3125 31.5 C-42.78849609 30.64921875 -42.78849609 30.64921875 -42.25390625 29.78125 C-41.84011719 29.1934375 -41.42632812 28.605625 -41 28 C-40.49339844 27.3503125 -39.98679687 26.700625 -39.46484375 26.03125 C-38.89894531 25.3609375 -38.33304688 24.690625 -37.75 24 C-37.1415625 23.3296875 -36.533125 22.659375 -35.90625 21.96875 C-35.2771875 21.3190625 -34.648125 20.669375 -34 20 C-33.3915625 19.4121875 -32.783125 18.824375 -32.15625 18.21875 C-31.21265625 17.36796875 -31.21265625 17.36796875 -30.25 16.5 C-29.58355469 15.93667969 -28.91710937 15.37335937 -28.23046875 14.79296875 C-27.49441406 14.20128906 -26.75835938 13.60960937 -26 13 C-25.12988281 12.31550781 -24.25976562 11.63101562 -23.36328125 10.92578125 C-22.90493896 10.57588135 -22.44659668 10.22598145 -21.97436523 9.86547852 C-21.50844971 9.51799561 -21.04253418 9.1705127 -20.5625 8.8125 C-19.63179687 8.14734375 -18.70109375 7.4821875 -17.7421875 6.796875 C-16.83726563 6.20390625 -15.93234375 5.6109375 -15 5 C-14.17757812 4.55140625 -13.35515625 4.1028125 -12.5078125 3.640625 C-11.74210937 3.28484375 -10.97640625 2.9290625 -10.1875 2.5625 C-9.46175781 2.26988281 -8.73601563 1.97726562 -7.98828125 1.67578125 C-7.33214844 1.45277344 -6.67601562 1.22976563 -6 1 C-4.453125 0.62875 -4.453125 0.62875 -2.875 0.25 C-1.92625 0.1675 -0.9775 0.085 0 0 Z M-1 7 C-1.81210937 7.13019531 -2.62421875 7.26039062 -3.4609375 7.39453125 C-4.62496094 7.63236328 -4.62496094 7.63236328 -5.8125 7.875 C-6.53953125 8.05804688 -7.2665625 8.24109375 -8.015625 8.4296875 C-8.67046875 8.61789063 -9.3253125 8.80609375 -10 9 C-11.5159375 9.495 -11.5159375 9.495 -13.0625 10 C-13.701875 10.33 -14.34125 10.66 -15 11 C-15 11.66 -15 12.32 -15 13 C-15.87591797 13.46212891 -15.87591797 13.46212891 -16.76953125 13.93359375 C-17.50558594 14.28550781 -18.24164062 14.63742188 -19 15 C-19.60199219 15.46535156 -20.20398438 15.93070313 -20.82421875 16.41015625 C-21.43910156 16.95542969 -22.05398437 17.50070313 -22.6875 18.0625 C-23.37714844 18.68382812 -24.06679688 19.30515625 -24.77734375 19.9453125 C-25.87755859 20.96238281 -25.87755859 20.96238281 -27 22 C-27.78503906 22.71929687 -28.57007813 23.43859375 -29.37890625 24.1796875 C-30.55259766 25.29730469 -30.55259766 25.29730469 -31.75 26.4375 C-32.82507813 27.45650391 -32.82507813 27.45650391 -33.921875 28.49609375 C-34.60765625 29.32238281 -35.2934375 30.14867188 -36 31 C-36.56485107 31.83168701 -36.56485107 31.83168701 -37.14111328 32.68017578 C-37.50446777 33.31294434 -37.86782227 33.94571289 -38.2421875 34.59765625 C-38.56896484 35.28867432 -38.89574219 35.97969238 -39.23242188 36.69165039 C-39.48572266 37.45340576 -39.73902344 38.21516113 -40 39 C-40.11408203 39.85005615 -40.22816406 40.7001123 -40.34570312 41.57592773 C-40.38373047 42.47899658 -40.42175781 43.38206543 -40.4609375 44.3125 C-40.45707031 45.24320313 -40.45320313 46.17390625 -40.44921875 47.1328125 C-40.42472656 48.07898437 -40.40023437 49.02515625 -40.375 50 C-40.37371094 50.94617187 -40.37242188 51.89234375 -40.37109375 52.8671875 C-40.35949219 53.79789063 -40.34789062 54.72859375 -40.3359375 55.6875 C-40.29895752 56.59185791 -40.26197754 57.49621582 -40.22387695 58.42797852 C-40.14999756 59.27674561 -40.07611816 60.1255127 -40 61 C-39.86102295 61.75015381 -39.7220459 62.50030762 -39.57885742 63.27319336 C-39.40974854 63.95518799 -39.24063965 64.63718262 -39.06640625 65.33984375 C-38.79666992 66.29093018 -38.79666992 66.29093018 -38.52148438 67.26123047 C-38.34939453 67.83502441 -38.17730469 68.40881836 -38 69 C-37.75378906 69.95003906 -37.50757813 70.90007812 -37.25390625 71.87890625 C-37.02574219 72.76449219 -36.79757813 73.65007812 -36.5625 74.5625 C-36.30210938 75.59503906 -36.04171875 76.62757812 -35.7734375 77.69140625 C-35.51820312 78.78324219 -35.26296875 79.87507813 -35 81 C-34.67902344 82.68416016 -34.67902344 82.68416016 -34.3515625 84.40234375 C-34.24408691 84.98790039 -34.13661133 85.57345703 -34.02587891 86.17675781 C-33.91421387 86.77842773 -33.80254883 87.38009766 -33.6875 88 C-33.56938965 88.61327148 -33.4512793 89.22654297 -33.32958984 89.85839844 C-33.2002002 90.49680664 -33.07081055 91.13521484 -32.9375 91.79296875 C-32.79441406 92.46118652 -32.65132812 93.1294043 -32.50390625 93.81787109 C-32.33761719 94.53797363 -32.17132813 95.25807617 -32 96 C-31.79503906 96.81162598 -31.59007812 97.62325195 -31.37890625 98.45947266 C-31.15074219 99.31460449 -30.92257813 100.16973633 -30.6875 101.05078125 C-30.32458862 102.3502771 -30.32458862 102.3502771 -29.9543457 103.67602539 C-29.70128662 104.54606201 -29.44822754 105.41609863 -29.1875 106.3125 C-28.92864014 107.17544678 -28.66978027 108.03839355 -28.40307617 108.92749023 C-28.13986572 109.76094971 -27.87665527 110.59440918 -27.60546875 111.453125 C-27.33911621 112.24525391 -27.07276367 113.03738281 -26.79833984 113.85351562 C-26.5348877 114.56185547 -26.27143555 115.27019531 -26 116 C-25.25169922 117.53914063 -25.25169922 117.53914063 -24.48828125 119.109375 C-23.99714844 119.91890625 -23.50601562 120.7284375 -23 121.5625 C-22.26136719 122.65111328 -22.26136719 122.65111328 -21.5078125 123.76171875 C-21.01023437 124.50035156 -20.51265625 125.23898438 -20 126 C-19.48179688 126.95519531 -18.96359375 127.91039062 -18.4296875 128.89453125 C-17.66011719 130.36986328 -17.66011719 130.36986328 -16.875 131.875 C-16.41867188 132.75929688 -15.96234375 133.64359375 -15.4921875 134.5546875 C-14.75355469 135.76511719 -14.75355469 135.76511719 -14 137 C-13.34257813 137.74507812 -12.68515625 138.49015625 -12.0078125 139.2578125 C-11.01394531 140.12019531 -11.01394531 140.12019531 -10 141 C-9.01 141.33 -8.02 141.66 -7 142 C-6.12009399 142.06405029 -6.12009399 142.06405029 -5.22241211 142.12939453 C-4.25960327 142.13108643 -4.25960327 142.13108643 -3.27734375 142.1328125 C-2.22256836 142.13474609 -2.22256836 142.13474609 -1.14648438 142.13671875 C-0.41751953 142.13285156 0.31144531 142.12898437 1.0625 142.125 C1.79533203 142.12886719 2.52816406 142.13273438 3.28320312 142.13671875 C3.98509766 142.13542969 4.68699219 142.13414062 5.41015625 142.1328125 C6.05090088 142.13168457 6.69164551 142.13055664 7.35180664 142.12939453 C7.89571045 142.08669434 8.43961426 142.04399414 9 142 C9.66 141.67 10.32 141.34 11 141 C11.69351563 140.93039063 12.38703125 140.86078125 13.1015625 140.7890625 C13.93429688 140.73492187 14.76703125 140.68078125 15.625 140.625 C16.52992187 140.54121094 17.43484375 140.45742187 18.3671875 140.37109375 C19.67042969 140.18740234 19.67042969 140.18740234 21 140 C21.64195313 139.80535156 22.28390625 139.61070312 22.9453125 139.41015625 C23.54085937 139.17167969 24.13640625 138.93320313 24.75 138.6875 C25.37519531 138.42582031 26.00039062 138.16414062 26.64453125 137.89453125 C27.42183594 137.59933594 28.19914062 137.30414063 29 137 C29.83797119 136.74549072 29.83797119 136.74549072 30.69287109 136.48583984 C31.31371582 136.30875488 31.93456055 136.13166992 32.57421875 135.94921875 C33.2094043 135.77108643 33.84458984 135.5929541 34.49902344 135.40942383 C35.45856934 135.14488403 35.45856934 135.14488403 36.4375 134.875 C37.37964355 134.61916138 37.37964355 134.61916138 38.34082031 134.3581543 C38.92831055 134.19613525 39.51580078 134.03411621 40.12109375 133.8671875 C41.07113281 133.58101563 42.02117187 133.29484375 43 133 C43.33 132.67 43.66 132.34 44 132 C45.37671875 131.73509766 45.37671875 131.73509766 46.78125 131.46484375 C47.66018921 131.33360107 47.66018921 131.33360107 48.55688477 131.19970703 C49.19811279 131.11317871 49.83934082 131.02665039 50.5 130.9375 C51.16636475 130.85097168 51.83272949 130.76444336 52.51928711 130.67529297 C53.2128833 130.5929541 53.90647949 130.51061523 54.62109375 130.42578125 C55.34022949 130.35053223 56.05936523 130.2752832 56.80029297 130.19775391 C57.88914795 130.09986572 57.88914795 130.09986572 59 130 C59.70914551 129.9489209 60.41829102 129.8978418 61.14892578 129.84521484 C61.85388184 129.80734863 62.55883789 129.76948242 63.28515625 129.73046875 C63.9910791 129.70678223 64.69700195 129.6830957 65.42431641 129.65869141 C66.12991699 129.64757324 66.83551758 129.63645508 67.5625 129.625 C68.27067871 129.62161621 68.97885742 129.61823242 69.70849609 129.61474609 C70.76351318 129.63722412 70.76351318 129.63722412 71.83984375 129.66015625 C72.53319824 129.6977002 73.22655273 129.73524414 73.94091797 129.77392578 C74.62041504 129.84853027 75.29991211 129.92313477 76 130 C76.66016113 130.13776855 77.32032227 130.27553711 78.00048828 130.41748047 C78.64099121 130.58779785 79.28149414 130.75811523 79.94140625 130.93359375 C80.56394287 131.11519043 81.18647949 131.29678711 81.82788086 131.48388672 C82.42093018 131.6748291 83.01397949 131.86577148 83.625 132.0625 C84.68976563 132.44535156 85.75453125 132.82820313 86.8515625 133.22265625 C87.89054687 133.47917969 88.92953125 133.73570312 90 134 C90.64420898 133.98952637 91.28841797 133.97905273 91.95214844 133.96826172 C92.91556152 133.85828857 92.91556152 133.85828857 93.8984375 133.74609375 C94.92195312 133.49988281 95.94546875 133.25367188 97 133 C97 132.34 97 131.68 97 131 C97.59554687 130.70867187 98.19109375 130.41734375 98.8046875 130.1171875 C99.52914062 129.74851562 100.25359375 129.37984375 101 129 C101.53882813 128.40445313 102.07765625 127.80890625 102.6328125 127.1953125 C103.12523437 126.51210937 103.61765625 125.82890625 104.125 125.125 C104.62257812 124.44695312 105.12015625 123.76890625 105.6328125 123.0703125 C106.08398438 122.38710937 106.53515625 121.70390625 107 121 C107.36867187 120.41992188 107.73734375 119.83984375 108.1171875 119.2421875 C108.40851563 118.50226563 108.69984375 117.76234375 109 117 C109.17217041 115.87287598 109.34434082 114.74575195 109.52172852 113.58447266 C109.60527588 112.86953644 109.68882324 112.15460022 109.77490234 111.41799927 C109.88632568 110.22108963 109.88632568 110.22108963 110 109 C110.05397949 108.13704315 110.10795898 107.2740863 110.16357422 106.38497925 C110.20764404 105.45678375 110.25171387 104.52858826 110.29711914 103.57226562 C110.33708511 102.58343384 110.37705109 101.59460205 110.41822815 100.57580566 C110.45681442 99.52985229 110.4954007 98.48389893 110.53515625 97.40625 C110.57813339 96.30132202 110.62111053 95.19639404 110.66539001 94.0579834 C110.73144188 92.34318787 110.73144188 92.34318787 110.79882812 90.59375 C110.82047814 90.0123954 110.84212816 89.4310408 110.86443424 88.8320694 C110.88604838 88.24682243 110.90766253 87.66157547 110.92993164 87.05859375 C110.95166443 86.47102295 110.97339722 85.88345215 110.99578857 85.27807617 C111.01780334 84.69131104 111.03981812 84.1045459 111.0625 83.5 C111.0851593 82.91839111 111.1078186 82.33678223 111.13116455 81.73754883 C111.15402527 81.15900146 111.17688599 80.5804541 111.20043945 79.984375 C111.24579834 78.83453125 111.29115723 77.6846875 111.33789062 76.5 C111.38175903 75.36284546 111.42562744 74.22569092 111.4708252 73.05407715 C111.51267944 71.93279419 111.55453369 70.81151123 111.59765625 69.65625 C111.63677124 68.54817993 111.67588623 67.44010986 111.71618652 66.29846191 C111.76966248 64.686026 111.76966248 64.686026 111.82421875 63.04101562 C111.85588135 62.01081299 111.88754395 60.98061035 111.92016602 59.91918945 C111.94651123 58.95585693 111.97285645 57.99252441 112 57 C112.01909424 56.13914795 112.03818848 55.2782959 112.05786133 54.39135742 C112.07099365 53.60414307 112.08412598 52.81692871 112.09765625 52.00585938 C112.10453964 51.27379272 112.11142303 50.54172607 112.11851501 49.78747559 C112.12365868 48.77892517 112.12365868 48.77892517 112.12890625 47.75 C112.13479263 47.14305298 112.14067902 46.53610596 112.14674377 45.9107666 C112.14544968 45.34724487 112.14415558 44.78372314 112.14282227 44.203125 C112.09569092 43.14609375 112.04855957 42.0890625 112 41 C111.92431793 40.41998734 111.84863586 39.83997467 111.7706604 39.24238586 C111.67578339 38.67037949 111.58090637 38.09837311 111.4831543 37.5090332 C111.28246338 36.51605225 111.08177246 35.52307129 110.875 34.5 C110.44960938 33.06720703 110.44960938 33.06720703 110.015625 31.60546875 C109.68046875 30.74566406 109.3453125 29.88585937 109 29 C108.64421875 28.27425781 108.2884375 27.54851563 107.921875 26.80078125 C107.49390625 26.14464844 107.0659375 25.48851563 106.625 24.8125 C105.85349609 23.89017578 105.85349609 23.89017578 105.06640625 22.94921875 C104.04353516 21.98435547 104.04353516 21.98435547 103 21 C102.52675293 20.61150879 102.05350586 20.22301758 101.56591797 19.82275391 C101.03756348 19.41331543 100.50920898 19.00387695 99.96484375 18.58203125 C99.40780762 18.17299561 98.85077148 17.76395996 98.27685547 17.3425293 C97.71111816 16.94074463 97.14538086 16.53895996 96.5625 16.125 C96.02512207 15.7431958 95.48774414 15.3613916 94.93408203 14.96801758 C94.40024902 14.6098999 93.86641602 14.25178223 93.31640625 13.8828125 C92.77040771 13.55152344 92.22440918 13.22023438 91.66186523 12.87890625 C91.11344971 12.58886719 90.56503418 12.29882812 90 12 C89.4625415 11.77183594 88.92508301 11.54367188 88.37133789 11.30859375 C87.81824951 11.12683594 87.26516113 10.94507813 86.6953125 10.7578125 C86.11305908 10.61263184 85.53080566 10.46745117 84.9309082 10.31787109 C84.2937085 10.21297363 83.65650879 10.10807617 83 10 C81.89434692 9.91032959 81.89434692 9.91032959 80.76635742 9.81884766 C79.97334229 9.79097168 79.18032715 9.7630957 78.36328125 9.734375 C77.13508667 9.72809082 77.13508667 9.72809082 75.88208008 9.72167969 C74.61013794 9.73569824 74.61013794 9.73569824 73.3125 9.75 C72.42908936 9.75676758 71.54567871 9.76353516 70.63549805 9.77050781 C69.31545776 9.79129395 69.31545776 9.79129395 67.96875 9.8125 C67.11410156 9.83828125 66.25945312 9.8640625 65.37890625 9.890625 C64.59386719 9.92671875 63.80882813 9.9628125 63 10 C62.35675781 10.04640625 61.71351562 10.0928125 61.05078125 10.140625 C60.48746094 10.19734375 59.92414063 10.2540625 59.34375 10.3125 C58.3434375 10.456875 57.343125 10.60125 56.3125 10.75 C55.39984375 10.93046875 54.4871875 11.1109375 53.546875 11.296875 C52.70640625 11.52890625 51.8659375 11.7609375 51 12 C50.15953125 12.31453125 49.3190625 12.6290625 48.453125 12.953125 C47.66421875 13.29859375 46.8753125 13.6440625 46.0625 14 C45.34191406 14.34546875 44.62132813 14.6909375 43.87890625 15.046875 C43.25886719 15.36140625 42.63882813 15.6759375 42 16 C40.7625 16.61875 40.7625 16.61875 39.5 17.25 C38.2625 17.62125 38.2625 17.62125 37 18 C36.34515625 18.08507813 35.6903125 18.17015625 35.015625 18.2578125 C34.26796875 18.29648437 33.5203125 18.33515625 32.75 18.375 C31.98042969 18.36210937 31.21085937 18.34921875 30.41796875 18.3359375 C29.22107422 18.16964844 29.22107422 18.16964844 28 18 C27.17113281 17.70351563 26.34226562 17.40703125 25.48828125 17.1015625 C24.68777344 16.73804688 23.88726562 16.37453125 23.0625 16 C22.33160156 15.62875 21.60070312 15.2575 20.84765625 14.875 C19.93306641 14.441875 19.93306641 14.441875 19 14 C18.34 14 17.68 14 17 14 C17 13.34 17 12.68 17 12 C16.53851563 11.57460938 16.07703125 11.14921875 15.6015625 10.7109375 C14.62316406 10.04964844 14.62316406 10.04964844 13.625 9.375 C12.89410156 8.93800781 12.16320313 8.50101563 11.41015625 8.05078125 C10.61480469 7.70402344 9.81945313 7.35726563 9 7 C8.19433594 6.86980469 7.38867188 6.73960938 6.55859375 6.60546875 C5.32302734 6.58419922 5.32302734 6.58419922 4.0625 6.5625 C2.80566406 6.63017578 2.80566406 6.63017578 1.5234375 6.69921875 C0.69070312 6.79847656 -0.14203125 6.89773437 -1 7 Z M55 135 C53.52660156 135.13535156 53.52660156 135.13535156 52.0234375 135.2734375 C51.27320313 135.41007813 50.52296875 135.54671875 49.75 135.6875 C49.03070313 135.86539063 48.31140625 136.04328125 47.5703125 136.2265625 C46.72210938 136.48179687 45.87390625 136.73703125 45 137 C44.37577148 137.18788086 43.75154297 137.37576172 43.10839844 137.56933594 C42.41004883 137.78106445 41.71169922 137.99279297 40.9921875 138.2109375 C40.27321289 138.43177002 39.55423828 138.65260254 38.81347656 138.88012695 C37.73018066 139.21790161 37.73018066 139.21790161 36.625 139.5625 C35.93374023 139.78446045 35.24248047 140.0064209 34.53027344 140.23510742 C33.87317383 140.44756104 33.21607422 140.66001465 32.5390625 140.87890625 C31.92192383 141.08016113 31.30478516 141.28141602 30.66894531 141.48876953 C29.84281738 141.74182861 29.84281738 141.74182861 29 142 C28.18273437 142.17402344 27.36546875 142.34804687 26.5234375 142.52734375 C26.02070312 142.68332031 25.51796875 142.83929688 25 143 C25 143.66 25 144.32 25 145 C23.94683594 145.19722656 22.89367187 145.39445313 21.80859375 145.59765625 C21.11733398 145.6757251 20.42607422 145.75379395 19.71386719 145.83422852 C18.58706543 145.9472229 18.58706543 145.9472229 17.4375 146.0625 C16.30103027 146.19579712 16.30103027 146.19579712 15.14160156 146.33178711 C13.97902832 146.46145874 13.97902832 146.46145874 12.79296875 146.59375 C12.00067871 146.67109375 11.20838867 146.7484375 10.39208984 146.828125 C9.6027002 146.88484375 8.81331055 146.9415625 8 147 C6.84878662 147.01933594 6.84878662 147.01933594 5.67431641 147.0390625 C4.9322998 147.03648437 4.1902832 147.03390625 3.42578125 147.03125 C2.72203369 147.03890381 2.01828613 147.04655762 1.29321289 147.05444336 C0.61895264 147.05710205 -0.05530762 147.05976074 -0.75 147.0625 C-1.42361572 147.02713135 -2.09723145 146.9917627 -2.79125977 146.95532227 C-3.69122681 146.96390259 -3.69122681 146.96390259 -4.609375 146.97265625 C-5.39828125 147.31167969 -6.1871875 147.65070313 -7 148 C-6.91770142 148.80836304 -6.91770142 148.80836304 -6.83374023 149.63305664 C-6.47324585 150.70027954 -6.47324585 150.70027954 -6.10546875 151.7890625 C-5.77434082 152.60608643 -5.44321289 153.42311035 -5.10205078 154.26489258 C-4.55653564 155.61877075 -4.55653564 155.61877075 -4 157 C-3.71495605 157.94190186 -3.42991211 158.88380371 -3.13623047 159.85424805 C-2.86568848 160.847229 -2.59514648 161.84020996 -2.31640625 162.86328125 C-2.03047607 163.90540771 -1.7445459 164.94753418 -1.44995117 166.02124023 C-1.15709229 167.10735596 -0.8642334 168.19347168 -0.5625 169.3125 C-0.33380722 170.15930832 -0.33380722 170.15930832 -0.10049438 171.02322388 C0.05343781 171.59571869 0.20737 172.1682135 0.3659668 172.75805664 C0.51903793 173.33280228 0.67210907 173.90754791 0.82981873 174.49971008 C1.05714439 175.3622364 1.05714439 175.3622364 1.2890625 176.2421875 C1.4383168 176.81547287 1.58757111 177.38875824 1.74134827 177.97941589 C1.88632248 178.54533951 2.03129669 179.11126312 2.18066406 179.69433594 C2.45104492 180.78520508 2.72142578 181.87607422 3 183 C3.22397461 183.98258789 3.44794922 184.96517578 3.67871094 185.97753906 C3.8749707 186.8950293 4.07123047 187.81251953 4.2734375 188.7578125 C4.45221436 189.63203857 4.63099121 190.50626465 4.81518555 191.40698242 C4.97929932 192.24205322 5.14341309 193.07712402 5.3125 193.9375 C5.46952393 194.75001221 5.62654785 195.56252441 5.78833008 196.3996582 C5.93423584 197.17398193 6.0801416 197.94830566 6.23046875 198.74609375 C6.36372559 199.47425293 6.49698242 200.20241211 6.63427734 200.95263672 C6.75496582 201.6282666 6.8756543 202.30389648 7 203 C7.10650879 203.6098877 7.21301758 204.21977539 7.32275391 204.84814453 C7.41862793 205.4048584 7.51450195 205.96157227 7.61328125 206.53515625 C7.78214844 207.51355469 7.95101562 208.49195313 8.125 209.5 C8.25132813 210.2940625 8.37765625 211.088125 8.5078125 211.90625 C8.67023437 212.5971875 8.83265625 213.288125 9 214 C9.33 214.61359375 9.66 215.2271875 10 215.859375 C10.33 216.56578125 10.66 217.2721875 11 218 C11.24363281 219.53914063 11.24363281 219.53914063 11.4921875 221.109375 C11.58681274 221.98215088 11.58681274 221.98215088 11.68334961 222.87255859 C11.74659424 223.49211426 11.80983887 224.11166992 11.875 224.75 C11.95177979 225.40178223 12.02855957 226.05356445 12.10766602 226.72509766 C12.19459717 227.4010498 12.28152832 228.07700195 12.37109375 228.7734375 C12.51393799 229.81322754 12.51393799 229.81322754 12.65966797 230.87402344 C12.77197754 231.5755957 12.88428711 232.27716797 13 233 C13.14195801 233.69899414 13.28391602 234.39798828 13.43017578 235.11816406 C13.66776611 236.16182129 13.66776611 236.16182129 13.91015625 237.2265625 C14.07684814 237.91516357 14.24354004 238.60376465 14.4152832 239.31323242 C14.58761475 239.99361572 14.75994629 240.67399902 14.9375 241.375 C15.11047607 242.05087158 15.28345215 242.72674316 15.46166992 243.4230957 C15.6341626 244.07624756 15.80665527 244.72939941 15.984375 245.40234375 C16.15517578 246.02351074 16.32597656 246.64467773 16.50195312 247.28466797 C16.66630859 247.85072754 16.83066406 248.41678711 17 249 C17.29390625 249.88816406 17.5878125 250.77632813 17.890625 251.69140625 C18.15359375 252.43261719 18.4165625 253.17382812 18.6875 253.9375 C18.92984375 254.62070312 19.1721875 255.30390625 19.421875 256.0078125 C19.61265625 256.66523438 19.8034375 257.32265625 20 258 C20.08765625 258.69867188 20.1753125 259.39734375 20.265625 260.1171875 C20.32234375 260.84164062 20.3790625 261.56609375 20.4375 262.3125 C20.50066406 263.04726563 20.56382813 263.78203125 20.62890625 264.5390625 C20.75136719 265.35117187 20.87382813 266.16328125 21 267 C21.27714844 267.99773437 21.55429688 268.99546875 21.83984375 270.0234375 C22.18144531 271.06757813 22.52304688 272.11171875 22.875 273.1875 C23.20242187 274.15042969 23.52984375 275.11335937 23.8671875 276.10546875 C24.24101563 277.06066406 24.61484375 278.01585937 25 279 C25.43957031 279.9590625 25.87914062 280.918125 26.33203125 281.90625 C26.58791016 282.40342529 26.84378906 282.90060059 27.10742188 283.4128418 C27.40197266 283.936604 27.69652344 284.46036621 28 285 C28.35642578 285.57210205 28.71285156 286.1442041 29.08007812 286.73364258 C29.47259766 287.33329834 29.86511719 287.9329541 30.26953125 288.55078125 C30.68050049 289.16260254 31.09146973 289.77442383 31.51489258 290.40478516 C31.94310303 291.03433105 32.37131348 291.66387695 32.8125 292.3125 C33.4789856 293.29935791 33.4789856 293.29935791 34.15893555 294.30615234 C34.60148682 294.96180176 35.04403809 295.61745117 35.5 296.29296875 C35.93054688 296.92895996 36.36109375 297.56495117 36.8046875 298.22021484 C37.19914062 298.80754395 37.59359375 299.39487305 38 300 C38.598125 300.92425781 39.19625 301.84851563 39.8125 302.80078125 C40.555 303.95126953 40.555 303.95126953 41.3125 305.125 C41.7765625 305.81980469 42.240625 306.51460937 42.71875 307.23046875 C43.1415625 307.81441406 43.564375 308.39835938 44 309 C44.763125 309.804375 45.52625 310.60875 46.3125 311.4375 C46.71210937 311.80617188 47.11171875 312.17484375 47.5234375 312.5546875 C48.01070312 313.03164063 48.49796875 313.50859375 49 314 C49.69351563 314.78632813 50.38703125 315.57265625 51.1015625 316.3828125 C51.48159424 316.81964355 51.86162598 317.25647461 52.25317383 317.70654297 C52.64400146 318.15400879 53.0348291 318.60147461 53.4375 319.0625 C53.83026123 319.50609863 54.22302246 319.94969727 54.62768555 320.40673828 C55.01480713 320.8345459 55.40192871 321.26235352 55.80078125 321.703125 C56.52652344 322.46109375 57.25226563 323.2190625 58 324 C58.55042969 324.44859375 59.10085937 324.8971875 59.66796875 325.359375 C60.14878906 325.67390625 60.62960938 325.9884375 61.125 326.3125 C62.07375 326.869375 63.0225 327.42625 64 328 C64.46019531 328.38414062 64.92039062 328.76828125 65.39453125 329.1640625 C65.90371094 329.58429688 66.41289063 330.00453125 66.9375 330.4375 C67.51371094 330.85257813 68.08992188 331.26765625 68.68359375 331.6953125 C69.44800781 332.12585938 70.21242188 332.55640625 71 333 C71.82395264 333.35143066 71.82395264 333.35143066 72.66455078 333.70996094 C73.28185059 333.9474707 73.89915039 334.18498047 74.53515625 334.4296875 C75.18427979 334.66115479 75.83340332 334.89262207 76.50219727 335.13110352 C77.49110962 335.46839478 77.49110962 335.46839478 78.5 335.8125 C79.4434729 336.14109009 79.4434729 336.14109009 80.40600586 336.47631836 C81.33425171 336.77614624 81.33425171 336.77614624 82.28125 337.08203125 C82.89734131 337.25549072 83.51343262 337.4289502 84.14819336 337.60766602 C84.75928955 337.73713623 85.37038574 337.86660645 86 338 C86.61174072 338.05663818 87.22348145 338.11327637 87.85375977 338.17163086 C88.44987061 338.18202393 89.04598145 338.19241699 89.66015625 338.203125 C90.76230469 338.13609375 91.86445313 338.0690625 93 338 C93.85464844 337.86464844 94.70929688 337.72929687 95.58984375 337.58984375 C96.36457031 337.37457031 97.13929688 337.15929687 97.9375 336.9375 C98.78441406 336.66164063 99.63132812 336.38578125 100.50390625 336.1015625 C101.32761719 335.73804688 102.15132813 335.37453125 103 335 C103.75152344 334.51273438 104.50304687 334.02546875 105.27734375 333.5234375 C105.96957031 332.95882812 106.66179687 332.39421875 107.375 331.8125 C108.01179688 331.18859375 108.64859375 330.5646875 109.3046875 329.921875 C109.86414063 329.28765625 110.42359375 328.6534375 111 328 C111.45632812 327.44828125 111.91265625 326.8965625 112.3828125 326.328125 C112.75148438 325.74546875 113.12015625 325.1628125 113.5 324.5625 C113.78746094 323.89347656 114.07492188 323.22445312 114.37109375 322.53515625 C114.57863281 321.69855469 114.78617187 320.86195313 115 320 C115.07750488 319.4519873 115.15500977 318.90397461 115.23486328 318.33935547 C115.3216333 317.42694092 115.3216333 317.42694092 115.41015625 316.49609375 C115.44592773 315.85115967 115.48169922 315.20622559 115.51855469 314.54174805 C115.53305664 313.86797119 115.54755859 313.19419434 115.5625 312.5 C115.55524902 311.46903198 115.55524902 311.46903198 115.54785156 310.41723633 C115.50289551 309.36765747 115.50289551 309.36765747 115.45703125 308.296875 C115.37122803 307.23243164 115.37122803 307.23243164 115.28369141 306.14648438 C115.19007324 305.43814453 115.09645508 304.72980469 115 304 C114.85353027 303.30712891 114.70706055 302.61425781 114.55615234 301.90039062 C114.37648926 301.21654297 114.19682617 300.53269531 114.01171875 299.828125 C113.81167236 299.15136719 113.61162598 298.47460938 113.40551758 297.77734375 C113.18919678 297.10832031 112.97287598 296.43929687 112.75 295.75 C112.52401123 295.08613281 112.29802246 294.42226563 112.06518555 293.73828125 C111.83484619 293.08730469 111.60450684 292.43632812 111.3671875 291.765625 C111.13612305 291.13205078 110.90505859 290.49847656 110.66699219 289.84570312 C110.44688477 289.23662109 110.22677734 288.62753906 110 288 C109.80825195 287.42701172 109.61650391 286.85402344 109.41894531 286.26367188 C109.24202148 285.71775391 109.06509766 285.17183594 108.8828125 284.609375 C108.38394531 283.07023437 108.38394531 283.07023437 107.875 281.5 C107.58367187 280.6234375 107.29234375 279.746875 106.9921875 278.84375 C106.66476563 277.9053125 106.33734375 276.966875 106 276 C105.78037598 275.41460449 105.56075195 274.82920898 105.33447266 274.22607422 C105.09003418 273.5817041 104.8455957 272.93733398 104.59375 272.2734375 C104.33577637 271.58926758 104.07780273 270.90509766 103.81201172 270.20019531 C103.54404785 269.47413086 103.27608398 268.74806641 103 268 C102.59612061 266.85289551 102.59612061 266.85289551 102.18408203 265.68261719 C101.90935059 264.88243164 101.63461914 264.08224609 101.3515625 263.2578125 C100.93028076 262.01294067 100.93028076 262.01294067 100.50048828 260.74291992 C100.21157715 259.87900635 99.92266602 259.01509277 99.625 258.125 C99.32190918 257.21532471 99.01881836 256.30564941 98.70654297 255.3684082 C98.40119629 254.44116943 98.09584961 253.51393066 97.78125 252.55859375 C97.33072266 251.16809814 97.33072266 251.16809814 96.87109375 249.74951172 C96.58363281 248.84217285 96.29617187 247.93483398 96 247 C95.73832031 246.14293457 95.47664063 245.28586914 95.20703125 244.40283203 C94.96339844 243.58024902 94.71976562 242.75766602 94.46875 241.91015625 C94.23978027 241.11270996 94.01081055 240.31526367 93.77490234 239.49365234 C93.56043457 238.73262207 93.3459668 237.9715918 93.125 237.1875 C92.92213379 236.47803223 92.71926758 235.76856445 92.51025391 235.03759766 C92.32382324 234.35874512 92.13739258 233.67989258 91.9453125 232.98046875 C91.77781494 232.31934082 91.61031738 231.65821289 91.43774414 230.97705078 C91.29328857 230.32462402 91.14883301 229.67219727 91 229 C90.8287561 228.01169189 90.8287561 228.01169189 90.65405273 227.00341797 C90.56325439 226.3435791 90.47245605 225.68374023 90.37890625 225.00390625 C90.2711084 224.0135437 90.2711084 224.0135437 90.16113281 223.00317383 C90.10795898 222.34212646 90.05478516 221.6810791 90 221 C89.96487305 220.34217529 89.92974609 219.68435059 89.89355469 219.0065918 C89.87325195 218.33926025 89.85294922 217.67192871 89.83203125 216.984375 C89.82127563 215.95763672 89.82127563 215.95763672 89.81030273 214.91015625 C89.81102783 214.19730469 89.81175293 213.48445313 89.8125 212.75 C89.81258057 211.99074219 89.81266113 211.23148437 89.81274414 210.44921875 C89.82039795 209.65644531 89.82805176 208.86367187 89.8359375 208.046875 C89.86445801 206.82387695 89.86445801 206.82387695 89.89355469 205.57617188 C89.92868164 204.72603516 89.96380859 203.87589844 90 203 C90.0609082 202.09314453 90.12181641 201.18628906 90.18457031 200.25195312 C90.29816895 198.8665332 90.29816895 198.8665332 90.4140625 197.453125 C90.49809326 196.54336914 90.58212402 195.63361328 90.66870117 194.69628906 C90.75740479 193.80651367 90.8461084 192.91673828 90.9375 192 C91.02427002 191.13342773 91.11104004 190.26685547 91.20043945 189.37402344 C91.33131958 188.16794434 91.33131958 188.16794434 91.46484375 186.9375 C91.58267212 185.86822266 91.58267212 185.86822266 91.70288086 184.77734375 C91.80093018 184.19082031 91.89897949 183.60429687 92 183 C92.495 182.01 92.495 182.01 93 181 C93.08757568 180.33718018 93.17515137 179.67436035 93.26538086 178.99145508 C93.33120361 178.17572021 93.39702637 177.35998535 93.46484375 176.51953125 C93.58013428 175.15429321 93.58013428 175.15429321 93.69775391 173.76147461 C93.77687012 172.78831299 93.85598633 171.81515137 93.9375 170.8125 C94.02177246 169.8232251 94.10604492 168.8339502 94.19287109 167.81469727 C94.28004395 166.82139404 94.3672168 165.82809082 94.45703125 164.8046875 C94.54549316 163.81823242 94.63395508 162.83177734 94.72509766 161.81542969 C94.81581543 160.88633789 94.9065332 159.95724609 95 159 C95.09458496 158.19981445 95.18916992 157.39962891 95.28662109 156.57519531 C95.42898193 155.48996582 95.42898193 155.48996582 95.57421875 154.3828125 C95.66646729 153.70758545 95.75871582 153.0323584 95.85375977 152.33666992 C95.98802368 151.39658081 95.98802368 151.39658081 96.125 150.4375 C96.29257813 149.30183594 96.46015625 148.16617188 96.6328125 146.99609375 C96.81457031 145.51302734 96.81457031 145.51302734 97 144 C97.12246094 143.04480469 97.24492187 142.08960938 97.37109375 141.10546875 C97.24863281 140.41066406 97.12617188 139.71585938 97 139 C96.28714844 138.87367188 95.57429688 138.74734375 94.83984375 138.6171875 C93.40318359 138.74480469 93.40318359 138.74480469 91.9375 138.875 C90.93460937 138.92269531 89.93171875 138.97039062 88.8984375 139.01953125 C87.46371094 139.00986328 87.46371094 139.00986328 86 139 C85.29101562 138.79761719 84.58203125 138.59523437 83.8515625 138.38671875 C82.96597656 137.97873047 82.96597656 137.97873047 82.0625 137.5625 C81.051875 137.046875 80.04125 136.53125 79 136 C78.05181396 135.70935669 78.05181396 135.70935669 77.08447266 135.4128418 C76.39659668 135.276604 75.7087207 135.14036621 75 135 C74.29665527 134.95206299 73.59331055 134.90412598 72.86865234 134.85473633 C72.11535645 134.84724365 71.36206055 134.83975098 70.5859375 134.83203125 C69.32861816 134.82079224 69.32861816 134.82079224 68.04589844 134.80932617 C66.72380371 134.81089722 66.72380371 134.81089722 65.375 134.8125 C64.46782227 134.81548096 63.56064453 134.81846191 62.62597656 134.8215332 C61.73104492 134.83144287 60.83611328 134.84135254 59.9140625 134.8515625 C59.05200195 134.8712207 58.18994141 134.89087891 57.30175781 134.91113281 C56.54217773 134.94045898 55.78259766 134.96978516 55 135 Z " transform="translate(48,11)" style="fill: #2D2726;"/></svg>