<?xml version="1.0" encoding="UTF-8"?>
<!-- Generator: visioncortex VTracer -->
<svg id="svg" version="1.1" xmlns="http://www.w3.org/2000/svg" style="display: block;" viewBox="0 0 136 320"><path d="M0 0 C0.53753906 -0.09023437 1.07507812 -0.18046875 1.62890625 -0.2734375 C2.26699219 -0.30695312 2.90507813 -0.34046875 3.5625 -0.375 C4.27664062 -0.35953125 4.99078125 -0.3440625 5.7265625 -0.328125 C6.47679687 -0.21984375 7.22703125 -0.1115625 8 0 C8.72960938 0.25265625 9.45921875 0.5053125 10.2109375 0.765625 C10.94570313 1.13171875 11.68046875 1.4978125 12.4375 1.875 C13.19289062 2.34421875 13.94828125 2.8134375 14.7265625 3.296875 C15.47679688 3.85890625 16.22703125 4.4209375 17 5 C18.06347656 5.93585937 18.06347656 5.93585937 19.1484375 6.890625 C20.21964844 7.99664062 20.21964844 7.99664062 21.3125 9.125 C22.05242187 9.99769531 22.79234375 10.87039062 23.5546875 11.76953125 C23.94495117 12.27178223 24.33521484 12.7740332 24.73730469 13.29150391 C25.15399414 13.85530762 25.57068359 14.41911133 26 15 C26.4630957 15.65274902 26.92619141 16.30549805 27.40332031 16.97802734 C28.13566895 18.04657959 28.13566895 18.04657959 28.8828125 19.13671875 C29.38272705 19.88977295 29.8826416 20.64282715 30.39770508 21.41870117 C30.9058374 22.20865479 31.41396973 22.9986084 31.9375 23.8125 C32.44756592 24.63274658 32.95763184 25.45299316 33.4831543 26.2980957 C33.99015869 27.13816162 34.49716309 27.97822754 35.01953125 28.84375 C35.52049316 29.69839844 36.02145508 30.55304687 36.53759766 31.43359375 C37.02019043 32.28050781 37.5027832 33.12742188 38 34 C38.44520996 34.80308594 38.89041992 35.60617188 39.34912109 36.43359375 C39.77402832 37.22894531 40.19893555 38.02429687 40.63671875 38.84375 C41.05171631 39.65465088 41.46671387 40.46555176 41.89428711 41.30102539 C42.30042236 42.12981201 42.70655762 42.95859863 43.125 43.8125 C43.52533447 44.66384521 43.92566895 45.51519043 44.33813477 46.39233398 C44.73701904 47.28251221 45.13590332 48.17269043 45.546875 49.08984375 C45.94583984 50.02554199 46.34480469 50.96124023 46.75585938 51.92529297 C47.37170898 53.44727295 47.37170898 53.44727295 48 55 C48.21825439 55.56197083 48.43650879 56.12394165 48.66137695 56.70294189 C48.99625122 57.58499298 48.99625122 57.58499298 49.33789062 58.48486328 C49.56292267 59.08980621 49.78795471 59.69474915 50.01980591 60.31802368 C50.24530121 60.93623993 50.47079651 61.55445618 50.703125 62.19140625 C50.92660614 62.81598724 51.15008728 63.44056824 51.38034058 64.08407593 C51.6020694 64.71568634 51.82379822 65.34729675 52.05224609 65.99804688 C52.27193054 66.63589111 52.49161499 67.27373535 52.71795654 67.9309082 C53.04319305 68.89323364 53.04319305 68.89323364 53.375 69.875 C53.58844055 70.51832275 53.8018811 71.16164551 54.02178955 71.82446289 C54.2306781 72.46697998 54.43956665 73.10949707 54.65478516 73.77148438 C54.857883 74.41024506 55.06098083 75.04900574 55.27023315 75.7071228 C55.56572556 76.65840561 55.56572556 76.65840561 55.8671875 77.62890625 C56.05830109 78.25914703 56.24941467 78.88938782 56.44631958 79.53872681 C56.71990799 80.46725967 56.71990799 80.46725967 56.99902344 81.41455078 C57.17123413 82.01857727 57.34344482 82.62260376 57.52087402 83.24493408 C57.6789856 83.82410583 57.83709717 84.40327759 58 85 C58.26071289 86.0504248 58.52142578 87.10084961 58.79003906 88.18310547 C59.0062793 89.1629541 59.22251953 90.14280273 59.4453125 91.15234375 C59.6319043 92.09746826 59.81849609 93.04259277 60.01074219 94.01635742 C60.17219727 94.93908447 60.33365234 95.86181152 60.5 96.8125 C60.64598633 97.73973877 60.79197266 98.66697754 60.94238281 99.62231445 C61.07225586 100.54616943 61.20212891 101.47002441 61.3359375 102.421875 C61.4503418 103.34162109 61.56474609 104.26136719 61.68261719 105.20898438 C61.78735352 106.13001953 61.89208984 107.05105469 62 108 C62.1021582 108.92361328 62.20431641 109.84722656 62.30957031 110.79882812 C62.45410645 112.20551758 62.45410645 112.20551758 62.6015625 113.640625 C62.69107178 114.60540771 62.78058105 115.57019043 62.87280273 116.56420898 C62.95602783 117.55364502 63.03925293 118.54308105 63.125 119.5625 C63.20113525 120.56547119 63.27727051 121.56844238 63.35571289 122.60180664 C63.42781982 123.65746826 63.49992676 124.71312988 63.57421875 125.80078125 C63.64431152 126.92564941 63.7144043 128.05051758 63.78662109 129.20947266 C63.82156677 129.81293518 63.85651245 130.41639771 63.89251709 131.03814697 C63.92798645 131.68555847 63.96345581 132.33296997 64 133 C64.03675842 133.71702087 64.07351685 134.43404175 64.11138916 135.17279053 C64.14891296 135.93222961 64.18643677 136.6916687 64.22509766 137.47412109 C64.26311996 138.25952271 64.30114227 139.04492432 64.34031677 139.85412598 C64.37883255 140.65894409 64.41734833 141.46376221 64.45703125 142.29296875 C64.49590958 143.10487671 64.5347879 143.91678467 64.57484436 144.7532959 C64.61419601 145.57317993 64.65354767 146.39306396 64.6940918 147.23779297 C64.73400238 148.06406189 64.77391296 148.89033081 64.81503296 149.74163818 C64.85544708 150.56939758 64.89586121 151.39715698 64.9375 152.25 C64.97831696 153.07518127 65.01913391 153.90036255 65.06118774 154.75054932 C65.10262909 155.56908386 65.14407043 156.38761841 65.18676758 157.23095703 C65.25010033 158.44144714 65.25010033 158.44144714 65.31471252 159.6763916 C65.35781052 160.47025269 65.40090851 161.26411377 65.4453125 162.08203125 C65.48941757 162.86364624 65.53352264 163.64526123 65.57896423 164.45056152 C65.62412674 165.20760376 65.66928925 165.964646 65.71582031 166.74462891 C65.76210571 167.47055237 65.80839111 168.19647583 65.8560791 168.94439697 C65.903573 169.62274597 65.95106689 170.30109497 66 171 C66.04878296 171.60358337 66.09756592 172.20716675 66.14782715 172.82904053 C66.22305603 173.66075775 66.22305603 173.66075775 66.29980469 174.50927734 C66.40454102 175.52070801 66.50927734 176.53213867 66.6171875 177.57421875 C66.72861084 178.49614014 66.84003418 179.41806152 66.95483398 180.36791992 C67.07286377 181.21588135 67.19089355 182.06384277 67.3125 182.9375 C67.43633057 183.74872314 67.56016113 184.55994629 67.68774414 185.39575195 C67.82043701 186.16234131 67.95312988 186.92893066 68.08984375 187.71875 C68.23276855 188.43933594 68.37569336 189.15992188 68.52294922 189.90234375 C68.68037598 190.59457031 68.83780273 191.28679687 69 192 C69.17934082 192.68449219 69.35868164 193.36898437 69.54345703 194.07421875 C69.73665527 194.74066406 69.92985352 195.40710938 70.12890625 196.09375 C70.33104736 196.73844238 70.53318848 197.38313477 70.74145508 198.04736328 C70.9505249 198.6711084 71.15959473 199.29485352 71.375 199.9375 C71.58729248 200.53675293 71.79958496 201.13600586 72.01831055 201.75341797 C72.23398682 202.33752441 72.44966309 202.92163086 72.671875 203.5234375 C72.89037109 204.09803711 73.10886719 204.67263672 73.33398438 205.26464844 C73.66366211 206.12364746 73.66366211 206.12364746 74 207 C74.32967773 207.87446777 74.32967773 207.87446777 74.66601562 208.76660156 C74.88451172 209.35151367 75.10300781 209.93642578 75.328125 210.5390625 C75.65176025 211.41353027 75.65176025 211.41353027 75.98193359 212.30566406 C76.19414551 212.88541992 76.40635742 213.46517578 76.625 214.0625 C76.83334473 214.63452148 77.04168945 215.20654297 77.25634766 215.79589844 C77.4579248 216.36598633 77.65950195 216.93607422 77.8671875 217.5234375 C78.06022461 218.09416992 78.25326172 218.66490234 78.45214844 219.25292969 C78.63293945 219.82946289 78.81373047 220.40599609 79 221 C79.24411621 221.88800293 79.24411621 221.88800293 79.49316406 222.79394531 C79.64237305 223.39045898 79.79158203 223.98697266 79.9453125 224.6015625 C80.08348389 225.19469238 80.22165527 225.78782227 80.36401367 226.39892578 C80.5550769 227.28427002 80.5550769 227.28427002 80.75 228.1875 C80.86770752 228.77644043 80.98541504 229.36538086 81.10668945 229.97216797 C81.21456787 230.54854004 81.32244629 231.12491211 81.43359375 231.71875 C81.71396484 233.34296875 81.71396484 233.34296875 82 235 C82.15597656 235.8765625 82.31195313 236.753125 82.47265625 237.65625 C82.64087891 238.90921875 82.64087891 238.90921875 82.8125 240.1875 C82.90724609 241.49460938 82.90724609 241.49460938 83.00390625 242.828125 C83.00197266 244.39820313 83.00197266 244.39820313 83 246 C82.94368408 247.05477539 82.94368408 247.05477539 82.88623047 248.13085938 C82.82967285 248.90751953 82.77311523 249.68417969 82.71484375 250.484375 C82.64450928 251.29181152 82.5741748 252.09924805 82.50170898 252.93115234 C82.41864502 253.75824707 82.33558105 254.5853418 82.25 255.4375 C82.155979 256.26330566 82.06195801 257.08911133 81.96508789 257.93994141 C81.86317139 258.75124512 81.76125488 259.56254883 81.65625 260.3984375 C81.49382812 261.58131348 81.49382812 261.58131348 81.328125 262.78808594 C81.16570312 263.8829834 81.16570312 263.8829834 81 265 C80.90203125 265.61649414 80.8040625 266.23298828 80.703125 266.86816406 C80.55617187 267.69525879 80.55617187 267.69525879 80.40625 268.5390625 C80.1896875 269.53679687 79.973125 270.53453125 79.75 271.5625 C79.48960937 272.48933594 79.22921875 273.41617187 78.9609375 274.37109375 C78.48527344 275.67240234 78.48527344 275.67240234 78 277 C77.40058594 278.28583984 77.40058594 278.28583984 76.7890625 279.59765625 C76.32242188 280.43167969 75.85578125 281.26570313 75.375 282.125 C74.85164063 282.92550781 74.32828125 283.72601563 73.7890625 284.55078125 C73.19867188 285.35902344 72.60828125 286.16726563 72 287 C71.32710938 287.88042969 70.65421875 288.76085937 69.9609375 289.66796875 C69.23132813 290.54066406 68.50171875 291.41335938 67.75 292.3125 C66.97398438 293.13621094 66.19796875 293.95992188 65.3984375 294.80859375 C64.60695313 295.53175781 63.81546875 296.25492187 63 297 C61.87464844 297.79083984 61.87464844 297.79083984 60.7265625 298.59765625 C59.95054688 299.01917969 59.17453125 299.44070313 58.375 299.875 C57.54613281 300.23722656 56.71726562 300.59945313 55.86328125 300.97265625 C54.91839844 301.31167969 53.97351563 301.65070313 53 302 C52.42942871 302.19319824 51.85885742 302.38639648 51.27099609 302.58544922 C50.35374756 302.88153076 50.35374756 302.88153076 49.41796875 303.18359375 C48.46301514 303.46904053 48.46301514 303.46904053 47.48876953 303.76025391 C46.53526611 304.03361572 46.53526611 304.03361572 45.5625 304.3125 C44.68634033 304.57039307 44.68634033 304.57039307 43.79248047 304.83349609 C43.20225098 304.9877002 42.61202148 305.1419043 42.00390625 305.30078125 C41.36533691 305.43210449 40.72676758 305.56342773 40.06884766 305.69873047 C39.04476807 305.84785889 39.04476807 305.84785889 38 306 C37.28505371 306.05430176 36.57010742 306.10860352 35.83349609 306.16455078 C34.61460693 306.1894458 34.61460693 306.1894458 33.37109375 306.21484375 C31.96138306 306.19103638 31.96138306 306.19103638 30.52319336 306.16674805 C29.70841019 306.13380142 29.70841019 306.13380142 28.87716675 306.10018921 C28.25770172 306.06712677 27.63823669 306.03406433 27 306 C26.26234406 305.95283844 25.52468811 305.90567688 24.76467896 305.85708618 C23.95231781 305.79959198 23.13995667 305.74209778 22.30297852 305.68286133 C21.44245377 305.61762772 20.58192902 305.5523941 19.69532776 305.48518372 C18.7955571 305.41272934 17.89578644 305.34027496 16.96875 305.265625 C16.04678329 305.18660446 15.12481659 305.10758392 14.1749115 305.02616882 C12.76188499 304.90106682 12.76188499 304.90106682 11.3203125 304.7734375 C10.36157227 304.68674805 9.40283203 304.60005859 8.41503906 304.51074219 C7.45307617 304.42469727 6.49111328 304.33865234 5.5 304.25 C4.5522168 304.17104492 3.60443359 304.09208984 2.62792969 304.01074219 C1.21495605 303.89327637 1.21495605 303.89327637 -0.2265625 303.7734375 C-1.16628906 303.69170288 -2.10601562 303.60996826 -3.07421875 303.52575684 C-4.00878906 303.43991333 -4.94335938 303.35406982 -5.90625 303.265625 C-6.834375 303.17430298 -7.7625 303.08298096 -8.71875 302.9888916 C-9.63914063 302.8900769 -10.55953125 302.79126221 -11.5078125 302.68945312 C-12.87244629 302.52860229 -12.87244629 302.52860229 -14.26464844 302.36450195 C-15.16731445 302.24421631 -16.06998047 302.12393066 -17 302 C-17.90395508 301.85908936 -18.80791016 301.71817871 -19.73925781 301.57299805 C-21.07102051 301.34253784 -21.07102051 301.34253784 -22.4296875 301.10742188 C-23.29025757 300.94336853 -24.15082764 300.77931519 -25.03747559 300.61029053 C-25.86042114 300.4449884 -26.6833667 300.27968628 -27.53125 300.109375 C-28.3003772 299.96099182 -29.06950439 299.81260864 -29.86193848 299.659729 C-30.94444885 299.42549225 -30.94444885 299.42549225 -32.04882812 299.18652344 C-32.72397461 299.01270142 -33.39912109 298.83887939 -34.09472656 298.65979004 C-34.7234668 298.44205933 -35.35220703 298.22432861 -36 298 C-36.58749023 297.68913452 -37.17498047 297.37826904 -37.78027344 297.0579834 C-38.57836426 296.5405658 -38.57836426 296.5405658 -39.39257812 296.01269531 C-40.68325195 295.01641113 -40.68325195 295.01641113 -42 294 C-43.0828125 292.8553125 -43.0828125 292.8553125 -44.1875 291.6875 C-44.785625 290.800625 -45.38375 289.91375 -46 289 C-46.52335937 287.99710937 -47.04671875 286.99421875 -47.5859375 285.9609375 C-47.9715686 285.03075806 -47.9715686 285.03075806 -48.36499023 284.08178711 C-48.57454346 283.39479736 -48.78409668 282.70780762 -49 282 C-49.10062744 281.26080322 -49.20125488 280.52160645 -49.30493164 279.76000977 C-49.36861938 278.56202759 -49.36861938 278.56202759 -49.43359375 277.33984375 C-49.44503418 276.47915283 -49.45647461 275.61846191 -49.46826172 274.73168945 C-49.45811035 273.80960693 -49.44795898 272.88752441 -49.4375 271.9375 C-49.42992676 270.95160889 -49.42235352 269.96571777 -49.41455078 268.94995117 C-49.39247559 267.90685791 -49.37040039 266.86376465 -49.34765625 265.7890625 C-49.3027002 264.69625977 -49.25774414 263.60345703 -49.21142578 262.47753906 C-49.14165527 261.32995117 -49.07188477 260.18236328 -49 259 C-48.95252625 258.39925659 -48.90505249 257.79851318 -48.85614014 257.17956543 C-48.80161682 256.5656897 -48.74709351 255.95181396 -48.69091797 255.31933594 C-48.63054855 254.69638641 -48.57017914 254.07343689 -48.50798035 253.43161011 C-48.44218277 252.80191315 -48.37638519 252.17221619 -48.30859375 251.5234375 C-48.2381636 250.89059845 -48.16773346 250.2577594 -48.09516907 249.60574341 C-48.02017685 248.96998383 -47.94518463 248.33422424 -47.86791992 247.67919922 C-47.78851166 247.04157654 -47.70910339 246.40395386 -47.62728882 245.74700928 C-47.54403351 245.10862122 -47.4607782 244.47023315 -47.375 243.8125 C-47.2886026 243.17362854 -47.2022052 242.53475708 -47.1131897 241.87652588 C-47.02338837 241.24067566 -46.93358704 240.60482544 -46.84106445 239.94970703 C-46.74779373 239.32009064 -46.65452301 238.69047424 -46.5584259 238.04177856 C-46.41348946 237.10844193 -46.41348946 237.10844193 -46.265625 236.15625 C-46.1656572 235.54184052 -46.06568939 234.92743103 -45.96269226 234.29440308 C-45.85963272 233.69322662 -45.75657318 233.09205017 -45.65039062 232.47265625 C-45.5444458 231.88774414 -45.43850098 231.30283203 -45.3293457 230.70019531 C-45.16631958 229.85859863 -45.16631958 229.85859863 -45 229 C-44.66258789 227.46279297 -44.66258789 227.46279297 -44.31835938 225.89453125 C-43.96741211 224.47720703 -43.96741211 224.47720703 -43.609375 223.03125 C-43.24682617 221.70081665 -43.24682617 221.70081665 -42.87695312 220.34350586 C-42.62880859 219.50827393 -42.38066406 218.67304199 -42.125 217.8125 C-41.87169922 217.01142822 -41.61839844 216.21035645 -41.35742188 215.38500977 C-41.10025391 214.63018311 -40.84308594 213.87535645 -40.578125 213.09765625 C-40.18850586 212.04215576 -40.18850586 212.04215576 -39.79101562 210.96533203 C-39.52998047 210.31677246 -39.26894531 209.66821289 -39 209 C-38.60844727 208.12577393 -38.60844727 208.12577393 -38.20898438 207.23388672 C-37.81936523 206.4355542 -37.81936523 206.4355542 -37.421875 205.62109375 C-36.91140625 204.67363281 -36.4009375 203.72617188 -35.875 202.75 C-35.19050781 201.62851562 -35.19050781 201.62851562 -34.4921875 200.484375 C-33.99976563 199.66453125 -33.50734375 198.8446875 -33 198 C-32.67104736 197.44666992 -32.34209473 196.89333984 -32.00317383 196.32324219 C-31.65536865 195.69063477 -31.30756348 195.05802734 -30.94921875 194.40625 C-30.60922852 193.71112305 -30.26923828 193.01599609 -29.91894531 192.29980469 C-29.46406738 191.16140137 -29.46406738 191.16140137 -29 190 C-28.78698242 189.18692383 -28.57396484 188.37384766 -28.35449219 187.53613281 C-28.09974121 186.2111377 -28.09974121 186.2111377 -27.83984375 184.859375 C-27.68757324 183.89572021 -27.53530273 182.93206543 -27.37841797 181.93920898 C-27.23291504 180.88677002 -27.08741211 179.83433105 -26.9375 178.75 C-26.85695374 178.18499786 -26.77640747 177.61999573 -26.69342041 177.03787231 C-26.61041687 176.44795502 -26.52741333 175.85803772 -26.44189453 175.25024414 C-26.3589917 174.63616196 -26.27608887 174.02207977 -26.19067383 173.38938904 C-26.10841553 172.75171097 -26.02615723 172.1140329 -25.94140625 171.45703125 C-25.82140259 170.46758263 -25.82140259 170.46758263 -25.69897461 169.45814514 C-25.6205835 168.77409103 -25.54219238 168.09003693 -25.46142578 167.38525391 C-25.38434387 166.67580627 -25.30726196 165.96635864 -25.22784424 165.2354126 C-25.11506134 164.12888336 -25.11506134 164.12888336 -25 163 C-24.92738953 162.22879822 -24.85477905 161.45759644 -24.77996826 160.6630249 C-24.70933167 159.86463196 -24.63869507 159.06623901 -24.56591797 158.24365234 C-24.4968927 157.42208649 -24.42786743 156.60052063 -24.35675049 155.75405884 C-24.28929626 154.91096161 -24.22184204 154.06786438 -24.15234375 153.19921875 C-24.08633972 152.33734955 -24.02033569 151.47548035 -23.95233154 150.5874939 C-23.88765686 149.7075174 -23.82298218 148.82754089 -23.75634766 147.92089844 C-23.69296204 147.02367065 -23.62957642 146.12644287 -23.56427002 145.20202637 C-23.50181091 144.28973267 -23.43935181 143.37743896 -23.375 142.4375 C-23.28179474 141.05044861 -23.28179474 141.05044861 -23.18670654 139.63537598 C-23.12557678 138.69770386 -23.06444702 137.76003174 -23.00146484 136.79394531 C-22.94182556 135.8433725 -22.88218628 134.89279968 -22.82073975 133.91342163 C-22.76259094 132.95070343 -22.70444214 131.98798523 -22.64453125 130.99609375 C-22.58783264 130.02169342 -22.53113403 129.04729309 -22.47271729 128.04336548 C-22.41807312 127.05822968 -22.36342896 126.07309387 -22.30712891 125.05810547 C-22.25478088 124.06317078 -22.20243286 123.06823608 -22.14849854 122.04315186 C-22.07499176 120.53679169 -22.07499176 120.53679169 -22 119 C-21.95615173 117.98673645 -21.91230347 116.9734729 -21.86712646 115.92950439 C-21.82638 114.90878845 -21.78563354 113.88807251 -21.74365234 112.83642578 C-21.70475388 111.80965225 -21.66585541 110.78287872 -21.6257782 109.72499084 C-21.58813858 108.69297043 -21.55049896 107.66095001 -21.51171875 106.59765625 C-21.47428055 105.56108383 -21.43684235 104.52451141 -21.39826965 103.45652771 C-21.36118393 102.41714554 -21.32409821 101.37776337 -21.28588867 100.30688477 C-21.23058487 98.74540207 -21.23058487 98.74540207 -21.17416382 97.15237427 C-21.13731476 96.11209076 -21.1004657 95.07180725 -21.0625 94 C-21.02573151 92.96382538 -20.98896301 91.92765076 -20.95108032 90.8600769 C-20.91348602 89.82593658 -20.87589172 88.79179626 -20.8371582 87.72631836 C-20.79790726 86.69292831 -20.75865631 85.65953827 -20.71821594 84.59483337 C-20.67714218 83.56322586 -20.63606842 82.53161835 -20.59375 81.46875 C-20.55094406 80.44032486 -20.50813812 79.41189972 -20.46403503 78.35231018 C-20.41789566 77.32468063 -20.37175629 76.29705109 -20.32421875 75.23828125 C-20.27394531 74.21105957 -20.22367188 73.18383789 -20.171875 72.12548828 C-20.11515625 71.09407715 -20.0584375 70.06266602 -20 69 C-19.93296875 67.95569824 -19.8659375 66.91139648 -19.796875 65.83544922 C-19.72339844 64.79018066 -19.64992188 63.74491211 -19.57421875 62.66796875 C-19.4967189 61.62946777 -19.41921906 60.5909668 -19.33937073 59.52099609 C-19.25831589 58.49312988 -19.17726105 57.46526367 -19.09375 56.40625 C-19.01007675 55.3951416 -18.9264035 54.3840332 -18.8401947 53.34228516 C-18.71228294 51.85220947 -18.71228294 51.85220947 -18.58178711 50.33203125 C-18.49540985 49.35830566 -18.40903259 48.38458008 -18.32003784 47.38134766 C-18.23505035 46.43050293 -18.15006287 45.4796582 -18.0625 44.5 C-17.98291046 43.57493652 -17.90332092 42.64987305 -17.82131958 41.69677734 C-17.74307953 40.80039551 -17.66483948 39.90401367 -17.58422852 38.98046875 C-17.50477493 38.11642426 -17.42532135 37.25237976 -17.34346008 36.3621521 C-17.26234482 35.53107941 -17.18122955 34.70000671 -17.09765625 33.84375 C-17.01400314 33.04401764 -16.93035004 32.24428528 -16.84416199 31.4203186 C-16.75669205 30.66238007 -16.66922211 29.90444153 -16.57910156 29.12353516 C-16.48721558 28.41255676 -16.39532959 27.70157837 -16.30065918 26.96905518 C-16.20144165 26.31926697 -16.10222412 25.66947876 -16 25 C-15.65533691 23.39777588 -15.65533691 23.39777588 -15.30371094 21.76318359 C-15.05524414 20.89000488 -14.80677734 20.01682617 -14.55078125 19.1171875 C-14.29449951 18.37887695 -14.03821777 17.64056641 -13.77416992 16.87988281 C-13.51869385 16.25952148 -13.26321777 15.63916016 -13 15 C-12.52820312 14.00226562 -12.05640625 13.00453125 -11.5703125 11.9765625 C-11.09335937 11.20054688 -10.61640625 10.42453125 -10.125 9.625 C-9.60679688 8.80386719 -9.08859375 7.98273437 -8.5546875 7.13671875 C-7.78511719 6.07904297 -7.78511719 6.07904297 -7 5 C-6.52820312 4.51144531 -6.05640625 4.02289062 -5.5703125 3.51953125 C-5.13460937 3.16246094 -4.69890625 2.80539062 -4.25 2.4375 C-3.5075 1.963125 -2.765 1.48875 -2 1 C-1.34 0.67 -0.68 0.34 0 0 Z " transform="translate(51,8)" style="fill: #E9B0B2;"/><path d="M0 0 C0.53753906 -0.09023437 1.07507812 -0.18046875 1.62890625 -0.2734375 C2.26699219 -0.30695312 2.90507813 -0.34046875 3.5625 -0.375 C4.27664062 -0.35953125 4.99078125 -0.3440625 5.7265625 -0.328125 C6.47679687 -0.21984375 7.22703125 -0.1115625 8 0 C8.72960938 0.25265625 9.45921875 0.5053125 10.2109375 0.765625 C10.94570313 1.13171875 11.68046875 1.4978125 12.4375 1.875 C13.19289062 2.34421875 13.94828125 2.8134375 14.7265625 3.296875 C15.47679688 3.85890625 16.22703125 4.4209375 17 5 C18.06347656 5.93585937 18.06347656 5.93585937 19.1484375 6.890625 C20.21964844 7.99664062 20.21964844 7.99664062 21.3125 9.125 C22.05242187 9.99769531 22.79234375 10.87039062 23.5546875 11.76953125 C23.94495117 12.27178223 24.33521484 12.7740332 24.73730469 13.29150391 C25.15399414 13.85530762 25.57068359 14.41911133 26 15 C26.4630957 15.65274902 26.92619141 16.30549805 27.40332031 16.97802734 C28.13566895 18.04657959 28.13566895 18.04657959 28.8828125 19.13671875 C29.38272705 19.88977295 29.8826416 20.64282715 30.39770508 21.41870117 C30.9058374 22.20865479 31.41396973 22.9986084 31.9375 23.8125 C32.44756592 24.63274658 32.95763184 25.45299316 33.4831543 26.2980957 C33.99015869 27.13816162 34.49716309 27.97822754 35.01953125 28.84375 C35.52049316 29.69839844 36.02145508 30.55304687 36.53759766 31.43359375 C37.02019043 32.28050781 37.5027832 33.12742188 38 34 C38.44520996 34.80308594 38.89041992 35.60617188 39.34912109 36.43359375 C39.77402832 37.22894531 40.19893555 38.02429687 40.63671875 38.84375 C41.05171631 39.65465088 41.46671387 40.46555176 41.89428711 41.30102539 C42.30042236 42.12981201 42.70655762 42.95859863 43.125 43.8125 C43.52533447 44.66384521 43.92566895 45.51519043 44.33813477 46.39233398 C44.73701904 47.28251221 45.13590332 48.17269043 45.546875 49.08984375 C45.94583984 50.02554199 46.34480469 50.96124023 46.75585938 51.92529297 C47.37170898 53.44727295 47.37170898 53.44727295 48 55 C48.21825439 55.56197083 48.43650879 56.12394165 48.66137695 56.70294189 C48.99625122 57.58499298 48.99625122 57.58499298 49.33789062 58.48486328 C49.56292267 59.08980621 49.78795471 59.69474915 50.01980591 60.31802368 C50.24530121 60.93623993 50.47079651 61.55445618 50.703125 62.19140625 C50.92660614 62.81598724 51.15008728 63.44056824 51.38034058 64.08407593 C51.6020694 64.71568634 51.82379822 65.34729675 52.05224609 65.99804688 C52.27193054 66.63589111 52.49161499 67.27373535 52.71795654 67.9309082 C53.04319305 68.89323364 53.04319305 68.89323364 53.375 69.875 C53.58844055 70.51832275 53.8018811 71.16164551 54.02178955 71.82446289 C54.2306781 72.46697998 54.43956665 73.10949707 54.65478516 73.77148438 C54.857883 74.41024506 55.06098083 75.04900574 55.27023315 75.7071228 C55.56572556 76.65840561 55.56572556 76.65840561 55.8671875 77.62890625 C56.05830109 78.25914703 56.24941467 78.88938782 56.44631958 79.53872681 C56.71990799 80.46725967 56.71990799 80.46725967 56.99902344 81.41455078 C57.17123413 82.01857727 57.34344482 82.62260376 57.52087402 83.24493408 C57.6789856 83.82410583 57.83709717 84.40327759 58 85 C58.26071289 86.0504248 58.52142578 87.10084961 58.79003906 88.18310547 C59.0062793 89.1629541 59.22251953 90.14280273 59.4453125 91.15234375 C59.6319043 92.09746826 59.81849609 93.04259277 60.01074219 94.01635742 C60.17219727 94.93908447 60.33365234 95.86181152 60.5 96.8125 C60.64598633 97.73973877 60.79197266 98.66697754 60.94238281 99.62231445 C61.07225586 100.54616943 61.20212891 101.47002441 61.3359375 102.421875 C61.4503418 103.34162109 61.56474609 104.26136719 61.68261719 105.20898438 C61.78735352 106.13001953 61.89208984 107.05105469 62 108 C62.1021582 108.92361328 62.20431641 109.84722656 62.30957031 110.79882812 C62.45410645 112.20551758 62.45410645 112.20551758 62.6015625 113.640625 C62.69107178 114.60540771 62.78058105 115.57019043 62.87280273 116.56420898 C62.95602783 117.55364502 63.03925293 118.54308105 63.125 119.5625 C63.20113525 120.56547119 63.27727051 121.56844238 63.35571289 122.60180664 C63.42781982 123.65746826 63.49992676 124.71312988 63.57421875 125.80078125 C63.64431152 126.92564941 63.7144043 128.05051758 63.78662109 129.20947266 C63.82156677 129.81293518 63.85651245 130.41639771 63.89251709 131.03814697 C63.92798645 131.68555847 63.96345581 132.33296997 64 133 C64.03675842 133.71702087 64.07351685 134.43404175 64.11138916 135.17279053 C64.14891296 135.93222961 64.18643677 136.6916687 64.22509766 137.47412109 C64.26311996 138.25952271 64.30114227 139.04492432 64.34031677 139.85412598 C64.37883255 140.65894409 64.41734833 141.46376221 64.45703125 142.29296875 C64.49590958 143.10487671 64.5347879 143.91678467 64.57484436 144.7532959 C64.61419601 145.57317993 64.65354767 146.39306396 64.6940918 147.23779297 C64.73400238 148.06406189 64.77391296 148.89033081 64.81503296 149.74163818 C64.85544708 150.56939758 64.89586121 151.39715698 64.9375 152.25 C64.97831696 153.07518127 65.01913391 153.90036255 65.06118774 154.75054932 C65.10262909 155.56908386 65.14407043 156.38761841 65.18676758 157.23095703 C65.25010033 158.44144714 65.25010033 158.44144714 65.31471252 159.6763916 C65.35781052 160.47025269 65.40090851 161.26411377 65.4453125 162.08203125 C65.48941757 162.86364624 65.53352264 163.64526123 65.57896423 164.45056152 C65.62412674 165.20760376 65.66928925 165.964646 65.71582031 166.74462891 C65.76210571 167.47055237 65.80839111 168.19647583 65.8560791 168.94439697 C65.903573 169.62274597 65.95106689 170.30109497 66 171 C66.04878296 171.60358337 66.09756592 172.20716675 66.14782715 172.82904053 C66.22305603 173.66075775 66.22305603 173.66075775 66.29980469 174.50927734 C66.40454102 175.52070801 66.50927734 176.53213867 66.6171875 177.57421875 C66.72861084 178.49614014 66.84003418 179.41806152 66.95483398 180.36791992 C67.07286377 181.21588135 67.19089355 182.06384277 67.3125 182.9375 C67.43633057 183.74872314 67.56016113 184.55994629 67.68774414 185.39575195 C67.82043701 186.16234131 67.95312988 186.92893066 68.08984375 187.71875 C68.23276855 188.43933594 68.37569336 189.15992188 68.52294922 189.90234375 C68.68037598 190.59457031 68.83780273 191.28679687 69 192 C69.17934082 192.68449219 69.35868164 193.36898437 69.54345703 194.07421875 C69.73665527 194.74066406 69.92985352 195.40710938 70.12890625 196.09375 C70.33104736 196.73844238 70.53318848 197.38313477 70.74145508 198.04736328 C70.9505249 198.6711084 71.15959473 199.29485352 71.375 199.9375 C71.58729248 200.53675293 71.79958496 201.13600586 72.01831055 201.75341797 C72.23398682 202.33752441 72.44966309 202.92163086 72.671875 203.5234375 C72.89037109 204.09803711 73.10886719 204.67263672 73.33398438 205.26464844 C73.66366211 206.12364746 73.66366211 206.12364746 74 207 C74.32967773 207.87446777 74.32967773 207.87446777 74.66601562 208.76660156 C74.88451172 209.35151367 75.10300781 209.93642578 75.328125 210.5390625 C75.65176025 211.41353027 75.65176025 211.41353027 75.98193359 212.30566406 C76.19414551 212.88541992 76.40635742 213.46517578 76.625 214.0625 C76.83334473 214.63452148 77.04168945 215.20654297 77.25634766 215.79589844 C77.4579248 216.36598633 77.65950195 216.93607422 77.8671875 217.5234375 C78.06022461 218.09416992 78.25326172 218.66490234 78.45214844 219.25292969 C78.63293945 219.82946289 78.81373047 220.40599609 79 221 C79.24411621 221.88800293 79.24411621 221.88800293 79.49316406 222.79394531 C79.64237305 223.39045898 79.79158203 223.98697266 79.9453125 224.6015625 C80.08348389 225.19469238 80.22165527 225.78782227 80.36401367 226.39892578 C80.5550769 227.28427002 80.5550769 227.28427002 80.75 228.1875 C80.86770752 228.77644043 80.98541504 229.36538086 81.10668945 229.97216797 C81.21456787 230.54854004 81.32244629 231.12491211 81.43359375 231.71875 C81.71396484 233.34296875 81.71396484 233.34296875 82 235 C82.15597656 235.8765625 82.31195313 236.753125 82.47265625 237.65625 C82.64087891 238.90921875 82.64087891 238.90921875 82.8125 240.1875 C82.90724609 241.49460938 82.90724609 241.49460938 83.00390625 242.828125 C83.00197266 244.39820313 83.00197266 244.39820313 83 246 C82.94368408 247.05477539 82.94368408 247.05477539 82.88623047 248.13085938 C82.82967285 248.90751953 82.77311523 249.68417969 82.71484375 250.484375 C82.64450928 251.29181152 82.5741748 252.09924805 82.50170898 252.93115234 C82.41864502 253.75824707 82.33558105 254.5853418 82.25 255.4375 C82.155979 256.26330566 82.06195801 257.08911133 81.96508789 257.93994141 C81.86317139 258.75124512 81.76125488 259.56254883 81.65625 260.3984375 C81.49382812 261.58131348 81.49382812 261.58131348 81.328125 262.78808594 C81.16570312 263.8829834 81.16570312 263.8829834 81 265 C80.90203125 265.61649414 80.8040625 266.23298828 80.703125 266.86816406 C80.55617187 267.69525879 80.55617187 267.69525879 80.40625 268.5390625 C80.1896875 269.53679687 79.973125 270.53453125 79.75 271.5625 C79.48960937 272.48933594 79.22921875 273.41617187 78.9609375 274.37109375 C78.48527344 275.67240234 78.48527344 275.67240234 78 277 C77.40058594 278.28583984 77.40058594 278.28583984 76.7890625 279.59765625 C76.32242188 280.43167969 75.85578125 281.26570313 75.375 282.125 C74.85164063 282.92550781 74.32828125 283.72601563 73.7890625 284.55078125 C73.19867188 285.35902344 72.60828125 286.16726563 72 287 C71.32710938 287.88042969 70.65421875 288.76085937 69.9609375 289.66796875 C69.23132813 290.54066406 68.50171875 291.41335938 67.75 292.3125 C66.97398438 293.13621094 66.19796875 293.95992188 65.3984375 294.80859375 C64.60695313 295.53175781 63.81546875 296.25492187 63 297 C61.87464844 297.79083984 61.87464844 297.79083984 60.7265625 298.59765625 C59.95054688 299.01917969 59.17453125 299.44070313 58.375 299.875 C57.54613281 300.23722656 56.71726562 300.59945313 55.86328125 300.97265625 C54.91839844 301.31167969 53.97351563 301.65070313 53 302 C52.42942871 302.19319824 51.85885742 302.38639648 51.27099609 302.58544922 C50.35374756 302.88153076 50.35374756 302.88153076 49.41796875 303.18359375 C48.46301514 303.46904053 48.46301514 303.46904053 47.48876953 303.76025391 C46.53526611 304.03361572 46.53526611 304.03361572 45.5625 304.3125 C44.68634033 304.57039307 44.68634033 304.57039307 43.79248047 304.83349609 C43.20225098 304.9877002 42.61202148 305.1419043 42.00390625 305.30078125 C41.36533691 305.43210449 40.72676758 305.56342773 40.06884766 305.69873047 C39.04476807 305.84785889 39.04476807 305.84785889 38 306 C37.28505371 306.05430176 36.57010742 306.10860352 35.83349609 306.16455078 C34.61460693 306.1894458 34.61460693 306.1894458 33.37109375 306.21484375 C31.96138306 306.19103638 31.96138306 306.19103638 30.52319336 306.16674805 C29.70841019 306.13380142 29.70841019 306.13380142 28.87716675 306.10018921 C28.25770172 306.06712677 27.63823669 306.03406433 27 306 C26.26234406 305.95283844 25.52468811 305.90567688 24.76467896 305.85708618 C23.95231781 305.79959198 23.13995667 305.74209778 22.30297852 305.68286133 C21.44245377 305.61762772 20.58192902 305.5523941 19.69532776 305.48518372 C18.7955571 305.41272934 17.89578644 305.34027496 16.96875 305.265625 C16.04678329 305.18660446 15.12481659 305.10758392 14.1749115 305.02616882 C12.76188499 304.90106682 12.76188499 304.90106682 11.3203125 304.7734375 C10.36157227 304.68674805 9.40283203 304.60005859 8.41503906 304.51074219 C7.45307617 304.42469727 6.49111328 304.33865234 5.5 304.25 C4.5522168 304.17104492 3.60443359 304.09208984 2.62792969 304.01074219 C1.21495605 303.89327637 1.21495605 303.89327637 -0.2265625 303.7734375 C-1.16628906 303.69170288 -2.10601562 303.60996826 -3.07421875 303.52575684 C-4.00878906 303.43991333 -4.94335938 303.35406982 -5.90625 303.265625 C-6.834375 303.17430298 -7.7625 303.08298096 -8.71875 302.9888916 C-9.63914063 302.8900769 -10.55953125 302.79126221 -11.5078125 302.68945312 C-12.87244629 302.52860229 -12.87244629 302.52860229 -14.26464844 302.36450195 C-15.16731445 302.24421631 -16.06998047 302.12393066 -17 302 C-17.90395508 301.85908936 -18.80791016 301.71817871 -19.73925781 301.57299805 C-21.07102051 301.34253784 -21.07102051 301.34253784 -22.4296875 301.10742188 C-23.29025757 300.94336853 -24.15082764 300.77931519 -25.03747559 300.61029053 C-25.86042114 300.4449884 -26.6833667 300.27968628 -27.53125 300.109375 C-28.3003772 299.96099182 -29.06950439 299.81260864 -29.86193848 299.659729 C-30.94444885 299.42549225 -30.94444885 299.42549225 -32.04882812 299.18652344 C-32.72397461 299.01270142 -33.39912109 298.83887939 -34.09472656 298.65979004 C-34.7234668 298.44205933 -35.35220703 298.22432861 -36 298 C-36.58749023 297.68913452 -37.17498047 297.37826904 -37.78027344 297.0579834 C-38.57836426 296.5405658 -38.57836426 296.5405658 -39.39257812 296.01269531 C-40.68325195 295.01641113 -40.68325195 295.01641113 -42 294 C-43.0828125 292.8553125 -43.0828125 292.8553125 -44.1875 291.6875 C-44.785625 290.800625 -45.38375 289.91375 -46 289 C-46.52335937 287.99710937 -47.04671875 286.99421875 -47.5859375 285.9609375 C-47.9715686 285.03075806 -47.9715686 285.03075806 -48.36499023 284.08178711 C-48.57454346 283.39479736 -48.78409668 282.70780762 -49 282 C-49.10062744 281.26080322 -49.20125488 280.52160645 -49.30493164 279.76000977 C-49.36861938 278.56202759 -49.36861938 278.56202759 -49.43359375 277.33984375 C-49.44503418 276.47915283 -49.45647461 275.61846191 -49.46826172 274.73168945 C-49.45811035 273.80960693 -49.44795898 272.88752441 -49.4375 271.9375 C-49.42992676 270.95160889 -49.42235352 269.96571777 -49.41455078 268.94995117 C-49.39247559 267.90685791 -49.37040039 266.86376465 -49.34765625 265.7890625 C-49.3027002 264.69625977 -49.25774414 263.60345703 -49.21142578 262.47753906 C-49.14165527 261.32995117 -49.07188477 260.18236328 -49 259 C-48.95252625 258.39925659 -48.90505249 257.79851318 -48.85614014 257.17956543 C-48.80161682 256.5656897 -48.74709351 255.95181396 -48.69091797 255.31933594 C-48.63054855 254.69638641 -48.57017914 254.07343689 -48.50798035 253.43161011 C-48.44218277 252.80191315 -48.37638519 252.17221619 -48.30859375 251.5234375 C-48.2381636 250.89059845 -48.16773346 250.2577594 -48.09516907 249.60574341 C-48.02017685 248.96998383 -47.94518463 248.33422424 -47.86791992 247.67919922 C-47.78851166 247.04157654 -47.70910339 246.40395386 -47.62728882 245.74700928 C-47.54403351 245.10862122 -47.4607782 244.47023315 -47.375 243.8125 C-47.2886026 243.17362854 -47.2022052 242.53475708 -47.1131897 241.87652588 C-47.02338837 241.24067566 -46.93358704 240.60482544 -46.84106445 239.94970703 C-46.74779373 239.32009064 -46.65452301 238.69047424 -46.5584259 238.04177856 C-46.41348946 237.10844193 -46.41348946 237.10844193 -46.265625 236.15625 C-46.1656572 235.54184052 -46.06568939 234.92743103 -45.96269226 234.29440308 C-45.85963272 233.69322662 -45.75657318 233.09205017 -45.65039062 232.47265625 C-45.5444458 231.88774414 -45.43850098 231.30283203 -45.3293457 230.70019531 C-45.16631958 229.85859863 -45.16631958 229.85859863 -45 229 C-44.66258789 227.46279297 -44.66258789 227.46279297 -44.31835938 225.89453125 C-43.96741211 224.47720703 -43.96741211 224.47720703 -43.609375 223.03125 C-43.24682617 221.70081665 -43.24682617 221.70081665 -42.87695312 220.34350586 C-42.62880859 219.50827393 -42.38066406 218.67304199 -42.125 217.8125 C-41.87169922 217.01142822 -41.61839844 216.21035645 -41.35742188 215.38500977 C-41.10025391 214.63018311 -40.84308594 213.87535645 -40.578125 213.09765625 C-40.18850586 212.04215576 -40.18850586 212.04215576 -39.79101562 210.96533203 C-39.52998047 210.31677246 -39.26894531 209.66821289 -39 209 C-38.60844727 208.12577393 -38.60844727 208.12577393 -38.20898438 207.23388672 C-37.81936523 206.4355542 -37.81936523 206.4355542 -37.421875 205.62109375 C-36.91140625 204.67363281 -36.4009375 203.72617188 -35.875 202.75 C-35.19050781 201.62851562 -35.19050781 201.62851562 -34.4921875 200.484375 C-33.99976563 199.66453125 -33.50734375 198.8446875 -33 198 C-32.67104736 197.44666992 -32.34209473 196.89333984 -32.00317383 196.32324219 C-31.65536865 195.69063477 -31.30756348 195.05802734 -30.94921875 194.40625 C-30.60922852 193.71112305 -30.26923828 193.01599609 -29.91894531 192.29980469 C-29.46406738 191.16140137 -29.46406738 191.16140137 -29 190 C-28.78698242 189.18692383 -28.57396484 188.37384766 -28.35449219 187.53613281 C-28.09974121 186.2111377 -28.09974121 186.2111377 -27.83984375 184.859375 C-27.68757324 183.89572021 -27.53530273 182.93206543 -27.37841797 181.93920898 C-27.23291504 180.88677002 -27.08741211 179.83433105 -26.9375 178.75 C-26.85695374 178.18499786 -26.77640747 177.61999573 -26.69342041 177.03787231 C-26.61041687 176.44795502 -26.52741333 175.85803772 -26.44189453 175.25024414 C-26.3589917 174.63616196 -26.27608887 174.02207977 -26.19067383 173.38938904 C-26.10841553 172.75171097 -26.02615723 172.1140329 -25.94140625 171.45703125 C-25.82140259 170.46758263 -25.82140259 170.46758263 -25.69897461 169.45814514 C-25.6205835 168.77409103 -25.54219238 168.09003693 -25.46142578 167.38525391 C-25.38434387 166.67580627 -25.30726196 165.96635864 -25.22784424 165.2354126 C-25.11506134 164.12888336 -25.11506134 164.12888336 -25 163 C-24.92738953 162.22879822 -24.85477905 161.45759644 -24.77996826 160.6630249 C-24.70933167 159.86463196 -24.63869507 159.06623901 -24.56591797 158.24365234 C-24.4968927 157.42208649 -24.42786743 156.60052063 -24.35675049 155.75405884 C-24.28929626 154.91096161 -24.22184204 154.06786438 -24.15234375 153.19921875 C-24.08633972 152.33734955 -24.02033569 151.47548035 -23.95233154 150.5874939 C-23.88765686 149.7075174 -23.82298218 148.82754089 -23.75634766 147.92089844 C-23.69296204 147.02367065 -23.62957642 146.12644287 -23.56427002 145.20202637 C-23.50181091 144.28973267 -23.43935181 143.37743896 -23.375 142.4375 C-23.28179474 141.05044861 -23.28179474 141.05044861 -23.18670654 139.63537598 C-23.12557678 138.69770386 -23.06444702 137.76003174 -23.00146484 136.79394531 C-22.94182556 135.8433725 -22.88218628 134.89279968 -22.82073975 133.91342163 C-22.76259094 132.95070343 -22.70444214 131.98798523 -22.64453125 130.99609375 C-22.58783264 130.02169342 -22.53113403 129.04729309 -22.47271729 128.04336548 C-22.41807312 127.05822968 -22.36342896 126.07309387 -22.30712891 125.05810547 C-22.25478088 124.06317078 -22.20243286 123.06823608 -22.14849854 122.04315186 C-22.07499176 120.53679169 -22.07499176 120.53679169 -22 119 C-21.95615173 117.98673645 -21.91230347 116.9734729 -21.86712646 115.92950439 C-21.82638 114.90878845 -21.78563354 113.88807251 -21.74365234 112.83642578 C-21.70475388 111.80965225 -21.66585541 110.78287872 -21.6257782 109.72499084 C-21.58813858 108.69297043 -21.55049896 107.66095001 -21.51171875 106.59765625 C-21.47428055 105.56108383 -21.43684235 104.52451141 -21.39826965 103.45652771 C-21.36118393 102.41714554 -21.32409821 101.37776337 -21.28588867 100.30688477 C-21.23058487 98.74540207 -21.23058487 98.74540207 -21.17416382 97.15237427 C-21.13731476 96.11209076 -21.1004657 95.07180725 -21.0625 94 C-21.02573151 92.96382538 -20.98896301 91.92765076 -20.95108032 90.8600769 C-20.91348602 89.82593658 -20.87589172 88.79179626 -20.8371582 87.72631836 C-20.79790726 86.69292831 -20.75865631 85.65953827 -20.71821594 84.59483337 C-20.67714218 83.56322586 -20.63606842 82.53161835 -20.59375 81.46875 C-20.55094406 80.44032486 -20.50813812 79.41189972 -20.46403503 78.35231018 C-20.41789566 77.32468063 -20.37175629 76.29705109 -20.32421875 75.23828125 C-20.27394531 74.21105957 -20.22367188 73.18383789 -20.171875 72.12548828 C-20.11515625 71.09407715 -20.0584375 70.06266602 -20 69 C-19.93296875 67.95569824 -19.8659375 66.91139648 -19.796875 65.83544922 C-19.72339844 64.79018066 -19.64992188 63.74491211 -19.57421875 62.66796875 C-19.4967189 61.62946777 -19.41921906 60.5909668 -19.33937073 59.52099609 C-19.25831589 58.49312988 -19.17726105 57.46526367 -19.09375 56.40625 C-19.01007675 55.3951416 -18.9264035 54.3840332 -18.8401947 53.34228516 C-18.71228294 51.85220947 -18.71228294 51.85220947 -18.58178711 50.33203125 C-18.49540985 49.35830566 -18.40903259 48.38458008 -18.32003784 47.38134766 C-18.23505035 46.43050293 -18.15006287 45.4796582 -18.0625 44.5 C-17.98291046 43.57493652 -17.90332092 42.64987305 -17.82131958 41.69677734 C-17.74307953 40.80039551 -17.66483948 39.90401367 -17.58422852 38.98046875 C-17.50477493 38.11642426 -17.42532135 37.25237976 -17.34346008 36.3621521 C-17.26234482 35.53107941 -17.18122955 34.70000671 -17.09765625 33.84375 C-17.01400314 33.04401764 -16.93035004 32.24428528 -16.84416199 31.4203186 C-16.75669205 30.66238007 -16.66922211 29.90444153 -16.57910156 29.12353516 C-16.48721558 28.41255676 -16.39532959 27.70157837 -16.30065918 26.96905518 C-16.20144165 26.31926697 -16.10222412 25.66947876 -16 25 C-15.65533691 23.39777588 -15.65533691 23.39777588 -15.30371094 21.76318359 C-15.05524414 20.89000488 -14.80677734 20.01682617 -14.55078125 19.1171875 C-14.29449951 18.37887695 -14.03821777 17.64056641 -13.77416992 16.87988281 C-13.51869385 16.25952148 -13.26321777 15.63916016 -13 15 C-12.52820312 14.00226562 -12.05640625 13.00453125 -11.5703125 11.9765625 C-11.09335937 11.20054688 -10.61640625 10.42453125 -10.125 9.625 C-9.60679688 8.80386719 -9.08859375 7.98273437 -8.5546875 7.13671875 C-7.78511719 6.07904297 -7.78511719 6.07904297 -7 5 C-6.52820312 4.51144531 -6.05640625 4.02289062 -5.5703125 3.51953125 C-5.13460937 3.16246094 -4.69890625 2.80539062 -4.25 2.4375 C-3.5075 1.963125 -2.765 1.48875 -2 1 C-1.34 0.67 -0.68 0.34 0 0 Z M1 5 C0.175 5.45375 -0.65 5.9075 -1.5 6.375 C-1.90992187 6.74882812 -2.31984375 7.12265625 -2.7421875 7.5078125 C-3.36480469 8.24644531 -3.36480469 8.24644531 -4 9 C-4.43570313 9.63679688 -4.87140625 10.27359375 -5.3203125 10.9296875 C-5.75085938 11.69539063 -6.18140625 12.46109375 -6.625 13.25 C-7.20616577 14.52435913 -7.20616577 14.52435913 -7.79907227 15.82446289 C-8.19537842 16.87239014 -8.59168457 17.92031738 -9 19 C-9.26917236 20.11189697 -9.53834473 21.22379395 -9.81567383 22.36938477 C-9.93282242 22.97054611 -10.04997101 23.57170746 -10.17066956 24.19108582 C-10.28579391 24.83056656 -10.40091827 25.4700473 -10.51953125 26.12890625 C-10.64581406 26.82135941 -10.77209686 27.51381256 -10.90220642 28.22724915 C-11.02890213 28.95324814 -11.15559784 29.67924713 -11.28613281 30.42724609 C-11.4077478 31.17617126 -11.52936279 31.92509644 -11.65466309 32.69671631 C-11.76862427 33.45679993 -11.88258545 34.21688354 -12 35 C-12.09994263 35.75009338 -12.19988525 36.50018677 -12.30285645 37.27301025 C-12.39466187 38.0306366 -12.48646729 38.78826294 -12.58105469 39.56884766 C-12.66823257 40.34382095 -12.75541046 41.11879425 -12.8452301 41.91725159 C-12.92853073 42.71155075 -13.01183136 43.50584991 -13.09765625 44.32421875 C-13.17882187 45.14361435 -13.25998749 45.96300995 -13.34361267 46.80723572 C-13.42317703 47.65016678 -13.50274139 48.49309784 -13.5847168 49.36157227 C-13.70210709 50.66011642 -13.70210709 50.66011642 -13.8218689 51.9848938 C-13.90127716 52.87675385 -13.98068542 53.76861389 -14.0625 54.6875 C-14.14682281 55.61021698 -14.23114563 56.53293396 -14.31802368 57.48361206 C-14.40361542 58.43253326 -14.48920715 59.38145447 -14.57739258 60.35913086 C-14.66203262 61.33198532 -14.74667267 62.30483978 -14.83387756 63.30717468 C-14.91705734 64.30151016 -15.00023712 65.29584564 -15.0859375 66.3203125 C-15.16657944 67.33120438 -15.24722137 68.34209625 -15.33030701 69.38362122 C-15.40789749 70.41621567 -15.48548798 71.44881012 -15.56542969 72.51269531 C-15.6767926 74.09612732 -15.6767926 74.09612732 -15.79040527 75.71154785 C-15.85957153 76.79673706 -15.92873779 77.88192627 -16 79 C-16.06143188 80.12772827 -16.12286377 81.25545654 -16.18615723 82.4173584 C-16.24235229 83.56965942 -16.29854736 84.72196045 -16.35644531 85.90917969 C-16.38308415 86.49034766 -16.409723 87.07151564 -16.43716908 87.67029476 C-16.46292357 88.25399114 -16.48867807 88.83768751 -16.51521301 89.43907166 C-16.54011118 90.02483412 -16.56500935 90.61059658 -16.590662 91.21410942 C-16.61488417 91.80087519 -16.63910633 92.38764095 -16.6640625 92.9921875 C-16.68784658 93.57888781 -16.71163067 94.16558811 -16.73613548 94.77006721 C-16.75933672 95.35625769 -16.78253796 95.94244816 -16.80644226 96.54640198 C-16.82898984 97.13142959 -16.85153742 97.7164572 -16.87476826 98.31921291 C-16.89667823 98.90263486 -16.9185882 99.4860568 -16.94116211 100.0871582 C-16.96242 100.66884545 -16.98367788 101.2505327 -17.00557995 101.84984684 C-17.02620652 102.42820506 -17.0468331 103.00656328 -17.06808472 103.60244751 C-17.10749176 104.74426483 -17.1468988 105.88608215 -17.1875 107.0625 C-17.22424835 108.17249359 -17.2609967 109.28248718 -17.29885864 110.42611694 C-17.35117142 112.05439926 -17.35117142 112.05439926 -17.40454102 113.71557617 C-17.43819763 114.77990372 -17.47185425 115.84423126 -17.50653076 116.94081116 C-17.5391803 117.98257004 -17.57182983 119.02432892 -17.60546875 120.09765625 C-17.63723206 121.11721909 -17.66899536 122.13678192 -17.70172119 123.1872406 C-17.74942657 124.68034508 -17.74942657 124.68034508 -17.7980957 126.20361328 C-17.84663193 127.65710175 -17.84663193 127.65710175 -17.89614868 129.13995361 C-17.93041962 130.08376892 -17.96469055 131.02758423 -18 132 C-18.05756973 133.38285187 -18.05756973 133.38285187 -18.11630249 134.79364014 C-18.15679718 135.6852887 -18.19729187 136.57693726 -18.23901367 137.49560547 C-18.28105423 138.35399521 -18.32309479 139.21238495 -18.3664093 140.0967865 C-18.40791611 140.90918289 -18.44942291 141.72157928 -18.4921875 142.55859375 C-18.5289006 143.30206558 -18.56561371 144.04553741 -18.60343933 144.8115387 C-18.64133072 145.51366989 -18.67922211 146.21580109 -18.71826172 146.93920898 C-18.75973831 147.61116302 -18.8012149 148.28311707 -18.84394836 148.97543335 C-18.8954454 149.64354034 -18.94694244 150.31164734 -19 151 C-19.07353195 151.71459381 -19.1470639 152.42918762 -19.2228241 153.16543579 C-19.30406021 153.86566864 -19.38529633 154.56590149 -19.46899414 155.28735352 C-19.58386925 156.2199575 -19.58386925 156.2199575 -19.70106506 157.17140198 C-19.77908859 157.77483932 -19.85711212 158.37827667 -19.9375 159 C-20.06847832 160.00455482 -20.06847832 160.00455482 -20.20210266 161.02940369 C-20.32055794 161.92750511 -20.32055794 161.92750511 -20.44140625 162.84375 C-20.52922363 163.50117188 -20.61704102 164.15859375 -20.70751953 164.8359375 C-20.80403809 165.55007812 -20.90055664 166.26421875 -21 167 C-21.11585449 167.83789062 -21.23170898 168.67578125 -21.35107422 169.5390625 C-21.47111816 170.42335937 -21.59116211 171.30765625 -21.71484375 172.21875 C-21.82513916 173.09660156 -21.93543457 173.97445312 -22.04907227 174.87890625 C-22.15662842 175.74386719 -22.26418457 176.60882813 -22.375 177.5 C-22.49609131 178.34433594 -22.61718262 179.18867188 -22.74194336 180.05859375 C-22.83483643 180.83332031 -22.92772949 181.60804688 -23.0234375 182.40625 C-23.11544434 183.10041016 -23.20745117 183.79457031 -23.30224609 184.50976562 C-23.20250488 185.00154297 -23.10276367 185.49332031 -23 186 C-22.3395166 186.11537109 -21.6790332 186.23074219 -20.99853516 186.34960938 C-20.33901855 186.23423828 -19.67950195 186.11886719 -19 186 C-19 185.34 -19 184.68 -19 184 C-18.44570313 183.835 -17.89140625 183.67 -17.3203125 183.5 C-16.55460937 183.335 -15.78890625 183.17 -15 183 C-14.19304688 182.690625 -13.38609375 182.38125 -12.5546875 182.0625 C-11.67039062 181.711875 -10.78609375 181.36125 -9.875 181 C-9.00617187 180.649375 -8.13734375 180.29875 -7.2421875 179.9375 C-6.17226563 179.628125 -5.10234375 179.31875 -4 179 C-3.2975415 178.88889893 -2.59508301 178.77779785 -1.87133789 178.66333008 C-1.07719482 178.57462646 -0.28305176 178.48592285 0.53515625 178.39453125 C1.39786133 178.32186035 2.26056641 178.24918945 3.14941406 178.17431641 C4.5604541 178.08802979 4.5604541 178.08802979 6 178 C7.5463916 177.93111572 7.5463916 177.93111572 9.12402344 177.86083984 C10.75839355 177.8117749 10.75839355 177.8117749 12.42578125 177.76171875 C14.10595337 177.73476929 14.10595337 177.73476929 15.82006836 177.70727539 C17.54882202 177.69748657 17.54882202 177.69748657 19.3125 177.6875 C20.20849411 177.6850679 20.20849411 177.6850679 21.12258911 177.68258667 C21.72352386 177.68348297 22.32445862 177.68437927 22.94360352 177.68530273 C23.53853104 177.69003098 24.13345856 177.69475922 24.74641418 177.69963074 C25.33283188 177.70851822 25.91924957 177.7174057 26.5234375 177.7265625 C27.65362305 177.75911133 28.78380859 177.79166016 29.94824219 177.82519531 C31.4588623 177.91172363 31.4588623 177.91172363 33 178 C34.14710449 178.14066895 34.14710449 178.14066895 35.31738281 178.28417969 C35.94741211 178.40438477 36.57744141 178.52458984 37.2265625 178.6484375 C38.81597656 179.10089844 38.81597656 179.10089844 40.4375 179.5625 C41.84128906 180.10390625 41.84128906 180.10390625 43.2734375 180.65625 C44.17320313 181.0996875 45.07296875 181.543125 46 182 C46.53141602 182.27328125 47.06283203 182.5465625 47.61035156 182.828125 C48.16432617 183.12203125 48.71830078 183.4159375 49.2890625 183.71875 C49.83763916 184.02224365 50.38621582 184.3257373 50.95141602 184.63842773 C51.48307373 184.94337158 52.01473145 185.24831543 52.5625 185.5625 C53.51253906 186.14128906 54.46257812 186.72007812 55.44140625 187.31640625 C56.28574219 187.87199219 57.13007812 188.42757812 58 189 C59.09634766 189.87978516 59.09634766 189.87978516 60.21484375 190.77734375 C60.80394531 191.18082031 61.39304687 191.58429688 62 192 C62.66 191.67 63.32 191.34 64 191 C63.86674316 190.15719482 63.73348633 189.31438965 63.59619141 188.44604492 C63.46264252 187.88154129 63.32909363 187.31703766 63.1914978 186.73542786 C63.03806915 186.09441635 62.8846405 185.45340485 62.7265625 184.79296875 C62.57982086 184.10124069 62.43307922 183.40951263 62.28189087 182.69682312 C62.13633759 181.93368301 61.9907843 181.17054291 61.84082031 180.38427734 C61.62141785 179.12064362 61.62141785 179.12064362 61.39758301 177.83148193 C61.26638062 176.8970929 61.13517822 175.96270386 61 175 C60.90489136 173.94572815 60.80978271 172.8914563 60.71179199 171.80523682 C60.59680359 170.10074371 60.59680359 170.10074371 60.47949219 168.36181641 C60.42702269 167.47591229 60.42702269 167.47591229 60.37349319 166.57211113 C60.34037411 165.96864923 60.30725502 165.36518734 60.27313232 164.74343872 C60.22619358 163.82060278 60.22619358 163.82060278 60.17830658 162.87912369 C60.14782478 162.25514568 60.11734299 161.63116768 60.0859375 160.98828125 C60.05499245 160.35925777 60.02404739 159.7302343 59.99216461 159.08214951 C59.96149651 158.447076 59.9308284 157.81200249 59.89923096 157.15768433 C59.8691457 156.51647581 59.83906044 155.8752673 59.80806351 155.21462822 C59.76385332 154.24503764 59.76385332 154.24503764 59.71875 153.25585938 C59.67594469 152.27931239 59.67594469 152.27931239 59.63227463 151.28303719 C59.59000181 150.30121625 59.59000181 150.30121625 59.546875 149.29956055 C59.51873718 148.64266235 59.49059937 147.98576416 59.46160889 147.30895996 C59.43302795 146.65012817 59.40444702 145.99129639 59.375 145.3125 C59.34513 144.65173462 59.31526001 143.99096924 59.28448486 143.31018066 C59.23889435 142.31975769 59.23889435 142.31975769 59.19238281 141.30932617 C59.16194571 140.65174222 59.1315086 139.99415827 59.10014915 139.31664753 C59.06967806 138.66236869 59.03920696 138.00808985 59.0078125 137.33398438 C58.97736658 136.68301631 58.94692066 136.03204824 58.91555214 135.36135387 C58.87041764 134.39589626 58.87041764 134.39589626 58.82437134 133.41093445 C58.79474934 132.77673773 58.76512733 132.14254101 58.7346077 131.48912621 C58.70617153 130.87009737 58.67773537 130.25106853 58.6484375 129.61328125 C58.6224284 129.01886042 58.5964193 128.42443958 58.56962204 127.812006 C58.54458225 127.23316343 58.51954247 126.65432087 58.4937439 126.05793762 C58.44344025 124.92933823 58.3931366 123.80073883 58.34130859 122.63793945 C58.28867859 121.54371674 58.23604858 120.44949402 58.18182373 119.32211304 C58.1218219 118.22581573 58.06182007 117.12951843 58 116 C57.94477551 115.12492987 57.94477551 115.12492987 57.88843536 114.23218155 C57.84865318 113.64264568 57.808871 113.05310982 57.7678833 112.44570923 C57.68415466 111.30016571 57.60042603 110.15462219 57.51416016 108.97436523 C57.43735016 107.95100571 57.36054016 106.92764618 57.28140259 105.87327576 C57.18853973 104.92509476 57.09567688 103.97691376 57 103 C56.85599258 102.06962921 56.71198517 101.13925842 56.56361389 100.18069458 C56.41887131 99.39403412 56.27412872 98.60737366 56.125 97.796875 C55.8616687 96.56408813 55.8616687 96.56408813 55.59301758 95.30639648 C55.39732178 94.46278564 55.20162598 93.6191748 55 92.75 C54.67841919 91.36180054 54.67841919 91.36180054 54.3503418 89.94555664 C54.11484619 88.97996826 53.87935059 88.01437988 53.63671875 87.01953125 C53.37938965 86.03678223 53.12206055 85.0540332 52.85693359 84.04150391 C52.43275146 82.53595947 52.43275146 82.53595947 52 81 C51.68498535 79.97696777 51.3699707 78.95393555 51.04541016 77.89990234 C50.70687012 76.86430176 50.36833008 75.82870117 50.01953125 74.76171875 C49.66318604 73.71975342 49.30684082 72.67778809 48.93969727 71.60424805 C48.38173462 70.03670776 48.38173462 70.03670776 47.8125 68.4375 C47.42827881 67.39182861 47.04405762 66.34615723 46.64819336 65.26879883 C46.2538208 64.23134521 45.85944824 63.1938916 45.453125 62.125 C45.05029297 61.10148437 44.64746094 60.07796875 44.23242188 59.0234375 C43.82572266 58.02570313 43.41902344 57.02796875 43 56 C42.59587891 55.04609375 42.19175781 54.0921875 41.77539062 53.109375 C41.36998047 52.18640625 40.96457031 51.2634375 40.546875 50.3125 C40.13840332 49.4138623 39.72993164 48.51522461 39.30908203 47.58935547 C38.89770996 46.71424316 38.48633789 45.83913086 38.0625 44.9375 C37.43964111 43.65383545 37.43964111 43.65383545 36.80419922 42.34423828 C36.3867041 41.51134277 35.96920898 40.67844727 35.5390625 39.8203125 C34.91112793 38.60843262 34.91112793 38.60843262 34.27050781 37.37207031 C33.85124023 36.58928711 33.43197266 35.80650391 33 35 C32.58073242 34.24299805 32.16146484 33.48599609 31.72949219 32.70605469 C31.10155762 31.61019043 31.10155762 31.61019043 30.4609375 30.4921875 C30.04368408 29.78876221 29.62643066 29.08533691 29.1965332 28.3605957 C28.78105225 27.68472412 28.36557129 27.00885254 27.9375 26.3125 C27.52395264 25.66434326 27.11040527 25.01618652 26.68432617 24.34838867 C26.2741626 23.72939697 25.86399902 23.11040527 25.44140625 22.47265625 C25.0355127 21.88371582 24.62961914 21.29477539 24.21142578 20.68798828 C23.81165527 20.13095215 23.41188477 19.57391602 23 19 C22.60925293 18.47776855 22.21850586 17.95553711 21.81591797 17.41748047 C21.43193848 16.92779785 21.04795898 16.43811523 20.65234375 15.93359375 C20.27376221 15.4754126 19.89518066 15.01723145 19.50512695 14.54516602 C19.13218506 14.11776123 18.75924316 13.69035645 18.375 13.25 C17.64539063 12.48429687 16.91578125 11.71859375 16.1640625 10.9296875 C15.09285156 9.97449219 15.09285156 9.97449219 14 9 C12.92878906 8.26136719 12.92878906 8.26136719 11.8359375 7.5078125 C11.14757813 7.13398438 10.45921875 6.76015625 9.75 6.375 C9.09902344 6.10429687 8.44804688 5.83359375 7.77734375 5.5546875 C7.19082031 5.37164063 6.60429688 5.18859375 6 5 C5.113125 4.835 4.22625 4.67 3.3125 4.5 C2.1678125 4.7475 2.1678125 4.7475 1 5 Z M9 181 C8.00154053 181.04133057 8.00154053 181.04133057 6.98291016 181.08349609 C6.39687012 181.11137207 5.81083008 181.13924805 5.20703125 181.16796875 C4.21058594 181.23628906 3.21414062 181.30460938 2.1875 181.375 C1.35605469 181.44460937 0.52460937 181.51421875 -0.33203125 181.5859375 C-0.88246094 181.72257813 -1.43289062 181.85921875 -2 182 C-2 182.66 -2 183.32 -2 184 C-2.4846875 184.10183594 -2.969375 184.20367187 -3.46875 184.30859375 C-4.1390625 184.35113281 -4.809375 184.39367187 -5.5 184.4375 C-6.59828125 184.55544922 -6.59828125 184.55544922 -7.71875 184.67578125 C-8.4715625 184.78277344 -9.224375 184.88976562 -10 185 C-11.00546875 185.23783203 -11.00546875 185.23783203 -12.03125 185.48046875 C-12.6809375 185.69316406 -13.330625 185.90585938 -14 186.125 C-14.66 186.40214844 -15.32 186.67929688 -16 186.96484375 C-16.66 187.30644531 -17.32 187.64804688 -18 188 C-18.66 188.39316406 -19.32 188.78632813 -20 189.19140625 C-20.66 189.68511719 -21.32 190.17882812 -22 190.6875 C-22.65355469 191.28949219 -23.30710937 191.89148438 -23.98046875 192.51171875 C-24.64691406 193.33285156 -25.31335938 194.15398437 -26 195 C-26.53488037 195.87906006 -26.53488037 195.87906006 -27.08056641 196.77587891 C-27.4419873 197.43378418 -27.8034082 198.09168945 -28.17578125 198.76953125 C-28.53349609 199.46151611 -28.89121094 200.15350098 -29.25976562 200.86645508 C-29.60716797 201.5705249 -29.95457031 202.27459473 -30.3125 203 C-30.63798828 203.67635498 -30.96347656 204.35270996 -31.29882812 205.04956055 C-31.60884766 205.71383057 -31.91886719 206.37810059 -32.23828125 207.0625 C-32.53565186 207.7225 -32.83302246 208.3825 -33.1394043 209.0625 C-33.42340088 209.701875 -33.70739746 210.34125 -34 211 C-34.27175049 211.598125 -34.54350098 212.19625 -34.82348633 212.8125 C-35.08025146 213.39 -35.3370166 213.9675 -35.6015625 214.5625 C-35.84269775 215.13226563 -36.08383301 215.70203125 -36.33227539 216.2890625 C-36.55262451 216.85367188 -36.77297363 217.41828125 -37 218 C-37.19005615 218.56460938 -37.3801123 219.12921875 -37.57592773 219.7109375 C-37.74809814 220.28070313 -37.92026855 220.85046875 -38.09765625 221.4375 C-38.25838623 222.0145166 -38.41911621 222.5915332 -38.5847168 223.18603516 C-38.74238525 223.78464355 -38.90005371 224.38325195 -39.0625 225 C-39.23241455 225.64372559 -39.4023291 226.28745117 -39.57739258 226.95068359 C-39.7452124 227.61406738 -39.91303223 228.27745117 -40.0859375 228.9609375 C-40.24416992 229.62963867 -40.40240234 230.29833984 -40.56542969 230.98730469 C-40.70883789 231.65149414 -40.85224609 232.31568359 -41 233 C-41.11762695 233.64098633 -41.23525391 234.28197266 -41.35644531 234.94238281 C-41.45795898 235.57241211 -41.55947266 236.20244141 -41.6640625 236.8515625 C-41.75502197 237.47554932 -41.84598145 238.09953613 -41.93969727 238.74243164 C-42.02147217 239.3636792 -42.10324707 239.98492676 -42.1875 240.625 C-42.26347412 241.2533374 -42.33944824 241.8816748 -42.41772461 242.52905273 C-42.48741455 243.14981689 -42.55710449 243.77058105 -42.62890625 244.41015625 C-42.69223145 245.01746582 -42.75555664 245.62477539 -42.82080078 246.25048828 C-42.87993652 246.82782715 -42.93907227 247.40516602 -43 248 C-43.11214844 249.00933594 -43.22429688 250.01867187 -43.33984375 251.05859375 C-43.43394531 252.04988281 -43.52804688 253.04117188 -43.625 254.0625 C-43.69332031 255.09632813 -43.76164062 256.13015625 -43.83203125 257.1953125 C-43.85990723 257.77442383 -43.8877832 258.35353516 -43.91650391 258.95019531 C-43.94405762 259.62663086 -43.97161133 260.30306641 -44 261 C-44.03399902 261.86206055 -44.06799805 262.72412109 -44.10302734 263.61230469 C-44.13477051 264.56266602 -44.16651367 265.51302734 -44.19921875 266.4921875 C-44.21968262 267.47050537 -44.24014648 268.44882324 -44.26123047 269.45678711 C-44.27814941 270.44042236 -44.29506836 271.42405762 -44.3125 272.4375 C-44.34230957 273.38568604 -44.37211914 274.33387207 -44.40283203 275.31079102 C-44.41040527 276.21756592 -44.41797852 277.12434082 -44.42578125 278.05859375 C-44.39307129 278.91952637 -44.36036133 279.78045898 -44.32666016 280.66748047 C-44.16496338 281.82207764 -44.16496338 281.82207764 -44 283 C-43.63527588 283.91676514 -43.63527588 283.91676514 -43.26318359 284.85205078 C-42.9430127 285.36622559 -42.6228418 285.88040039 -42.29296875 286.41015625 C-41.15794922 287.69212891 -41.15794922 287.69212891 -40 289 C-39.28070313 289.74121094 -38.56140625 290.48242188 -37.8203125 291.24609375 C-36.88960937 291.82488281 -35.95890625 292.40367187 -35 293 C-34.37448242 293.20898926 -33.74896484 293.41797852 -33.10449219 293.63330078 C-32.02796387 293.89409424 -32.02796387 293.89409424 -30.9296875 294.16015625 C-30.13369141 294.31258789 -29.33769531 294.46501953 -28.51757812 294.62207031 C-27.20950195 294.84008301 -27.20950195 294.84008301 -25.875 295.0625 C-24.93849609 295.22459961 -24.00199219 295.38669922 -23.03710938 295.55371094 C-21.5144043 295.79976074 -21.5144043 295.79976074 -19.9609375 296.05078125 C-18.86491211 296.20885254 -17.76888672 296.36692383 -16.63964844 296.52978516 C-16.05517944 296.60763245 -15.47071045 296.68547974 -14.86853027 296.76568604 C-14.25191528 296.84300964 -13.63530029 296.92033325 -13 297 C-12.33826782 297.07732361 -11.67653564 297.15464722 -10.99475098 297.23431396 C-10.30328979 297.31087219 -9.61182861 297.38743042 -8.89941406 297.46630859 C-8.18781631 297.54159286 -7.47621857 297.61687714 -6.74305725 297.69444275 C-5.65207985 297.80508812 -5.65207985 297.80508812 -4.5390625 297.91796875 C-3.80364731 297.98983902 -3.06823212 298.06170929 -2.31053162 298.13575745 C-1.56698929 298.20560349 -0.82344696 298.27544952 -0.05737305 298.34741211 C0.69275055 298.41507782 1.44287415 298.48274353 2.21572876 298.55245972 C2.96953827 298.61764801 3.72334778 298.6828363 4.5 298.75 C5.2555014 298.81236847 6.01100281 298.87473694 6.78939819 298.93899536 C7.54234161 298.99852386 8.29528503 299.05805237 9.07104492 299.11938477 C9.8170546 299.1759877 10.56306427 299.23259064 11.3316803 299.29090881 C12.06913986 299.34444016 12.80659943 299.3979715 13.56640625 299.453125 C14.29520493 299.50347397 15.0240036 299.55382294 15.77488708 299.60569763 C16.48613235 299.65267288 17.19737762 299.69964813 17.93017578 299.74804688 C18.61895813 299.79147217 19.30774048 299.83489746 20.01739502 299.87963867 C20.67165466 299.91935791 21.32591431 299.95907715 22 300 C22.60011902 300.03585205 23.20023804 300.0717041 23.81854248 300.10864258 C24.38228577 300.14046631 24.94602905 300.17229004 25.52685547 300.20507812 C26.5788916 300.25599609 27.63092773 300.30691406 28.71484375 300.359375 C29.69179199 300.3917627 30.66874023 300.42415039 31.67529297 300.45751953 C32.58682129 300.47153809 33.49834961 300.48555664 34.4375 300.5 C35.31035645 300.49726074 36.18321289 300.49452148 37.08251953 300.49169922 C37.90220215 300.4660791 38.72188477 300.44045898 39.56640625 300.4140625 C40.32711426 300.36282227 41.08782227 300.31158203 41.87158203 300.25878906 C42.92514893 300.13068848 42.92514893 300.13068848 44 300 C44.63921387 299.86561523 45.27842773 299.73123047 45.93701172 299.59277344 C46.52369629 299.42551758 47.11038086 299.25826172 47.71484375 299.0859375 C48.75769531 298.68632812 49.80054687 298.28671875 50.875 297.875 C51.77347656 297.41351563 52.67195313 296.95203125 53.59765625 296.4765625 C54.39042969 295.98929687 55.18320313 295.50203125 56 295 C56.74121094 294.55398438 57.48242188 294.10796875 58.24609375 293.6484375 C59.26896484 292.95621094 59.26896484 292.95621094 60.3125 292.25 C60.93253906 291.74339844 61.55257812 291.23679687 62.19140625 290.71484375 C62.78824219 290.14894531 63.38507813 289.58304687 64 289 C64.62777344 288.34128906 65.25554687 287.68257813 65.90234375 287.00390625 C66.51207031 286.28074219 67.12179688 285.55757813 67.75 284.8125 C68.31589844 284.04421875 68.88179688 283.2759375 69.46484375 282.484375 C69.97144531 281.66453125 70.47804688 280.8446875 71 280 C71.41378906 279.11828125 71.82757813 278.2365625 72.25390625 277.328125 C72.77791016 275.95914063 72.77791016 275.95914063 73.3125 274.5625 C73.61285156 273.6240625 73.91320312 272.685625 74.22265625 271.71875 C74.47917969 270.8215625 74.73570313 269.924375 75 269 C75.22558594 268.2678125 75.45117188 267.535625 75.68359375 266.78125 C75.87050781 266.0490625 76.05742188 265.316875 76.25 264.5625 C76.394375 263.75425781 76.53875 262.94601562 76.6875 262.11328125 C76.790625 261.08589844 76.89375 260.05851562 77 259 C77.03609375 258.28634277 77.0721875 257.57268555 77.109375 256.83740234 C77.13515625 256.03898926 77.1609375 255.24057617 77.1875 254.41796875 C77.20312988 253.57983643 77.21875977 252.7417041 77.23486328 251.87817383 C77.2398584 251.01087646 77.24485352 250.1435791 77.25 249.25 C77.24009033 247.934552 77.24009033 247.934552 77.22998047 246.5925293 C77.21338379 245.724104 77.19678711 244.85567871 77.1796875 243.9609375 C77.15358398 243.11112305 77.12748047 242.26130859 77.10058594 241.38574219 C77.06739258 240.59844727 77.03419922 239.81115234 77 239 C76.96422852 238.34418945 76.92845703 237.68837891 76.89160156 237.01269531 C76.84745117 236.42327148 76.80330078 235.83384766 76.7578125 235.2265625 C76.63148437 234.12054688 76.50515625 233.01453125 76.375 231.875 C76.19066406 230.78316406 76.00632812 229.69132812 75.81640625 228.56640625 C75.69539551 228.00195801 75.57438477 227.43750977 75.44970703 226.85595703 C75.22710205 225.9372583 75.22710205 225.9372583 75 225 C74.81163574 224.28569824 74.62327148 223.57139648 74.42919922 222.83544922 C74.21408691 222.07377441 73.99897461 221.31209961 73.77734375 220.52734375 C73.54394287 219.75189209 73.31054199 218.97644043 73.07006836 218.17749023 C72.69507202 217.00682007 72.69507202 217.00682007 72.3125 215.8125 C71.91720093 214.66019897 71.91720093 214.66019897 71.51391602 213.48461914 C71.10484009 212.36301392 71.10484009 212.36301392 70.6875 211.21875 C70.40777344 210.496875 70.12804687 209.775 69.83984375 209.03125 C69.42412109 208.02578125 69.42412109 208.02578125 69 207 C68.74089844 206.41992188 68.48179688 205.83984375 68.21484375 205.2421875 C67.95832031 204.71882813 67.70179687 204.19546875 67.4375 203.65625 C66.90125 202.7178125 66.365 201.779375 65.8125 200.8125 C65.22984375 199.97203125 64.6471875 199.1315625 64.046875 198.265625 C63.37140625 197.51796875 62.6959375 196.7703125 62 196 C61.13890625 195.31421875 60.2778125 194.6284375 59.390625 193.921875 C58.45734375 193.30828125 57.5240625 192.6946875 56.5625 192.0625 C55.13744141 191.25039062 55.13744141 191.25039062 53.68359375 190.421875 C52.35521484 189.71804687 52.35521484 189.71804687 51 189 C50.33097656 188.61328125 49.66195312 188.2265625 48.97265625 187.828125 C48.36292969 187.49296875 47.75320312 187.1578125 47.125 186.8125 C46.48175781 186.51472656 45.83851562 186.21695313 45.17578125 185.91015625 C44.45777344 185.60980469 43.73976563 185.30945313 43 185 C41.69095703 184.44119141 41.69095703 184.44119141 40.35546875 183.87109375 C38.84919922 183.31615234 38.84919922 183.31615234 37.3125 182.75 C36.20777344 182.42128906 35.10304688 182.09257812 33.96484375 181.75390625 C33.34722168 181.61484863 32.72959961 181.47579102 32.09326172 181.33251953 C31.05709717 181.16792236 31.05709717 181.16792236 30 181 C29.1867627 180.93796387 28.37352539 180.87592773 27.53564453 180.81201172 C26.6589209 180.77994629 25.78219727 180.74788086 24.87890625 180.71484375 C23.9770459 180.70211426 23.07518555 180.68938477 22.14599609 180.67626953 C21.23156738 180.67997559 20.31713867 180.68368164 19.375 180.6875 C18.46830566 180.70151855 17.56161133 180.71553711 16.62744141 180.72998047 C15.30172119 180.76502686 15.30172119 180.76502686 13.94921875 180.80078125 C12.67377197 180.848396 12.67377197 180.848396 11.37255859 180.89697266 C10.58961426 180.93097168 9.80666992 180.9649707 9 181 Z " transform="translate(51,8)" style="fill: #443C3F;"/></svg>