<?xml version="1.0" encoding="UTF-8"?>
<!-- Generator: visioncortex VTracer -->
<svg id="svg" version="1.1" xmlns="http://www.w3.org/2000/svg" style="display: block;" viewBox="0 0 111 320"><path d="M0 0 C1.093125 0 2.18625 0 3.3125 0 C3.93753418 0.10481689 4.56256836 0.20963379 5.20654297 0.31762695 C6.0943042 0.65540161 6.0943042 0.65540161 7 1 C7.43844238 1.41789795 7.87688477 1.8357959 8.32861328 2.26635742 C8.71774902 2.81138916 9.10688477 3.3564209 9.5078125 3.91796875 C9.93199463 4.55138184 10.35617676 5.18479492 10.79321289 5.83740234 C11.19145264 6.55105957 11.58969238 7.2647168 12 8 C12.32669678 8.77424316 12.65339355 9.54848633 12.98999023 10.34619141 C13.28333252 11.17683105 13.5766748 12.0074707 13.87890625 12.86328125 C14.29789185 14.178125 14.29789185 14.178125 14.7253418 15.51953125 C15.001604 16.44121094 15.27786621 17.36289062 15.5625 18.3125 C15.8613208 19.28960938 16.1601416 20.26671875 16.46801758 21.2734375 C16.76474365 22.26214844 17.06146973 23.25085938 17.3671875 24.26953125 C17.64916992 25.24744629 17.93115234 26.22536133 18.22167969 27.23291016 C18.47852539 28.1460498 18.73537109 29.05918945 19 30 C19.21043945 30.75716309 19.42087891 31.51432617 19.63769531 32.29443359 C19.82170898 32.9848877 20.00572266 33.6753418 20.1953125 34.38671875 C20.36498535 35.06669922 20.5346582 35.74667969 20.70947266 36.44726562 C20.94609619 37.46336914 20.94609619 37.46336914 21.1875 38.5 C21.41445557 39.53737305 21.41445557 39.53737305 21.64599609 40.59570312 C21.79375488 41.33111328 21.94151367 42.06652344 22.09375 42.82421875 C22.23941406 43.61618652 22.38507813 44.4081543 22.53515625 45.22412109 C22.68855469 46.14016113 22.84195313 47.05620117 23 48 C23.08636719 48.55399475 23.17273438 49.1079895 23.26171875 49.67877197 C23.35195312 50.2767157 23.4421875 50.87465942 23.53515625 51.49072266 C23.62693649 52.11443756 23.71871674 52.73815247 23.8132782 53.38076782 C23.90583389 54.02468475 23.99838959 54.66860168 24.09375 55.33203125 C24.18554031 55.98553558 24.27733063 56.63903992 24.37190247 57.31234741 C24.46291733 57.97239777 24.55393219 58.63244812 24.64770508 59.3125 C24.73774811 59.97636719 24.82779114 60.64023438 24.92056274 61.32421875 C25.00865204 61.98035156 25.09674133 62.63648438 25.1875 63.3125 C25.2724472 63.94462402 25.35739441 64.57674805 25.44491577 65.22802734 C25.52714386 65.84758301 25.60937195 66.46713867 25.6940918 67.10546875 C25.7741748 67.7262883 25.85425781 68.34710785 25.93676758 68.98674011 C26.01306396 69.58537369 26.08936035 70.18400726 26.16796875 70.80078125 C26.30485107 71.87497314 26.4417334 72.94916504 26.58276367 74.0559082 C26.68226067 74.94215126 26.68226067 74.94215126 26.7837677 75.84629822 C26.85512436 76.55701981 26.92648102 77.26774139 27 78 C27.08759079 78.95697281 27.17518158 79.91394562 27.26542664 80.8999176 C27.39966789 82.51446083 27.39966789 82.51446083 27.53662109 84.16162109 C27.62056625 85.28915298 27.70451141 86.41668488 27.79100037 87.5783844 C27.89445518 89.27208412 27.89445518 89.27208412 28 91 C28.03670303 92.03184921 28.07340607 93.06369843 28.11122131 94.1268158 C28.14209084 95.64825951 28.14209084 95.64825951 28.17358398 97.20043945 C28.18715942 98.238452 28.20073486 99.27646454 28.21472168 100.34593201 C28.22507446 101.42415726 28.23542725 102.50238251 28.24609375 103.61328125 C28.25335983 104.18574648 28.26062592 104.75821171 28.26811218 105.34802437 C28.27611343 105.93656637 28.28411469 106.52510838 28.2923584 107.13148499 C28.30046854 107.73058843 28.30857868 108.32969187 28.31693459 108.94694996 C28.32505857 109.55468596 28.33318256 110.16242197 28.34155273 110.78857422 C28.34923864 111.40073382 28.35692455 112.01289343 28.36484337 112.64360332 C28.37638167 113.57046554 28.37638167 113.57046554 28.38815308 114.51605225 C28.39609264 115.13985527 28.40403221 115.76365829 28.41221237 116.40636444 C28.42055729 117.03538918 28.42890221 117.66441391 28.4375 118.3125 C28.44657001 118.94684212 28.45564003 119.58118423 28.46498489 120.23474884 C28.47453579 120.87224815 28.48408669 121.50974747 28.493927 122.16656494 C28.5038244 122.80561264 28.51372179 123.44466034 28.52391911 124.10307312 C28.53415324 124.74211075 28.54438738 125.38114838 28.55493164 126.03955078 C28.56544524 126.67649368 28.57595884 127.31343658 28.58679104 127.96968079 C28.59759229 128.60449875 28.60839354 129.23931671 28.61952209 129.89337158 C28.63062578 130.52527657 28.64172947 131.15718155 28.65316963 131.80823517 C28.66449865 132.437416 28.67582767 133.06659683 28.6875 133.71484375 C28.69892469 134.34273552 28.71034939 134.97062729 28.72212029 135.61754608 C28.73381311 136.23962196 28.74550594 136.86169785 28.7575531 137.50262451 C28.76963523 138.11516083 28.78171736 138.72769714 28.79416561 139.35879517 C28.80666127 139.96081757 28.81915693 140.56283997 28.83203125 141.18310547 C28.84496751 141.77421112 28.85790377 142.36531677 28.87123203 142.97433472 C28.88472156 143.54908539 28.89821108 144.12383606 28.91210938 144.71600342 C28.95561523 146.34158173 28.95561523 146.34158173 29 148 C29.04930664 149.42061737 29.04930664 149.42061737 29.09960938 150.86993408 C29.1527832 152.16045685 29.1527832 152.16045685 29.20703125 153.47705078 C29.24429321 154.27972885 29.28155518 155.08240692 29.31994629 155.90940857 C29.35873901 156.6624678 29.39753174 157.41552704 29.4375 158.19140625 C29.47725952 158.913246 29.51701904 159.63508575 29.5579834 160.37879944 C29.59879028 161.06743576 29.63959717 161.75607208 29.68164062 162.46557617 C29.72345459 163.12141693 29.76526855 163.77725769 29.80834961 164.45297241 C29.87227905 165.40437607 29.87227905 165.40437607 29.9375 166.375 C29.98076416 167.00193756 30.02402832 167.62887512 30.06860352 168.27481079 C30.11235107 168.88577606 30.15609863 169.49674133 30.20117188 170.1262207 C30.24520142 170.71742203 30.28923096 171.30862335 30.33459473 171.91773987 C30.37886597 172.48887009 30.42313721 173.06000031 30.46875 173.6484375 C30.55769531 174.72577148 30.64664063 175.80310547 30.73828125 176.91308594 C30.82464844 177.93176758 30.91101563 178.95044922 31 180 C31.07863281 180.99032227 31.15726562 181.98064453 31.23828125 183.00097656 C31.31433594 183.94166992 31.39039062 184.88236328 31.46875 185.8515625 C31.54746338 186.73537598 31.62617676 187.61918945 31.70727539 188.52978516 C31.78324951 189.34495605 31.85922363 190.16012695 31.9375 191 C31.99993896 191.71849121 32.06237793 192.43698242 32.12670898 193.17724609 C32.19704346 193.84062988 32.26737793 194.50401367 32.33984375 195.1875 C32.47483276 196.13459839 32.47483276 196.13459839 32.61254883 197.10083008 C32.74040771 197.72755615 32.8682666 198.35428223 33 199 C33.19682373 199.66990967 33.39364746 200.33981934 33.59643555 201.0300293 C33.83531494 201.70461182 34.07419434 202.37919434 34.3203125 203.07421875 C34.58545654 203.73470215 34.85060059 204.39518555 35.1237793 205.07568359 C35.41293213 205.71070801 35.70208496 206.34573242 36 207 C36.30655518 207.58217285 36.61311035 208.1643457 36.92895508 208.76416016 C37.25017334 209.32280762 37.5713916 209.88145508 37.90234375 210.45703125 C38.23347168 211.00633301 38.56459961 211.55563477 38.90576172 212.12158203 C39.24623535 212.67958496 39.58670898 213.23758789 39.9375 213.8125 C40.29086426 214.41433105 40.64422852 215.01616211 41.00830078 215.63623047 C41.35747559 216.2448291 41.70665039 216.85342773 42.06640625 217.48046875 C42.40172363 218.07649902 42.73704102 218.6725293 43.08251953 219.28662109 C43.38528809 219.85203613 43.68805664 220.41745117 44 221 C44.44214844 221.96550781 44.88429688 222.93101562 45.33984375 223.92578125 C45.68144531 224.81652344 46.02304688 225.70726562 46.375 226.625 C46.66632813 227.51703125 46.95765625 228.4090625 47.2578125 229.328125 C47.50273438 230.20984375 47.74765625 231.0915625 48 232 C48.22429687 232.86109375 48.44859375 233.7221875 48.6796875 234.609375 C48.86789063 235.52203125 49.05609375 236.4346875 49.25 237.375 C49.46269531 238.85806641 49.46269531 238.85806641 49.6796875 240.37109375 C49.73608398 240.92909668 49.79248047 241.48709961 49.85058594 242.06201172 C49.89989258 242.70154785 49.94919922 243.34108398 50 244 C50.04672852 244.78262207 50.09345703 245.56524414 50.14160156 246.37158203 C50.17995117 247.22993652 50.21830078 248.08829102 50.2578125 248.97265625 C50.28359375 249.86412354 50.309375 250.75559082 50.3359375 251.67407227 C50.35527344 253.04196899 50.35527344 253.04196899 50.375 254.4375 C50.375 255.34749756 50.375 256.25749512 50.375 257.19506836 C50.35695313 258.0897583 50.33890625 258.98444824 50.3203125 259.90625 C50.28196289 260.77636719 50.24361328 261.64648438 50.20410156 262.54296875 C50.13674805 263.35378906 50.06939453 264.16460937 50 265 C49.88881836 265.69996094 49.77763672 266.39992188 49.66308594 267.12109375 C49.52418945 267.75144531 49.38529297 268.38179688 49.2421875 269.03125 C49.08613037 269.61374512 48.93007324 270.19624023 48.76928711 270.79638672 C48.59792236 271.3379541 48.42655762 271.87952148 48.25 272.4375 C47.87746094 273.44039063 47.50492187 274.44328125 47.12109375 275.4765625 C46.75113281 276.30929687 46.38117188 277.14203125 46 278 C45.72285156 278.60585938 45.44570312 279.21171875 45.16015625 279.8359375 C44.88042969 280.32320313 44.60070312 280.81046875 44.3125 281.3125 C43.97347656 281.74304688 43.63445312 282.17359375 43.28515625 282.6171875 C42.86105469 283.07351563 42.43695313 283.52984375 42 284 C41.16275391 284.93199219 41.16275391 284.93199219 40.30859375 285.8828125 C39.62925781 286.56085938 38.94992188 287.23890625 38.25 287.9375 C37.46238281 288.61167969 36.67476563 289.28585937 35.86328125 289.98046875 C35.41549316 290.3161084 34.96770508 290.65174805 34.50634766 290.99755859 C33.76070557 291.49376709 33.76070557 291.49376709 33 292 C32.43200684 292.32178223 31.86401367 292.64356445 31.27880859 292.97509766 C30.66473145 293.28882324 30.0506543 293.60254883 29.41796875 293.92578125 C28.7729541 294.2312085 28.12793945 294.53663574 27.46337891 294.85131836 C26.79483887 295.1478833 26.12629883 295.44444824 25.4375 295.75 C24.75864746 296.03818604 24.07979492 296.32637207 23.38037109 296.62329102 C22.34323975 297.03792603 22.34323975 297.03792603 21.28515625 297.4609375 C20.58277832 297.72358398 19.88040039 297.98623047 19.15673828 298.25683594 C18.44501465 298.50208008 17.73329102 298.74732422 17 299 C15.91501221 299.33306152 15.91501221 299.33306152 14.80810547 299.67285156 C14.0863916 299.87620117 13.36467773 300.07955078 12.62109375 300.2890625 C11.90961182 300.47629883 11.19812988 300.66353516 10.46508789 300.85644531 C9.77535889 301.02756836 9.08562988 301.19869141 8.375 301.375 C7.7245874 301.5306543 7.0741748 301.68630859 6.40405273 301.84667969 C5.78344971 301.98750977 5.16284668 302.12833984 4.5234375 302.2734375 C3.61815308 302.46292969 3.61815308 302.46292969 2.69458008 302.65625 C2.13536865 302.7696875 1.57615723 302.883125 1 303 C0.08347656 303.19335938 -0.83304688 303.38671875 -1.77734375 303.5859375 C-2.84082031 303.72257812 -3.90429688 303.85921875 -5 304 C-5.78568359 304.04108887 -6.57136719 304.08217773 -7.38085938 304.12451172 C-8.27482422 304.1504541 -9.16878906 304.17639648 -10.08984375 304.203125 C-11.03206787 304.21585449 -11.97429199 304.22858398 -12.94506836 304.24169922 C-13.9325708 304.24443848 -14.92007324 304.24717773 -15.9375 304.25 C-16.95787354 304.24887207 -17.97824707 304.24774414 -19.02954102 304.24658203 C-20.05104248 304.23481934 -21.07254395 304.22305664 -22.125 304.2109375 C-23.12789062 304.18483398 -24.13078125 304.15873047 -25.1640625 304.13183594 C-26.09992187 304.08833008 -27.03578125 304.04482422 -28 304 C-28.7940625 303.93329102 -29.588125 303.86658203 -30.40625 303.79785156 C-31.47359375 303.66975098 -31.47359375 303.66975098 -32.5625 303.5390625 C-33.2234668 303.437146 -33.88443359 303.33522949 -34.56542969 303.23022461 C-35.18321289 303.11300049 -35.80099609 302.99577637 -36.4375 302.875 C-37.3332373 302.68079468 -37.3332373 302.68079468 -38.24707031 302.48266602 C-38.81006836 302.33756592 -39.37306641 302.19246582 -39.953125 302.04296875 C-41.46132813 301.52669922 -41.46132813 301.52669922 -43 301 C-43.84046875 300.56300781 -44.6809375 300.12601562 -45.546875 299.67578125 C-46.25328125 299.18464844 -46.9596875 298.69351562 -47.6875 298.1875 C-48.28046875 297.65769531 -48.8734375 297.12789063 -49.484375 296.58203125 C-49.98453125 296.05996094 -50.4846875 295.53789062 -51 295 C-51.43828125 294.57074219 -51.8765625 294.14148438 -52.328125 293.69921875 C-52.69421875 293.26222656 -53.0603125 292.82523437 -53.4375 292.375 C-53.8387207 291.66609619 -53.8387207 291.66609619 -54.24804688 290.94287109 C-54.49619141 290.30172363 -54.74433594 289.66057617 -55 289 C-55.19577637 287.76044556 -55.19577637 287.76044556 -55.39550781 286.49584961 C-55.47639648 285.53686768 -55.55728516 284.57788574 -55.640625 283.58984375 C-55.71724365 282.52024414 -55.7938623 281.45064453 -55.87280273 280.34863281 C-55.93576538 278.69105957 -55.93576538 278.69105957 -56 277 C-55.97691772 275.44684082 -55.97691772 275.44684082 -55.95336914 273.86230469 C-55.90301514 272.82879883 -55.85266113 271.79529297 -55.80078125 270.73046875 C-55.72827148 269.66868408 -55.65576172 268.60689941 -55.58105469 267.51293945 C-55.49243164 266.41554443 -55.40380859 265.31814941 -55.3125 264.1875 C-55.24440125 263.32117447 -55.24440125 263.32117447 -55.17492676 262.43734741 C-55.12783569 261.8485379 -55.08074463 261.25972839 -55.03222656 260.65307617 C-54.98252716 260.06026352 -54.93282776 259.46745087 -54.88162231 258.85667419 C-54.82916351 258.26201859 -54.77670471 257.66736298 -54.72265625 257.0546875 C-54.66673309 256.46160294 -54.61080994 255.86851837 -54.55319214 255.25746155 C-54.49454987 254.6694426 -54.43590759 254.08142365 -54.37548828 253.47558594 C-54.25157715 252.32864258 -54.12766602 251.18169922 -54 250 C-53.86964355 248.93555664 -53.73928711 247.87111328 -53.60498047 246.77441406 C-53.46592285 245.75831055 -53.32686523 244.74220703 -53.18359375 243.6953125 C-53.03438477 242.71054932 -52.88517578 241.72578613 -52.73144531 240.71118164 C-52.57256836 239.7546167 -52.41369141 238.79805176 -52.25 237.8125 C-51.99814941 236.39988892 -51.99814941 236.39988892 -51.74121094 234.95874023 C-51.56235352 234.04552002 -51.38349609 233.1322998 -51.19921875 232.19140625 C-51.0089209 231.31371582 -50.81862305 230.43602539 -50.62255859 229.53173828 C-50.31439209 228.27852783 -50.31439209 228.27852783 -50 227 C-49.7726416 226.21995605 -49.5452832 225.43991211 -49.31103516 224.63623047 C-48.95017822 223.53045654 -48.95017822 223.53045654 -48.58203125 222.40234375 C-48.33388672 221.70109375 -48.08574219 220.99984375 -47.83007812 220.27734375 C-47.57677734 219.60832031 -47.32347656 218.93929687 -47.0625 218.25 C-46.80791016 217.60546875 -46.55332031 216.9609375 -46.29101562 216.296875 C-46.03642578 215.68199219 -45.78183594 215.06710938 -45.51953125 214.43359375 C-45.2663916 213.8494873 -45.01325195 213.26538086 -44.75244141 212.66357422 C-44.50413574 212.11459473 -44.25583008 211.56561523 -44 211 C-43.52949219 210.02160156 -43.05898438 209.04320312 -42.57421875 208.03515625 C-42.13722656 207.13667969 -41.70023438 206.23820313 -41.25 205.3125 C-40.87240036 204.49840164 -40.49480072 203.68430328 -40.10575867 202.84553528 C-39.74085831 201.90650864 -39.37595795 200.96748199 -39 200 C-38.70927361 198.63647652 -38.70927361 198.63647652 -38.41267395 197.2454071 C-38.2710936 196.25651993 -38.12951324 195.26763275 -37.98364258 194.2487793 C-37.90329427 193.69156787 -37.82294596 193.13435644 -37.74016285 192.56025982 C-37.65733397 191.97096093 -37.5745051 191.38166204 -37.48916626 190.77450562 C-37.40825871 190.16169613 -37.32735115 189.54888664 -37.24399185 188.91750717 C-37.16347454 188.2847298 -37.08295723 187.65195244 -37 187 C-36.91996609 186.3555405 -36.83993217 185.71108101 -36.75747299 185.04709244 C-36.67745167 184.38529858 -36.59743034 183.72350471 -36.51498413 183.04165649 C-36.43457351 182.35954448 -36.35416288 181.67743246 -36.27131557 180.97465038 C-36.19040204 180.27250062 -36.10948851 179.57035086 -36.02612305 178.84692383 C-35.94466821 178.12398038 -35.86321337 177.40103693 -35.7792902 176.6561861 C-35.65535468 175.54076828 -35.65535468 175.54076828 -35.52891541 174.40281677 C-35.44478834 173.63914732 -35.36066128 172.87547787 -35.27398491 172.08866692 C-35.18743708 171.30272715 -35.10088924 170.51678738 -35.01171875 169.70703125 C-34.92124834 168.89471102 -34.83077793 168.08239079 -34.73756599 167.24545479 C-34.64459173 166.41305716 -34.55161747 165.58065952 -34.45582581 164.72303772 C-34.36116563 163.8747556 -34.26650545 163.02647348 -34.16897678 162.15248585 C-34.07293124 161.29053954 -33.9768857 160.42859324 -33.87792969 159.54052734 C-33.78114142 158.66826098 -33.68435316 157.79599463 -33.58463192 156.89729595 C-33.4868926 156.01553094 -33.38915327 155.13376593 -33.28845215 154.22528076 C-33.18974319 153.33529137 -33.09103424 152.44530197 -32.98933411 151.5283432 C-32.88972885 150.63211494 -32.7901236 149.73588669 -32.6875 148.8125 C-32.58692795 147.91192116 -32.4863559 147.01134232 -32.38273621 146.08347321 C-32.28161026 145.18010979 -32.18048431 144.27674637 -32.07629395 143.3460083 C-31.97491182 142.44132561 -31.8735297 141.53664291 -31.76907539 140.60454559 C-31.66771215 139.70073402 -31.56634892 138.79692245 -31.46191406 137.86572266 C-31.36094862 136.96543587 -31.25998318 136.06514908 -31.15595818 135.13758087 C-31.05537668 134.24089439 -30.95479519 133.34420792 -30.85116577 132.42034912 C-30.751096 131.52848656 -30.65102623 130.63662399 -30.54792404 129.71773529 C-30.44832005 128.82990608 -30.34871605 127.94207687 -30.24609375 127.02734375 C-30.1466811 126.14060219 -30.04726845 125.25386063 -29.94484329 124.34024811 C-29.79723116 123.02330082 -29.79723116 123.02330082 -29.64663696 121.67974854 C-29.54990126 120.81674889 -29.45316555 119.95374924 -29.35349846 119.06459808 C-29.2585969 118.21811958 -29.16369534 117.37164108 -29.06591797 116.49951172 C-28.97290468 115.67029457 -28.8798914 114.84107742 -28.78405952 113.98673248 C-28.64885808 112.78175236 -28.64885808 112.78175236 -28.51092529 111.5524292 C-28.42418297 110.77952293 -28.33744064 110.00661667 -28.24806976 109.210289 C-28.16620674 108.48089363 -28.08434372 107.75149826 -28 107 C-27.92546852 106.33562172 -27.85093704 105.67124344 -27.77414703 104.98673248 C-27.70456535 104.36666069 -27.63498367 103.7465889 -27.56329346 103.10772705 C-27.497246 102.51969394 -27.43119854 101.93166082 -27.36314964 101.32580853 C-27.30019014 100.76599191 -27.23723064 100.20617529 -27.17236328 99.62939453 C-27.0529538 98.57067642 -26.93354431 97.51195831 -26.81051636 96.42115784 C-26.69902252 95.43783981 -26.58752869 94.45452179 -26.47265625 93.44140625 C-26.36543243 92.50284286 -26.25820862 91.56427948 -26.1477356 90.59727478 C-26.04516449 89.70673904 -25.94259338 88.81620331 -25.83691406 87.89868164 C-25.73882446 87.05516144 -25.64073486 86.21164124 -25.53967285 85.34255981 C-25.44408081 84.52826508 -25.34848877 83.71397034 -25.25 82.875 C-25.15456909 82.0680368 -25.05913818 81.26107361 -24.96081543 80.42965698 C-24.86643188 79.64132477 -24.77204834 78.85299255 -24.67480469 78.04077148 C-24.58159943 77.27506332 -24.48839417 76.50935516 -24.3923645 75.72044373 C-24.30026703 74.9773848 -24.20816956 74.23432587 -24.11328125 73.46875 C-24.02287567 72.7536879 -23.93247009 72.03862579 -23.83932495 71.30189514 C-23.7035051 70.25333595 -23.7035051 70.25333595 -23.56494141 69.18359375 C-23.47327698 68.49410645 -23.38161255 67.80461914 -23.28717041 67.09423828 C-23.14502106 66.05759033 -23.14502106 66.05759033 -23 65 C-22.89878845 64.28827637 -22.7975769 63.57655273 -22.69329834 62.84326172 C-22.58874329 62.12799316 -22.48418823 61.41272461 -22.37646484 60.67578125 C-22.27036392 59.96680191 -22.164263 59.25782257 -22.0549469 58.52735901 C-21.94786911 57.82739304 -21.84079132 57.12742706 -21.73046875 56.40625 C-21.62367294 55.72171249 -21.51687714 55.03717499 -21.40684509 54.33189392 C-21.30005936 53.66154617 -21.19327362 52.99119843 -21.08325195 52.30053711 C-20.97647125 51.64423309 -20.86969055 50.98792908 -20.75967407 50.31173706 C-20.60019791 49.35305222 -20.60019791 49.35305222 -20.4375 48.375 C-20.27935318 47.4476152 -20.27935318 47.4476152 -20.11801147 46.50149536 C-20.0135672 45.90231293 -19.90912292 45.30313049 -19.80151367 44.68579102 C-19.69830307 44.10522446 -19.59509247 43.5246579 -19.48875427 42.92649841 C-19.38676224 42.3642305 -19.2847702 41.80196259 -19.1796875 41.22265625 C-18.87949707 39.61608154 -18.87949707 39.61608154 -18.57324219 37.97705078 C-18.2894873 36.50341064 -18.2894873 36.50341064 -18 35 C-17.83145508 34.1322998 -17.66291016 33.26459961 -17.48925781 32.37060547 C-17.33038086 31.5870166 -17.17150391 30.80342773 -17.0078125 29.99609375 C-16.85143311 29.27687744 -16.69505371 28.55766113 -16.53393555 27.81665039 C-16.37836182 27.15528076 -16.22278809 26.49391113 -16.0625 25.8125 C-15.90499268 25.19818115 -15.74748535 24.5838623 -15.58520508 23.95092773 C-15.34000122 23.08963257 -15.34000122 23.08963257 -15.08984375 22.2109375 C-14.73019531 21.15132812 -14.37054688 20.09171875 -14 19 C-13.32130859 17.44152344 -13.32130859 17.44152344 -12.62890625 15.8515625 C-12.13261719 14.88992187 -11.63632812 13.92828125 -11.125 12.9375 C-10.36316406 11.65552734 -10.36316406 11.65552734 -9.5859375 10.34765625 C-9.06257813 9.57292969 -8.53921875 8.79820313 -8 8 C-7.18402344 6.91525391 -7.18402344 6.91525391 -6.3515625 5.80859375 C-5.82304688 5.17050781 -5.29453125 4.53242188 -4.75 3.875 C-4.03070313 3.06675781 -4.03070313 3.06675781 -3.296875 2.2421875 C-2.86890625 1.83226562 -2.4409375 1.42234375 -2 1 C-1.34 0.67 -0.68 0.34 0 0 Z " transform="translate(58,5)" style="fill: #D5A1AE;"/><path d="M0 0 C1.01900391 -0.09474609 1.01900391 -0.09474609 2.05859375 -0.19140625 C2.69925781 0.20175781 3.33992188 0.59492188 4 1 C4.52722656 2.02222656 5.05445313 3.04445313 5.59765625 4.09765625 C5.96407227 5.05381836 5.96407227 5.05381836 6.33789062 6.02929688 C6.57701172 6.70025391 6.81613281 7.37121094 7.0625 8.0625 C7.42698242 9.02833008 7.42698242 9.02833008 7.79882812 10.01367188 C8.04181641 10.66013672 8.28480469 11.30660156 8.53515625 11.97265625 C8.77500244 12.63483154 9.01484863 13.29700684 9.26196289 13.97924805 C9.50551514 14.64609619 9.74906738 15.31294434 10 16 C10.25837646 16.66491455 10.51675293 17.3298291 10.78295898 18.01489258 C11.04020752 18.6777124 11.29745605 19.34053223 11.5625 20.0234375 C11.8107251 20.68770752 12.0589502 21.35197754 12.31469727 22.03637695 C12.65392212 23.00837036 12.65392212 23.00837036 13 24 C13.27058228 24.89948364 13.27058228 24.89948364 13.54663086 25.81713867 C13.70526611 26.41502197 13.86390137 27.01290527 14.02734375 27.62890625 C14.17776123 28.25555176 14.32817871 28.88219727 14.4831543 29.52783203 C14.63308838 30.19927246 14.78302246 30.87071289 14.9375 31.5625 C15.1022583 32.3035498 15.2670166 33.04459961 15.43676758 33.80810547 C15.60716553 34.6229541 15.77756348 35.43780273 15.953125 36.27734375 C16.20932617 37.60741455 16.20932617 37.60741455 16.47070312 38.96435547 C16.64537109 39.96611816 16.82003906 40.96788086 17 42 C17.09063721 42.57647278 17.18127441 43.15294556 17.2746582 43.74688721 C17.41230591 44.66519318 17.41230591 44.66519318 17.55273438 45.60205078 C17.64469589 46.2366069 17.73665741 46.87116302 17.83140564 47.52494812 C17.92313553 48.1780043 18.01486542 48.83106049 18.109375 49.50390625 C18.20017838 50.16876541 18.29098175 50.83362457 18.38453674 51.51863098 C18.47428268 52.19044907 18.56402863 52.86226715 18.65649414 53.55444336 C18.74496613 54.23006317 18.83343811 54.90568298 18.92459106 55.60177612 C19.05473099 56.60327194 19.05473099 56.60327194 19.1875 57.625 C19.27208466 58.2669632 19.35666931 58.90892639 19.44381714 59.57034302 C19.52608551 60.20140961 19.60835388 60.8324762 19.69311523 61.48266602 C19.77281052 62.10989059 19.8525058 62.73711517 19.93461609 63.38334656 C20.01162247 64.01223282 20.08862885 64.64111908 20.16796875 65.2890625 C20.24235672 65.93208817 20.31674469 66.57511383 20.39338684 67.23762512 C20.46434067 67.8809227 20.53529449 68.52422028 20.60839844 69.18701172 C20.67546997 69.82620544 20.7425415 70.46539917 20.81164551 71.1239624 C20.87380249 71.74305481 20.93595947 72.36214722 21 73 C21.10602539 74.1255127 21.21205078 75.25102539 21.32128906 76.41064453 C21.367509 76.98766113 21.41372894 77.56467773 21.46134949 78.15917969 C21.50375259 78.76149414 21.5461557 79.36380859 21.58984375 79.984375 C21.62938675 80.61907715 21.66892975 81.2537793 21.70967102 81.90771484 C21.74561874 82.6009082 21.78156647 83.29410156 21.81860352 84.00830078 C21.86683762 85.15567719 21.86683762 85.15567719 21.91604614 86.32623291 C21.94375092 87.20857605 21.97145569 88.09091919 22 89 C22.02182343 90.07457458 22.04364685 91.14914917 22.06613159 92.25628662 C22.07554999 92.84066435 22.0849684 93.42504208 22.0946722 94.02712822 C22.10331075 94.63547571 22.11194929 95.2438232 22.12084961 95.87060547 C22.12888642 96.49543383 22.13692324 97.12026218 22.14520359 97.76402473 C22.15275134 98.40552908 22.16029909 99.04703342 22.16807556 99.70797729 C22.17522017 100.36531734 22.18236477 101.02265739 22.18972588 101.69991684 C22.20022563 102.70310644 22.20022563 102.70310644 22.2109375 103.7265625 C22.21816393 104.4016901 22.22539036 105.0768177 22.23283577 105.77240372 C22.24003576 106.45523296 22.24723576 107.13806221 22.25465393 107.84158325 C22.2651872 108.87718982 22.2651872 108.87718982 22.27593327 109.93371773 C22.28629942 110.97973058 22.28629942 110.97973058 22.296875 112.046875 C22.30374801 112.75175489 22.31062101 113.45663479 22.31770229 114.18287468 C22.32436444 114.89145182 22.33102659 115.60002895 22.33789062 116.33007812 C22.3443158 117.04004944 22.35074097 117.75002075 22.35736084 118.48150635 C22.36609222 119.54253571 22.36609222 119.54253571 22.375 120.625 C22.37953186 121.32332947 22.38406372 122.02165894 22.38873291 122.7411499 C22.39290222 123.4353302 22.39707153 124.1295105 22.40136719 124.84472656 C22.40574673 125.53732197 22.41012627 126.22991737 22.41463852 126.94350052 C22.42208776 127.9808037 22.42208776 127.9808037 22.4296875 129.0390625 C22.43587223 129.73135326 22.44205696 130.42364403 22.44842911 131.1369133 C22.45563854 131.82865269 22.46284798 132.52039207 22.47027588 133.23309326 C22.48272717 134.26890659 22.48272717 134.26890659 22.49542999 135.32564545 C22.50467247 136.01482307 22.51391495 136.7040007 22.5234375 137.4140625 C22.53310295 138.10128639 22.5427684 138.78851028 22.55272675 139.49655914 C22.56961926 140.52539341 22.56961926 140.52539341 22.58685303 141.57501221 C22.60067142 142.26019299 22.61448982 142.94537376 22.62872696 143.6513176 C22.64522167 144.33518162 22.66171638 145.01904564 22.67871094 145.72363281 C22.69779385 146.40494892 22.71687675 147.08626503 22.73653793 147.78822708 C22.77142004 148.81012194 22.77142004 148.81012194 22.80700684 149.85266113 C22.8351799 150.5346608 22.86335297 151.21666046 22.89237976 151.91932678 C22.92789444 152.60594894 22.96340912 153.29257111 23 154 C23.04695511 154.69838486 23.09391022 155.39676971 23.14228821 156.11631775 C23.19640366 156.81749222 23.2505191 157.51866669 23.30627441 158.24108887 C23.36494123 158.93922762 23.42360806 159.63736637 23.48405266 160.35666084 C23.5463563 161.04946081 23.60865993 161.74226078 23.67285156 162.45605469 C23.73705355 163.13982618 23.80125553 163.82359768 23.86740303 164.52808952 C23.93336615 165.20116709 23.99932926 165.87424465 24.06729126 166.56771851 C24.13470142 167.22855816 24.20211159 167.88939781 24.27156448 168.57026291 C24.33921383 169.21481052 24.40686317 169.85935814 24.4765625 170.5234375 C24.57617846 171.45767485 24.57617846 171.45767485 24.67780685 172.41078568 C24.74347477 173.01447353 24.80914268 173.61816139 24.87680054 174.24014282 C24.94198222 174.82592039 25.00716391 175.41169796 25.07432079 176.01522636 C25.13825685 176.58173975 25.2021929 177.14825314 25.26806641 177.73193359 C25.3901799 178.80433289 25.5122934 179.87673218 25.6381073 180.98162842 C25.75753189 181.97769104 25.87695648 182.97375366 26 184 C26.12929398 184.93821594 26.25858795 185.87643188 26.39179993 186.84307861 C26.50219101 187.67297302 26.61258209 188.50286743 26.72631836 189.35791016 C26.82972031 190.07451813 26.93312225 190.7911261 27.03965759 191.52944946 C27.02657059 192.01473114 27.01348358 192.50001282 27 193 C26.30777344 192.9175 25.61554688 192.835 24.90234375 192.75 C23.94457031 192.1725 22.98679688 191.595 22 191 C21.11441406 190.525625 20.22882813 190.05125 19.31640625 189.5625 C17.95322266 188.7890625 17.95322266 188.7890625 16.5625 188 C15.65628906 187.484375 14.75007813 186.96875 13.81640625 186.4375 C12.88699219 185.963125 11.95757812 185.48875 11 185 C10.06414062 184.61328125 9.12828125 184.2265625 8.1640625 183.828125 C6.59785156 183.41820312 6.59785156 183.41820312 5 183 C4.37633545 182.93876953 3.7526709 182.87753906 3.11010742 182.81445312 C2.44084229 182.78802734 1.77157715 182.76160156 1.08203125 182.734375 C0.04453735 182.72809082 0.04453735 182.72809082 -1.01391602 182.72167969 C-1.73119873 182.73102539 -2.44848145 182.74037109 -3.1875 182.75 C-3.93636475 182.75676758 -4.68522949 182.76353516 -5.45678711 182.77050781 C-6.20581299 182.78436523 -6.95483887 182.79822266 -7.7265625 182.8125 C-8.82339355 182.85117187 -8.82339355 182.85117187 -9.94238281 182.890625 C-10.62139648 182.92671875 -11.30041016 182.9628125 -12 183 C-13.08023438 183.103125 -14.16046875 183.20625 -15.2734375 183.3125 C-16.65402344 183.5290625 -16.65402344 183.5290625 -18.0625 183.75 C-19.33480469 184.01490234 -19.33480469 184.01490234 -20.6328125 184.28515625 C-21.80457031 184.63900391 -21.80457031 184.63900391 -23 185 C-23.76054688 185.34933594 -24.52109375 185.69867188 -25.3046875 186.05859375 C-26.00851563 186.43113281 -26.71234375 186.80367187 -27.4375 187.1875 C-28.33275391 187.73470703 -28.33275391 187.73470703 -29.24609375 188.29296875 C-29.82488281 188.52628906 -30.40367188 188.75960937 -31 189 C-31.77472656 188.97550781 -32.54945312 188.95101562 -33.34765625 188.92578125 C-33.89292969 188.62027344 -34.43820313 188.31476563 -35 188 C-34.77183594 187.278125 -34.54367188 186.55625 -34.30859375 185.8125 C-33.66083984 184.4203125 -33.66083984 184.4203125 -33 183 C-32.82597656 182.0925 -32.65195312 181.185 -32.47265625 180.25 C-32.33730469 179.1775 -32.20195313 178.105 -32.0625 177 C-31.94563843 176.08154297 -31.94563843 176.08154297 -31.82641602 175.14453125 C-31.69964478 174.11392578 -31.69964478 174.11392578 -31.5703125 173.0625 C-31.48168945 172.29421875 -31.39306641 171.5259375 -31.30175781 170.734375 C-31.20217773 169.83203125 -31.10259766 168.9296875 -31 168 C-30.87979492 166.87078125 -30.75958984 165.7415625 -30.63574219 164.578125 C-30.57159622 163.96638428 -30.50745026 163.35464355 -30.44136047 162.72436523 C-30.34276985 161.77799194 -30.34276985 161.77799194 -30.2421875 160.8125 C-30.17593674 160.17449463 -30.10968597 159.53648926 -30.04142761 158.87915039 C-29.97482437 158.23453857 -29.90822113 157.58992676 -29.83959961 156.92578125 C-29.77288055 156.27689941 -29.7061615 155.62801758 -29.63742065 154.95947266 C-29.57144684 154.31284668 -29.50547302 153.6662207 -29.4375 153 C-29.37337921 152.36239746 -29.30925842 151.72479492 -29.24319458 151.06787109 C-29.18042328 150.44090332 -29.11765198 149.81393555 -29.05297852 149.16796875 C-28.99143585 148.55576477 -28.92989319 147.94356079 -28.8664856 147.31280518 C-28.80613129 146.71457947 -28.74577698 146.11635376 -28.68359375 145.5 C-28.6240451 144.90999207 -28.56449646 144.31998413 -28.50314331 143.71209717 C-28.4453067 143.14936096 -28.38747009 142.58662476 -28.32788086 142.00683594 C-28.21968018 141.01458008 -28.11147949 140.02232422 -28 139 C-27.9079126 138.34032227 -27.8158252 137.68064453 -27.72094727 137.00097656 C-27.63772217 136.46956055 -27.55449707 135.93814453 -27.46875 135.390625 C-27.3140625 134.27171875 -27.159375 133.1528125 -27 132 C-26.92338135 131.11248047 -26.8467627 130.22496094 -26.76782227 129.31054688 C-26.69104248 128.29541016 -26.6142627 127.28027344 -26.53515625 126.234375 C-26.41817383 124.65076172 -26.41817383 124.65076172 -26.29882812 123.03515625 C-26.22083984 121.95105469 -26.14285156 120.86695313 -26.0625 119.75 C-25.98837891 118.68136719 -25.91425781 117.61273438 -25.83789062 116.51171875 C-25.71897461 114.92037109 -25.71897461 114.92037109 -25.59765625 113.296875 C-25.46556763 111.70286865 -25.46556763 111.70286865 -25.33081055 110.07666016 C-25.22164307 109.0613623 -25.11247559 108.04606445 -25 107 C-24.84764893 106.11231934 -24.69529785 105.22463867 -24.53833008 104.31005859 C-24.28345825 103.01575928 -24.28345825 103.01575928 -24.0234375 101.6953125 C-23.84981689 100.80328125 -23.67619629 99.91125 -23.49731445 98.9921875 C-23.33320068 98.00476563 -23.16908691 97.01734375 -23 96 C-22.93203217 95.41814941 -22.86406433 94.83629883 -22.79403687 94.23681641 C-22.73205109 93.61468262 -22.67006531 92.99254883 -22.60620117 92.3515625 C-22.5471611 91.70582275 -22.48812103 91.06008301 -22.42729187 90.39477539 C-22.34146599 89.39885376 -22.34146599 89.39885376 -22.25390625 88.3828125 C-22.19600418 87.71209717 -22.13810211 87.04138184 -22.07844543 86.3503418 C-22.02097641 85.67140869 -21.96350739 84.99247559 -21.90429688 84.29296875 C-21.8190979 83.26308838 -21.8190979 83.26308838 -21.73217773 82.21240234 C-21.67618408 81.52355957 -21.62019043 80.8347168 -21.5625 80.125 C-21.50827881 79.43970215 -21.45405762 78.7544043 -21.39819336 78.04833984 C-21.34348877 77.36594238 -21.28878418 76.68354492 -21.23242188 75.98046875 C-21.17528519 75.30195358 -21.1181485 74.62343842 -21.0592804 73.92436218 C-20.99975693 73.25065079 -20.94023346 72.57693939 -20.87890625 71.8828125 C-20.81773117 71.21316971 -20.75655609 70.54352692 -20.69352722 69.85359192 C-20.59325981 68.8641584 -20.59325981 68.8641584 -20.4909668 67.85473633 C-20.41671478 67.20856354 -20.34246277 66.56239075 -20.26596069 65.89663696 C-20.13431015 64.95780167 -20.13431015 64.95780167 -20 64 C-19.83221542 63.1081752 -19.83221542 63.1081752 -19.66104126 62.19833374 C-19.53675751 61.62587921 -19.41247375 61.05342468 -19.28442383 60.46362305 C-19.02298584 59.36832275 -18.76154785 58.27302246 -18.4921875 57.14453125 C-18.10123901 55.57783691 -18.10123901 55.57783691 -17.70239258 53.97949219 C-17.35470825 52.50464355 -17.35470825 52.50464355 -17 51 C-16.84877686 50.0915332 -16.69755371 49.18306641 -16.54174805 48.24707031 C-16.42613525 47.38307617 -16.31052246 46.51908203 -16.19140625 45.62890625 C-16.03418091 44.37775024 -16.03418091 44.37775024 -15.8737793 43.10131836 C-15.77105713 42.2635083 -15.66833496 41.42569824 -15.5625 40.5625 C-15.44108643 39.66217041 -15.31967285 38.76184082 -15.19458008 37.83422852 C-15.06591553 36.93244873 -14.93725098 36.03066895 -14.8046875 35.1015625 C-14.67416992 34.23047852 -14.54365234 33.35939453 -14.40917969 32.46191406 C-14.27415039 31.64948242 -14.13912109 30.83705078 -14 30 C-13.85981445 29.30100586 -13.71962891 28.60201172 -13.57519531 27.88183594 C-13.42920898 27.24793945 -13.28322266 26.61404297 -13.1328125 25.9609375 C-12.97997803 25.36385986 -12.82714355 24.76678223 -12.66967773 24.15161133 C-12.51055908 23.58595459 -12.35144043 23.02029785 -12.1875 22.4375 C-11.85105469 21.35597656 -11.51460937 20.27445313 -11.16796875 19.16015625 C-10.78253906 18.11730469 -10.39710937 17.07445312 -10 16 C-9.76877441 15.44425293 -9.53754883 14.88850586 -9.29931641 14.31591797 C-9.0522998 13.75662598 -8.8052832 13.19733398 -8.55078125 12.62109375 C-8.29466064 12.07461182 -8.03854004 11.52812988 -7.7746582 10.96508789 C-7.519021 10.44035889 -7.26338379 9.91562988 -7 9.375 C-6.525625 8.43398438 -6.05125 7.49296875 -5.5625 6.5234375 C-5.046875 5.69070312 -4.53125 4.85796875 -4 4 C-3.0409375 2.81277344 -3.0409375 2.81277344 -2.0625 1.6015625 C-1.381875 1.07304687 -0.70125 0.54453125 0 0 Z " transform="translate(59,10)" style="fill: #EBB2C1;"/><path d="M0 0 C1.093125 0 2.18625 0 3.3125 0 C3.93753418 0.10481689 4.56256836 0.20963379 5.20654297 0.31762695 C6.0943042 0.65540161 6.0943042 0.65540161 7 1 C7.43844238 1.41789795 7.87688477 1.8357959 8.32861328 2.26635742 C8.71774902 2.81138916 9.10688477 3.3564209 9.5078125 3.91796875 C9.93199463 4.55138184 10.35617676 5.18479492 10.79321289 5.83740234 C11.19145264 6.55105957 11.58969238 7.2647168 12 8 C12.32669678 8.77424316 12.65339355 9.54848633 12.98999023 10.34619141 C13.28333252 11.17683105 13.5766748 12.0074707 13.87890625 12.86328125 C14.29789185 14.178125 14.29789185 14.178125 14.7253418 15.51953125 C15.001604 16.44121094 15.27786621 17.36289062 15.5625 18.3125 C15.8613208 19.28960938 16.1601416 20.26671875 16.46801758 21.2734375 C16.76474365 22.26214844 17.06146973 23.25085938 17.3671875 24.26953125 C17.64916992 25.24744629 17.93115234 26.22536133 18.22167969 27.23291016 C18.47852539 28.1460498 18.73537109 29.05918945 19 30 C19.21043945 30.75716309 19.42087891 31.51432617 19.63769531 32.29443359 C19.82170898 32.9848877 20.00572266 33.6753418 20.1953125 34.38671875 C20.36498535 35.06669922 20.5346582 35.74667969 20.70947266 36.44726562 C20.94609619 37.46336914 20.94609619 37.46336914 21.1875 38.5 C21.41445557 39.53737305 21.41445557 39.53737305 21.64599609 40.59570312 C21.79375488 41.33111328 21.94151367 42.06652344 22.09375 42.82421875 C22.23941406 43.61618652 22.38507813 44.4081543 22.53515625 45.22412109 C22.68855469 46.14016113 22.84195313 47.05620117 23 48 C23.08636719 48.55399475 23.17273438 49.1079895 23.26171875 49.67877197 C23.35195312 50.2767157 23.4421875 50.87465942 23.53515625 51.49072266 C23.62693649 52.11443756 23.71871674 52.73815247 23.8132782 53.38076782 C23.90583389 54.02468475 23.99838959 54.66860168 24.09375 55.33203125 C24.18554031 55.98553558 24.27733063 56.63903992 24.37190247 57.31234741 C24.46291733 57.97239777 24.55393219 58.63244812 24.64770508 59.3125 C24.73774811 59.97636719 24.82779114 60.64023438 24.92056274 61.32421875 C25.00865204 61.98035156 25.09674133 62.63648438 25.1875 63.3125 C25.2724472 63.94462402 25.35739441 64.57674805 25.44491577 65.22802734 C25.52714386 65.84758301 25.60937195 66.46713867 25.6940918 67.10546875 C25.7741748 67.7262883 25.85425781 68.34710785 25.93676758 68.98674011 C26.01306396 69.58537369 26.08936035 70.18400726 26.16796875 70.80078125 C26.30485107 71.87497314 26.4417334 72.94916504 26.58276367 74.0559082 C26.68226067 74.94215126 26.68226067 74.94215126 26.7837677 75.84629822 C26.85512436 76.55701981 26.92648102 77.26774139 27 78 C27.08759079 78.95697281 27.17518158 79.91394562 27.26542664 80.8999176 C27.39966789 82.51446083 27.39966789 82.51446083 27.53662109 84.16162109 C27.62056625 85.28915298 27.70451141 86.41668488 27.79100037 87.5783844 C27.89445518 89.27208412 27.89445518 89.27208412 28 91 C28.03670303 92.03184921 28.07340607 93.06369843 28.11122131 94.1268158 C28.14209084 95.64825951 28.14209084 95.64825951 28.17358398 97.20043945 C28.18715942 98.238452 28.20073486 99.27646454 28.21472168 100.34593201 C28.22507446 101.42415726 28.23542725 102.50238251 28.24609375 103.61328125 C28.25335983 104.18574648 28.26062592 104.75821171 28.26811218 105.34802437 C28.27611343 105.93656637 28.28411469 106.52510838 28.2923584 107.13148499 C28.30046854 107.73058843 28.30857868 108.32969187 28.31693459 108.94694996 C28.32505857 109.55468596 28.33318256 110.16242197 28.34155273 110.78857422 C28.34923864 111.40073382 28.35692455 112.01289343 28.36484337 112.64360332 C28.37638167 113.57046554 28.37638167 113.57046554 28.38815308 114.51605225 C28.39609264 115.13985527 28.40403221 115.76365829 28.41221237 116.40636444 C28.42055729 117.03538918 28.42890221 117.66441391 28.4375 118.3125 C28.44657001 118.94684212 28.45564003 119.58118423 28.46498489 120.23474884 C28.47453579 120.87224815 28.48408669 121.50974747 28.493927 122.16656494 C28.5038244 122.80561264 28.51372179 123.44466034 28.52391911 124.10307312 C28.53415324 124.74211075 28.54438738 125.38114838 28.55493164 126.03955078 C28.56544524 126.67649368 28.57595884 127.31343658 28.58679104 127.96968079 C28.59759229 128.60449875 28.60839354 129.23931671 28.61952209 129.89337158 C28.63062578 130.52527657 28.64172947 131.15718155 28.65316963 131.80823517 C28.66449865 132.437416 28.67582767 133.06659683 28.6875 133.71484375 C28.69892469 134.34273552 28.71034939 134.97062729 28.72212029 135.61754608 C28.73381311 136.23962196 28.74550594 136.86169785 28.7575531 137.50262451 C28.76963523 138.11516083 28.78171736 138.72769714 28.79416561 139.35879517 C28.80666127 139.96081757 28.81915693 140.56283997 28.83203125 141.18310547 C28.84496751 141.77421112 28.85790377 142.36531677 28.87123203 142.97433472 C28.88472156 143.54908539 28.89821108 144.12383606 28.91210938 144.71600342 C28.95561523 146.34158173 28.95561523 146.34158173 29 148 C29.04930664 149.42061737 29.04930664 149.42061737 29.09960938 150.86993408 C29.1527832 152.16045685 29.1527832 152.16045685 29.20703125 153.47705078 C29.24429321 154.27972885 29.28155518 155.08240692 29.31994629 155.90940857 C29.35873901 156.6624678 29.39753174 157.41552704 29.4375 158.19140625 C29.47725952 158.913246 29.51701904 159.63508575 29.5579834 160.37879944 C29.59879028 161.06743576 29.63959717 161.75607208 29.68164062 162.46557617 C29.72345459 163.12141693 29.76526855 163.77725769 29.80834961 164.45297241 C29.87227905 165.40437607 29.87227905 165.40437607 29.9375 166.375 C29.98076416 167.00193756 30.02402832 167.62887512 30.06860352 168.27481079 C30.11235107 168.88577606 30.15609863 169.49674133 30.20117188 170.1262207 C30.24520142 170.71742203 30.28923096 171.30862335 30.33459473 171.91773987 C30.37886597 172.48887009 30.42313721 173.06000031 30.46875 173.6484375 C30.55769531 174.72577148 30.64664063 175.80310547 30.73828125 176.91308594 C30.82464844 177.93176758 30.91101563 178.95044922 31 180 C31.07863281 180.99032227 31.15726562 181.98064453 31.23828125 183.00097656 C31.31433594 183.94166992 31.39039062 184.88236328 31.46875 185.8515625 C31.54746338 186.73537598 31.62617676 187.61918945 31.70727539 188.52978516 C31.78324951 189.34495605 31.85922363 190.16012695 31.9375 191 C31.99993896 191.71849121 32.06237793 192.43698242 32.12670898 193.17724609 C32.19704346 193.84062988 32.26737793 194.50401367 32.33984375 195.1875 C32.47483276 196.13459839 32.47483276 196.13459839 32.61254883 197.10083008 C32.74040771 197.72755615 32.8682666 198.35428223 33 199 C33.19682373 199.66990967 33.39364746 200.33981934 33.59643555 201.0300293 C33.83531494 201.70461182 34.07419434 202.37919434 34.3203125 203.07421875 C34.58545654 203.73470215 34.85060059 204.39518555 35.1237793 205.07568359 C35.41293213 205.71070801 35.70208496 206.34573242 36 207 C36.30655518 207.58217285 36.61311035 208.1643457 36.92895508 208.76416016 C37.25017334 209.32280762 37.5713916 209.88145508 37.90234375 210.45703125 C38.23347168 211.00633301 38.56459961 211.55563477 38.90576172 212.12158203 C39.24623535 212.67958496 39.58670898 213.23758789 39.9375 213.8125 C40.29086426 214.41433105 40.64422852 215.01616211 41.00830078 215.63623047 C41.35747559 216.2448291 41.70665039 216.85342773 42.06640625 217.48046875 C42.40172363 218.07649902 42.73704102 218.6725293 43.08251953 219.28662109 C43.38528809 219.85203613 43.68805664 220.41745117 44 221 C44.44214844 221.96550781 44.88429688 222.93101562 45.33984375 223.92578125 C45.68144531 224.81652344 46.02304688 225.70726562 46.375 226.625 C46.66632813 227.51703125 46.95765625 228.4090625 47.2578125 229.328125 C47.50273438 230.20984375 47.74765625 231.0915625 48 232 C48.22429687 232.86109375 48.44859375 233.7221875 48.6796875 234.609375 C48.86789063 235.52203125 49.05609375 236.4346875 49.25 237.375 C49.46269531 238.85806641 49.46269531 238.85806641 49.6796875 240.37109375 C49.73608398 240.92909668 49.79248047 241.48709961 49.85058594 242.06201172 C49.89989258 242.70154785 49.94919922 243.34108398 50 244 C50.04672852 244.78262207 50.09345703 245.56524414 50.14160156 246.37158203 C50.17995117 247.22993652 50.21830078 248.08829102 50.2578125 248.97265625 C50.28359375 249.86412354 50.309375 250.75559082 50.3359375 251.67407227 C50.35527344 253.04196899 50.35527344 253.04196899 50.375 254.4375 C50.375 255.34749756 50.375 256.25749512 50.375 257.19506836 C50.35695313 258.0897583 50.33890625 258.98444824 50.3203125 259.90625 C50.28196289 260.77636719 50.24361328 261.64648438 50.20410156 262.54296875 C50.13674805 263.35378906 50.06939453 264.16460937 50 265 C49.88881836 265.69996094 49.77763672 266.39992188 49.66308594 267.12109375 C49.52418945 267.75144531 49.38529297 268.38179688 49.2421875 269.03125 C49.08613037 269.61374512 48.93007324 270.19624023 48.76928711 270.79638672 C48.59792236 271.3379541 48.42655762 271.87952148 48.25 272.4375 C47.87746094 273.44039063 47.50492187 274.44328125 47.12109375 275.4765625 C46.75113281 276.30929687 46.38117188 277.14203125 46 278 C45.72285156 278.60585938 45.44570312 279.21171875 45.16015625 279.8359375 C44.88042969 280.32320313 44.60070312 280.81046875 44.3125 281.3125 C43.97347656 281.74304688 43.63445312 282.17359375 43.28515625 282.6171875 C42.86105469 283.07351563 42.43695313 283.52984375 42 284 C41.16275391 284.93199219 41.16275391 284.93199219 40.30859375 285.8828125 C39.62925781 286.56085938 38.94992188 287.23890625 38.25 287.9375 C37.46238281 288.61167969 36.67476563 289.28585937 35.86328125 289.98046875 C35.41549316 290.3161084 34.96770508 290.65174805 34.50634766 290.99755859 C33.76070557 291.49376709 33.76070557 291.49376709 33 292 C32.43200684 292.32178223 31.86401367 292.64356445 31.27880859 292.97509766 C30.66473145 293.28882324 30.0506543 293.60254883 29.41796875 293.92578125 C28.7729541 294.2312085 28.12793945 294.53663574 27.46337891 294.85131836 C26.79483887 295.1478833 26.12629883 295.44444824 25.4375 295.75 C24.75864746 296.03818604 24.07979492 296.32637207 23.38037109 296.62329102 C22.34323975 297.03792603 22.34323975 297.03792603 21.28515625 297.4609375 C20.58277832 297.72358398 19.88040039 297.98623047 19.15673828 298.25683594 C18.44501465 298.50208008 17.73329102 298.74732422 17 299 C15.91501221 299.33306152 15.91501221 299.33306152 14.80810547 299.67285156 C14.0863916 299.87620117 13.36467773 300.07955078 12.62109375 300.2890625 C11.90961182 300.47629883 11.19812988 300.66353516 10.46508789 300.85644531 C9.77535889 301.02756836 9.08562988 301.19869141 8.375 301.375 C7.7245874 301.5306543 7.0741748 301.68630859 6.40405273 301.84667969 C5.78344971 301.98750977 5.16284668 302.12833984 4.5234375 302.2734375 C3.61815308 302.46292969 3.61815308 302.46292969 2.69458008 302.65625 C2.13536865 302.7696875 1.57615723 302.883125 1 303 C0.08347656 303.19335938 -0.83304688 303.38671875 -1.77734375 303.5859375 C-2.84082031 303.72257812 -3.90429688 303.85921875 -5 304 C-5.78568359 304.04108887 -6.57136719 304.08217773 -7.38085938 304.12451172 C-8.27482422 304.1504541 -9.16878906 304.17639648 -10.08984375 304.203125 C-11.03206787 304.21585449 -11.97429199 304.22858398 -12.94506836 304.24169922 C-13.9325708 304.24443848 -14.92007324 304.24717773 -15.9375 304.25 C-16.95787354 304.24887207 -17.97824707 304.24774414 -19.02954102 304.24658203 C-20.05104248 304.23481934 -21.07254395 304.22305664 -22.125 304.2109375 C-23.12789062 304.18483398 -24.13078125 304.15873047 -25.1640625 304.13183594 C-26.09992187 304.08833008 -27.03578125 304.04482422 -28 304 C-28.7940625 303.93329102 -29.588125 303.86658203 -30.40625 303.79785156 C-31.47359375 303.66975098 -31.47359375 303.66975098 -32.5625 303.5390625 C-33.2234668 303.437146 -33.88443359 303.33522949 -34.56542969 303.23022461 C-35.18321289 303.11300049 -35.80099609 302.99577637 -36.4375 302.875 C-37.3332373 302.68079468 -37.3332373 302.68079468 -38.24707031 302.48266602 C-38.81006836 302.33756592 -39.37306641 302.19246582 -39.953125 302.04296875 C-41.46132813 301.52669922 -41.46132813 301.52669922 -43 301 C-43.84046875 300.56300781 -44.6809375 300.12601562 -45.546875 299.67578125 C-46.25328125 299.18464844 -46.9596875 298.69351562 -47.6875 298.1875 C-48.28046875 297.65769531 -48.8734375 297.12789063 -49.484375 296.58203125 C-49.98453125 296.05996094 -50.4846875 295.53789062 -51 295 C-51.43828125 294.57074219 -51.8765625 294.14148438 -52.328125 293.69921875 C-52.69421875 293.26222656 -53.0603125 292.82523437 -53.4375 292.375 C-53.8387207 291.66609619 -53.8387207 291.66609619 -54.24804688 290.94287109 C-54.49619141 290.30172363 -54.74433594 289.66057617 -55 289 C-55.19577637 287.76044556 -55.19577637 287.76044556 -55.39550781 286.49584961 C-55.47639648 285.53686768 -55.55728516 284.57788574 -55.640625 283.58984375 C-55.71724365 282.52024414 -55.7938623 281.45064453 -55.87280273 280.34863281 C-55.93576538 278.69105957 -55.93576538 278.69105957 -56 277 C-55.97691772 275.44684082 -55.97691772 275.44684082 -55.95336914 273.86230469 C-55.90301514 272.82879883 -55.85266113 271.79529297 -55.80078125 270.73046875 C-55.72827148 269.66868408 -55.65576172 268.60689941 -55.58105469 267.51293945 C-55.49243164 266.41554443 -55.40380859 265.31814941 -55.3125 264.1875 C-55.24440125 263.32117447 -55.24440125 263.32117447 -55.17492676 262.43734741 C-55.12783569 261.8485379 -55.08074463 261.25972839 -55.03222656 260.65307617 C-54.98252716 260.06026352 -54.93282776 259.46745087 -54.88162231 258.85667419 C-54.82916351 258.26201859 -54.77670471 257.66736298 -54.72265625 257.0546875 C-54.66673309 256.46160294 -54.61080994 255.86851837 -54.55319214 255.25746155 C-54.49454987 254.6694426 -54.43590759 254.08142365 -54.37548828 253.47558594 C-54.25157715 252.32864258 -54.12766602 251.18169922 -54 250 C-53.86964355 248.93555664 -53.73928711 247.87111328 -53.60498047 246.77441406 C-53.46592285 245.75831055 -53.32686523 244.74220703 -53.18359375 243.6953125 C-53.03438477 242.71054932 -52.88517578 241.72578613 -52.73144531 240.71118164 C-52.57256836 239.7546167 -52.41369141 238.79805176 -52.25 237.8125 C-51.99814941 236.39988892 -51.99814941 236.39988892 -51.74121094 234.95874023 C-51.56235352 234.04552002 -51.38349609 233.1322998 -51.19921875 232.19140625 C-51.0089209 231.31371582 -50.81862305 230.43602539 -50.62255859 229.53173828 C-50.31439209 228.27852783 -50.31439209 228.27852783 -50 227 C-49.7726416 226.21995605 -49.5452832 225.43991211 -49.31103516 224.63623047 C-48.95017822 223.53045654 -48.95017822 223.53045654 -48.58203125 222.40234375 C-48.33388672 221.70109375 -48.08574219 220.99984375 -47.83007812 220.27734375 C-47.57677734 219.60832031 -47.32347656 218.93929687 -47.0625 218.25 C-46.80791016 217.60546875 -46.55332031 216.9609375 -46.29101562 216.296875 C-46.03642578 215.68199219 -45.78183594 215.06710938 -45.51953125 214.43359375 C-45.2663916 213.8494873 -45.01325195 213.26538086 -44.75244141 212.66357422 C-44.50413574 212.11459473 -44.25583008 211.56561523 -44 211 C-43.52949219 210.02160156 -43.05898438 209.04320312 -42.57421875 208.03515625 C-42.13722656 207.13667969 -41.70023438 206.23820313 -41.25 205.3125 C-40.87240036 204.49840164 -40.49480072 203.68430328 -40.10575867 202.84553528 C-39.74085831 201.90650864 -39.37595795 200.96748199 -39 200 C-38.70927361 198.63647652 -38.70927361 198.63647652 -38.41267395 197.2454071 C-38.2710936 196.25651993 -38.12951324 195.26763275 -37.98364258 194.2487793 C-37.90329427 193.69156787 -37.82294596 193.13435644 -37.74016285 192.56025982 C-37.65733397 191.97096093 -37.5745051 191.38166204 -37.48916626 190.77450562 C-37.40825871 190.16169613 -37.32735115 189.54888664 -37.24399185 188.91750717 C-37.16347454 188.2847298 -37.08295723 187.65195244 -37 187 C-36.91996609 186.3555405 -36.83993217 185.71108101 -36.75747299 185.04709244 C-36.67745167 184.38529858 -36.59743034 183.72350471 -36.51498413 183.04165649 C-36.43457351 182.35954448 -36.35416288 181.67743246 -36.27131557 180.97465038 C-36.19040204 180.27250062 -36.10948851 179.57035086 -36.02612305 178.84692383 C-35.94466821 178.12398038 -35.86321337 177.40103693 -35.7792902 176.6561861 C-35.65535468 175.54076828 -35.65535468 175.54076828 -35.52891541 174.40281677 C-35.44478834 173.63914732 -35.36066128 172.87547787 -35.27398491 172.08866692 C-35.18743708 171.30272715 -35.10088924 170.51678738 -35.01171875 169.70703125 C-34.92124834 168.89471102 -34.83077793 168.08239079 -34.73756599 167.24545479 C-34.64459173 166.41305716 -34.55161747 165.58065952 -34.45582581 164.72303772 C-34.36116563 163.8747556 -34.26650545 163.02647348 -34.16897678 162.15248585 C-34.07293124 161.29053954 -33.9768857 160.42859324 -33.87792969 159.54052734 C-33.78114142 158.66826098 -33.68435316 157.79599463 -33.58463192 156.89729595 C-33.4868926 156.01553094 -33.38915327 155.13376593 -33.28845215 154.22528076 C-33.18974319 153.33529137 -33.09103424 152.44530197 -32.98933411 151.5283432 C-32.88972885 150.63211494 -32.7901236 149.73588669 -32.6875 148.8125 C-32.58692795 147.91192116 -32.4863559 147.01134232 -32.38273621 146.08347321 C-32.28161026 145.18010979 -32.18048431 144.27674637 -32.07629395 143.3460083 C-31.97491182 142.44132561 -31.8735297 141.53664291 -31.76907539 140.60454559 C-31.66771215 139.70073402 -31.56634892 138.79692245 -31.46191406 137.86572266 C-31.36094862 136.96543587 -31.25998318 136.06514908 -31.15595818 135.13758087 C-31.05537668 134.24089439 -30.95479519 133.34420792 -30.85116577 132.42034912 C-30.751096 131.52848656 -30.65102623 130.63662399 -30.54792404 129.71773529 C-30.44832005 128.82990608 -30.34871605 127.94207687 -30.24609375 127.02734375 C-30.1466811 126.14060219 -30.04726845 125.25386063 -29.94484329 124.34024811 C-29.79723116 123.02330082 -29.79723116 123.02330082 -29.64663696 121.67974854 C-29.54990126 120.81674889 -29.45316555 119.95374924 -29.35349846 119.06459808 C-29.2585969 118.21811958 -29.16369534 117.37164108 -29.06591797 116.49951172 C-28.97290468 115.67029457 -28.8798914 114.84107742 -28.78405952 113.98673248 C-28.64885808 112.78175236 -28.64885808 112.78175236 -28.51092529 111.5524292 C-28.42418297 110.77952293 -28.33744064 110.00661667 -28.24806976 109.210289 C-28.16620674 108.48089363 -28.08434372 107.75149826 -28 107 C-27.92546852 106.33562172 -27.85093704 105.67124344 -27.77414703 104.98673248 C-27.70456535 104.36666069 -27.63498367 103.7465889 -27.56329346 103.10772705 C-27.497246 102.51969394 -27.43119854 101.93166082 -27.36314964 101.32580853 C-27.30019014 100.76599191 -27.23723064 100.20617529 -27.17236328 99.62939453 C-27.0529538 98.57067642 -26.93354431 97.51195831 -26.81051636 96.42115784 C-26.69902252 95.43783981 -26.58752869 94.45452179 -26.47265625 93.44140625 C-26.36543243 92.50284286 -26.25820862 91.56427948 -26.1477356 90.59727478 C-26.04516449 89.70673904 -25.94259338 88.81620331 -25.83691406 87.89868164 C-25.73882446 87.05516144 -25.64073486 86.21164124 -25.53967285 85.34255981 C-25.44408081 84.52826508 -25.34848877 83.71397034 -25.25 82.875 C-25.15456909 82.0680368 -25.05913818 81.26107361 -24.96081543 80.42965698 C-24.86643188 79.64132477 -24.77204834 78.85299255 -24.67480469 78.04077148 C-24.58159943 77.27506332 -24.48839417 76.50935516 -24.3923645 75.72044373 C-24.30026703 74.9773848 -24.20816956 74.23432587 -24.11328125 73.46875 C-24.02287567 72.7536879 -23.93247009 72.03862579 -23.83932495 71.30189514 C-23.7035051 70.25333595 -23.7035051 70.25333595 -23.56494141 69.18359375 C-23.47327698 68.49410645 -23.38161255 67.80461914 -23.28717041 67.09423828 C-23.14502106 66.05759033 -23.14502106 66.05759033 -23 65 C-22.89878845 64.28827637 -22.7975769 63.57655273 -22.69329834 62.84326172 C-22.58874329 62.12799316 -22.48418823 61.41272461 -22.37646484 60.67578125 C-22.27036392 59.96680191 -22.164263 59.25782257 -22.0549469 58.52735901 C-21.94786911 57.82739304 -21.84079132 57.12742706 -21.73046875 56.40625 C-21.62367294 55.72171249 -21.51687714 55.03717499 -21.40684509 54.33189392 C-21.30005936 53.66154617 -21.19327362 52.99119843 -21.08325195 52.30053711 C-20.97647125 51.64423309 -20.86969055 50.98792908 -20.75967407 50.31173706 C-20.60019791 49.35305222 -20.60019791 49.35305222 -20.4375 48.375 C-20.27935318 47.4476152 -20.27935318 47.4476152 -20.11801147 46.50149536 C-20.0135672 45.90231293 -19.90912292 45.30313049 -19.80151367 44.68579102 C-19.69830307 44.10522446 -19.59509247 43.5246579 -19.48875427 42.92649841 C-19.38676224 42.3642305 -19.2847702 41.80196259 -19.1796875 41.22265625 C-18.87949707 39.61608154 -18.87949707 39.61608154 -18.57324219 37.97705078 C-18.2894873 36.50341064 -18.2894873 36.50341064 -18 35 C-17.83145508 34.1322998 -17.66291016 33.26459961 -17.48925781 32.37060547 C-17.33038086 31.5870166 -17.17150391 30.80342773 -17.0078125 29.99609375 C-16.85143311 29.27687744 -16.69505371 28.55766113 -16.53393555 27.81665039 C-16.37836182 27.15528076 -16.22278809 26.49391113 -16.0625 25.8125 C-15.90499268 25.19818115 -15.74748535 24.5838623 -15.58520508 23.95092773 C-15.34000122 23.08963257 -15.34000122 23.08963257 -15.08984375 22.2109375 C-14.73019531 21.15132812 -14.37054688 20.09171875 -14 19 C-13.32130859 17.44152344 -13.32130859 17.44152344 -12.62890625 15.8515625 C-12.13261719 14.88992187 -11.63632812 13.92828125 -11.125 12.9375 C-10.36316406 11.65552734 -10.36316406 11.65552734 -9.5859375 10.34765625 C-9.06257813 9.57292969 -8.53921875 8.79820313 -8 8 C-7.18402344 6.91525391 -7.18402344 6.91525391 -6.3515625 5.80859375 C-5.82304688 5.17050781 -5.29453125 4.53242188 -4.75 3.875 C-4.03070313 3.06675781 -4.03070313 3.06675781 -3.296875 2.2421875 C-2.86890625 1.83226562 -2.4409375 1.42234375 -2 1 C-1.34 0.67 -0.68 0.34 0 0 Z M1 5 C0.49597656 5.33386719 -0.00804687 5.66773438 -0.52734375 6.01171875 C-0.99269531 6.56472656 -1.45804688 7.11773437 -1.9375 7.6875 C-2.70513672 8.67169922 -2.70513672 8.67169922 -3.48828125 9.67578125 C-3.98714844 10.44277344 -4.48601563 11.20976562 -5 12 C-5.67095703 13.25876953 -5.67095703 13.25876953 -6.35546875 14.54296875 C-6.77441406 15.47753906 -7.19335938 16.41210938 -7.625 17.375 C-8.22634766 18.92380859 -8.22634766 18.92380859 -8.83984375 20.50390625 C-9.12964111 21.34139404 -9.12964111 21.34139404 -9.42529297 22.19580078 C-9.61494629 22.79118652 -9.80459961 23.38657227 -10 24 C-10.18836426 24.6482373 -10.37672852 25.29647461 -10.57080078 25.96435547 C-10.75497559 26.6451416 -10.93915039 27.32592773 -11.12890625 28.02734375 C-11.30671631 28.72714355 -11.48452637 29.42694336 -11.66772461 30.14794922 C-11.83925049 30.86225098 -12.01077637 31.57655273 -12.1875 32.3125 C-12.3532251 33.03453613 -12.5189502 33.75657227 -12.68969727 34.50048828 C-12.92450806 35.58499268 -12.92450806 35.58499268 -13.1640625 36.69140625 C-13.31004883 37.41086426 -13.45603516 38.13032227 -13.60644531 38.87158203 C-13.73631836 39.57395996 -13.86619141 40.27633789 -14 41 C-14.1040918 41.66499512 -14.20818359 42.32999023 -14.31542969 43.01513672 C-14.40469727 43.65854004 -14.49396484 44.30194336 -14.5859375 44.96484375 C-14.66948486 45.60317139 -14.75303223 46.24149902 -14.83911133 46.89916992 C-14.91282959 47.50994385 -14.98654785 48.12071777 -15.0625 48.75 C-15.17722656 49.83796875 -15.29195312 50.9259375 -15.41015625 52.046875 C-15.48443848 52.64387207 -15.5587207 53.24086914 -15.63525391 53.85595703 C-15.75562012 54.56349121 -15.87598633 55.27102539 -16 56 C-16.22220215 56.92280762 -16.4444043 57.84561523 -16.67333984 58.79638672 C-16.93453613 59.84584473 -17.19573242 60.89530273 -17.46484375 61.9765625 C-17.59919327 62.53030548 -17.73354279 63.08404846 -17.8719635 63.65457153 C-18.00372482 64.22618011 -18.13548615 64.7977887 -18.27124023 65.38671875 C-18.46180496 66.27085449 -18.46180496 66.27085449 -18.65621948 67.17285156 C-18.82639084 68.07729004 -18.82639084 68.07729004 -19 69 C-19.12920334 69.91749023 -19.12920334 69.91749023 -19.26101685 70.85351562 C-19.33222748 71.47548828 -19.40343811 72.09746094 -19.47680664 72.73828125 C-19.54028793 73.37125626 -19.60376923 74.00423126 -19.66917419 74.65638733 C-19.72678421 75.29829514 -19.78439423 75.94020294 -19.84375 76.6015625 C-19.89986954 77.24987534 -19.95598907 77.89818817 -20.0138092 78.56614685 C-20.06806564 79.22292923 -20.12232208 79.87971161 -20.17822266 80.55639648 C-20.25692596 81.5537532 -20.25692596 81.5537532 -20.33721924 82.57125854 C-20.39093689 83.24899323 -20.44465454 83.92672791 -20.5 84.625 C-20.55903503 85.32521271 -20.61807007 86.02542542 -20.67889404 86.74685669 C-20.77089081 87.80814285 -20.77089081 87.80814285 -20.86474609 88.89086914 C-20.92683258 89.59471237 -20.98891907 90.2985556 -21.05288696 91.02372742 C-21.11535614 91.72101456 -21.17782532 92.4183017 -21.2421875 93.13671875 C-21.30377045 93.82445877 -21.36535339 94.51219879 -21.42880249 95.22077942 C-21.49064728 95.88832748 -21.55249207 96.55587555 -21.61621094 97.24365234 C-21.67885132 97.88526306 -21.7414917 98.52687378 -21.80603027 99.18792725 C-21.87004028 99.78591125 -21.93405029 100.38389526 -22 101 C-22.20157715 102.50941162 -22.20157715 102.50941162 -22.40722656 104.04931641 C-22.54354492 104.9263623 -22.67986328 105.8034082 -22.8203125 106.70703125 C-22.954375 107.51414551 -23.0884375 108.32125977 -23.2265625 109.15283203 C-23.35804687 109.90677246 -23.48953125 110.66071289 -23.625 111.4375 C-23.75390625 112.1785498 -23.8828125 112.91959961 -24.015625 113.68310547 C-24.13679688 114.39998535 -24.25796875 115.11686523 -24.3828125 115.85546875 C-24.49399414 116.54560059 -24.60517578 117.23573242 -24.71972656 117.94677734 C-24.8122168 118.62434082 -24.90470703 119.3019043 -25 120 C-25.05897461 120.67885254 -25.11794922 121.35770508 -25.17871094 122.05712891 C-25.2202832 122.73565918 -25.26185547 123.41418945 -25.3046875 124.11328125 C-25.33925049 124.79438965 -25.37381348 125.47549805 -25.40942383 126.17724609 C-25.43931396 126.86125488 -25.4692041 127.54526367 -25.5 128.25 C-25.52924561 128.93143066 -25.55849121 129.61286133 -25.58862305 130.31494141 C-25.6225415 131.01409668 -25.65645996 131.71325195 -25.69140625 132.43359375 C-25.73281738 133.16046387 -25.77422852 133.88733398 -25.81689453 134.63623047 C-25.87731934 135.41627441 -25.93774414 136.19631836 -26 137 C-26.09780762 137.87672363 -26.19561523 138.75344727 -26.29638672 139.65673828 C-26.47258545 141.05061768 -26.47258545 141.05061768 -26.65234375 142.47265625 C-26.84207764 143.90581177 -26.84207764 143.90581177 -27.03564453 145.36791992 C-27.16825684 146.33963135 -27.30086914 147.31134277 -27.4375 148.3125 C-27.5701123 149.28098877 -27.70272461 150.24947754 -27.83935547 151.24731445 C-28.03682373 152.69883911 -28.03682373 152.69883911 -28.23828125 154.1796875 C-28.36799316 155.14487305 -28.49770508 156.11005859 -28.63134766 157.10449219 C-28.75300293 158.06000977 -28.8746582 159.01552734 -29 160 C-29.10489746 160.94004883 -29.20979492 161.88009766 -29.31787109 162.84863281 C-29.41277832 163.76741211 -29.50768555 164.68619141 -29.60546875 165.6328125 C-29.69449463 166.52701904 -29.78352051 167.42122559 -29.87524414 168.3425293 C-29.95766357 169.19886963 -30.04008301 170.05520996 -30.125 170.9375 C-30.20032959 171.73518799 -30.27565918 172.53287598 -30.35327148 173.35473633 C-30.46070679 174.492052 -30.46070679 174.492052 -30.5703125 175.65234375 C-30.64080811 176.37736084 -30.71130371 177.10237793 -30.78393555 177.84936523 C-30.89088745 178.91392944 -30.89088745 178.91392944 -31 180 C-31.07452393 180.730979 -31.14904785 181.46195801 -31.22583008 182.21508789 C-31.30470459 182.91754639 -31.3835791 183.62000488 -31.46484375 184.34375 C-31.5330835 184.96314453 -31.60132324 185.58253906 -31.67163086 186.22070312 C-31.77999268 186.80787109 -31.88835449 187.39503906 -32 188 C-32.23662354 188.61294922 -32.47324707 189.22589844 -32.71704102 189.85742188 C-33.07366821 190.70143555 -33.07366821 190.70143555 -33.4375 191.5625 C-33.7159375 192.7690625 -33.7159375 192.7690625 -34 194 C-33.236875 194.04125 -32.47375 194.0825 -31.6875 194.125 C-31.12160156 193.98320312 -30.55570313 193.84140625 -29.97265625 193.6953125 C-29.32167969 193.46585938 -28.67070312 193.23640625 -28 193 C-27.29746094 192.68804687 -26.59492188 192.37609375 -25.87109375 192.0546875 C-24.75927734 191.53261719 -24.75927734 191.53261719 -23.625 191 C-22.93664063 190.649375 -22.24828125 190.29875 -21.5390625 189.9375 C-20.70117188 189.628125 -19.86328125 189.31875 -19 189 C-18.11828125 188.83443604 -18.11828125 188.83443604 -17.21875 188.66552734 C-16.56132813 188.5773877 -15.90390625 188.48924805 -15.2265625 188.3984375 C-14.18991455 188.28967285 -14.18991455 188.28967285 -13.13232422 188.17871094 C-12.42865723 188.11973633 -11.72499023 188.06076172 -11 188 C-10.32598145 187.94875977 -9.65196289 187.89751953 -8.95751953 187.84472656 C-7.94987549 187.78623535 -7.94987549 187.78623535 -6.921875 187.7265625 C-6.24181396 187.70360107 -5.56175293 187.68063965 -4.86108398 187.65698242 C-3.81609741 187.64115112 -3.81609741 187.64115112 -2.75 187.625 C-1.64410522 187.61786987 -1.64410522 187.61786987 -0.51586914 187.6105957 C0.22542236 187.62437256 0.96671387 187.63814941 1.73046875 187.65234375 C2.45540527 187.69085449 3.1803418 187.72936523 3.92724609 187.76904297 C4.61125488 187.84525879 5.29526367 187.92147461 6 188 C6.60021973 188.13680176 7.20043945 188.27360352 7.81884766 188.41455078 C8.64521729 188.67534424 8.64521729 188.67534424 9.48828125 188.94140625 C10.50277344 189.35261719 11.51726562 189.76382813 12.5625 190.1875 C13.96822266 190.86425781 13.96822266 190.86425781 15.40234375 191.5546875 C16.25957031 192.03164062 17.11679688 192.50859375 18 193 C18.80566406 193.47695312 19.61132812 193.95390625 20.44140625 194.4453125 C21.16199219 194.89648438 21.88257813 195.34765625 22.625 195.8125 C23.23601562 196.23144531 23.84703125 196.65039062 24.4765625 197.08203125 C24.97929688 197.38496094 25.48203125 197.68789062 26 198 C26.66 198 27.32 198 28 198 C28.02481445 197.42258057 28.04962891 196.84516113 28.07519531 196.25024414 C27.99366211 195.43676514 27.91212891 194.62328613 27.828125 193.78515625 C27.74046875 192.86927734 27.6528125 191.95339844 27.5625 191.00976562 C27.4078125 189.55086914 27.4078125 189.55086914 27.25 188.0625 C27.16234375 187.15564453 27.0746875 186.24878906 26.984375 185.31445312 C26.8915625 184.37666016 26.79875 183.43886719 26.703125 182.47265625 C26.59742188 181.43898926 26.49171875 180.40532227 26.3828125 179.34033203 C26.25648437 178.23802246 26.13015625 177.13571289 26 176 C25.83242187 174.87062012 25.66484375 173.74124023 25.4921875 172.57763672 C25.40350403 171.96536728 25.31482056 171.35309784 25.22344971 170.72227478 C25.13424255 170.07013504 25.0450354 169.4179953 24.953125 168.74609375 C24.86504578 168.05338882 24.77696655 167.3606839 24.68621826 166.64698792 C24.60252991 165.89135056 24.51884155 165.1357132 24.43261719 164.35717773 C24.35507202 163.52805878 24.27752686 162.69893982 24.19763184 161.84469604 C24.13241333 160.90594635 24.06719482 159.96719666 24 159 C23.93552673 157.33627853 23.93552673 157.33627853 23.86975098 155.63894653 C23.85340733 155.04180627 23.83706367 154.444666 23.82022476 153.82943058 C23.80639629 153.21033031 23.79256783 152.59123003 23.77832031 151.95336914 C23.7660931 151.31867675 23.75386589 150.68398436 23.74126816 150.03005886 C23.7253179 149.05485586 23.7253179 149.05485586 23.70904541 148.05995178 C23.69990364 147.39530474 23.69076187 146.73065769 23.68134308 146.04586983 C23.67306236 145.37073278 23.66478165 144.69559574 23.65625 144 C23.64802971 143.31915785 23.63980942 142.6383157 23.63134003 141.93684196 C23.62358803 141.24893641 23.61583603 140.56103085 23.60784912 139.85227966 C23.60072781 139.15730094 23.59360649 138.46232222 23.58626938 137.74628353 C23.57971455 137.0449709 23.57315971 136.34365828 23.56640625 135.62109375 C23.56048588 134.91321244 23.55456551 134.20533113 23.54846573 133.47599888 C23.54294567 132.76446124 23.53742561 132.0529236 23.53173828 131.31982422 C23.52644104 130.60654968 23.5211438 129.89327515 23.51568604 129.15838623 C23.51050964 128.44611877 23.50533325 127.73385132 23.5 127 C23.49482361 126.29288879 23.48964722 125.58577759 23.48431396 124.85723877 C23.47901672 124.15298767 23.47371948 123.44873657 23.46826172 122.72314453 C23.46273851 122.0207109 23.45721531 121.31827726 23.45152473 120.59455776 C23.44560751 119.89433026 23.43969028 119.19410276 23.43359375 118.47265625 C23.42380399 117.42540044 23.42380399 117.42540044 23.41381645 116.35698795 C23.40671717 115.66144526 23.39961788 114.96590258 23.39230347 114.24928284 C23.38455776 113.55702669 23.37681206 112.86477055 23.36883163 112.15153694 C23.3605547 111.46215475 23.35227776 110.77277256 23.34375 110.0625 C23.33526157 109.37495573 23.32677315 108.68741146 23.3180275 107.97903252 C23.30864025 107.2958552 23.29925301 106.61267788 23.2895813 105.90879822 C23.27874952 105.23191483 23.26791775 104.55503145 23.25675774 103.85763645 C23.23818561 102.85290743 23.23818561 102.85290743 23.21923828 101.82788086 C23.20528078 101.16591926 23.19132328 100.50395765 23.17694283 99.82193661 C23.1606275 99.16968892 23.14431217 98.51744123 23.12750244 97.84542847 C23.10844093 97.20406322 23.08937943 96.56269798 23.0697403 95.90189743 C23.046726 95.27427128 23.0237117 94.64664513 23 94 C22.97102379 93.39050129 22.94204758 92.78100258 22.9121933 92.15303421 C22.8628149 91.26083742 22.8628149 91.26083742 22.81243896 90.35061646 C22.73882141 89.19923187 22.66520386 88.04784729 22.58935547 86.86157227 C22.50900055 85.7586937 22.42864563 84.65581512 22.34585571 83.51951599 C22.2600827 82.46248978 22.17430969 81.40546356 22.0859375 80.31640625 C21.95304825 78.78591393 21.95304825 78.78591393 21.81747437 77.22450256 C21.72720978 76.25596848 21.63694519 75.28743439 21.54394531 74.28955078 C21.45278442 73.3792511 21.36162354 72.46895142 21.2677002 71.53106689 C21.17935913 70.69581482 21.09101807 69.86056274 21 69 C20.92003784 68.27045105 20.84007568 67.5409021 20.75769043 66.78924561 C20.68135376 66.13031311 20.60501709 65.47138062 20.52636719 64.79248047 C20.45091675 64.18136917 20.37546631 63.57025787 20.29772949 62.94062805 C20.22268188 62.37111923 20.14763428 61.80161041 20.0703125 61.21484375 C19.91723633 60.15918213 19.76416016 59.10352051 19.60644531 58.01586914 C19.44756836 57.00000732 19.28869141 55.98414551 19.125 54.9375 C18.86348145 53.24451782 18.86348145 53.24451782 18.59667969 51.51733398 C18.41782227 50.39528564 18.23896484 49.2732373 18.0546875 48.1171875 C17.87647461 47.06112305 17.69826172 46.00505859 17.51464844 44.91699219 C17.34481445 43.95438477 17.17498047 42.99177734 17 42 C16.85336914 41.20239258 16.70673828 40.40478516 16.55566406 39.58300781 C16.41612305 38.87756836 16.27658203 38.17212891 16.1328125 37.4453125 C15.98956543 36.78547363 15.84631836 36.12563477 15.69873047 35.44580078 C15.55064941 34.82431152 15.40256836 34.20282227 15.25 33.5625 C15.09547363 32.96550293 14.94094727 32.36850586 14.78173828 31.75341797 C14.52626221 30.85453857 14.52626221 30.85453857 14.265625 29.9375 C14.07548828 29.32390625 13.88535156 28.7103125 13.68945312 28.078125 C13.46193359 27.39234375 13.23441406 26.7065625 13 26 C12.70544922 25.14664062 12.41089844 24.29328125 12.10742188 23.4140625 C11.77806641 22.49367188 11.44871094 21.57328125 11.109375 20.625 C10.76358398 19.70259521 10.41779297 18.78019043 10.06152344 17.82983398 C9.53606934 16.46000366 9.53606934 16.46000366 9 15.0625 C8.66774414 14.17828369 8.33548828 13.29406738 7.99316406 12.38305664 C7.66541992 11.56699951 7.33767578 10.75094238 7 9.91015625 C6.71125 9.17933838 6.4225 8.44852051 6.125 7.69555664 C5.75375 7.13602295 5.3825 6.57648926 5 6 C4.33025146 5.73348633 3.66050293 5.46697266 2.97045898 5.19238281 C1.99508179 5.09715332 1.99508179 5.09715332 1 5 Z M-10 191 C-11.0415625 191.165 -12.083125 191.33 -13.15625 191.5 C-14.65671875 191.8403125 -14.65671875 191.8403125 -16.1875 192.1875 C-17.16074219 192.46335938 -18.13398437 192.73921875 -19.13671875 193.0234375 C-20.08160156 193.34570312 -21.02648437 193.66796875 -22 194 C-23.40185547 194.54527344 -23.40185547 194.54527344 -24.83203125 195.1015625 C-26.15267578 195.70097656 -26.15267578 195.70097656 -27.5 196.3125 C-28.71236328 196.96798828 -28.71236328 196.96798828 -29.94921875 197.63671875 C-30.62597656 198.08660156 -31.30273438 198.53648437 -32 199 C-32.763125 199.86625 -33.52625 200.7325 -34.3125 201.625 C-34.58707031 202.1303125 -34.86164062 202.635625 -35.14453125 203.15625 C-35.42683594 203.7646875 -35.70914063 204.373125 -36 205 C-36.39574219 205.7940625 -36.79148437 206.588125 -37.19921875 207.40625 C-37.62847656 208.3034375 -38.05773438 209.200625 -38.5 210.125 C-38.91894531 211.07375 -39.33789062 212.0225 -39.76953125 213 C-40.17558594 213.99 -40.58164062 214.98 -41 216 C-41.37511719 217.010625 -41.75023437 218.02125 -42.13671875 219.0625 C-42.48347656 220.073125 -42.83023438 221.08375 -43.1875 222.125 C-43.64189453 223.49011719 -43.64189453 223.49011719 -44.10546875 224.8828125 C-44.40066406 225.91148437 -44.69585937 226.94015625 -45 228 C-45.1657251 228.65742188 -45.3314502 229.31484375 -45.50219727 229.9921875 C-45.67162842 230.71921875 -45.84105957 231.44625 -46.015625 232.1953125 C-46.18215576 232.96665527 -46.34868652 233.73799805 -46.52026367 234.53271484 C-46.67857666 235.34691895 -46.83688965 236.16112305 -47 237 C-47.13962158 237.84900879 -47.27924316 238.69801758 -47.4230957 239.57275391 C-47.55288818 240.45108887 -47.68268066 241.32942383 -47.81640625 242.234375 C-47.94039795 243.13164307 -48.06438965 244.02891113 -48.19213867 244.95336914 C-48.37546753 246.33770142 -48.37546753 246.33770142 -48.5625 247.75 C-48.69180908 248.7186499 -48.82111816 249.6872998 -48.9543457 250.68530273 C-49.080271 251.64895752 -49.20619629 252.6126123 -49.3359375 253.60546875 C-49.45291992 254.53665527 -49.56990234 255.4678418 -49.69042969 256.42724609 C-49.79258789 257.27625488 -49.89474609 258.12526367 -50 259 C-50.07637695 259.68271973 -50.15275391 260.36543945 -50.23144531 261.06884766 C-50.29170898 261.66101074 -50.35197266 262.25317383 -50.4140625 262.86328125 C-50.50429688 263.91902344 -50.59453125 264.97476563 -50.6875 266.0625 C-50.77837891 267.53589844 -50.77837891 267.53589844 -50.87109375 269.0390625 C-50.91363281 270.01617187 -50.95617188 270.99328125 -51 272 C-51.05285156 273.14210938 -51.10570312 274.28421875 -51.16015625 275.4609375 C-51.18980469 276.60820312 -51.21945313 277.75546875 -51.25 278.9375 C-51.23710938 280.00871094 -51.22421875 281.07992187 -51.2109375 282.18359375 C-51.14132813 283.11300781 -51.07171875 284.04242188 -51 285 C-50.84789062 285.65097656 -50.69578125 286.30195313 -50.5390625 286.97265625 C-50.31992187 287.47667969 -50.10078125 287.98070312 -49.875 288.5 C-48.946875 289.7375 -48.946875 289.7375 -48 291 C-47.58621094 291.45890625 -47.17242187 291.9178125 -46.74609375 292.390625 C-46.27300781 292.83921875 -45.79992187 293.2878125 -45.3125 293.75 C-44.54776367 294.31412598 -44.54776367 294.31412598 -43.76757812 294.88964844 C-43.18427734 295.25606445 -42.60097656 295.62248047 -42 296 C-40.40865234 296.556875 -40.40865234 296.556875 -38.78515625 297.125 C-38.08253662 297.28709961 -37.37991699 297.44919922 -36.65600586 297.61621094 C-35.34128296 297.80618652 -35.34128296 297.80618652 -34 298 C-32.84959229 298.06219727 -31.69918457 298.12439453 -30.51391602 298.18847656 C-29.87712418 298.20493225 -29.24033234 298.22138794 -28.58424377 298.23834229 C-27.58734779 298.25184723 -27.58734779 298.25184723 -26.5703125 298.265625 C-25.55124062 298.27067047 -25.55124062 298.27067047 -24.51158142 298.27581787 C-23.47137596 298.27463959 -23.47137596 298.27463959 -22.41015625 298.2734375 C-21.35272217 298.26715332 -21.35272217 298.26715332 -20.27392578 298.26074219 C-19.56478027 298.25719727 -18.85563477 298.25365234 -18.125 298.25 C-17.41939941 298.25354492 -16.71379883 298.25708984 -15.98681641 298.26074219 C-15.2860498 298.26493164 -14.5852832 298.26912109 -13.86328125 298.2734375 C-13.17079285 298.27422302 -12.47830444 298.27500854 -11.76483154 298.27581787 C-11.08189026 298.27245422 -10.39894897 298.26909058 -9.6953125 298.265625 C-8.68226044 298.25212006 -8.68226044 298.25212006 -7.64874268 298.23834229 C-6.99412048 298.2218866 -6.33949829 298.20543091 -5.66503906 298.18847656 C-5.03811157 298.16370239 -4.41118408 298.13892822 -3.76525879 298.11340332 C-3.18272339 298.07598022 -2.60018799 298.03855713 -2 298 C-1.02514648 297.87334961 -0.05029297 297.74669922 0.95410156 297.61621094 C1.79682617 297.45411133 2.63955078 297.29201172 3.5078125 297.125 C4.27754395 296.94356445 5.04727539 296.76212891 5.84033203 296.57519531 C6.55302246 296.38538086 7.26571289 296.19556641 8 296 C8.69335449 295.82307617 9.38670898 295.64615234 10.10107422 295.46386719 C10.76896973 295.28500977 11.43686523 295.10615234 12.125 294.921875 C13.0830957 294.64005371 13.0830957 294.64005371 14.06054688 294.35253906 C14.70056641 294.15370117 15.34058594 293.95486328 16 293.75 C17.02963867 293.42467285 17.02963867 293.42467285 18.08007812 293.09277344 C18.76521484 292.8662207 19.45035156 292.63966797 20.15625 292.40625 C20.81496094 292.17421875 21.47367187 291.9421875 22.15234375 291.703125 C22.76207031 291.47109375 23.37179688 291.2390625 24 291 C24.9796875 290.5565625 25.959375 290.113125 26.96875 289.65625 C28.22171875 288.96015625 28.22171875 288.96015625 29.5 288.25 C30.26441406 287.74597656 31.02882813 287.24195313 31.81640625 286.72265625 C32.53699219 286.15417969 33.25757812 285.58570313 34 285 C34.75152344 284.31808594 35.50304687 283.63617188 36.27734375 282.93359375 C36.99019531 282.19238281 37.70304687 281.45117188 38.4375 280.6875 C39.05496094 280.01074219 39.67242187 279.33398438 40.30859375 278.63671875 C40.86675781 277.76660156 41.42492187 276.89648438 42 276 C42.28842773 275.38366699 42.57685547 274.76733398 42.87402344 274.13232422 C43.14633789 273.41963379 43.41865234 272.70694336 43.69921875 271.97265625 C44.06140503 270.79956909 44.06140503 270.79956909 44.4309082 269.6027832 C44.6187085 268.74386475 44.80650879 267.88494629 45 267 C45.0930542 266.05664795 45.1861084 265.1132959 45.28198242 264.14135742 C45.3204126 263.14080322 45.35884277 262.14024902 45.3984375 261.109375 C45.40488281 260.07675537 45.41132812 259.04413574 45.41796875 257.98022461 C45.40378906 256.91425049 45.38960938 255.84827637 45.375 254.75 C45.36339844 253.63826416 45.35179688 252.52652832 45.33984375 251.38110352 C45.31792969 250.28209717 45.29601562 249.18309082 45.2734375 248.05078125 C45.23444336 246.99584473 45.19544922 245.9409082 45.15527344 244.85400391 C45.07841309 243.44127197 45.07841309 243.44127197 45 242 C44.94102539 241.28634277 44.88205078 240.57268555 44.82128906 239.83740234 C44.7487793 239.24523926 44.67626953 238.65307617 44.6015625 238.04296875 C44.30378906 236.50576172 44.30378906 236.50576172 44 234.9375 C43.72800781 233.98230469 43.45601563 233.02710938 43.17578125 232.04296875 C42.78777344 231.03878906 42.39976563 230.03460938 42 229 C41.72591309 228.36271973 41.45182617 227.72543945 41.16943359 227.06884766 C40.8595752 226.38226074 40.5497168 225.69567383 40.23046875 224.98828125 C39.90103271 224.29017334 39.57159668 223.59206543 39.23217773 222.87280273 C38.71506226 221.82201538 38.71506226 221.82201538 38.1875 220.75 C37.65781616 219.72531616 37.65781616 219.72531616 37.11743164 218.67993164 C36.5875061 217.68981079 36.5875061 217.68981079 36.046875 216.6796875 C35.52383789 215.72980957 35.52383789 215.72980957 34.99023438 214.76074219 C34.66345703 214.17969727 34.33667969 213.59865234 34 213 C33.20335938 211.61167969 33.20335938 211.61167969 32.390625 210.1953125 C31.91109375 209.42960937 31.4315625 208.66390625 30.9375 207.875 C30.45539063 207.19695312 29.97328125 206.51890625 29.4765625 205.8203125 C28.98929687 205.21960938 28.50203125 204.61890625 28 204 C27.49210937 203.44054687 26.98421875 202.88109375 26.4609375 202.3046875 C25.91695313 201.79164063 25.37296875 201.27859375 24.8125 200.75 C24.23113281 200.2859375 23.64976563 199.821875 23.05078125 199.34375 C22.03564453 198.67859375 22.03564453 198.67859375 21 198 C20.12730469 197.5359375 19.25460938 197.071875 18.35546875 196.59375 C16.94201172 195.92859375 16.94201172 195.92859375 15.5 195.25 C14.54867187 194.84910156 13.59734375 194.44820312 12.6171875 194.03515625 C11.32167969 193.52275391 11.32167969 193.52275391 10 193 C9.40445313 192.75121094 8.80890625 192.50242188 8.1953125 192.24609375 C7.41800781 191.96958984 7.41800781 191.96958984 6.625 191.6875 C6.08488281 191.5534375 5.54476562 191.419375 4.98828125 191.28125 C4.33214844 191.1884375 3.67601562 191.095625 3 191 C2.04480469 190.9278125 1.08960938 190.855625 0.10546875 190.78125 C-0.98121094 190.7503125 -2.06789062 190.719375 -3.1875 190.6875 C-4.3115625 190.708125 -5.435625 190.72875 -6.59375 190.75 C-8.27984375 190.87375 -8.27984375 190.87375 -10 191 Z " transform="translate(58,5)" style="fill: #40383F;"/></svg>