<?xml version="1.0" encoding="UTF-8"?>
<!-- Generator: visioncortex VTracer -->
<svg id="svg" version="1.1" xmlns="http://www.w3.org/2000/svg" style="display: block;" viewBox="0 0 129 361"><path d="M0 0 C0.70898438 -0.00644531 1.41796875 -0.01289063 2.1484375 -0.01953125 C2.88320312 0.04878906 3.61796875 0.11710938 4.375 0.1875 C5.16132812 0.290625 5.94765625 0.39375 6.7578125 0.5 C7.49773437 0.665 8.23765625 0.83 9 1 C9.57492188 1.2475 10.14984375 1.495 10.7421875 1.75 C11.23976563 2.059375 11.73734375 2.36875 12.25 2.6875 C12.71535156 3.0484375 13.18070312 3.409375 13.66015625 3.78125 C14.10230469 4.1834375 14.54445313 4.585625 15 5 C15.45246094 5.4228125 15.90492187 5.845625 16.37109375 6.28125 C17.02271484 6.97734375 17.02271484 6.97734375 17.6875 7.6875 C18.06487305 8.17992187 18.44224609 8.67234375 18.83105469 9.1796875 C19.21680664 9.78039063 19.60255859 10.38109375 20 11 C20.2678833 11.63099609 20.5357666 12.26199219 20.81176758 12.91210938 C21.04532959 13.61142578 21.2788916 14.31074219 21.51953125 15.03125 C21.77323486 15.83071045 22.02693848 16.6301709 22.28833008 17.45385742 C22.64060669 18.714198 22.64060669 18.714198 23 20 C23.27976685 21.21683472 23.27976685 21.21683472 23.56518555 22.45825195 C23.72929932 23.30347412 23.89341309 24.14869629 24.0625 25.01953125 C24.2179126 25.93524902 24.3733252 26.8509668 24.53344727 27.79443359 C24.76439087 29.28837646 24.76439087 29.28837646 25 30.8125 C25.16878662 31.91158691 25.33757324 33.01067383 25.51147461 34.14306641 C25.63952232 35.0241507 25.63952232 35.0241507 25.77015686 35.92303467 C25.85502853 36.53495667 25.93990021 37.14687866 26.02734375 37.77734375 C26.11064438 38.41134094 26.19394501 39.04533813 26.2797699 39.69854736 C26.36130814 40.35989685 26.44284637 41.02124634 26.52685547 41.70263672 C26.6065155 42.39363464 26.68617554 43.08463257 26.76824951 43.79656982 C26.84472717 44.52370178 26.92120483 45.25083374 27 46 C27.07132141 46.77482727 27.14264282 47.54965454 27.21612549 48.34796143 C27.28418396 49.1575531 27.35224243 49.96714478 27.42236328 50.80126953 C27.48829178 51.63769989 27.55422028 52.47413025 27.62214661 53.33590698 C27.68625229 54.19572174 27.75035797 55.0555365 27.81640625 55.94140625 C27.91081245 57.25686935 27.91081245 57.25686935 28.00712585 58.59890747 C28.0999157 59.94068558 28.0999157 59.94068558 28.19458008 61.30957031 C28.25545807 62.22065552 28.31633606 63.13174072 28.37905884 64.07043457 C28.46986221 65.45869446 28.46986221 65.45869446 28.5625 66.875 C28.62359955 67.81355835 28.6846991 68.7521167 28.74765015 69.71911621 C28.8086087 70.6674231 28.86956726 71.61572998 28.93237305 72.59277344 C28.99277267 73.54741486 29.0531723 74.50205627 29.11540222 75.48562622 C29.17528824 76.44556488 29.23517426 77.40550354 29.296875 78.39453125 C29.3859185 79.84277786 29.3859185 79.84277786 29.47676086 81.32028198 C29.56464119 82.76590012 29.56464119 82.76590012 29.65429688 84.24072266 C29.74094604 85.67789642 29.74094604 85.67789642 29.8293457 87.144104 C29.88566162 88.08654968 29.94197754 89.02899536 30 90 C30.08060669 91.36532867 30.08060669 91.36532867 30.1628418 92.75823975 C30.24175659 94.09873383 30.24175659 94.09873383 30.32226562 95.46630859 C30.37465393 96.35251389 30.42704224 97.23871918 30.48101807 98.15177917 C30.5600235 99.47463676 30.5600235 99.47463676 30.640625 100.82421875 C30.69442322 101.70858109 30.74822144 102.59294342 30.8036499 103.50410461 C30.8584552 104.38922226 30.9132605 105.2743399 30.96972656 106.1862793 C31.05365662 107.51506607 31.05365662 107.51506607 31.13928223 108.87069702 C31.19644409 109.758992 31.25360596 110.64728699 31.3125 111.5625 C31.37062866 112.45409821 31.42875732 113.34569641 31.48864746 114.26431274 C31.54879028 115.16169159 31.60893311 116.05907043 31.67089844 116.98364258 C31.76549347 118.34251335 31.76549347 118.34251335 31.86199951 119.72883606 C31.92816467 120.64332016 31.99432983 121.55780426 32.0625 122.5 C32.16634003 123.88217964 32.16634003 123.88217964 32.27227783 125.2922821 C32.34613708 126.22836807 32.41999634 127.16445404 32.49609375 128.12890625 C32.57537109 129.08313477 32.65464844 130.03736328 32.73632812 131.02050781 C32.82333984 132.00374023 32.91035156 132.98697266 33 134 C33.09861328 135.03092773 33.19722656 136.06185547 33.29882812 137.12402344 C33.40517578 138.18266602 33.51152344 139.24130859 33.62109375 140.33203125 C33.73284943 141.40618286 33.8446051 142.48033447 33.95974731 143.58703613 C34.0761557 144.67206421 34.19256409 145.75709229 34.3125 146.875 C34.43205048 147.96228394 34.55160095 149.04956787 34.67477417 150.1697998 C34.79740631 151.2590979 34.92003845 152.348396 35.04638672 153.47070312 C35.17188904 154.5605249 35.29739136 155.65034668 35.42669678 156.77319336 C35.55401184 157.85866455 35.6813269 158.94413574 35.8125 160.0625 C35.94029846 161.13830322 36.06809692 162.21410645 36.19976807 163.32250977 C36.32865417 164.38848389 36.45754028 165.45445801 36.59033203 166.55273438 C36.72051727 167.60738892 36.85070251 168.66204346 36.98483276 169.74865723 C37.11616608 170.79066284 37.24749939 171.83266846 37.3828125 172.90625 C37.58162521 174.45040588 37.58162521 174.45040588 37.78445435 176.02575684 C37.98444534 177.54247986 37.98444534 177.54247986 38.18847656 179.08984375 C38.32225708 180.07919922 38.4560376 181.06855469 38.59387207 182.08789062 C38.72789429 183.04888672 38.8619165 184.00988281 39 185 C39.13402222 185.92232422 39.26804443 186.84464844 39.40612793 187.79492188 C39.53990845 188.68630859 39.67368896 189.57769531 39.81152344 190.49609375 C39.94474503 191.36057632 40.07796661 192.2250589 40.21522522 193.11573792 C40.34787277 193.9541069 40.48052032 194.79247589 40.6171875 195.65625 C40.7494725 196.47137558 40.88175751 197.28650116 41.01805115 198.12632751 C41.14897659 198.91600418 41.27990204 199.70568085 41.41479492 200.51928711 C41.54389252 201.28240204 41.67299011 202.04551697 41.80599976 202.83175659 C41.93189484 203.56790192 42.05778992 204.30404724 42.1875 205.0625 C42.307836 205.77052765 42.428172 206.4785553 42.55215454 207.20803833 C42.72803604 208.22956497 42.72803604 208.22956497 42.9074707 209.27172852 C43.02305832 209.9260083 43.13864594 210.58028809 43.25773621 211.25439453 C43.37248795 211.8832959 43.48723969 212.51219727 43.60546875 213.16015625 C43.72098587 213.76641846 43.83650299 214.37268066 43.95552063 214.99731445 C44.12859993 215.86694824 44.12859993 215.86694824 44.30517578 216.75415039 C44.64911377 218.36084595 44.64911377 218.36084595 45 220 C45.22284668 220.92095459 45.44569336 221.84190918 45.67529297 222.79077148 C45.90748535 223.62294189 46.13967773 224.4551123 46.37890625 225.3125 C46.62874268 226.09439697 46.8785791 226.87629395 47.13598633 227.68188477 C47.42111084 228.44686279 47.70623535 229.21184082 48 230 C48.35022217 230.80171631 48.70044434 231.60343262 49.0612793 232.42944336 C49.44840088 233.24550049 49.83552246 234.06155762 50.234375 234.90234375 C50.64051025 235.72081787 51.04664551 236.53929199 51.46508789 237.38256836 C51.88910889 238.2256958 52.31312988 239.06882324 52.75 239.9375 C53.18884521 240.83412354 53.62769043 241.73074707 54.07983398 242.65454102 C54.52141846 243.57291748 54.96300293 244.49129395 55.41796875 245.4375 C55.85415527 246.35789063 56.2903418 247.27828125 56.73974609 248.2265625 C57.15562988 249.14179688 57.57151367 250.05703125 58 251 C58.37334473 251.8971875 58.74668945 252.794375 59.13134766 253.71875 C59.64834229 255.03359375 59.64834229 255.03359375 60.17578125 256.375 C60.49772461 257.22715088 60.81966797 258.07930176 61.15136719 258.95727539 C61.45204102 259.77574951 61.75271484 260.59422363 62.0625 261.4375 C62.34899414 262.21150146 62.63548828 262.98550293 62.93066406 263.78295898 C63.19202148 264.51329346 63.45337891 265.24362793 63.72265625 265.99609375 C63.9539624 266.68880371 64.18526855 267.38151367 64.42358398 268.09521484 C64.61380127 268.72379395 64.80401855 269.35237305 65 270 C65.21914062 270.99128906 65.43828125 271.98257812 65.6640625 273.00390625 C65.77492188 273.99261719 65.88578125 274.98132813 66 276 C66.04471436 276.63478271 66.08942871 277.26956543 66.13549805 277.92358398 C66.18637573 278.96687866 66.18637573 278.96687866 66.23828125 280.03125 C66.25624756 280.7523999 66.27421387 281.4735498 66.29272461 282.21655273 C66.29925049 282.97009033 66.30577637 283.72362793 66.3125 284.5 C66.3132251 285.29027588 66.3139502 286.08055176 66.31469727 286.89477539 C66.30108154 287.69391357 66.28746582 288.49305176 66.2734375 289.31640625 C66.22461426 290.50387451 66.22461426 290.50387451 66.17480469 291.71533203 C66.11711914 292.46927246 66.05943359 293.22321289 66 294 C65.9062207 294.66757324 65.81244141 295.33514648 65.71582031 296.02294922 C65.59561523 296.64314941 65.47541016 297.26334961 65.3515625 297.90234375 C65.20549561 298.50304687 65.05942871 299.10375 64.90893555 299.72265625 C64.75336182 300.28855469 64.59778809 300.85445313 64.4375 301.4375 C64.00244141 302.95150391 64.00244141 302.95150391 63.55859375 304.49609375 C63.34009766 305.03451904 63.12160156 305.57294434 62.89648438 306.12768555 C62.60064453 306.74554932 62.30480469 307.36341309 62 308 C61.60103516 308.77061768 61.20207031 309.54123535 60.79101562 310.33520508 C60.28119141 311.20943115 59.77136719 312.08365723 59.24609375 312.984375 C58.62710205 313.93111084 58.00811035 314.87784668 57.37036133 315.85327148 C57.0053653 316.35937958 56.64036926 316.86548767 56.26431274 317.38693237 C55.84708954 317.91924469 55.42986633 318.45155701 55 319 C54.50631927 319.56671417 54.01263855 320.13342834 53.5039978 320.71731567 C52.96086945 321.30697113 52.41774109 321.89662659 51.8581543 322.50415039 C50.99434395 323.41222191 50.99434395 323.41222191 50.11308289 324.33863831 C49.51115616 324.95520798 48.90922943 325.57177765 48.2890625 326.20703125 C47.67307693 326.82734726 47.05709137 327.44766327 46.42243958 328.08677673 C45.79319077 328.71233963 45.16394196 329.33790253 44.515625 329.98242188 C43.87560547 330.61204834 43.23558594 331.2416748 42.57617188 331.89038086 C41.93228516 332.52468018 41.28839844 333.15897949 40.625 333.8125 C39.9846582 334.45566162 39.34431641 335.09882324 38.68457031 335.76147461 C38.04874023 336.40157471 37.41291016 337.0416748 36.7578125 337.70117188 C36.12929886 338.32866333 35.50078522 338.95615479 34.85322571 339.60266113 C34.23392685 340.21460327 33.61462799 340.82654541 32.9765625 341.45703125 C32.06084724 342.34859924 32.06084724 342.34859924 31.12663269 343.25817871 C30.53465591 343.82266724 29.94267914 344.38715576 29.33276367 344.96875 C28.76496185 345.49654053 28.19716003 346.02433105 27.6121521 346.56811523 C27.08014191 347.04063721 26.54813171 347.51315918 26 348 C25.2835582 348.58092407 25.2835582 348.58092407 24.55264282 349.17358398 C24.11415009 349.50302002 23.67565735 349.83245605 23.22387695 350.171875 C22.437146 350.70941406 21.65041504 351.24695313 20.83984375 351.80078125 C20.18363037 352.21368408 19.52741699 352.62658691 18.85131836 353.05200195 C18.2403833 353.36484131 17.62944824 353.67768066 17 354 C15.93749023 354.39687012 15.93749023 354.39687012 14.85351562 354.80175781 C14.22123047 354.99092773 13.58894531 355.18009766 12.9375 355.375 C12.27878906 355.49746094 11.62007813 355.61992187 10.94140625 355.74609375 C9.98041016 355.87177734 9.98041016 355.87177734 9 356 C8.41089844 356.09410156 7.82179688 356.18820312 7.21484375 356.28515625 C6.60769531 356.33542969 6.00054687 356.38570313 5.375 356.4375 C4.72015625 356.41816406 4.0653125 356.39882813 3.390625 356.37890625 C2.60171875 356.25386719 1.8128125 356.12882812 1 356 C-0.61648437 355.54947266 -0.61648437 355.54947266 -2.265625 355.08984375 C-3.1467395 354.80427612 -3.1467395 354.80427612 -4.0456543 354.51293945 C-4.95118042 354.19715942 -4.95118042 354.19715942 -5.875 353.875 C-6.78536011 353.53698364 -6.78536011 353.53698364 -7.71411133 353.19213867 C-8.31505615 352.95599854 -8.91600098 352.7198584 -9.53515625 352.4765625 C-10.12441895 352.23196289 -10.71368164 351.98736328 -11.32080078 351.73535156 C-12.15200439 351.37135254 -12.15200439 351.37135254 -13 351 C-13.92683594 350.55398438 -14.85367188 350.10796875 -15.80859375 349.6484375 C-16.63488281 349.18695313 -17.46117187 348.72546875 -18.3125 348.25 C-19.10398438 347.73953125 -19.89546875 347.2290625 -20.7109375 346.703125 C-21.46632812 346.14109375 -22.22171875 345.5790625 -23 345 C-24.10214844 344.06414062 -24.10214844 344.06414062 -25.2265625 343.109375 C-25.95617188 342.41328125 -26.68578125 341.7171875 -27.4375 341 C-28.16839844 340.23300781 -28.89929688 339.46601563 -29.65234375 338.67578125 C-30.21864502 338.042771 -30.21864502 338.042771 -30.79638672 337.39697266 C-31.1935791 336.93597168 -31.59077148 336.4749707 -32 336 C-32.4345752 335.47841309 -32.86915039 334.95682617 -33.31689453 334.41943359 C-33.99727783 333.583396 -33.99727783 333.583396 -34.69140625 332.73046875 C-35.15272949 332.15353271 -35.61405273 331.57659668 -36.08935547 330.98217773 C-36.55486816 330.38993408 -37.02038086 329.79769043 -37.5 329.1875 C-37.96293457 328.58687744 -38.42586914 327.98625488 -38.90283203 327.36743164 C-39.59094971 326.4662561 -39.59094971 326.4662561 -40.29296875 325.546875 C-40.74591309 324.95068359 -41.19885742 324.35449219 -41.66552734 323.74023438 C-42.10590332 323.16595703 -42.5462793 322.59167969 -43 322 C-43.41846191 321.47470703 -43.83692383 320.94941406 -44.26806641 320.40820312 C-44.6707373 319.90740234 -45.0734082 319.40660156 -45.48828125 318.890625 C-45.87822266 318.39925049 -46.26816406 317.90787598 -46.66992188 317.40161133 C-47.23549805 316.67687622 -47.23549805 316.67687622 -47.8125 315.9375 C-48.17794922 315.45885498 -48.54339844 314.98020996 -48.91992188 314.48706055 C-49.27248047 314.005354 -49.62503906 313.52364746 -49.98828125 313.02734375 C-50.32682129 312.53991699 -50.66536133 312.05249023 -51.01416016 311.55029297 C-51.3394873 311.03869629 -51.66481445 310.52709961 -52 310 C-52.47058838 309.14946045 -52.47058838 309.14946045 -52.95068359 308.28173828 C-53.39855225 307.40171143 -53.39855225 307.40171143 -53.85546875 306.50390625 C-54.13608154 305.91939697 -54.41669434 305.3348877 -54.70581055 304.73266602 C-55.09893433 303.87499634 -55.09893433 303.87499634 -55.5 303 C-56.19609375 301.4221875 -56.19609375 301.4221875 -56.90625 299.8125 C-57.2671875 298.884375 -57.628125 297.95625 -58 297 C-58.18191895 296.38366699 -58.36383789 295.76733398 -58.55126953 295.13232422 C-58.69935059 294.42865723 -58.84743164 293.72499023 -59 293 C-59.06364746 292.22672363 -59.12729492 291.45344727 -59.19287109 290.65673828 C-59.21945801 289.80321777 -59.24604492 288.94969727 -59.2734375 288.0703125 C-59.29680176 287.11761475 -59.32016602 286.16491699 -59.34423828 285.18334961 C-59.35438965 284.17409424 -59.36454102 283.16483887 -59.375 282.125 C-59.37612793 281.08287354 -59.37725586 280.04074707 -59.37841797 278.96704102 C-59.36182129 277.92990967 -59.34522461 276.89277832 -59.328125 275.82421875 C-59.28880859 274.81278809 -59.24949219 273.80135742 -59.20898438 272.75927734 C-59.14001953 271.84871582 -59.07105469 270.9381543 -59 270 C-58.88978516 269.30986816 -58.77957031 268.61973633 -58.66601562 267.90869141 C-58.52357422 267.32651855 -58.38113281 266.7443457 -58.234375 266.14453125 C-57.86828125 265.08621094 -57.5021875 264.02789062 -57.125 262.9375 C-56.67898437 261.885625 -56.23296875 260.83375 -55.7734375 259.75 C-55.50499023 259.18023437 -55.23654297 258.61046875 -54.95996094 258.0234375 C-54.48478027 257.02183594 -54.48478027 257.02183594 -54 256 C-53.60329102 255.12859375 -53.20658203 254.2571875 -52.79785156 253.359375 C-52.36182617 252.39515625 -51.92580078 251.4309375 -51.4765625 250.4375 C-51.02909668 249.44886963 -50.58163086 248.46023926 -50.12060547 247.44165039 C-49.44215576 245.95459595 -49.44215576 245.95459595 -48.75 244.4375 C-48.30156738 243.48415771 -47.85313477 242.53081543 -47.39111328 241.54858398 C-46.96813965 240.64438721 -46.54516602 239.74019043 -46.109375 238.80859375 C-45.53654785 237.59901001 -45.53654785 237.59901001 -44.95214844 236.36499023 C-44.63793945 235.58454346 -44.32373047 234.80409668 -44 234 C-43.82553345 233.27270187 -43.65106689 232.54540375 -43.47131348 231.79606628 C-43.31578003 230.87336441 -43.16024658 229.95066254 -43 229 C-42.90877869 227.91258514 -42.81755737 226.82517029 -42.72357178 225.70480347 C-42.66926121 224.79552204 -42.66926121 224.79552204 -42.61385345 223.86787128 C-42.57853767 223.217797 -42.54322189 222.56772272 -42.50683594 221.89794922 C-42.46584023 221.19782054 -42.42484451 220.49769186 -42.38260651 219.77634716 C-42.33951103 219.03796769 -42.29641556 218.29958822 -42.25201416 217.53883362 C-42.20859138 216.76973726 -42.16516861 216.00064091 -42.12042999 215.2082386 C-42.07553185 214.41506674 -42.0306337 213.62189487 -41.984375 212.8046875 C-41.93720085 211.99790495 -41.8900267 211.1911224 -41.84142303 210.35989189 C-41.79270302 209.53556223 -41.743983 208.71123257 -41.69378662 207.86192322 C-41.61901659 206.59777069 -41.61901659 206.59777069 -41.54273605 205.30807972 C-41.49189487 204.44820296 -41.4410537 203.58832621 -41.38867188 202.70239258 C-41.31136778 201.38600941 -41.31136778 201.38600941 -41.23250198 200.04303265 C-41.18018795 199.15264199 -41.12787392 198.26225134 -41.07397461 197.34487915 C-41.02087128 196.44508457 -40.96776794 195.54528999 -40.91305542 194.61822891 C-40.85924713 193.71296337 -40.80543884 192.80769783 -40.75 191.875 C-40.69554718 190.96997616 -40.64109436 190.06495232 -40.58499146 189.13250351 C-40.52995453 188.22578022 -40.4749176 187.31905693 -40.41821289 186.38485718 C-40.36264725 185.47586827 -40.3070816 184.56687937 -40.24983215 183.63034534 C-40.19381332 182.72067855 -40.13779449 181.81101175 -40.08007812 180.8737793 C-40.02369675 179.9647243 -39.96731537 179.05566931 -39.90922546 178.11906719 C-39.85249161 177.21095193 -39.79575775 176.30283667 -39.73730469 175.36720276 C-39.68026367 174.46125429 -39.62322266 173.55530582 -39.56445312 172.62190437 C-39.4784082 171.2641203 -39.4784082 171.2641203 -39.390625 169.87890625 C-39.33285889 168.97085173 -39.27509277 168.0627972 -39.21557617 167.12722588 C-39.15764893 166.22418283 -39.09972168 165.32113979 -39.04003906 164.39073181 C-38.98214706 163.49883998 -38.92425507 162.60694815 -38.86460876 161.68802929 C-38.8068074 160.80887513 -38.74900604 159.92972097 -38.68945312 159.02392578 C-38.63177261 158.15855603 -38.5740921 157.29318628 -38.5146637 156.40159321 C-38.45737595 155.55776679 -38.4000882 154.71394037 -38.34106445 153.84454346 C-38.28431549 153.02636391 -38.22756653 152.20818436 -38.1690979 151.36521149 C-38.08539444 150.1944318 -38.08539444 150.1944318 -38 149 C-37.91871353 147.91514439 -37.91871353 147.91514439 -37.83578491 146.8083725 C-37.78258087 146.12369148 -37.72937683 145.43901047 -37.67456055 144.73358154 C-37.62197712 144.07640514 -37.56939369 143.41922874 -37.51521683 142.74213791 C-37.46314449 142.10906345 -37.41107216 141.475989 -37.35742188 140.82373047 C-37.30562145 140.20750446 -37.25382103 139.59127846 -37.2004509 138.95637894 C-37.12319212 138.05806414 -37.12319212 138.05806414 -37.04437256 137.14160156 C-36.99314995 136.55957977 -36.94192734 135.97755798 -36.88915253 135.37789917 C-36.83807594 134.80846588 -36.78699936 134.23903259 -36.734375 133.65234375 C-36.63223694 132.53794922 -36.53009888 131.42355469 -36.42486572 130.27539062 C-36.32300964 129.2007959 -36.22115356 128.12620117 -36.11621094 127.01904297 C-36.01465698 125.98374451 -35.91310303 124.94844604 -35.80847168 123.8817749 C-35.6557782 122.36248383 -35.6557782 122.36248383 -35.5 120.8125 C-35.39723755 119.80028381 -35.2944751 118.78806763 -35.18859863 117.74517822 C-35.08543335 116.7479071 -34.98226807 115.75063599 -34.87597656 114.72314453 C-34.77271057 113.74764648 -34.66944458 112.77214844 -34.56304932 111.76708984 C-34.45974304 110.81398926 -34.35643677 109.86088867 -34.25 108.87890625 C-34.14685486 107.95319824 -34.04370972 107.02749023 -33.93743896 106.07373047 C-33.83433411 105.16913086 -33.73122925 104.26453125 -33.625 103.33251953 C-33.521875 102.44542297 -33.41875 101.55832642 -33.3125 100.64434814 C-33.209375 99.77171326 -33.10625 98.89907837 -33 98 C-32.896875 97.13638855 -32.79375 96.2727771 -32.6875 95.38299561 C-32.584375 94.5319928 -32.48125 93.68098999 -32.375 92.80419922 C-32.27188004 91.96769836 -32.16876007 91.13119751 -32.06251526 90.26934814 C-31.95938522 89.44698669 -31.85625519 88.62462524 -31.75 87.77734375 C-31.64682968 86.96932312 -31.54365936 86.16130249 -31.43736267 85.32879639 C-31.33420242 84.53531799 -31.23104218 83.7418396 -31.12475586 82.92431641 C-30.97005325 81.75536835 -30.97005325 81.75536835 -30.81222534 80.56280518 C-30.70919098 79.79957947 -30.60615662 79.03635376 -30.5 78.25 C-30.39720734 77.5064325 -30.29441467 76.76286499 -30.18850708 75.99676514 C-30.08577484 75.2674176 -29.9830426 74.53807007 -29.87719727 73.78662109 C-29.7743895 73.06746521 -29.67158173 72.34830933 -29.56565857 71.60736084 C-29.4627803 70.89775208 -29.35990204 70.18814331 -29.25390625 69.45703125 C-29.1509877 68.75660706 -29.04806915 68.05618286 -28.94203186 67.33453369 C-28.83886154 66.6384198 -28.73569122 65.94230591 -28.62939453 65.22509766 C-28.52588684 64.53095764 -28.42237915 63.83681763 -28.31573486 63.12164307 C-28.21154236 62.42150085 -28.10734985 61.72135864 -28 61 C-27.89451843 60.28052185 -27.78903687 59.5610437 -27.68035889 58.81976318 C-27.57427307 58.09468567 -27.46818726 57.36960815 -27.35888672 56.62255859 C-27.25277069 55.90045197 -27.14665466 55.17834534 -27.037323 54.43435669 C-26.93090485 53.71738617 -26.82448669 53.00041565 -26.71484375 52.26171875 C-26.60753937 51.55401337 -26.50023499 50.84630798 -26.38967896 50.11715698 C-26.28299896 49.42139557 -26.17631897 48.72563416 -26.06640625 48.00878906 C-25.96086426 47.32659302 -25.85532227 46.64439697 -25.74658203 45.94152832 C-25.64458496 45.28019897 -25.54258789 44.61886963 -25.4375 43.9375 C-25.29634766 42.99360413 -25.29634766 42.99360413 -25.15234375 42.03063965 C-25.01505859 41.11973572 -25.01505859 41.11973572 -24.875 40.19042969 C-24.78233353 39.59892624 -24.68966705 39.00742279 -24.5941925 38.397995 C-24.49994492 37.82193008 -24.40569733 37.24586517 -24.30859375 36.65234375 C-24.01118286 34.9828064 -24.01118286 34.9828064 -23.70776367 33.27954102 C-23.47420166 32.19729248 -23.24063965 31.11504395 -23 30 C-22.68716064 28.89648193 -22.37432129 27.79296387 -22.05200195 26.65600586 C-21.53899536 25.07444702 -21.53899536 25.07444702 -21.015625 23.4609375 C-20.69754883 22.53458496 -20.37947266 21.60823242 -20.05175781 20.65380859 C-19.70467773 19.77805176 -19.35759766 18.90229492 -19 18 C-18.31997925 16.59113525 -18.31997925 16.59113525 -17.6262207 15.15380859 C-17.19269287 14.33992676 -16.75916504 13.52604492 -16.3125 12.6875 C-15.80589844 11.88828125 -15.29929688 11.0890625 -14.77734375 10.265625 C-14.19082031 9.51796875 -13.60429688 8.7703125 -13 8 C-12.25878906 7.29359375 -11.51757812 6.5871875 -10.75390625 5.859375 C-9.96886719 5.22515625 -9.18382812 4.5909375 -8.375 3.9375 C-7.27285156 3.11572266 -7.27285156 3.11572266 -6.1484375 2.27734375 C-5.43945312 1.85582031 -4.73046875 1.43429687 -4 1 C-3.34 0.77054687 -2.68 0.54109375 -2 0.3046875 C-1.34 0.20414062 -0.68 0.10359375 0 0 Z " transform="translate(62,1)" style="fill: #DBA6D8;"/><path d="M0 0 C0.73734375 -0.10183594 1.4746875 -0.20367188 2.234375 -0.30859375 C3.06453125 -0.35113281 3.8946875 -0.39367187 4.75 -0.4375 C5.63300781 -0.42460938 6.51601562 -0.41171875 7.42578125 -0.3984375 C8.27527344 -0.26695312 9.12476563 -0.13546875 10 0 C10.69480469 0.33773438 11.38960937 0.67546875 12.10546875 1.0234375 C12.71003906 1.49007813 13.31460938 1.95671875 13.9375 2.4375 C14.70271973 3.23232788 14.70271973 3.23232788 15.48339844 4.04321289 C15.98387695 4.68895264 16.48435547 5.33469238 17 6 C17.297854 6.67168213 17.59570801 7.34336426 17.90258789 8.03540039 C18.13196045 8.75719482 18.36133301 9.47898926 18.59765625 10.22265625 C18.84459229 11.01808838 19.09152832 11.81352051 19.34594727 12.63305664 C19.56178467 13.41414795 19.77762207 14.19523926 20 15 C20.15460693 15.65282959 20.30921387 16.30565918 20.46850586 16.97827148 C20.59233643 17.60419189 20.71616699 18.2301123 20.84375 18.875 C20.95404541 19.53105225 21.06434082 20.18710449 21.17797852 20.86303711 C21.28424561 21.56823486 21.3905127 22.27343262 21.5 23 C21.62109131 23.79865479 21.74218262 24.59730957 21.86694336 25.42016602 C21.99206299 26.29342529 22.11718262 27.16668457 22.24609375 28.06640625 C22.36968262 29.00500488 22.49327148 29.94360352 22.62060547 30.91064453 C22.74580566 31.93013184 22.87100586 32.94961914 23 34 C23.12906738 35.11874512 23.25813477 36.23749023 23.39111328 37.39013672 C23.45614044 37.98062302 23.5211676 38.57110931 23.58816528 39.17948914 C23.6531723 39.78928116 23.71817932 40.39907318 23.78515625 41.02734375 C23.88206253 41.96940422 23.88206253 41.96940422 23.98092651 42.93049622 C24.04522858 43.57564682 24.10953064 44.22079742 24.17578125 44.88549805 C24.23975098 45.54722015 24.3037207 46.20894226 24.36962891 46.89071655 C24.43327637 47.56615509 24.49692383 48.24159363 24.5625 48.9375 C24.62598633 49.62204254 24.68947266 50.30658508 24.75488281 51.01187134 C24.84914551 52.05944107 24.84914551 52.05944107 24.9453125 53.12817383 C25.00709686 53.84366898 25.06888123 54.55916412 25.13253784 55.29634094 C25.19321442 56.02870468 25.25389099 56.76106842 25.31640625 57.515625 C25.37603546 58.26430344 25.43566467 59.01298187 25.49710083 59.78434753 C25.58385574 60.93813652 25.58385574 60.93813652 25.67236328 62.11523438 C25.72805481 62.90647705 25.78374634 63.69771973 25.84112549 64.51293945 C25.89355408 65.33366943 25.94598267 66.15439941 26 67 C26.04727234 67.86326904 26.09454468 68.72653809 26.14324951 69.6159668 C26.20938446 70.95171753 26.20938446 70.95171753 26.27685547 72.31445312 C26.31894638 73.22267319 26.36103729 74.13089325 26.40440369 75.06663513 C26.44497391 75.98823929 26.48554413 76.90984344 26.52734375 77.859375 C26.58729271 79.25054283 26.58729271 79.25054283 26.64845276 80.66981506 C26.68768356 81.60321213 26.72691437 82.53660919 26.76733398 83.49829102 C26.82520584 84.90511642 26.82520584 84.90511642 26.88424683 86.34036255 C26.94154465 87.74969559 26.94154465 87.74969559 27 89.1875 C27.05693527 90.59647049 27.05693527 90.59647049 27.11502075 92.03390503 C27.17228836 93.436259 27.17228836 93.436259 27.23071289 94.86694336 C27.26959122 95.7931398 27.30846954 96.71933624 27.348526 97.67359924 C27.38819992 98.58955368 27.42787384 99.50550812 27.46875 100.44921875 C27.50910873 101.35490097 27.54946747 102.26058319 27.59104919 103.19371033 C27.63319046 104.08030838 27.67533173 104.96690643 27.71875 105.88037109 C27.76322266 106.74305603 27.80769531 107.60574097 27.85351562 108.49456787 C27.90185547 109.32136047 27.95019531 110.14815308 28 111 C28.08217773 112.15704437 28.08217773 112.15704437 28.16601562 113.33746338 C28.22466797 114.07124207 28.28332031 114.80502075 28.34375 115.56103516 C28.4047287 116.26757233 28.4657074 116.9741095 28.52853394 117.70205688 C28.59130524 118.38432343 28.65407654 119.06658997 28.71875 119.76953125 C28.7822464 120.43431488 28.8457428 121.09909851 28.91116333 121.7840271 C28.97544525 122.43022003 29.03972717 123.07641296 29.10595703 123.7421875 C29.20339203 124.68360596 29.20339203 124.68360596 29.30279541 125.64404297 C29.40041168 126.5627417 29.40041168 126.5627417 29.5 127.5 C29.56459412 128.10134766 29.62918823 128.70269531 29.69573975 129.32226562 C29.75989075 129.91072266 29.82404175 130.49917969 29.89013672 131.10546875 C30.01662598 132.24242187 30.14311523 133.379375 30.2734375 134.55078125 C30.39686523 135.63311035 30.52029297 136.71543945 30.64746094 137.83056641 C30.76379883 138.87647949 30.88013672 139.92239258 31 141 C31.10344727 142.03688965 31.20689453 143.0737793 31.31347656 144.14208984 C31.40854492 145.14062988 31.50361328 146.13916992 31.6015625 147.16796875 C31.69115234 148.10898438 31.78074219 149.05 31.87304688 150.01953125 C31.99776367 151.34017578 31.99776367 151.34017578 32.125 152.6875 C32.20041016 153.5021875 32.27582031 154.316875 32.35351562 155.15625 C32.42505859 155.89230469 32.49660156 156.62835938 32.5703125 157.38671875 C32.62977051 158.01795654 32.68922852 158.64919434 32.75048828 159.29956055 C32.83282715 159.86070557 32.91516602 160.42185059 33 161 C33.33 161.99 33.66 162.98 34 164 C34.1021582 164.73879395 34.20431641 165.47758789 34.30957031 166.23876953 C34.44250488 167.5475708 34.44250488 167.5475708 34.578125 168.8828125 C34.68463379 169.8737793 34.79114258 170.86474609 34.90087891 171.88574219 C35.01608887 172.95469727 35.13129883 174.02365234 35.25 175.125 C35.3742334 176.22489258 35.4984668 177.32478516 35.62646484 178.45800781 C35.76262207 179.59334961 35.8987793 180.72869141 36.0390625 181.8984375 C36.1113205 182.47895874 36.18357849 183.05947998 36.25802612 183.65759277 C36.33433258 184.24335083 36.41063904 184.82910889 36.48925781 185.43261719 C36.61065125 186.31524231 36.61065125 186.31524231 36.73449707 187.21569824 C36.82211304 187.80451782 36.909729 188.3933374 37 189 C37.1468927 189.87936218 37.1468927 189.87936218 37.29675293 190.77648926 C37.40088501 191.35974976 37.50501709 191.94301025 37.61230469 192.54394531 C37.72010254 193.12340912 37.82790039 193.70287292 37.93896484 194.29989624 C38.04934082 194.87382111 38.1597168 195.44774597 38.2734375 196.0390625 C38.60746582 197.72684814 38.60746582 197.72684814 38.94824219 199.44873047 C39.17157227 200.53814941 39.39490234 201.62756836 39.625 202.75 C39.84317383 203.80203613 40.06134766 204.85407227 40.28613281 205.93798828 C40.49334961 206.9226709 40.70056641 207.90735352 40.9140625 208.921875 C41.0992041 209.78393555 41.2843457 210.64599609 41.47509766 211.53417969 C41.64831543 212.34790039 41.8215332 213.16162109 42 214 C42.23678467 214.93247559 42.47356934 215.86495117 42.7175293 216.82568359 C42.81074463 217.54320801 42.90395996 218.26073242 43 219 C41.81470703 218.93425781 41.81470703 218.93425781 40.60546875 218.8671875 C40.06083984 218.72023437 39.51621094 218.57328125 38.95507812 218.421875 C38.37177734 218.24140625 37.78847656 218.0609375 37.1875 217.875 C35.53814453 217.40707031 35.53814453 217.40707031 33.85546875 216.9296875 C33.24429199 216.76936035 32.63311523 216.6090332 32.00341797 216.44384766 C31.34229004 216.29737793 30.68116211 216.1509082 30 216 C28.92516357 215.83250244 28.92516357 215.83250244 27.82861328 215.66162109 C27.04599121 215.57219238 26.26336914 215.48276367 25.45703125 215.390625 C24.18339722 215.27920166 24.18339722 215.27920166 22.8840332 215.16552734 C21.93230225 215.11090332 20.98057129 215.0562793 20 215 C18.88133545 214.96986816 17.7626709 214.93973633 16.61010742 214.90869141 C16.01574387 214.90004059 15.42138031 214.89138977 14.80900574 214.88247681 C13.89807915 214.8749086 13.89807915 214.8749086 12.96875 214.8671875 C12.05607109 214.86457413 12.05607109 214.86457413 11.12495422 214.86190796 C10.51137558 214.86236115 9.89779694 214.86281433 9.265625 214.86328125 C8.64751953 214.86537598 8.02941406 214.8674707 7.39257812 214.86962891 C6.76802734 214.87140137 6.14347656 214.87317383 5.5 214.875 C4.86126953 214.87322754 4.22253906 214.87145508 3.56445312 214.86962891 C2.6121582 214.86648682 2.6121582 214.86648682 1.640625 214.86328125 C0.71546082 214.86377975 0.71546082 214.86377975 -0.22839355 214.86428833 C-0.82333618 214.86524506 -1.41827881 214.86620178 -2.03125 214.8671875 C-3.67963867 214.86887939 -3.67963867 214.86887939 -5.36132812 214.87060547 C-6.23208984 214.91330566 -7.10285156 214.95600586 -8 215 C-8.66 215.33 -9.32 215.66 -10 216 C-10.92167969 216.165 -11.84335937 216.33 -12.79296875 216.5 C-13.91316406 216.665 -15.03335938 216.83 -16.1875 217 C-16.77104248 217.08830078 -17.35458496 217.17660156 -17.95581055 217.26757812 C-18.53500244 217.35458984 -19.11419434 217.44160156 -19.7109375 217.53125 C-21.33902344 217.76328125 -21.33902344 217.76328125 -23 218 C-23.79664063 218.0928125 -24.59328125 218.185625 -25.4140625 218.28125 C-26.04054688 218.3534375 -26.66703125 218.425625 -27.3125 218.5 C-28.199375 218.665 -29.08625 218.83 -30 219 C-30 219.66 -30 220.32 -30 221 C-30.82250244 221.24347168 -31.64500488 221.48694336 -32.49243164 221.73779297 C-33.73367798 221.37258545 -33.73367798 221.37258545 -35 221 C-35.12639862 220.42864319 -35.25279724 219.85728638 -35.38302612 219.26861572 C-35.39383209 218.49177429 -35.40463806 217.71493286 -35.41577148 216.91455078 C-35.38173218 216.01656769 -35.34769287 215.11858459 -35.31262207 214.19338989 C-35.24941772 213.20402435 -35.18621338 212.21465881 -35.12109375 211.1953125 C-35.07505005 210.17734589 -35.02900635 209.15937927 -34.98156738 208.11056519 C-34.93149536 207.04927399 -34.88142334 205.98798279 -34.82983398 204.89453125 C-34.76609589 203.78803223 -34.70235779 202.6815332 -34.63668823 201.54150391 C-34.57095612 200.41405762 -34.505224 199.28661133 -34.4375 198.125 C-34.38054962 197.00109863 -34.32359924 195.87719727 -34.2649231 194.71923828 C-34.2098056 193.59630371 -34.15468811 192.47336914 -34.09790039 191.31640625 C-34.01313194 189.64043365 -34.01313194 189.64043365 -33.926651 187.93060303 C-33.83920876 186.26725922 -33.83920876 186.26725922 -33.75 184.5703125 C-33.68723373 183.46447815 -33.62446747 182.3586438 -33.55979919 181.21929932 C-33.49623734 180.14565125 -33.43267548 179.07200317 -33.3671875 177.96582031 C-33.3048291 176.94008911 -33.2424707 175.91435791 -33.17822266 174.85754395 C-33.11940918 173.91455444 -33.0605957 172.97156494 -33 172 C-32.92338135 170.79627747 -32.92338135 170.79627747 -32.84521484 169.5682373 C-32.7983252 168.85317017 -32.75143555 168.13810303 -32.703125 167.40136719 C-32.63604591 166.41343674 -32.63604591 166.41343674 -32.56761169 165.4055481 C-32.52467484 164.7947641 -32.48173798 164.1839801 -32.4375 163.5546875 C-32.3537915 162.4198291 -32.27008301 161.2849707 -32.18383789 160.11572266 C-32.06190063 158.57343994 -32.06190063 158.57343994 -31.9375 157 C-31.85298584 156.00403809 -31.76847168 155.00807617 -31.68139648 153.98193359 C-31.59962158 153.04430176 -31.51784668 152.10666992 -31.43359375 151.140625 C-31.35737793 150.27115234 -31.28116211 149.40167969 -31.20263672 148.50585938 C-31.1357666 147.67892578 -31.06889648 146.85199219 -31 146 C-30.9498877 145.18853516 -30.89977539 144.37707031 -30.84814453 143.54101562 C-30.8067334 142.75919922 -30.76532227 141.97738281 -30.72265625 141.171875 C-30.68479004 140.42599121 -30.64692383 139.68010742 -30.60791016 138.91162109 C-30.5722998 138.19828613 -30.53668945 137.48495117 -30.5 136.75 C-30.46438965 136.0688916 -30.4287793 135.3877832 -30.39208984 134.68603516 C-30.33529053 133.70836182 -30.33529053 133.70836182 -30.27734375 132.7109375 C-30.23593262 132.08413086 -30.19452148 131.45732422 -30.15185547 130.81152344 C-30.10174316 130.2137207 -30.05163086 129.61591797 -30 129 C-29.85691406 127.89914063 -29.71382812 126.79828125 -29.56640625 125.6640625 C-29.40011719 124.57867187 -29.23382812 123.49328125 -29.0625 122.375 C-28.8871875 121.25351563 -28.711875 120.13203125 -28.53125 118.9765625 C-28.44230469 118.36071289 -28.35335938 117.74486328 -28.26171875 117.11035156 C-28.17535156 116.41393555 -28.08898437 115.71751953 -28 115 C-27.92136719 114.15663086 -27.84273437 113.31326172 -27.76171875 112.44433594 C-27.68566406 111.52168945 -27.60960937 110.59904297 -27.53125 109.6484375 C-27.45438965 108.6881665 -27.3775293 107.72789551 -27.29833984 106.73852539 C-27.2205127 105.75231201 -27.14268555 104.76609863 -27.0625 103.75 C-26.98338379 102.76056396 -26.90426758 101.77112793 -26.82275391 100.75170898 C-26.73944824 99.76759033 -26.65614258 98.78347168 -26.5703125 97.76953125 C-26.48168945 96.79709473 -26.39306641 95.8246582 -26.30175781 94.82275391 C-26.20217773 93.89124512 -26.10259766 92.95973633 -26 92 C-25.87979492 91.15228027 -25.75958984 90.30456055 -25.63574219 89.43115234 C-25.50586914 88.63273926 -25.37599609 87.83432617 -25.2421875 87.01171875 C-25.10989746 86.2439209 -24.97760742 85.47612305 -24.84130859 84.68505859 C-24.70805176 83.94336426 -24.57479492 83.20166992 -24.4375 82.4375 C-24.30553223 81.70869629 -24.17356445 80.97989258 -24.03759766 80.22900391 C-23.91175293 79.52050293 -23.7859082 78.81200195 -23.65625 78.08203125 C-23.53894531 77.39705566 -23.42164063 76.71208008 -23.30078125 76.00634766 C-23.20152344 75.34425293 -23.10226563 74.6821582 -23 74 C-22.93425781 73.36239746 -22.86851563 72.72479492 -22.80078125 72.06787109 C-22.72923828 71.14288818 -22.72923828 71.14288818 -22.65625 70.19921875 C-22.61717529 69.60149658 -22.57810059 69.00377441 -22.5378418 68.38793945 C-22.504729 67.80616943 -22.47161621 67.22439941 -22.4375 66.625 C-22.33888672 64.93503906 -22.33888672 64.93503906 -22.23828125 63.2109375 C-22.15964844 62.15132812 -22.08101562 61.09171875 -22 60 C-21.86980469 59.04351562 -21.73960938 58.08703125 -21.60546875 57.1015625 C-21.44691406 56.16054688 -21.28835937 55.21953125 -21.125 54.25 C-20.86009766 52.7959375 -20.86009766 52.7959375 -20.58984375 51.3125 C-20.39519531 50.219375 -20.20054688 49.12625 -20 48 C-19.89961426 47.33484375 -19.79922852 46.6696875 -19.69580078 45.984375 C-19.59122559 45.26765625 -19.48665039 44.5509375 -19.37890625 43.8125 C-19.26804687 43.06895264 -19.1571875 42.32540527 -19.04296875 41.55932617 C-18.92566406 40.79724854 -18.80835937 40.0351709 -18.6875 39.25 C-18.56375 38.48598877 -18.44 37.72197754 -18.3125 36.93481445 C-18.17972656 36.1687085 -18.04695313 35.40260254 -17.91015625 34.61328125 C-17.69576904 33.46400146 -17.69576904 33.46400146 -17.47705078 32.29150391 C-17.31962402 31.53530762 -17.16219727 30.77911133 -17 30 C-16.82065918 29.26571777 -16.64131836 28.53143555 -16.45654297 27.77490234 C-16.26334473 27.05898926 -16.07014648 26.34307617 -15.87109375 25.60546875 C-15.6690332 24.9079248 -15.46697266 24.21038086 -15.25878906 23.49169922 C-15.04963867 22.81381348 -14.84048828 22.13592773 -14.625 21.4375 C-14.41198242 20.77766113 -14.19896484 20.11782227 -13.97949219 19.43798828 C-13.65513184 18.48835205 -13.65513184 18.48835205 -13.32421875 17.51953125 C-13.10556152 16.91834473 -12.8869043 16.3171582 -12.66162109 15.69775391 C-12.33411865 14.85736572 -12.33411865 14.85736572 -12 14 C-11.57332031 13.03449219 -11.14664063 12.06898437 -10.70703125 11.07421875 C-10.07861328 9.86185547 -10.07861328 9.86185547 -9.4375 8.625 C-9.06496094 7.95726562 -8.69242188 7.28953125 -8.30859375 6.6015625 C-7.66083984 5.80878906 -7.66083984 5.80878906 -7 5 C-5.93458984 4.45472656 -5.93458984 4.45472656 -4.84765625 3.8984375 C-3.93306641 3.45371094 -3.93306641 3.45371094 -3 3 C-3 2.34 -3 1.68 -3 1 C-2.01 0.67 -1.02 0.34 0 0 Z " transform="translate(60,7)" style="fill: #EDB2EC;"/><path d="M0 0 C0.70898438 -0.00644531 1.41796875 -0.01289063 2.1484375 -0.01953125 C2.88320312 0.04878906 3.61796875 0.11710938 4.375 0.1875 C5.16132812 0.290625 5.94765625 0.39375 6.7578125 0.5 C7.49773437 0.665 8.23765625 0.83 9 1 C9.57492188 1.2475 10.14984375 1.495 10.7421875 1.75 C11.23976563 2.059375 11.73734375 2.36875 12.25 2.6875 C12.71535156 3.0484375 13.18070312 3.409375 13.66015625 3.78125 C14.10230469 4.1834375 14.54445313 4.585625 15 5 C15.45246094 5.4228125 15.90492187 5.845625 16.37109375 6.28125 C17.02271484 6.97734375 17.02271484 6.97734375 17.6875 7.6875 C18.06487305 8.17992187 18.44224609 8.67234375 18.83105469 9.1796875 C19.21680664 9.78039063 19.60255859 10.38109375 20 11 C20.2678833 11.63099609 20.5357666 12.26199219 20.81176758 12.91210938 C21.04532959 13.61142578 21.2788916 14.31074219 21.51953125 15.03125 C21.77323486 15.83071045 22.02693848 16.6301709 22.28833008 17.45385742 C22.64060669 18.714198 22.64060669 18.714198 23 20 C23.27976685 21.21683472 23.27976685 21.21683472 23.56518555 22.45825195 C23.72929932 23.30347412 23.89341309 24.14869629 24.0625 25.01953125 C24.2179126 25.93524902 24.3733252 26.8509668 24.53344727 27.79443359 C24.76439087 29.28837646 24.76439087 29.28837646 25 30.8125 C25.16878662 31.91158691 25.33757324 33.01067383 25.51147461 34.14306641 C25.63952232 35.0241507 25.63952232 35.0241507 25.77015686 35.92303467 C25.85502853 36.53495667 25.93990021 37.14687866 26.02734375 37.77734375 C26.11064438 38.41134094 26.19394501 39.04533813 26.2797699 39.69854736 C26.36130814 40.35989685 26.44284637 41.02124634 26.52685547 41.70263672 C26.6065155 42.39363464 26.68617554 43.08463257 26.76824951 43.79656982 C26.84472717 44.52370178 26.92120483 45.25083374 27 46 C27.07132141 46.77482727 27.14264282 47.54965454 27.21612549 48.34796143 C27.28418396 49.1575531 27.35224243 49.96714478 27.42236328 50.80126953 C27.48829178 51.63769989 27.55422028 52.47413025 27.62214661 53.33590698 C27.68625229 54.19572174 27.75035797 55.0555365 27.81640625 55.94140625 C27.91081245 57.25686935 27.91081245 57.25686935 28.00712585 58.59890747 C28.0999157 59.94068558 28.0999157 59.94068558 28.19458008 61.30957031 C28.25545807 62.22065552 28.31633606 63.13174072 28.37905884 64.07043457 C28.46986221 65.45869446 28.46986221 65.45869446 28.5625 66.875 C28.62359955 67.81355835 28.6846991 68.7521167 28.74765015 69.71911621 C28.8086087 70.6674231 28.86956726 71.61572998 28.93237305 72.59277344 C28.99277267 73.54741486 29.0531723 74.50205627 29.11540222 75.48562622 C29.17528824 76.44556488 29.23517426 77.40550354 29.296875 78.39453125 C29.3859185 79.84277786 29.3859185 79.84277786 29.47676086 81.32028198 C29.56464119 82.76590012 29.56464119 82.76590012 29.65429688 84.24072266 C29.74094604 85.67789642 29.74094604 85.67789642 29.8293457 87.144104 C29.88566162 88.08654968 29.94197754 89.02899536 30 90 C30.08060669 91.36532867 30.08060669 91.36532867 30.1628418 92.75823975 C30.24175659 94.09873383 30.24175659 94.09873383 30.32226562 95.46630859 C30.37465393 96.35251389 30.42704224 97.23871918 30.48101807 98.15177917 C30.5600235 99.47463676 30.5600235 99.47463676 30.640625 100.82421875 C30.69442322 101.70858109 30.74822144 102.59294342 30.8036499 103.50410461 C30.8584552 104.38922226 30.9132605 105.2743399 30.96972656 106.1862793 C31.05365662 107.51506607 31.05365662 107.51506607 31.13928223 108.87069702 C31.19644409 109.758992 31.25360596 110.64728699 31.3125 111.5625 C31.37062866 112.45409821 31.42875732 113.34569641 31.48864746 114.26431274 C31.54879028 115.16169159 31.60893311 116.05907043 31.67089844 116.98364258 C31.76549347 118.34251335 31.76549347 118.34251335 31.86199951 119.72883606 C31.92816467 120.64332016 31.99432983 121.55780426 32.0625 122.5 C32.16634003 123.88217964 32.16634003 123.88217964 32.27227783 125.2922821 C32.34613708 126.22836807 32.41999634 127.16445404 32.49609375 128.12890625 C32.57537109 129.08313477 32.65464844 130.03736328 32.73632812 131.02050781 C32.82333984 132.00374023 32.91035156 132.98697266 33 134 C33.09861328 135.03092773 33.19722656 136.06185547 33.29882812 137.12402344 C33.40517578 138.18266602 33.51152344 139.24130859 33.62109375 140.33203125 C33.73284943 141.40618286 33.8446051 142.48033447 33.95974731 143.58703613 C34.0761557 144.67206421 34.19256409 145.75709229 34.3125 146.875 C34.43205048 147.96228394 34.55160095 149.04956787 34.67477417 150.1697998 C34.79740631 151.2590979 34.92003845 152.348396 35.04638672 153.47070312 C35.17188904 154.5605249 35.29739136 155.65034668 35.42669678 156.77319336 C35.55401184 157.85866455 35.6813269 158.94413574 35.8125 160.0625 C35.94029846 161.13830322 36.06809692 162.21410645 36.19976807 163.32250977 C36.32865417 164.38848389 36.45754028 165.45445801 36.59033203 166.55273438 C36.72051727 167.60738892 36.85070251 168.66204346 36.98483276 169.74865723 C37.11616608 170.79066284 37.24749939 171.83266846 37.3828125 172.90625 C37.58162521 174.45040588 37.58162521 174.45040588 37.78445435 176.02575684 C37.98444534 177.54247986 37.98444534 177.54247986 38.18847656 179.08984375 C38.32225708 180.07919922 38.4560376 181.06855469 38.59387207 182.08789062 C38.72789429 183.04888672 38.8619165 184.00988281 39 185 C39.13402222 185.92232422 39.26804443 186.84464844 39.40612793 187.79492188 C39.53990845 188.68630859 39.67368896 189.57769531 39.81152344 190.49609375 C39.94474503 191.36057632 40.07796661 192.2250589 40.21522522 193.11573792 C40.34787277 193.9541069 40.48052032 194.79247589 40.6171875 195.65625 C40.7494725 196.47137558 40.88175751 197.28650116 41.01805115 198.12632751 C41.14897659 198.91600418 41.27990204 199.70568085 41.41479492 200.51928711 C41.54389252 201.28240204 41.67299011 202.04551697 41.80599976 202.83175659 C41.93189484 203.56790192 42.05778992 204.30404724 42.1875 205.0625 C42.307836 205.77052765 42.428172 206.4785553 42.55215454 207.20803833 C42.72803604 208.22956497 42.72803604 208.22956497 42.9074707 209.27172852 C43.02305832 209.9260083 43.13864594 210.58028809 43.25773621 211.25439453 C43.37248795 211.8832959 43.48723969 212.51219727 43.60546875 213.16015625 C43.72098587 213.76641846 43.83650299 214.37268066 43.95552063 214.99731445 C44.12859993 215.86694824 44.12859993 215.86694824 44.30517578 216.75415039 C44.64911377 218.36084595 44.64911377 218.36084595 45 220 C45.22284668 220.92095459 45.44569336 221.84190918 45.67529297 222.79077148 C45.90748535 223.62294189 46.13967773 224.4551123 46.37890625 225.3125 C46.62874268 226.09439697 46.8785791 226.87629395 47.13598633 227.68188477 C47.42111084 228.44686279 47.70623535 229.21184082 48 230 C48.35022217 230.80171631 48.70044434 231.60343262 49.0612793 232.42944336 C49.44840088 233.24550049 49.83552246 234.06155762 50.234375 234.90234375 C50.64051025 235.72081787 51.04664551 236.53929199 51.46508789 237.38256836 C51.88910889 238.2256958 52.31312988 239.06882324 52.75 239.9375 C53.18884521 240.83412354 53.62769043 241.73074707 54.07983398 242.65454102 C54.52141846 243.57291748 54.96300293 244.49129395 55.41796875 245.4375 C55.85415527 246.35789063 56.2903418 247.27828125 56.73974609 248.2265625 C57.15562988 249.14179688 57.57151367 250.05703125 58 251 C58.37334473 251.8971875 58.74668945 252.794375 59.13134766 253.71875 C59.64834229 255.03359375 59.64834229 255.03359375 60.17578125 256.375 C60.49772461 257.22715088 60.81966797 258.07930176 61.15136719 258.95727539 C61.45204102 259.77574951 61.75271484 260.59422363 62.0625 261.4375 C62.34899414 262.21150146 62.63548828 262.98550293 62.93066406 263.78295898 C63.19202148 264.51329346 63.45337891 265.24362793 63.72265625 265.99609375 C63.9539624 266.68880371 64.18526855 267.38151367 64.42358398 268.09521484 C64.61380127 268.72379395 64.80401855 269.35237305 65 270 C65.21914062 270.99128906 65.43828125 271.98257812 65.6640625 273.00390625 C65.77492188 273.99261719 65.88578125 274.98132813 66 276 C66.04471436 276.63478271 66.08942871 277.26956543 66.13549805 277.92358398 C66.18637573 278.96687866 66.18637573 278.96687866 66.23828125 280.03125 C66.25624756 280.7523999 66.27421387 281.4735498 66.29272461 282.21655273 C66.29925049 282.97009033 66.30577637 283.72362793 66.3125 284.5 C66.3132251 285.29027588 66.3139502 286.08055176 66.31469727 286.89477539 C66.30108154 287.69391357 66.28746582 288.49305176 66.2734375 289.31640625 C66.22461426 290.50387451 66.22461426 290.50387451 66.17480469 291.71533203 C66.11711914 292.46927246 66.05943359 293.22321289 66 294 C65.9062207 294.66757324 65.81244141 295.33514648 65.71582031 296.02294922 C65.59561523 296.64314941 65.47541016 297.26334961 65.3515625 297.90234375 C65.20549561 298.50304687 65.05942871 299.10375 64.90893555 299.72265625 C64.75336182 300.28855469 64.59778809 300.85445313 64.4375 301.4375 C64.00244141 302.95150391 64.00244141 302.95150391 63.55859375 304.49609375 C63.34009766 305.03451904 63.12160156 305.57294434 62.89648438 306.12768555 C62.60064453 306.74554932 62.30480469 307.36341309 62 308 C61.60103516 308.77061768 61.20207031 309.54123535 60.79101562 310.33520508 C60.28119141 311.20943115 59.77136719 312.08365723 59.24609375 312.984375 C58.62710205 313.93111084 58.00811035 314.87784668 57.37036133 315.85327148 C57.0053653 316.35937958 56.64036926 316.86548767 56.26431274 317.38693237 C55.84708954 317.91924469 55.42986633 318.45155701 55 319 C54.50631927 319.56671417 54.01263855 320.13342834 53.5039978 320.71731567 C52.96086945 321.30697113 52.41774109 321.89662659 51.8581543 322.50415039 C50.99434395 323.41222191 50.99434395 323.41222191 50.11308289 324.33863831 C49.51115616 324.95520798 48.90922943 325.57177765 48.2890625 326.20703125 C47.67307693 326.82734726 47.05709137 327.44766327 46.42243958 328.08677673 C45.79319077 328.71233963 45.16394196 329.33790253 44.515625 329.98242188 C43.87560547 330.61204834 43.23558594 331.2416748 42.57617188 331.89038086 C41.93228516 332.52468018 41.28839844 333.15897949 40.625 333.8125 C39.9846582 334.45566162 39.34431641 335.09882324 38.68457031 335.76147461 C38.04874023 336.40157471 37.41291016 337.0416748 36.7578125 337.70117188 C36.12929886 338.32866333 35.50078522 338.95615479 34.85322571 339.60266113 C34.23392685 340.21460327 33.61462799 340.82654541 32.9765625 341.45703125 C32.06084724 342.34859924 32.06084724 342.34859924 31.12663269 343.25817871 C30.53465591 343.82266724 29.94267914 344.38715576 29.33276367 344.96875 C28.76496185 345.49654053 28.19716003 346.02433105 27.6121521 346.56811523 C27.08014191 347.04063721 26.54813171 347.51315918 26 348 C25.2835582 348.58092407 25.2835582 348.58092407 24.55264282 349.17358398 C24.11415009 349.50302002 23.67565735 349.83245605 23.22387695 350.171875 C22.437146 350.70941406 21.65041504 351.24695313 20.83984375 351.80078125 C20.18363037 352.21368408 19.52741699 352.62658691 18.85131836 353.05200195 C18.2403833 353.36484131 17.62944824 353.67768066 17 354 C15.93749023 354.39687012 15.93749023 354.39687012 14.85351562 354.80175781 C14.22123047 354.99092773 13.58894531 355.18009766 12.9375 355.375 C12.27878906 355.49746094 11.62007813 355.61992187 10.94140625 355.74609375 C9.98041016 355.87177734 9.98041016 355.87177734 9 356 C8.41089844 356.09410156 7.82179688 356.18820312 7.21484375 356.28515625 C6.60769531 356.33542969 6.00054687 356.38570313 5.375 356.4375 C4.72015625 356.41816406 4.0653125 356.39882813 3.390625 356.37890625 C2.60171875 356.25386719 1.8128125 356.12882812 1 356 C-0.61648437 355.54947266 -0.61648437 355.54947266 -2.265625 355.08984375 C-3.1467395 354.80427612 -3.1467395 354.80427612 -4.0456543 354.51293945 C-4.95118042 354.19715942 -4.95118042 354.19715942 -5.875 353.875 C-6.78536011 353.53698364 -6.78536011 353.53698364 -7.71411133 353.19213867 C-8.31505615 352.95599854 -8.91600098 352.7198584 -9.53515625 352.4765625 C-10.12441895 352.23196289 -10.71368164 351.98736328 -11.32080078 351.73535156 C-12.15200439 351.37135254 -12.15200439 351.37135254 -13 351 C-13.92683594 350.55398438 -14.85367188 350.10796875 -15.80859375 349.6484375 C-16.63488281 349.18695313 -17.46117187 348.72546875 -18.3125 348.25 C-19.10398438 347.73953125 -19.89546875 347.2290625 -20.7109375 346.703125 C-21.46632812 346.14109375 -22.22171875 345.5790625 -23 345 C-24.10214844 344.06414062 -24.10214844 344.06414062 -25.2265625 343.109375 C-25.95617188 342.41328125 -26.68578125 341.7171875 -27.4375 341 C-28.16839844 340.23300781 -28.89929688 339.46601563 -29.65234375 338.67578125 C-30.21864502 338.042771 -30.21864502 338.042771 -30.79638672 337.39697266 C-31.1935791 336.93597168 -31.59077148 336.4749707 -32 336 C-32.4345752 335.47841309 -32.86915039 334.95682617 -33.31689453 334.41943359 C-33.99727783 333.583396 -33.99727783 333.583396 -34.69140625 332.73046875 C-35.15272949 332.15353271 -35.61405273 331.57659668 -36.08935547 330.98217773 C-36.55486816 330.38993408 -37.02038086 329.79769043 -37.5 329.1875 C-37.96293457 328.58687744 -38.42586914 327.98625488 -38.90283203 327.36743164 C-39.59094971 326.4662561 -39.59094971 326.4662561 -40.29296875 325.546875 C-40.74591309 324.95068359 -41.19885742 324.35449219 -41.66552734 323.74023438 C-42.10590332 323.16595703 -42.5462793 322.59167969 -43 322 C-43.41846191 321.47470703 -43.83692383 320.94941406 -44.26806641 320.40820312 C-44.6707373 319.90740234 -45.0734082 319.40660156 -45.48828125 318.890625 C-45.87822266 318.39925049 -46.26816406 317.90787598 -46.66992188 317.40161133 C-47.23549805 316.67687622 -47.23549805 316.67687622 -47.8125 315.9375 C-48.17794922 315.45885498 -48.54339844 314.98020996 -48.91992188 314.48706055 C-49.27248047 314.005354 -49.62503906 313.52364746 -49.98828125 313.02734375 C-50.32682129 312.53991699 -50.66536133 312.05249023 -51.01416016 311.55029297 C-51.3394873 311.03869629 -51.66481445 310.52709961 -52 310 C-52.47058838 309.14946045 -52.47058838 309.14946045 -52.95068359 308.28173828 C-53.39855225 307.40171143 -53.39855225 307.40171143 -53.85546875 306.50390625 C-54.13608154 305.91939697 -54.41669434 305.3348877 -54.70581055 304.73266602 C-55.09893433 303.87499634 -55.09893433 303.87499634 -55.5 303 C-56.19609375 301.4221875 -56.19609375 301.4221875 -56.90625 299.8125 C-57.2671875 298.884375 -57.628125 297.95625 -58 297 C-58.18191895 296.38366699 -58.36383789 295.76733398 -58.55126953 295.13232422 C-58.69935059 294.42865723 -58.84743164 293.72499023 -59 293 C-59.06364746 292.22672363 -59.12729492 291.45344727 -59.19287109 290.65673828 C-59.21945801 289.80321777 -59.24604492 288.94969727 -59.2734375 288.0703125 C-59.29680176 287.11761475 -59.32016602 286.16491699 -59.34423828 285.18334961 C-59.35438965 284.17409424 -59.36454102 283.16483887 -59.375 282.125 C-59.37612793 281.08287354 -59.37725586 280.04074707 -59.37841797 278.96704102 C-59.36182129 277.92990967 -59.34522461 276.89277832 -59.328125 275.82421875 C-59.28880859 274.81278809 -59.24949219 273.80135742 -59.20898438 272.75927734 C-59.14001953 271.84871582 -59.07105469 270.9381543 -59 270 C-58.88978516 269.30986816 -58.77957031 268.61973633 -58.66601562 267.90869141 C-58.52357422 267.32651855 -58.38113281 266.7443457 -58.234375 266.14453125 C-57.86828125 265.08621094 -57.5021875 264.02789062 -57.125 262.9375 C-56.67898437 261.885625 -56.23296875 260.83375 -55.7734375 259.75 C-55.50499023 259.18023437 -55.23654297 258.61046875 -54.95996094 258.0234375 C-54.48478027 257.02183594 -54.48478027 257.02183594 -54 256 C-53.60329102 255.12859375 -53.20658203 254.2571875 -52.79785156 253.359375 C-52.36182617 252.39515625 -51.92580078 251.4309375 -51.4765625 250.4375 C-51.02909668 249.44886963 -50.58163086 248.46023926 -50.12060547 247.44165039 C-49.44215576 245.95459595 -49.44215576 245.95459595 -48.75 244.4375 C-48.30156738 243.48415771 -47.85313477 242.53081543 -47.39111328 241.54858398 C-46.96813965 240.64438721 -46.54516602 239.74019043 -46.109375 238.80859375 C-45.53654785 237.59901001 -45.53654785 237.59901001 -44.95214844 236.36499023 C-44.63793945 235.58454346 -44.32373047 234.80409668 -44 234 C-43.82553345 233.27270187 -43.65106689 232.54540375 -43.47131348 231.79606628 C-43.31578003 230.87336441 -43.16024658 229.95066254 -43 229 C-42.90877869 227.91258514 -42.81755737 226.82517029 -42.72357178 225.70480347 C-42.66926121 224.79552204 -42.66926121 224.79552204 -42.61385345 223.86787128 C-42.57853767 223.217797 -42.54322189 222.56772272 -42.50683594 221.89794922 C-42.46584023 221.19782054 -42.42484451 220.49769186 -42.38260651 219.77634716 C-42.33951103 219.03796769 -42.29641556 218.29958822 -42.25201416 217.53883362 C-42.20859138 216.76973726 -42.16516861 216.00064091 -42.12042999 215.2082386 C-42.07553185 214.41506674 -42.0306337 213.62189487 -41.984375 212.8046875 C-41.93720085 211.99790495 -41.8900267 211.1911224 -41.84142303 210.35989189 C-41.79270302 209.53556223 -41.743983 208.71123257 -41.69378662 207.86192322 C-41.61901659 206.59777069 -41.61901659 206.59777069 -41.54273605 205.30807972 C-41.49189487 204.44820296 -41.4410537 203.58832621 -41.38867188 202.70239258 C-41.31136778 201.38600941 -41.31136778 201.38600941 -41.23250198 200.04303265 C-41.18018795 199.15264199 -41.12787392 198.26225134 -41.07397461 197.34487915 C-41.02087128 196.44508457 -40.96776794 195.54528999 -40.91305542 194.61822891 C-40.85924713 193.71296337 -40.80543884 192.80769783 -40.75 191.875 C-40.69554718 190.96997616 -40.64109436 190.06495232 -40.58499146 189.13250351 C-40.52995453 188.22578022 -40.4749176 187.31905693 -40.41821289 186.38485718 C-40.36264725 185.47586827 -40.3070816 184.56687937 -40.24983215 183.63034534 C-40.19381332 182.72067855 -40.13779449 181.81101175 -40.08007812 180.8737793 C-40.02369675 179.9647243 -39.96731537 179.05566931 -39.90922546 178.11906719 C-39.85249161 177.21095193 -39.79575775 176.30283667 -39.73730469 175.36720276 C-39.68026367 174.46125429 -39.62322266 173.55530582 -39.56445312 172.62190437 C-39.4784082 171.2641203 -39.4784082 171.2641203 -39.390625 169.87890625 C-39.33285889 168.97085173 -39.27509277 168.0627972 -39.21557617 167.12722588 C-39.15764893 166.22418283 -39.09972168 165.32113979 -39.04003906 164.39073181 C-38.98214706 163.49883998 -38.92425507 162.60694815 -38.86460876 161.68802929 C-38.8068074 160.80887513 -38.74900604 159.92972097 -38.68945312 159.02392578 C-38.63177261 158.15855603 -38.5740921 157.29318628 -38.5146637 156.40159321 C-38.45737595 155.55776679 -38.4000882 154.71394037 -38.34106445 153.84454346 C-38.28431549 153.02636391 -38.22756653 152.20818436 -38.1690979 151.36521149 C-38.08539444 150.1944318 -38.08539444 150.1944318 -38 149 C-37.91871353 147.91514439 -37.91871353 147.91514439 -37.83578491 146.8083725 C-37.78258087 146.12369148 -37.72937683 145.43901047 -37.67456055 144.73358154 C-37.62197712 144.07640514 -37.56939369 143.41922874 -37.51521683 142.74213791 C-37.46314449 142.10906345 -37.41107216 141.475989 -37.35742188 140.82373047 C-37.30562145 140.20750446 -37.25382103 139.59127846 -37.2004509 138.95637894 C-37.12319212 138.05806414 -37.12319212 138.05806414 -37.04437256 137.14160156 C-36.99314995 136.55957977 -36.94192734 135.97755798 -36.88915253 135.37789917 C-36.83807594 134.80846588 -36.78699936 134.23903259 -36.734375 133.65234375 C-36.63223694 132.53794922 -36.53009888 131.42355469 -36.42486572 130.27539062 C-36.32300964 129.2007959 -36.22115356 128.12620117 -36.11621094 127.01904297 C-36.01465698 125.98374451 -35.91310303 124.94844604 -35.80847168 123.8817749 C-35.6557782 122.36248383 -35.6557782 122.36248383 -35.5 120.8125 C-35.39723755 119.80028381 -35.2944751 118.78806763 -35.18859863 117.74517822 C-35.08543335 116.7479071 -34.98226807 115.75063599 -34.87597656 114.72314453 C-34.77271057 113.74764648 -34.66944458 112.77214844 -34.56304932 111.76708984 C-34.45974304 110.81398926 -34.35643677 109.86088867 -34.25 108.87890625 C-34.14685486 107.95319824 -34.04370972 107.02749023 -33.93743896 106.07373047 C-33.83433411 105.16913086 -33.73122925 104.26453125 -33.625 103.33251953 C-33.521875 102.44542297 -33.41875 101.55832642 -33.3125 100.64434814 C-33.209375 99.77171326 -33.10625 98.89907837 -33 98 C-32.896875 97.13638855 -32.79375 96.2727771 -32.6875 95.38299561 C-32.584375 94.5319928 -32.48125 93.68098999 -32.375 92.80419922 C-32.27188004 91.96769836 -32.16876007 91.13119751 -32.06251526 90.26934814 C-31.95938522 89.44698669 -31.85625519 88.62462524 -31.75 87.77734375 C-31.64682968 86.96932312 -31.54365936 86.16130249 -31.43736267 85.32879639 C-31.33420242 84.53531799 -31.23104218 83.7418396 -31.12475586 82.92431641 C-30.97005325 81.75536835 -30.97005325 81.75536835 -30.81222534 80.56280518 C-30.70919098 79.79957947 -30.60615662 79.03635376 -30.5 78.25 C-30.39720734 77.5064325 -30.29441467 76.76286499 -30.18850708 75.99676514 C-30.08577484 75.2674176 -29.9830426 74.53807007 -29.87719727 73.78662109 C-29.7743895 73.06746521 -29.67158173 72.34830933 -29.56565857 71.60736084 C-29.4627803 70.89775208 -29.35990204 70.18814331 -29.25390625 69.45703125 C-29.1509877 68.75660706 -29.04806915 68.05618286 -28.94203186 67.33453369 C-28.83886154 66.6384198 -28.73569122 65.94230591 -28.62939453 65.22509766 C-28.52588684 64.53095764 -28.42237915 63.83681763 -28.31573486 63.12164307 C-28.21154236 62.42150085 -28.10734985 61.72135864 -28 61 C-27.89451843 60.28052185 -27.78903687 59.5610437 -27.68035889 58.81976318 C-27.57427307 58.09468567 -27.46818726 57.36960815 -27.35888672 56.62255859 C-27.25277069 55.90045197 -27.14665466 55.17834534 -27.037323 54.43435669 C-26.93090485 53.71738617 -26.82448669 53.00041565 -26.71484375 52.26171875 C-26.60753937 51.55401337 -26.50023499 50.84630798 -26.38967896 50.11715698 C-26.28299896 49.42139557 -26.17631897 48.72563416 -26.06640625 48.00878906 C-25.96086426 47.32659302 -25.85532227 46.64439697 -25.74658203 45.94152832 C-25.64458496 45.28019897 -25.54258789 44.61886963 -25.4375 43.9375 C-25.29634766 42.99360413 -25.29634766 42.99360413 -25.15234375 42.03063965 C-25.01505859 41.11973572 -25.01505859 41.11973572 -24.875 40.19042969 C-24.78233353 39.59892624 -24.68966705 39.00742279 -24.5941925 38.397995 C-24.49994492 37.82193008 -24.40569733 37.24586517 -24.30859375 36.65234375 C-24.01118286 34.9828064 -24.01118286 34.9828064 -23.70776367 33.27954102 C-23.47420166 32.19729248 -23.24063965 31.11504395 -23 30 C-22.68716064 28.89648193 -22.37432129 27.79296387 -22.05200195 26.65600586 C-21.53899536 25.07444702 -21.53899536 25.07444702 -21.015625 23.4609375 C-20.69754883 22.53458496 -20.37947266 21.60823242 -20.05175781 20.65380859 C-19.70467773 19.77805176 -19.35759766 18.90229492 -19 18 C-18.31997925 16.59113525 -18.31997925 16.59113525 -17.6262207 15.15380859 C-17.19269287 14.33992676 -16.75916504 13.52604492 -16.3125 12.6875 C-15.80589844 11.88828125 -15.29929688 11.0890625 -14.77734375 10.265625 C-14.19082031 9.51796875 -13.60429688 8.7703125 -13 8 C-12.25878906 7.29359375 -11.51757812 6.5871875 -10.75390625 5.859375 C-9.96886719 5.22515625 -9.18382812 4.5909375 -8.375 3.9375 C-7.27285156 3.11572266 -7.27285156 3.11572266 -6.1484375 2.27734375 C-5.43945312 1.85582031 -4.73046875 1.43429687 -4 1 C-3.34 0.77054687 -2.68 0.54109375 -2 0.3046875 C-1.34 0.20414062 -0.68 0.10359375 0 0 Z M-2 6 C-2.99 6.33 -3.98 6.66 -5 7 C-5 7.66 -5 8.32 -5 9 C-5.5878125 9.24621094 -6.175625 9.49242187 -6.78125 9.74609375 C-7.5134375 10.15988281 -8.245625 10.57367188 -9 11 C-9.5878125 11.87785156 -10.175625 12.75570313 -10.78125 13.66015625 C-11.06387695 14.19713135 -11.34650391 14.73410645 -11.63769531 15.28735352 C-11.92225586 15.87315186 -12.20681641 16.4589502 -12.5 17.0625 C-12.80260742 17.6824585 -13.10521484 18.30241699 -13.41699219 18.94116211 C-13.71766602 19.58964111 -14.01833984 20.23812012 -14.328125 20.90625 C-14.7602832 21.91558594 -14.7602832 21.91558594 -15.20117188 22.9453125 C-15.46478516 23.62335937 -15.72839844 24.30140625 -16 25 C-16.21720703 25.65484375 -16.43441406 26.3096875 -16.65820312 26.984375 C-16.9434082 27.96664063 -16.9434082 27.96664063 -17.234375 28.96875 C-17.40864014 29.63817627 -17.58290527 30.30760254 -17.76245117 30.99731445 C-17.92334229 31.67882568 -18.0842334 32.36033691 -18.25 33.0625 C-18.40380127 33.7536792 -18.55760254 34.4448584 -18.71606445 35.15698242 C-18.86261475 35.87217041 -19.00916504 36.5873584 -19.16015625 37.32421875 C-19.29953613 38.06720215 -19.43891602 38.81018555 -19.58251953 39.57568359 C-19.78917236 40.77572021 -19.78917236 40.77572021 -20 42 C-20.14421387 42.90959473 -20.28842773 43.81918945 -20.43701172 44.75634766 C-20.58025879 45.70944824 -20.72350586 46.66254883 -20.87109375 47.64453125 C-21.0093457 48.59642334 -21.14759766 49.54831543 -21.29003906 50.52905273 C-21.42120117 51.46821533 -21.55236328 52.40737793 -21.6875 53.375 C-21.80706055 54.28515869 -21.92662109 55.19531738 -22.04980469 56.13305664 C-22.21657715 57.40910767 -22.21657715 57.40910767 -22.38671875 58.7109375 C-22.48170654 59.46681152 -22.57669434 60.22268555 -22.67456055 61.00146484 C-22.78195557 61.66098145 -22.88935059 62.32049805 -23 63 C-23.33 63.99 -23.66 64.98 -24 66 C-24.06960937 66.89847656 -24.13921875 67.79695313 -24.2109375 68.72265625 C-24.26507813 69.82480469 -24.31921875 70.92695312 -24.375 72.0625 C-24.41189941 72.68261963 -24.44879883 73.30273926 -24.48681641 73.94165039 C-24.53241699 74.59254639 -24.57801758 75.24344238 -24.625 75.9140625 C-24.67914063 76.58856445 -24.73328125 77.26306641 -24.7890625 77.95800781 C-24.85867187 78.63186523 -24.92828125 79.30572266 -25 80 C-25.09539063 80.63260742 -25.19078125 81.26521484 -25.2890625 81.91699219 C-25.45535156 82.86687012 -25.45535156 82.86687012 -25.625 83.8359375 C-25.74520508 84.49875732 -25.86541016 85.16157715 -25.98925781 85.84448242 C-26.11655273 86.53517822 -26.24384766 87.22587402 -26.375 87.9375 C-26.50487305 88.65204346 -26.63474609 89.36658691 -26.76855469 90.1027832 C-26.90165039 90.87710693 -27.03474609 91.65143066 -27.171875 92.44921875 C-27.30787109 93.29661621 -27.44386719 94.14401367 -27.58398438 95.01708984 C-27.72126953 96.0014502 -27.85855469 96.98581055 -28 98 C-28.06872314 98.59363342 -28.13744629 99.18726685 -28.20825195 99.79888916 C-28.27681396 100.43840515 -28.34537598 101.07792114 -28.41601562 101.73681641 C-28.4842453 102.40302505 -28.55247498 103.0692337 -28.62277222 103.75563049 C-28.69053864 104.44084274 -28.75830505 105.12605499 -28.828125 105.83203125 C-28.92892868 106.86704018 -28.92892868 106.86704018 -29.0317688 107.92295837 C-29.09814545 108.61813065 -29.16452209 109.31330292 -29.23291016 110.02954102 C-29.29826965 110.727659 -29.36362915 111.42577698 -29.43096924 112.14505005 C-29.49499939 112.83968353 -29.55902954 113.53431702 -29.625 114.25 C-29.68725769 114.93520721 -29.74951538 115.62041443 -29.81365967 116.3263855 C-29.87434631 116.99848053 -29.93503296 117.67057556 -29.99755859 118.36303711 C-30.05731873 119.01974899 -30.11707886 119.67646088 -30.1786499 120.35307312 C-30.23571106 120.98421524 -30.29277222 121.61535736 -30.3515625 122.265625 C-30.40250061 122.85563797 -30.45343872 123.44565094 -30.50592041 124.05354309 C-30.55633484 124.61627426 -30.60674927 125.17900543 -30.65869141 125.75878906 C-30.77132324 126.82838867 -30.88395508 127.89798828 -31 129 C-31.16806152 129.96993896 -31.33612305 130.93987793 -31.50927734 131.93920898 C-31.67121582 132.94927002 -31.8331543 133.95933105 -32 135 C-32.05201569 135.58345184 -32.10403137 136.16690369 -32.15762329 136.76803589 C-32.1984201 137.39219391 -32.23921692 138.01635193 -32.28125 138.65942383 C-32.31798828 139.31062698 -32.35472656 139.96183014 -32.39257812 140.63276672 C-32.42802734 141.31727402 -32.46347656 142.00178131 -32.5 142.70703125 C-32.54060547 143.43186203 -32.58121094 144.15669281 -32.62304688 144.90348816 C-32.66494141 145.65270035 -32.70683594 146.40191254 -32.75 147.17382812 C-32.79125 147.93638916 -32.8325 148.6989502 -32.875 149.48461914 C-32.91625 150.25281982 -32.9575 151.02102051 -33 151.8125 C-33.04125 152.5753833 -33.0825 153.3382666 -33.125 154.12426758 C-33.16625 154.88054443 -33.2075 155.63682129 -33.25 156.41601562 C-33.29189453 157.16622482 -33.33378906 157.91643402 -33.37695312 158.68937683 C-33.41755859 159.41707779 -33.45816406 160.14477875 -33.5 160.89453125 C-33.53544922 161.57296585 -33.57089844 162.25140045 -33.60742188 162.95039368 C-33.64416016 163.61105331 -33.68089844 164.27171295 -33.71875 164.95239258 C-33.75962738 165.61563034 -33.80050476 166.2788681 -33.84262085 166.96220398 C-33.89455597 167.63467667 -33.94649109 168.30714935 -34 169 C-34.07554108 169.69265457 -34.15108215 170.38530914 -34.22891235 171.09895325 C-34.31402069 171.81927231 -34.39912903 172.53959137 -34.48681641 173.28173828 C-34.5737677 174.03471695 -34.66071899 174.78769562 -34.75030518 175.56349182 C-34.83270447 176.36753952 -34.91510376 177.17158722 -35 178 C-35.06580261 178.88272079 -35.13160522 179.76544159 -35.19940186 180.6749115 C-35.25783264 181.61371658 -35.31626343 182.55252167 -35.37646484 183.51977539 C-35.43256927 184.50011246 -35.48867371 185.48044952 -35.54647827 186.49049377 C-35.60074982 187.51585739 -35.65502136 188.54122101 -35.7109375 189.59765625 C-35.76577301 190.67252792 -35.82060852 191.7473996 -35.87710571 192.85484314 C-35.93184052 193.96170975 -35.98657532 195.06857635 -36.04296875 196.20898438 C-36.09630371 197.33264404 -36.14963867 198.45630371 -36.20458984 199.61401367 C-36.2608252 200.75201416 -36.31706055 201.89001465 -36.375 203.0625 C-36.40783081 203.63919434 -36.44066162 204.21588867 -36.4744873 204.81005859 C-36.50852661 205.38731689 -36.54256592 205.9645752 -36.57763672 206.55932617 C-36.6764917 208.27309448 -36.6764917 208.27309448 -36.77734375 210.02148438 C-36.83008453 211.12535995 -36.88282532 212.22923553 -36.93716431 213.36656189 C-36.98625946 214.43282303 -37.03535461 215.49908417 -37.0859375 216.59765625 C-37.15235443 217.64123795 -37.21877136 218.68481964 -37.28720093 219.76002502 C-37.3243924 220.71199265 -37.36158386 221.66396027 -37.39990234 222.64477539 C-37.44351898 223.48810928 -37.48713562 224.33144318 -37.53207397 225.20033264 C-37.35648956 225.79422287 -37.18090515 226.3881131 -37 227 C-35.75012802 227.19661476 -35.75012802 227.19661476 -34.4750061 227.39720154 C-33.65825409 227.26612503 -32.84150208 227.13504852 -32 227 C-32 226.34 -32 225.68 -32 225 C-31.113125 224.835 -30.22625 224.67 -29.3125 224.5 C-28.68601562 224.4278125 -28.05953125 224.355625 -27.4140625 224.28125 C-26.61742187 224.1884375 -25.82078125 224.095625 -25 224 C-23.37191406 223.76796875 -23.37191406 223.76796875 -21.7109375 223.53125 C-21.13174561 223.44423828 -20.55255371 223.35722656 -19.95581055 223.26757812 C-19.37226807 223.17927734 -18.78872559 223.09097656 -18.1875 223 C-17.06730469 222.835 -15.94710937 222.67 -14.79296875 222.5 C-13.87128906 222.335 -12.94960938 222.17 -12 222 C-11.34 221.67 -10.68 221.34 -10 221 C-8.7174231 220.92809448 -8.7174231 220.92809448 -7.40893555 220.85473633 C-5.78918823 220.84349731 -5.78918823 220.84349731 -4.13671875 220.83203125 C-3.54889114 220.82870285 -2.96106354 220.82537445 -2.35542297 220.82194519 C-1.43988899 220.81823662 -1.43988899 220.81823662 -0.50585938 220.81445312 C0.12296143 220.81453369 0.75178223 220.81461426 1.3996582 220.81469727 C2.030896 220.81397217 2.66213379 220.81324707 3.3125 220.8125 C4.23011108 220.80343628 4.23011108 220.80343628 5.16625977 220.79418945 C5.77203857 220.78798584 6.37781738 220.78178223 7.00195312 220.77539062 C7.60828079 220.77245499 8.21460846 220.76951935 8.83930969 220.76649475 C9.74836311 220.76799782 9.74836311 220.76799782 10.67578125 220.76953125 C11.58815804 220.77846657 11.58815804 220.77846657 12.51896667 220.7875824 C13.12589859 220.80088089 13.73283051 220.81417938 14.3581543 220.82788086 C14.9606601 220.84970428 15.56316589 220.87152771 16.18392944 220.89401245 C16.78323273 220.92898834 17.38253601 220.96396423 18 221 C18.59906158 221.05568146 19.19812317 221.11136292 19.81533813 221.16873169 C20.40583954 221.23752533 20.99634094 221.30631897 21.60473633 221.37719727 C22.73806396 221.53889404 23.8713916 221.70059082 25.0390625 221.8671875 C26.04275879 222.02429199 27.04645508 222.18139648 28.08056641 222.34326172 C29.04397949 222.55998535 30.00739258 222.77670898 31 223 C32.07338623 223.39509766 33.14677246 223.79019531 34.25268555 224.19726562 C35.17992432 224.56529297 36.10716309 224.93332031 37.0625 225.3125 C37.86042969 225.46976563 38.65835938 225.62703125 39.48046875 225.7890625 C39.98191406 225.52867187 40.48335938 225.26828125 41 225 C40.93232422 223.40285156 40.93232422 223.40285156 40.86328125 221.7734375 C40.72567383 221.05889404 40.58806641 220.34435059 40.44628906 219.6081543 C40.25776367 218.80933838 40.06923828 218.01052246 39.875 217.1875 C39.6594043 216.34550049 39.44380859 215.50350098 39.22167969 214.63598633 C38.98481445 213.73904053 38.74794922 212.84209473 38.50390625 211.91796875 C38.25141113 210.96583496 37.99891602 210.01370117 37.73876953 209.03271484 C37.49497559 208.03191895 37.25118164 207.03112305 37 206 C36.79874512 204.94893066 36.59749023 203.89786133 36.39013672 202.81494141 C36.20854004 201.73776855 36.02694336 200.6605957 35.83984375 199.55078125 C35.66662598 198.46321533 35.4934082 197.37564941 35.31494141 196.25512695 C35.14913574 195.18093506 34.98333008 194.10674316 34.8125 193 C34.64669434 191.97543701 34.48088867 190.95087402 34.31005859 189.89526367 C34.07343506 188.40023315 34.07343506 188.40023315 33.83203125 186.875 C33.68459473 185.8953125 33.5371582 184.915625 33.38525391 183.90625 C33.19455322 182.46765625 33.19455322 182.46765625 33 181 C32.91282715 180.0615625 32.8256543 179.123125 32.73583984 178.15625 C32.66187988 177.2384375 32.58791992 176.320625 32.51171875 175.375 C32.40089966 174.02233032 32.40089966 174.02233032 32.2878418 172.64233398 C32.192854 171.77036377 32.09786621 170.89839355 32 170 C31.8450708 169.18539307 31.6901416 168.37078613 31.53051758 167.53149414 C31.35544678 166.72832764 31.18037598 165.92516113 31 165.09765625 C30.73896484 163.87199951 30.73896484 163.87199951 30.47265625 162.62158203 C30.31667969 161.75645996 30.16070312 160.89133789 30 160 C29.84337891 158.54182861 29.84337891 158.54182861 29.68359375 157.05419922 C29.56177734 155.50949951 29.56177734 155.50949951 29.4375 153.93359375 C29.32535156 152.33741211 29.32535156 152.33741211 29.2109375 150.70898438 C29.10652344 149.08959961 29.10652344 149.08959961 29 147.4375 C28.89558594 145.8587207 28.89558594 145.8587207 28.7890625 144.24804688 C28.67691406 142.63833008 28.67691406 142.63833008 28.5625 140.99609375 C28.4814502 139.87501221 28.40040039 138.75393066 28.31689453 137.59887695 C28.24562347 136.72388046 28.24562347 136.72388046 28.1729126 135.83120728 C28.11585144 135.22690887 28.05879028 134.62261047 28 134 C27.92569763 133.36693939 27.85139526 132.73387878 27.77484131 132.08163452 C27.69171692 131.42587433 27.60859253 130.77011414 27.52294922 130.09448242 C27.43643097 129.41921509 27.34991272 128.74394775 27.26077271 128.04821777 C27.12782303 127.00727966 27.12782303 127.00727966 26.9921875 125.9453125 C26.85935867 124.88008362 26.85935867 124.88008362 26.72384644 123.79333496 C26.59515671 122.70103577 26.59515671 122.70103577 26.46386719 121.58666992 C26.3822937 120.83960785 26.30072021 120.09254578 26.2166748 119.32284546 C26.14517212 118.55630646 26.07366943 117.78976746 26 117 C25.94783325 116.21243317 25.8956665 115.42486633 25.84191895 114.61343384 C25.8003064 113.80683319 25.75869385 113.00023254 25.71582031 112.16918945 C25.67958054 111.34451675 25.64334076 110.51984406 25.60600281 109.67018127 C25.57360001 108.82898239 25.5411972 107.98778351 25.5078125 107.12109375 C25.47593338 106.26623886 25.44405426 105.41138397 25.41120911 104.53062439 C25.38000473 103.65910233 25.34880035 102.78758026 25.31665039 101.88964844 C25.28588409 101.00079956 25.2551178 100.11195068 25.22341919 99.19616699 C25.17470169 97.83062683 25.17470169 97.83062683 25.125 96.4375 C25.06963577 95.02724548 25.06963577 95.02724548 25.01315308 93.58850098 C24.95334763 92.1510553 24.95334763 92.1510553 24.89233398 90.68457031 C24.85002151 89.71599091 24.80770905 88.7474115 24.76411438 87.7494812 C24.69718636 86.28600754 24.69718636 86.28600754 24.62890625 84.79296875 C24.58287766 83.81498322 24.53684906 82.83699768 24.48942566 81.82937622 C24.44022476 80.85233734 24.39102386 79.87529846 24.34033203 78.86865234 C24.28709778 77.89522888 24.23386353 76.92180542 24.17901611 75.91888428 C24.09040314 74.47403656 24.09040314 74.47403656 24 73 C23.89785187 71.58415619 23.89785187 71.58415619 23.79364014 70.13970947 C23.68285126 68.74531647 23.68285126 68.74531647 23.56982422 67.32275391 C23.49227905 66.40555069 23.41473389 65.48834747 23.33483887 64.54335022 C23.25399048 63.63830246 23.17314209 62.7332547 23.08984375 61.80078125 C22.96470398 60.45765114 22.96470398 60.45765114 22.83703613 59.08738708 C22.75207886 58.2065596 22.66712158 57.32573212 22.57958984 56.41821289 C22.49360535 55.55455109 22.40762085 54.69088928 22.31903076 53.80105591 C22.19204803 52.53828323 22.19204803 52.53828323 22.0625 51.25 C21.9830011 50.43804169 21.9035022 49.62608337 21.82159424 48.78952026 C21.74334412 47.99973785 21.66509399 47.20995544 21.58447266 46.39624023 C21.5049939 45.62340195 21.42551514 44.85056366 21.34362793 44.05430603 C21.26245728 43.29904129 21.18128662 42.54377655 21.09765625 41.765625 C21.01390747 41.02901138 20.93015869 40.29239777 20.84387207 39.53346252 C20.75633667 38.8089238 20.66880127 38.08438507 20.57861328 37.33789062 C20.48670715 36.62318604 20.39480103 35.90848145 20.30010986 35.17211914 C20.15155548 34.09692017 20.15155548 34.09692017 20 33 C19.88936218 32.25999756 19.77872437 31.51999512 19.66473389 30.75756836 C19.54704651 30.01966064 19.42935913 29.28175293 19.30810547 28.52148438 C19.18422958 27.7999115 19.0603537 27.07833862 18.932724 26.3348999 C18.80926102 25.64172668 18.68579803 24.94855347 18.55859375 24.234375 C18.44870621 23.59163635 18.33881866 22.94889771 18.2256012 22.28668213 C18.11046677 21.67870789 17.99533234 21.07073364 17.87670898 20.44433594 C17.68562309 19.57816147 17.68562309 19.57816147 17.49067688 18.69448853 C17.32875351 18.13530731 17.16683014 17.5761261 17 17 C16.76182053 16.43139252 16.52364105 15.86278503 16.27824402 15.27694702 C15.88358696 14.4730101 15.88358696 14.4730101 15.48095703 13.65283203 C14.99224121 12.77739746 14.50352539 11.90196289 14 11 C13.58621094 10.44570312 13.17242187 9.89140625 12.74609375 9.3203125 C12.31425781 8.92585937 11.88242188 8.53140625 11.4375 8.125 C10.92445312 7.7228125 10.41140625 7.320625 9.8828125 6.90625 C9.26148438 6.6071875 8.64015625 6.308125 8 6 C6.75863281 5.82984375 6.75863281 5.82984375 5.4921875 5.65625 C4.60789063 5.6459375 3.72359375 5.635625 2.8125 5.625 C1.55373047 5.67527344 1.55373047 5.67527344 0.26953125 5.7265625 C-0.85388672 5.86191406 -0.85388672 5.86191406 -2 6 Z M-1 224 C-2.00208496 224.06380859 -2.00208496 224.06380859 -3.02441406 224.12890625 C-3.67893555 224.17917969 -4.33345703 224.22945312 -5.0078125 224.28125 C-5.6587085 224.3426416 -6.30960449 224.4040332 -6.98022461 224.46728516 C-7.62612549 224.53995605 -8.27202637 224.61262695 -8.9375 224.6875 C-9.57373291 224.77177246 -10.20996582 224.85604492 -10.86547852 224.94287109 C-11.83505493 225.09103271 -11.83505493 225.09103271 -12.82421875 225.2421875 C-13.48856934 225.3565918 -14.15291992 225.47099609 -14.83740234 225.58886719 C-15.55105957 225.72454102 -16.2647168 225.86021484 -17 226 C-18.22710693 226.24991699 -18.22710693 226.24991699 -19.47900391 226.50488281 C-20.33800293 226.69147461 -21.19700195 226.87806641 -22.08203125 227.0703125 C-22.94127197 227.27309814 -23.8005127 227.47588379 -24.68579102 227.68481445 C-25.53197998 227.89195068 -26.37816895 228.09908691 -27.25 228.3125 C-28.06073975 228.50094482 -28.87147949 228.68938965 -29.70678711 228.88354492 C-30.84966187 229.1828894 -30.84966187 229.1828894 -32.015625 229.48828125 C-33.07620117 229.83040649 -33.07620117 229.83040649 -34.15820312 230.17944336 C-34.76599609 230.45022705 -35.37378906 230.72101074 -36 231 C-36.77859375 231.72960937 -37.5571875 232.45921875 -38.359375 233.2109375 C-38.90078125 234.13132813 -39.4421875 235.05171875 -40 236 C-40.26200195 236.55421631 -40.52400391 237.10843262 -40.79394531 237.67944336 C-41.04756836 238.27635986 -41.30119141 238.87327637 -41.5625 239.48828125 C-41.79984863 240.10799805 -42.03719727 240.72771484 -42.28173828 241.36621094 C-42.51876465 242.00848633 -42.75579102 242.65076172 -43 243.3125 C-43.2563623 243.9818457 -43.51272461 244.65119141 -43.77685547 245.34082031 C-44.03354004 246.00307617 -44.29022461 246.66533203 -44.5546875 247.34765625 C-44.80186523 247.98461426 -45.04904297 248.62157227 -45.30371094 249.27783203 C-45.53348633 249.84614746 -45.76326172 250.41446289 -46 251 C-46.37382813 251.78246094 -46.74765625 252.56492188 -47.1328125 253.37109375 C-47.46023437 253.99113281 -47.78765625 254.61117187 -48.125 255.25 C-48.43308594 255.84167969 -48.74117187 256.43335938 -49.05859375 257.04296875 C-49.36925781 257.68878906 -49.67992187 258.33460938 -50 259 C-50.36222656 259.88300781 -50.72445312 260.76601563 -51.09765625 261.67578125 C-51.45730469 262.62839844 -51.81695312 263.58101563 -52.1875 264.5625 C-52.51621094 265.49835938 -52.84492187 266.43421875 -53.18359375 267.3984375 C-53.45300781 268.25695312 -53.72242188 269.11546875 -54 270 C-54.23396484 270.97839844 -54.23396484 270.97839844 -54.47265625 271.9765625 C-54.56417969 272.54117188 -54.65570313 273.10578125 -54.75 273.6875 C-54.8325 274.780625 -54.915 275.87375 -55 277 C-55.07734375 277.82951172 -55.07734375 277.82951172 -55.15625 278.67578125 C-55.1871875 279.27777344 -55.218125 279.87976563 -55.25 280.5 C-55.23582031 281.16386719 -55.22164062 281.82773437 -55.20703125 282.51171875 C-55.13871094 283.33285156 -55.07039063 284.15398437 -55 285 C-54.85949219 286.14082031 -54.71898437 287.28164063 -54.57421875 288.45703125 C-54.4774585 289.08343506 -54.38069824 289.70983887 -54.28100586 290.35522461 C-54.16764893 291.00112549 -54.05429199 291.64702637 -53.9375 292.3125 C-53.81060791 292.9629126 -53.68371582 293.6133252 -53.55297852 294.28344727 C-53.40658936 294.92983154 -53.2602002 295.57621582 -53.109375 296.2421875 C-52.94115234 296.87866211 -52.77292969 297.51513672 -52.59960938 298.17089844 C-52.40173828 298.77450195 -52.20386719 299.37810547 -52 300 C-51.48953125 301.03382813 -50.9790625 302.06765625 -50.453125 303.1328125 C-49.87046875 304.05835938 -49.2878125 304.98390625 -48.6875 305.9375 C-47.85798828 307.12666016 -47.85798828 307.12666016 -47.01171875 308.33984375 C-46.01591797 309.65662109 -46.01591797 309.65662109 -45 311 C-44.56018799 311.59321045 -44.12037598 312.1864209 -43.66723633 312.79760742 C-43.17892334 313.4547876 -42.69061035 314.11196777 -42.1875 314.7890625 C-41.6721167 315.47444092 -41.1567334 316.15981934 -40.62573242 316.8659668 C-40.08924072 317.57019775 -39.55274902 318.27442871 -39 319 C-38.45512939 319.7010083 -37.91025879 320.4020166 -37.34887695 321.12426758 C-36.79675537 321.82447021 -36.24463379 322.52467285 -35.67578125 323.24609375 C-35.12212891 323.93767578 -34.56847656 324.62925781 -33.99804688 325.34179688 C-33.44181641 326.03337891 -32.88558594 326.72496094 -32.3125 327.4375 C-31.74466797 328.15615234 -31.17683594 328.87480469 -30.59179688 329.61523438 C-29.76711914 330.63907227 -29.76711914 330.63907227 -28.92578125 331.68359375 C-28.43505127 332.29775146 -27.94432129 332.91190918 -27.4387207 333.54467773 C-26.72655396 334.26506226 -26.72655396 334.26506226 -26 335 C-24.515 335.495 -24.515 335.495 -23 336 C-23 336.66 -23 337.32 -23 338 C-22.34 338 -21.68 338 -21 338 C-20.72542969 338.59554687 -20.45085938 339.19109375 -20.16796875 339.8046875 C-19.78253906 340.52914062 -19.39710937 341.25359375 -19 342 C-18.29488281 342.53882813 -17.58976562 343.07765625 -16.86328125 343.6328125 C-16.02152344 344.12523437 -15.17976563 344.61765625 -14.3125 345.125 C-13.48363281 345.62257813 -12.65476563 346.12015625 -11.80078125 346.6328125 C-10.87652344 347.08398438 -9.95226563 347.53515625 -9 348 C-8.47100098 348.19795166 -7.94200195 348.39590332 -7.39697266 348.59985352 C-6.83155762 348.77701904 -6.26614258 348.95418457 -5.68359375 349.13671875 C-5.09022217 349.29205078 -4.49685059 349.44738281 -3.88549805 349.60742188 C-2.95217651 349.80174805 -2.95217651 349.80174805 -2 350 C-1.34878174 350.09861328 -0.69756348 350.19722656 -0.02661133 350.29882812 C0.98429565 350.40420898 0.98429565 350.40420898 2.015625 350.51171875 C2.71042969 350.54587891 3.40523437 350.58003906 4.12109375 350.61523438 C4.82363281 350.63908203 5.52617188 350.66292969 6.25 350.6875 C6.93707031 350.75388672 7.62414062 350.82027344 8.33203125 350.88867188 C9.03199219 350.90865234 9.73195313 350.92863281 10.453125 350.94921875 C11.18192871 350.87541992 11.91073242 350.80162109 12.66162109 350.72558594 C13.43328613 350.48614258 14.20495117 350.24669922 15 350 C15.83998535 349.46922852 16.6799707 348.93845703 17.54541016 348.39160156 C18.43534668 347.68358398 19.3252832 346.97556641 20.2421875 346.24609375 C20.70039886 345.85037674 21.15861023 345.45465973 21.63070679 345.04695129 C22.09933136 344.62548325 22.56795593 344.2040152 23.05078125 343.76977539 C23.77056152 343.09955856 23.77056152 343.09955856 24.50488281 342.415802 C24.99827148 341.94858734 25.49166016 341.48137268 26 341 C26.51175781 340.51723602 27.02351563 340.03447205 27.55078125 339.53707886 C28.07414062 339.03943024 28.5975 338.54178162 29.13671875 338.02905273 C29.6675708 337.51793442 30.19842285 337.0068161 30.74536133 336.48020935 C31.54816528 335.69723228 31.54816528 335.69723228 32.3671875 334.8984375 C32.90142334 334.3680336 33.43565918 333.8376297 33.98608398 333.29115295 C34.78961304 332.48574318 34.78961304 332.48574318 35.609375 331.6640625 C36.14626953 331.12297852 36.68316406 330.58189453 37.23632812 330.02441406 C37.77708984 329.48010742 38.31785156 328.93580078 38.875 328.375 C39.42639648 327.82714844 39.97779297 327.27929688 40.54589844 326.71484375 C41.09536133 326.16957031 41.64482422 325.62429688 42.2109375 325.0625 C42.75138702 324.5213858 43.29183655 323.98027161 43.84866333 323.42276001 C44.37040131 322.89910858 44.89213928 322.37545715 45.4296875 321.8359375 C45.91621796 321.35345551 46.40274841 320.87097351 46.90402222 320.37387085 C47.36865875 319.90292999 47.83329529 319.43198914 48.31201172 318.94677734 C48.75794678 318.4774881 49.20388184 318.00819885 49.66333008 317.52468872 C50.32498169 316.7699678 50.32498169 316.7699678 51 316 C51.69838989 315.09240433 51.69838989 315.09240433 52.41088867 314.16647339 C53.08124146 313.2376384 53.08124146 313.2376384 53.76513672 312.29003906 C54.16352753 311.72174377 54.56191833 311.15344849 54.97238159 310.56793213 C55.31149567 310.05051453 55.65060974 309.53309692 56 309 C56.43828125 308.18273437 56.8765625 307.36546875 57.328125 306.5234375 C57.63234375 305.81445312 57.9365625 305.10546875 58.25 304.375 C58.72179687 303.30378906 58.72179687 303.30378906 59.203125 302.2109375 C59.59757812 301.11652344 59.59757812 301.11652344 60 300 C60.19335938 299.26652344 60.38671875 298.53304687 60.5859375 297.77734375 C60.72257812 296.86082031 60.85921875 295.94429688 61 295 C61.07734375 294.05012207 61.07734375 294.05012207 61.15625 293.08105469 C61.19492188 292.36723633 61.23359375 291.65341797 61.2734375 290.91796875 C61.29647949 290.1590332 61.31952148 289.40009766 61.34326172 288.61816406 C61.35373535 287.81604492 61.36420898 287.01392578 61.375 286.1875 C61.37902832 285.34799805 61.38305664 284.50849609 61.38720703 283.64355469 C61.3656958 282.36399902 61.3656958 282.36399902 61.34375 281.05859375 C61.30507812 280.2063623 61.26640625 279.35413086 61.2265625 278.47607422 C61.11441406 277.25041748 61.11441406 277.25041748 61 276 C60.86851563 275.27184082 60.73703125 274.54368164 60.6015625 273.79345703 C60.43398437 273.11009277 60.26640625 272.42672852 60.09375 271.72265625 C59.90256592 271.05951416 59.71138184 270.39637207 59.5144043 269.71313477 C59.30340088 269.06530029 59.09239746 268.41746582 58.875 267.75 C58.65175049 267.10281006 58.42850098 266.45562012 58.19848633 265.78881836 C57.96411865 265.1469458 57.72975098 264.50507324 57.48828125 263.84375 C57.24416504 263.20953125 57.00004883 262.5753125 56.74853516 261.921875 C56.50151855 261.28765625 56.25450195 260.6534375 56 260 C55.75942871 259.35546875 55.51885742 258.7109375 55.27099609 258.046875 C55.03074707 257.40234375 54.79049805 256.7578125 54.54296875 256.09375 C54.30006104 255.45518066 54.05715332 254.81661133 53.80688477 254.15869141 C53.56123779 253.52882324 53.31559082 252.89895508 53.0625 252.25 C52.81234131 251.63431152 52.56218262 251.01862305 52.30444336 250.38427734 C52.05186768 249.7805127 51.79929199 249.17674805 51.5390625 248.5546875 C51.28543945 247.96268555 51.03181641 247.37068359 50.77050781 246.76074219 C50.51624023 246.17969727 50.26197266 245.59865234 50 245 C49.74573242 244.42668945 49.49146484 243.85337891 49.22949219 243.26269531 C48.97586914 242.70420898 48.72224609 242.14572266 48.4609375 241.5703125 C48.20844238 241.03220947 47.95594727 240.49410645 47.69580078 239.93969727 C47.44556152 239.42334717 47.19532227 238.90699707 46.9375 238.375 C46.44765625 237.41722656 45.9578125 236.45945313 45.453125 235.47265625 C44.97359375 234.65667969 44.4940625 233.84070313 44 233 C43.52046875 232.40058594 43.0409375 231.80117187 42.546875 231.18359375 C42.09828125 230.73113281 41.6496875 230.27867187 41.1875 229.8125 C40.1046875 228.9153125 40.1046875 228.9153125 39 228 C38.505 227.505 38.505 227.505 38 227 C37.42064697 226.87165771 36.84129395 226.74331543 36.24438477 226.61108398 C35.48440186 226.49063721 34.72441895 226.37019043 33.94140625 226.24609375 C33.08957764 226.11356201 32.23774902 225.98103027 31.36010742 225.84448242 C30.43689697 225.71017822 29.51368652 225.57587402 28.5625 225.4375 C27.61544189 225.30255127 26.66838379 225.16760254 25.69262695 225.02856445 C24.72929443 224.90054443 23.76596191 224.77252441 22.7734375 224.640625 C21.80116211 224.52396484 20.82888672 224.40730469 19.82714844 224.28710938 C18.89418945 224.19236328 17.96123047 224.09761719 17 224 C16.17532227 223.94392578 15.35064453 223.88785156 14.50097656 223.83007812 C13.72979492 223.79849609 12.95861328 223.76691406 12.1640625 223.734375 C11.04354492 223.71165527 11.04354492 223.71165527 9.90039062 223.68847656 C9.17013672 223.6881543 8.43988281 223.68783203 7.6875 223.6875 C6.95208984 223.69749023 6.21667969 223.70748047 5.45898438 223.71777344 C4.73259766 223.7387207 4.00621094 223.75966797 3.2578125 223.78125 C2.19095215 223.82958984 2.19095215 223.82958984 1.10253906 223.87890625 C0.40870117 223.91886719 -0.28513672 223.95882812 -1 224 Z " transform="translate(62,1)" style="fill: #3F3548;"/></svg>