<?xml version="1.0" encoding="UTF-8"?>
<!-- Generator: visioncortex VTracer -->
<svg id="svg" version="1.1" xmlns="http://www.w3.org/2000/svg" style="display: block;" viewBox="0 0 174 284"><path d="M0 0 C0.62003906 0.07734375 1.24007812 0.1546875 1.87890625 0.234375 C2.53761719 0.42515625 3.19632813 0.6159375 3.875 0.8125 C4.55304688 1.11671875 5.23109375 1.4209375 5.9296875 1.734375 C6.61289063 2.15203125 7.29609375 2.5696875 8 3 C8.66257813 3.52078125 9.32515625 4.0415625 10.0078125 4.578125 C10.66523438 5.23296875 11.32265625 5.8878125 12 6.5625 C12.98226562 7.74972656 12.98226562 7.74972656 13.984375 8.9609375 C14.31373047 9.42725586 14.64308594 9.89357422 14.98242188 10.37402344 C15.31822266 10.9105957 15.65402344 11.44716797 16 12 C16.35126953 12.64485352 16.70253906 13.28970703 17.06445312 13.95410156 C17.41958984 14.66276367 17.77472656 15.37142578 18.140625 16.1015625 C18.4917334 16.84462646 18.8428418 17.58769043 19.20458984 18.35327148 C19.5495752 19.12356689 19.89456055 19.8938623 20.25 20.6875 C20.58596191 21.47390869 20.92192383 22.26031738 21.26806641 23.07055664 C21.58952637 23.85551514 21.91098633 24.64047363 22.2421875 25.44921875 C22.54608398 26.22313965 22.84998047 26.99706055 23.16308594 27.79443359 C23.5773584 28.88618896 23.5773584 28.88618896 24 30 C24.23235352 30.62600098 24.46470703 31.25200195 24.70410156 31.89697266 C24.90745117 32.47366699 25.11080078 33.05036133 25.3203125 33.64453125 C25.50335938 34.20398437 25.68640625 34.7634375 25.875 35.33984375 C26.04 35.88769531 26.205 36.43554688 26.375 37 C26.66632813 38.10988281 26.95765625 39.21976563 27.2578125 40.36328125 C27.38446289 40.94029785 27.51111328 41.51731445 27.64160156 42.11181641 C27.75987305 42.73491699 27.87814453 43.35801758 28 44 C28.11569336 44.71720215 28.23138672 45.4344043 28.35058594 46.17333984 C28.45918945 46.93469238 28.56779297 47.69604492 28.6796875 48.48046875 C28.77878418 49.25398682 28.87788086 50.02750488 28.97998047 50.82446289 C29.11364014 51.99416626 29.11364014 51.99416626 29.25 53.1875 C29.32750488 53.96279053 29.40500977 54.73808105 29.48486328 55.53686523 C29.5517334 56.29040283 29.61860352 57.04394043 29.6875 57.8203125 C29.74421875 58.54379883 29.8009375 59.26728516 29.859375 60.01269531 C29.90578125 60.66850586 29.9521875 61.32431641 30 62 C30.061875 62.98742187 30.12375 63.97484375 30.1875 64.9921875 C30.2184375 66.26449219 30.2184375 66.26449219 30.25 67.5625 C30.21712891 68.83287109 30.21712891 68.83287109 30.18359375 70.12890625 C30.12300781 71.07636719 30.06242188 72.02382812 30 73 C29.95891113 73.59538574 29.91782227 74.19077148 29.87548828 74.80419922 C29.82505371 75.45533691 29.77461914 76.10647461 29.72265625 76.77734375 C29.66094238 77.46119141 29.59922852 78.14503906 29.53564453 78.84960938 C29.46200684 79.55923828 29.38836914 80.26886719 29.3125 81 C29.22597168 81.71865234 29.13944336 82.43730469 29.05029297 83.17773438 C28.94990723 83.91185547 28.84952148 84.64597656 28.74609375 85.40234375 C28.63120605 86.15370605 28.51631836 86.90506836 28.39794922 87.67919922 C28.26662598 88.44506348 28.13530273 89.21092773 28 90 C27.84934082 90.78004395 27.69868164 91.56008789 27.54345703 92.36376953 C27.37571777 93.15251465 27.20797852 93.94125977 27.03515625 94.75390625 C26.85162598 95.54571289 26.6680957 96.33751953 26.47900391 97.15332031 C26.27968262 97.94834961 26.08036133 98.74337891 25.875 99.5625 C25.55281494 100.76471191 25.55281494 100.76471191 25.22412109 101.99121094 C24.99418457 102.78430664 24.76424805 103.57740234 24.52734375 104.39453125 C24.28226074 105.1726416 24.03717773 105.95075195 23.78466797 106.75244141 C23.52572754 107.49413574 23.26678711 108.23583008 23 109 C22.59418701 110.00232666 22.59418701 110.00232666 22.18017578 111.02490234 C21.89513184 111.65992676 21.61008789 112.29495117 21.31640625 112.94921875 C21.01420166 113.57731445 20.71199707 114.20541016 20.40063477 114.85253906 C20.08280029 115.47870117 19.76496582 116.10486328 19.4375 116.75 C19.10741943 117.38260742 18.77733887 118.01521484 18.43725586 118.66699219 C18.08671143 119.3221582 17.73616699 119.97732422 17.375 120.65234375 C17.00117188 121.33796387 16.62734375 122.02358398 16.2421875 122.72998047 C15.83226562 123.47908691 15.42234375 124.22819336 15 125 C14.53078125 125.86641113 14.0615625 126.73282227 13.578125 127.62548828 C12.82789063 129.01936768 12.82789063 129.01936768 12.0625 130.44140625 C11.54993652 131.40030762 11.03737305 132.35920898 10.50927734 133.34716797 C9.99059082 134.32572754 9.4719043 135.30428711 8.9375 136.3125 C8.42268066 137.29105957 7.90786133 138.26961914 7.37744141 139.27783203 C6.87390137 140.25220215 6.37036133 141.22657227 5.8515625 142.23046875 C5.36461914 143.19645996 4.87767578 144.16245117 4.37597656 145.15771484 C3.69486816 146.564646 3.69486816 146.564646 3 148 C2.60264648 148.88252441 2.20529297 149.76504883 1.79589844 150.67431641 C1.25884277 151.943479 1.25884277 151.943479 0.7109375 153.23828125 C0.38327393 154.05659424 0.05561035 154.87490723 -0.28198242 155.71801758 C-0.58080322 156.51232178 -0.87962402 157.30662598 -1.1875 158.125 C-1.46376221 158.90705811 -1.74002441 159.68911621 -2.0246582 160.49487305 C-2.27304443 161.24937744 -2.52143066 162.00388184 -2.77734375 162.78125 C-2.99503418 163.50183594 -3.21272461 164.22242188 -3.43701172 164.96484375 C-3.62279785 165.63644531 -3.80858398 166.30804688 -4 167 C-4.15098145 167.59425781 -4.30196289 168.18851563 -4.45751953 168.80078125 C-4.57595215 169.35121094 -4.69438477 169.90164062 -4.81640625 170.46875 C-4.95949219 171.5103125 -5.10257812 172.551875 -5.25 173.625 C-5.27320313 174.64851562 -5.29640625 175.67203125 -5.3203125 176.7265625 C-5.21460938 177.80679688 -5.10890625 178.88703125 -5 180 C-4.89139648 180.61456055 -4.78279297 181.22912109 -4.67089844 181.86230469 C-4.52942383 182.51360352 -4.38794922 183.16490234 -4.2421875 183.8359375 C-4.07082275 184.51333984 -3.89945801 185.19074219 -3.72290039 185.88867188 C-3.52559326 186.58541016 -3.32828613 187.28214844 -3.125 188 C-2.90900146 188.69931641 -2.69300293 189.39863281 -2.47045898 190.11914062 C-2.22884033 190.84037109 -1.98722168 191.56160156 -1.73828125 192.3046875 C-1.46967285 193.05459961 -1.20106445 193.80451172 -0.92431641 194.57714844 C-0.61929199 195.37668945 -0.31426758 196.17623047 0 197 C0.3604541 197.88977539 0.7209082 198.77955078 1.09228516 199.69628906 C1.67502197 201.08799316 1.67502197 201.08799316 2.26953125 202.5078125 C2.66736816 203.44109375 3.06520508 204.374375 3.47509766 205.3359375 C4.07523682 206.71652344 4.07523682 206.71652344 4.6875 208.125 C5.2760376 209.43984375 5.2760376 209.43984375 5.87646484 210.78125 C6.25109863 211.61914062 6.62573242 212.45703125 7.01171875 213.3203125 C7.36194092 214.12694336 7.71216309 214.93357422 8.07299805 215.76464844 C8.37890869 216.50231445 8.68481934 217.23998047 9 218 C9.23178955 218.60618164 9.4635791 219.21236328 9.70239258 219.83691406 C9.88310303 220.3934668 10.06381348 220.95001953 10.25 221.5234375 C10.39332764 222.07499512 10.53665527 222.62655273 10.68432617 223.19482422 C10.78849854 223.79053223 10.8926709 224.38624023 11 225 C11.06485596 225.72848145 11.12971191 226.45696289 11.1965332 227.20751953 C11.23093506 227.99497559 11.26533691 228.78243164 11.30078125 229.59375 C11.30787109 230.39683594 11.31496094 231.19992188 11.32226562 232.02734375 C11.31904297 232.84332031 11.31582031 233.65929687 11.3125 234.5 C11.32861328 235.31597656 11.34472656 236.13195312 11.36132812 236.97265625 C11.36197266 237.77574219 11.36261719 238.57882813 11.36328125 239.40625 C11.33097412 240.18581055 11.29866699 240.96537109 11.26538086 241.76855469 C11.17780518 242.50493164 11.09022949 243.24130859 11 244 C10.72265015 245.00015137 10.72265015 245.00015137 10.43969727 246.02050781 C10.19920654 246.62733398 9.95871582 247.23416016 9.7109375 247.859375 C9.30210327 248.69082031 9.30210327 248.69082031 8.88500977 249.5390625 C8.44692993 250.26222656 8.44692993 250.26222656 8 251 C7.41863281 251.69609375 6.83726562 252.3921875 6.23828125 253.109375 C5.60277344 253.65078125 4.96726563 254.1921875 4.3125 254.75 C3.68988281 255.30171875 3.06726563 255.8534375 2.42578125 256.421875 C1.62527344 256.94265625 0.82476562 257.4634375 0 258 C-0.53109375 258.25998779 -1.0621875 258.51997559 -1.609375 258.7878418 C-2.22683594 259.04218994 -2.84429687 259.29653809 -3.48046875 259.55859375 C-4.52376343 259.92718506 -4.52376343 259.92718506 -5.58813477 260.30322266 C-6.38405029 260.53315918 -7.17996582 260.7630957 -8 261 C-8.93062256 261.20028809 -9.86124512 261.40057617 -10.82006836 261.60693359 C-11.84108643 261.79465332 -12.86210449 261.98237305 -13.9140625 262.17578125 C-14.99389404 262.36116455 -16.07372559 262.54654785 -17.1862793 262.73754883 C-18.32105713 262.92728271 -19.45583496 263.1170166 -20.625 263.3125 C-21.21415192 263.41372162 -21.80330383 263.51494324 -22.41030884 263.61923218 C-23.00814178 263.72385773 -23.60597473 263.82848328 -24.22192383 263.9362793 C-25.12387733 264.09727364 -25.12387733 264.09727364 -26.04405212 264.26152039 C-26.94843773 264.42597404 -26.94843773 264.42597404 -27.87109375 264.59375 C-28.47429947 264.70447342 -29.07750519 264.81519684 -29.69898987 264.92927551 C-30.2957402 265.04284897 -30.89249054 265.15642242 -31.50732422 265.2734375 C-32.09374695 265.39058105 -32.68016968 265.50772461 -33.28436279 265.62841797 C-33.85052307 265.75104004 -34.41668335 265.87366211 -35 266 C-36.55678467 266.4021875 -36.55678467 266.4021875 -38.14501953 266.8125 C-39.11938965 267.0909375 -40.09375977 267.369375 -41.09765625 267.65625 C-42.03544922 267.93251221 -42.97324219 268.20877441 -43.93945312 268.4934082 C-44.84630859 268.7637085 -45.75316406 269.03400879 -46.6875 269.3125 C-48.03038086 269.70151489 -48.03038086 269.70151489 -49.40039062 270.09838867 C-50.26986328 270.3379126 -51.13933594 270.57743652 -52.03515625 270.82421875 C-53.29030029 271.14592041 -53.29030029 271.14592041 -54.57080078 271.47412109 C-55.37243652 271.64766113 -56.17407227 271.82120117 -57 272 C-57.75909668 272.10779785 -58.51819336 272.2155957 -59.30029297 272.32666016 C-60.02490723 272.39030762 -60.74952148 272.45395508 -61.49609375 272.51953125 C-62.1907373 272.55127441 -62.88538086 272.58301758 -63.60107422 272.61572266 C-64.60291748 272.62031494 -64.60291748 272.62031494 -65.625 272.625 C-66.27227051 272.60743652 -66.91954102 272.58987305 -67.58642578 272.57177734 C-68.20888184 272.53133301 -68.83133789 272.49088867 -69.47265625 272.44921875 C-70.06965332 272.38524902 -70.66665039 272.3212793 -71.28173828 272.25537109 C-71.84876465 272.17109863 -72.41579102 272.08682617 -73 272 C-74.02996094 271.77957031 -75.05992188 271.55914062 -76.12109375 271.33203125 C-77.09175781 271.03683594 -78.06242187 270.74164063 -79.0625 270.4375 C-80.02285156 270.07269531 -80.98320313 269.70789063 -81.97265625 269.33203125 C-82.97167969 268.89246094 -83.97070312 268.45289063 -85 268 C-85.81573486 267.61400635 -85.81573486 267.61400635 -86.64794922 267.22021484 C-87.21658691 266.94516113 -87.78522461 266.67010742 -88.37109375 266.38671875 C-89.25667969 265.95734009 -89.25667969 265.95734009 -90.16015625 265.51928711 C-91.07087891 265.07661499 -91.07087891 265.07661499 -92 264.625 C-92.91652344 264.17362671 -92.91652344 264.17362671 -93.8515625 263.71313477 C-94.48707031 263.41076904 -95.12257812 263.10840332 -95.77734375 262.796875 C-96.44491699 262.49587891 -97.11249023 262.19488281 -97.80029297 261.88476562 C-98.52619629 261.59279297 -99.25209961 261.30082031 -100 261 C-101.24934326 260.59297852 -101.24934326 260.59297852 -102.52392578 260.17773438 C-103.40419434 259.91798828 -104.28446289 259.65824219 -105.19140625 259.390625 C-106.08150391 259.13458496 -106.97160156 258.87854492 -107.88867188 258.61474609 C-108.77103516 258.37062988 -109.65339844 258.12651367 -110.5625 257.875 C-111.40748047 257.6579541 -112.25246094 257.4409082 -113.12304688 257.21728516 C-113.92935547 256.99862793 -114.73566406 256.7799707 -115.56640625 256.5546875 C-116.32953125 256.32056152 -117.09265625 256.08643555 -117.87890625 255.84521484 C-118.57886719 255.56629395 -119.27882813 255.28737305 -120 255 C-120.61230469 254.62439941 -121.22460938 254.24879883 -121.85546875 253.86181641 C-122.38914062 253.44335449 -122.9228125 253.02489258 -123.47265625 252.59375 C-123.93567139 252.16175293 -124.39868652 251.72975586 -124.87573242 251.28466797 C-125.24674072 250.86072754 -125.61774902 250.43678711 -126 250 C-126.40992187 249.27039063 -126.81984375 248.54078125 -127.2421875 247.7890625 C-127.45101562 247.07492188 -127.65984375 246.36078125 -127.875 245.625 C-128.09929687 244.91601562 -128.32359375 244.20703125 -128.5546875 243.4765625 C-128.77511719 242.25066406 -128.77511719 242.25066406 -129 241 C-129.06223755 239.39620483 -129.06223755 239.39620483 -129.12573242 237.76000977 C-129.12059631 237.13946716 -129.11546021 236.51892456 -129.11016846 235.87957764 C-129.07381287 235.25931702 -129.03745728 234.6390564 -129 234 C-128.79173584 232.93305908 -128.58347168 231.86611816 -128.36889648 230.7668457 C-128.22444595 230.22037888 -128.07999542 229.67391205 -127.9311676 229.11088562 C-127.76696823 228.53417618 -127.60276886 227.95746674 -127.43359375 227.36328125 C-127.17091957 226.41235344 -127.17091957 226.41235344 -126.90293884 225.44221497 C-126.71180008 224.767285 -126.52066132 224.09235504 -126.32373047 223.39697266 C-126.1146405 222.69058655 -125.90555054 221.98420044 -125.69012451 221.25640869 C-125.46238342 220.51179382 -125.23464233 219.76717896 -125 219 C-124.75034485 218.20897888 -124.5006897 217.41795776 -124.24346924 216.60296631 C-123.97766052 215.77927551 -123.71185181 214.95558472 -123.43798828 214.10693359 C-123.16000397 213.25960663 -122.88201965 212.41227966 -122.59561157 211.53927612 C-122.30753632 210.67424469 -122.01946106 209.80921326 -121.72265625 208.91796875 C-121.42741058 208.04431671 -121.13216492 207.17066467 -120.82797241 206.27053833 C-120.3765538 204.9464949 -120.3765538 204.9464949 -119.91601562 203.59570312 C-119.61091064 202.70633057 -119.30580566 201.81695801 -118.99145508 200.90063477 C-118.6848999 200.00530029 -118.37834473 199.10996582 -118.0625 198.1875 C-117.75771729 197.28330322 -117.45293457 196.37910645 -117.13891602 195.44750977 C-116.83590576 194.54766357 -116.53289551 193.64781738 -116.22070312 192.72070312 C-115.91996887 191.83692993 -115.61923462 190.95315674 -115.30938721 190.04260254 C-115.01264099 189.17647339 -114.71589478 188.31034424 -114.41015625 187.41796875 C-114.11921082 186.56746948 -113.82826538 185.71697021 -113.52850342 184.84069824 C-113.24356018 184.02830688 -112.95861694 183.21591553 -112.66503906 182.37890625 C-112.38720581 181.61537842 -112.10937256 180.85185059 -111.82312012 180.06518555 C-111.41567566 179.0429187 -111.41567566 179.0429187 -111 178 C-110.47374023 176.99324219 -109.94748047 175.98648438 -109.40527344 174.94921875 C-108.93766602 174.14484375 -108.47005859 173.34046875 -107.98828125 172.51171875 C-107.4008313 171.40195679 -107.4008313 171.40195679 -106.80151367 170.26977539 C-106.53701416 169.52074951 -106.27251465 168.77172363 -106 168 C-105.9232605 166.6531311 -105.9232605 166.6531311 -105.8449707 165.27905273 C-105.95651489 163.79900757 -105.95651489 163.79900757 -106.0703125 162.2890625 C-106.22064941 161.23517334 -106.37098633 160.18128418 -106.52587891 159.09545898 C-106.62233704 158.53478729 -106.71879517 157.9741156 -106.81817627 157.39645386 C-106.9194281 156.81187408 -107.02067993 156.22729431 -107.125 155.625 C-107.26503448 154.71223801 -107.26503448 154.71223801 -107.40789795 153.78103638 C-107.50322815 153.14439056 -107.59855835 152.50774475 -107.69677734 151.85180664 C-107.79952972 151.18255661 -107.9022821 150.51330658 -108.00814819 149.82377625 C-108.11889679 149.12267227 -108.22964539 148.4215683 -108.34375 147.69921875 C-108.4650528 146.96987625 -108.58635559 146.24053375 -108.71133423 145.48908997 C-108.84268768 144.71844711 -108.97404114 143.94780426 -109.109375 143.15380859 C-109.25020508 142.33636169 -109.39103516 141.51891479 -109.53613281 140.67669678 C-109.68920898 139.79338684 -109.84228516 138.9100769 -110 138 C-110.16983398 137.01743225 -110.33966797 136.0348645 -110.51464844 135.02252197 C-110.69543945 133.97820007 -110.87623047 132.93387817 -111.0625 131.85791016 C-111.25055206 130.77548035 -111.43860413 129.69305054 -111.63235474 128.57781982 C-111.82586517 127.46545959 -112.01937561 126.35309937 -112.21875 125.20703125 C-112.414758 124.07904114 -112.61076599 122.95105103 -112.81271362 121.78887939 C-112.91161959 121.22070244 -113.01052555 120.65252548 -113.11242867 120.06713104 C-113.2118067 119.4969651 -113.31118473 118.92679916 -113.41357422 118.33935547 C-113.51336012 117.76711494 -113.61314602 117.19487442 -113.71595573 116.60529327 C-113.81595438 116.03363182 -113.91595303 115.46197037 -114.01898193 114.87298584 C-114.2189679 113.73927551 -114.41895386 112.60556519 -114.625 111.4375 C-114.8241803 110.33569397 -115.0233606 109.23388794 -115.22857666 108.09869385 C-115.42529968 107.01570007 -115.62202271 105.9327063 -115.82470703 104.81689453 C-116.01723053 103.74621735 -116.20975403 102.67554016 -116.40811157 101.57241821 C-116.59570038 100.51598114 -116.78328918 99.45954407 -116.9765625 98.37109375 C-117.15907562 97.32843353 -117.34158875 96.28577332 -117.52963257 95.21151733 C-117.70354523 94.18329865 -117.87745789 93.15507996 -118.05664062 92.09570312 C-118.21994873 91.08427246 -118.38325684 90.0728418 -118.55151367 89.03076172 C-118.69951416 88.03061035 -118.84751465 87.03045898 -119 86 C-119.12511963 85.00000977 -119.25023926 84.00001953 -119.37915039 82.96972656 C-119.48799561 81.98907227 -119.59684082 81.00841797 -119.70898438 79.99804688 C-119.80521088 79.04793228 -119.90143738 78.09781769 -120.00057983 77.11891174 C-120.08546661 76.21213181 -120.17035339 75.30535187 -120.2578125 74.37109375 C-120.33440094 73.52921005 -120.41098938 72.68732635 -120.48989868 71.81993103 C-120.55655731 71.02784744 -120.62321594 70.23576385 -120.69189453 69.41967773 C-120.74806946 68.67219772 -120.80424438 67.92471771 -120.86212158 67.15458679 C-120.90762146 66.44357315 -120.95312134 65.73255951 -121 65 C-121.03373718 64.30594559 -121.06747437 63.61189117 -121.10223389 62.89680481 C-121.13839813 61.92453194 -121.13839813 61.92453194 -121.17529297 60.93261719 C-121.19994629 59.84110352 -121.22459961 58.74958984 -121.25 57.625 C-121.229375 56.53832031 -121.20875 55.45164063 -121.1875 54.33203125 C-121.125625 53.23246094 -121.06375 52.13289063 -121 51 C-120.95359375 50.38431152 -120.9071875 49.76862305 -120.859375 49.13427734 C-120.80265625 48.49570801 -120.7459375 47.85713867 -120.6875 47.19921875 C-120.62046875 46.55734619 -120.5534375 45.91547363 -120.484375 45.25415039 C-120.40703125 44.61340576 -120.3296875 43.97266113 -120.25 43.3125 C-120.16234375 42.6827124 -120.0746875 42.0529248 -119.984375 41.40405273 C-119.88640625 40.78860596 -119.7884375 40.17315918 -119.6875 39.5390625 C-119.57921875 38.9399707 -119.4709375 38.34087891 -119.359375 37.72363281 C-119.24078125 37.15483398 -119.1221875 36.58603516 -119 36 C-118.731875 34.99710938 -118.46375 33.99421875 -118.1875 32.9609375 C-117.7234375 31.58808594 -117.7234375 31.58808594 -117.25 30.1875 C-116.90195313 29.32382812 -116.55390625 28.46015625 -116.1953125 27.5703125 C-115.80085938 26.72210937 -115.40640625 25.87390625 -115 25 C-114.54367188 24.08992188 -114.08734375 23.17984375 -113.6171875 22.2421875 C-113.12476563 21.35789062 -112.63234375 20.47359375 -112.125 19.5625 C-111.61195312 18.75167969 -111.09890625 17.94085937 -110.5703125 17.10546875 C-110.05210938 16.41066406 -109.53390625 15.71585938 -109 15 C-108.25363281 14.25169922 -108.25363281 14.25169922 -107.4921875 13.48828125 C-106.99976562 13.12089844 -106.50734375 12.75351562 -106 12.375 C-105.01 11.92125 -104.02 11.4675 -103 11 C-102.030625 10.79375 -101.06125 10.5875 -100.0625 10.375 C-99.051875 10.58125 -98.04125 10.7875 -97 11 C-96.40832031 11.34160156 -95.81664062 11.68320312 -95.20703125 12.03515625 C-94.60246094 12.49792969 -93.99789062 12.96070313 -93.375 13.4375 C-92.49908203 14.26314453 -92.49908203 14.26314453 -91.60546875 15.10546875 C-91.07566406 15.73066406 -90.54585937 16.35585938 -90 17 C-89.58363281 17.67675781 -89.16726562 18.35351562 -88.73828125 19.05078125 C-88.39152344 19.77652344 -88.04476562 20.50226562 -87.6875 21.25 C-87.37554687 21.99378906 -87.06359375 22.73757812 -86.7421875 23.50390625 C-86.49726562 24.32761719 -86.25234375 25.15132812 -86 26 C-85.87882812 27.04027344 -85.75765625 28.08054687 -85.6328125 29.15234375 C-85.52710938 30.15394531 -85.42140625 31.15554687 -85.3125 32.1875 C-85.168125 33.03054687 -85.02375 33.87359375 -84.875 34.7421875 C-84.441875 35.36480469 -84.441875 35.36480469 -84 36 C-83.38125 35.50757813 -82.7625 35.01515625 -82.125 34.5078125 C-81.7552002 34.09490967 -81.38540039 33.68200684 -81.00439453 33.2565918 C-80.61106934 32.7800415 -80.21774414 32.30349121 -79.8125 31.8125 C-79.41015137 31.31339111 -79.00780273 30.81428223 -78.59326172 30.30004883 C-78.18865723 29.79755615 -77.78405273 29.29506348 -77.3671875 28.77734375 C-76.76342285 28.03846924 -76.76342285 28.03846924 -76.14746094 27.28466797 C-75.76879883 26.86072754 -75.39013672 26.43678711 -75 26 C-74.38382813 25.54753906 -73.76765625 25.09507813 -73.1328125 24.62890625 C-72.57335937 24.38011719 -72.01390625 24.13132812 -71.4375 23.875 C-70.87804687 23.69582031 -70.31859375 23.51664063 -69.7421875 23.33203125 C-69.16726562 23.22246094 -68.59234375 23.11289062 -68 23 C-67.04480469 22.85111328 -67.04480469 22.85111328 -66.0703125 22.69921875 C-65.40773437 22.65410156 -64.74515625 22.60898437 -64.0625 22.5625 C-63.06476563 22.60697266 -63.06476563 22.60697266 -62.046875 22.65234375 C-61.37140625 22.76707031 -60.6959375 22.88179687 -60 23 C-59.30390625 23.22816406 -58.6078125 23.45632812 -57.890625 23.69140625 C-57.20484375 23.99949219 -56.5190625 24.30757812 -55.8125 24.625 C-55.20019531 24.92664063 -54.58789062 25.22828125 -53.95703125 25.5390625 C-53.31121094 26.02117188 -52.66539063 26.50328125 -52 27 C-51.58637207 27.41685059 -51.17274414 27.83370117 -50.74658203 28.26318359 C-50.09665283 28.99915771 -50.09665283 28.99915771 -49.43359375 29.75 C-49.00973389 30.28189941 -48.58587402 30.81379883 -48.14916992 31.36181641 C-47.58033081 32.17271729 -47.58033081 32.17271729 -47 33 C-46.51015625 33.97710937 -46.0203125 34.95421875 -45.515625 35.9609375 C-45.30719971 36.49871826 -45.09877441 37.03649902 -44.8840332 37.59057617 C-44.67480225 38.17943604 -44.46557129 38.7682959 -44.25 39.375 C-44.01176514 40.02637939 -43.77353027 40.67775879 -43.52807617 41.34887695 C-43.27002197 42.08323975 -43.01196777 42.81760254 -42.74609375 43.57421875 C-42.33786377 44.80857666 -42.33786377 44.80857666 -41.92138672 46.06787109 C-41.6173291 47.03547363 -41.31327148 48.00307617 -41 49 C-40.82430481 49.58138733 -40.64860962 50.16277466 -40.46759033 50.76177979 C-40.28122009 51.38904968 -40.09484985 52.01631958 -39.90283203 52.66259766 C-39.71034882 53.31852905 -39.5178656 53.97446045 -39.31954956 54.65026855 C-39.12257477 55.32900024 -38.92559998 56.00773193 -38.72265625 56.70703125 C-38.42489792 57.74349792 -38.42489792 57.74349792 -38.12112427 58.80090332 C-37.92163177 59.50098511 -37.72213928 60.20106689 -37.51660156 60.92236328 C-37.31683716 61.62846741 -37.11707275 62.33457153 -36.91125488 63.06207275 C-36.71366577 63.76346375 -36.51607666 64.46485474 -36.3125 65.1875 C-36.12022827 65.86955505 -35.92795654 66.55161011 -35.7298584 67.2543335 C-35.54153442 67.92563293 -35.35321045 68.59693237 -35.15917969 69.28857422 C-34.88196579 70.28600647 -34.88196579 70.28600647 -34.59915161 71.30358887 C-34.41818939 71.96008423 -34.23722717 72.61657959 -34.05078125 73.29296875 C-33.87344452 73.93979614 -33.69610779 74.58662354 -33.51339722 75.25305176 C-33.34091461 75.89190308 -33.16843201 76.53075439 -32.99072266 77.18896484 C-32.82397034 77.81881287 -32.65721802 78.44866089 -32.4854126 79.09759521 C-32.24513336 80.03928558 -32.24513336 80.03928558 -32 81 C-31.77132233 81.95909271 -31.77132233 81.95909271 -31.5380249 82.93756104 C-31.39318665 83.56740906 -31.24834839 84.19725708 -31.09912109 84.84619141 C-30.96177048 85.45038406 -30.82441986 86.05457672 -30.6829071 86.67707825 C-30.55422745 87.25415024 -30.42554779 87.83122223 -30.29296875 88.42578125 C-30.06504639 89.47805908 -29.83712402 90.53033691 -29.60229492 91.61450195 C-29.30415894 92.79532349 -29.30415894 92.79532349 -29 94 C-28.67 94.33 -28.34 94.66 -28 95 C-27.58814453 93.68128906 -27.58814453 93.68128906 -27.16796875 92.3359375 C-27.01030029 91.71676956 -26.85263184 91.09760162 -26.69018555 90.45967102 C-26.52429932 89.77172958 -26.35841309 89.08378815 -26.1875 88.375 C-26.02096924 87.68266769 -25.85443848 86.99033539 -25.68286133 86.27702332 C-25.50907959 85.54002701 -25.33529785 84.8030307 -25.15625 84.04370117 C-24.96483932 83.219245 -24.77342865 82.39478882 -24.57621765 81.54534912 C-24.29098991 80.28540131 -24.29098991 80.28540131 -24 79 C-23.83123856 78.22142639 -23.66247711 77.44285278 -23.48860168 76.64068604 C-23.32712143 75.86585876 -23.16564117 75.09103149 -22.99926758 74.29272461 C-22.83861816 73.49311813 -22.67796875 72.69351166 -22.51245117 71.86967468 C-22.3497876 71.03483047 -22.18712402 70.19998627 -22.01953125 69.33984375 C-21.84615234 68.43921707 -21.67277344 67.53859039 -21.49414062 66.610672 C-21.32116455 65.67599594 -21.14818848 64.74131989 -20.9699707 63.77832031 C-20.8032486 62.82759644 -20.63652649 61.87687256 -20.4647522 60.89733887 C-20.31138397 59.94121704 -20.15801575 58.98509521 -20 58 C-19.80946548 56.58877869 -19.80946548 56.58877869 -19.61508179 55.14904785 C-19.50258087 54.21137573 -19.39007996 53.27370361 -19.27416992 52.30761719 C-19.16940842 51.36694397 -19.06464691 50.42627075 -18.95671082 49.45709229 C-18.85755875 48.51605652 -18.75840668 47.57502075 -18.65625 46.60546875 C-18.50866997 45.1948819 -18.50866997 45.1948819 -18.35810852 43.75579834 C-18.26184677 42.81480286 -18.16558502 41.87380737 -18.06640625 40.90429688 C-17.97246582 39.96448975 -17.87852539 39.02468262 -17.78173828 38.05639648 C-17.64227783 36.63629272 -17.64227783 36.63629272 -17.5 35.1875 C-17.36053955 33.73283325 -17.36053955 33.73283325 -17.21826172 32.2487793 C-17.12432129 31.28174072 -17.03038086 30.31470215 -16.93359375 29.31835938 C-16.83477905 28.36923172 -16.73596436 27.42010406 -16.63415527 26.44221497 C-16.53832153 25.52671371 -16.44248779 24.61121246 -16.34375 23.66796875 C-16.22948669 22.38505196 -16.22948669 22.38505196 -16.11291504 21.07621765 C-16.02602417 20.26369034 -15.9391333 19.45116302 -15.84960938 18.61401367 C-15.73915283 17.84036469 -15.62869629 17.0667157 -15.51489258 16.2696228 C-15.34497803 15.52064728 -15.17506348 14.77167175 -15 14 C-14.55853638 12.8640892 -14.55853638 12.8640892 -14.1081543 11.70523071 C-13.59152222 10.63551529 -13.59152222 10.63551529 -13.06445312 9.54418945 C-12.73288208 8.91648148 -12.40131104 8.2887735 -12.05969238 7.64204407 C-11.7099939 7.10016953 -11.36029541 6.55829498 -11 6 C-10.21625 5.21625 -9.4325 4.4325 -8.625 3.625 C-7.75875 3.08875 -6.8925 2.5525 -6 2 C-5.071875 1.525625 -4.14375 1.05125 -3.1875 0.5625 C-2.135625 0.376875 -1.08375 0.19125 0 0 Z " transform="translate(140,5)" style="fill: #EBBEEA;"/><path d="M0 0 C1.25683594 -0.09450439 1.25683594 -0.09450439 2.5390625 -0.19091797 C3.36535156 -0.21557129 4.19164062 -0.24022461 5.04296875 -0.265625 C6.29980469 -0.27178833 6.29980469 -0.27178833 7.58203125 -0.27807617 C8.87173828 -0.26417847 8.87173828 -0.26417847 10.1875 -0.25 C11.56421875 -0.24093628 11.56421875 -0.24093628 12.96875 -0.23168945 C13.89042969 -0.218396 14.81210938 -0.20510254 15.76171875 -0.19140625 C16.65938965 -0.16578613 17.55706055 -0.14016602 18.48193359 -0.11376953 C19.31289551 -0.07622559 20.14385742 -0.03868164 21 0 C21.68787598 0.05172363 22.37575195 0.10344727 23.08447266 0.15673828 C24.01138916 0.25124268 24.01138916 0.25124268 24.95703125 0.34765625 C25.5502417 0.42008545 26.14345215 0.49251465 26.75463867 0.56713867 C27.33060791 0.64810791 27.90657715 0.72907715 28.5 0.8125 C29.07532471 0.90055908 29.65064941 0.98861816 30.2434082 1.0793457 C30.83597412 1.1743335 31.42854004 1.26932129 32.0390625 1.3671875 C32.6568457 1.46870117 33.27462891 1.57021484 33.91113281 1.67480469 C34.60045898 1.78211914 35.28978516 1.88943359 36 2 C36.8362793 2.1124707 37.67255859 2.22494141 38.53417969 2.34082031 C39.43813477 2.45780273 40.34208984 2.57478516 41.2734375 2.6953125 C42.19962891 2.81801514 43.12582031 2.94071777 44.08007812 3.06713867 C45.00240234 3.18935791 45.92472656 3.31157715 46.875 3.4375 C47.74318359 3.54747314 48.61136719 3.65744629 49.50585938 3.77075195 C50.34697266 3.88636475 51.18808594 4.00197754 52.0546875 4.12109375 C53.28856201 4.31421143 53.28856201 4.31421143 54.54736328 4.51123047 C55.3567334 4.67252441 56.16610352 4.83381836 57 5 C57.81839355 5.22961426 58.63678711 5.45922852 59.47998047 5.69580078 C60.26518066 5.95216309 61.05038086 6.20852539 61.859375 6.47265625 C62.95644775 6.86336304 62.95644775 6.86336304 64.07568359 7.26196289 C65.02822021 7.62729126 65.02822021 7.62729126 66 8 C66.83273438 8.350625 67.66546875 8.70125 68.5234375 9.0625 C69.13445312 9.371875 69.74546875 9.68125 70.375 10 C71.00148438 10.309375 71.62796875 10.61875 72.2734375 10.9375 C73.12808594 11.4634375 73.12808594 11.4634375 74 12 C74.49588623 12.42265137 74.99177246 12.84530273 75.50268555 13.28076172 C75.99679932 13.84811035 76.49091309 14.41545898 77 15 C77.45524048 16.0521167 77.45524048 16.0521167 77.91967773 17.12548828 C78.17177002 17.93228027 78.4238623 18.73907227 78.68359375 19.5703125 C78.97169922 20.4675 79.25980469 21.3646875 79.55664062 22.2890625 C79.84732422 23.22492188 80.13800781 24.16078125 80.4375 25.125 C80.72431641 26.03765625 81.01113281 26.9503125 81.30664062 27.890625 C81.74073242 29.24800781 81.74073242 29.24800781 82.18359375 30.6328125 C82.62372803 31.98487793 82.62372803 31.98487793 83.07275391 33.36425781 C83.37874512 34.23405273 83.68473633 35.10384766 84 36 C84.33563965 36.8053418 84.6712793 37.61068359 85.01708984 38.44042969 C85.35820801 39.20000977 85.69932617 39.95958984 86.05078125 40.7421875 C86.38408447 41.46905762 86.7173877 42.19592773 87.06079102 42.94482422 C87.37072998 43.62303223 87.68066895 44.30124023 88 45 C88.38853149 45.90709717 88.38853149 45.90709717 88.78491211 46.83251953 C89.01573486 47.40341309 89.24655762 47.97430664 89.484375 48.5625 C89.69779541 49.12332275 89.91121582 49.68414551 90.13110352 50.26196289 C90.43745728 51.12229126 90.43745728 51.12229126 90.75 52 C90.96390381 52.62447021 91.17780762 53.24894043 91.39819336 53.89233398 C91.60065674 54.54532471 91.80312012 55.19831543 92.01171875 55.87109375 C92.19138184 56.53866699 92.37104492 57.20624023 92.55615234 57.89404297 C92.70262207 58.58900879 92.8490918 59.28397461 93 60 C93.09361816 60.74008301 93.18723633 61.48016602 93.28369141 62.24267578 C93.34089355 62.99919434 93.3980957 63.75571289 93.45703125 64.53515625 C93.4837793 65.28990234 93.51052734 66.04464844 93.53808594 66.82226562 C93.5501709 67.93118164 93.5501709 67.93118164 93.5625 69.0625 C93.58425293 70.1153418 93.58425293 70.1153418 93.60644531 71.18945312 C93.59323242 71.86041016 93.58001953 72.53136719 93.56640625 73.22265625 C93.51210449 73.86251465 93.45780273 74.50237305 93.40185547 75.16162109 C93.26924316 75.76828613 93.13663086 76.37495117 93 77 C92.71914551 77.5770166 92.43829102 78.1540332 92.14892578 78.74853516 C91.80458496 79.27882324 91.46024414 79.80911133 91.10546875 80.35546875 C90.41066406 81.22816406 89.71585937 82.10085937 89 83 C88.2575 83.7425 87.515 84.485 86.75 85.25 C85.8425 85.8275 84.935 86.405 84 87 C82.90558594 87.31839844 81.81117188 87.63679688 80.68359375 87.96484375 C79.62132568 88.21645264 79.62132568 88.21645264 78.53759766 88.47314453 C77.28148682 88.73393799 77.28148682 88.73393799 76 89 C74.98856934 89.18030762 73.97713867 89.36061523 72.93505859 89.54638672 C71.25984131 89.82699951 71.25984131 89.82699951 69.55078125 90.11328125 C68.96716827 90.21081696 68.3835553 90.30835266 67.78225708 90.40884399 C67.1870224 90.50789032 66.59178772 90.60693665 65.97851562 90.70898438 C65.37434814 90.80912842 64.77018066 90.90927246 64.14770508 91.01245117 C63.5420874 91.11146729 62.93646973 91.2104834 62.3125 91.3125 C61.71574463 91.40619873 61.11898926 91.49989746 60.50415039 91.59643555 C59.61360962 91.73722534 59.61360962 91.73722534 58.70507812 91.88085938 C58.11161591 91.97905975 57.51815369 92.07726013 56.90670776 92.17843628 C56.31487701 92.28068512 55.72304626 92.38293396 55.11328125 92.48828125 C54.52362579 92.59334991 53.93397034 92.69841858 53.32644653 92.80667114 C52.73870453 92.92154877 52.15096252 93.03642639 51.54541016 93.15478516 C50.96067932 93.28226135 50.37594849 93.40973755 49.77349854 93.54107666 C48.89561676 93.76824371 48.89561676 93.76824371 48 94 C47.40701111 94.19527283 46.81402222 94.39054565 46.20306396 94.59173584 C45.61446594 94.80815735 45.02586792 95.02457886 44.41943359 95.24755859 C43.84114304 95.47058151 43.26285248 95.69360443 42.66703796 95.92338562 C42.11047012 96.14847305 41.55390228 96.37356049 40.98046875 96.60546875 C39.97266357 97.0336792 38.9648584 97.46188965 37.92651367 97.90307617 C36.96076416 98.26506104 35.99501465 98.6270459 35 99 C33.9591626 99.20947266 32.9183252 99.41894531 31.84594727 99.63476562 C30.43720337 99.81555664 30.43720337 99.81555664 29 100 C28.37319336 100.05841064 27.74638672 100.11682129 27.10058594 100.17700195 C26.56723633 100.19722412 26.03388672 100.21744629 25.484375 100.23828125 C24.57498169 100.26498901 24.57498169 100.26498901 23.6472168 100.29223633 C23.02113525 100.29892334 22.39505371 100.30561035 21.75 100.3125 C21.09104736 100.31467529 20.43209473 100.31685059 19.75317383 100.3190918 C19.09341553 100.306604 18.43365723 100.29411621 17.75390625 100.28125 C17.1108252 100.24902344 16.46774414 100.21679688 15.80517578 100.18359375 C15.20946777 100.12300781 14.61375977 100.06242187 14 100 C13.06027344 99.7628125 12.12054688 99.525625 11.15234375 99.28125 C9.93224609 98.80171875 9.93224609 98.80171875 8.6875 98.3125 C7.511875 97.76529297 7.511875 97.76529297 6.3125 97.20703125 C5.549375 96.80871094 4.78625 96.41039062 4 96 C3.21625 95.59136719 2.4325 95.18273437 1.625 94.76171875 C0.820625 94.34535156 0.01625 93.92898438 -0.8125 93.5 C-1.63234375 93.08105469 -2.4521875 92.66210938 -3.296875 92.23046875 C-4.63492188 91.62138672 -4.63492188 91.62138672 -6 91 C-7.05703125 90.62488281 -8.1140625 90.24976563 -9.203125 89.86328125 C-9.75500488 89.68667969 -10.30688477 89.51007813 -10.87548828 89.328125 C-11.43220215 89.15796875 -11.98891602 88.9878125 -12.5625 88.8125 C-13.65820312 88.48894531 -14.75390625 88.16539062 -15.8828125 87.83203125 C-17.42582031 87.42017578 -17.42582031 87.42017578 -19 87 C-19.86367188 86.81824219 -20.72734375 86.63648438 -21.6171875 86.44921875 C-22.76574219 86.22685547 -22.76574219 86.22685547 -23.9375 86 C-24.64003906 85.85046875 -25.34257812 85.7009375 -26.06640625 85.546875 C-27.02353516 85.27617187 -27.02353516 85.27617187 -28 85 C-28.58652344 84.73703125 -29.17304688 84.4740625 -29.77734375 84.203125 C-30.56818359 83.73132813 -30.56818359 83.73132813 -31.375 83.25 C-32.24125 82.5075 -33.1075 81.765 -34 81 C-34.928125 79.6696875 -34.928125 79.6696875 -35.875 78.3125 C-36.24625 77.219375 -36.6175 76.12625 -37 75 C-37.06466965 74.34154083 -37.12933929 73.68308167 -37.19596863 73.00466919 C-37.20501724 72.28399261 -37.21406586 71.56331604 -37.22338867 70.82080078 C-37.21222015 70.02538879 -37.20105164 69.22997681 -37.18954468 68.41046143 C-37.12699493 67.61500916 -37.06444519 66.81955688 -37 66 C-36.85615875 65.29881042 -36.7123175 64.59762085 -36.56411743 63.87518311 C-36.37062714 63.19691467 -36.17713684 62.51864624 -35.9777832 61.81982422 C-35.75367264 61.12815155 -35.52956207 60.43647888 -35.29866028 59.72384644 C-35.0518602 59.00802399 -34.80506012 58.29220154 -34.55078125 57.5546875 C-34.29628708 56.78174347 -34.04179291 56.00879944 -33.77958679 55.21243286 C-33.38305656 54.01286453 -33.38305656 54.01286453 -32.97851562 52.7890625 C-32.70434814 51.97985352 -32.43018066 51.17064453 -32.14770508 50.33691406 C-31.8720874 49.52448242 -31.59646973 48.71205078 -31.3125 47.875 C-31.04574463 47.07320312 -30.77898926 46.27140625 -30.50415039 45.4453125 C-30.24045654 44.64867187 -29.9767627 43.85203125 -29.70507812 43.03125 C-29.44193314 42.2380687 -29.17878815 41.44488739 -28.90766907 40.62767029 C-28.64552109 39.84046097 -28.38337311 39.05325165 -28.11328125 38.2421875 C-27.85077072 37.46178604 -27.58826019 36.68138458 -27.3177948 35.87733459 C-27.05783218 35.10707443 -26.79786957 34.33681427 -26.5300293 33.54321289 C-26.274664 32.78654327 -26.01929871 32.02987366 -25.75619507 31.25027466 C-25.5066507 30.50768402 -25.25710632 29.76509338 -25 29 C-24.7579483 28.27038055 -24.51589661 27.54076111 -24.26651001 26.78903198 C-23.91572891 25.72641647 -23.91572891 25.72641647 -23.55786133 24.64233398 C-23.33249191 23.96063141 -23.1071225 23.27892883 -22.87492371 22.5765686 C-22.55398491 21.60474136 -22.55398491 21.60474136 -22.2265625 20.61328125 C-22.0286763 20.00986908 -21.8307901 19.40645691 -21.62690735 18.78475952 C-21.44016953 18.2206839 -21.2534317 17.65660828 -21.06103516 17.07543945 C-20.71089355 16.06054443 -20.36075195 15.04564941 -20 14 C-19.48215942 12.69095703 -19.48215942 12.69095703 -18.95385742 11.35546875 C-18.65970947 10.68128906 -18.36556152 10.00710937 -18.0625 9.3125 C-17.73636719 8.71824219 -17.41023438 8.12398437 -17.07421875 7.51171875 C-16.71972656 7.01285156 -16.36523438 6.51398438 -16 6 C-15.59394531 5.57332031 -15.18789063 5.14664063 -14.76953125 4.70703125 C-14.30933594 4.34996094 -13.84914063 3.99289063 -13.375 3.625 C-12.88370605 3.35695557 -12.39241211 3.08891113 -11.88623047 2.81274414 C-10.95254639 2.41043579 -10.95254639 2.41043579 -10 2 C-9.28755127 1.80615723 -8.57510254 1.61231445 -7.84106445 1.41259766 C-7.044021 1.24808105 -6.24697754 1.08356445 -5.42578125 0.9140625 C-4.54019531 0.74632324 -3.65460937 0.57858398 -2.7421875 0.40576172 C-1.83726563 0.27186035 -0.93234375 0.13795898 0 0 Z " transform="translate(53,172)" style="fill: #ECBEEA;"/><path d="M0 0 C0.62003906 0.07734375 1.24007812 0.1546875 1.87890625 0.234375 C2.53761719 0.42515625 3.19632813 0.6159375 3.875 0.8125 C4.55304688 1.11671875 5.23109375 1.4209375 5.9296875 1.734375 C6.61289063 2.15203125 7.29609375 2.5696875 8 3 C8.66257813 3.52078125 9.32515625 4.0415625 10.0078125 4.578125 C10.66523438 5.23296875 11.32265625 5.8878125 12 6.5625 C12.98226562 7.74972656 12.98226562 7.74972656 13.984375 8.9609375 C14.31373047 9.42725586 14.64308594 9.89357422 14.98242188 10.37402344 C15.31822266 10.9105957 15.65402344 11.44716797 16 12 C16.35126953 12.64485352 16.70253906 13.28970703 17.06445312 13.95410156 C17.41958984 14.66276367 17.77472656 15.37142578 18.140625 16.1015625 C18.4917334 16.84462646 18.8428418 17.58769043 19.20458984 18.35327148 C19.5495752 19.12356689 19.89456055 19.8938623 20.25 20.6875 C20.58596191 21.47390869 20.92192383 22.26031738 21.26806641 23.07055664 C21.58952637 23.85551514 21.91098633 24.64047363 22.2421875 25.44921875 C22.54608398 26.22313965 22.84998047 26.99706055 23.16308594 27.79443359 C23.5773584 28.88618896 23.5773584 28.88618896 24 30 C24.23235352 30.62600098 24.46470703 31.25200195 24.70410156 31.89697266 C24.90745117 32.47366699 25.11080078 33.05036133 25.3203125 33.64453125 C25.50335938 34.20398437 25.68640625 34.7634375 25.875 35.33984375 C26.04 35.88769531 26.205 36.43554688 26.375 37 C26.66632813 38.10988281 26.95765625 39.21976563 27.2578125 40.36328125 C27.38446289 40.94029785 27.51111328 41.51731445 27.64160156 42.11181641 C27.75987305 42.73491699 27.87814453 43.35801758 28 44 C28.11569336 44.71720215 28.23138672 45.4344043 28.35058594 46.17333984 C28.45918945 46.93469238 28.56779297 47.69604492 28.6796875 48.48046875 C28.77878418 49.25398682 28.87788086 50.02750488 28.97998047 50.82446289 C29.11364014 51.99416626 29.11364014 51.99416626 29.25 53.1875 C29.32750488 53.96279053 29.40500977 54.73808105 29.48486328 55.53686523 C29.5517334 56.29040283 29.61860352 57.04394043 29.6875 57.8203125 C29.74421875 58.54379883 29.8009375 59.26728516 29.859375 60.01269531 C29.90578125 60.66850586 29.9521875 61.32431641 30 62 C30.061875 62.98742187 30.12375 63.97484375 30.1875 64.9921875 C30.2184375 66.26449219 30.2184375 66.26449219 30.25 67.5625 C30.21712891 68.83287109 30.21712891 68.83287109 30.18359375 70.12890625 C30.12300781 71.07636719 30.06242188 72.02382812 30 73 C29.95891113 73.59538574 29.91782227 74.19077148 29.87548828 74.80419922 C29.82505371 75.45533691 29.77461914 76.10647461 29.72265625 76.77734375 C29.66094238 77.46119141 29.59922852 78.14503906 29.53564453 78.84960938 C29.46200684 79.55923828 29.38836914 80.26886719 29.3125 81 C29.22597168 81.71865234 29.13944336 82.43730469 29.05029297 83.17773438 C28.94990723 83.91185547 28.84952148 84.64597656 28.74609375 85.40234375 C28.63120605 86.15370605 28.51631836 86.90506836 28.39794922 87.67919922 C28.26662598 88.44506348 28.13530273 89.21092773 28 90 C27.84934082 90.78004395 27.69868164 91.56008789 27.54345703 92.36376953 C27.37571777 93.15251465 27.20797852 93.94125977 27.03515625 94.75390625 C26.85162598 95.54571289 26.6680957 96.33751953 26.47900391 97.15332031 C26.27968262 97.94834961 26.08036133 98.74337891 25.875 99.5625 C25.55281494 100.76471191 25.55281494 100.76471191 25.22412109 101.99121094 C24.99418457 102.78430664 24.76424805 103.57740234 24.52734375 104.39453125 C24.28226074 105.1726416 24.03717773 105.95075195 23.78466797 106.75244141 C23.52572754 107.49413574 23.26678711 108.23583008 23 109 C22.59418701 110.00232666 22.59418701 110.00232666 22.18017578 111.02490234 C21.89513184 111.65992676 21.61008789 112.29495117 21.31640625 112.94921875 C21.01420166 113.57731445 20.71199707 114.20541016 20.40063477 114.85253906 C20.08280029 115.47870117 19.76496582 116.10486328 19.4375 116.75 C19.10741943 117.38260742 18.77733887 118.01521484 18.43725586 118.66699219 C18.08671143 119.3221582 17.73616699 119.97732422 17.375 120.65234375 C17.00117188 121.33796387 16.62734375 122.02358398 16.2421875 122.72998047 C15.83226562 123.47908691 15.42234375 124.22819336 15 125 C14.53078125 125.86641113 14.0615625 126.73282227 13.578125 127.62548828 C12.82789063 129.01936768 12.82789063 129.01936768 12.0625 130.44140625 C11.54993652 131.40030762 11.03737305 132.35920898 10.50927734 133.34716797 C9.99059082 134.32572754 9.4719043 135.30428711 8.9375 136.3125 C8.42268066 137.29105957 7.90786133 138.26961914 7.37744141 139.27783203 C6.87390137 140.25220215 6.37036133 141.22657227 5.8515625 142.23046875 C5.36461914 143.19645996 4.87767578 144.16245117 4.37597656 145.15771484 C3.69486816 146.564646 3.69486816 146.564646 3 148 C2.60264648 148.88252441 2.20529297 149.76504883 1.79589844 150.67431641 C1.25884277 151.943479 1.25884277 151.943479 0.7109375 153.23828125 C0.38327393 154.05659424 0.05561035 154.87490723 -0.28198242 155.71801758 C-0.58080322 156.51232178 -0.87962402 157.30662598 -1.1875 158.125 C-1.46376221 158.90705811 -1.74002441 159.68911621 -2.0246582 160.49487305 C-2.27304443 161.24937744 -2.52143066 162.00388184 -2.77734375 162.78125 C-2.99503418 163.50183594 -3.21272461 164.22242188 -3.43701172 164.96484375 C-3.62279785 165.63644531 -3.80858398 166.30804688 -4 167 C-4.15098145 167.59425781 -4.30196289 168.18851563 -4.45751953 168.80078125 C-4.57595215 169.35121094 -4.69438477 169.90164062 -4.81640625 170.46875 C-4.95949219 171.5103125 -5.10257812 172.551875 -5.25 173.625 C-5.27320313 174.64851562 -5.29640625 175.67203125 -5.3203125 176.7265625 C-5.21460938 177.80679688 -5.10890625 178.88703125 -5 180 C-4.89139648 180.61456055 -4.78279297 181.22912109 -4.67089844 181.86230469 C-4.52942383 182.51360352 -4.38794922 183.16490234 -4.2421875 183.8359375 C-4.07082275 184.51333984 -3.89945801 185.19074219 -3.72290039 185.88867188 C-3.52559326 186.58541016 -3.32828613 187.28214844 -3.125 188 C-2.90900146 188.69931641 -2.69300293 189.39863281 -2.47045898 190.11914062 C-2.22884033 190.84037109 -1.98722168 191.56160156 -1.73828125 192.3046875 C-1.46967285 193.05459961 -1.20106445 193.80451172 -0.92431641 194.57714844 C-0.61929199 195.37668945 -0.31426758 196.17623047 0 197 C0.3604541 197.88977539 0.7209082 198.77955078 1.09228516 199.69628906 C1.67502197 201.08799316 1.67502197 201.08799316 2.26953125 202.5078125 C2.66736816 203.44109375 3.06520508 204.374375 3.47509766 205.3359375 C4.07523682 206.71652344 4.07523682 206.71652344 4.6875 208.125 C5.2760376 209.43984375 5.2760376 209.43984375 5.87646484 210.78125 C6.25109863 211.61914062 6.62573242 212.45703125 7.01171875 213.3203125 C7.36194092 214.12694336 7.71216309 214.93357422 8.07299805 215.76464844 C8.37890869 216.50231445 8.68481934 217.23998047 9 218 C9.23178955 218.60618164 9.4635791 219.21236328 9.70239258 219.83691406 C9.88310303 220.3934668 10.06381348 220.95001953 10.25 221.5234375 C10.39332764 222.07499512 10.53665527 222.62655273 10.68432617 223.19482422 C10.78849854 223.79053223 10.8926709 224.38624023 11 225 C11.06485596 225.72848145 11.12971191 226.45696289 11.1965332 227.20751953 C11.23093506 227.99497559 11.26533691 228.78243164 11.30078125 229.59375 C11.30787109 230.39683594 11.31496094 231.19992188 11.32226562 232.02734375 C11.31904297 232.84332031 11.31582031 233.65929687 11.3125 234.5 C11.32861328 235.31597656 11.34472656 236.13195312 11.36132812 236.97265625 C11.36197266 237.77574219 11.36261719 238.57882813 11.36328125 239.40625 C11.33097412 240.18581055 11.29866699 240.96537109 11.26538086 241.76855469 C11.17780518 242.50493164 11.09022949 243.24130859 11 244 C10.72265015 245.00015137 10.72265015 245.00015137 10.43969727 246.02050781 C10.19920654 246.62733398 9.95871582 247.23416016 9.7109375 247.859375 C9.30210327 248.69082031 9.30210327 248.69082031 8.88500977 249.5390625 C8.44692993 250.26222656 8.44692993 250.26222656 8 251 C7.41863281 251.69609375 6.83726562 252.3921875 6.23828125 253.109375 C5.60277344 253.65078125 4.96726563 254.1921875 4.3125 254.75 C3.68988281 255.30171875 3.06726563 255.8534375 2.42578125 256.421875 C1.62527344 256.94265625 0.82476562 257.4634375 0 258 C-0.53109375 258.25998779 -1.0621875 258.51997559 -1.609375 258.7878418 C-2.22683594 259.04218994 -2.84429687 259.29653809 -3.48046875 259.55859375 C-4.52376343 259.92718506 -4.52376343 259.92718506 -5.58813477 260.30322266 C-6.38405029 260.53315918 -7.17996582 260.7630957 -8 261 C-8.93062256 261.20028809 -9.86124512 261.40057617 -10.82006836 261.60693359 C-11.84108643 261.79465332 -12.86210449 261.98237305 -13.9140625 262.17578125 C-14.99389404 262.36116455 -16.07372559 262.54654785 -17.1862793 262.73754883 C-18.32105713 262.92728271 -19.45583496 263.1170166 -20.625 263.3125 C-21.21415192 263.41372162 -21.80330383 263.51494324 -22.41030884 263.61923218 C-23.00814178 263.72385773 -23.60597473 263.82848328 -24.22192383 263.9362793 C-25.12387733 264.09727364 -25.12387733 264.09727364 -26.04405212 264.26152039 C-26.94843773 264.42597404 -26.94843773 264.42597404 -27.87109375 264.59375 C-28.47429947 264.70447342 -29.07750519 264.81519684 -29.69898987 264.92927551 C-30.2957402 265.04284897 -30.89249054 265.15642242 -31.50732422 265.2734375 C-32.09374695 265.39058105 -32.68016968 265.50772461 -33.28436279 265.62841797 C-33.85052307 265.75104004 -34.41668335 265.87366211 -35 266 C-36.55678467 266.4021875 -36.55678467 266.4021875 -38.14501953 266.8125 C-39.11938965 267.0909375 -40.09375977 267.369375 -41.09765625 267.65625 C-42.03544922 267.93251221 -42.97324219 268.20877441 -43.93945312 268.4934082 C-44.84630859 268.7637085 -45.75316406 269.03400879 -46.6875 269.3125 C-48.03038086 269.70151489 -48.03038086 269.70151489 -49.40039062 270.09838867 C-50.26986328 270.3379126 -51.13933594 270.57743652 -52.03515625 270.82421875 C-53.29030029 271.14592041 -53.29030029 271.14592041 -54.57080078 271.47412109 C-55.37243652 271.64766113 -56.17407227 271.82120117 -57 272 C-57.75909668 272.10779785 -58.51819336 272.2155957 -59.30029297 272.32666016 C-60.02490723 272.39030762 -60.74952148 272.45395508 -61.49609375 272.51953125 C-62.1907373 272.55127441 -62.88538086 272.58301758 -63.60107422 272.61572266 C-64.60291748 272.62031494 -64.60291748 272.62031494 -65.625 272.625 C-66.27227051 272.60743652 -66.91954102 272.58987305 -67.58642578 272.57177734 C-68.20888184 272.53133301 -68.83133789 272.49088867 -69.47265625 272.44921875 C-70.06965332 272.38524902 -70.66665039 272.3212793 -71.28173828 272.25537109 C-71.84876465 272.17109863 -72.41579102 272.08682617 -73 272 C-74.02996094 271.77957031 -75.05992188 271.55914062 -76.12109375 271.33203125 C-77.09175781 271.03683594 -78.06242187 270.74164063 -79.0625 270.4375 C-80.02285156 270.07269531 -80.98320313 269.70789063 -81.97265625 269.33203125 C-82.97167969 268.89246094 -83.97070312 268.45289063 -85 268 C-85.81573486 267.61400635 -85.81573486 267.61400635 -86.64794922 267.22021484 C-87.21658691 266.94516113 -87.78522461 266.67010742 -88.37109375 266.38671875 C-89.25667969 265.95734009 -89.25667969 265.95734009 -90.16015625 265.51928711 C-91.07087891 265.07661499 -91.07087891 265.07661499 -92 264.625 C-92.91652344 264.17362671 -92.91652344 264.17362671 -93.8515625 263.71313477 C-94.48707031 263.41076904 -95.12257812 263.10840332 -95.77734375 262.796875 C-96.44491699 262.49587891 -97.11249023 262.19488281 -97.80029297 261.88476562 C-98.52619629 261.59279297 -99.25209961 261.30082031 -100 261 C-101.24934326 260.59297852 -101.24934326 260.59297852 -102.52392578 260.17773438 C-103.40419434 259.91798828 -104.28446289 259.65824219 -105.19140625 259.390625 C-106.08150391 259.13458496 -106.97160156 258.87854492 -107.88867188 258.61474609 C-108.77103516 258.37062988 -109.65339844 258.12651367 -110.5625 257.875 C-111.40748047 257.6579541 -112.25246094 257.4409082 -113.12304688 257.21728516 C-113.92935547 256.99862793 -114.73566406 256.7799707 -115.56640625 256.5546875 C-116.32953125 256.32056152 -117.09265625 256.08643555 -117.87890625 255.84521484 C-118.57886719 255.56629395 -119.27882813 255.28737305 -120 255 C-120.61230469 254.62439941 -121.22460938 254.24879883 -121.85546875 253.86181641 C-122.38914062 253.44335449 -122.9228125 253.02489258 -123.47265625 252.59375 C-123.93567139 252.16175293 -124.39868652 251.72975586 -124.87573242 251.28466797 C-125.24674072 250.86072754 -125.61774902 250.43678711 -126 250 C-126.40992187 249.27039063 -126.81984375 248.54078125 -127.2421875 247.7890625 C-127.45101562 247.07492188 -127.65984375 246.36078125 -127.875 245.625 C-128.09929687 244.91601562 -128.32359375 244.20703125 -128.5546875 243.4765625 C-128.77511719 242.25066406 -128.77511719 242.25066406 -129 241 C-129.06223755 239.39620483 -129.06223755 239.39620483 -129.12573242 237.76000977 C-129.12059631 237.13946716 -129.11546021 236.51892456 -129.11016846 235.87957764 C-129.07381287 235.25931702 -129.03745728 234.6390564 -129 234 C-128.79173584 232.93305908 -128.58347168 231.86611816 -128.36889648 230.7668457 C-128.22444595 230.22037888 -128.07999542 229.67391205 -127.9311676 229.11088562 C-127.76696823 228.53417618 -127.60276886 227.95746674 -127.43359375 227.36328125 C-127.17091957 226.41235344 -127.17091957 226.41235344 -126.90293884 225.44221497 C-126.71180008 224.767285 -126.52066132 224.09235504 -126.32373047 223.39697266 C-126.1146405 222.69058655 -125.90555054 221.98420044 -125.69012451 221.25640869 C-125.46238342 220.51179382 -125.23464233 219.76717896 -125 219 C-124.75034485 218.20897888 -124.5006897 217.41795776 -124.24346924 216.60296631 C-123.97766052 215.77927551 -123.71185181 214.95558472 -123.43798828 214.10693359 C-123.16000397 213.25960663 -122.88201965 212.41227966 -122.59561157 211.53927612 C-122.30753632 210.67424469 -122.01946106 209.80921326 -121.72265625 208.91796875 C-121.42741058 208.04431671 -121.13216492 207.17066467 -120.82797241 206.27053833 C-120.3765538 204.9464949 -120.3765538 204.9464949 -119.91601562 203.59570312 C-119.61091064 202.70633057 -119.30580566 201.81695801 -118.99145508 200.90063477 C-118.6848999 200.00530029 -118.37834473 199.10996582 -118.0625 198.1875 C-117.75771729 197.28330322 -117.45293457 196.37910645 -117.13891602 195.44750977 C-116.83590576 194.54766357 -116.53289551 193.64781738 -116.22070312 192.72070312 C-115.91996887 191.83692993 -115.61923462 190.95315674 -115.30938721 190.04260254 C-115.01264099 189.17647339 -114.71589478 188.31034424 -114.41015625 187.41796875 C-114.11921082 186.56746948 -113.82826538 185.71697021 -113.52850342 184.84069824 C-113.24356018 184.02830688 -112.95861694 183.21591553 -112.66503906 182.37890625 C-112.38720581 181.61537842 -112.10937256 180.85185059 -111.82312012 180.06518555 C-111.41567566 179.0429187 -111.41567566 179.0429187 -111 178 C-110.47374023 176.99324219 -109.94748047 175.98648438 -109.40527344 174.94921875 C-108.93766602 174.14484375 -108.47005859 173.34046875 -107.98828125 172.51171875 C-107.4008313 171.40195679 -107.4008313 171.40195679 -106.80151367 170.26977539 C-106.53701416 169.52074951 -106.27251465 168.77172363 -106 168 C-105.9232605 166.6531311 -105.9232605 166.6531311 -105.8449707 165.27905273 C-105.95651489 163.79900757 -105.95651489 163.79900757 -106.0703125 162.2890625 C-106.22064941 161.23517334 -106.37098633 160.18128418 -106.52587891 159.09545898 C-106.62233704 158.53478729 -106.71879517 157.9741156 -106.81817627 157.39645386 C-106.9194281 156.81187408 -107.02067993 156.22729431 -107.125 155.625 C-107.26503448 154.71223801 -107.26503448 154.71223801 -107.40789795 153.78103638 C-107.50322815 153.14439056 -107.59855835 152.50774475 -107.69677734 151.85180664 C-107.79952972 151.18255661 -107.9022821 150.51330658 -108.00814819 149.82377625 C-108.11889679 149.12267227 -108.22964539 148.4215683 -108.34375 147.69921875 C-108.4650528 146.96987625 -108.58635559 146.24053375 -108.71133423 145.48908997 C-108.84268768 144.71844711 -108.97404114 143.94780426 -109.109375 143.15380859 C-109.25020508 142.33636169 -109.39103516 141.51891479 -109.53613281 140.67669678 C-109.68920898 139.79338684 -109.84228516 138.9100769 -110 138 C-110.16983398 137.01743225 -110.33966797 136.0348645 -110.51464844 135.02252197 C-110.69543945 133.97820007 -110.87623047 132.93387817 -111.0625 131.85791016 C-111.25055206 130.77548035 -111.43860413 129.69305054 -111.63235474 128.57781982 C-111.82586517 127.46545959 -112.01937561 126.35309937 -112.21875 125.20703125 C-112.414758 124.07904114 -112.61076599 122.95105103 -112.81271362 121.78887939 C-112.91161959 121.22070244 -113.01052555 120.65252548 -113.11242867 120.06713104 C-113.2118067 119.4969651 -113.31118473 118.92679916 -113.41357422 118.33935547 C-113.51336012 117.76711494 -113.61314602 117.19487442 -113.71595573 116.60529327 C-113.81595438 116.03363182 -113.91595303 115.46197037 -114.01898193 114.87298584 C-114.2189679 113.73927551 -114.41895386 112.60556519 -114.625 111.4375 C-114.8241803 110.33569397 -115.0233606 109.23388794 -115.22857666 108.09869385 C-115.42529968 107.01570007 -115.62202271 105.9327063 -115.82470703 104.81689453 C-116.01723053 103.74621735 -116.20975403 102.67554016 -116.40811157 101.57241821 C-116.59570038 100.51598114 -116.78328918 99.45954407 -116.9765625 98.37109375 C-117.15907562 97.32843353 -117.34158875 96.28577332 -117.52963257 95.21151733 C-117.70354523 94.18329865 -117.87745789 93.15507996 -118.05664062 92.09570312 C-118.21994873 91.08427246 -118.38325684 90.0728418 -118.55151367 89.03076172 C-118.69951416 88.03061035 -118.84751465 87.03045898 -119 86 C-119.12511963 85.00000977 -119.25023926 84.00001953 -119.37915039 82.96972656 C-119.48799561 81.98907227 -119.59684082 81.00841797 -119.70898438 79.99804688 C-119.80521088 79.04793228 -119.90143738 78.09781769 -120.00057983 77.11891174 C-120.08546661 76.21213181 -120.17035339 75.30535187 -120.2578125 74.37109375 C-120.33440094 73.52921005 -120.41098938 72.68732635 -120.48989868 71.81993103 C-120.55655731 71.02784744 -120.62321594 70.23576385 -120.69189453 69.41967773 C-120.74806946 68.67219772 -120.80424438 67.92471771 -120.86212158 67.15458679 C-120.90762146 66.44357315 -120.95312134 65.73255951 -121 65 C-121.03373718 64.30594559 -121.06747437 63.61189117 -121.10223389 62.89680481 C-121.13839813 61.92453194 -121.13839813 61.92453194 -121.17529297 60.93261719 C-121.19994629 59.84110352 -121.22459961 58.74958984 -121.25 57.625 C-121.229375 56.53832031 -121.20875 55.45164063 -121.1875 54.33203125 C-121.125625 53.23246094 -121.06375 52.13289063 -121 51 C-120.95359375 50.38431152 -120.9071875 49.76862305 -120.859375 49.13427734 C-120.80265625 48.49570801 -120.7459375 47.85713867 -120.6875 47.19921875 C-120.62046875 46.55734619 -120.5534375 45.91547363 -120.484375 45.25415039 C-120.40703125 44.61340576 -120.3296875 43.97266113 -120.25 43.3125 C-120.16234375 42.6827124 -120.0746875 42.0529248 -119.984375 41.40405273 C-119.88640625 40.78860596 -119.7884375 40.17315918 -119.6875 39.5390625 C-119.57921875 38.9399707 -119.4709375 38.34087891 -119.359375 37.72363281 C-119.24078125 37.15483398 -119.1221875 36.58603516 -119 36 C-118.731875 34.99710938 -118.46375 33.99421875 -118.1875 32.9609375 C-117.7234375 31.58808594 -117.7234375 31.58808594 -117.25 30.1875 C-116.90195313 29.32382812 -116.55390625 28.46015625 -116.1953125 27.5703125 C-115.80085938 26.72210937 -115.40640625 25.87390625 -115 25 C-114.54367188 24.08992188 -114.08734375 23.17984375 -113.6171875 22.2421875 C-113.12476563 21.35789062 -112.63234375 20.47359375 -112.125 19.5625 C-111.61195312 18.75167969 -111.09890625 17.94085937 -110.5703125 17.10546875 C-110.05210938 16.41066406 -109.53390625 15.71585938 -109 15 C-108.25363281 14.25169922 -108.25363281 14.25169922 -107.4921875 13.48828125 C-106.99976562 13.12089844 -106.50734375 12.75351562 -106 12.375 C-105.01 11.92125 -104.02 11.4675 -103 11 C-102.030625 10.79375 -101.06125 10.5875 -100.0625 10.375 C-99.051875 10.58125 -98.04125 10.7875 -97 11 C-96.40832031 11.34160156 -95.81664062 11.68320312 -95.20703125 12.03515625 C-94.60246094 12.49792969 -93.99789062 12.96070313 -93.375 13.4375 C-92.49908203 14.26314453 -92.49908203 14.26314453 -91.60546875 15.10546875 C-91.07566406 15.73066406 -90.54585937 16.35585938 -90 17 C-89.58363281 17.67675781 -89.16726562 18.35351562 -88.73828125 19.05078125 C-88.39152344 19.77652344 -88.04476562 20.50226562 -87.6875 21.25 C-87.37554687 21.99378906 -87.06359375 22.73757812 -86.7421875 23.50390625 C-86.49726562 24.32761719 -86.25234375 25.15132812 -86 26 C-85.87882812 27.04027344 -85.75765625 28.08054687 -85.6328125 29.15234375 C-85.52710938 30.15394531 -85.42140625 31.15554687 -85.3125 32.1875 C-85.168125 33.03054687 -85.02375 33.87359375 -84.875 34.7421875 C-84.441875 35.36480469 -84.441875 35.36480469 -84 36 C-83.38125 35.50757813 -82.7625 35.01515625 -82.125 34.5078125 C-81.7552002 34.09490967 -81.38540039 33.68200684 -81.00439453 33.2565918 C-80.61106934 32.7800415 -80.21774414 32.30349121 -79.8125 31.8125 C-79.41015137 31.31339111 -79.00780273 30.81428223 -78.59326172 30.30004883 C-78.18865723 29.79755615 -77.78405273 29.29506348 -77.3671875 28.77734375 C-76.76342285 28.03846924 -76.76342285 28.03846924 -76.14746094 27.28466797 C-75.76879883 26.86072754 -75.39013672 26.43678711 -75 26 C-74.38382813 25.54753906 -73.76765625 25.09507813 -73.1328125 24.62890625 C-72.57335937 24.38011719 -72.01390625 24.13132812 -71.4375 23.875 C-70.87804687 23.69582031 -70.31859375 23.51664063 -69.7421875 23.33203125 C-69.16726562 23.22246094 -68.59234375 23.11289062 -68 23 C-67.04480469 22.85111328 -67.04480469 22.85111328 -66.0703125 22.69921875 C-65.40773437 22.65410156 -64.74515625 22.60898437 -64.0625 22.5625 C-63.06476563 22.60697266 -63.06476563 22.60697266 -62.046875 22.65234375 C-61.37140625 22.76707031 -60.6959375 22.88179687 -60 23 C-59.30390625 23.22816406 -58.6078125 23.45632812 -57.890625 23.69140625 C-57.20484375 23.99949219 -56.5190625 24.30757812 -55.8125 24.625 C-55.20019531 24.92664063 -54.58789062 25.22828125 -53.95703125 25.5390625 C-53.31121094 26.02117188 -52.66539063 26.50328125 -52 27 C-51.58637207 27.41685059 -51.17274414 27.83370117 -50.74658203 28.26318359 C-50.09665283 28.99915771 -50.09665283 28.99915771 -49.43359375 29.75 C-49.00973389 30.28189941 -48.58587402 30.81379883 -48.14916992 31.36181641 C-47.58033081 32.17271729 -47.58033081 32.17271729 -47 33 C-46.51015625 33.97710937 -46.0203125 34.95421875 -45.515625 35.9609375 C-45.30719971 36.49871826 -45.09877441 37.03649902 -44.8840332 37.59057617 C-44.67480225 38.17943604 -44.46557129 38.7682959 -44.25 39.375 C-44.01176514 40.02637939 -43.77353027 40.67775879 -43.52807617 41.34887695 C-43.27002197 42.08323975 -43.01196777 42.81760254 -42.74609375 43.57421875 C-42.33786377 44.80857666 -42.33786377 44.80857666 -41.92138672 46.06787109 C-41.6173291 47.03547363 -41.31327148 48.00307617 -41 49 C-40.82430481 49.58138733 -40.64860962 50.16277466 -40.46759033 50.76177979 C-40.28122009 51.38904968 -40.09484985 52.01631958 -39.90283203 52.66259766 C-39.71034882 53.31852905 -39.5178656 53.97446045 -39.31954956 54.65026855 C-39.12257477 55.32900024 -38.92559998 56.00773193 -38.72265625 56.70703125 C-38.42489792 57.74349792 -38.42489792 57.74349792 -38.12112427 58.80090332 C-37.92163177 59.50098511 -37.72213928 60.20106689 -37.51660156 60.92236328 C-37.31683716 61.62846741 -37.11707275 62.33457153 -36.91125488 63.06207275 C-36.71366577 63.76346375 -36.51607666 64.46485474 -36.3125 65.1875 C-36.12022827 65.86955505 -35.92795654 66.55161011 -35.7298584 67.2543335 C-35.54153442 67.92563293 -35.35321045 68.59693237 -35.15917969 69.28857422 C-34.88196579 70.28600647 -34.88196579 70.28600647 -34.59915161 71.30358887 C-34.41818939 71.96008423 -34.23722717 72.61657959 -34.05078125 73.29296875 C-33.87344452 73.93979614 -33.69610779 74.58662354 -33.51339722 75.25305176 C-33.34091461 75.89190308 -33.16843201 76.53075439 -32.99072266 77.18896484 C-32.82397034 77.81881287 -32.65721802 78.44866089 -32.4854126 79.09759521 C-32.24513336 80.03928558 -32.24513336 80.03928558 -32 81 C-31.77132233 81.95909271 -31.77132233 81.95909271 -31.5380249 82.93756104 C-31.39318665 83.56740906 -31.24834839 84.19725708 -31.09912109 84.84619141 C-30.96177048 85.45038406 -30.82441986 86.05457672 -30.6829071 86.67707825 C-30.55422745 87.25415024 -30.42554779 87.83122223 -30.29296875 88.42578125 C-30.06504639 89.47805908 -29.83712402 90.53033691 -29.60229492 91.61450195 C-29.30415894 92.79532349 -29.30415894 92.79532349 -29 94 C-28.67 94.33 -28.34 94.66 -28 95 C-27.58814453 93.68128906 -27.58814453 93.68128906 -27.16796875 92.3359375 C-27.01030029 91.71676956 -26.85263184 91.09760162 -26.69018555 90.45967102 C-26.52429932 89.77172958 -26.35841309 89.08378815 -26.1875 88.375 C-26.02096924 87.68266769 -25.85443848 86.99033539 -25.68286133 86.27702332 C-25.50907959 85.54002701 -25.33529785 84.8030307 -25.15625 84.04370117 C-24.96483932 83.219245 -24.77342865 82.39478882 -24.57621765 81.54534912 C-24.29098991 80.28540131 -24.29098991 80.28540131 -24 79 C-23.83123856 78.22142639 -23.66247711 77.44285278 -23.48860168 76.64068604 C-23.32712143 75.86585876 -23.16564117 75.09103149 -22.99926758 74.29272461 C-22.83861816 73.49311813 -22.67796875 72.69351166 -22.51245117 71.86967468 C-22.3497876 71.03483047 -22.18712402 70.19998627 -22.01953125 69.33984375 C-21.84615234 68.43921707 -21.67277344 67.53859039 -21.49414062 66.610672 C-21.32116455 65.67599594 -21.14818848 64.74131989 -20.9699707 63.77832031 C-20.8032486 62.82759644 -20.63652649 61.87687256 -20.4647522 60.89733887 C-20.31138397 59.94121704 -20.15801575 58.98509521 -20 58 C-19.80946548 56.58877869 -19.80946548 56.58877869 -19.61508179 55.14904785 C-19.50258087 54.21137573 -19.39007996 53.27370361 -19.27416992 52.30761719 C-19.16940842 51.36694397 -19.06464691 50.42627075 -18.95671082 49.45709229 C-18.85755875 48.51605652 -18.75840668 47.57502075 -18.65625 46.60546875 C-18.50866997 45.1948819 -18.50866997 45.1948819 -18.35810852 43.75579834 C-18.26184677 42.81480286 -18.16558502 41.87380737 -18.06640625 40.90429688 C-17.97246582 39.96448975 -17.87852539 39.02468262 -17.78173828 38.05639648 C-17.64227783 36.63629272 -17.64227783 36.63629272 -17.5 35.1875 C-17.36053955 33.73283325 -17.36053955 33.73283325 -17.21826172 32.2487793 C-17.12432129 31.28174072 -17.03038086 30.31470215 -16.93359375 29.31835938 C-16.83477905 28.36923172 -16.73596436 27.42010406 -16.63415527 26.44221497 C-16.53832153 25.52671371 -16.44248779 24.61121246 -16.34375 23.66796875 C-16.22948669 22.38505196 -16.22948669 22.38505196 -16.11291504 21.07621765 C-16.02602417 20.26369034 -15.9391333 19.45116302 -15.84960938 18.61401367 C-15.73915283 17.84036469 -15.62869629 17.0667157 -15.51489258 16.2696228 C-15.34497803 15.52064728 -15.17506348 14.77167175 -15 14 C-14.55853638 12.8640892 -14.55853638 12.8640892 -14.1081543 11.70523071 C-13.59152222 10.63551529 -13.59152222 10.63551529 -13.06445312 9.54418945 C-12.73288208 8.91648148 -12.40131104 8.2887735 -12.05969238 7.64204407 C-11.7099939 7.10016953 -11.36029541 6.55829498 -11 6 C-10.21625 5.21625 -9.4325 4.4325 -8.625 3.625 C-7.75875 3.08875 -6.8925 2.5525 -6 2 C-5.071875 1.525625 -4.14375 1.05125 -3.1875 0.5625 C-2.135625 0.376875 -1.08375 0.19125 0 0 Z M-1 5 C-1.94875 5.433125 -2.8975 5.86625 -3.875 6.3125 C-4.926875 7.1478125 -4.926875 7.1478125 -6 8 C-6 8.66 -6 9.32 -6 10 C-6.66 10 -7.32 10 -8 10 C-8.26433838 10.71397949 -8.52867676 11.42795898 -8.80102539 12.16357422 C-9.04328857 13.1588916 -9.28555176 14.15420898 -9.53515625 15.1796875 C-9.92018311 16.83049316 -9.92018311 16.83049316 -10.31298828 18.51464844 C-10.4329718 19.09259155 -10.55295532 19.67053467 -10.67657471 20.26599121 C-10.78330505 20.83821411 -10.8900354 21.41043701 -11 22 C-11.15065918 23.05477539 -11.30131836 24.10955078 -11.45654297 25.19628906 C-11.57271973 26.2478418 -11.68889648 27.29939453 -11.80859375 28.3828125 C-11.91349121 29.47400391 -12.01838867 30.56519531 -12.12646484 31.68945312 C-12.22910645 32.82318359 -12.33174805 33.95691406 -12.4375 35.125 C-12.49625305 35.72272217 -12.5550061 36.32044434 -12.61553955 36.9362793 C-12.67747498 37.54705322 -12.7394104 38.15782715 -12.80322266 38.78710938 C-12.8666687 39.40410706 -12.93011475 40.02110474 -12.9954834 40.65679932 C-13.09246521 41.58851959 -13.09246521 41.58851959 -13.19140625 42.5390625 C-13.25606079 43.16101501 -13.32071533 43.78296753 -13.3873291 44.42376709 C-13.45303101 45.04350403 -13.51873291 45.66324097 -13.58642578 46.30175781 C-13.65371887 46.91732544 -13.72101196 47.53289307 -13.79034424 48.16711426 C-13.89412384 49.0743927 -13.89412384 49.0743927 -14 50 C-14.10764679 50.87634094 -14.10764679 50.87634094 -14.21746826 51.77038574 C-14.29120667 52.34212524 -14.36494507 52.91386475 -14.44091797 53.50292969 C-14.66932373 55.18370605 -14.66932373 55.18370605 -14.90234375 56.8984375 C-15.05985107 57.99712158 -15.2173584 59.09580566 -15.37963867 60.2277832 C-15.54310791 61.30761475 -15.70657715 62.38744629 -15.875 63.5 C-16.04555908 64.57403076 -16.21611816 65.64806152 -16.3918457 66.75463867 C-16.65421021 68.33208862 -16.65421021 68.33208862 -16.921875 69.94140625 C-17.10041016 70.96250488 -17.27894531 71.98360352 -17.46289062 73.03564453 C-17.72875977 74.50300049 -17.72875977 74.50300049 -18 76 C-18.25040039 77.36874268 -18.25040039 77.36874268 -18.50585938 78.76513672 C-18.67408203 79.63541504 -18.84230469 80.50569336 -19.015625 81.40234375 C-19.28246094 82.66727661 -19.28246094 82.66727661 -19.5546875 83.95776367 C-19.83699219 85.18523315 -19.83699219 85.18523315 -20.125 86.4375 C-20.32351562 87.23454346 -20.52203125 88.03158691 -20.7265625 88.8527832 C-20.94570312 89.6387085 -21.16484375 90.42463379 -21.390625 91.234375 C-21.63490234 92.01361328 -21.87917969 92.79285156 -22.13085938 93.59570312 C-22.41767578 94.38912109 -22.70449219 95.18253906 -23 96 C-23.35900391 96.84240234 -23.71800781 97.68480469 -24.08789062 98.55273438 C-24.48685547 99.40673828 -24.88582031 100.26074219 -25.296875 101.140625 C-25.71525635 101.98230225 -26.1336377 102.82397949 -26.56469727 103.69116211 C-26.99709717 104.51495361 -27.42949707 105.33874512 -27.875 106.1875 C-28.31191162 106.98357666 -28.74882324 107.77965332 -29.19897461 108.59985352 C-29.63218018 109.35709717 -30.06538574 110.11434082 -30.51171875 110.89453125 C-30.93630371 111.60689941 -31.36088867 112.31926758 -31.79833984 113.05322266 C-32.1948877 113.69565918 -32.59143555 114.3380957 -33 115 C-33.33854004 115.53286621 -33.67708008 116.06573242 -34.02587891 116.61474609 C-34.33315918 117.07574707 -34.64043945 117.53674805 -34.95703125 118.01171875 C-35.52808594 118.79160156 -36.09914063 119.57148437 -36.6875 120.375 C-37.23792969 121.02082031 -37.78835937 121.66664062 -38.35546875 122.33203125 C-39.16951172 123.15767578 -39.16951172 123.15767578 -40 124 C-40.57363281 124.54011719 -41.14726563 125.08023438 -41.73828125 125.63671875 C-42.31964844 126.10722656 -42.90101562 126.57773438 -43.5 127.0625 C-44.07363281 127.43632812 -44.64726563 127.81015625 -45.23828125 128.1953125 C-45.81964844 128.46085937 -46.40101562 128.72640625 -47 129 C-47.61230469 129.12117188 -48.22460938 129.24234375 -48.85546875 129.3671875 C-49.46003906 129.39039063 -50.06460938 129.41359375 -50.6875 129.4375 C-51.780625 129.293125 -52.87375 129.14875 -54 129 C-54.67933594 128.73574219 -55.35867187 128.47148437 -56.05859375 128.19921875 C-56.69925781 127.80347656 -57.33992188 127.40773438 -58 127 C-58.42023438 126.47148437 -58.84046875 125.94296875 -59.2734375 125.3984375 C-59.63695312 124.73070312 -60.00046875 124.06296875 -60.375 123.375 C-60.79910156 122.55386719 -61.22320312 121.73273438 -61.66015625 120.88671875 C-62.10230469 119.93410156 -62.54445312 118.98148437 -63 118 C-63.45246094 116.95457031 -63.90492187 115.90914063 -64.37109375 114.83203125 C-64.60570312 114.25155029 -64.8403125 113.67106934 -65.08203125 113.07299805 C-65.32308594 112.45078369 -65.56414062 111.82856934 -65.8125 111.1875 C-66.06 110.52596924 -66.3075 109.86443848 -66.5625 109.18286133 C-66.81902344 108.46509521 -67.07554688 107.7473291 -67.33984375 107.0078125 C-67.60651855 106.22696289 -67.87319336 105.44611328 -68.14794922 104.64160156 C-68.42912598 103.76987305 -68.71030273 102.89814453 -69 102 C-69.30309082 100.98905273 -69.60618164 99.97810547 -69.91845703 98.93652344 C-70.23540527 97.84114258 -70.55235352 96.74576172 -70.87890625 95.6171875 C-71.04081451 95.05043304 -71.20272278 94.48367859 -71.36953735 93.89974976 C-71.53343964 93.32197784 -71.69734192 92.74420593 -71.86621094 92.14892578 C-72.03197632 91.56097229 -72.1977417 90.9730188 -72.36853027 90.36724854 C-72.53566528 89.77168152 -72.70280029 89.1761145 -72.875 88.5625 C-73.04294067 87.9616156 -73.21088135 87.3607312 -73.38391113 86.74163818 C-73.55273804 86.13708801 -73.72156494 85.53253784 -73.89550781 84.90966797 C-74.06515045 84.30359711 -74.23479309 83.69752625 -74.40957642 83.0730896 C-74.66509781 82.16292587 -74.66509781 82.16292587 -74.92578125 81.234375 C-75.09685394 80.62655182 -75.26792664 80.01872864 -75.44418335 79.39248657 C-75.61551788 78.78923553 -75.78685242 78.1859845 -75.96337891 77.56445312 C-76.13468323 76.96882568 -76.30598755 76.37319824 -76.48248291 75.75952148 C-76.65326355 75.17887939 -76.82404419 74.5982373 -77 74 C-77.33821777 72.90880859 -77.67643555 71.81761719 -78.02490234 70.69335938 C-78.52884521 69.12038086 -78.52884521 69.12038086 -79.04296875 67.515625 C-79.37731934 66.48405273 -79.71166992 65.45248047 -80.05615234 64.38964844 C-80.38824707 63.37418945 -80.7203418 62.35873047 -81.0625 61.3125 C-81.3920166 60.30735352 -81.7215332 59.30220703 -82.06103516 58.26660156 C-82.38765137 57.26081055 -82.71426758 56.25501953 -83.05078125 55.21875 C-83.37385254 54.20941406 -83.69692383 53.20007812 -84.02978516 52.16015625 C-84.34995605 51.11730469 -84.67012695 50.07445312 -85 49 C-85.23973541 48.1642041 -85.23973541 48.1642041 -85.48431396 47.31152344 C-85.64337219 46.74079102 -85.80243042 46.17005859 -85.96630859 45.58203125 C-86.12397202 45.00689285 -86.28163544 44.43175446 -86.44407654 43.83918762 C-86.60046097 43.26319321 -86.7568454 42.68719879 -86.91796875 42.09375 C-87.07342667 41.52335495 -87.22888458 40.9529599 -87.38905334 40.36528015 C-87.54224533 39.80089737 -87.69543732 39.23651459 -87.85327148 38.6550293 C-88.14919189 37.55199463 -88.4451123 36.44895996 -88.75 35.3125 C-89.01949463 34.26682861 -89.28898926 33.22115723 -89.56665039 32.14379883 C-89.82824951 31.16435303 -90.08984863 30.18490723 -90.359375 29.17578125 C-90.62041016 28.26908691 -90.88144531 27.36239258 -91.15039062 26.42822266 C-91.43076172 25.62690918 -91.71113281 24.8255957 -92 24 C-92.33708984 23.35208496 -92.67417969 22.70416992 -93.02148438 22.03662109 C-93.37017578 21.50246582 -93.71886719 20.96831055 -94.078125 20.41796875 C-94.71234375 19.62003906 -95.3465625 18.82210938 -96 18 C-96.66 17.34 -97.32 16.68 -98 16 C-98.763125 15.835 -99.52625 15.67 -100.3125 15.5 C-101.199375 15.665 -102.08625 15.83 -103 16 C-103.825 16.721875 -104.65 17.44375 -105.5 18.1875 C-105.90992188 18.73148438 -106.31984375 19.27546875 -106.7421875 19.8359375 C-107.15726563 20.55007812 -107.57234375 21.26421875 -108 22 C-108.43570313 22.98226563 -108.87140625 23.96453125 -109.3203125 24.9765625 C-109.53880859 25.5228833 -109.75730469 26.0692041 -109.98242188 26.63208008 C-110.19447266 27.18661865 -110.40652344 27.74115723 -110.625 28.3125 C-111.00914063 29.36050781 -111.39328125 30.40851562 -111.7890625 31.48828125 C-111.97927979 32.04652588 -112.16949707 32.60477051 -112.36547852 33.17993164 C-112.57487061 33.7805542 -112.7842627 34.38117676 -113 35 C-113.26546631 35.66700928 -113.53093262 36.33401855 -113.80444336 37.02124023 C-114.07651611 37.74126221 -114.34858887 38.46128418 -114.62890625 39.203125 C-114.88124023 39.96794189 -115.13357422 40.73275879 -115.39355469 41.52075195 C-115.69374512 42.74797974 -115.69374512 42.74797974 -116 44 C-116.08926758 44.88324951 -116.17853516 45.76649902 -116.27050781 46.67651367 C-116.30112305 47.6069751 -116.33173828 48.53743652 -116.36328125 49.49609375 C-116.36400635 50.45894287 -116.36473145 51.42179199 -116.36547852 52.41381836 C-116.34799561 53.4116333 -116.3305127 54.40944824 -116.3125 55.4375 C-116.303396 56.47849854 -116.29429199 57.51949707 -116.28491211 58.59204102 C-116.26823486 59.64447998 -116.25155762 60.69691895 -116.234375 61.78125 C-116.20279297 62.82410156 -116.17121094 63.86695313 -116.13867188 64.94140625 C-116.09291016 65.95074219 -116.04714844 66.96007812 -116 68 C-115.93619141 68.93972656 -115.87238281 69.87945312 -115.80664062 70.84765625 C-115.73123047 71.73324219 -115.65582031 72.61882812 -115.578125 73.53125 C-115.49522217 74.36470947 -115.41231934 75.19816895 -115.3269043 76.05688477 C-115.23965088 76.84248779 -115.15239746 77.62809082 -115.0625 78.4375 C-114.97589111 79.19409912 -114.88928223 79.95069824 -114.80004883 80.73022461 C-114.71263428 81.41608643 -114.62521973 82.10194824 -114.53515625 82.80859375 C-114.27025391 84.38833984 -114.27025391 84.38833984 -114 86 C-113.67 86.33 -113.34 86.66 -113 87 C-112.91878906 87.721875 -112.83757812 88.44375 -112.75390625 89.1875 C-112.69074219 90.115625 -112.62757812 91.04375 -112.5625 92 C-112.48 93.00160156 -112.3975 94.00320312 -112.3125 95.03515625 C-112.209375 96.01355469 -112.10625 96.99195312 -112 98 C-111.855625 98.76183594 -111.71125 99.52367188 -111.5625 100.30859375 C-111.3975 101.01113281 -111.2325 101.71367188 -111.0625 102.4375 C-110.88976562 103.1490625 -110.71703125 103.860625 -110.5390625 104.59375 C-110.36117187 105.3878125 -110.18328125 106.181875 -110 107 C-109.82210937 108.0415625 -109.64421875 109.083125 -109.4609375 110.15625 C-109.20183594 111.78046875 -109.20183594 111.78046875 -108.9375 113.4375 C-108.78152344 114.44683594 -108.62554687 115.45617187 -108.46484375 116.49609375 C-108.31144531 117.32238281 -108.15804687 118.14867188 -108 119 C-107.67 119.66 -107.34 120.32 -107 121 C-106.91878906 121.89847656 -106.83757812 122.79695313 -106.75390625 123.72265625 C-106.69074219 124.82480469 -106.62757812 125.92695313 -106.5625 127.0625 C-106.50191406 128.14660156 -106.44132812 129.23070312 -106.37890625 130.34765625 C-106.33233887 130.93119873 -106.28577148 131.51474121 -106.23779297 132.1159668 C-106.15932129 132.73769775 -106.08084961 133.35942871 -106 134 C-105.85578613 134.67135986 -105.71157227 135.34271973 -105.56298828 136.03442383 C-105.39138184 136.75267334 -105.21977539 137.47092285 -105.04296875 138.2109375 C-104.86435303 138.97059814 -104.6857373 139.73025879 -104.50170898 140.51293945 C-104.33614502 141.33366943 -104.17058105 142.15439941 -104 143 C-103.885354 143.91676514 -103.77070801 144.83353027 -103.65258789 145.77807617 C-103.55582764 146.7394751 -103.45906738 147.70087402 -103.359375 148.69140625 C-103.25753906 149.65498047 -103.15570313 150.61855469 -103.05078125 151.61132812 C-102.95152344 152.58521484 -102.85226563 153.55910156 -102.75 154.5625 C-102.66621094 155.57119141 -102.58242187 156.57988281 -102.49609375 157.61914062 C-102.38910156 158.57111328 -102.28210938 159.52308594 -102.171875 160.50390625 C-102.02814453 161.35355957 -101.88441406 162.20321289 -101.73632812 163.07861328 C-101.49333984 163.7126709 -101.25035156 164.34672852 -101 165 C-100.01515625 165.23589844 -99.0303125 165.47179687 -98.015625 165.71484375 C-96.52289063 165.36099609 -96.52289063 165.36099609 -95 165 C-94.34 164.67 -93.68 164.34 -93 164 C-92.0207959 163.94682617 -91.0415918 163.89365234 -90.03271484 163.83886719 C-89.42874878 163.82940567 -88.82478271 163.81994415 -88.20251465 163.81019592 C-87.21668396 163.80360207 -87.21668396 163.80360207 -86.2109375 163.796875 C-85.52390747 163.78986069 -84.83687744 163.78284637 -84.12902832 163.77561951 C-83.05171448 163.76716759 -83.05171448 163.76716759 -81.95263672 163.75854492 C-81.20560486 163.75631927 -80.458573 163.75409363 -79.68890381 163.75180054 C-78.92531555 163.75120636 -78.16172729 163.75061218 -77.375 163.75 C-76.60835022 163.74932526 -75.84170044 163.74865051 -75.05181885 163.74795532 C-74.2807782 163.7490329 -73.50973755 163.75011047 -72.71533203 163.7512207 C-71.94246857 163.75522385 -71.1696051 163.75922699 -70.37332153 163.76335144 C-69.21399612 163.77414482 -69.21399612 163.77414482 -68.03125 163.78515625 C-67.25586884 163.79601761 -66.48048767 163.80687897 -65.68161011 163.81806946 C-64.91913971 163.83315048 -64.15666931 163.84823151 -63.37109375 163.86376953 C-62.63004395 163.88336731 -61.88899414 163.90296509 -61.12548828 163.92315674 C-60.42407715 163.94851501 -59.72266602 163.97387329 -59 164 C-58.36819824 164.03309265 -57.73639648 164.0661853 -57.08544922 164.10028076 C-56.49650879 164.13921448 -55.90756836 164.17814819 -55.30078125 164.21826172 C-54.20121094 164.30994629 -53.10164063 164.40163086 -51.96875 164.49609375 C-50.93556641 164.6034082 -49.90238281 164.71072266 -48.83789062 164.82128906 C-47.86013672 164.94213867 -46.88238281 165.06298828 -45.875 165.1875 C-44.91787109 165.31737305 -43.96074219 165.44724609 -42.97460938 165.58105469 C-42.05486328 165.72317383 -41.13511719 165.86529297 -40.1875 166.01171875 C-39.31351562 166.16688965 -38.43953125 166.32206055 -37.5390625 166.48193359 C-36.28222656 166.73837646 -36.28222656 166.73837646 -35 167 C-33.78183594 167.28931396 -33.78183594 167.28931396 -32.5390625 167.58447266 C-31.76304688 167.78991699 -30.98703125 167.99536133 -30.1875 168.20703125 C-29.08365967 168.52667847 -29.08365967 168.52667847 -27.95751953 168.8527832 C-27.27028809 169.06636475 -26.58305664 169.27994629 -25.875 169.5 C-25.25351074 169.70133545 -24.63202148 169.9026709 -23.99169922 170.11010742 C-23.41436035 170.31095947 -22.83702148 170.51181152 -22.2421875 170.71875 C-21.17226562 171.1415625 -20.10234375 171.564375 -19 172 C-18.44344727 172.27199219 -17.88689453 172.54398438 -17.31347656 172.82421875 C-16.51248535 173.23607422 -16.51248535 173.23607422 -15.6953125 173.65625 C-14.80585937 174.0996875 -13.91640625 174.543125 -13 175 C-12.34 175 -11.68 175 -11 175 C-10.66613281 173.98421875 -10.33226562 172.9684375 -9.98828125 171.921875 C-9.82279785 171.28056641 -9.65731445 170.63925781 -9.48681641 169.97851562 C-9.32616699 169.32560547 -9.16551758 168.67269531 -9 168 C-8.70480469 166.89140625 -8.40960938 165.7828125 -8.10546875 164.640625 C-7.95754883 164.08842285 -7.80962891 163.5362207 -7.65722656 162.96728516 C-7.5022168 162.40058105 -7.34720703 161.83387695 -7.1875 161.25 C-7.01573242 160.64075684 -6.84396484 160.03151367 -6.66699219 159.40380859 C-6.4868457 158.78844238 -6.30669922 158.17307617 -6.12109375 157.5390625 C-5.84434814 156.63462402 -5.84434814 156.63462402 -5.56201172 155.71191406 C-5.37654785 155.14698242 -5.19108398 154.58205078 -5 154 C-4.64035156 153.07960937 -4.28070313 152.15921875 -3.91015625 151.2109375 C-3.52730469 150.35757813 -3.14445312 149.50421875 -2.75 148.625 C-2.33363281 147.75488281 -1.91726562 146.88476562 -1.48828125 145.98828125 C-0.99714844 145.00214844 -0.50601563 144.01601562 0 143 C0.31018066 142.37270996 0.62036133 141.74541992 0.93994141 141.09912109 C1.27558105 140.42059082 1.6112207 139.74206055 1.95703125 139.04296875 C2.30411133 138.34413574 2.65119141 137.64530273 3.00878906 136.92529297 C3.35651367 136.22807129 3.70423828 135.53084961 4.0625 134.8125 C4.39088867 134.15910645 4.71927734 133.50571289 5.05761719 132.83251953 C5.38020508 132.1929834 5.70279297 131.55344727 6.03515625 130.89453125 C6.35887207 130.25427002 6.68258789 129.61400879 7.01611328 128.9543457 C7.3407959 128.30941162 7.66547852 127.66447754 8 127 C8.3285498 126.33637451 8.65709961 125.67274902 8.99560547 124.98901367 C9.3257666 124.32232666 9.65592773 123.65563965 9.99609375 122.96875 C10.32665771 122.30528564 10.65722168 121.64182129 10.99780273 120.95825195 C11.32852783 120.31202881 11.65925293 119.66580566 12 119 C12.33008057 118.39824951 12.66016113 117.79649902 13.00024414 117.17651367 C13.49512329 116.29056519 13.49512329 116.29056519 14 115.38671875 C14.32798584 114.78794922 14.65597168 114.18917969 14.99389648 113.57226562 C15.32591064 112.95029297 15.6579248 112.32832031 16 111.6875 C16.34812744 111.01525391 16.69625488 110.34300781 17.05493164 109.65039062 C17.39903076 108.94462891 17.74312988 108.23886719 18.09765625 107.51171875 C18.42652832 106.78388184 18.75540039 106.05604492 19.09423828 105.30615234 C19.39313965 104.54512207 19.69204102 103.7840918 20 103 C20.24347168 102.18869629 20.48694336 101.37739258 20.73779297 100.54150391 C21.05127686 99.29312744 21.05127686 99.29312744 21.37109375 98.01953125 C21.55736328 97.18397705 21.74363281 96.34842285 21.93554688 95.48754883 C22.10119141 94.66665771 22.26683594 93.8457666 22.4375 93 C22.66469727 91.83537231 22.66469727 91.83537231 22.89648438 90.6472168 C23.03248047 89.89738525 23.16847656 89.14755371 23.30859375 88.375 C23.4286377 87.6423291 23.54868164 86.9096582 23.67236328 86.15478516 C23.7804834 85.44370605 23.88860352 84.73262695 24 84 C24.1016748 83.31341309 24.20334961 82.62682617 24.30810547 81.91943359 C24.44369873 80.91904053 24.44369873 80.91904053 24.58203125 79.8984375 C24.65881104 79.24584961 24.73559082 78.59326172 24.81469727 77.92089844 C24.87584717 77.28700195 24.93699707 76.65310547 25 76 C25.06175415 75.09169434 25.06175415 75.09169434 25.12475586 74.16503906 C25.15061768 73.5665918 25.17647949 72.96814453 25.203125 72.3515625 C25.22221924 71.44700317 25.22221924 71.44700317 25.24169922 70.52416992 C25.24443848 69.89744385 25.24717773 69.27071777 25.25 68.625 C25.24830811 67.60079956 25.24830811 67.60079956 25.24658203 66.5559082 C25.23481934 65.84523193 25.22305664 65.13455566 25.2109375 64.40234375 C25.18483398 63.67901855 25.15873047 62.95569336 25.13183594 62.21044922 C25.08833008 61.48100098 25.04482422 60.75155273 25 60 C24.89993652 58.91936279 24.89993652 58.91936279 24.79785156 57.81689453 C24.71245117 57.0948584 24.62705078 56.37282227 24.5390625 55.62890625 C24.437146 54.89921631 24.33522949 54.16952637 24.23022461 53.41772461 C24.11300049 52.68175049 23.99577637 51.94577637 23.875 51.1875 C23.74552979 50.4457251 23.61605957 49.7039502 23.48266602 48.93969727 C23.33756592 48.18873779 23.19246582 47.43777832 23.04296875 46.6640625 C22.88103027 45.90383789 22.7190918 45.14361328 22.55224609 44.36035156 C22.37000488 43.58143555 22.18776367 42.80251953 22 42 C21.79068848 41.18499023 21.58137695 40.36998047 21.36572266 39.53027344 C21.13804199 38.70301758 20.91036133 37.87576172 20.67578125 37.0234375 C20.43545166 36.20037109 20.19512207 35.37730469 19.94750977 34.52929688 C19.69670654 33.71525391 19.44590332 32.90121094 19.1875 32.0625 C18.92960693 31.26392578 18.67171387 30.46535156 18.40600586 29.64257812 C18.14311768 28.87107422 17.88022949 28.09957031 17.609375 27.3046875 C17.34318359 26.56702148 17.07699219 25.82935547 16.80273438 25.06933594 C16.53783203 24.38645508 16.27292969 23.70357422 16 23 C15.61424805 22.10716309 15.61424805 22.10716309 15.22070312 21.19628906 C14.84075195 20.39143066 14.84075195 20.39143066 14.453125 19.5703125 C13.95296875 18.61898438 13.4528125 17.66765625 12.9375 16.6875 C12.44121094 15.85863281 11.94492188 15.02976562 11.43359375 14.17578125 C10.96050781 13.45777344 10.48742187 12.73976563 10 12 C9.36771484 11.03126953 9.36771484 11.03126953 8.72265625 10.04296875 C8.11744141 9.21732422 8.11744141 9.21732422 7.5 8.375 C6.675 7.59125 5.85 6.8075 5 6 C4.01 5.649375 3.02 5.29875 2 4.9375 C1.01 4.958125 0.02 4.97875 -1 5 Z M-87 167 C-87.67434082 167.07734375 -88.34868164 167.1546875 -89.04345703 167.234375 C-89.63884277 167.33234375 -90.23422852 167.4303125 -90.84765625 167.53125 C-91.88792969 167.7684375 -92.92820312 168.005625 -94 168.25 C-95.299375 168.59804687 -95.299375 168.59804687 -96.625 168.953125 C-97.800625 169.47132813 -97.800625 169.47132813 -99 170 C-99.86496094 170.55300781 -100.72992188 171.10601562 -101.62109375 171.67578125 C-102.40613281 172.44277344 -103.19117187 173.20976562 -104 174 C-104.29406738 174.50160645 -104.58813477 175.00321289 -104.89111328 175.52001953 C-105.14489746 176.07931152 -105.39868164 176.63860352 -105.66015625 177.21484375 C-105.89669922 177.82005859 -106.13324219 178.42527344 -106.37695312 179.04882812 C-106.71629883 179.9837207 -106.71629883 179.9837207 -107.0625 180.9375 C-107.29259766 181.52595703 -107.52269531 182.11441406 -107.75976562 182.72070312 C-107.99501953 183.33751953 -108.23027344 183.95433594 -108.47265625 184.58984375 C-108.7154834 185.26869629 -108.95831055 185.94754883 -109.20849609 186.64697266 C-109.46969238 187.42347168 -109.73088867 188.1999707 -110 189 C-110.29342285 189.94020996 -110.5868457 190.88041992 -110.88916016 191.84912109 C-111.20804199 192.89535645 -111.52692383 193.9415918 -111.85546875 195.01953125 C-112.02182327 195.56892868 -112.1881778 196.11832611 -112.35957336 196.68437195 C-112.53216171 197.25138321 -112.70475006 197.81839447 -112.88256836 198.40258789 C-113.06222137 198.98751007 -113.24187439 199.57243225 -113.42697144 200.17507935 C-113.71062057 201.07841507 -113.71062057 201.07841507 -114 202 C-114.30455612 202.93076859 -114.30455612 202.93076859 -114.61526489 203.88034058 C-114.82674164 204.51464996 -115.03821838 205.14895935 -115.25610352 205.80249023 C-115.47275162 206.44741928 -115.68939972 207.09234833 -115.91261292 207.75682068 C-116.1322319 208.4094136 -116.35185089 209.06200653 -116.578125 209.734375 C-116.79681747 210.39047256 -117.01550995 211.04657013 -117.24082947 211.72254944 C-117.46041824 212.38258469 -117.68000702 213.04261993 -117.90625 213.72265625 C-118.12667969 214.38539551 -118.34710938 215.04813477 -118.57421875 215.73095703 C-118.79722656 216.39724121 -119.02023438 217.06352539 -119.25 217.75 C-119.48009766 218.42337402 -119.71019531 219.09674805 -119.94726562 219.79052734 C-120.17607422 220.46164551 -120.40488281 221.13276367 -120.640625 221.82421875 C-120.86174957 222.48584518 -121.08287415 223.14747162 -121.31069946 223.82914734 C-121.52269989 224.47849747 -121.73470032 225.1278476 -121.953125 225.796875 C-122.15505463 226.43128006 -122.35698425 227.06568512 -122.56503296 227.71931458 C-122.74901642 228.33119125 -122.93299988 228.94306793 -123.12255859 229.57348633 C-123.2845575 230.15820709 -123.4465564 230.74292786 -123.61346436 231.34536743 C-123.74102112 231.89139618 -123.86857788 232.43742493 -124 233 C-124.11037598 233.93674561 -124.22075195 234.87349121 -124.33447266 235.83862305 C-124.34526855 236.63308838 -124.35606445 237.42755371 -124.3671875 238.24609375 C-124.32247314 239.2350061 -124.32247314 239.2350061 -124.27685547 240.24389648 C-124.18549316 240.82341064 -124.09413086 241.4029248 -124 242 C-123.62875 243.093125 -123.2575 244.18625 -122.875 245.3125 C-121.946875 246.6428125 -121.946875 246.6428125 -121 248 C-120.13246094 248.67417969 -119.26492187 249.34835938 -118.37109375 250.04296875 C-117.57203613 250.55573364 -117.57203613 250.55573364 -116.75683594 251.07885742 C-116.17708008 251.38283447 -115.59732422 251.68681152 -115 252 C-114.39188477 252.20794189 -113.78376953 252.41588379 -113.15722656 252.63012695 C-112.52139648 252.79343506 -111.88556641 252.95674316 -111.23046875 253.125 C-110.24590698 253.34518799 -110.24590698 253.34518799 -109.24145508 253.56982422 C-108.5636499 253.71178223 -107.88584473 253.85374023 -107.1875 254 C-106.47682373 254.16387207 -105.76614746 254.32774414 -105.03393555 254.49658203 C-104.32922119 254.66528809 -103.62450684 254.83399414 -102.8984375 255.0078125 C-102.22006836 255.17313477 -101.54169922 255.33845703 -100.84277344 255.50878906 C-100.2346582 255.67088867 -99.62654297 255.83298828 -99 256 C-97.71996094 256.46019531 -97.71996094 256.46019531 -96.4140625 256.9296875 C-95.37378906 257.39761719 -95.37378906 257.39761719 -94.3125 257.875 C-93.64476563 258.19855469 -92.97703125 258.52210938 -92.2890625 258.85546875 C-91.53367188 259.23316406 -90.77828125 259.61085938 -90 260 C-89.48276367 260.24572754 -88.96552734 260.49145508 -88.43261719 260.74462891 C-87.86446289 261.01065918 -87.29630859 261.27668945 -86.7109375 261.55078125 C-85.83828247 261.95611084 -85.83828247 261.95611084 -84.94799805 262.36962891 C-84.36703369 262.63952637 -83.78606934 262.90942383 -83.1875 263.1875 C-82.63553955 263.44966309 -82.0835791 263.71182617 -81.51489258 263.98193359 C-80.98790771 264.2289502 -80.46092285 264.4759668 -79.91796875 264.73046875 C-78.95503906 265.14941406 -77.99210937 265.56835938 -77 266 C-76.36191406 266.21914063 -75.72382812 266.43828125 -75.06640625 266.6640625 C-74.38449219 266.77492188 -73.70257813 266.88578125 -73 267 C-71.88109375 267.05542969 -70.7621875 267.11085938 -69.609375 267.16796875 C-68.98643555 267.17538086 -68.36349609 267.18279297 -67.72167969 267.19042969 C-67.07102539 267.18946289 -66.42037109 267.18849609 -65.75 267.1875 C-64.73921387 267.18411621 -64.73921387 267.18411621 -63.70800781 267.18066406 C-63.04124023 267.17131836 -62.37447266 267.16197266 -61.6875 267.15234375 C-60.72263672 267.12309814 -60.72263672 267.12309814 -59.73828125 267.09326172 C-58.87783203 267.04709717 -58.87783203 267.04709717 -58 267 C-56.824375 266.84724609 -56.824375 266.84724609 -55.625 266.69140625 C-54.696875 266.47291016 -54.696875 266.47291016 -53.75 266.25 C-53.18853271 266.07364014 -52.62706543 265.89728027 -52.04858398 265.71557617 C-51.37255127 265.47943604 -50.69651855 265.2432959 -50 265 C-49.28593994 264.70577148 -48.57187988 264.41154297 -47.83618164 264.10839844 C-46.60436157 263.61388184 -46.60436157 263.61388184 -45.34765625 263.109375 C-44.37554199 262.75456055 -43.40342773 262.39974609 -42.40185547 262.03417969 C-41.86195984 261.85834351 -41.32206421 261.68250732 -40.76580811 261.50134277 C-40.18309143 261.33589966 -39.60037476 261.17045654 -39 261 C-38.36153137 260.85808228 -37.72306274 260.71616455 -37.06524658 260.56994629 C-36.38903259 260.44019409 -35.7128186 260.31044189 -35.01611328 260.17675781 C-34.31362457 260.05278625 -33.61113586 259.9288147 -32.88735962 259.80108643 C-32.16527313 259.68110291 -31.44318665 259.56111938 -30.69921875 259.4375 C-29.60291641 259.25679962 -29.60291641 259.25679962 -28.48446655 259.07244873 C-27.74386993 258.95315002 -27.00327332 258.83385132 -26.24023438 258.7109375 C-25.11814575 258.53449707 -25.11814575 258.53449707 -23.97338867 258.35449219 C-23.21904541 258.23750977 -22.46470215 258.12052734 -21.6875 258 C-20.92429443 257.88301758 -20.16108887 257.76603516 -19.37475586 257.64550781 C-18.23695679 257.46906738 -18.23695679 257.46906738 -17.07617188 257.2890625 C-16.33123978 257.16732666 -15.58630768 257.04559082 -14.81880188 256.92016602 C-13.73867073 256.74312134 -13.73867073 256.74312134 -12.63671875 256.5625 C-11.95848557 256.46445068 -11.28025238 256.36640137 -10.58146667 256.26538086 C-9.9367189 256.15846924 -9.29197113 256.05155762 -8.62768555 255.94140625 C-8.01516937 255.81314453 -7.4026532 255.68488281 -6.77157593 255.55273438 C-5.89464584 255.27913086 -5.89464584 255.27913086 -5 255 C-4.43028473 254.70416016 -3.86056946 254.40832031 -3.27359009 254.10351562 C-2.74349335 253.76126953 -2.21339661 253.41902344 -1.66723633 253.06640625 C-0.34695435 252.04353516 -0.34695435 252.04353516 1 251 C1.763125 250.13375 2.52625 249.2675 3.3125 248.375 C4.1478125 247.199375 4.1478125 247.199375 5 246 C5.33 245.34 5.66 244.68 6 244 C6.09023437 242.88238281 6.18046875 241.76476562 6.2734375 240.61328125 C6.30775879 239.58750977 6.30775879 239.58750977 6.34277344 238.54101562 C6.3534082 237.80560547 6.36404297 237.07019531 6.375 236.3125 C6.38047852 235.55517578 6.38595703 234.79785156 6.39160156 234.01757812 C6.37178223 232.85838867 6.37178223 232.85838867 6.3515625 231.67578125 C6.31321289 230.89412598 6.27486328 230.1124707 6.23535156 229.30712891 C6.11885254 228.1651001 6.11885254 228.1651001 6 227 C5.78682129 225.9488501 5.78682129 225.9488501 5.56933594 224.87646484 C5.38918945 224.20953613 5.20904297 223.54260742 5.0234375 222.85546875 C4.71720459 221.87936646 4.71720459 221.87936646 4.40478516 220.88354492 C4.18870605 220.2619751 3.97262695 219.64040527 3.75 219 C3.54552246 218.42677002 3.34104492 217.85354004 3.13037109 217.26293945 C2.91719238 216.70179443 2.70401367 216.14064941 2.484375 215.5625 C2.25379395 214.99176758 2.02321289 214.42103516 1.78564453 213.83300781 C1.52638184 213.22811523 1.26711914 212.62322266 1 212 C0.68788574 211.3203418 0.37577148 210.64068359 0.05419922 209.94042969 C-0.2807959 209.21243164 -0.61579102 208.48443359 -0.9609375 207.734375 C-1.30253906 206.97447266 -1.64414063 206.21457031 -1.99609375 205.43164062 C-2.32738281 204.62919922 -2.65867187 203.82675781 -3 203 C-3.29003906 202.14083984 -3.58007812 201.28167969 -3.87890625 200.39648438 C-4.15347656 199.50767578 -4.42804688 198.61886719 -4.7109375 197.703125 C-4.98679687 196.80722656 -5.26265625 195.91132813 -5.546875 194.98828125 C-5.95679688 193.63283203 -5.95679688 193.63283203 -6.375 192.25 C-6.77332031 190.87134766 -6.77332031 190.87134766 -7.1796875 189.46484375 C-7.458125 188.57410156 -7.7365625 187.68335938 -8.0234375 186.765625 C-8.3210498 185.9288623 -8.61866211 185.09209961 -8.92529297 184.22998047 C-9.27994629 183.49408691 -9.63459961 182.75819336 -10 182 C-10.47969238 181.44070801 -10.95938477 180.88141602 -11.45361328 180.30517578 C-11.9742334 179.86157715 -12.49485352 179.41797852 -13.03125 178.9609375 C-13.51916016 178.60821777 -14.00707031 178.25549805 -14.50976562 177.89208984 C-15.00154297 177.5977002 -15.49332031 177.30331055 -16 177 C-16.80932983 176.55865723 -16.80932983 176.55865723 -17.63500977 176.10839844 C-18.37255493 175.74536621 -18.37255493 175.74536621 -19.125 175.375 C-19.72183594 175.14554688 -20.31867188 174.91609375 -20.93359375 174.6796875 C-21.61550781 174.45539063 -22.29742187 174.23109375 -23 174 C-23.79535156 173.75507813 -24.59070313 173.51015625 -25.41015625 173.2578125 C-26.32667969 173.00773438 -27.24320312 172.75765625 -28.1875 172.5 C-29.21101563 172.25507813 -30.23453125 172.01015625 -31.2890625 171.7578125 C-31.8655957 171.63438477 -32.44212891 171.51095703 -33.03613281 171.38378906 C-33.68420898 171.25713867 -34.33228516 171.13048828 -35 171 C-35.76666992 170.86561523 -36.53333984 170.73123047 -37.32324219 170.59277344 C-38.56702637 170.3882959 -38.56702637 170.3882959 -39.8359375 170.1796875 C-41.11645996 169.9782312 -41.11645996 169.9782312 -42.42285156 169.77270508 C-43.29393555 169.6414624 -44.16501953 169.51021973 -45.0625 169.375 C-45.94131836 169.24826904 -46.82013672 169.12153809 -47.72558594 168.9909668 C-48.5818457 168.87148682 -49.43810547 168.75200684 -50.3203125 168.62890625 C-51.54862793 168.46285889 -51.54862793 168.46285889 -52.80175781 168.29345703 C-53.52717773 168.19661621 -54.25259766 168.09977539 -55 168 C-56.48113281 167.79697266 -56.48113281 167.79697266 -57.9921875 167.58984375 C-58.79914063 167.49832031 -59.60609375 167.40679687 -60.4375 167.3125 C-61.2521875 167.25191406 -62.066875 167.19132813 -62.90625 167.12890625 C-63.9271875 167.08636719 -64.948125 167.04382813 -66 167 C-66.75925781 166.97276855 -67.51851562 166.94553711 -68.30078125 166.91748047 C-69.59048828 166.87905029 -69.59048828 166.87905029 -70.90625 166.83984375 C-71.80674072 166.82107178 -72.70723145 166.8022998 -73.63500977 166.78295898 C-74.55983154 166.77208252 -75.48465332 166.76120605 -76.4375 166.75 C-77.81216431 166.74818726 -77.81216431 166.74818726 -79.21459961 166.74633789 C-80.56050171 166.76361938 -80.56050171 166.76361938 -81.93359375 166.78125 C-82.8035498 166.80703125 -83.67350586 166.8328125 -84.56982422 166.859375 C-85.37178223 166.90578125 -86.17374023 166.9521875 -87 167 Z " transform="translate(140,5)" style="fill: #75627B;"/></svg>