<?xml version="1.0" encoding="UTF-8"?>
<!-- Generator: visioncortex VTracer -->
<svg id="svg" version="1.1" xmlns="http://www.w3.org/2000/svg" style="display: block;" viewBox="0 0 91 318"><path d="M0 0 C1.04353638 -0.03722168 1.04353638 -0.03722168 2.1081543 -0.07519531 C2.90648682 -0.05424805 3.70481934 -0.03330078 4.52734375 -0.01171875 C5.82260986 0.05752808 5.82260986 0.05752808 7.14404297 0.12817383 C8.5268042 0.21941528 8.5268042 0.21941528 9.9375 0.3125 C10.90316895 0.36881592 11.86883789 0.42513184 12.86376953 0.4831543 C13.85876465 0.54027588 14.85375977 0.59739746 15.87890625 0.65625 C16.89227051 0.71683594 17.90563477 0.77742187 18.94970703 0.83984375 C20.45960205 0.91912109 20.45960205 0.91912109 22 1 C22.96405762 1.02964844 23.92811523 1.05929688 24.92138672 1.08984375 C25.86385254 1.11175781 26.80631836 1.13367188 27.77734375 1.15625 C29.17231079 1.19165894 29.17231079 1.19165894 30.59545898 1.2277832 C31.97133179 1.26971802 31.97133179 1.26971802 33.375 1.3125 C34.74217163 1.36893677 34.74217163 1.36893677 36.13696289 1.42651367 C37.03020264 1.47525635 37.92344238 1.52399902 38.84375 1.57421875 C39.71128906 1.63528809 40.57882813 1.69635742 41.47265625 1.75927734 C42.30667969 1.83871582 43.14070313 1.9181543 44 2 C45.18142578 2.15976318 45.18142578 2.15976318 46.38671875 2.32275391 C47.51013672 2.51297119 47.51013672 2.51297119 48.65625 2.70703125 C49.36974609 2.85092285 50.08324219 2.99481445 50.81835938 3.14306641 C51.49705078 3.30210449 52.17574219 3.46114258 52.875 3.625 C53.52275391 3.79435059 54.17050781 3.96370117 54.83789062 4.13818359 C55.44826172 4.3233252 56.05863281 4.5084668 56.6875 4.69921875 C57.25726563 4.90208496 57.82703125 5.10495117 58.4140625 5.31396484 C59.19910156 5.65355225 59.19910156 5.65355225 60 6 C60.886875 6.54269531 61.77375 7.08539063 62.6875 7.64453125 C63.7703125 8.53205078 63.7703125 8.53205078 64.875 9.4375 C65.44992188 9.99308594 66.02484375 10.54867188 66.6171875 11.12109375 C67.30167969 12.05115234 67.30167969 12.05115234 68 13 C68.37125 13.72832031 68.7425 14.45664063 69.125 15.20703125 C69.41375 16.12871094 69.7025 17.05039062 70 18 C70.11230957 18.58644287 70.22461914 19.17288574 70.34033203 19.77709961 C70.43685059 20.43331299 70.53336914 21.08952637 70.6328125 21.765625 C70.75922119 22.8340564 70.75922119 22.8340564 70.88818359 23.92407227 C70.96633301 24.69162842 71.04448242 25.45918457 71.125 26.25 C71.2070166 27.06847412 71.2890332 27.88694824 71.37353516 28.73022461 C71.4513623 29.59655518 71.52918945 30.46288574 71.609375 31.35546875 C71.67833984 32.26474121 71.74730469 33.17401367 71.81835938 34.11083984 C71.87830078 35.0642627 71.93824219 36.01768555 72 37 C72.04962891 38.00369629 72.09925781 39.00739258 72.15039062 40.04150391 C72.18841797 41.07581543 72.22644531 42.11012695 72.265625 43.17578125 C72.29043945 44.22491699 72.31525391 45.27405273 72.34082031 46.35498047 C72.35209961 47.41346191 72.36337891 48.47194336 72.375 49.5625 C72.37338867 50.6261377 72.37177734 51.68977539 72.37011719 52.78564453 C72.34159668 54.35934814 72.34159668 54.35934814 72.3125 55.96484375 C72.27382812 56.98819824 72.23515625 58.01155273 72.1953125 59.06591797 C72.13085938 60.03416504 72.06640625 61.00241211 72 62 C71.89945312 62.86641113 71.79890625 63.73282227 71.6953125 64.62548828 C71.56898437 65.43099121 71.44265625 66.23649414 71.3125 67.06640625 C71.16248535 67.84363037 71.0124707 68.62085449 70.85791016 69.42163086 C70.6985498 70.14874268 70.53918945 70.87585449 70.375 71.625 C70.23497559 72.26123291 70.09495117 72.89746582 69.95068359 73.55297852 C69.78906738 74.18776123 69.62745117 74.82254395 69.4609375 75.4765625 C69.26242188 76.16032959 69.06390625 76.84409668 68.859375 77.54858398 C68.57578125 78.35755127 68.2921875 79.16651855 68 80 C67.78553223 80.50604767 67.57106445 81.01209534 67.35009766 81.53347778 C67.10565918 82.08969818 66.8612207 82.64591858 66.609375 83.21899414 C66.22324539 84.10464806 66.22324539 84.10464806 65.82931519 85.00819397 C65.43040573 85.93806374 65.43040573 85.93806374 65.0234375 86.88671875 C64.6231987 87.84444435 64.6231987 87.84444435 64.21487427 88.82151794 C63.9546347 89.48112015 63.69439514 90.14072235 63.42626953 90.8203125 C63.05239105 91.84185425 63.05239105 91.84185425 62.67095947 92.8840332 C62.44954285 93.58230225 62.22812622 94.28057129 62 95 C61.7488443 96.0669812 61.7488443 96.0669812 61.49261475 97.15551758 C61.355672 97.8802124 61.21872925 98.60490723 61.07763672 99.3515625 C60.9575827 100.0887854 60.83752869 100.8260083 60.71383667 101.58557129 C60.60717682 102.33463745 60.50051697 103.08370361 60.390625 103.85546875 C60.28904083 104.61694214 60.18745667 105.37841553 60.08279419 106.16296387 C59.98715179 106.9322522 59.8915094 107.70154053 59.79296875 108.49414062 C59.65834229 109.65586792 59.65834229 109.65586792 59.52099609 110.84106445 C59.43156738 111.61538818 59.34213867 112.38971191 59.25 113.1875 C59.15348145 113.95296143 59.05696289 114.71842285 58.95751953 115.50708008 C58.85938965 116.27109131 58.76125977 117.03510254 58.66015625 117.82226562 C58.56850819 118.54607233 58.47686012 119.26987904 58.38243484 120.01561928 C58.2820126 120.8290196 58.18159035 121.64241993 58.078125 122.48046875 C57.95145006 123.57946282 57.95145006 123.57946282 57.82221603 124.7006588 C57.69640593 125.82280501 57.69640593 125.82280501 57.5680542 126.96762085 C57.47475075 127.79937458 57.3814473 128.63112831 57.28531647 129.4880867 C57.19116203 130.31701809 57.0970076 131.14594948 57 132 C56.91134422 132.73798199 56.82268845 133.47596397 56.73134613 134.23630905 C56.64487068 134.95650852 56.55839523 135.67670799 56.46929932 136.41873169 C56.38416328 137.15969935 56.29902725 137.90066702 56.21131134 138.66408825 C56.12643211 139.44154557 56.04155289 140.2190029 55.95410156 141.02001953 C55.82164661 142.29932453 55.82164661 142.29932453 55.68651581 143.60447407 C55.55935558 144.95031716 55.55935558 144.95031716 55.42962646 146.323349 C55.3520385 147.24841185 55.27445053 148.17347469 55.19451141 149.12656975 C55.13032265 150.07480173 55.06613388 151.02303371 55 152 C54.9600013 152.95813662 54.92000259 153.91627323 54.87879181 154.90344429 C54.85290733 155.88075949 54.82702286 156.85807468 54.800354 157.86500549 C54.78264324 158.86646544 54.76493248 159.86792538 54.74668503 160.89973259 C54.73553288 161.92499613 54.72438072 162.95025967 54.71289062 164.0065918 C54.70470936 165.05697191 54.69652809 166.10735203 54.68809891 167.18956184 C54.68286587 168.26506231 54.67763283 169.34056278 54.67224121 170.44865417 C54.66967819 171.5484429 54.66711517 172.64823162 54.66447449 173.78134727 C54.66040337 175.47319366 54.66040337 175.47319366 54.65625 177.19921875 C54.65322435 177.77697186 54.65019871 178.35472497 54.64708138 178.94998574 C54.64156667 179.82784002 54.64156667 179.82784002 54.63594055 180.72342873 C54.63204331 181.31463613 54.62814607 181.90584353 54.62413073 182.51496631 C54.62010728 183.11152111 54.61608384 183.70807591 54.61193848 184.32270813 C54.6080447 184.92357119 54.60415092 185.52443425 54.60013914 186.14350528 C54.59632121 186.7484107 54.59250327 187.35331612 54.58856964 187.97655201 C54.58480599 188.58516595 54.58104235 189.19377988 54.57716465 189.82083666 C54.57361438 190.43232385 54.57006411 191.04381103 54.56640625 191.67382812 C54.5632865 192.28717054 54.56016676 192.90051295 54.55695248 193.5324415 C54.55262502 194.45555956 54.55262502 194.45555956 54.54821014 195.39732647 C54.54544807 196.01478164 54.542686 196.63223682 54.53984022 197.26840276 C54.53582976 198.19720721 54.53582976 198.19720721 54.53173828 199.14477539 C54.52907345 199.76553729 54.52640862 200.38629919 54.52366304 201.02587205 C54.52103063 201.64784697 54.51839822 202.26982189 54.51568604 202.91064453 C54.51179241 203.8448951 54.51179241 203.8448951 54.50782013 204.79801941 C54.50523949 205.421548 54.50265884 206.0450766 54.5 206.6875 C54.49741936 207.31166306 54.49483871 207.93582611 54.49217987 208.5789032 C54.48828625 209.51510246 54.48828625 209.51510246 54.48431396 210.47021484 C54.48168155 211.09378146 54.47904914 211.71734808 54.47633696 212.35981065 C54.47367213 212.98236464 54.4710073 213.60491863 54.46826172 214.24633789 C54.46425126 215.17785456 54.46425126 215.17785456 54.46015978 216.12818974 C54.4573977 216.74737351 54.45463563 217.36655729 54.45178986 218.0045042 C54.44890489 218.62150641 54.44601992 219.23850861 54.44304752 219.87420785 C54.43992778 220.48870754 54.43680803 221.10320723 54.43359375 221.73632812 C54.43004348 222.34809076 54.42649321 222.95985339 54.42283535 223.59015429 C54.4190717 224.19856642 54.41530806 224.80697854 54.41143036 225.4338274 C54.40761242 226.03831941 54.40379449 226.64281142 54.39986086 227.26562136 C54.39596708 227.86582718 54.3920733 228.466033 54.38806152 229.08442688 C54.38403808 229.68003837 54.38001464 230.27564986 54.37586927 230.88931018 C54.37197203 231.47958395 54.36807479 232.06985772 54.36405945 232.67801857 C54.35854474 233.55462871 54.35854474 233.55462871 54.35291862 234.44894814 C54.34989298 235.02653744 54.34686733 235.60412674 54.34375 236.19921875 C54.33967888 237.89623712 54.33967888 237.89623712 54.33552551 239.62753868 C54.33296249 240.72995211 54.33039948 241.83236553 54.32775879 242.96818542 C54.32252858 244.04166166 54.31729837 245.1151379 54.31190968 246.22114372 C54.30372558 247.26409159 54.29554148 248.30703945 54.28710938 249.3815918 C54.27593173 250.39335039 54.26475409 251.40510899 54.25323772 252.44752693 C54.23550714 253.42530035 54.21777655 254.40307377 54.19950867 255.41047668 C54.16067346 256.82257133 54.16067346 256.82257133 54.1210537 258.26319313 C54.08110598 259.1663394 54.04115826 260.06948566 54 261 C53.93599817 261.86287817 53.87199635 262.72575634 53.80605507 263.61478233 C53.72868803 264.43543489 53.65132099 265.25608746 53.5716095 266.10160828 C53.48699463 266.88000974 53.40237976 267.6584112 53.31520081 268.46040058 C53.22705612 269.18873694 53.13891144 269.91707331 53.0480957 270.66748047 C52.96351105 271.33211146 52.87892639 271.99674246 52.79177856 272.68151379 C52.66424446 273.60908222 52.66424446 273.60908222 52.53413391 274.5553894 C52.35786972 275.6921109 52.18160553 276.8288324 52 278 C51.806978 279.10542145 51.61395599 280.2108429 51.41508484 281.34976196 C51.24072403 282.26430145 51.06636322 283.17884094 50.88671875 284.12109375 C50.69013672 285.01376953 50.49355469 285.90644531 50.29101562 286.82617188 C50.09185547 287.68791016 49.89269531 288.54964844 49.6875 289.4375 C49.49994141 290.32630859 49.31238281 291.21511719 49.11914062 292.13085938 C48.91869141 293.01451172 48.71824219 293.89816406 48.51171875 294.80859375 C48.17986572 296.08839111 48.17986572 296.08839111 47.84130859 297.39404297 C47.56367676 298.25400879 47.28604492 299.11397461 47 300 C46.59990723 300.92828613 46.19981445 301.85657227 45.78759766 302.81298828 C45.34851074 303.71130371 44.90942383 304.60961914 44.45703125 305.53515625 C44.04042236 306.34476807 43.62381348 307.15437988 43.19458008 307.98852539 C42.80036865 308.65231201 42.40615723 309.31609863 42 310 C41.34 310.66 40.68 311.32 40 312 C38.96875 312.185625 37.9375 312.37125 36.875 312.5625 C36.25496094 312.53800781 35.63492188 312.51351563 34.99609375 312.48828125 C34.33738281 312.32714844 33.67867187 312.16601562 33 312 C31.99646484 311.43345703 31.99646484 311.43345703 30.97265625 310.85546875 C30.30105469 310.32566406 29.62945312 309.79585938 28.9375 309.25 C28.30827637 308.62859131 27.67905273 308.00718262 27.03076172 307.36694336 C26.36061035 306.58585205 25.69045898 305.80476074 25 305 C24.48058838 304.14325684 23.96117676 303.28651367 23.42602539 302.40380859 C22.94641357 301.45328613 22.46680176 300.50276367 21.97265625 299.5234375 C21.71508545 299.00037018 21.45751465 298.47730286 21.19213867 297.93838501 C20.93609863 297.39797577 20.68005859 296.85756653 20.41625977 296.30078125 C20.17191193 295.75260742 19.92756409 295.20443359 19.67581177 294.63964844 C19.45279388 294.09856445 19.229776 293.55748047 19 293 C18.65702881 291.99324219 18.31405762 290.98648437 17.96069336 289.94921875 C17.67460205 288.94246094 17.38851074 287.93570312 17.09375 286.8984375 C16.82804199 285.84986572 16.56233398 284.80129395 16.28857422 283.72094727 C16.02834473 282.61678467 15.76811523 281.51262207 15.5 280.375 C15.35725647 279.78451874 15.21451294 279.19403748 15.06744385 278.58566284 C14.92030945 277.97594635 14.77317505 277.36622986 14.62158203 276.73803711 C14.47381317 276.11492142 14.32604431 275.49180573 14.17379761 274.84980774 C14.02621002 274.214879 13.87862244 273.57995026 13.7265625 272.92578125 C13.58147247 272.28235275 13.43638245 271.63892426 13.28689575 270.97599792 C13.14355804 270.32472427 13.00022034 269.67345062 12.85253906 269.00244141 C12.71062134 268.34391174 12.56870361 267.68538208 12.42248535 267.00689697 C12.28306519 266.34462097 12.14364502 265.68234497 12 265 C11.86444702 264.33901306 11.72889404 263.67802612 11.5892334 262.99700928 C11.45633911 262.33332336 11.32344482 261.66963745 11.18652344 260.98583984 C11.05559799 260.31725449 10.92467255 259.64866913 10.78977966 258.95982361 C10.66063675 258.28601151 10.53149384 257.6121994 10.3984375 256.91796875 C10.27062393 256.23775162 10.14281036 255.55753448 10.01112366 254.85670471 C9.88475021 254.17043503 9.75837677 253.48416534 9.62817383 252.77709961 C9.50326569 252.08502411 9.37835754 251.39294861 9.24966431 250.67990112 C9.12602509 249.98115875 9.00238586 249.28241638 8.875 248.5625 C8.75240814 247.85578156 8.62981628 247.14906311 8.50350952 246.42092896 C8.38206573 245.70782562 8.26062195 244.99472229 8.13549805 244.26000977 C7.95507713 243.18234093 7.95507713 243.18234093 7.77101135 242.082901 C7.65192917 241.35944992 7.53284698 240.63599884 7.41015625 239.890625 C7.29240341 239.16270248 7.17465057 238.43477997 7.05332947 237.68479919 C6.93663406 236.95285843 6.81993866 236.22091766 6.69970703 235.46679688 C6.58395325 234.73114502 6.46819946 233.99549316 6.34893799 233.23754883 C6.23378845 232.49915771 6.11863892 231.7607666 6 231 C5.8272757 229.89047974 5.8272757 229.89047974 5.65106201 228.75854492 C5.53659729 228.01644775 5.42213257 227.27435059 5.30419922 226.50976562 C5.19084229 225.76472778 5.07748535 225.01968994 4.96069336 224.2520752 C4.84862549 223.50373413 4.73655762 222.75539307 4.62109375 221.984375 C4.51063721 221.23184448 4.40018066 220.47931396 4.28637695 219.70397949 C4.17753174 218.94830688 4.06868652 218.19263428 3.95654297 217.4140625 C3.84936951 216.65561035 3.74219604 215.8971582 3.6317749 215.11572266 C3.47373383 213.97562744 3.47373383 213.97562744 3.3125 212.8125 C3.20907288 212.05308105 3.10564575 211.29366211 2.99908447 210.51123047 C2.89771179 209.74955566 2.79633911 208.98788086 2.69189453 208.203125 C2.59271729 207.43697876 2.49354004 206.67083252 2.39135742 205.88146973 C2.29443604 205.11105347 2.19751465 204.34063721 2.09765625 203.546875 C1.95565796 202.38593323 1.95565796 202.38593323 1.81079102 201.20153809 C1.71870361 200.42024536 1.62661621 199.63895264 1.53173828 198.83398438 C1.44241028 198.04386963 1.35308228 197.25375488 1.26104736 196.43969727 C1.17490173 195.63459717 1.0887561 194.82949707 1 194 C0.91772156 193.16911865 0.83544312 192.3382373 0.75067139 191.48217773 C0.67165588 190.63792236 0.59264038 189.79366699 0.51123047 188.92382812 C0.43512039 188.07371155 0.35901031 187.22359497 0.28059387 186.34771729 C0.20733383 185.49562683 0.13407379 184.64353638 0.05859375 183.765625 C-0.01196732 182.91852966 -0.08252838 182.07143433 -0.15522766 181.19866943 C-0.22316025 180.35483704 -0.29109283 179.51100464 -0.36108398 178.64160156 C-0.45907791 177.38168396 -0.45907791 177.38168396 -0.55905151 176.09631348 C-0.65357101 174.84207581 -0.65357101 174.84207581 -0.75 173.5625 C-0.81115997 172.72730835 -0.87231995 171.8921167 -0.93533325 171.03161621 C-1.02353836 169.79345154 -1.02353836 169.79345154 -1.11352539 168.53027344 C-1.16962479 167.72209167 -1.22572418 166.91390991 -1.28352356 166.08123779 C-1.36360909 164.89633759 -1.36360909 164.89633759 -1.4453125 163.6875 C-1.52134956 162.52846161 -1.52134956 162.52846161 -1.59892273 161.3460083 C-1.64652237 160.60405212 -1.69412201 159.86209595 -1.74316406 159.09765625 C-1.78751587 158.39286133 -1.83186768 157.68806641 -1.87756348 156.96191406 C-1.91796753 156.31448242 -1.95837158 155.66705078 -2 155 C-2.06670898 153.94425781 -2.13341797 152.88851562 -2.20214844 151.80078125 C-2.25661133 150.89714844 -2.31107422 149.99351562 -2.3671875 149.0625 C-2.41302979 148.21695557 -2.45887207 147.37141113 -2.50610352 146.50024414 C-2.54533936 145.69578857 -2.5845752 144.89133301 -2.625 144.0625 C-2.66101318 143.27029053 -2.69702637 142.47808105 -2.73413086 141.66186523 C-2.78259155 140.40418335 -2.78259155 140.40418335 -2.83203125 139.12109375 C-2.86119629 138.20827637 -2.89036133 137.29545898 -2.92041016 136.35498047 C-2.9466748 135.24783691 -2.97293945 134.14069336 -3 133 C-3.01142029 132.28741028 -3.02284058 131.57482056 -3.03460693 130.84063721 C-3.04558411 130.05549744 -3.05656128 129.27035767 -3.06787109 128.46142578 C-3.07878784 127.63406418 -3.08970459 126.80670258 -3.10095215 125.95426941 C-3.11275513 125.09408707 -3.12455811 124.23390472 -3.13671875 123.34765625 C-3.15109985 122.47317337 -3.16548096 121.59869049 -3.18029785 120.69770813 C-3.19540405 119.8118956 -3.21051025 118.92608307 -3.22607422 118.01342773 C-3.24152283 117.11985565 -3.25697144 116.22628357 -3.27288818 115.30563354 C-3.28596008 114.42102448 -3.29903198 113.53641541 -3.3125 112.625 C-3.31783752 111.77205353 -3.32317505 110.91910706 -3.32867432 110.04031372 C-3.33381042 109.20466888 -3.33894653 108.36902405 -3.34423828 107.50805664 C-3.35473709 106.68316238 -3.3652359 105.85826813 -3.37605286 105.00837708 C-3.39246323 104.19350327 -3.4088736 103.37862946 -3.42578125 102.5390625 C-3.44811325 101.72857956 -3.47044525 100.91809662 -3.49345398 100.08305359 C-3.52888809 99.2851088 -3.5643222 98.487164 -3.60083008 97.66503906 C-3.65260406 96.8840686 -3.70437805 96.10309814 -3.75772095 95.29846191 C-3.83767303 94.53996948 -3.91762512 93.78147705 -4 93 C-4.12821136 92.27373413 -4.25642273 91.54746826 -4.38851929 90.79919434 C-4.54349884 90.09685669 -4.69847839 89.39451904 -4.8581543 88.67089844 C-5.11041275 87.64686417 -5.11041275 87.64686417 -5.36776733 86.60214233 C-5.54546661 85.93679474 -5.72316589 85.27144714 -5.90625 84.5859375 C-6.08684967 83.9325943 -6.26744934 83.2792511 -6.45352173 82.60610962 C-6.6323288 81.96958466 -6.81113586 81.33305969 -6.99536133 80.67724609 C-7.25647202 79.74993683 -7.25647202 79.74993683 -7.52285767 78.80389404 C-7.68031464 78.20860901 -7.83777161 77.61332397 -8 77 C-8.22647217 75.89350098 -8.45294434 74.78700195 -8.6862793 73.64697266 C-8.86586182 72.58784668 -9.04544434 71.5287207 -9.23046875 70.4375 C-9.39337402 69.38916992 -9.5562793 68.34083984 -9.72412109 67.26074219 C-9.87703613 66.18469727 -10.02995117 65.10865234 -10.1875 64 C-10.31115936 63.13888611 -10.31115936 63.13888611 -10.43731689 62.26037598 C-10.56236603 61.37207092 -10.56236603 61.37207092 -10.68994141 60.46582031 C-10.81212036 59.55808868 -10.81212036 59.55808868 -10.93676758 58.63201904 C-11.01564209 58.01610901 -11.0945166 57.40019897 -11.17578125 56.765625 C-11.25046631 56.14504211 -11.32515137 55.52445923 -11.40209961 54.8850708 C-11.47259521 54.25332947 -11.54309082 53.62158813 -11.61572266 52.97070312 C-11.68196838 52.32528564 -11.74821411 51.67986816 -11.81646729 51.01489258 C-11.87703308 50.34997803 -11.93759888 49.68506348 -12 49 C-12.05283142 48.30414795 -12.10566284 47.6082959 -12.16009521 46.89135742 C-12.207005 46.17890869 -12.25391479 45.46645996 -12.30224609 44.73242188 C-12.34438736 44.01252075 -12.38652863 43.29261963 -12.4299469 42.55090332 C-12.46724411 41.82769897 -12.50454132 41.10449463 -12.54296875 40.359375 C-12.59160316 39.27988586 -12.59160316 39.27988586 -12.64122009 38.17858887 C-12.68406883 37.10598816 -12.68406883 37.10598816 -12.7277832 36.01171875 C-12.75280914 35.30321777 -12.77783508 34.5947168 -12.80361938 33.86474609 C-12.82717499 33.16687988 -12.85073059 32.46901367 -12.875 31.75 C-12.91359634 30.72543701 -12.91359634 30.72543701 -12.95297241 29.68017578 C-12.97646759 29.01356934 -12.99996277 28.34696289 -13.02416992 27.66015625 C-13.04243835 27.01267426 -13.06070679 26.36519226 -13.07952881 25.6980896 C-13.09195618 25.07068878 -13.10438354 24.44328796 -13.1171875 23.796875 C-13.12292786 23.18856842 -13.12866821 22.58026184 -13.13458252 21.95352173 C-13.13133972 21.37282928 -13.12809692 20.79213684 -13.12475586 20.19384766 C-13.08358643 19.13987793 -13.04241699 18.0859082 -13 17 C-12.8872876 16.15614746 -12.7745752 15.31229492 -12.65844727 14.44287109 C-12.50174561 13.74242676 -12.34504395 13.04198242 -12.18359375 12.3203125 C-11.99893555 11.7221875 -11.81427734 11.1240625 -11.62402344 10.5078125 C-11.4180957 10.01023437 -11.21216797 9.51265625 -11 9 C-10.56042969 8.26007812 -10.12085938 7.52015625 -9.66796875 6.7578125 C-9.17941406 6.21898437 -8.69085937 5.68015625 -8.1875 5.125 C-7.70667969 4.57070312 -7.22585937 4.01640625 -6.73046875 3.4453125 C-6.15941406 2.96835937 -5.58835937 2.49140625 -5 2 C-3.97132812 1.39865234 -3.97132812 1.39865234 -2.921875 0.78515625 C-1.47554687 0.39650391 -1.47554687 0.39650391 0 0 Z " transform="translate(15,1)" style="fill: #D4A0A2;"/><path d="M0 0 C0.62285889 0.11754639 1.24571777 0.23509277 1.88745117 0.35620117 C2.58459229 0.89865479 3.2817334 1.4411084 4 2 C5.13695312 2.7115625 5.13695312 2.7115625 6.296875 3.4375 C7.10640625 3.953125 7.9159375 4.46875 8.75 5 C10.08417969 5.79277344 10.08417969 5.79277344 11.4453125 6.6015625 C12.28835937 7.06304687 13.13140625 7.52453125 14 8 C14.92425781 8.41378906 14.92425781 8.41378906 15.8671875 8.8359375 C16.44726562 9.01382813 17.02734375 9.19171875 17.625 9.375 C18.25921875 9.49746094 18.8934375 9.61992188 19.546875 9.74609375 C20.35640625 9.82988281 21.1659375 9.91367188 22 10 C22.86334961 10.07371826 22.86334961 10.07371826 23.74414062 10.14892578 C24.39060547 10.19388184 25.03707031 10.23883789 25.703125 10.28515625 C26.72019531 10.33325439 26.72019531 10.33325439 27.7578125 10.38232422 C28.45648438 10.40053223 29.15515625 10.41874023 29.875 10.4375 C30.57367188 10.44023926 31.27234375 10.44297852 31.9921875 10.44580078 C32.68054687 10.42630371 33.36890625 10.40680664 34.078125 10.38671875 C35.08456055 10.31976807 35.08456055 10.31976807 36.11132812 10.25146484 C36.73458984 10.16848145 37.35785156 10.08549805 38 10 C39.00546875 9.67644531 40.0109375 9.35289063 41.046875 9.01953125 C41.89765625 8.60058594 42.7484375 8.18164062 43.625 7.75 C44.38683594 7.31171875 45.14867187 6.8734375 45.93359375 6.421875 C46.95646484 5.71804687 46.95646484 5.71804687 48 5 C48.65097656 4.46890625 49.30195312 3.9378125 49.97265625 3.390625 C50.53855469 2.93171875 51.10445312 2.4728125 51.6875 2 C52.450625 1.67 53.21375 1.34 54 1 C54.10248047 1.82951172 54.10248047 1.82951172 54.20703125 2.67578125 C54.13871094 3.54589844 54.07039063 4.41601562 54 5.3125 C53.855625 6.3540625 53.71125 7.395625 53.5625 8.46875 C53.42521484 9.32919922 53.42521484 9.32919922 53.28515625 10.20703125 C53.14400391 11.09455078 53.14400391 11.09455078 53 12 C52.91621094 12.58910156 52.83242187 13.17820312 52.74609375 13.78515625 C52.66488281 14.38199219 52.58367187 14.97882813 52.5 15.59375 C52.41814453 16.20234863 52.33628906 16.81094727 52.25195312 17.43798828 C52.16880859 18.05657715 52.08566406 18.67516602 52 19.3125 C51.86754883 20.25778564 51.86754883 20.25778564 51.73242188 21.22216797 C51.64541016 21.85783691 51.55839844 22.49350586 51.46875 23.1484375 C51.38625 23.78491211 51.30375 24.42138672 51.21875 25.07714844 C51.1465625 25.71168945 51.074375 26.34623047 51 27 C50.9484375 27.62938477 50.896875 28.25876953 50.84375 28.90722656 C50.8025 29.52823242 50.76125 30.14923828 50.71875 30.7890625 C50.68007812 31.40225342 50.64140625 32.01544434 50.6015625 32.6472168 C50.56804687 33.23801025 50.53453125 33.82880371 50.5 34.4375 C50.4484375 35.50871094 50.396875 36.57992187 50.34375 37.68359375 C50.2303125 38.77800781 50.116875 39.87242187 50 41 C49.84699716 41.58240952 49.69399431 42.16481903 49.53635502 42.76487732 C49.35662364 43.38959427 49.17689226 44.01431122 48.99171448 44.65795898 C48.81210741 45.36285965 48.63250034 46.06776031 48.44745064 46.79402161 C48.29979193 47.52199448 48.15213322 48.24996735 48 49 C47.94050611 49.69111374 47.88101223 50.38222748 47.8197155 51.09428406 C47.80206202 51.79487442 47.78440853 52.49546478 47.76622009 53.21728516 C47.76491592 53.9508725 47.76361176 54.68445984 47.76226807 55.4402771 C47.77102966 56.21537628 47.77979126 56.99047546 47.78881836 57.7890625 C47.79078972 59.04972031 47.79078972 59.04972031 47.7928009 60.33584595 C47.79486542 61.21920624 47.79692993 62.10256653 47.79905701 63.01269531 C47.80567289 63.92587524 47.81228878 64.83905518 47.81910515 65.77990723 C47.82937076 67.18822815 47.82937076 67.18822815 47.83984375 68.625 C47.84292604 69.58063843 47.84600834 70.53627686 47.84918404 71.52087402 C47.85236295 72.98152283 47.85236295 72.98152283 47.85560608 74.47167969 C47.85816941 75.46264648 47.86073275 76.45361328 47.86337376 77.47460938 C47.86656589 78.48072266 47.86975801 79.48683594 47.87304688 80.5234375 C47.87783271 81.544375 47.88261854 82.5653125 47.8875494 83.6171875 C47.89571855 85.16164551 47.89571855 85.16164551 47.90405273 86.73730469 C47.90963196 87.77141479 47.91521118 88.8055249 47.92095947 89.87097168 C47.92641785 90.90355103 47.93187622 91.93613037 47.9375 93 C47.94472076 94.53340027 47.94472076 94.53340027 47.9520874 96.09777832 C47.9565387 97.11384155 47.96098999 98.12990479 47.96557617 99.17675781 C47.97190614 100.69410397 47.97190614 100.69410397 47.97836399 102.24210358 C47.98228122 103.24760002 47.98619844 104.25309647 47.99023438 105.2890625 C47.99382682 106.28769066 47.99741926 107.28631882 48.00112057 108.31520844 C48.00437123 109.30636909 48.0076219 110.29752975 48.01097107 111.31872559 C48.01381041 112.30092575 48.01664974 113.28312592 48.01957512 114.29508972 C48.02342059 115.75777031 48.02342059 115.75777031 48.02734375 117.25 C48.0299225 118.22250198 48.03250126 119.19500397 48.03515816 120.19697571 C48.03824643 121.63794868 48.03824643 121.63794868 48.04139709 123.10803223 C48.04252975 124.04972008 48.0436624 124.99140793 48.04482937 125.96163177 C48.04494046 126.88243782 48.04505156 127.80324387 48.04516602 128.75195312 C48.04418694 129.65042213 48.04320787 130.54889114 48.04219913 131.47458649 C48.03964335 132.34221367 48.03708757 133.20984085 48.03445435 134.10375977 C48.03006977 134.93598053 48.0256852 135.76820129 48.02116776 136.62564087 C48.0141824 137.40917938 48.00719704 138.1927179 48 139 C47.98914745 139.71328461 47.97829491 140.42656921 47.96711349 141.16146851 C47.95362492 141.82482208 47.94013634 142.48817566 47.92623901 143.17163086 C47.91090024 143.79670029 47.89556147 144.42176971 47.87975788 145.06578064 C47.86263846 145.65702225 47.84551905 146.24826385 47.82788086 146.85742188 C47.77000145 148.51644531 47.77000145 148.51644531 47.71095276 150.20898438 C47.66969772 151.20220703 47.62844269 152.19542969 47.5859375 153.21875 C47.54907333 154.09917969 47.51220917 154.97960937 47.47422791 155.88671875 C47.43294266 156.69689453 47.39165741 157.50707031 47.34912109 158.34179688 C47.29988998 159.10142731 47.25065887 159.86105774 47.19993591 160.64370728 C47.13395706 161.42128387 47.06797821 162.19886047 47 163 C46.90054581 163.91123627 46.80109161 164.82247253 46.69862366 165.76132202 C46.5859465 166.68426056 46.47326935 167.6071991 46.35717773 168.55810547 C46.24993881 169.38809052 46.14269989 170.21807556 46.0322113 171.07321167 C45.91845657 171.87405182 45.80470184 172.67489197 45.6875 173.5 C45.55047165 174.35415497 45.4134433 175.20830994 45.27226257 176.08834839 C45.14503311 176.83520905 45.01780365 177.5820697 44.88671875 178.3515625 C44.74411621 179.1240332 44.60151367 179.89650391 44.45458984 180.69238281 C44.3045752 181.45389648 44.15456055 182.21541016 44 183 C43.84096191 183.7640918 43.68192383 184.52818359 43.51806641 185.31542969 C43.3535498 186.06469727 43.1890332 186.81396484 43.01953125 187.5859375 C42.85042236 188.31103516 42.68131348 189.03613281 42.50708008 189.78320312 C42.33974365 190.47349609 42.17240723 191.16378906 42 191.875 C41.84619873 192.51115234 41.69239746 193.14730469 41.53393555 193.80273438 C41.37836182 194.40150391 41.22278809 195.00027344 41.0625 195.6171875 C40.8989502 196.18284424 40.73540039 196.74850098 40.56689453 197.33129883 C40.37981934 197.88197021 40.19274414 198.4326416 40 199 C39.76007324 199.57322998 39.52014648 200.14645996 39.27294922 200.73706055 C39.01529785 201.27886963 38.75764648 201.82067871 38.4921875 202.37890625 C37.99976563 203.24386719 37.50734375 204.10882813 37 205 C36.38125 205.350625 35.7625 205.70125 35.125 206.0625 C34.42375 206.041875 33.7225 206.02125 33 206 C32.195625 205.690625 31.39125 205.38125 30.5625 205.0625 C29.716875 204.381875 28.87125 203.70125 28 203 C27.56300781 202.44957031 27.12601563 201.89914062 26.67578125 201.33203125 C26.03189453 200.36330078 26.03189453 200.36330078 25.375 199.375 C24.99085937 198.76398438 24.60671875 198.15296875 24.2109375 197.5234375 C23.81132813 196.69070313 23.41171875 195.85796875 23 195 C22.7642627 194.390354 22.52852539 193.78070801 22.28564453 193.15258789 C21.91221924 192.08512329 21.91221924 192.08512329 21.53125 190.99609375 C21.27778809 190.20879883 21.02432617 189.42150391 20.76318359 188.61035156 C20.51133301 187.74893555 20.25948242 186.88751953 20 186 C19.7623291 185.07413086 19.5246582 184.14826172 19.27978516 183.19433594 C19.04565918 182.20594727 18.8115332 181.21755859 18.5703125 180.19921875 C18.33505859 179.15564209 18.09980469 178.11206543 17.85742188 177.03686523 C17.49487305 175.37892944 17.49487305 175.37892944 17.125 173.6875 C16.99649658 173.10187286 16.86799316 172.51624573 16.7355957 171.91287231 C16.60435303 171.31264252 16.47311035 170.71241272 16.33789062 170.09399414 C16.20610413 169.48604507 16.07431763 168.87809601 15.9385376 168.25172424 C15.80671082 167.63756149 15.67488403 167.02339874 15.5390625 166.390625 C15.40804138 165.77166855 15.27702026 165.1527121 15.14202881 164.51499939 C14.94845795 163.59008446 14.94845795 163.59008446 14.75097656 162.64648438 C14.62452759 162.03587158 14.49807861 161.42525879 14.36779785 160.79614258 C14.24642456 160.20341553 14.12505127 159.61068848 14 159 C13.78053711 157.90751953 13.56107422 156.81503906 13.33496094 155.68945312 C13.1290332 154.63177734 12.92310547 153.57410156 12.7109375 152.484375 C12.50952148 151.41461426 12.30810547 150.34485352 12.10058594 149.24267578 C11.90239258 148.15196777 11.70419922 147.06125977 11.5 145.9375 C11.30180664 144.80683105 11.10361328 143.67616211 10.89941406 142.51123047 C10.79918945 141.92524078 10.69896484 141.3392511 10.59570312 140.73550415 C10.49451172 140.13442841 10.39332031 139.53335266 10.2890625 138.9140625 C10.13630859 137.9917836 10.13630859 137.9917836 9.98046875 137.0508728 C9.82433105 136.09611557 9.82433105 136.09611557 9.66503906 135.12207031 C9.50436951 134.12898865 9.50436951 134.12898865 9.3404541 133.11584473 C9.22810425 132.41761597 9.11575439 131.71938721 9 131 C8.87862671 130.24763062 8.75725342 129.49526123 8.63220215 128.72009277 C8.50575317 127.93171021 8.3793042 127.14332764 8.24902344 126.33105469 C8.11988556 125.51748001 7.99074768 124.70390533 7.85769653 123.86567688 C7.72676605 123.03086288 7.59583557 122.19604889 7.4609375 121.3359375 C7.26442093 120.06359505 7.26442093 120.06359505 7.06393433 118.76554871 C6.93278229 117.9031105 6.80163025 117.0406723 6.66650391 116.15209961 C6.5354425 115.27617157 6.4043811 114.40024353 6.26934814 113.49777222 C6.13921326 112.61163239 6.00907837 111.72549255 5.875 110.8125 C5.74663757 109.91918976 5.61827515 109.02587952 5.48602295 108.10549927 C5.3596344 107.20644867 5.23324585 106.30739807 5.10302734 105.38110352 C4.97902557 104.47853317 4.8550238 103.57596283 4.7272644 102.64604187 C4.6058609 101.74062149 4.4844574 100.83520111 4.359375 99.90234375 C4.24046906 98.99317703 4.12156311 98.08401031 3.99905396 97.14729309 C3.88399506 96.24129868 3.76893616 95.33530426 3.65039062 94.40185547 C3.53993408 93.50263367 3.42947754 92.60341187 3.31567383 91.67694092 C3.21150146 90.79355042 3.1073291 89.91015991 3 89 C2.90485107 88.147547 2.80970215 87.29509399 2.71166992 86.41680908 C2.62312744 85.58075134 2.53458496 84.7446936 2.44335938 83.88330078 C2.3600386 83.0553299 2.27671783 82.22735901 2.19087219 81.3742981 C2.11241562 80.55081879 2.03395905 79.72733948 1.953125 78.87890625 C1.87865646 78.05244598 1.80418793 77.22598572 1.72746277 76.3744812 C1.62199883 75.13530441 1.62199883 75.13530441 1.5144043 73.87109375 C1.44828949 73.04577148 1.38217468 72.22044922 1.3140564 71.37011719 C1.25166779 70.54672852 1.18927917 69.72333984 1.125 68.875 C1.06575348 68.05789551 1.00650696 67.24079102 0.94546509 66.39892578 C0.88974335 65.5789209 0.83402161 64.75891602 0.77661133 63.9140625 C0.72458054 63.08341278 0.67254974 62.25276306 0.61894226 61.39694214 C0.57066788 60.5556778 0.52239349 59.71441345 0.47265625 58.84765625 C0.40622673 57.57355392 0.40622673 57.57355392 0.3384552 56.27371216 C0.29782455 55.40108734 0.25719391 54.52846252 0.21533203 53.62939453 C0.17821106 52.72699036 0.14109009 51.82458618 0.10284424 50.89483643 C0.06890564 49.93954041 0.03496704 48.98424438 0 48 C-0.03136047 46.95189148 -0.06272095 45.90378296 -0.09503174 44.82391357 C-0.12312927 43.72686096 -0.15122681 42.62980835 -0.18017578 41.49951172 C-0.20478882 40.37981995 -0.22940186 39.26012817 -0.25476074 38.10650635 C-0.27510376 36.97694519 -0.29544678 35.84738403 -0.31640625 34.68359375 C-0.33094849 33.56772888 -0.34549072 32.45186401 -0.36047363 31.30218506 C-0.37122925 30.19393372 -0.38198486 29.08568237 -0.39306641 27.94384766 C-0.40057922 26.84486145 -0.40809204 25.74587524 -0.41583252 24.61358643 C-0.42298279 23.52422791 -0.43013306 22.43486938 -0.4375 21.3125 C-0.44980652 20.22475281 -0.46211304 19.13700562 -0.47479248 18.01629639 C-0.48488342 16.95694885 -0.49497437 15.89760132 -0.50537109 14.80615234 C-0.50512436 13.80141373 -0.50487762 12.79667511 -0.50462341 11.76148987 C-0.50180862 10.80508102 -0.49899384 9.84867218 -0.49609375 8.86328125 C-0.50717667 7.9332579 -0.51825958 7.00323456 -0.52967834 6.04502869 C-0.52044846 5.21459549 -0.51121857 4.38416229 -0.50170898 3.52856445 C-0.4579715 2.82897614 -0.41423401 2.12938782 -0.36917114 1.40859985 C-0.24734467 0.9437619 -0.12551819 0.47892395 0 0 Z " transform="translate(17,102)" style="fill: #E9B1B3;"/><path d="M0 0 C1.04353638 -0.03722168 1.04353638 -0.03722168 2.1081543 -0.07519531 C2.90648682 -0.05424805 3.70481934 -0.03330078 4.52734375 -0.01171875 C5.82260986 0.05752808 5.82260986 0.05752808 7.14404297 0.12817383 C8.5268042 0.21941528 8.5268042 0.21941528 9.9375 0.3125 C10.90316895 0.36881592 11.86883789 0.42513184 12.86376953 0.4831543 C13.85876465 0.54027588 14.85375977 0.59739746 15.87890625 0.65625 C16.89227051 0.71683594 17.90563477 0.77742187 18.94970703 0.83984375 C20.45960205 0.91912109 20.45960205 0.91912109 22 1 C22.96405762 1.02964844 23.92811523 1.05929688 24.92138672 1.08984375 C25.86385254 1.11175781 26.80631836 1.13367188 27.77734375 1.15625 C29.17231079 1.19165894 29.17231079 1.19165894 30.59545898 1.2277832 C31.97133179 1.26971802 31.97133179 1.26971802 33.375 1.3125 C34.74217163 1.36893677 34.74217163 1.36893677 36.13696289 1.42651367 C37.03020264 1.47525635 37.92344238 1.52399902 38.84375 1.57421875 C39.71128906 1.63528809 40.57882813 1.69635742 41.47265625 1.75927734 C42.30667969 1.83871582 43.14070313 1.9181543 44 2 C45.18142578 2.15976318 45.18142578 2.15976318 46.38671875 2.32275391 C47.51013672 2.51297119 47.51013672 2.51297119 48.65625 2.70703125 C49.36974609 2.85092285 50.08324219 2.99481445 50.81835938 3.14306641 C51.49705078 3.30210449 52.17574219 3.46114258 52.875 3.625 C53.52275391 3.79435059 54.17050781 3.96370117 54.83789062 4.13818359 C55.44826172 4.3233252 56.05863281 4.5084668 56.6875 4.69921875 C57.25726563 4.90208496 57.82703125 5.10495117 58.4140625 5.31396484 C59.19910156 5.65355225 59.19910156 5.65355225 60 6 C60.886875 6.54269531 61.77375 7.08539063 62.6875 7.64453125 C63.7703125 8.53205078 63.7703125 8.53205078 64.875 9.4375 C65.44992188 9.99308594 66.02484375 10.54867188 66.6171875 11.12109375 C67.30167969 12.05115234 67.30167969 12.05115234 68 13 C68.37125 13.72832031 68.7425 14.45664063 69.125 15.20703125 C69.41375 16.12871094 69.7025 17.05039062 70 18 C70.11230957 18.58644287 70.22461914 19.17288574 70.34033203 19.77709961 C70.43685059 20.43331299 70.53336914 21.08952637 70.6328125 21.765625 C70.75922119 22.8340564 70.75922119 22.8340564 70.88818359 23.92407227 C70.96633301 24.69162842 71.04448242 25.45918457 71.125 26.25 C71.2070166 27.06847412 71.2890332 27.88694824 71.37353516 28.73022461 C71.4513623 29.59655518 71.52918945 30.46288574 71.609375 31.35546875 C71.67833984 32.26474121 71.74730469 33.17401367 71.81835938 34.11083984 C71.87830078 35.0642627 71.93824219 36.01768555 72 37 C72.04962891 38.00369629 72.09925781 39.00739258 72.15039062 40.04150391 C72.18841797 41.07581543 72.22644531 42.11012695 72.265625 43.17578125 C72.29043945 44.22491699 72.31525391 45.27405273 72.34082031 46.35498047 C72.35209961 47.41346191 72.36337891 48.47194336 72.375 49.5625 C72.37338867 50.6261377 72.37177734 51.68977539 72.37011719 52.78564453 C72.34159668 54.35934814 72.34159668 54.35934814 72.3125 55.96484375 C72.27382812 56.98819824 72.23515625 58.01155273 72.1953125 59.06591797 C72.13085938 60.03416504 72.06640625 61.00241211 72 62 C71.89945312 62.86641113 71.79890625 63.73282227 71.6953125 64.62548828 C71.56898437 65.43099121 71.44265625 66.23649414 71.3125 67.06640625 C71.16248535 67.84363037 71.0124707 68.62085449 70.85791016 69.42163086 C70.6985498 70.14874268 70.53918945 70.87585449 70.375 71.625 C70.23497559 72.26123291 70.09495117 72.89746582 69.95068359 73.55297852 C69.78906738 74.18776123 69.62745117 74.82254395 69.4609375 75.4765625 C69.26242188 76.16032959 69.06390625 76.84409668 68.859375 77.54858398 C68.57578125 78.35755127 68.2921875 79.16651855 68 80 C67.78553223 80.50604767 67.57106445 81.01209534 67.35009766 81.53347778 C67.10565918 82.08969818 66.8612207 82.64591858 66.609375 83.21899414 C66.22324539 84.10464806 66.22324539 84.10464806 65.82931519 85.00819397 C65.43040573 85.93806374 65.43040573 85.93806374 65.0234375 86.88671875 C64.6231987 87.84444435 64.6231987 87.84444435 64.21487427 88.82151794 C63.9546347 89.48112015 63.69439514 90.14072235 63.42626953 90.8203125 C63.05239105 91.84185425 63.05239105 91.84185425 62.67095947 92.8840332 C62.44954285 93.58230225 62.22812622 94.28057129 62 95 C61.7488443 96.0669812 61.7488443 96.0669812 61.49261475 97.15551758 C61.355672 97.8802124 61.21872925 98.60490723 61.07763672 99.3515625 C60.9575827 100.0887854 60.83752869 100.8260083 60.71383667 101.58557129 C60.60717682 102.33463745 60.50051697 103.08370361 60.390625 103.85546875 C60.28904083 104.61694214 60.18745667 105.37841553 60.08279419 106.16296387 C59.98715179 106.9322522 59.8915094 107.70154053 59.79296875 108.49414062 C59.65834229 109.65586792 59.65834229 109.65586792 59.52099609 110.84106445 C59.43156738 111.61538818 59.34213867 112.38971191 59.25 113.1875 C59.15348145 113.95296143 59.05696289 114.71842285 58.95751953 115.50708008 C58.85938965 116.27109131 58.76125977 117.03510254 58.66015625 117.82226562 C58.56850819 118.54607233 58.47686012 119.26987904 58.38243484 120.01561928 C58.2820126 120.8290196 58.18159035 121.64241993 58.078125 122.48046875 C57.95145006 123.57946282 57.95145006 123.57946282 57.82221603 124.7006588 C57.69640593 125.82280501 57.69640593 125.82280501 57.5680542 126.96762085 C57.47475075 127.79937458 57.3814473 128.63112831 57.28531647 129.4880867 C57.19116203 130.31701809 57.0970076 131.14594948 57 132 C56.91134422 132.73798199 56.82268845 133.47596397 56.73134613 134.23630905 C56.64487068 134.95650852 56.55839523 135.67670799 56.46929932 136.41873169 C56.38416328 137.15969935 56.29902725 137.90066702 56.21131134 138.66408825 C56.12643211 139.44154557 56.04155289 140.2190029 55.95410156 141.02001953 C55.82164661 142.29932453 55.82164661 142.29932453 55.68651581 143.60447407 C55.55935558 144.95031716 55.55935558 144.95031716 55.42962646 146.323349 C55.3520385 147.24841185 55.27445053 148.17347469 55.19451141 149.12656975 C55.13032265 150.07480173 55.06613388 151.02303371 55 152 C54.9600013 152.95813662 54.92000259 153.91627323 54.87879181 154.90344429 C54.85290733 155.88075949 54.82702286 156.85807468 54.800354 157.86500549 C54.78264324 158.86646544 54.76493248 159.86792538 54.74668503 160.89973259 C54.73553288 161.92499613 54.72438072 162.95025967 54.71289062 164.0065918 C54.70470936 165.05697191 54.69652809 166.10735203 54.68809891 167.18956184 C54.68286587 168.26506231 54.67763283 169.34056278 54.67224121 170.44865417 C54.66967819 171.5484429 54.66711517 172.64823162 54.66447449 173.78134727 C54.66040337 175.47319366 54.66040337 175.47319366 54.65625 177.19921875 C54.65322435 177.77697186 54.65019871 178.35472497 54.64708138 178.94998574 C54.64156667 179.82784002 54.64156667 179.82784002 54.63594055 180.72342873 C54.63204331 181.31463613 54.62814607 181.90584353 54.62413073 182.51496631 C54.62010728 183.11152111 54.61608384 183.70807591 54.61193848 184.32270813 C54.6080447 184.92357119 54.60415092 185.52443425 54.60013914 186.14350528 C54.59632121 186.7484107 54.59250327 187.35331612 54.58856964 187.97655201 C54.58480599 188.58516595 54.58104235 189.19377988 54.57716465 189.82083666 C54.57361438 190.43232385 54.57006411 191.04381103 54.56640625 191.67382812 C54.5632865 192.28717054 54.56016676 192.90051295 54.55695248 193.5324415 C54.55262502 194.45555956 54.55262502 194.45555956 54.54821014 195.39732647 C54.54544807 196.01478164 54.542686 196.63223682 54.53984022 197.26840276 C54.53582976 198.19720721 54.53582976 198.19720721 54.53173828 199.14477539 C54.52907345 199.76553729 54.52640862 200.38629919 54.52366304 201.02587205 C54.52103063 201.64784697 54.51839822 202.26982189 54.51568604 202.91064453 C54.51179241 203.8448951 54.51179241 203.8448951 54.50782013 204.79801941 C54.50523949 205.421548 54.50265884 206.0450766 54.5 206.6875 C54.49741936 207.31166306 54.49483871 207.93582611 54.49217987 208.5789032 C54.48828625 209.51510246 54.48828625 209.51510246 54.48431396 210.47021484 C54.48168155 211.09378146 54.47904914 211.71734808 54.47633696 212.35981065 C54.47367213 212.98236464 54.4710073 213.60491863 54.46826172 214.24633789 C54.46425126 215.17785456 54.46425126 215.17785456 54.46015978 216.12818974 C54.4573977 216.74737351 54.45463563 217.36655729 54.45178986 218.0045042 C54.44890489 218.62150641 54.44601992 219.23850861 54.44304752 219.87420785 C54.43992778 220.48870754 54.43680803 221.10320723 54.43359375 221.73632812 C54.43004348 222.34809076 54.42649321 222.95985339 54.42283535 223.59015429 C54.4190717 224.19856642 54.41530806 224.80697854 54.41143036 225.4338274 C54.40761242 226.03831941 54.40379449 226.64281142 54.39986086 227.26562136 C54.39596708 227.86582718 54.3920733 228.466033 54.38806152 229.08442688 C54.38403808 229.68003837 54.38001464 230.27564986 54.37586927 230.88931018 C54.37197203 231.47958395 54.36807479 232.06985772 54.36405945 232.67801857 C54.35854474 233.55462871 54.35854474 233.55462871 54.35291862 234.44894814 C54.34989298 235.02653744 54.34686733 235.60412674 54.34375 236.19921875 C54.33967888 237.89623712 54.33967888 237.89623712 54.33552551 239.62753868 C54.33296249 240.72995211 54.33039948 241.83236553 54.32775879 242.96818542 C54.32252858 244.04166166 54.31729837 245.1151379 54.31190968 246.22114372 C54.30372558 247.26409159 54.29554148 248.30703945 54.28710938 249.3815918 C54.27593173 250.39335039 54.26475409 251.40510899 54.25323772 252.44752693 C54.23550714 253.42530035 54.21777655 254.40307377 54.19950867 255.41047668 C54.16067346 256.82257133 54.16067346 256.82257133 54.1210537 258.26319313 C54.08110598 259.1663394 54.04115826 260.06948566 54 261 C53.93599817 261.86287817 53.87199635 262.72575634 53.80605507 263.61478233 C53.72868803 264.43543489 53.65132099 265.25608746 53.5716095 266.10160828 C53.48699463 266.88000974 53.40237976 267.6584112 53.31520081 268.46040058 C53.22705612 269.18873694 53.13891144 269.91707331 53.0480957 270.66748047 C52.96351105 271.33211146 52.87892639 271.99674246 52.79177856 272.68151379 C52.66424446 273.60908222 52.66424446 273.60908222 52.53413391 274.5553894 C52.35786972 275.6921109 52.18160553 276.8288324 52 278 C51.806978 279.10542145 51.61395599 280.2108429 51.41508484 281.34976196 C51.24072403 282.26430145 51.06636322 283.17884094 50.88671875 284.12109375 C50.69013672 285.01376953 50.49355469 285.90644531 50.29101562 286.82617188 C50.09185547 287.68791016 49.89269531 288.54964844 49.6875 289.4375 C49.49994141 290.32630859 49.31238281 291.21511719 49.11914062 292.13085938 C48.91869141 293.01451172 48.71824219 293.89816406 48.51171875 294.80859375 C48.17986572 296.08839111 48.17986572 296.08839111 47.84130859 297.39404297 C47.56367676 298.25400879 47.28604492 299.11397461 47 300 C46.59990723 300.92828613 46.19981445 301.85657227 45.78759766 302.81298828 C45.34851074 303.71130371 44.90942383 304.60961914 44.45703125 305.53515625 C44.04042236 306.34476807 43.62381348 307.15437988 43.19458008 307.98852539 C42.80036865 308.65231201 42.40615723 309.31609863 42 310 C41.34 310.66 40.68 311.32 40 312 C38.96875 312.185625 37.9375 312.37125 36.875 312.5625 C36.25496094 312.53800781 35.63492188 312.51351563 34.99609375 312.48828125 C34.33738281 312.32714844 33.67867187 312.16601562 33 312 C31.99646484 311.43345703 31.99646484 311.43345703 30.97265625 310.85546875 C30.30105469 310.32566406 29.62945312 309.79585938 28.9375 309.25 C28.30827637 308.62859131 27.67905273 308.00718262 27.03076172 307.36694336 C26.36061035 306.58585205 25.69045898 305.80476074 25 305 C24.48058838 304.14325684 23.96117676 303.28651367 23.42602539 302.40380859 C22.94641357 301.45328613 22.46680176 300.50276367 21.97265625 299.5234375 C21.71508545 299.00037018 21.45751465 298.47730286 21.19213867 297.93838501 C20.93609863 297.39797577 20.68005859 296.85756653 20.41625977 296.30078125 C20.17191193 295.75260742 19.92756409 295.20443359 19.67581177 294.63964844 C19.45279388 294.09856445 19.229776 293.55748047 19 293 C18.65702881 291.99324219 18.31405762 290.98648437 17.96069336 289.94921875 C17.67460205 288.94246094 17.38851074 287.93570312 17.09375 286.8984375 C16.82804199 285.84986572 16.56233398 284.80129395 16.28857422 283.72094727 C16.02834473 282.61678467 15.76811523 281.51262207 15.5 280.375 C15.35725647 279.78451874 15.21451294 279.19403748 15.06744385 278.58566284 C14.92030945 277.97594635 14.77317505 277.36622986 14.62158203 276.73803711 C14.47381317 276.11492142 14.32604431 275.49180573 14.17379761 274.84980774 C14.02621002 274.214879 13.87862244 273.57995026 13.7265625 272.92578125 C13.58147247 272.28235275 13.43638245 271.63892426 13.28689575 270.97599792 C13.14355804 270.32472427 13.00022034 269.67345062 12.85253906 269.00244141 C12.71062134 268.34391174 12.56870361 267.68538208 12.42248535 267.00689697 C12.28306519 266.34462097 12.14364502 265.68234497 12 265 C11.86444702 264.33901306 11.72889404 263.67802612 11.5892334 262.99700928 C11.45633911 262.33332336 11.32344482 261.66963745 11.18652344 260.98583984 C11.05559799 260.31725449 10.92467255 259.64866913 10.78977966 258.95982361 C10.66063675 258.28601151 10.53149384 257.6121994 10.3984375 256.91796875 C10.27062393 256.23775162 10.14281036 255.55753448 10.01112366 254.85670471 C9.88475021 254.17043503 9.75837677 253.48416534 9.62817383 252.77709961 C9.50326569 252.08502411 9.37835754 251.39294861 9.24966431 250.67990112 C9.12602509 249.98115875 9.00238586 249.28241638 8.875 248.5625 C8.75240814 247.85578156 8.62981628 247.14906311 8.50350952 246.42092896 C8.38206573 245.70782562 8.26062195 244.99472229 8.13549805 244.26000977 C7.95507713 243.18234093 7.95507713 243.18234093 7.77101135 242.082901 C7.65192917 241.35944992 7.53284698 240.63599884 7.41015625 239.890625 C7.29240341 239.16270248 7.17465057 238.43477997 7.05332947 237.68479919 C6.93663406 236.95285843 6.81993866 236.22091766 6.69970703 235.46679688 C6.58395325 234.73114502 6.46819946 233.99549316 6.34893799 233.23754883 C6.23378845 232.49915771 6.11863892 231.7607666 6 231 C5.8272757 229.89047974 5.8272757 229.89047974 5.65106201 228.75854492 C5.53659729 228.01644775 5.42213257 227.27435059 5.30419922 226.50976562 C5.19084229 225.76472778 5.07748535 225.01968994 4.96069336 224.2520752 C4.84862549 223.50373413 4.73655762 222.75539307 4.62109375 221.984375 C4.51063721 221.23184448 4.40018066 220.47931396 4.28637695 219.70397949 C4.17753174 218.94830688 4.06868652 218.19263428 3.95654297 217.4140625 C3.84936951 216.65561035 3.74219604 215.8971582 3.6317749 215.11572266 C3.47373383 213.97562744 3.47373383 213.97562744 3.3125 212.8125 C3.20907288 212.05308105 3.10564575 211.29366211 2.99908447 210.51123047 C2.89771179 209.74955566 2.79633911 208.98788086 2.69189453 208.203125 C2.59271729 207.43697876 2.49354004 206.67083252 2.39135742 205.88146973 C2.29443604 205.11105347 2.19751465 204.34063721 2.09765625 203.546875 C1.95565796 202.38593323 1.95565796 202.38593323 1.81079102 201.20153809 C1.71870361 200.42024536 1.62661621 199.63895264 1.53173828 198.83398438 C1.44241028 198.04386963 1.35308228 197.25375488 1.26104736 196.43969727 C1.17490173 195.63459717 1.0887561 194.82949707 1 194 C0.91772156 193.16911865 0.83544312 192.3382373 0.75067139 191.48217773 C0.67165588 190.63792236 0.59264038 189.79366699 0.51123047 188.92382812 C0.43512039 188.07371155 0.35901031 187.22359497 0.28059387 186.34771729 C0.20733383 185.49562683 0.13407379 184.64353638 0.05859375 183.765625 C-0.01196732 182.91852966 -0.08252838 182.07143433 -0.15522766 181.19866943 C-0.22316025 180.35483704 -0.29109283 179.51100464 -0.36108398 178.64160156 C-0.45907791 177.38168396 -0.45907791 177.38168396 -0.55905151 176.09631348 C-0.65357101 174.84207581 -0.65357101 174.84207581 -0.75 173.5625 C-0.81115997 172.72730835 -0.87231995 171.8921167 -0.93533325 171.03161621 C-1.02353836 169.79345154 -1.02353836 169.79345154 -1.11352539 168.53027344 C-1.16962479 167.72209167 -1.22572418 166.91390991 -1.28352356 166.08123779 C-1.36360909 164.89633759 -1.36360909 164.89633759 -1.4453125 163.6875 C-1.52134956 162.52846161 -1.52134956 162.52846161 -1.59892273 161.3460083 C-1.64652237 160.60405212 -1.69412201 159.86209595 -1.74316406 159.09765625 C-1.78751587 158.39286133 -1.83186768 157.68806641 -1.87756348 156.96191406 C-1.91796753 156.31448242 -1.95837158 155.66705078 -2 155 C-2.06670898 153.94425781 -2.13341797 152.88851562 -2.20214844 151.80078125 C-2.25661133 150.89714844 -2.31107422 149.99351562 -2.3671875 149.0625 C-2.41302979 148.21695557 -2.45887207 147.37141113 -2.50610352 146.50024414 C-2.54533936 145.69578857 -2.5845752 144.89133301 -2.625 144.0625 C-2.66101318 143.27029053 -2.69702637 142.47808105 -2.73413086 141.66186523 C-2.78259155 140.40418335 -2.78259155 140.40418335 -2.83203125 139.12109375 C-2.86119629 138.20827637 -2.89036133 137.29545898 -2.92041016 136.35498047 C-2.9466748 135.24783691 -2.97293945 134.14069336 -3 133 C-3.01142029 132.28741028 -3.02284058 131.57482056 -3.03460693 130.84063721 C-3.04558411 130.05549744 -3.05656128 129.27035767 -3.06787109 128.46142578 C-3.07878784 127.63406418 -3.08970459 126.80670258 -3.10095215 125.95426941 C-3.11275513 125.09408707 -3.12455811 124.23390472 -3.13671875 123.34765625 C-3.15109985 122.47317337 -3.16548096 121.59869049 -3.18029785 120.69770813 C-3.19540405 119.8118956 -3.21051025 118.92608307 -3.22607422 118.01342773 C-3.24152283 117.11985565 -3.25697144 116.22628357 -3.27288818 115.30563354 C-3.28596008 114.42102448 -3.29903198 113.53641541 -3.3125 112.625 C-3.31783752 111.77205353 -3.32317505 110.91910706 -3.32867432 110.04031372 C-3.33381042 109.20466888 -3.33894653 108.36902405 -3.34423828 107.50805664 C-3.35473709 106.68316238 -3.3652359 105.85826813 -3.37605286 105.00837708 C-3.39246323 104.19350327 -3.4088736 103.37862946 -3.42578125 102.5390625 C-3.44811325 101.72857956 -3.47044525 100.91809662 -3.49345398 100.08305359 C-3.52888809 99.2851088 -3.5643222 98.487164 -3.60083008 97.66503906 C-3.65260406 96.8840686 -3.70437805 96.10309814 -3.75772095 95.29846191 C-3.83767303 94.53996948 -3.91762512 93.78147705 -4 93 C-4.12821136 92.27373413 -4.25642273 91.54746826 -4.38851929 90.79919434 C-4.54349884 90.09685669 -4.69847839 89.39451904 -4.8581543 88.67089844 C-5.11041275 87.64686417 -5.11041275 87.64686417 -5.36776733 86.60214233 C-5.54546661 85.93679474 -5.72316589 85.27144714 -5.90625 84.5859375 C-6.08684967 83.9325943 -6.26744934 83.2792511 -6.45352173 82.60610962 C-6.6323288 81.96958466 -6.81113586 81.33305969 -6.99536133 80.67724609 C-7.25647202 79.74993683 -7.25647202 79.74993683 -7.52285767 78.80389404 C-7.68031464 78.20860901 -7.83777161 77.61332397 -8 77 C-8.22647217 75.89350098 -8.45294434 74.78700195 -8.6862793 73.64697266 C-8.86586182 72.58784668 -9.04544434 71.5287207 -9.23046875 70.4375 C-9.39337402 69.38916992 -9.5562793 68.34083984 -9.72412109 67.26074219 C-9.87703613 66.18469727 -10.02995117 65.10865234 -10.1875 64 C-10.31115936 63.13888611 -10.31115936 63.13888611 -10.43731689 62.26037598 C-10.56236603 61.37207092 -10.56236603 61.37207092 -10.68994141 60.46582031 C-10.81212036 59.55808868 -10.81212036 59.55808868 -10.93676758 58.63201904 C-11.01564209 58.01610901 -11.0945166 57.40019897 -11.17578125 56.765625 C-11.25046631 56.14504211 -11.32515137 55.52445923 -11.40209961 54.8850708 C-11.47259521 54.25332947 -11.54309082 53.62158813 -11.61572266 52.97070312 C-11.68196838 52.32528564 -11.74821411 51.67986816 -11.81646729 51.01489258 C-11.87703308 50.34997803 -11.93759888 49.68506348 -12 49 C-12.05283142 48.30414795 -12.10566284 47.6082959 -12.16009521 46.89135742 C-12.207005 46.17890869 -12.25391479 45.46645996 -12.30224609 44.73242188 C-12.34438736 44.01252075 -12.38652863 43.29261963 -12.4299469 42.55090332 C-12.46724411 41.82769897 -12.50454132 41.10449463 -12.54296875 40.359375 C-12.59160316 39.27988586 -12.59160316 39.27988586 -12.64122009 38.17858887 C-12.68406883 37.10598816 -12.68406883 37.10598816 -12.7277832 36.01171875 C-12.75280914 35.30321777 -12.77783508 34.5947168 -12.80361938 33.86474609 C-12.82717499 33.16687988 -12.85073059 32.46901367 -12.875 31.75 C-12.91359634 30.72543701 -12.91359634 30.72543701 -12.95297241 29.68017578 C-12.97646759 29.01356934 -12.99996277 28.34696289 -13.02416992 27.66015625 C-13.04243835 27.01267426 -13.06070679 26.36519226 -13.07952881 25.6980896 C-13.09195618 25.07068878 -13.10438354 24.44328796 -13.1171875 23.796875 C-13.12292786 23.18856842 -13.12866821 22.58026184 -13.13458252 21.95352173 C-13.13133972 21.37282928 -13.12809692 20.79213684 -13.12475586 20.19384766 C-13.08358643 19.13987793 -13.04241699 18.0859082 -13 17 C-12.8872876 16.15614746 -12.7745752 15.31229492 -12.65844727 14.44287109 C-12.50174561 13.74242676 -12.34504395 13.04198242 -12.18359375 12.3203125 C-11.99893555 11.7221875 -11.81427734 11.1240625 -11.62402344 10.5078125 C-11.4180957 10.01023437 -11.21216797 9.51265625 -11 9 C-10.56042969 8.26007812 -10.12085938 7.52015625 -9.66796875 6.7578125 C-9.17941406 6.21898437 -8.69085937 5.68015625 -8.1875 5.125 C-7.70667969 4.57070312 -7.22585937 4.01640625 -6.73046875 3.4453125 C-6.15941406 2.96835937 -5.58835937 2.49140625 -5 2 C-3.97132812 1.39865234 -3.97132812 1.39865234 -2.921875 0.78515625 C-1.47554687 0.39650391 -1.47554687 0.39650391 0 0 Z M-2 6 C-3.11362915 6.73923706 -3.11362915 6.73923706 -4.24975586 7.4934082 C-4.79639893 8.14011475 -5.34304199 8.78682129 -5.90625 9.453125 C-6.3194751 10.18200928 -6.7327002 10.91089355 -7.15844727 11.66186523 C-7.43615967 12.43344971 -7.71387207 13.20503418 -8 14 C-8.14945068 14.73484619 -8.29890137 15.46969238 -8.45288086 16.22680664 C-8.50839111 16.97309326 -8.56390137 17.71937988 -8.62109375 18.48828125 C-8.60723633 19.26655273 -8.59337891 20.04482422 -8.57910156 20.84667969 C-8.53237305 21.66040039 -8.48564453 22.47412109 -8.4375 23.3125 C-8.41010742 24.18422852 -8.38271484 25.05595703 -8.35449219 25.95410156 C-8.32387695 26.84709961 -8.29326172 27.74009766 -8.26171875 28.66015625 C-8.21708496 29.55492676 -8.17245117 30.44969727 -8.12646484 31.37158203 C-8.08473145 32.23895996 -8.04299805 33.10633789 -8 34 C-7.98018066 34.78874512 -7.96036133 35.57749023 -7.93994141 36.39013672 C-7.92495605 37.14697754 -7.9099707 37.90381836 -7.89453125 38.68359375 C-7.87430908 39.43680908 -7.85408691 40.19002441 -7.83325195 40.96606445 C-7.80577881 41.71976318 -7.77830566 42.47346191 -7.75 43.25 C-7.71028076 44.01465576 -7.67056152 44.77931152 -7.62963867 45.56713867 C-7.57654541 46.35193604 -7.52345215 47.1367334 -7.46875 47.9453125 C-7.40171875 48.75387695 -7.3346875 49.56244141 -7.265625 50.39550781 C-7.17796875 51.25499023 -7.0903125 52.11447266 -7 53 C-6.88140625 53.95487305 -6.7628125 54.90974609 -6.640625 55.89355469 C-6.43179687 57.39644043 -6.43179687 57.39644043 -6.21875 58.9296875 C-6.06486816 59.94901367 -5.91098633 60.96833984 -5.75244141 62.01855469 C-5.58663574 63.04368164 -5.42083008 64.06880859 -5.25 65.125 C-5.07774902 66.1346582 -4.90549805 67.14431641 -4.72802734 68.18457031 C-4.5470752 69.17811523 -4.36612305 70.17166016 -4.1796875 71.1953125 C-3.98987305 72.16887695 -3.80005859 73.14244141 -3.60449219 74.14550781 C-3.40500977 75.08749023 -3.20552734 76.02947266 -3 77 C-2.78762695 77.8981543 -2.57525391 78.79630859 -2.35644531 79.72167969 C-2.13827148 80.57407227 -1.92009766 81.42646484 -1.6953125 82.3046875 C-1.47584961 83.10374512 -1.25638672 83.90280273 -1.03027344 84.72607422 C-0.8140332 85.47646973 -0.59779297 86.22686523 -0.375 87 C-0.16907227 87.71816895 0.03685547 88.43633789 0.24902344 89.17626953 C0.44786133 89.81935059 0.64669922 90.46243164 0.8515625 91.125 C1.23054688 92.07375 1.60953125 93.0225 2 94 C2.66 94 3.32 94 4 94 C4.226875 94.721875 4.45375 95.44375 4.6875 96.1875 C5.120625 97.115625 5.55375 98.04375 6 99 C6.45117188 99.44214844 6.90234375 99.88429688 7.3671875 100.33984375 C7.92664062 100.76394531 8.48609375 101.18804687 9.0625 101.625 C9.67867187 102.03492187 10.29484375 102.44484375 10.9296875 102.8671875 C11.61289062 103.24101563 12.29609375 103.61484375 13 104 C14.14855469 104.46792969 14.14855469 104.46792969 15.3203125 104.9453125 C16.49207031 105.34363281 16.49207031 105.34363281 17.6875 105.75 C18.41324219 105.97171875 19.13898437 106.1934375 19.88671875 106.421875 C20.58410156 106.61265625 21.28148438 106.8034375 22 107 C22.60972656 107.18433594 23.21945313 107.36867188 23.84765625 107.55859375 C24.91306641 107.77708984 24.91306641 107.77708984 26 108 C27.04671875 108.07863281 28.0934375 108.15726562 29.171875 108.23828125 C29.74993896 108.25624756 30.32800293 108.27421387 30.92358398 108.29272461 C31.52630127 108.29925049 32.12901855 108.30577637 32.75 108.3125 C33.37398682 108.3132251 33.99797363 108.3139502 34.64086914 108.31469727 C35.57080688 108.29427368 35.57080688 108.29427368 36.51953125 108.2734375 C37.66808594 108.18320313 38.81664062 108.09296875 40 108 C40.80824219 107.78601563 41.61648437 107.57203125 42.44921875 107.3515625 C43.10535156 107.04992187 43.76148438 106.74828125 44.4375 106.4375 C45.04078125 106.06882812 45.6440625 105.70015625 46.265625 105.3203125 C46.83796875 104.88460937 47.4103125 104.44890625 48 104 C48.61359375 103.50242187 49.2271875 103.00484375 49.859375 102.4921875 C50.46265625 101.93789062 51.0659375 101.38359375 51.6875 100.8125 C52.25597656 100.20277344 52.82445312 99.59304687 53.41015625 98.96484375 C53.93480469 98.31644531 54.45945313 97.66804688 55 97 C55.45246094 96.34128906 55.90492187 95.68257813 56.37109375 95.00390625 C56.78488281 94.30136719 57.19867188 93.59882812 57.625 92.875 C58.01558594 92.11703125 58.40617187 91.3590625 58.80859375 90.578125 C59.20175781 89.72734375 59.59492187 88.8765625 60 88 C60.44472656 86.98421875 60.88945313 85.9684375 61.34765625 84.921875 C61.57179199 84.3767627 61.79592773 83.83165039 62.02685547 83.27001953 C62.24486816 82.72716309 62.46288086 82.18430664 62.6875 81.625 C63.08324219 80.62726563 63.47898437 79.62953125 63.88671875 78.6015625 C64.07194092 78.04235107 64.25716309 77.48313965 64.44799805 76.90698242 C64.72123901 75.96302612 64.72123901 75.96302612 65 75 C65.28580933 73.91392456 65.28580933 73.91392456 65.57739258 72.8059082 C65.84845825 71.5542688 65.84845825 71.5542688 66.125 70.27734375 C66.28637451 69.33052734 66.44774902 68.38371094 66.61401367 67.40820312 C66.74138916 66.28349609 66.86876465 65.15878906 67 64 C67.03968903 63.32098633 67.07937805 62.64197266 67.12026978 61.94238281 C67.14801483 61.20793945 67.17575989 60.47349609 67.2043457 59.71679688 C67.22402908 58.94650146 67.24371246 58.17620605 67.26399231 57.38256836 C67.27613266 56.58471924 67.28827301 55.78687012 67.30078125 54.96484375 C67.30938423 53.74945923 67.30938423 53.74945923 67.31816101 52.50952148 C67.31951553 51.68589111 67.32087006 50.86226074 67.32226562 50.01367188 C67.32009033 49.17892334 67.31791504 48.3441748 67.31567383 47.48413086 C67.31462646 46.64374268 67.3135791 45.80335449 67.3125 44.9375 C67.32422241 43.67425903 67.32422241 43.67425903 67.33618164 42.38549805 C67.34447998 41.54865479 67.35277832 40.71181152 67.36132812 39.84960938 C67.36457092 39.02538483 67.36781372 38.20116028 67.37115479 37.35195923 C67.36855652 36.54358612 67.36595825 35.73521301 67.36328125 34.90234375 C67.34874908 33.71504166 67.34874908 33.71504166 67.33392334 32.50375366 C67.31299622 31.74309601 67.29206909 30.98243835 67.27050781 30.19873047 C67.21944885 29.11625031 67.21944885 29.11625031 67.1673584 28.01190186 C67.11213013 27.34797424 67.05690186 26.68404663 67 26 C66.79987305 24.90961426 66.59974609 23.81922852 66.39355469 22.69580078 C66.01505371 21.36331299 66.01505371 21.36331299 65.62890625 20.00390625 C65.38084229 19.28146729 65.13277832 18.55902832 64.87719727 17.81469727 C64.58772217 17.21584717 64.29824707 16.61699707 64 16 C63.62866943 15.46366943 63.25733887 14.92733887 62.87475586 14.37475586 C62.46233643 13.92108643 62.04991699 13.46741699 61.625 13 C60.75875 12.34 59.8925 11.68 59 11 C57.9171875 10.4121875 57.9171875 10.4121875 56.8125 9.8125 C55.884375 9.544375 54.95625 9.27625 54 9 C53.33613281 8.82726562 52.67226562 8.65453125 51.98828125 8.4765625 C50.81845703 8.20972656 50.81845703 8.20972656 49.625 7.9375 C48.78936523 7.78249023 47.95373047 7.62748047 47.09277344 7.46777344 C46.0721582 7.3134082 45.05154297 7.15904297 44 7 C42.92226318 6.90412598 41.84452637 6.80825195 40.73413086 6.70947266 C40.15831772 6.67015121 39.58250458 6.63082977 38.98924255 6.59031677 C38.38306595 6.55277786 37.77688934 6.51523895 37.15234375 6.4765625 C36.50374893 6.43568008 35.85515411 6.39479767 35.18690491 6.35267639 C34.51485519 6.31194504 33.84280548 6.27121368 33.15039062 6.22924805 C32.46605957 6.19060638 31.78172852 6.15196472 31.07666016 6.1121521 C30.3913623 6.07514191 29.70606445 6.03813171 29 6 C28.33291016 5.96452057 27.66582031 5.92904114 26.97851562 5.89248657 C26.31722656 5.85940399 25.6559375 5.82632141 24.97460938 5.79223633 C24.31267578 5.76176712 23.65074219 5.73129791 22.96875 5.6999054 C21.97681641 5.66089363 21.97681641 5.66089363 20.96484375 5.62109375 C20.30339355 5.60286057 19.64194336 5.58462738 18.96044922 5.56584167 C17.96779053 5.54388481 17.96779053 5.54388481 16.95507812 5.52148438 C16.29451416 5.50947998 15.6339502 5.49747559 14.95336914 5.48510742 C13.95551392 5.46154175 13.95551392 5.46154175 12.9375 5.4375 C11.91571655 5.3900061 11.91571655 5.3900061 10.87329102 5.34155273 C10.19387451 5.3106958 9.51445801 5.27983887 8.81445312 5.24804688 C7.81708885 5.22077263 7.81708885 5.22077263 6.79957581 5.19294739 C5.82950844 5.18831734 5.82950844 5.18831734 4.83984375 5.18359375 C4.21548935 5.19819138 3.59113495 5.212789 2.94786072 5.22782898 C2.06185936 5.29330681 2.06185936 5.29330681 1.15795898 5.36010742 C-0.40523071 5.67685425 -0.40523071 5.67685425 -2 6 Z M2 101 C1.91397018 101.51030258 1.82794037 102.02060516 1.73930359 102.54637146 C1.7346962 103.27542191 1.73008881 104.00447235 1.7253418 104.75561523 C1.71128548 106.00112907 1.71128548 106.00112907 1.69694519 107.27180481 C1.69769547 108.19144516 1.69844574 109.11108551 1.69921875 110.05859375 C1.69348343 111.01162888 1.68774811 111.964664 1.68183899 112.94657898 C1.67790634 113.94727921 1.67397369 114.94797943 1.66992188 115.97900391 C1.6717749 117.03001282 1.67362793 118.08102173 1.67553711 119.16387939 C1.67948486 120.24417419 1.68343262 121.32446899 1.6875 122.4375 C1.69031982 123.52585144 1.69313965 124.61420288 1.69604492 125.73553467 C1.70031494 126.83520569 1.70458496 127.93487671 1.70898438 129.06787109 C1.71608429 130.17563904 1.7231842 131.28340698 1.73049927 132.42474365 C1.7408017 133.53883606 1.75110413 134.65292847 1.76171875 135.80078125 C1.7762912 136.92663635 1.79086365 138.05249146 1.80587769 139.21246338 C1.8240152 140.32522644 1.84215271 141.4379895 1.86083984 142.58447266 C1.88225037 143.67101135 1.90366089 144.75755005 1.92572021 145.87701416 C1.95023254 146.90759949 1.97474487 147.93818481 2 149 C2.02709045 149.9248822 2.05418091 150.8497644 2.08209229 151.80267334 C2.11252625 152.66878235 2.14296021 153.53489136 2.17431641 154.42724609 C2.20855713 155.26196442 2.24279785 156.09668274 2.27807617 156.95669556 C2.31650635 157.76891571 2.35493652 158.58113586 2.39453125 159.41796875 C2.43779541 160.22688568 2.48105957 161.03580261 2.52563477 161.86923218 C2.57341064 162.67132111 2.62118652 163.47341003 2.67041016 164.29980469 C2.7227179 165.09543823 2.77502563 165.89107178 2.82891846 166.71081543 C2.88537537 167.50749634 2.94183228 168.30417725 3 169.125 C3.05967957 169.92989868 3.11935913 170.73479736 3.18084717 171.56408691 C3.245401 172.378573 3.30995483 173.19305908 3.37646484 174.03222656 C3.4825708 175.27388077 3.4825708 175.27388077 3.59082031 176.5406189 C3.6678418 177.3818631 3.74486328 178.2231073 3.82421875 179.08984375 C3.90736328 179.94067535 3.99050781 180.79150696 4.07617188 181.66812134 C4.16753418 182.54447235 4.25889648 183.42082336 4.35302734 184.32373047 C4.45355408 185.23322449 4.55408081 186.14271851 4.65765381 187.07977295 C4.77062805 188.04344788 4.88360229 189.0071228 5 190 C5.13102112 191.0539093 5.26204224 192.1078186 5.39703369 193.19366455 C5.54009949 194.30038513 5.68316528 195.40710571 5.83056641 196.54736328 C5.98202118 197.68435165 6.13347595 198.82134003 6.28952026 199.99278259 C6.3680209 200.57043806 6.44652153 201.14809353 6.52740097 201.74325371 C6.60730396 202.32426905 6.68720695 202.90528439 6.76953125 203.50390625 C6.85033054 204.08511797 6.93112984 204.66632969 7.01437759 205.26515388 C7.09625195 205.84780951 7.1781263 206.43046513 7.26248169 207.03077698 C7.34546824 207.6152167 7.42845478 208.19965643 7.51395607 208.80180645 C7.59797361 209.38758874 7.68199116 209.97337103 7.76855469 210.5769043 C7.85360449 211.16410405 7.93865429 211.75130381 8.02628136 212.35629749 C8.11215319 212.94370559 8.19802502 213.53111368 8.28649902 214.13632202 C8.37303238 214.7230154 8.45956573 215.30970879 8.54872131 215.91418076 C8.63576828 216.49937611 8.72281525 217.08457146 8.8125 217.6875 C8.89986923 218.27019779 8.98723846 218.85289558 9.07725525 219.45325089 C9.16491653 220.03317669 9.25257782 220.61310249 9.34289551 221.21060181 C9.43079535 221.78739717 9.51869518 222.36419252 9.60925865 222.95846653 C9.69727556 223.531384 9.78529247 224.10430147 9.87597656 224.69458008 C10.05194366 225.82618057 10.22791077 226.95778107 10.40921021 228.12367249 C10.5848349 229.23528244 10.76045959 230.3468924 10.94140625 231.4921875 C11.20448074 233.13162575 11.20448074 233.13162575 11.47286987 234.80418396 C11.64569489 235.86363724 11.8185199 236.92309052 11.99658203 238.01464844 C12.16554993 239.03264526 12.33451782 240.05064209 12.50860596 241.0994873 C12.67076599 242.05665649 12.83292603 243.01382568 13 244 C13.22583771 245.29653503 13.22583771 245.29653503 13.45623779 246.6192627 C13.59942444 247.42069702 13.74261108 248.22213135 13.89013672 249.04785156 C14.02839874 249.80390182 14.16666077 250.55995209 14.30911255 251.33891296 C14.44300385 252.05464981 14.57689514 252.77038666 14.71484375 253.5078125 C14.84575409 254.19442459 14.97666443 254.88103668 15.11154175 255.5884552 C15.23941071 256.2451268 15.36727966 256.9017984 15.49902344 257.57836914 C15.68627991 258.51931931 15.68627991 258.51931931 15.87731934 259.47927856 C16.00030396 260.08424164 16.12328857 260.68920471 16.25 261.3125 C16.37282349 261.90400848 16.49564697 262.49551697 16.62219238 263.10494995 C16.74332397 263.67802887 16.86445557 264.25110779 16.98925781 264.84155273 C17.22354492 265.92637939 17.45783203 267.01120605 17.69921875 268.12890625 C17.9214209 269.13066895 18.14362305 270.13243164 18.37255859 271.16455078 C18.57961426 272.10024902 18.78666992 273.03594727 19 274 C19.2777124 275.33200439 19.2777124 275.33200439 19.56103516 276.69091797 C19.73296387 277.52381348 19.90489258 278.35670898 20.08203125 279.21484375 C20.24662842 279.99077881 20.41122559 280.76671387 20.58081055 281.56616211 C20.73976807 282.28682861 20.89872559 283.00749512 21.0625 283.75 C21.29610229 284.74495483 21.29610229 284.74495483 21.53442383 285.76000977 C21.69064209 286.37545654 21.84686035 286.99090332 22.0078125 287.625 C22.24612793 288.48544922 22.24612793 288.48544922 22.48925781 289.36328125 C22.65780273 289.90339844 22.82634766 290.44351563 23 291 C23.58394531 292.5159375 23.58394531 292.5159375 24.1796875 294.0625 C24.80230469 295.3928125 24.80230469 295.3928125 25.4375 296.75 C25.85902344 297.50667969 26.28054687 298.26335937 26.71484375 299.04296875 C27.13894531 299.68878906 27.56304687 300.33460938 28 301 C28.41378906 301.55300781 28.82757813 302.10601562 29.25390625 302.67578125 C29.87072266 303.36220703 29.87072266 303.36220703 30.5 304.0625 C31.7375 305.0215625 31.7375 305.0215625 33 306 C33.886875 306.309375 34.77375 306.61875 35.6875 306.9375 C36.450625 306.958125 37.21375 306.97875 38 307 C38.66 306.34 39.32 305.68 40 305 C40.30679688 304.30132812 40.61359375 303.60265625 40.9296875 302.8828125 C41.24164063 301.97273437 41.55359375 301.06265625 41.875 300.125 C42.21917969 299.05894531 42.56335937 297.99289062 42.91796875 296.89453125 C43.09505371 296.28689941 43.27213867 295.67926758 43.45458984 295.05322266 C43.6345752 294.37565918 43.81456055 293.6980957 44 293 C44.18385254 292.21544434 44.36770508 291.43088867 44.55712891 290.62255859 C44.74065918 289.78160645 44.92418945 288.9406543 45.11328125 288.07421875 C45.2932666 287.20716309 45.47325195 286.34010742 45.65869141 285.44677734 C45.83319824 284.57746582 46.00770508 283.7081543 46.1875 282.8125 C46.35427246 281.98186035 46.52104492 281.1512207 46.69287109 280.29541016 C46.84965332 279.48249512 47.00643555 278.66958008 47.16796875 277.83203125 C47.30485107 277.11764893 47.4417334 276.4032666 47.58276367 275.66723633 C47.78929565 274.34695435 47.78929565 274.34695435 48 273 C48.08387466 272.35163177 48.16774933 271.70326355 48.25416565 271.0352478 C48.3407695 270.29876007 48.42737335 269.56227234 48.51660156 268.8034668 C48.60044601 268.01739548 48.68429047 267.23132416 48.77067566 266.4214325 C48.84635269 265.62235977 48.92202972 264.82328705 49 264 C49.08614311 262.89486809 49.08614311 262.89486809 49.17402649 261.76741028 C49.22173691 261.0152977 49.26944733 260.26318512 49.31860352 259.48828125 C49.36089584 258.67327148 49.40318817 257.85826172 49.44676208 257.01855469 C49.48624466 256.12555664 49.52572723 255.23255859 49.56640625 254.3125 C49.6090712 253.31250977 49.65173615 252.31251953 49.69569397 251.28222656 C49.73569016 250.16944336 49.77568634 249.05666016 49.81689453 247.91015625 C49.84402291 247.01633743 49.84402291 247.01633743 49.87169933 246.10446167 C49.88803575 245.47460358 49.90437216 244.84474548 49.92120361 244.19580078 C49.93561745 243.52800598 49.95003128 242.86021118 49.9648819 242.17218018 C49.98226536 241.09695099 49.98226536 241.09695099 50 240 C50.00731895 239.21486023 50.01463791 238.42972046 50.02217865 237.62078857 C50.02668282 236.78799377 50.03118698 235.95519897 50.03582764 235.09716797 C50.03968255 233.79562523 50.03968255 233.79562523 50.04361534 232.4677887 C50.0445299 231.56962936 50.04544445 230.67147003 50.04638672 229.74609375 C50.04619852 228.82565781 50.04601032 227.90522186 50.04581642 226.95689392 C50.04458464 226.01568192 50.04335285 225.07446991 50.04208374 224.10473633 C50.03990215 223.14467682 50.03772057 222.18461731 50.03547287 221.19546509 C50.03279026 220.22346161 50.03010765 219.25145813 50.02734375 218.25 C50.02475178 217.27501556 50.02215981 216.30003113 50.01948929 215.29550171 C50.0166531 214.31328644 50.01381691 213.33107117 50.01089478 212.3190918 C50.00765512 211.32787827 50.00441547 210.33666473 50.00107765 209.31541443 C49.99749937 208.31671829 49.99392109 207.31802216 49.99023438 206.2890625 C49.9843609 204.7808065 49.9843609 204.7808065 49.97836876 203.24208069 C49.97414721 202.23052414 49.96992565 201.21896759 49.96557617 200.17675781 C49.96112488 199.16069458 49.95667358 198.14463135 49.9520874 197.09777832 C49.94727356 196.07551147 49.94245972 195.05324463 49.9375 194 C49.93204163 192.96742065 49.92658325 191.93484131 49.92095947 190.87097168 C49.91538025 189.83686157 49.90980103 188.80275146 49.90405273 187.73730469 C49.89588358 186.19284668 49.89588358 186.19284668 49.8875494 184.6171875 C49.88276357 183.59625 49.87797773 182.5753125 49.87304688 181.5234375 C49.86985475 180.51732422 49.86666262 179.51121094 49.86337376 178.47460938 C49.86081042 177.48364258 49.85824709 176.49267578 49.85560608 175.47167969 C49.85242717 174.01103088 49.85242717 174.01103088 49.84918404 172.52087402 C49.84610174 171.5652356 49.84301945 170.60959717 49.83984375 169.625 C49.82957814 168.21667908 49.82957814 168.21667908 49.81910515 166.77990723 C49.81248926 165.86672729 49.80587337 164.95354736 49.79905701 164.01269531 C49.79699249 163.12933502 49.79492798 162.24597473 49.7928009 161.33584595 C49.79082954 160.07518814 49.79082954 160.07518814 49.78881836 158.7890625 C49.78005676 158.01396332 49.77129517 157.23886414 49.76226807 156.4402771 C49.76357224 155.70668976 49.7648764 154.97310242 49.76622009 154.21728516 C49.7839189 153.51760054 49.8016177 152.81791592 49.81985283 152.09702873 C49.8793014 151.40500925 49.93874996 150.71298977 50 150 C50.14725084 149.26387545 50.29450169 148.52775089 50.44621468 147.76931953 C50.62550451 147.05807867 50.80479435 146.34683781 50.98951721 145.61404419 C51.16884072 144.98117556 51.34816423 144.34830692 51.53292179 143.69626045 C51.6870576 143.1364945 51.84119341 142.57672855 52 142 C52.12503906 141.13745605 52.25007813 140.27491211 52.37890625 139.38623047 C52.46978516 138.2630542 52.46978516 138.2630542 52.5625 137.1171875 C52.67295654 135.84101563 52.67295654 135.84101563 52.78564453 134.5390625 C52.85638184 133.65992188 52.92711914 132.78078125 53 131.875 C53.07976074 130.9571875 53.15952148 130.039375 53.24169922 129.09375 C53.32436035 128.17335937 53.40702148 127.25296875 53.4921875 126.3046875 C53.6154541 124.95262207 53.6154541 124.95262207 53.74121094 123.57324219 C53.82661133 122.72407227 53.91201172 121.87490234 54 121 C54.09313477 120.2565332 54.18626953 119.51306641 54.28222656 118.74707031 C54.37729492 118.06999023 54.47236328 117.39291016 54.5703125 116.6953125 C54.70953125 115.74615967 54.70953125 115.74615967 54.8515625 114.77783203 C54.94179687 114.19114746 55.03203125 113.60446289 55.125 113 C55.29257813 111.948125 55.46015625 110.89625 55.6328125 109.8125 C55.81457031 108.4203125 55.81457031 108.4203125 56 107 C56.18755859 105.48212891 56.18755859 105.48212891 56.37890625 103.93359375 C56.25386719 103.29550781 56.12882812 102.65742187 56 102 C54.89591797 102.48146484 54.89591797 102.48146484 53.76953125 102.97265625 C53.29580078 103.29556641 52.82207031 103.61847656 52.33398438 103.95117188 C51.83189453 104.31791016 51.32980469 104.68464844 50.8125 105.0625 C50.32974609 105.40216797 49.84699219 105.74183594 49.34960938 106.09179688 C48.86943359 106.42373047 48.38925781 106.75566406 47.89453125 107.09765625 C46.93933594 107.72542969 45.98414063 108.35320312 45 109 C44.21367188 109.40476562 43.42734375 109.80953125 42.6171875 110.2265625 C41.32167969 110.60941406 41.32167969 110.60941406 40 111 C39.42950928 111.06533936 38.85901855 111.13067871 38.27124023 111.19799805 C37.32680054 111.24887573 37.32680054 111.24887573 36.36328125 111.30078125 C35.38125732 111.31516235 35.38125732 111.31516235 34.37939453 111.32983398 C33.35628174 111.32125366 33.35628174 111.32125366 32.3125 111.3125 C31.60206543 111.30613525 30.89163086 111.29977051 30.15966797 111.29321289 C29.45084473 111.27637451 28.74202148 111.25953613 28.01171875 111.2421875 C27.32126465 111.20963867 26.63081055 111.17708984 25.91943359 111.14355469 C24.96931396 111.07249512 24.96931396 111.07249512 24 111 C22.55560547 110.78730469 22.55560547 110.78730469 21.08203125 110.5703125 C20.27121094 110.36148438 19.46039063 110.15265625 18.625 109.9375 C17.48417969 109.53917969 17.48417969 109.53917969 16.3203125 109.1328125 C15.55460937 108.75898437 14.78890625 108.38515625 14 108 C13.08992188 107.41992188 12.17984375 106.83984375 11.2421875 106.2421875 C10.33726563 105.60539062 9.43234375 104.96859375 8.5 104.3125 C7.6853125 103.68988281 6.870625 103.06726563 6.03125 102.42578125 C5.3609375 101.95527344 4.690625 101.48476562 4 101 C3.34 101 2.68 101 2 101 Z " transform="translate(15,1)" style="fill: #3C3137;"/></svg>