<?xml version="1.0" encoding="UTF-8"?>
<!-- Generator: visioncortex VTracer -->
<svg id="svg" version="1.1" xmlns="http://www.w3.org/2000/svg" style="display: block;" viewBox="0 0 100 318"><path d="M0 0 C0.70987061 -0.05965942 1.41974121 -0.11931885 2.15112305 -0.18078613 C2.84052979 -0.2065271 3.52993652 -0.23226807 4.24023438 -0.25878906 C4.94547241 -0.26509338 5.65071045 -0.27139771 6.37731934 -0.27789307 C7.47445251 -0.27182037 7.47445251 -0.27182037 8.59375 -0.265625 C9.38414673 -0.26753845 10.17454346 -0.2694519 10.9888916 -0.27142334 C12.21642151 -0.27242035 12.21642151 -0.27242035 13.46875 -0.2734375 C14.29761719 -0.26924805 15.12648438 -0.26505859 15.98046875 -0.26074219 C16.81191406 -0.25719727 17.64335938 -0.25365234 18.5 -0.25 C19.31726562 -0.25354492 20.13453125 -0.25708984 20.9765625 -0.26074219 C21.78867187 -0.26493164 22.60078125 -0.26912109 23.4375 -0.2734375 C24.24860229 -0.27420792 25.05970459 -0.27497833 25.89538574 -0.27577209 C26.70334595 -0.27242355 27.51130615 -0.26907501 28.34375 -0.265625 C29.55037292 -0.25232399 29.55037292 -0.25232399 30.78137207 -0.23875427 C31.58119507 -0.22240433 32.38101807 -0.20605438 33.20507812 -0.18920898 C34.39435913 -0.15209305 34.39435913 -0.15209305 35.60766602 -0.11422729 C36.39713623 -0.07653229 37.18660645 -0.03883728 38 0 C39.1909729 0.08711746 39.1909729 0.08711746 40.40600586 0.17599487 C41.58078491 0.28211594 41.58078491 0.28211594 42.77929688 0.39038086 C43.54294556 0.47036316 44.30659424 0.55034546 45.09338379 0.63275146 C45.82569214 0.71656067 46.55800049 0.80036987 47.3125 0.88671875 C47.99356812 0.96367981 48.67463623 1.04064087 49.37634277 1.11993408 C50.02171997 1.20241394 50.66709717 1.2848938 51.33203125 1.36987305 C51.94688385 1.46283661 52.56173645 1.55580017 53.19522095 1.65158081 C53.79079803 1.76655914 54.38637512 1.88153748 55 2 C55.90146255 2.23881393 55.90146255 2.23881393 56.82113647 2.48245239 C57.39240265 2.65880219 57.96366882 2.83515198 58.55224609 3.0168457 C59.52500488 3.36191162 60.49776367 3.70697754 61.5 4.0625 C62.44101563 4.5059375 63.38203125 4.949375 64.3515625 5.40625 C65.22554688 5.9321875 66.09953125 6.458125 67 7 C67.83273438 7.6290625 68.66546875 8.258125 69.5234375 8.90625 C70.29945312 9.6178125 71.07546875 10.329375 71.875 11.0625 C72.58269531 11.83722656 73.29039063 12.61195312 74.01953125 13.41015625 C74.67308594 14.26480469 75.32664062 15.11945312 76 16 C76.93392578 17.45212891 76.93392578 17.45212891 77.88671875 18.93359375 C78.71623047 20.45146484 78.71623047 20.45146484 79.5625 22 C80.27599609 23.3921875 80.27599609 23.3921875 81.00390625 24.8125 C81.33261719 25.864375 81.66132812 26.91625 82 28 C82.07347656 28.67482422 82.14695312 29.34964844 82.22265625 30.04492188 C82.24328125 30.78291016 82.26390625 31.52089844 82.28515625 32.28125 C82.26219482 33.05210938 82.2392334 33.82296875 82.21557617 34.6171875 C82.10886597 35.79667969 82.10886597 35.79667969 82 37 C81.87407471 37.76570313 81.74814941 38.53140625 81.6184082 39.3203125 C81.45300537 40.09117188 81.28760254 40.86203125 81.1171875 41.65625 C80.9227002 42.44249756 80.72821289 43.22874512 80.52783203 44.03881836 C80.31239746 44.8510083 80.09696289 45.66319824 79.875 46.5 C79.53831299 47.79659546 79.53831299 47.79659546 79.19482422 49.11938477 C78.84315186 50.43894165 78.84315186 50.43894165 78.484375 51.78515625 C78.24009766 52.65930176 77.99582031 53.53344727 77.74414062 54.43408203 C77.49857422 55.28083496 77.25300781 56.12758789 77 57 C76.76474609 57.78101074 76.52949219 58.56202148 76.28710938 59.36669922 C75.93616211 60.48262451 75.93616211 60.48262451 75.578125 61.62109375 C75.2212561 62.70197266 75.2212561 62.70197266 74.85717773 63.8046875 C74.61555908 64.50851563 74.37394043 65.21234375 74.125 65.9375 C73.87886963 66.64261719 73.63273926 67.34773438 73.37915039 68.07421875 C73.12641357 68.76 72.87367676 69.44578125 72.61328125 70.15234375 C72.35369629 70.81089355 72.09411133 71.46944336 71.82666016 72.14794922 C71.41746338 73.06471436 71.41746338 73.06471436 71 74 C70.55406494 74.78721436 70.55406494 74.78721436 70.09912109 75.59033203 C69.79184082 76.07743652 69.48456055 76.56454102 69.16796875 77.06640625 C68.55566406 78.03449219 67.94335938 79.00257812 67.3125 80 C67.01335693 80.50273438 66.71421387 81.00546875 66.40600586 81.5234375 C66.11991455 82.06355469 65.83382324 82.60367188 65.5390625 83.16015625 C65.1354248 84.04405029 65.1354248 84.04405029 64.72363281 84.94580078 C64.48483398 85.62368652 64.24603516 86.30157227 64 87 C63.81276367 87.82870605 63.62552734 88.65741211 63.43261719 89.51123047 C63.27696289 90.43436035 63.12130859 91.35749023 62.9609375 92.30859375 C62.772752 93.71481491 62.772752 93.71481491 62.58076477 95.14944458 C62.4509874 96.23450287 62.32121002 97.31956116 62.1875 98.4375 C62.03981422 99.98256226 62.03981422 99.98256226 61.8891449 101.55883789 C61.75150475 103.16940063 61.75150475 103.16940063 61.61108398 104.8125 C61.56081716 105.40191848 61.51055033 105.99133696 61.45876026 106.5986166 C61.40745299 107.20129392 61.35614573 107.80397123 61.30328369 108.4249115 C61.25259483 109.02582548 61.20190598 109.62673946 61.14968109 110.24586296 C61.10028633 110.82472818 61.05089157 111.40359341 61 112 C60.90877869 113.01570572 60.81755737 114.03141144 60.72357178 115.07789612 C60.63649963 116.06740768 60.54942749 117.05691925 60.4597168 118.07641602 C60.37513214 119.11902588 60.29054749 120.16163574 60.20339966 121.23583984 C60.11951996 122.35555176 60.03564026 123.47526367 59.94921875 124.62890625 C59.90522823 125.23912628 59.86123772 125.84934631 59.81591415 126.47805786 C59.77183552 127.11959808 59.72775688 127.76113831 59.68234253 128.42211914 C59.61788248 129.42850087 59.61788248 129.42850087 59.55212021 130.45521355 C59.51050892 131.15456583 59.46889763 131.85391811 59.42602539 132.57446289 C59.38611607 133.2977585 59.34620674 134.02105412 59.30508804 134.76626778 C59.26782482 135.52218145 59.2305616 136.27809513 59.19216919 137.05691528 C59.15803547 137.84943317 59.12390175 138.64195107 59.08873367 139.45848465 C59.05945156 140.29718472 59.03016945 141.13588478 59 142 C58.96755754 143.35291704 58.96755754 143.35291704 58.93445969 144.73316574 C58.91772831 145.67988773 58.90099693 146.62660973 58.88375854 147.60202026 C58.86352332 149.07214774 58.86352332 149.07214774 58.8428793 150.57197475 C58.83212903 151.58132611 58.82137877 152.59067747 58.81030273 153.63061523 C58.80126702 154.66174218 58.79223131 155.69286913 58.78292179 156.75524235 C58.77551692 157.8069131 58.76811205 158.85858385 58.76048279 159.94212341 C58.75456053 161.01258848 58.74863827 162.08305355 58.74253654 163.18595695 C58.73726511 164.26927866 58.73199368 165.35260036 58.7265625 166.46875 C58.72083284 167.55741426 58.71510319 168.64607853 58.70919991 169.76773262 C58.70094342 171.4132124 58.70094342 171.4132124 58.69252014 173.0919342 C58.68758576 174.19819184 58.68265139 175.30444948 58.67756748 176.44423008 C58.67311084 177.55833728 58.66865419 178.67244448 58.6640625 179.8203125 C58.66011191 180.94169333 58.65616133 182.06307417 58.65209103 183.21843624 C58.64689874 184.90903589 58.64689874 184.90903589 58.64160156 186.63378906 C58.6385199 187.76473999 58.63543823 188.89569092 58.63226318 190.06091309 C58.62866791 191.76326111 58.62866791 191.76326111 58.625 193.5 C58.62389221 194.64005493 58.62278442 195.78010986 58.62164307 196.95471191 C58.62040436 198.66467346 58.62040436 198.66467346 58.61914062 200.40917969 C58.61812159 201.54465996 58.61710255 202.68014023 58.61605263 203.85002899 C58.61384901 204.9797538 58.61164539 206.10947861 58.609375 207.2734375 C58.60420553 208.39689827 58.59903606 209.52035904 58.59370995 210.67786407 C58.5874692 211.7883889 58.58122845 212.89891373 58.57479858 214.04309082 C58.56787365 215.13710709 58.56094872 216.23112335 58.55381393 217.35829163 C58.54651197 218.95984352 58.54651197 218.95984352 58.5390625 220.59375 C58.54167713 221.61911362 58.54429176 222.64447723 58.54698563 223.70091248 C58.54941647 224.69901443 58.55184731 225.69711639 58.55435181 226.72546387 C58.54930161 228.19656239 58.54930161 228.19656239 58.5441494 229.69738007 C58.53425295 230.66027199 58.5243565 231.62316391 58.51416016 232.61523438 C58.49739038 233.55981758 58.48062061 234.50440079 58.46334267 235.47760773 C58.41770967 236.8818462 58.41770967 236.8818462 58.37115479 238.31445312 C58.30032558 239.71117249 58.30032558 239.71117249 58.22806549 241.1361084 C58.15280388 242.08119263 58.07754227 243.02627686 58 244 C57.87776817 244.99221558 57.75553635 245.98443115 57.62960052 247.00671387 C57.48030342 248.00674438 57.33100632 249.0067749 57.17718506 250.03710938 C57.01148199 251.02297279 56.84577892 252.00883621 56.67505455 253.02457428 C56.50175432 253.97746086 56.32845409 254.93034744 56.14990234 255.91210938 C55.90425002 257.24013706 55.90425002 257.24013706 55.65363503 258.59499359 C55.48509703 259.4380732 55.31655903 260.2811528 55.14291382 261.14978027 C54.964604 261.9591655 54.78629417 262.76855072 54.60258102 263.60246277 C54.40372929 264.39365005 54.20487755 265.18483734 54 266 C53.75765247 266.80862991 53.51530495 267.61725983 53.26561356 268.45039368 C53.01131954 269.22461166 52.75702553 269.99882965 52.49502563 270.79650879 C52.2600065 271.47879799 52.02498737 272.16108719 51.78284645 272.86405182 C51.54513212 273.50703972 51.30741779 274.15002762 51.0625 274.8125 C50.65336648 275.83393223 50.65336648 275.83393223 50.23596764 276.87599945 C49.99052019 277.46348213 49.74507275 278.05096481 49.4921875 278.65625 C49.11078613 279.5225 49.11078613 279.5225 48.72167969 280.40625 C48.48352539 280.9321875 48.24537109 281.458125 48 282 C47.61070313 282.8559375 47.22140625 283.711875 46.8203125 284.59375 C46.25957031 285.69203125 46.25957031 285.69203125 45.6875 286.8125 C45.2853125 287.48410156 44.883125 288.15570313 44.46875 288.84765625 C43.9840625 289.55792969 43.499375 290.26820313 43 291 C42.3296875 291.92683594 41.659375 292.85367187 40.96875 293.80859375 C40.41417114 294.53743774 40.41417114 294.53743774 39.84838867 295.28100586 C39.46529541 295.76577393 39.08220215 296.25054199 38.6875 296.75 C38.29989502 297.21865479 37.91229004 297.68730957 37.51293945 298.17016602 C37.12323975 298.61932373 36.73354004 299.06848145 36.33203125 299.53125 C35.17767578 300.75328125 35.17767578 300.75328125 34 302 C33.30261719 302.6084375 32.60523438 303.216875 31.88671875 303.84375 C30.89091797 304.53984375 30.89091797 304.53984375 29.875 305.25 C28.90240234 305.77980469 28.90240234 305.77980469 27.91015625 306.3203125 C27.27980469 306.54460937 26.64945313 306.76890625 26 307 C25.37996094 307.07992188 24.75992188 307.15984375 24.12109375 307.2421875 C23.52425781 307.20351563 22.92742188 307.16484375 22.3125 307.125 C21.219375 306.75375 20.12625 306.3825 19 306 C18.14994385 305.36191406 17.2998877 304.72382813 16.42407227 304.06640625 C15.99651642 303.61555664 15.56896057 303.16470703 15.12844849 302.70019531 C14.75606049 302.13913086 14.38367249 301.57806641 14 301 C13.64504959 299.93797363 13.64504959 299.93797363 13.28292847 298.85449219 C13.11084869 298.04270508 12.93876892 297.23091797 12.76147461 296.39453125 C12.54115822 295.06397705 12.54115822 295.06397705 12.31639099 293.70654297 C12.1797554 292.75150879 12.04311981 291.79647461 11.90234375 290.8125 C11.74133682 289.80074707 11.5803299 288.78899414 11.41444397 287.74658203 C11.24867355 286.6945459 11.08290314 285.64250977 10.91210938 284.55859375 C10.75121826 283.47690918 10.59032715 282.39522461 10.42456055 281.28076172 C10.26383057 280.19811035 10.10310059 279.11545898 9.9375 278 C9.69374634 276.43983154 9.69374634 276.43983154 9.44506836 274.84814453 C9.28208252 273.8167334 9.11909668 272.78532227 8.95117188 271.72265625 C8.78829178 270.68170807 8.62541168 269.64075989 8.45759583 268.56826782 C8.29498764 267.51448944 8.13237946 266.46071106 7.96484375 265.375 C7.80316208 264.29697113 7.64148041 263.21894226 7.47489929 262.10824585 C7.31326797 261.01210968 7.15163666 259.91597351 6.98510742 258.78662109 C6.82311859 257.67567078 6.66112976 256.56472046 6.49423218 255.42010498 C6.33113556 254.29147034 6.16803894 253.16283569 6 252 C5.87613104 251.14145794 5.87613104 251.14145794 5.74975967 250.26557159 C5.6667448 249.68851219 5.58372993 249.11145279 5.49819946 248.51690674 C5.41497311 247.93575041 5.33174675 247.35459408 5.24599838 246.75582695 C5.16264362 246.17076441 5.07928886 245.58570187 4.9934082 244.98291016 C4.91008366 244.39426744 4.82675911 243.80562473 4.74090958 243.19914436 C4.65761272 242.6071166 4.57431587 242.01508884 4.48849487 241.40512085 C4.40524837 240.80984966 4.32200188 240.21457848 4.23623276 239.60126877 C4.1531197 239.0032407 4.07000664 238.40521263 3.984375 237.7890625 C3.86003775 236.88895384 3.86003775 236.88895384 3.73318863 235.97066116 C3.65052624 235.36800808 3.56786385 234.765355 3.48269653 234.1444397 C3.40029346 233.538873 3.3178904 232.93330631 3.23299026 232.30938911 C3.15086666 231.70101141 3.06874306 231.09263371 2.98413086 230.46582031 C2.90227917 229.85474867 2.82042747 229.24367702 2.73609543 228.61408806 C2.65462894 227.99994608 2.57316246 227.3858041 2.48922729 226.75305176 C2.40821148 226.13575699 2.32719566 225.51846222 2.24372482 224.88246155 C2.16329563 224.26124924 2.08286644 223.64003693 2 223 C1.92037647 222.37347031 1.84075294 221.74694061 1.75871658 221.10142517 C1.67971493 220.47140091 1.60071327 219.84137665 1.51931763 219.19226074 C1.44084374 218.55997936 1.36236986 217.92769798 1.28151798 217.27625656 C1.20352183 216.64207432 1.12552568 216.00789207 1.04516602 215.35449219 C0.9675299 214.7189101 0.88989378 214.08332802 0.80990505 213.42848587 C0.73273786 212.79230709 0.65557066 212.15612831 0.57606506 211.50067139 C0.46107005 210.5462125 0.46107005 210.5462125 0.34375191 209.57247162 C0.26769659 208.93754036 0.19164127 208.3026091 0.11328125 207.6484375 C0.0380467 207.01723244 -0.03718784 206.38602737 -0.11470222 205.73569489 C-0.1894068 205.1061364 -0.26411137 204.47657791 -0.34107971 203.82794189 C-0.41548059 203.19862385 -0.48988146 202.5693058 -0.5665369 201.92091751 C-0.64061488 201.29217098 -0.71469286 200.66342445 -0.79101562 200.015625 C-0.86469329 199.38797619 -0.93837095 198.76032738 -1.01428127 198.11365891 C-1.08795957 197.48511631 -1.16163786 196.85657372 -1.23754883 196.20898438 C-1.31138794 195.57893494 -1.38522705 194.9488855 -1.46130371 194.29974365 C-1.53594849 193.66457825 -1.61059326 193.02941284 -1.6875 192.375 C-1.76407837 191.72823303 -1.84065674 191.08146606 -1.91955566 190.4151001 C-2.03539001 189.43957184 -2.03539001 189.43957184 -2.15356445 188.44433594 C-2.23061709 187.79571783 -2.30766973 187.14709972 -2.3870573 186.47882652 C-2.4636448 185.83354815 -2.5402323 185.18826977 -2.61914062 184.5234375 C-2.69475377 183.8839448 -2.77036692 183.2444521 -2.84827137 182.58558083 C-2.95997181 181.63921792 -2.95997181 181.63921792 -3.07392883 180.67373657 C-3.14708124 180.05314991 -3.22023365 179.43256325 -3.2956028 178.79317093 C-3.40258019 177.88621538 -3.40258019 177.88621538 -3.51171875 176.9609375 C-3.6471257 175.81813324 -3.78253265 174.67532898 -3.92204285 173.49789429 C-4.1127813 171.86770859 -4.1127813 171.86770859 -4.30737305 170.20458984 C-4.42600708 169.15213074 -4.54464111 168.09967163 -4.66687012 167.01531982 C-4.77680298 166.02026428 -4.88673584 165.02520874 -5 164 C-5.10219849 163.10307434 -5.20439697 162.20614868 -5.30969238 161.28204346 C-5.44582947 159.97188263 -5.44582947 159.97188263 -5.5847168 158.63525391 C-5.66262955 157.74190338 -5.7405423 156.84855286 -5.82081604 155.9281311 C-5.87994675 154.96184784 -5.93907745 153.99556458 -6 153 C-6.02984482 151.87169769 -6.05968964 150.74339539 -6.09043884 149.5809021 C-6.09853482 148.97793493 -6.1066308 148.37496777 -6.11497211 147.75372887 C-6.12211121 146.81989089 -6.12211121 146.81989089 -6.12939453 145.8671875 C-6.13190059 145.23259928 -6.13440664 144.59801105 -6.13698864 143.94419289 C-6.13763474 143.29374693 -6.13828085 142.64330097 -6.13894653 141.97314453 C-6.13807163 141.30559143 -6.13719673 140.63803833 -6.13629532 139.95025635 C-6.13514599 139.26542175 -6.13399666 138.58058716 -6.1328125 137.875 C-6.13314358 137.17066833 -6.13347466 136.46633667 -6.13381577 135.74066162 C-6.13444141 135.02170715 -6.13506706 134.30275269 -6.13571167 133.56201172 C-6.13606855 132.83186859 -6.13642544 132.10172546 -6.13679314 131.34945679 C-6.13675632 130.2406163 -6.13675632 130.2406163 -6.13671875 129.109375 C-6.13580294 128.3639444 -6.13488712 127.61851379 -6.13394356 126.85049438 C-6.13276464 126.09996796 -6.13158573 125.34944153 -6.13037109 124.57617188 C-6.12924316 123.82198975 -6.12811523 123.06780762 -6.12695312 122.29077148 C-6.12630859 121.53481689 -6.12566406 120.7788623 -6.125 120 C-6.12564453 119.24404541 -6.12628906 118.48809082 -6.12695312 117.70922852 C-6.12808105 116.95504639 -6.12920898 116.20086426 -6.13037109 115.42382812 C-6.13213946 114.29803848 -6.13213946 114.29803848 -6.13394356 113.14950562 C-6.13485937 112.40407501 -6.13577518 111.65864441 -6.13671875 110.890625 C-6.1367433 110.15139801 -6.13676785 109.41217102 -6.13679314 108.65054321 C-6.13643625 107.92040009 -6.13607937 107.19025696 -6.13571167 106.43798828 C-6.13508602 105.71903381 -6.13446037 105.00007935 -6.13381577 104.25933838 C-6.13348469 103.55500671 -6.13315361 102.85067505 -6.1328125 102.125 C-6.13396183 101.44016541 -6.13511116 100.75533081 -6.13629532 100.04974365 C-6.13717022 99.38219055 -6.13804512 98.71463745 -6.13894653 98.02685547 C-6.13810594 97.37566742 -6.13726534 96.72447937 -6.13639927 96.05355835 C-6.13408771 95.41971222 -6.13177614 94.78586609 -6.12939453 94.1328125 C-6.12638556 93.51693268 -6.1233766 92.90105286 -6.12027645 92.26651001 C-6.11354192 91.66873749 -6.10680738 91.07096497 -6.09986877 90.45507812 C-6.06691208 89.31490234 -6.03395538 88.17472656 -6 87 C-5.9128624 85.92685547 -5.82572479 84.85371094 -5.73594666 83.74804688 C-5.63625076 82.77158203 -5.53655487 81.79511719 -5.43383789 80.7890625 C-5.33148331 79.94811035 -5.22912872 79.1071582 -5.12367249 78.24072266 C-5.06245461 77.13156494 -5.06245461 77.13156494 -5 76 C-5.19510414 74.97495361 -5.19510414 74.97495361 -5.39414978 73.92919922 C-5.56958817 73.37506348 -5.74502655 72.82092773 -5.92578125 72.25 C-6.14556641 71.7034375 -6.36535156 71.156875 -6.59179688 70.59375 C-6.82962891 70.0678125 -7.06746094 69.541875 -7.3125 69 C-7.53873047 68.4740625 -7.76496094 67.948125 -7.99804688 67.40625 C-8.22169922 66.8596875 -8.44535156 66.313125 -8.67578125 65.75 C-9.01307251 64.86574341 -9.01307251 64.86574341 -9.35717773 63.96362305 C-9.56930908 63.31562744 -9.78144043 62.66763184 -10 62 C-10.27275757 60.92455933 -10.27275757 60.92455933 -10.55102539 59.82739258 C-10.71723389 59.00392334 -10.88344238 58.1804541 -11.0546875 57.33203125 C-11.21267822 56.38924316 -11.37066895 55.44645508 -11.53344727 54.47509766 C-11.61031769 53.93628967 -11.68718811 53.39748169 -11.76638794 52.84234619 C-11.84347992 52.23437195 -11.9205719 51.62639771 -12 51 C-12.07975067 50.28503357 -12.15950134 49.57006714 -12.2416687 48.83343506 C-12.32168121 48.05228333 -12.40169373 47.27113159 -12.48413086 46.46630859 C-12.56324203 45.64355438 -12.64235321 44.82080017 -12.72386169 43.97311401 C-12.80080765 43.11960358 -12.8777536 42.26609314 -12.95703125 41.38671875 C-13.02926407 40.52265411 -13.10149689 39.65858948 -13.17591858 38.76834106 C-13.24612717 37.89023773 -13.31633575 37.0121344 -13.38867188 36.10742188 C-13.45755615 35.21724365 -13.52644043 34.32706543 -13.59741211 33.40991211 C-13.66839111 32.51151611 -13.73937012 31.61312012 -13.8125 30.6875 C-13.93226196 29.32661255 -13.93226196 29.32661255 -14.05444336 27.93823242 C-14.17348022 26.58725464 -14.17348022 26.58725464 -14.29492188 25.20898438 C-14.36482834 24.32652542 -14.4347348 23.44406647 -14.50675964 22.53486633 C-14.57284927 21.68160263 -14.6389389 20.82833893 -14.70703125 19.94921875 C-14.81927788 18.73500496 -14.81927788 18.73500496 -14.93379211 17.4962616 C-14.98762558 16.73138931 -15.04145905 15.96651703 -15.09692383 15.1784668 C-15.11566559 14.46016693 -15.13440735 13.74186707 -15.15371704 13.00180054 C-15.10299042 12.34120636 -15.05226379 11.68061218 -15 11 C-14.81964203 10.41167389 -14.63928406 9.82334778 -14.45346069 9.2171936 C-14.20673615 8.69281708 -13.9600116 8.16844055 -13.70581055 7.62817383 C-13.14289307 6.76087646 -12.57997559 5.8935791 -12 5 C-11.55541946 4.4749437 -11.11083893 3.94988739 -10.65278625 3.40892029 C-9.83465706 2.71150475 -9.83465706 2.71150475 -9 2 C-8.35333374 1.76202698 -7.70666748 1.52405396 -7.04040527 1.27886963 C-5.9559613 1.05623444 -5.9559613 1.05623444 -4.84960938 0.82910156 C-4.05127686 0.67348755 -3.25294434 0.51787354 -2.43041992 0.35754395 C-1.62838135 0.23955444 -0.82634277 0.12156494 0 0 Z " transform="translate(18,10)" style="fill: #D4A0AC;"/><path d="M0 0 C0.99 0.33 1.98 0.66 3 1 C3 1.99 3 2.98 3 4 C3.66 4 4.32 4 5 4 C5 4.66 5 5.32 5 6 C5.54914062 6.28875 6.09828125 6.5775 6.6640625 6.875 C7.43492188 7.24625 8.20578125 7.6175 9 8 C10.28003906 8.928125 10.28003906 8.928125 11.5859375 9.875 C12.04226562 10.22046875 12.49859375 10.5659375 12.96875 10.921875 C13.4328125 11.27765625 13.896875 11.6334375 14.375 12 C15.29023437 12.70125 16.20546875 13.4025 17.1484375 14.125 C18.08945312 14.74375 19.03046875 15.3625 20 16 C21.51013672 16.60908203 21.51013672 16.60908203 23.05078125 17.23046875 C24.02402344 17.48441406 24.99726562 17.73835938 26 18 C26.81082031 18.09925781 27.62164062 18.19851562 28.45703125 18.30078125 C29.23433594 18.30464844 30.01164062 18.30851562 30.8125 18.3125 C31.67101563 18.29316406 32.52953125 18.27382812 33.4140625 18.25390625 C34.69410156 18.12822266 34.69410156 18.12822266 36 18 C36.79148438 17.82339844 37.58296875 17.64679688 38.3984375 17.46484375 C39.15382812 17.22894531 39.90921875 16.99304688 40.6875 16.75 C41.4196875 16.47542969 42.151875 16.20085937 42.90625 15.91796875 C43.5971875 15.61503906 44.288125 15.31210938 45 15 C45.6290625 14.68675781 46.258125 14.37351562 46.90625 14.05078125 C47.4940625 13.72464844 48.081875 13.39851563 48.6875 13.0625 C49.18636719 12.76472656 49.68523437 12.46695313 50.19921875 12.16015625 C50.79347656 11.77730469 51.38773438 11.39445312 52 11 C52.52102295 10.50387207 53.0420459 10.00774414 53.57885742 9.49658203 C54.41767456 8.76157471 54.41767456 8.76157471 55.2734375 8.01171875 C56.62308594 7.51091797 56.62308594 7.51091797 58 7 C58.1074353 8.07036499 58.1074353 8.07036499 58.21704102 9.16235352 C58.13381592 10.25862061 58.05059082 11.3548877 57.96484375 12.484375 C57.86211403 13.43865639 57.86211403 13.43865639 57.75730896 14.41221619 C57.67561966 15.08829422 57.59393036 15.76437225 57.50976562 16.4609375 C57.41606689 17.17088867 57.32236816 17.88083984 57.22583008 18.61230469 C57.13068115 19.31774414 57.03553223 20.02318359 56.9375 20.75 C56.8547583 21.39163086 56.7720166 22.03326172 56.68676758 22.69433594 C56.60773193 23.32887695 56.52869629 23.96341797 56.44726562 24.6171875 C56.36798828 25.2785672 56.28871094 25.9399469 56.20703125 26.62136841 C56.12710938 27.31866058 56.0471875 28.01595276 55.96484375 28.734375 C55.88089355 29.4870163 55.79694336 30.23965759 55.71044922 31.0151062 C55.62746582 31.82593658 55.54448242 32.63676697 55.45898438 33.47216797 C55.34006836 34.77997223 55.34006836 34.77997223 55.21875 36.11419678 C55.1465625 37.06651184 55.074375 38.0188269 55 39 C54.91129639 40.59065277 54.91129639 40.59065277 54.82080078 42.21343994 C54.76972168 43.36004089 54.71864258 44.50664185 54.66601562 45.68798828 C54.6307856 46.59097184 54.6307856 46.59097184 54.59484386 47.51219749 C54.57258393 48.13229006 54.550324 48.75238262 54.52738953 49.39126587 C54.50633337 50.02925739 54.48527721 50.66724892 54.46358299 51.32457352 C54.44337404 51.97801113 54.42316509 52.63144875 54.40234375 53.3046875 C54.38249231 53.96971661 54.36264088 54.63474571 54.34218788 55.31992722 C54.32307035 56.00054844 54.30395283 56.68116966 54.28425598 57.38241577 C54.25699826 58.43078897 54.25699826 58.43078897 54.22918987 59.50034142 C54.21196786 60.21759203 54.19474585 60.93484264 54.17700195 61.67382812 C54.15269088 62.77721999 54.15269088 62.77721999 54.12788868 63.9029026 C54.11272552 64.65963957 54.09756235 65.41637653 54.0819397 66.19604492 C54.06781162 66.97501129 54.05368355 67.75397766 54.03912735 68.55654907 C54.02621532 69.36288788 54.0133033 70.16922668 54 71 C53.98861874 71.84259369 53.97723747 72.68518738 53.96551132 73.55331421 C53.95011999 74.85639023 53.95011999 74.85639023 53.93441772 76.18579102 C53.92500499 77.07424461 53.91559225 77.96269821 53.90589428 78.87807465 C53.89722993 79.78391548 53.88856558 80.68975632 53.87963867 81.62304688 C53.87157102 82.54220131 53.86350336 83.46135574 53.85519123 84.40836334 C53.84760383 85.33961784 53.84001642 86.27087234 53.8321991 87.23034668 C53.82140855 88.64346382 53.82140855 88.64346382 53.81040001 90.08512878 C53.79983794 91.5086541 53.79983794 91.5086541 53.7890625 92.9609375 C53.78182474 93.91176712 53.77458698 94.86259674 53.7671299 95.84223938 C53.7563318 97.27487373 53.7563318 97.27487373 53.74531555 98.7364502 C53.73478889 100.17710217 53.73478889 100.17710217 53.72404957 101.64685822 C53.71369191 103.09396809 53.71369191 103.09396809 53.703125 104.5703125 C53.69281643 106.02276997 53.69281643 106.02276997 53.68229961 107.50457001 C53.67563684 108.47662636 53.66897406 109.44868271 53.66210938 110.45019531 C53.65247162 111.91286835 53.65247162 111.91286835 53.64263916 113.40509033 C53.63681824 114.38516052 53.63099731 115.36523071 53.625 116.375 C53.62046814 117.36409363 53.61593628 118.35318726 53.61126709 119.37225342 C53.60709778 120.36315979 53.60292847 121.35406616 53.59863281 122.375 C53.59437601 123.36240866 53.59011921 124.34981731 53.58573341 125.36714745 C53.57810006 126.84056571 53.57810006 126.84056571 53.5703125 128.34375 C53.55937844 129.80693381 53.55937844 129.80693381 53.5482235 131.2996769 C53.5401549 132.26318251 53.5320863 133.22668812 53.52377319 134.21939087 C53.51522686 135.16802631 53.50668053 136.11666176 53.49787521 137.09404373 C53.49084202 138.01949368 53.48380882 138.94494362 53.4765625 139.8984375 C53.47499775 140.7874815 53.473433 141.6765255 53.47182083 142.59251022 C53.47013271 143.4569437 53.4684446 144.32137718 53.46670532 145.21200562 C53.46085608 146.05923502 53.45500683 146.90646442 53.44898033 147.77936745 C53.43826311 148.60933928 53.42754589 149.4393111 53.41650391 150.29443359 C53.40032328 151.10775335 53.38414265 151.92107311 53.36747169 152.75903893 C53.32844766 153.96218459 53.32844766 153.96218459 53.28863525 155.18963623 C53.25066078 155.98226616 53.21268631 156.77489609 53.1735611 157.5915451 C53.11628593 158.38633522 53.05901077 159.18112534 53 160 C52.91122337 160.81718758 52.82244675 161.63437515 52.73097992 162.47632599 C52.62315437 163.29183678 52.51532883 164.10734756 52.40423584 164.9475708 C52.28313131 165.7497938 52.16202679 166.55201679 52.03725243 167.37854958 C51.91071596 168.15033232 51.7841795 168.92211506 51.65380859 169.71728516 C51.53740839 170.42624121 51.42100819 171.13519726 51.3010807 171.86563683 C51.17742323 172.54585711 51.05376575 173.22607738 50.92636108 173.9269104 C50.78887325 174.59126728 50.65138542 175.25562416 50.50973129 175.94011307 C50.34151997 176.61987576 50.17330864 177.29963844 50 178 C49.76819157 178.75685467 49.53638313 179.51370934 49.2975502 180.29349899 C48.91649439 181.42685118 48.91649439 181.42685118 48.52774048 182.58309937 C48.28856211 183.26300619 48.04938374 183.94291302 47.80295753 184.64342308 C47.55860655 185.29734346 47.31425556 185.95126385 47.0625 186.625 C46.78454779 187.32336786 46.50659557 188.02173573 46.22022057 188.74126625 C45.84630904 189.65051133 45.84630904 189.65051133 45.46484375 190.578125 C45.08368408 191.47241211 45.08368408 191.47241211 44.69482422 192.38476562 C44.46553223 192.91779297 44.23624023 193.45082031 44 194 C43.50693359 195.19882812 43.50693359 195.19882812 43.00390625 196.421875 C42.71386719 197.06640625 42.42382812 197.7109375 42.125 198.375 C41.81691406 198.95507812 41.50882813 199.53515625 41.19140625 200.1328125 C40.79824219 200.74898437 40.40507813 201.36515625 40 202 C39.08541016 203.26457031 39.08541016 203.26457031 38.15234375 204.5546875 C37.46269531 205.44414062 36.77304687 206.33359375 36.0625 207.25 C35.41410156 208.05953125 34.76570313 208.8690625 34.09765625 209.703125 C33.40542969 210.46109375 32.71320312 211.2190625 32 212 C31.154375 212.7425 30.30875 213.485 29.4375 214.25 C28.633125 214.8275 27.82875 215.405 27 216 C25.989375 216.2475 24.97875 216.495 23.9375 216.75 C22.4834375 216.37875 22.4834375 216.37875 21 216 C20.6397876 215.53609863 20.2795752 215.07219727 19.90844727 214.59423828 C19.58932373 213.96759277 19.2702002 213.34094727 18.94140625 212.6953125 C18.60181885 211.96699219 18.26223145 211.23867188 17.91235352 210.48828125 C17.61127686 209.66714844 17.3102002 208.84601563 17 208 C16.79238037 207.11699219 16.58476074 206.23398437 16.37084961 205.32421875 C16.20721924 204.37417969 16.04358887 203.42414063 15.875 202.4453125 C15.72796631 201.43170654 15.58093262 200.41810059 15.42944336 199.3737793 C15.28772705 198.30168213 15.14601074 197.22958496 15 196.125 C14.75745483 194.42500854 14.75745483 194.42500854 14.51000977 192.69067383 C14.42669907 192.11006699 14.34338837 191.52946014 14.2575531 190.93125916 C14.17384964 190.34421707 14.09014618 189.75717499 14.00390625 189.15234375 C13.92145157 188.5604274 13.83899689 187.96851105 13.75404358 187.35865784 C13.67165939 186.76576462 13.58927521 186.1728714 13.50439453 185.56201172 C13.42151184 184.97055359 13.33862915 184.37909546 13.25323486 183.76971436 C13.16966736 183.18570862 13.08609985 182.60170288 13 182 C12.82968262 180.87480957 12.65936523 179.74961914 12.48388672 178.59033203 C12.31260254 177.48931152 12.14131836 176.38829102 11.96484375 175.25390625 C11.79460693 174.16601807 11.62437012 173.07812988 11.44897461 171.95727539 C11.28018799 170.87824951 11.11140137 169.79922363 10.9375 168.6875 C10.77064697 167.60138428 10.60379395 166.51526855 10.43188477 165.39624023 C10.26873779 164.32704346 10.10559082 163.25784668 9.9375 162.15625 C9.77894531 161.1146875 9.62039062 160.073125 9.45703125 159 C9.30621094 158.01 9.15539063 157.02 9 156 C8.86207031 155.10539063 8.72414063 154.21078125 8.58203125 153.2890625 C8.38673828 152.01675781 8.38673828 152.01675781 8.1875 150.71875 C8.06173584 149.88311523 7.93597168 149.04748047 7.80639648 148.18652344 C7.68466064 147.3618457 7.5629248 146.53716797 7.4375 145.6875 C7.25973022 144.46595215 7.25973022 144.46595215 7.07836914 143.21972656 C6.96098389 142.37893555 6.84359863 141.53814453 6.72265625 140.671875 C6.6055127 139.78951172 6.48836914 138.90714844 6.36767578 137.99804688 C6.24634277 137.00869141 6.12500977 136.01933594 6 135 C5.93447937 134.41532959 5.86895874 133.83065918 5.80145264 133.22827148 C5.7340387 132.6044458 5.66662476 131.98062012 5.59716797 131.33789062 C5.52907425 130.69329391 5.46098053 130.0486972 5.39082336 129.38456726 C5.32243759 128.72656631 5.25405182 128.06856537 5.18359375 127.390625 C5.11565109 126.73314774 5.04770844 126.07567047 4.97770691 125.39826965 C4.8767144 124.41089058 4.8767144 124.41089058 4.77368164 123.40356445 C4.70714386 122.74619293 4.64060608 122.08882141 4.572052 121.41152954 C4.50702484 120.76009979 4.44199768 120.10867004 4.375 119.4375 C4.3124704 118.79581879 4.2499408 118.15413757 4.18551636 117.49301147 C4.12485992 116.86649689 4.06420349 116.2399823 4.00170898 115.59448242 C3.9420546 114.98775696 3.88240021 114.38103149 3.82093811 113.75592041 C3.76401291 113.17517761 3.70708771 112.59443481 3.6484375 111.99609375 C3.54708496 110.93575928 3.44573242 109.8754248 3.34130859 108.78295898 C3.22867676 107.86458252 3.11604492 106.94620605 3 106 C2.75467529 105.07151245 2.75467529 105.07151245 2.50439453 104.12426758 C2.33794434 103.42325928 2.17149414 102.72225098 2 102 C1.93517426 101.44670517 1.87034851 100.89341034 1.80355835 100.323349 C1.74527863 99.67813797 1.6869989 99.03292694 1.62695312 98.36816406 C1.57019409 97.67354065 1.51343506 96.97891724 1.45495605 96.26324463 C1.36897156 95.15067291 1.36897156 95.15067291 1.28125 94.015625 C1.21844849 93.24120056 1.15564697 92.46677612 1.09094238 91.66888428 C1.02612671 90.86807434 0.96131104 90.0672644 0.89453125 89.2421875 C0.82959473 88.42202148 0.7646582 87.60185547 0.69775391 86.75683594 C0.63249512 85.92958008 0.56723633 85.10232422 0.5 84.25 C0.43474121 83.42983398 0.36948242 82.60966797 0.30224609 81.76464844 C0.20484131 80.54696777 0.20484131 80.54696777 0.10546875 79.3046875 C0.04065308 78.50254822 -0.0241626 77.70040894 -0.09094238 76.8739624 C-0.1537439 76.09571106 -0.21654541 75.31745972 -0.28125 74.515625 C-0.3672345 73.41519867 -0.3672345 73.41519867 -0.45495605 72.2925415 C-0.5400946 71.23169342 -0.5400946 71.23169342 -0.62695312 70.14941406 C-0.68456818 69.45535965 -0.74218323 68.76130524 -0.80154419 68.04621887 C-0.86703461 67.37096664 -0.93252502 66.69571442 -1 66 C-1.08667938 65.35355026 -1.17335876 64.70710052 -1.26266479 64.0410614 C-1.35307037 63.39707901 -1.44347595 62.75309662 -1.53662109 62.08959961 C-1.62147766 61.43194611 -1.70633423 60.7742926 -1.79376221 60.09671021 C-1.86182068 59.40479584 -1.92987915 58.71288147 -2 58 C-2.03083679 57.24081268 -2.06167358 56.48162537 -2.09344482 55.69943237 C-2.10530823 54.89410065 -2.11717163 54.08876892 -2.12939453 53.2590332 C-2.13254669 52.42068436 -2.13569885 51.58233551 -2.13894653 50.71858215 C-2.1369223 49.83820786 -2.13489807 48.95783356 -2.1328125 48.05078125 C-2.13376923 47.11630661 -2.13472595 46.18183197 -2.13571167 45.21903992 C-2.13604401 44.2527919 -2.13637634 43.28654388 -2.13671875 42.29101562 C-2.13462402 41.30786377 -2.1325293 40.32471191 -2.13037109 39.31176758 C-2.12859863 38.32200928 -2.12682617 37.33225098 -2.125 36.3125 C-2.12677246 35.331604 -2.12854492 34.35070801 -2.13037109 33.34008789 C-2.13246582 32.36740967 -2.13456055 31.39473145 -2.13671875 30.39257812 C-2.13710144 29.43133026 -2.13748413 28.4700824 -2.13787842 27.47970581 C-2.13620667 26.53378571 -2.13453491 25.5878656 -2.1328125 24.61328125 C-2.12840149 23.68307159 -2.12399048 22.75286194 -2.1194458 21.79446411 C-2.11128845 20.89372162 -2.1031311 19.99297913 -2.09472656 19.06494141 C-2.08235962 18.20257874 -2.06999268 17.34021606 -2.05725098 16.45172119 C-2.03835815 15.6426532 -2.01946533 14.83358521 -2 14 C-1.97079468 13.26698669 -1.94158936 12.53397339 -1.91149902 11.77874756 C-1.87592896 11.10716614 -1.84035889 10.43558472 -1.80371094 9.74365234 C-1.7635788 9.12797897 -1.72344666 8.5123056 -1.68209839 7.87797546 C-1.61903 7.03152214 -1.61903 7.03152214 -1.5546875 6.16796875 C-1.47460449 5.17434326 -1.39452148 4.18071777 -1.31201172 3.15698242 C-1.20904785 2.44517822 -1.10608398 1.73337402 -1 1 C-0.67 0.67 -0.34 0.34 0 0 Z " transform="translate(18,95)" style="fill: #EBB2C1;"/><path d="M0 0 C0.70987061 -0.05965942 1.41974121 -0.11931885 2.15112305 -0.18078613 C2.84052979 -0.2065271 3.52993652 -0.23226807 4.24023438 -0.25878906 C4.94547241 -0.26509338 5.65071045 -0.27139771 6.37731934 -0.27789307 C7.47445251 -0.27182037 7.47445251 -0.27182037 8.59375 -0.265625 C9.38414673 -0.26753845 10.17454346 -0.2694519 10.9888916 -0.27142334 C12.21642151 -0.27242035 12.21642151 -0.27242035 13.46875 -0.2734375 C14.29761719 -0.26924805 15.12648438 -0.26505859 15.98046875 -0.26074219 C16.81191406 -0.25719727 17.64335938 -0.25365234 18.5 -0.25 C19.31726562 -0.25354492 20.13453125 -0.25708984 20.9765625 -0.26074219 C21.78867187 -0.26493164 22.60078125 -0.26912109 23.4375 -0.2734375 C24.24860229 -0.27420792 25.05970459 -0.27497833 25.89538574 -0.27577209 C26.70334595 -0.27242355 27.51130615 -0.26907501 28.34375 -0.265625 C29.55037292 -0.25232399 29.55037292 -0.25232399 30.78137207 -0.23875427 C31.58119507 -0.22240433 32.38101807 -0.20605438 33.20507812 -0.18920898 C34.39435913 -0.15209305 34.39435913 -0.15209305 35.60766602 -0.11422729 C36.39713623 -0.07653229 37.18660645 -0.03883728 38 0 C39.1909729 0.08711746 39.1909729 0.08711746 40.40600586 0.17599487 C41.58078491 0.28211594 41.58078491 0.28211594 42.77929688 0.39038086 C43.54294556 0.47036316 44.30659424 0.55034546 45.09338379 0.63275146 C45.82569214 0.71656067 46.55800049 0.80036987 47.3125 0.88671875 C47.99356812 0.96367981 48.67463623 1.04064087 49.37634277 1.11993408 C50.02171997 1.20241394 50.66709717 1.2848938 51.33203125 1.36987305 C51.94688385 1.46283661 52.56173645 1.55580017 53.19522095 1.65158081 C53.79079803 1.76655914 54.38637512 1.88153748 55 2 C55.90146255 2.23881393 55.90146255 2.23881393 56.82113647 2.48245239 C57.39240265 2.65880219 57.96366882 2.83515198 58.55224609 3.0168457 C59.52500488 3.36191162 60.49776367 3.70697754 61.5 4.0625 C62.44101563 4.5059375 63.38203125 4.949375 64.3515625 5.40625 C65.22554688 5.9321875 66.09953125 6.458125 67 7 C67.83273438 7.6290625 68.66546875 8.258125 69.5234375 8.90625 C70.29945312 9.6178125 71.07546875 10.329375 71.875 11.0625 C72.58269531 11.83722656 73.29039063 12.61195312 74.01953125 13.41015625 C74.67308594 14.26480469 75.32664062 15.11945312 76 16 C76.93392578 17.45212891 76.93392578 17.45212891 77.88671875 18.93359375 C78.71623047 20.45146484 78.71623047 20.45146484 79.5625 22 C80.27599609 23.3921875 80.27599609 23.3921875 81.00390625 24.8125 C81.33261719 25.864375 81.66132812 26.91625 82 28 C82.07347656 28.67482422 82.14695312 29.34964844 82.22265625 30.04492188 C82.24328125 30.78291016 82.26390625 31.52089844 82.28515625 32.28125 C82.26219482 33.05210938 82.2392334 33.82296875 82.21557617 34.6171875 C82.10886597 35.79667969 82.10886597 35.79667969 82 37 C81.87407471 37.76570313 81.74814941 38.53140625 81.6184082 39.3203125 C81.45300537 40.09117188 81.28760254 40.86203125 81.1171875 41.65625 C80.9227002 42.44249756 80.72821289 43.22874512 80.52783203 44.03881836 C80.31239746 44.8510083 80.09696289 45.66319824 79.875 46.5 C79.53831299 47.79659546 79.53831299 47.79659546 79.19482422 49.11938477 C78.84315186 50.43894165 78.84315186 50.43894165 78.484375 51.78515625 C78.24009766 52.65930176 77.99582031 53.53344727 77.74414062 54.43408203 C77.49857422 55.28083496 77.25300781 56.12758789 77 57 C76.76474609 57.78101074 76.52949219 58.56202148 76.28710938 59.36669922 C75.93616211 60.48262451 75.93616211 60.48262451 75.578125 61.62109375 C75.2212561 62.70197266 75.2212561 62.70197266 74.85717773 63.8046875 C74.61555908 64.50851563 74.37394043 65.21234375 74.125 65.9375 C73.87886963 66.64261719 73.63273926 67.34773438 73.37915039 68.07421875 C73.12641357 68.76 72.87367676 69.44578125 72.61328125 70.15234375 C72.35369629 70.81089355 72.09411133 71.46944336 71.82666016 72.14794922 C71.41746338 73.06471436 71.41746338 73.06471436 71 74 C70.55406494 74.78721436 70.55406494 74.78721436 70.09912109 75.59033203 C69.79184082 76.07743652 69.48456055 76.56454102 69.16796875 77.06640625 C68.55566406 78.03449219 67.94335938 79.00257812 67.3125 80 C67.01335693 80.50273438 66.71421387 81.00546875 66.40600586 81.5234375 C66.11991455 82.06355469 65.83382324 82.60367188 65.5390625 83.16015625 C65.1354248 84.04405029 65.1354248 84.04405029 64.72363281 84.94580078 C64.48483398 85.62368652 64.24603516 86.30157227 64 87 C63.81276367 87.82870605 63.62552734 88.65741211 63.43261719 89.51123047 C63.27696289 90.43436035 63.12130859 91.35749023 62.9609375 92.30859375 C62.772752 93.71481491 62.772752 93.71481491 62.58076477 95.14944458 C62.4509874 96.23450287 62.32121002 97.31956116 62.1875 98.4375 C62.03981422 99.98256226 62.03981422 99.98256226 61.8891449 101.55883789 C61.75150475 103.16940063 61.75150475 103.16940063 61.61108398 104.8125 C61.56081716 105.40191848 61.51055033 105.99133696 61.45876026 106.5986166 C61.40745299 107.20129392 61.35614573 107.80397123 61.30328369 108.4249115 C61.25259483 109.02582548 61.20190598 109.62673946 61.14968109 110.24586296 C61.10028633 110.82472818 61.05089157 111.40359341 61 112 C60.90877869 113.01570572 60.81755737 114.03141144 60.72357178 115.07789612 C60.63649963 116.06740768 60.54942749 117.05691925 60.4597168 118.07641602 C60.37513214 119.11902588 60.29054749 120.16163574 60.20339966 121.23583984 C60.11951996 122.35555176 60.03564026 123.47526367 59.94921875 124.62890625 C59.90522823 125.23912628 59.86123772 125.84934631 59.81591415 126.47805786 C59.77183552 127.11959808 59.72775688 127.76113831 59.68234253 128.42211914 C59.61788248 129.42850087 59.61788248 129.42850087 59.55212021 130.45521355 C59.51050892 131.15456583 59.46889763 131.85391811 59.42602539 132.57446289 C59.38611607 133.2977585 59.34620674 134.02105412 59.30508804 134.76626778 C59.26782482 135.52218145 59.2305616 136.27809513 59.19216919 137.05691528 C59.15803547 137.84943317 59.12390175 138.64195107 59.08873367 139.45848465 C59.05945156 140.29718472 59.03016945 141.13588478 59 142 C58.96755754 143.35291704 58.96755754 143.35291704 58.93445969 144.73316574 C58.91772831 145.67988773 58.90099693 146.62660973 58.88375854 147.60202026 C58.86352332 149.07214774 58.86352332 149.07214774 58.8428793 150.57197475 C58.83212903 151.58132611 58.82137877 152.59067747 58.81030273 153.63061523 C58.80126702 154.66174218 58.79223131 155.69286913 58.78292179 156.75524235 C58.77551692 157.8069131 58.76811205 158.85858385 58.76048279 159.94212341 C58.75456053 161.01258848 58.74863827 162.08305355 58.74253654 163.18595695 C58.73726511 164.26927866 58.73199368 165.35260036 58.7265625 166.46875 C58.72083284 167.55741426 58.71510319 168.64607853 58.70919991 169.76773262 C58.70094342 171.4132124 58.70094342 171.4132124 58.69252014 173.0919342 C58.68758576 174.19819184 58.68265139 175.30444948 58.67756748 176.44423008 C58.67311084 177.55833728 58.66865419 178.67244448 58.6640625 179.8203125 C58.66011191 180.94169333 58.65616133 182.06307417 58.65209103 183.21843624 C58.64689874 184.90903589 58.64689874 184.90903589 58.64160156 186.63378906 C58.6385199 187.76473999 58.63543823 188.89569092 58.63226318 190.06091309 C58.62866791 191.76326111 58.62866791 191.76326111 58.625 193.5 C58.62389221 194.64005493 58.62278442 195.78010986 58.62164307 196.95471191 C58.62040436 198.66467346 58.62040436 198.66467346 58.61914062 200.40917969 C58.61812159 201.54465996 58.61710255 202.68014023 58.61605263 203.85002899 C58.61384901 204.9797538 58.61164539 206.10947861 58.609375 207.2734375 C58.60420553 208.39689827 58.59903606 209.52035904 58.59370995 210.67786407 C58.5874692 211.7883889 58.58122845 212.89891373 58.57479858 214.04309082 C58.56787365 215.13710709 58.56094872 216.23112335 58.55381393 217.35829163 C58.54651197 218.95984352 58.54651197 218.95984352 58.5390625 220.59375 C58.54167713 221.61911362 58.54429176 222.64447723 58.54698563 223.70091248 C58.54941647 224.69901443 58.55184731 225.69711639 58.55435181 226.72546387 C58.54930161 228.19656239 58.54930161 228.19656239 58.5441494 229.69738007 C58.53425295 230.66027199 58.5243565 231.62316391 58.51416016 232.61523438 C58.49739038 233.55981758 58.48062061 234.50440079 58.46334267 235.47760773 C58.41770967 236.8818462 58.41770967 236.8818462 58.37115479 238.31445312 C58.30032558 239.71117249 58.30032558 239.71117249 58.22806549 241.1361084 C58.15280388 242.08119263 58.07754227 243.02627686 58 244 C57.87776817 244.99221558 57.75553635 245.98443115 57.62960052 247.00671387 C57.48030342 248.00674438 57.33100632 249.0067749 57.17718506 250.03710938 C57.01148199 251.02297279 56.84577892 252.00883621 56.67505455 253.02457428 C56.50175432 253.97746086 56.32845409 254.93034744 56.14990234 255.91210938 C55.90425002 257.24013706 55.90425002 257.24013706 55.65363503 258.59499359 C55.48509703 259.4380732 55.31655903 260.2811528 55.14291382 261.14978027 C54.964604 261.9591655 54.78629417 262.76855072 54.60258102 263.60246277 C54.40372929 264.39365005 54.20487755 265.18483734 54 266 C53.75765247 266.80862991 53.51530495 267.61725983 53.26561356 268.45039368 C53.01131954 269.22461166 52.75702553 269.99882965 52.49502563 270.79650879 C52.2600065 271.47879799 52.02498737 272.16108719 51.78284645 272.86405182 C51.54513212 273.50703972 51.30741779 274.15002762 51.0625 274.8125 C50.65336648 275.83393223 50.65336648 275.83393223 50.23596764 276.87599945 C49.99052019 277.46348213 49.74507275 278.05096481 49.4921875 278.65625 C49.11078613 279.5225 49.11078613 279.5225 48.72167969 280.40625 C48.48352539 280.9321875 48.24537109 281.458125 48 282 C47.61070313 282.8559375 47.22140625 283.711875 46.8203125 284.59375 C46.25957031 285.69203125 46.25957031 285.69203125 45.6875 286.8125 C45.2853125 287.48410156 44.883125 288.15570313 44.46875 288.84765625 C43.9840625 289.55792969 43.499375 290.26820313 43 291 C42.3296875 291.92683594 41.659375 292.85367187 40.96875 293.80859375 C40.41417114 294.53743774 40.41417114 294.53743774 39.84838867 295.28100586 C39.46529541 295.76577393 39.08220215 296.25054199 38.6875 296.75 C38.29989502 297.21865479 37.91229004 297.68730957 37.51293945 298.17016602 C37.12323975 298.61932373 36.73354004 299.06848145 36.33203125 299.53125 C35.17767578 300.75328125 35.17767578 300.75328125 34 302 C33.30261719 302.6084375 32.60523438 303.216875 31.88671875 303.84375 C30.89091797 304.53984375 30.89091797 304.53984375 29.875 305.25 C28.90240234 305.77980469 28.90240234 305.77980469 27.91015625 306.3203125 C27.27980469 306.54460937 26.64945313 306.76890625 26 307 C25.37996094 307.07992188 24.75992188 307.15984375 24.12109375 307.2421875 C23.52425781 307.20351563 22.92742188 307.16484375 22.3125 307.125 C21.219375 306.75375 20.12625 306.3825 19 306 C18.14994385 305.36191406 17.2998877 304.72382813 16.42407227 304.06640625 C15.99651642 303.61555664 15.56896057 303.16470703 15.12844849 302.70019531 C14.75606049 302.13913086 14.38367249 301.57806641 14 301 C13.64504959 299.93797363 13.64504959 299.93797363 13.28292847 298.85449219 C13.11084869 298.04270508 12.93876892 297.23091797 12.76147461 296.39453125 C12.54115822 295.06397705 12.54115822 295.06397705 12.31639099 293.70654297 C12.1797554 292.75150879 12.04311981 291.79647461 11.90234375 290.8125 C11.74133682 289.80074707 11.5803299 288.78899414 11.41444397 287.74658203 C11.24867355 286.6945459 11.08290314 285.64250977 10.91210938 284.55859375 C10.75121826 283.47690918 10.59032715 282.39522461 10.42456055 281.28076172 C10.26383057 280.19811035 10.10310059 279.11545898 9.9375 278 C9.69374634 276.43983154 9.69374634 276.43983154 9.44506836 274.84814453 C9.28208252 273.8167334 9.11909668 272.78532227 8.95117188 271.72265625 C8.78829178 270.68170807 8.62541168 269.64075989 8.45759583 268.56826782 C8.29498764 267.51448944 8.13237946 266.46071106 7.96484375 265.375 C7.80316208 264.29697113 7.64148041 263.21894226 7.47489929 262.10824585 C7.31326797 261.01210968 7.15163666 259.91597351 6.98510742 258.78662109 C6.82311859 257.67567078 6.66112976 256.56472046 6.49423218 255.42010498 C6.33113556 254.29147034 6.16803894 253.16283569 6 252 C5.87613104 251.14145794 5.87613104 251.14145794 5.74975967 250.26557159 C5.6667448 249.68851219 5.58372993 249.11145279 5.49819946 248.51690674 C5.41497311 247.93575041 5.33174675 247.35459408 5.24599838 246.75582695 C5.16264362 246.17076441 5.07928886 245.58570187 4.9934082 244.98291016 C4.91008366 244.39426744 4.82675911 243.80562473 4.74090958 243.19914436 C4.65761272 242.6071166 4.57431587 242.01508884 4.48849487 241.40512085 C4.40524837 240.80984966 4.32200188 240.21457848 4.23623276 239.60126877 C4.1531197 239.0032407 4.07000664 238.40521263 3.984375 237.7890625 C3.86003775 236.88895384 3.86003775 236.88895384 3.73318863 235.97066116 C3.65052624 235.36800808 3.56786385 234.765355 3.48269653 234.1444397 C3.40029346 233.538873 3.3178904 232.93330631 3.23299026 232.30938911 C3.15086666 231.70101141 3.06874306 231.09263371 2.98413086 230.46582031 C2.90227917 229.85474867 2.82042747 229.24367702 2.73609543 228.61408806 C2.65462894 227.99994608 2.57316246 227.3858041 2.48922729 226.75305176 C2.40821148 226.13575699 2.32719566 225.51846222 2.24372482 224.88246155 C2.16329563 224.26124924 2.08286644 223.64003693 2 223 C1.92037647 222.37347031 1.84075294 221.74694061 1.75871658 221.10142517 C1.67971493 220.47140091 1.60071327 219.84137665 1.51931763 219.19226074 C1.44084374 218.55997936 1.36236986 217.92769798 1.28151798 217.27625656 C1.20352183 216.64207432 1.12552568 216.00789207 1.04516602 215.35449219 C0.9675299 214.7189101 0.88989378 214.08332802 0.80990505 213.42848587 C0.73273786 212.79230709 0.65557066 212.15612831 0.57606506 211.50067139 C0.46107005 210.5462125 0.46107005 210.5462125 0.34375191 209.57247162 C0.26769659 208.93754036 0.19164127 208.3026091 0.11328125 207.6484375 C0.0380467 207.01723244 -0.03718784 206.38602737 -0.11470222 205.73569489 C-0.1894068 205.1061364 -0.26411137 204.47657791 -0.34107971 203.82794189 C-0.41548059 203.19862385 -0.48988146 202.5693058 -0.5665369 201.92091751 C-0.64061488 201.29217098 -0.71469286 200.66342445 -0.79101562 200.015625 C-0.86469329 199.38797619 -0.93837095 198.76032738 -1.01428127 198.11365891 C-1.08795957 197.48511631 -1.16163786 196.85657372 -1.23754883 196.20898438 C-1.31138794 195.57893494 -1.38522705 194.9488855 -1.46130371 194.29974365 C-1.53594849 193.66457825 -1.61059326 193.02941284 -1.6875 192.375 C-1.76407837 191.72823303 -1.84065674 191.08146606 -1.91955566 190.4151001 C-2.03539001 189.43957184 -2.03539001 189.43957184 -2.15356445 188.44433594 C-2.23061709 187.79571783 -2.30766973 187.14709972 -2.3870573 186.47882652 C-2.4636448 185.83354815 -2.5402323 185.18826977 -2.61914062 184.5234375 C-2.69475377 183.8839448 -2.77036692 183.2444521 -2.84827137 182.58558083 C-2.95997181 181.63921792 -2.95997181 181.63921792 -3.07392883 180.67373657 C-3.14708124 180.05314991 -3.22023365 179.43256325 -3.2956028 178.79317093 C-3.40258019 177.88621538 -3.40258019 177.88621538 -3.51171875 176.9609375 C-3.6471257 175.81813324 -3.78253265 174.67532898 -3.92204285 173.49789429 C-4.1127813 171.86770859 -4.1127813 171.86770859 -4.30737305 170.20458984 C-4.42600708 169.15213074 -4.54464111 168.09967163 -4.66687012 167.01531982 C-4.77680298 166.02026428 -4.88673584 165.02520874 -5 164 C-5.10219849 163.10307434 -5.20439697 162.20614868 -5.30969238 161.28204346 C-5.44582947 159.97188263 -5.44582947 159.97188263 -5.5847168 158.63525391 C-5.66262955 157.74190338 -5.7405423 156.84855286 -5.82081604 155.9281311 C-5.87994675 154.96184784 -5.93907745 153.99556458 -6 153 C-6.02984482 151.87169769 -6.05968964 150.74339539 -6.09043884 149.5809021 C-6.09853482 148.97793493 -6.1066308 148.37496777 -6.11497211 147.75372887 C-6.12211121 146.81989089 -6.12211121 146.81989089 -6.12939453 145.8671875 C-6.13190059 145.23259928 -6.13440664 144.59801105 -6.13698864 143.94419289 C-6.13763474 143.29374693 -6.13828085 142.64330097 -6.13894653 141.97314453 C-6.13807163 141.30559143 -6.13719673 140.63803833 -6.13629532 139.95025635 C-6.13514599 139.26542175 -6.13399666 138.58058716 -6.1328125 137.875 C-6.13314358 137.17066833 -6.13347466 136.46633667 -6.13381577 135.74066162 C-6.13444141 135.02170715 -6.13506706 134.30275269 -6.13571167 133.56201172 C-6.13606855 132.83186859 -6.13642544 132.10172546 -6.13679314 131.34945679 C-6.13675632 130.2406163 -6.13675632 130.2406163 -6.13671875 129.109375 C-6.13580294 128.3639444 -6.13488712 127.61851379 -6.13394356 126.85049438 C-6.13276464 126.09996796 -6.13158573 125.34944153 -6.13037109 124.57617188 C-6.12924316 123.82198975 -6.12811523 123.06780762 -6.12695312 122.29077148 C-6.12630859 121.53481689 -6.12566406 120.7788623 -6.125 120 C-6.12564453 119.24404541 -6.12628906 118.48809082 -6.12695312 117.70922852 C-6.12808105 116.95504639 -6.12920898 116.20086426 -6.13037109 115.42382812 C-6.13213946 114.29803848 -6.13213946 114.29803848 -6.13394356 113.14950562 C-6.13485937 112.40407501 -6.13577518 111.65864441 -6.13671875 110.890625 C-6.1367433 110.15139801 -6.13676785 109.41217102 -6.13679314 108.65054321 C-6.13643625 107.92040009 -6.13607937 107.19025696 -6.13571167 106.43798828 C-6.13508602 105.71903381 -6.13446037 105.00007935 -6.13381577 104.25933838 C-6.13348469 103.55500671 -6.13315361 102.85067505 -6.1328125 102.125 C-6.13396183 101.44016541 -6.13511116 100.75533081 -6.13629532 100.04974365 C-6.13717022 99.38219055 -6.13804512 98.71463745 -6.13894653 98.02685547 C-6.13810594 97.37566742 -6.13726534 96.72447937 -6.13639927 96.05355835 C-6.13408771 95.41971222 -6.13177614 94.78586609 -6.12939453 94.1328125 C-6.12638556 93.51693268 -6.1233766 92.90105286 -6.12027645 92.26651001 C-6.11354192 91.66873749 -6.10680738 91.07096497 -6.09986877 90.45507812 C-6.06691208 89.31490234 -6.03395538 88.17472656 -6 87 C-5.9128624 85.92685547 -5.82572479 84.85371094 -5.73594666 83.74804688 C-5.63625076 82.77158203 -5.53655487 81.79511719 -5.43383789 80.7890625 C-5.33148331 79.94811035 -5.22912872 79.1071582 -5.12367249 78.24072266 C-5.06245461 77.13156494 -5.06245461 77.13156494 -5 76 C-5.19510414 74.97495361 -5.19510414 74.97495361 -5.39414978 73.92919922 C-5.56958817 73.37506348 -5.74502655 72.82092773 -5.92578125 72.25 C-6.14556641 71.7034375 -6.36535156 71.156875 -6.59179688 70.59375 C-6.82962891 70.0678125 -7.06746094 69.541875 -7.3125 69 C-7.53873047 68.4740625 -7.76496094 67.948125 -7.99804688 67.40625 C-8.22169922 66.8596875 -8.44535156 66.313125 -8.67578125 65.75 C-9.01307251 64.86574341 -9.01307251 64.86574341 -9.35717773 63.96362305 C-9.56930908 63.31562744 -9.78144043 62.66763184 -10 62 C-10.27275757 60.92455933 -10.27275757 60.92455933 -10.55102539 59.82739258 C-10.71723389 59.00392334 -10.88344238 58.1804541 -11.0546875 57.33203125 C-11.21267822 56.38924316 -11.37066895 55.44645508 -11.53344727 54.47509766 C-11.61031769 53.93628967 -11.68718811 53.39748169 -11.76638794 52.84234619 C-11.84347992 52.23437195 -11.9205719 51.62639771 -12 51 C-12.07975067 50.28503357 -12.15950134 49.57006714 -12.2416687 48.83343506 C-12.32168121 48.05228333 -12.40169373 47.27113159 -12.48413086 46.46630859 C-12.56324203 45.64355438 -12.64235321 44.82080017 -12.72386169 43.97311401 C-12.80080765 43.11960358 -12.8777536 42.26609314 -12.95703125 41.38671875 C-13.02926407 40.52265411 -13.10149689 39.65858948 -13.17591858 38.76834106 C-13.24612717 37.89023773 -13.31633575 37.0121344 -13.38867188 36.10742188 C-13.45755615 35.21724365 -13.52644043 34.32706543 -13.59741211 33.40991211 C-13.66839111 32.51151611 -13.73937012 31.61312012 -13.8125 30.6875 C-13.93226196 29.32661255 -13.93226196 29.32661255 -14.05444336 27.93823242 C-14.17348022 26.58725464 -14.17348022 26.58725464 -14.29492188 25.20898438 C-14.36482834 24.32652542 -14.4347348 23.44406647 -14.50675964 22.53486633 C-14.57284927 21.68160263 -14.6389389 20.82833893 -14.70703125 19.94921875 C-14.81927788 18.73500496 -14.81927788 18.73500496 -14.93379211 17.4962616 C-14.98762558 16.73138931 -15.04145905 15.96651703 -15.09692383 15.1784668 C-15.11566559 14.46016693 -15.13440735 13.74186707 -15.15371704 13.00180054 C-15.10299042 12.34120636 -15.05226379 11.68061218 -15 11 C-14.81964203 10.41167389 -14.63928406 9.82334778 -14.45346069 9.2171936 C-14.20673615 8.69281708 -13.9600116 8.16844055 -13.70581055 7.62817383 C-13.14289307 6.76087646 -12.57997559 5.8935791 -12 5 C-11.55541946 4.4749437 -11.11083893 3.94988739 -10.65278625 3.40892029 C-9.83465706 2.71150475 -9.83465706 2.71150475 -9 2 C-8.35333374 1.76202698 -7.70666748 1.52405396 -7.04040527 1.27886963 C-5.9559613 1.05623444 -5.9559613 1.05623444 -4.84960938 0.82910156 C-4.05127686 0.67348755 -3.25294434 0.51787354 -2.43041992 0.35754395 C-1.62838135 0.23955444 -0.82634277 0.12156494 0 0 Z M-1 5 C-2.0440802 5.19328384 -2.0440802 5.19328384 -3.10925293 5.39047241 C-3.7431897 5.55511993 -4.37712646 5.71976746 -5.03027344 5.8894043 C-6.0102832 6.25590088 -6.99029297 6.62239746 -8 7 C-8.33 7.66 -8.66 8.32 -9 9 C-9.05542969 9.96679688 -9.11085938 10.93359375 -9.16796875 11.9296875 C-9.17546143 12.54585937 -9.1829541 13.16203125 -9.19067383 13.796875 C-9.18962646 14.48265625 -9.1885791 15.1684375 -9.1875 15.875 C-9.18451904 16.60460938 -9.18153809 17.33421875 -9.1784668 18.0859375 C-9.16855713 18.88 -9.15864746 19.6740625 -9.1484375 20.4921875 C-9.1287793 21.35682617 -9.10912109 22.22146484 -9.08886719 23.11230469 C-9.05954102 24.06524414 -9.03021484 25.01818359 -9 26 C-8.96036133 27.07926758 -8.92072266 28.15853516 -8.87988281 29.27050781 C-8.82928711 30.42131836 -8.77869141 31.57212891 -8.7265625 32.7578125 C-8.69681839 33.3465062 -8.66707428 33.93519989 -8.63642883 34.54173279 C-8.60373398 35.1372847 -8.57103912 35.73283661 -8.53735352 36.34643555 C-8.50167267 36.94757172 -8.46599182 37.54870789 -8.42922974 38.1680603 C-8.39070892 38.7726004 -8.35218811 39.3771405 -8.3125 40 C-8.27148163 40.60671539 -8.23046326 41.21343079 -8.1882019 41.83853149 C-8.14406158 42.44329315 -8.09992126 43.04805481 -8.05444336 43.67114258 C-8.00669266 44.26986679 -7.95894196 44.868591 -7.90974426 45.48545837 C-7.85831772 46.07678055 -7.80689117 46.66810272 -7.75390625 47.27734375 C-7.69881393 47.86121353 -7.64372162 48.44508331 -7.58695984 49.04664612 C-7.52748672 49.61503708 -7.46801361 50.18342804 -7.40673828 50.76904297 C-7.20540283 52.3683667 -7.20540283 52.3683667 -7 54 C-6.83870605 54.90508301 -6.67741211 55.81016602 -6.51123047 56.74267578 C-6.33092285 57.55075684 -6.15061523 58.35883789 -5.96484375 59.19140625 C-5.67371704 60.31180298 -5.67371704 60.31180298 -5.37670898 61.45483398 C-5.16989502 62.15036377 -4.96308105 62.84589355 -4.75 63.5625 C-4.532229 64.231604 -4.31445801 64.90070801 -4.09008789 65.59008789 C-3.86442139 66.22293701 -3.63875488 66.85578613 -3.40625 67.5078125 C-3.17421875 68.10110352 -2.9421875 68.69439453 -2.703125 69.30566406 C-2.35507813 70.14436035 -2.35507813 70.14436035 -2 71 C-1.33484375 72.54300781 -1.33484375 72.54300781 -0.65625 74.1171875 C-0.1921875 75.04789062 0.271875 75.97859375 0.75 76.9375 C1.245 77.77796875 1.74 78.6184375 2.25 79.484375 C3.11625 80.72960937 3.11625 80.72960937 4 82 C4.36738281 82.47115234 4.73476563 82.94230469 5.11328125 83.42773438 C5.50902344 83.91048828 5.90476562 84.39324219 6.3125 84.890625 C6.71500977 85.35992432 7.11751953 85.82922363 7.53222656 86.31274414 C7.9340918 86.76641357 8.33595703 87.22008301 8.75 87.6875 C9.50796875 88.51636719 10.2659375 89.34523438 11.046875 90.19921875 C11.69140625 90.79347656 12.3359375 91.38773437 13 92 C13.66 92 14.32 92 15 92 C15 92.66 15 93.32 15 94 C15.9075 94.680625 16.815 95.36125 17.75 96.0625 C18.51570313 96.57490234 18.51570313 96.57490234 19.296875 97.09765625 C19.85890625 97.39542969 20.4209375 97.69320312 21 98 C21.59941406 98.19851562 22.19882812 98.39703125 22.81640625 98.6015625 C23.89728516 98.79878906 23.89728516 98.79878906 25 99 C25.96292969 99.07863281 26.92585938 99.15726562 27.91796875 99.23828125 C29.53638672 99.27501953 29.53638672 99.27501953 31.1875 99.3125 C31.76411377 99.3132251 32.34072754 99.3139502 32.93481445 99.31469727 C33.51320068 99.30108154 34.09158691 99.28746582 34.6875 99.2734375 C35.780625 99.18320313 36.87375 99.09296875 38 99 C38.825 98.78601563 39.65 98.57203125 40.5 98.3515625 C41.221875 98.04992187 41.94375 97.74828125 42.6875 97.4375 C43.39003906 97.06625 44.09257813 96.695 44.81640625 96.3125 C45.53699219 95.879375 46.25757813 95.44625 47 95 C47.83402344 94.525625 48.66804688 94.05125 49.52734375 93.5625 C50.38457031 93.02625 51.24179688 92.49 52.125 91.9375 C52.95773438 91.33035156 53.79046875 90.72320312 54.6484375 90.09765625 C55.81246094 89.05931641 55.81246094 89.05931641 57 88 C57.65226562 87.19433594 58.30453125 86.38867188 58.9765625 85.55859375 C59.85441406 84.23021484 59.85441406 84.23021484 60.75 82.875 C61.29914063 81.92625 61.84828125 80.9775 62.4140625 80 C62.93742187 79.01 63.46078125 78.02 64 77 C64.52335937 76.01 65.04671875 75.02 65.5859375 74 C66.34777344 72.453125 66.34777344 72.453125 67.125 70.875 C67.36863281 70.34398682 67.61226563 69.81297363 67.86328125 69.26586914 C68.10175781 68.71535889 68.34023437 68.16484863 68.5859375 67.59765625 C68.93736816 66.73744873 68.93736816 66.73744873 69.29589844 65.85986328 C69.52825195 65.2461084 69.76060547 64.63235352 70 64 C70.23493164 63.31534668 70.46986328 62.63069336 70.71191406 61.92529297 C70.94362305 61.20615723 71.17533203 60.48702148 71.4140625 59.74609375 C71.63868164 59.01672607 71.86330078 58.2873584 72.09472656 57.53588867 C72.3109668 56.80217041 72.52720703 56.06845215 72.75 55.3125 C72.95592773 54.58329346 73.16185547 53.85408691 73.37402344 53.1027832 C73.6645459 52.03870239 73.6645459 52.03870239 73.9609375 50.953125 C74.23115723 49.9312207 74.23115723 49.9312207 74.50683594 48.88867188 C74.66958008 48.26541016 74.83232422 47.64214844 75 47 C75.26039062 46.02546875 75.52078125 45.0509375 75.7890625 44.046875 C75.98242188 43.22703125 76.17578125 42.4071875 76.375 41.5625 C76.50648437 40.799375 76.63796875 40.03625 76.7734375 39.25 C76.84820312 38.5075 76.92296875 37.765 77 37 C77.03351563 36.195625 77.06703125 35.39125 77.1015625 34.5625 C77.06804687 33.7375 77.03453125 32.9125 77 32.0625 C76.8865625 31.24394531 76.773125 30.42539062 76.65625 29.58203125 C76.4396875 28.72996094 76.223125 27.87789062 76 27 C75.6390625 26.05511719 75.278125 25.11023438 74.90625 24.13671875 C74.21015625 22.70779297 74.21015625 22.70779297 73.5 21.25 C72.95988281 20.33605469 72.41976562 19.42210937 71.86328125 18.48046875 C71.24839844 17.66191406 70.63351563 16.84335937 70 16 C68.96939453 15.06607422 68.96939453 15.06607422 67.91796875 14.11328125 C66.81388672 13.34564453 66.81388672 13.34564453 65.6875 12.5625 C64.91535156 12.11648437 64.14320312 11.67046875 63.34765625 11.2109375 C62.57292969 10.81132812 61.79820313 10.41171875 61 10 C60.27683594 9.60039062 59.55367188 9.20078125 58.80859375 8.7890625 C58.08800781 8.42554688 57.36742188 8.06203125 56.625 7.6875 C55.55076782 7.2541333 55.55076782 7.2541333 54.45483398 6.81201172 C53.64473877 6.54404785 52.83464355 6.27608398 52 6 C51.30342285 5.87560547 50.6068457 5.75121094 49.88916016 5.62304688 C49.11362793 5.55150391 48.3380957 5.47996094 47.5390625 5.40625 C46.57468262 5.33043701 45.61030273 5.25462402 44.61669922 5.17651367 C44.05690369 5.14488129 43.49710815 5.1132489 42.92034912 5.08065796 C41.96977631 5.04073227 41.96977631 5.04073227 41 5 C39.88531342 4.96962143 39.88531342 4.96962143 38.74810791 4.93862915 C37.52918854 4.91547134 37.52918854 4.91547134 36.28564453 4.8918457 C35.42794464 4.88010818 34.57024475 4.86837067 33.68655396 4.85627747 C32.7948349 4.84827621 31.90311584 4.84027496 30.984375 4.83203125 C30.07855682 4.82793747 29.17273865 4.82384369 28.23947144 4.81962585 C27.31739899 4.81791885 26.39532654 4.81621185 25.4453125 4.81445312 C24.04200684 4.81457397 24.04200684 4.81457397 22.61035156 4.81469727 C21.66643555 4.81397217 20.72251953 4.81324707 19.75 4.8125 C18.79899414 4.80645752 17.84798828 4.80041504 16.86816406 4.79418945 C15.92424805 4.78798584 14.98033203 4.78178223 14.0078125 4.77539062 C13.08131897 4.77391525 12.15482544 4.77243988 11.20025635 4.7709198 C10.3040155 4.77046158 9.40777466 4.77000336 8.484375 4.76953125 C7.63631287 4.76234573 6.78825073 4.75516022 5.91448975 4.74775696 C4.70723236 4.7523719 4.70723236 4.7523719 3.47558594 4.75708008 C2.71693237 4.7785611 1.95827881 4.80004211 1.17663574 4.82217407 C0.45834595 4.88085663 -0.25994385 4.93953918 -1 5 Z M0 85 C-0.33 85.33 -0.66 85.66 -1 86 C-1.10151367 86.72775635 -1.20302734 87.4555127 -1.30761719 88.20532227 C-1.38657227 89.21135498 -1.46552734 90.2173877 -1.546875 91.25390625 C-1.58850769 91.8227504 -1.63014038 92.39159454 -1.67303467 92.97767639 C-1.71325745 93.59235275 -1.75348022 94.20702911 -1.79492188 94.84033203 C-1.83125732 95.50349426 -1.86759277 96.16665649 -1.9050293 96.84991455 C-1.93636963 97.55944275 -1.96770996 98.26897095 -2 99 C-2.02360596 99.75722351 -2.04721191 100.51444702 -2.0715332 101.2946167 C-2.08982178 102.09184143 -2.10811035 102.88906616 -2.12695312 103.71044922 C-2.14136948 104.54201538 -2.15578583 105.37358154 -2.17063904 106.23034668 C-2.18135941 107.09148071 -2.19207977 107.95261475 -2.203125 108.83984375 C-2.21066299 109.72418091 -2.21820099 110.60851807 -2.22596741 111.51965332 C-2.23075607 112.42630737 -2.23554474 113.33296143 -2.24047852 114.26708984 C-2.24266388 115.19334167 -2.24484924 116.11959351 -2.24710083 117.07391357 C-2.24805756 118.01889709 -2.24901428 118.96388062 -2.25 119.9375 C-2.25200409 120.90310852 -2.25400818 121.86871704 -2.256073 122.86358643 C-2.25656647 123.83882263 -2.25705994 124.81405884 -2.25756836 125.81884766 C-2.25483414 126.79446655 -2.25209991 127.77008545 -2.24928284 128.77526855 C-2.24307419 129.74790649 -2.23686554 130.72054443 -2.23046875 131.72265625 C-2.2204332 132.69013794 -2.21039764 133.65761963 -2.20005798 134.65441895 C-2.18479568 135.60393433 -2.16953339 136.55344971 -2.15380859 137.53173828 C-2.13268005 138.45593567 -2.11155151 139.38013306 -2.08978271 140.33233643 C-2.06015442 141.21266541 -2.03052612 142.09299438 -2 143 C-1.95748108 143.80685242 -1.91496216 144.61370483 -1.87115479 145.44500732 C-1.82037781 146.20420471 -1.76960083 146.9634021 -1.71728516 147.74560547 C-1.63297745 148.83449821 -1.63297745 148.83449821 -1.54696655 149.94538879 C-1.4863504 150.64274643 -1.42573425 151.34010406 -1.36328125 152.05859375 C-1.30016754 152.73866989 -1.23705383 153.41874603 -1.17202759 154.11943054 C-1.10655731 154.77683731 -1.04108704 155.43424408 -0.97363281 156.11157227 C-0.90615845 156.74475372 -0.83868408 157.37793518 -0.76916504 158.03030396 C-0.70096558 158.63905365 -0.63276611 159.24780334 -0.5625 159.875 C-0.42811523 161.01702881 -0.29373047 162.15905762 -0.15527344 163.33569336 C-0.02282227 164.41858643 0.10962891 165.50147949 0.24609375 166.6171875 C0.37661133 167.65979736 0.50712891 168.70240723 0.64160156 169.77661133 C0.75987305 170.84032959 0.87814453 171.90404785 1 173 C1.04741333 173.58590912 1.09482666 174.17181824 1.14367676 174.77548218 C1.18617554 175.37897491 1.22867432 175.98246765 1.27246094 176.60424805 C1.31269882 177.20794724 1.35293671 177.81164642 1.39439392 178.43363953 C1.43311111 179.03432755 1.47182831 179.63501556 1.51171875 180.25390625 C1.55031509 180.84553055 1.58891144 181.43715485 1.62867737 182.04670715 C1.66782761 182.62039536 1.70697784 183.19408356 1.74731445 183.78515625 C1.8723938 185.37650391 1.8723938 185.37650391 2 187 C2.10207764 187.82886719 2.20415527 188.65773438 2.30932617 189.51171875 C2.42123291 190.24132812 2.53313965 190.9709375 2.6484375 191.72265625 C2.76509766 192.43067383 2.88175781 193.13869141 3.00195312 193.86816406 C3.12505859 194.59229492 3.24816406 195.31642578 3.375 196.0625 C3.57125977 197.28211426 3.57125977 197.28211426 3.77148438 198.52636719 C3.90619141 199.40067383 4.04089844 200.27498047 4.1796875 201.17578125 C4.31600586 202.09439941 4.45232422 203.01301758 4.59277344 203.95947266 C4.79435059 205.46453369 4.79435059 205.46453369 5 207 C5.12665039 208.14645996 5.25330078 209.29291992 5.38378906 210.47412109 C5.44574966 211.07748795 5.50771027 211.6808548 5.57154846 212.30250549 C5.66374916 213.22590981 5.66374916 213.22590981 5.7578125 214.16796875 C5.81923935 214.78772079 5.8806662 215.40747284 5.94395447 216.04600525 C6.00523026 216.67060135 6.06650604 217.29519745 6.12963867 217.9387207 C6.22128799 218.88118149 6.22128799 218.88118149 6.31478882 219.84268188 C6.37590851 220.47209686 6.4370282 221.10151184 6.5 221.75 C6.56136139 222.37901215 6.62272278 223.00802429 6.6859436 223.65609741 C6.74744598 224.28029572 6.80894836 224.90449402 6.87231445 225.54760742 C6.93394272 226.1624852 6.99557098 226.77736298 7.05906677 227.41087341 C7.12078568 228.01520706 7.18250458 228.61954071 7.24609375 229.2421875 C7.30777237 229.83649063 7.36945099 230.43079376 7.43299866 231.04310608 C7.52586403 231.90493752 7.52586403 231.90493752 7.62060547 232.78417969 C7.80840576 234.37601074 7.80840576 234.37601074 8 236 C8.12906738 236.86270508 8.25813477 237.72541016 8.39111328 238.61425781 C8.52114746 239.36288086 8.65118164 240.11150391 8.78515625 240.8828125 C8.91398193 241.56617676 9.04280762 242.24954102 9.17553711 242.95361328 C9.30323486 243.5876709 9.43093262 244.22172852 9.5625 244.875 C9.68955322 245.49487793 9.81660645 246.11475586 9.94750977 246.75341797 C10.07053467 247.35041504 10.19355957 247.94741211 10.3203125 248.5625 C10.43793945 249.13613281 10.55556641 249.70976562 10.67675781 250.30078125 C10.78342773 250.86152344 10.89009766 251.42226563 11 252 C11.16242187 253.11375 11.32484375 254.2275 11.4921875 255.375 C11.60300659 256.23266968 11.60300659 256.23266968 11.71606445 257.10766602 C11.78913818 257.69088623 11.86221191 258.27410645 11.9375 258.875 C12.01250732 259.45757568 12.08751465 260.04015137 12.16479492 260.64038086 C12.24576416 261.26307861 12.3267334 261.88577637 12.41015625 262.52734375 C12.4992627 263.20780762 12.58836914 263.88827148 12.68017578 264.58935547 C12.78571777 265.38486816 12.89125977 266.18038086 13 267 C13.13519043 268.01078613 13.27038086 269.02157227 13.40966797 270.06298828 C13.56193848 271.17786621 13.71420898 272.29274414 13.87109375 273.44140625 C13.95240036 274.01403198 14.03370697 274.58665771 14.11747742 275.17663574 C14.20060684 275.75465942 14.28373627 276.33268311 14.36938477 276.92822266 C14.45374786 277.50952942 14.53811096 278.09083618 14.62503052 278.6897583 C14.70752045 279.26651306 14.79001038 279.84326782 14.875 280.4375 C15.02445068 281.5517334 15.17390137 282.6659668 15.32788086 283.81396484 C15.48522705 284.88469238 15.64257324 285.95541992 15.8046875 287.05859375 C15.9807251 288.07791992 16.1567627 289.09724609 16.33813477 290.14746094 C16.55655029 291.08879883 16.77496582 292.03013672 17 293 C17.45814087 294.25345215 17.45814087 294.25345215 17.92553711 295.53222656 C18.26593018 296.25764648 18.60632324 296.98306641 18.95703125 297.73046875 C19.43619995 298.6589563 19.43619995 298.6589563 19.92504883 299.60620117 C20.27978271 300.06615479 20.6345166 300.5261084 21 301 C21.928125 301.28875 22.85625 301.5775 23.8125 301.875 C25.3903125 301.441875 25.3903125 301.441875 27 301 C27.54785156 300.67644531 28.09570312 300.35289062 28.66015625 300.01953125 C29.50900391 299.36017578 29.50900391 299.36017578 30.375 298.6875 C30.95894531 298.13320313 31.54289062 297.57890625 32.14453125 297.0078125 C32.75683594 296.34523438 33.36914062 295.68265625 34 295 C34.66386719 294.23429688 35.32773437 293.46859375 36.01171875 292.6796875 C37.02685547 291.38417969 37.02685547 291.38417969 38.0625 290.0625 C38.56644287 289.36423096 38.56644287 289.36423096 39.08056641 288.65185547 C39.4110498 288.16346191 39.7415332 287.67506836 40.08203125 287.171875 C40.40510254 286.66076172 40.72817383 286.14964844 41.06103516 285.62304688 C41.37089355 285.08744141 41.68075195 284.55183594 42 284 C42.28794434 283.43603516 42.57588867 282.87207031 42.87255859 282.29101562 C43.14535645 281.70513672 43.4181543 281.11925781 43.69921875 280.515625 C43.96057617 279.91169922 44.22193359 279.30777344 44.49121094 278.68554688 C44.74161133 278.06744141 44.99201172 277.44933594 45.25 276.8125 C45.49137695 276.18666016 45.73275391 275.56082031 45.98144531 274.91601562 C46.32900879 273.95985352 46.32900879 273.95985352 46.68359375 272.984375 C47.01593018 272.01081055 47.01593018 272.01081055 47.35498047 271.01757812 C47.56783691 270.35177734 47.78069336 269.68597656 48 269 C48.20641113 268.30583984 48.41282227 267.61167969 48.62548828 266.89648438 C48.82255371 266.19330078 49.01961914 265.49011719 49.22265625 264.765625 C49.40860352 264.06332764 49.59455078 263.36103027 49.78613281 262.63745117 C49.95983398 261.95271729 50.13353516 261.2679834 50.3125 260.5625 C50.47202148 259.92481689 50.63154297 259.28713379 50.79589844 258.63012695 C50.94188477 258.01097412 51.08787109 257.39182129 51.23828125 256.75390625 C51.3620388 256.17210602 51.48579636 255.59030579 51.61330414 254.99087524 C51.74091377 254.33388641 51.86852341 253.67689758 52 253 C52.09453712 252.40095352 52.18907425 251.80190704 52.28647614 251.18470764 C52.36874199 250.5630925 52.45100784 249.94147736 52.5357666 249.30102539 C52.66255295 248.24971687 52.66255295 248.24971687 52.79190063 247.1771698 C52.86057343 246.45870377 52.92924622 245.74023773 53 245 C53.03378754 244.32226028 53.06757507 243.64452057 53.10238647 242.94624329 C53.11859039 242.26257187 53.13479431 241.57890045 53.15148926 240.87451172 C53.16400475 239.80409386 53.16400475 239.80409386 53.17677307 238.71205139 C53.18095749 237.95887131 53.18514191 237.20569122 53.18945312 236.4296875 C53.19774643 235.61185287 53.20603973 234.79401825 53.21458435 233.95140076 C53.22300858 233.09127884 53.2314328 232.23115692 53.2401123 231.3449707 C53.24679428 230.45556793 53.25347626 229.56616516 53.26036072 228.64981079 C53.27070091 227.27627945 53.27070091 227.27627945 53.28125 225.875 C53.29011734 224.94037933 53.29898468 224.00575867 53.30812073 223.04281616 C53.32243385 221.61239487 53.32243385 221.61239487 53.33703613 220.15307617 C53.35134548 218.69678551 53.35134548 218.69678551 53.36594391 217.21107483 C53.37537773 216.2248967 53.38481155 215.23871857 53.39453125 214.22265625 C53.40342125 213.22137192 53.41231125 212.22008759 53.42147064 211.1884613 C53.43014412 210.17896927 53.4388176 209.16947723 53.44775391 208.12939453 C53.45639465 207.11613098 53.4650354 206.10286743 53.47393799 205.05889893 C53.48253845 204.04946228 53.49113892 203.04002563 53.5 202 C53.50860046 201.0060321 53.51720093 200.01206421 53.52606201 198.98797607 C53.53470276 198.00178284 53.54334351 197.0155896 53.55224609 195.99951172 C53.56096237 195.01718819 53.56967865 194.03486465 53.57865906 193.02277374 C53.59192986 191.55550465 53.59192986 191.55550465 53.60546875 190.05859375 C53.61451736 189.08313347 53.62356598 188.10767319 53.63288879 187.1026535 C53.64212875 186.13110573 53.65136871 185.15955795 53.66088867 184.15856934 C53.67034515 183.1921904 53.67980164 182.22581146 53.68954468 181.23014832 C53.70400131 179.7859124 53.70400131 179.7859124 53.71875 178.3125 C53.72846832 177.35011917 53.73818665 176.38773834 53.74819946 175.39619446 C53.75821991 174.44000717 53.76824036 173.48381989 53.77856445 172.49865723 C53.78906326 171.55286552 53.79956207 170.60707382 53.81037903 169.63262177 C53.82139145 168.69875893 53.83240387 167.76489609 53.84375 166.80273438 C53.8552861 165.88254768 53.8668222 164.96236099 53.87870789 164.01428986 C53.89717522 162.65986408 53.89717522 162.65986408 53.91601562 161.27807617 C53.92922852 160.39457489 53.94244141 159.51107361 53.95605469 158.60079956 C53.97055664 157.74253571 53.98505859 156.88427185 54 156 C54.02465332 154.76384445 54.02465332 154.76384445 54.04980469 153.50271606 C54.0763916 152.30701492 54.0763916 152.30701492 54.10351562 151.0871582 C54.12210381 150.31334808 54.14069199 149.53953796 54.15984344 148.74227905 C54.17928261 147.99008087 54.19872177 147.23788269 54.21875 146.46289062 C54.23901497 145.72801422 54.25927994 144.99313782 54.280159 144.23599243 C54.30086205 143.52252655 54.32156509 142.80906067 54.34289551 142.07397461 C54.37438438 141.03803665 54.37438438 141.03803665 54.4065094 139.98117065 C54.4270488 139.31707184 54.4475882 138.65297302 54.46875 137.96875 C54.48755722 137.33865021 54.50636444 136.70855042 54.52574158 136.05935669 C54.54427689 135.45332611 54.56281219 134.84729553 54.58190918 134.22290039 C54.60118721 133.63365532 54.62046524 133.04441025 54.64032745 132.43730927 C54.66040611 131.86438393 54.68048477 131.29145859 54.70117188 130.70117188 C54.76679321 129.04281311 54.76679321 129.04281311 54.83374023 127.35095215 C54.88860596 126.24513794 54.94347168 125.13932373 55 124 C55.0560289 123.1004937 55.0560289 123.1004937 55.1131897 122.18281555 C55.17523087 121.26746284 55.17523087 121.26746284 55.23852539 120.33361816 C55.3033952 119.42700817 55.3033952 119.42700817 55.3695755 118.50208282 C55.41326012 117.91616112 55.45694473 117.33023941 55.50195312 116.7265625 C55.58417114 115.66453613 55.66638916 114.60250977 55.75109863 113.50830078 C55.83323608 112.51556152 55.91537354 111.52282227 56 110.5 C56.08789291 109.50031693 56.17578583 108.50063385 56.26634216 107.47065735 C56.34344925 106.62440292 56.42055634 105.7781485 56.5 104.90625 C56.57806885 104.07891357 56.6561377 103.25157715 56.73657227 102.39916992 C56.86696899 101.21158081 56.86696899 101.21158081 57 100 C57.12238037 99.18571533 57.24476074 98.37143066 57.37084961 97.5324707 C57.48436768 96.78570068 57.59788574 96.03893066 57.71484375 95.26953125 C57.85599609 93.65111328 57.85599609 93.65111328 58 92 C57.195625 92.391875 56.39125 92.78375 55.5625 93.1875 C55.00433594 93.62191406 54.44617188 94.05632812 53.87109375 94.50390625 C52.94490234 95.24447266 52.94490234 95.24447266 52 96 C51.37222656 96.44214844 50.74445313 96.88429688 50.09765625 97.33984375 C49.44667969 97.76394531 48.79570313 98.18804687 48.125 98.625 C47.444375 99.04394531 46.76375 99.46289062 46.0625 99.89453125 C45.0415625 100.44173828 45.0415625 100.44173828 44 101 C43.360625 101.25136719 42.72125 101.50273438 42.0625 101.76171875 C41.423125 101.94347656 40.78375 102.12523438 40.125 102.3125 C39.46628906 102.44527344 38.80757812 102.57804687 38.12890625 102.71484375 C37.42636719 102.80894531 36.72382812 102.90304688 36 103 C35.20464844 103.08378906 34.40929688 103.16757813 33.58984375 103.25390625 C32.33880859 103.31384766 32.33880859 103.31384766 31.0625 103.375 C30.21816406 103.35179688 29.37382813 103.32859375 28.50390625 103.3046875 C27.67761719 103.20414063 26.85132812 103.10359375 26 103 C25.24589844 102.79632813 24.49179687 102.59265625 23.71484375 102.3828125 C22.61849609 101.94582031 22.61849609 101.94582031 21.5 101.5 C20.77683594 101.14421875 20.05367187 100.7884375 19.30859375 100.421875 C18.54675781 99.95265625 17.78492187 99.4834375 17 99 C16.10410156 98.32453125 15.20820312 97.6490625 14.28515625 96.953125 C13.83140625 96.59154297 13.37765625 96.22996094 12.91015625 95.85742188 C12.46542969 95.49197266 12.02070313 95.12652344 11.5625 94.75 C10.73878906 94.04359375 9.91507813 93.3371875 9.06640625 92.609375 C8.38449219 92.07828125 7.70257813 91.5471875 7 91 C6.34 91 5.68 91 5 91 C5 90.34 5 89.68 5 89 C4.34 89 3.68 89 3 89 C2.835 88.34 2.67 87.68 2.5 87 C2.335 86.34 2.17 85.68 2 85 C1.34 85 0.68 85 0 85 Z " transform="translate(18,10)" style="fill: #3A303A;"/></svg>