<?xml version="1.0" encoding="UTF-8"?>
<!-- Generator: visioncortex VTracer -->
<svg id="svg" version="1.1" xmlns="http://www.w3.org/2000/svg" style="display: block;" viewBox="0 0 130 347"><path d="M0 0 C0.56122559 -0.05446289 1.12245117 -0.10892578 1.70068359 -0.16503906 C2.3189502 -0.2162793 2.9372168 -0.26751953 3.57421875 -0.3203125 C4.53545654 -0.37662842 4.53545654 -0.37662842 5.51611328 -0.43408203 C6.49813721 -0.46671143 6.49813721 -0.46671143 7.5 -0.5 C8.47815674 -0.50362549 8.47815674 -0.50362549 9.47607422 -0.50732422 C10.11432129 -0.48428223 10.75256836 -0.46124023 11.41015625 -0.4375 C12.02777832 -0.3859375 12.64540039 -0.334375 13.28173828 -0.28125 C13.84876465 -0.1884375 14.41579102 -0.095625 15 0 C16.32837891 0.5259375 16.32837891 0.5259375 17.68359375 1.0625 C18.42738281 1.536875 19.17117187 2.01125 19.9375 2.5 C20.97583984 3.32564453 20.97583984 3.32564453 22.03515625 4.16796875 C22.68355469 4.77253906 23.33195312 5.37710937 24 6 C24.63808594 6.61488281 25.27617188 7.22976562 25.93359375 7.86328125 C26.57425781 8.50652344 27.21492188 9.14976563 27.875 9.8125 C28.52597656 10.48925781 29.17695312 11.16601562 29.84765625 11.86328125 C30.55792969 12.56839844 31.26820312 13.27351563 32 14 C32.84433594 14.73605469 33.68867187 15.47210938 34.55859375 16.23046875 C35.00783203 16.60413574 35.45707031 16.97780273 35.91992188 17.36279297 C36.37947266 17.73807129 36.83902344 18.11334961 37.3125 18.5 C37.77333984 18.87527832 38.23417969 19.25055664 38.70898438 19.63720703 C39.17498047 20.01087402 39.64097656 20.38454102 40.12109375 20.76953125 C40.59272949 21.14029785 41.06436523 21.51106445 41.55029297 21.89306641 C42.02869629 22.25835449 42.50709961 22.62364258 43 23 C43.49000488 23.35626465 43.98000977 23.7125293 44.48486328 24.07958984 C44.97583496 24.42844238 45.46680664 24.77729492 45.97265625 25.13671875 C46.45621582 25.47832031 46.93977539 25.81992187 47.43798828 26.171875 C47.91220215 26.50703125 48.38641602 26.8421875 48.875 27.1875 C49.78121094 27.84105469 50.68742187 28.49460937 51.62109375 29.16796875 C52.40613281 29.77253906 53.19117187 30.37710938 54 31 C54.82177734 31.76763672 54.82177734 31.76763672 55.66015625 32.55078125 C56.29244141 33.26814453 56.29244141 33.26814453 56.9375 34 C57.29328125 34.47953125 57.6490625 34.9590625 58.015625 35.453125 C58.50289062 36.21882813 58.50289062 36.21882813 59 37 C59.36609375 37.59296875 59.7321875 38.1859375 60.109375 38.796875 C60.46515625 39.44140625 60.8209375 40.0859375 61.1875 40.75 C61.50589844 41.43707031 61.82429688 42.12414063 62.15234375 42.83203125 C62.43207031 43.54746094 62.71179688 44.26289062 63 45 C63.34224609 46.05767578 63.34224609 46.05767578 63.69140625 47.13671875 C63.87574219 47.89597656 64.06007813 48.65523437 64.25 49.4375 C64.4665625 50.70013672 64.4665625 50.70013672 64.6875 51.98828125 C64.790625 52.98214844 64.89375 53.97601563 65 55 C65.03609375 55.61020996 65.0721875 56.22041992 65.109375 56.84912109 C65.13515625 57.51121582 65.1609375 58.17331055 65.1875 58.85546875 C65.20304932 59.54769531 65.21859863 60.23992187 65.23461914 60.953125 C65.23969482 61.66984375 65.24477051 62.3865625 65.25 63.125 C65.24411865 63.85589844 65.2382373 64.58679688 65.23217773 65.33984375 C65.21614502 66.0771875 65.2001123 66.81453125 65.18359375 67.57421875 C65.15765137 68.31333496 65.13170898 69.05245117 65.10498047 69.81396484 C65.07033691 70.53535645 65.03569336 71.25674805 65 72 C64.95891113 72.67369629 64.91782227 73.34739258 64.87548828 74.04150391 C64.82505371 74.69425293 64.77461914 75.34700195 64.72265625 76.01953125 C64.66086182 76.66720459 64.59906738 77.31487793 64.53540039 77.98217773 C64.46184326 78.62743408 64.38828613 79.27269043 64.3125 79.9375 C64.18379517 80.9121521 64.18379517 80.9121521 64.05249023 81.90649414 C63.90275757 82.8925061 63.90275757 82.8925061 63.75 83.8984375 C63.63527344 84.56456055 63.52054687 85.23068359 63.40234375 85.91699219 C63.26957031 86.60438477 63.13679688 87.29177734 63 88 C62.76603516 89.09296387 62.76603516 89.09296387 62.52734375 90.20800781 C62.35332031 90.95663086 62.17929688 91.70525391 62 92.4765625 C61.81066895 93.2305835 61.62133789 93.98460449 61.42626953 94.76147461 C61.22372559 95.52081299 61.02118164 96.28015137 60.8125 97.0625 C60.60093262 97.82763916 60.38936523 98.59277832 60.17138672 99.38110352 C59.83518311 100.51310181 59.83518311 100.51310181 59.4921875 101.66796875 C59.25467773 102.4057959 59.01716797 103.14362305 58.77246094 103.90380859 C58.51754883 104.59555176 58.26263672 105.28729492 58 106 C57.71930664 106.59506348 57.43861328 107.19012695 57.14941406 107.80322266 C56.85518555 108.35929199 56.56095703 108.91536133 56.2578125 109.48828125 C55.95866943 110.04314209 55.65952637 110.59800293 55.35131836 111.16967773 C54.89897827 112.01381226 54.89897827 112.01381226 54.4375 112.875 C54.13658447 113.46031494 53.83566895 114.04562988 53.52563477 114.64868164 C53.23229248 115.27766357 52.9389502 115.90664551 52.63671875 116.5546875 C52.35489746 117.23885742 52.07307617 117.92302734 51.78271484 118.62792969 C51.52441895 119.41071289 51.26612305 120.19349609 51 121 C50.78424316 121.95036133 50.56848633 122.90072266 50.34619141 123.87988281 C50.15589355 124.93272461 49.9655957 125.98556641 49.76953125 127.0703125 C49.59478271 128.18623779 49.42003418 129.30216309 49.23999023 130.4519043 C49.157883 131.0316098 49.07577576 131.61131531 48.99118042 132.20858765 C48.91159088 132.79975372 48.83200134 133.3909198 48.75 134 C48.67178009 134.59978668 48.59356018 135.19957336 48.51296997 135.8175354 C48.43658295 136.42535858 48.36019592 137.03318176 48.28149414 137.65942383 C48.20703568 138.27385849 48.13257721 138.88829315 48.05586243 139.52134705 C47.94699959 140.45244041 47.94699959 140.45244041 47.8359375 141.40234375 C47.73027718 142.34449486 47.73027718 142.34449486 47.6224823 143.30567932 C47.5533815 143.93554245 47.4842807 144.56540558 47.41308594 145.21435547 C47.34488647 145.84315613 47.27668701 146.47195679 47.2064209 147.11981201 C47.10424255 148.05050507 47.10424255 148.05050507 47 149 C46.93059204 149.59983704 46.86118408 150.19967407 46.78967285 150.81768799 C46.72018433 151.40910583 46.6506958 152.00052368 46.57910156 152.60986328 C46.51021729 153.19998703 46.44133301 153.79011078 46.37036133 154.39811707 C46.30228271 154.9899025 46.2342041 155.58168793 46.1640625 156.19140625 C46.06387817 157.09050468 46.06387817 157.09050468 45.96166992 158.00776672 C45.86317749 158.9154908 45.86317749 158.9154908 45.76269531 159.84155273 C45.69812134 160.45247772 45.63354736 161.06340271 45.5670166 161.69284058 C45.50365112 162.30982819 45.44028564 162.9268158 45.375 163.5625 C45.31292358 164.1840799 45.25084717 164.80565979 45.18688965 165.44607544 C45.12618286 166.07754486 45.06547607 166.70901428 45.00292969 167.35961914 C44.94371338 168.00570633 44.88449707 168.65179352 44.82348633 169.31745911 C44.76572021 169.97840073 44.7079541 170.63934235 44.6484375 171.3203125 C44.59196045 171.99466843 44.5354834 172.66902435 44.47729492 173.36381531 C44.39523804 174.41010857 44.39523804 174.41010857 44.31152344 175.47753906 C44.25879272 176.202677 44.20606201 176.92781494 44.1517334 177.67492676 C44.10166138 178.44220093 44.05158936 179.2094751 44 180 C43.95379517 180.83430542 43.90759033 181.66861084 43.85998535 182.52819824 C43.81627808 183.40286743 43.7725708 184.27753662 43.72753906 185.17871094 C43.66444801 186.52701492 43.66444801 186.52701492 43.6000824 187.90255737 C43.55932083 188.81901031 43.51855927 189.73546326 43.4765625 190.6796875 C43.43648575 191.60137726 43.396409 192.52306702 43.3551178 193.47268677 C43.31567551 194.40064056 43.27623322 195.32859436 43.2355957 196.28466797 C43.19665192 197.21728455 43.15770813 198.14990112 43.11758423 199.11077881 C43.07878143 200.0435968 43.03997864 200.97641479 43 201.9375 C42.96095551 202.86725647 42.92191101 203.79701294 42.88168335 204.75494385 C42.82266342 206.13719147 42.82266342 206.13719147 42.76245117 207.54736328 C42.70275902 208.90862839 42.70275902 208.90862839 42.64186096 210.2973938 C42.60149216 211.18925385 42.56112335 212.08111389 42.51953125 213 C42.45807167 214.31567459 42.45807167 214.31567459 42.39537048 215.65792847 C42.35336014 216.50686676 42.31134979 217.35580505 42.26806641 218.23046875 C42.22474182 219.04418945 42.18141724 219.85791016 42.13677979 220.69628906 C42.06907379 221.83662598 42.06907379 221.83662598 42 223 C41.92842682 224.01465332 41.92842682 224.01465332 41.85540771 225.04980469 C41.80563782 225.67145508 41.75586792 226.29310547 41.70458984 226.93359375 C41.59969238 228.06925781 41.49479492 229.20492187 41.38671875 230.375 C41.21885864 231.93408081 41.21885864 231.93408081 41.04760742 233.5246582 C40.86935425 234.96651489 40.86935425 234.96651489 40.6875 236.4375 C40.50054565 237.82424927 40.50054565 237.82424927 40.30981445 239.23901367 C40.11005005 240.56509644 40.11005005 240.56509644 39.90625 241.91796875 C39.76316406 242.76278809 39.62007813 243.60760742 39.47265625 244.47802734 C39.31667969 245.31027832 39.16070312 246.1425293 39 247 C38.82597656 247.85416504 38.65195313 248.70833008 38.47265625 249.58837891 C38.28574219 250.44222168 38.09882812 251.29606445 37.90625 252.17578125 C37.70974854 253.01866699 37.51324707 253.86155273 37.31079102 254.72998047 C37.10510498 255.56158691 36.89941895 256.39319336 36.6875 257.25 C36.47343506 258.06355957 36.25937012 258.87711914 36.03881836 259.71533203 C35.81846924 260.5195459 35.59812012 261.32375977 35.37109375 262.15234375 C35.14534668 262.95269043 34.91959961 263.75303711 34.68701172 264.57763672 C34.46029785 265.3770166 34.23358398 266.17639648 34 267 C33.77973145 267.80324707 33.55946289 268.60649414 33.33251953 269.43408203 C33.11063965 270.24087402 32.88875977 271.04766602 32.66015625 271.87890625 C32.43126709 272.69133789 32.20237793 273.50376953 31.96655273 274.34082031 C31.73009033 275.15647461 31.49362793 275.97212891 31.25 276.8125 C31.00515869 277.62428711 30.76031738 278.43607422 30.50805664 279.27246094 C30.25016357 280.09649414 29.99227051 280.92052734 29.7265625 281.76953125 C29.45360352 282.61209473 29.18064453 283.4546582 28.89941406 284.32275391 C28.60260742 285.20624512 28.30580078 286.08973633 28 287 C27.66452148 287.96470215 27.32904297 288.9294043 26.98339844 289.92333984 C26.62536133 290.92187988 26.26732422 291.92041992 25.8984375 292.94921875 C25.34289185 294.45077515 25.34289185 294.45077515 24.77612305 295.98266602 C24.20631714 297.47624634 24.20631714 297.47624634 23.625 299 C23.04842651 300.46747681 23.04842651 300.46747681 22.46020508 301.96459961 C22.07501709 302.90698486 21.6898291 303.84937012 21.29296875 304.8203125 C20.90931152 305.7165332 20.5256543 306.61275391 20.13037109 307.53613281 C19.75734863 308.34920898 19.38432617 309.16228516 19 310 C18.47720459 311.00691895 18.47720459 311.00691895 17.94384766 312.03417969 C17.60788574 312.61844727 17.27192383 313.20271484 16.92578125 313.8046875 C16.59570068 314.33433105 16.26562012 314.86397461 15.92553711 315.40966797 C15.59948486 315.89322754 15.27343262 316.37678711 14.9375 316.875 C14.28523438 317.761875 13.63296875 318.64875 12.9609375 319.5625 C11.99027344 320.7690625 11.99027344 320.7690625 11 322 C10.02933594 323.2375 10.02933594 323.2375 9.0390625 324.5 C8.06066406 325.675625 8.06066406 325.675625 7.0625 326.875 C6.41152344 327.58398438 5.76054688 328.29296875 5.08984375 329.0234375 C4.40019531 329.67570312 3.71054687 330.32796875 3 331 C1.79537109 331.91652344 1.79537109 331.91652344 0.56640625 332.8515625 C-0.23925781 333.39554687 -1.04492188 333.93953125 -1.875 334.5 C-2.61492188 334.9640625 -3.35484375 335.428125 -4.1171875 335.90625 C-4.73851562 336.2671875 -5.35984375 336.628125 -6 337 C-6.66 337.33 -7.32 337.66 -8 338 C-9.051875 338.103125 -10.10375 338.20625 -11.1875 338.3125 C-11.80882812 338.29703125 -12.43015625 338.2815625 -13.0703125 338.265625 C-14.02550781 338.13414062 -14.02550781 338.13414062 -15 338 C-15.89332031 337.71382813 -15.89332031 337.71382813 -16.8046875 337.421875 C-17.38476562 337.13828125 -17.96484375 336.8546875 -18.5625 336.5625 C-19.13613281 336.19382812 -19.70976563 335.82515625 -20.30078125 335.4453125 C-20.86152344 334.96835937 -21.42226563 334.49140625 -22 334 C-22.55042969 333.37867188 -23.10085937 332.75734375 -23.66796875 332.1171875 C-24.45107422 331.03824219 -24.45107422 331.03824219 -25.25 329.9375 C-25.70408234 329.18300064 -26.15816467 328.42850128 -26.62600708 327.65113831 C-27.07942474 326.77626266 -27.53284241 325.90138702 -28 325 C-28.28551727 324.1787413 -28.57103455 323.3574826 -28.86520386 322.51133728 C-29.09643951 321.65028885 -29.32767517 320.78924042 -29.56591797 319.90209961 C-29.81517029 318.9356955 -30.06442261 317.96929138 -30.32122803 316.97360229 C-30.54522278 315.99231354 -30.76921753 315.01102478 -31 314 C-31.17162659 313.09951935 -31.34325317 312.1990387 -31.52008057 311.27127075 C-31.66314636 310.37036713 -31.80621216 309.4694635 -31.95361328 308.54125977 C-32.08017303 307.59613022 -32.20673279 306.65100067 -32.33712769 305.67723083 C-32.45532867 304.67128372 -32.57352966 303.66533661 -32.6953125 302.62890625 C-32.88699509 300.96813805 -32.88699509 300.96813805 -33.08255005 299.27381897 C-33.14407572 298.69168546 -33.20560139 298.10955194 -33.26899147 297.50977802 C-33.32749968 296.91116553 -33.38600788 296.31255304 -33.44628906 295.69580078 C-33.50067327 295.08378657 -33.55505749 294.47177237 -33.61108971 293.84121227 C-33.68498641 292.90071765 -33.68498641 292.90071765 -33.76037598 291.94122314 C-33.80402786 291.29863808 -33.84767975 290.65605301 -33.89265442 289.99399567 C-33.94579048 289.00696781 -33.94579048 289.00696781 -34 288 C-34.02301682 287.32610985 -34.04603363 286.6522197 -34.06974792 285.95790863 C-34.08455704 285.26932014 -34.09936615 284.58073166 -34.11462402 283.87127686 C-34.12374911 283.16885833 -34.1328742 282.4664398 -34.14227581 281.74273586 C-34.14656503 281.02696408 -34.15085424 280.3111923 -34.15527344 279.57373047 C-34.15641301 278.84519143 -34.15755259 278.11665239 -34.15872669 277.36603642 C-34.15672606 276.6252708 -34.15472544 275.88450518 -34.15266418 275.12129211 C-34.14774271 274.36875971 -34.14282124 273.6162273 -34.13775063 272.84089088 C-34.13096479 272.07742033 -34.12417896 271.31394978 -34.1171875 270.52734375 C-34.10980246 269.75402899 -34.10241741 268.98071423 -34.09480858 268.18396568 C-34.08641771 267.4004706 -34.07802685 266.61697552 -34.06938171 265.80973816 C-34.05994443 265.01595292 -34.05050714 264.22216768 -34.04078388 263.40432835 C-34.025309 262.19883791 -34.025309 262.19883791 -34.00952148 260.96899414 C-33.99823054 260.1559101 -33.9869396 259.34282606 -33.97530651 258.50510311 C-33.96378709 257.68237691 -33.95226767 256.85965071 -33.94039917 256.01199341 C-33.92913372 255.17978901 -33.91786827 254.34758461 -33.90626144 253.4901619 C-33.89594517 252.64778347 -33.88562889 251.80540504 -33.875 250.9375 C-33.86669788 250.08343945 -33.85839577 249.22937889 -33.84984207 248.34943771 C-33.84292721 247.48629581 -33.83601234 246.62315392 -33.82888794 245.7338562 C-33.82012965 244.428172 -33.82012965 244.428172 -33.81119442 243.09611034 C-33.80654958 242.2193329 -33.80190474 241.34255545 -33.79711914 240.43920898 C-33.79368531 239.55754972 -33.79025148 238.67589045 -33.7867136 237.76751423 C-33.7844826 236.88140052 -33.78225161 235.99528681 -33.779953 235.08232117 C-33.77903341 234.19236639 -33.77811382 233.30241161 -33.77716637 232.38548851 C-33.7772249 231.49257418 -33.77728344 230.59965984 -33.77734375 229.6796875 C-33.77770945 228.78464319 -33.77807514 227.88959888 -33.77845192 226.96743202 C-33.78024641 226.0710269 -33.7820409 225.17462177 -33.78388977 224.25105286 C-33.78795617 223.35412877 -33.79202257 222.45720469 -33.7962122 221.53310108 C-33.8027151 220.63626952 -33.80921801 219.73943796 -33.81591797 218.81542969 C-33.82496123 217.91911426 -33.8340045 217.02279882 -33.8433218 216.09932232 C-33.85593076 215.20492852 -33.86853971 214.31053473 -33.88153076 213.38903809 C-33.89821556 212.49754562 -33.91490036 211.60605316 -33.93209076 210.68754578 C-33.95450081 209.80065567 -33.97691086 208.91376556 -34 208 C-34.03086952 207.12019974 -34.06173904 206.24039948 -34.09354401 205.3339386 C-34.13012871 204.45984848 -34.16671341 203.58575836 -34.20440674 202.68518066 C-34.24505627 201.81620305 -34.2857058 200.94722544 -34.32758713 200.05191517 C-34.37175388 199.18819137 -34.41592064 198.32446756 -34.46142578 197.43457031 C-34.53131651 196.1464584 -34.53131651 196.1464584 -34.60261917 194.83232403 C-34.65161739 193.97920541 -34.70061562 193.12608679 -34.75109863 192.24711609 C-34.80235397 191.40010321 -34.85360931 190.55309032 -34.90641785 189.68041039 C-34.95921402 188.83970308 -35.01201019 187.99899578 -35.06640625 187.1328125 C-35.14659752 185.88153281 -35.14659752 185.88153281 -35.22840881 184.60497475 C-35.28286667 183.77774595 -35.33732452 182.95051716 -35.39343262 182.09822083 C-35.44896427 181.27829494 -35.50449593 180.45836905 -35.56171036 179.61359692 C-35.61820629 178.80146394 -35.67470222 177.98933096 -35.73291016 177.15258789 C-35.79042324 176.3489018 -35.84793633 175.5452157 -35.90719223 174.71717548 C-35.96531208 173.92178962 -36.02343193 173.12640375 -36.08331299 172.30691528 C-36.17097805 171.12657148 -36.17097805 171.12657148 -36.26041412 169.92238235 C-36.31885246 169.14362118 -36.3772908 168.36486 -36.4375 167.5625 C-36.49545494 166.79090923 -36.55340988 166.01931847 -36.61312103 165.22434616 C-36.67075874 164.46194248 -36.72839645 163.6995388 -36.78778076 162.91403198 C-36.84516481 162.16216614 -36.90254887 161.41030029 -36.96167183 160.63565063 C-37.04711156 159.52520889 -37.04711156 159.52520889 -37.13427734 158.39233398 C-37.19062788 157.66515167 -37.24697842 156.93796936 -37.30503654 156.18875122 C-37.3608848 155.47450989 -37.41673306 154.76026855 -37.47427368 154.02438354 C-37.5295586 153.32347469 -37.58484352 152.62256584 -37.64180374 151.90041733 C-37.69684444 151.21269367 -37.75188515 150.52497002 -37.80859375 149.81640625 C-37.8640675 149.1408884 -37.91954124 148.46537056 -37.97669601 147.76938248 C-38.03146732 147.10895824 -38.08623863 146.44853401 -38.14266968 145.76809692 C-38.19586805 145.12515686 -38.24906643 144.4822168 -38.30387688 143.8197937 C-38.35538462 143.19485016 -38.40689236 142.56990662 -38.45996094 141.92602539 C-38.50977175 141.31914886 -38.55958256 140.71227234 -38.61090279 140.08700562 C-38.65781195 139.50191223 -38.70472111 138.91681885 -38.75305176 138.31399536 C-38.83454468 137.22037689 -38.9160376 136.12675842 -39 135 C-39.05361694 134.04197479 -39.10723389 133.08394958 -39.16247559 132.09689331 C-39.20199341 131.23790436 -39.24151123 130.37891541 -39.28222656 129.49389648 C-39.31646225 128.71255341 -39.35069794 127.93121033 -39.38597107 127.12619019 C-39.4171553 126.41423492 -39.44833954 125.70227966 -39.48046875 124.96875 C-39.51249893 124.30932404 -39.54452911 123.64989807 -39.57752991 122.9704895 C-39.61422287 122.36800385 -39.65091583 121.76551819 -39.6887207 121.14477539 C-39.79144287 120.10699951 -39.89416504 119.06922363 -40 118 C-40.19360107 117.16911865 -40.38720215 116.3382373 -40.58666992 115.48217773 C-40.82361572 114.79583252 -41.06056152 114.1094873 -41.3046875 113.40234375 C-41.55718262 112.81839844 -41.80967773 112.23445313 -42.06982422 111.6328125 C-42.33553223 111.07335937 -42.60124023 110.51390625 -42.875 109.9375 C-43.1445752 109.28652344 -43.41415039 108.63554688 -43.69189453 107.96484375 C-43.95856934 107.29453125 -44.22524414 106.62421875 -44.5 105.93359375 C-44.75910156 105.27858887 -45.01820312 104.62358398 -45.28515625 103.94873047 C-45.52105469 103.30564941 -45.75695312 102.66256836 -46 102 C-46.18949219 101.38398926 -46.37898438 100.76797852 -46.57421875 100.13330078 C-46.73535156 99.52341309 -46.89648438 98.91352539 -47.0625 98.28515625 C-47.20494141 97.66592285 -47.34738281 97.04668945 -47.49414062 96.40869141 C-47.68266602 95.46388916 -47.68266602 95.46388916 -47.875 94.5 C-47.99037109 93.85981934 -48.10574219 93.21963867 -48.22460938 92.56005859 C-48.32580078 91.8892627 -48.42699219 91.2184668 -48.53125 90.52734375 C-48.61632813 89.81690918 -48.70140625 89.10647461 -48.7890625 88.37451172 C-48.85867187 87.59092285 -48.92828125 86.80733398 -49 86 C-49.05414063 85.08621582 -49.10828125 84.17243164 -49.1640625 83.23095703 C-49.22207031 81.75731689 -49.22207031 81.75731689 -49.28125 80.25390625 C-49.30437256 79.24175049 -49.32749512 78.22959473 -49.35131836 77.18676758 C-49.3591333 76.15575928 -49.36694824 75.12475098 -49.375 74.0625 C-49.36799072 73.03213623 -49.36098145 72.00177246 -49.35375977 70.94018555 C-49.33112061 69.92351807 -49.30848145 68.90685059 -49.28515625 67.859375 C-49.24664551 66.86486328 -49.20813477 65.87035156 -49.16845703 64.84570312 C-49.11286621 63.90662109 -49.05727539 62.96753906 -49 62 C-48.88760986 60.74993164 -48.88760986 60.74993164 -48.77294922 59.47460938 C-48.63590576 58.31928711 -48.63590576 58.31928711 -48.49609375 57.140625 C-48.39039063 56.40996826 -48.2846875 55.67931152 -48.17578125 54.92651367 C-48.05589844 54.22888916 -47.93601562 53.53126465 -47.8125 52.8125 C-47.6784375 52.13098877 -47.544375 51.44947754 -47.40625 50.74731445 C-47.26058594 50.08948975 -47.11492188 49.43166504 -46.96484375 48.75390625 C-46.80870605 48.12242676 -46.65256836 47.49094727 -46.49169922 46.84033203 C-46.32943848 46.23302246 -46.16717773 45.62571289 -46 45 C-45.83902832 44.41718262 -45.67805664 43.83436523 -45.51220703 43.23388672 C-45.34446777 42.67072754 -45.17672852 42.10756836 -45.00390625 41.52734375 C-44.63136719 40.44582031 -44.25882813 39.36429688 -43.875 38.25 C-43.441875 37.21617188 -43.00875 36.18234375 -42.5625 35.1171875 C-42.046875 34.08851562 -41.53125 33.05984375 -41 32 C-40.69320312 31.45891602 -40.38640625 30.91783203 -40.0703125 30.36035156 C-39.73773438 29.81088867 -39.40515625 29.26142578 -39.0625 28.6953125 C-38.71034424 28.14593018 -38.35818848 27.59654785 -37.99536133 27.03051758 C-37.62564209 26.48419678 -37.25592285 25.93787598 -36.875 25.375 C-36.49174561 24.83834717 -36.10849121 24.30169434 -35.71362305 23.7487793 C-35.11868042 22.95467651 -35.11868042 22.95467651 -34.51171875 22.14453125 C-34.10228027 21.62197754 -33.6928418 21.09942383 -33.27099609 20.56103516 C-32.85156738 20.04589355 -32.43213867 19.53075195 -32 19 C-31.57412598 18.49130371 -31.14825195 17.98260742 -30.70947266 17.45849609 C-30.27554199 16.96043457 -29.84161133 16.46237305 -29.39453125 15.94921875 C-28.95173828 15.46525635 -28.50894531 14.98129395 -28.05273438 14.48266602 C-27.60220703 14.01401123 -27.15167969 13.54535645 -26.6875 13.0625 C-26.23052734 12.6099585 -25.77355469 12.15741699 -25.30273438 11.69116211 C-24.83802734 11.25940674 -24.37332031 10.82765137 -23.89453125 10.3828125 C-23.42225098 9.97450195 -22.9499707 9.56619141 -22.46337891 9.14550781 C-21.98046387 8.76749023 -21.49754883 8.38947266 -21 8 C-20.50032715 7.66323242 -20.0006543 7.32646484 -19.48583984 6.97949219 C-18.7252124 6.52171387 -18.7252124 6.52171387 -17.94921875 6.0546875 C-16.93472656 5.52101563 -15.92023437 4.98734375 -14.875 4.4375 C-13.86824219 3.99019531 -12.86148438 3.54289063 -11.82421875 3.08203125 C-10.89222656 2.72496094 -9.96023437 2.36789062 -9 2 C-7.89591797 1.60361328 -7.89591797 1.60361328 -6.76953125 1.19921875 C-6.08246094 1.00972656 -5.39539062 0.82023438 -4.6875 0.625 C-3.97980469 0.50382813 -3.27210937 0.38265625 -2.54296875 0.2578125 C-1.70378906 0.17273438 -0.86460938 0.08765625 0 0 Z " transform="translate(59,4)" style="fill: #ECB2EA;"/><path d="M0 0 C1.10988281 0.17789063 1.10988281 0.17789063 2.2421875 0.359375 C3.15226562 0.90078125 4.06234375 1.4421875 5 2 C5.7321875 2.51175781 6.464375 3.02351562 7.21875 3.55078125 C7.9715625 4.13214844 8.724375 4.71351563 9.5 5.3125 C10.79164062 6.240625 10.79164062 6.240625 12.109375 7.1875 C13.54023437 8.0846875 13.54023437 8.0846875 15 9 C15.80727539 9.38671875 15.80727539 9.38671875 16.63085938 9.78125 C17.19095703 10.0184375 17.75105469 10.255625 18.328125 10.5 C19.17987305 10.83584106 19.17987305 10.83584106 20.04882812 11.1784668 C20.61021484 11.38769775 21.17160156 11.59692871 21.75 11.8125 C22.79671875 12.19019531 23.8434375 12.56789062 24.921875 12.95703125 C25.93765625 13.30121094 26.9534375 13.64539063 28 14 C29.33224609 14.55300781 29.33224609 14.55300781 30.69140625 15.1171875 C32.32916016 15.55417969 32.32916016 15.55417969 34 16 C34.80840332 16.06759521 35.61680664 16.13519043 36.44970703 16.20483398 C37.3673584 16.23649658 38.28500977 16.26815918 39.23046875 16.30078125 C40.19919922 16.30787109 41.16792969 16.31496094 42.16601562 16.32226562 C43.16310547 16.31904297 44.16019531 16.31582031 45.1875 16.3125 C46.16525391 16.32861328 47.14300781 16.34472656 48.15039062 16.36132812 C49.12556641 16.36197266 50.10074219 16.36261719 51.10546875 16.36328125 C52.07871094 16.33000732 53.05195312 16.2967334 54.0546875 16.26245117 C55.51261719 16.13253784 55.51261719 16.13253784 57 16 C57.98742187 15.82380127 58.97484375 15.64760254 59.9921875 15.46606445 C61.42498047 15.11547974 61.42498047 15.11547974 62.88671875 14.7578125 C63.78527588 14.48718994 64.68383301 14.21656738 65.60961914 13.93774414 C66.39844482 13.62828857 67.18727051 13.31883301 68 13 C68.58837646 12.64993896 69.17675293 12.29987793 69.78295898 11.93920898 C70.25934814 11.56868408 70.7357373 11.19815918 71.2265625 10.81640625 C72.01804687 10.07261719 72.80953125 9.32882813 73.625 8.5625 C74.44226563 7.80066406 75.25953125 7.03882813 76.1015625 6.25390625 C76.72804688 5.84011719 77.35453125 5.42632812 78 5 C78.28101562 5.44730469 78.56203125 5.89460937 78.8515625 6.35546875 C78.90054688 7.22816406 78.94953125 8.10085937 79 9 C78.85046875 9.98484375 78.7009375 10.9696875 78.546875 11.984375 C78.36209595 12.86488525 78.36209595 12.86488525 78.17358398 13.76318359 C78.03380127 14.41883301 77.89401855 15.07448242 77.75 15.75 C77.61086182 16.47912598 77.47172363 17.20825195 77.32836914 17.95947266 C77.18520264 18.76433105 77.04203613 19.56918945 76.89453125 20.3984375 C76.74580566 21.27983398 76.59708008 22.16123047 76.44384766 23.06933594 C76.22414307 24.52001465 76.22414307 24.52001465 76 26 C75.86513184 27.06766602 75.73026367 28.13533203 75.59130859 29.23535156 C75.49348839 30.08437294 75.49348839 30.08437294 75.39369202 30.95054626 C75.32951584 31.53663162 75.26533966 32.12271698 75.19921875 32.7265625 C75.13564682 33.33170181 75.07207489 33.93684113 75.00657654 34.56031799 C74.94357864 35.18341354 74.88058075 35.80650909 74.81567383 36.44848633 C74.72209091 37.4091954 74.72209091 37.4091954 74.62661743 38.38931274 C74.56420868 39.04458954 74.50179993 39.69986633 74.4375 40.375 C74.34231583 41.37398819 74.34231583 41.37398819 74.24520874 42.39315796 C74.1819339 43.07383331 74.11865906 43.75450867 74.0534668 44.45581055 C73.99122421 45.15388321 73.92898163 45.85195587 73.86485291 46.57118225 C73.77319603 47.64389626 73.77319603 47.64389626 73.6796875 48.73828125 C73.6198317 49.46989975 73.55997589 50.20151825 73.49830627 50.95530701 C73.44053513 51.70691605 73.38276398 52.45852509 73.32324219 53.23291016 C73.26793335 54.00572327 73.21262451 54.77853638 73.15563965 55.57476807 C73.10427856 56.3750946 73.05291748 57.17542114 73 58 C72.95508423 58.83899841 72.91016846 59.67799683 72.8638916 60.54241943 C72.82276245 61.40675598 72.7816333 62.27109253 72.73925781 63.16162109 C72.70031906 64.04288666 72.66138031 64.92415222 72.6212616 65.8321228 C72.56510429 67.17399155 72.56510429 67.17399155 72.5078125 68.54296875 C72.47057571 69.44471832 72.43333893 70.3464679 72.39497375 71.27554321 C72.35817001 72.18363739 72.32136627 73.09173157 72.28344727 74.02734375 C72.24696075 74.94016113 72.21047424 75.85297852 72.17288208 76.79345703 C72.13645599 77.70724121 72.10002991 78.62102539 72.0625 79.5625 C72.02615448 80.47322266 71.98980896 81.38394531 71.95236206 82.32226562 C71.91515045 83.22912109 71.87793884 84.13597656 71.83959961 85.0703125 C71.78114616 86.42233261 71.78114616 86.42233261 71.72151184 87.80166626 C71.6806395 88.69598358 71.63976715 89.5903009 71.59765625 90.51171875 C71.55505173 91.39838226 71.5124472 92.28504578 71.46855164 93.19857788 C71.42237198 94.07325714 71.37619232 94.9479364 71.32861328 95.84912109 C71.27795715 96.70890564 71.22730103 97.56869019 71.17510986 98.45452881 C71.11732361 99.2945343 71.05953735 100.13453979 71 101 C70.93061218 101.81293518 70.86122437 102.62587036 70.78973389 103.46343994 C70.71329651 104.25361511 70.63685913 105.04379028 70.55810547 105.85791016 C70.47741318 106.62745529 70.39672089 107.39700043 70.31358337 108.18986511 C70.2294368 108.93802994 70.14529022 109.68619476 70.05859375 110.45703125 C69.92953392 111.54719292 69.92953392 111.54719292 69.79786682 112.65937805 C69.71044724 113.36467148 69.62302765 114.0699649 69.53295898 114.79663086 C69.44456757 115.47966278 69.35617615 116.1626947 69.2651062 116.86642456 C69.13387863 117.8606694 69.13387863 117.8606694 69 118.875 C68.91614044 119.52179718 68.83228088 120.16859436 68.74588013 120.83499146 C68.66353119 121.45864594 68.58118225 122.08230042 68.49633789 122.72485352 C68.41307755 123.32218796 68.3298172 123.9195224 68.24403381 124.53495789 C68.16350266 125.09834366 68.0829715 125.66172943 68 126.2421875 C67.855625 127.2410498 67.71125 128.23991211 67.5625 129.26904297 C67.2840625 130.6208667 67.2840625 130.6208667 67 132 C66.65880127 132.90468018 66.31760254 133.80936035 65.96606445 134.74145508 C65.64726318 135.4867749 65.32846191 136.23209473 65 137 C64.84917969 137.62519531 64.69835937 138.25039063 64.54296875 138.89453125 C64.42566406 139.52746094 64.30835937 140.16039062 64.1875 140.8125 C64.02121094 141.59367188 63.85492188 142.37484375 63.68359375 143.1796875 C63.45800781 144.11039063 63.23242188 145.04109375 63 146 C62.84160645 146.5559082 62.68321289 147.11181641 62.52001953 147.68457031 C62.33938965 148.28624023 62.15875977 148.88791016 61.97265625 149.5078125 C61.77720215 150.14267578 61.58174805 150.77753906 61.38037109 151.43164062 C61.17234863 152.09357422 60.96432617 152.75550781 60.75 153.4375 C60.53424316 154.11490234 60.31848633 154.79230469 60.09619141 155.49023438 C59.87237793 156.18697266 59.64856445 156.88371094 59.41796875 157.6015625 C59.1864209 158.31731445 58.95487305 159.03306641 58.71630859 159.77050781 C58.47992676 160.50624023 58.24354492 161.24197266 58 162 C57.7623291 162.76151367 57.5246582 163.52302734 57.27978516 164.30761719 C57.03921387 165.08008789 56.79864258 165.85255859 56.55078125 166.6484375 C56.18509033 167.80569336 56.18509033 167.80569336 55.81201172 168.98632812 C55.44100342 170.1377832 55.44100342 170.1377832 55.0625 171.3125 C54.68375732 172.4562207 54.68375732 172.4562207 54.29736328 173.62304688 C53.91620361 174.73389648 53.91620361 174.73389648 53.52734375 175.8671875 C53.2732373 176.57713867 53.01913086 177.28708984 52.75732422 178.01855469 C52.50740723 178.67243164 52.25749023 179.32630859 52 180 C51.76168457 180.5559082 51.52336914 181.11181641 51.27783203 181.68457031 C51.04306152 182.18311523 50.80829102 182.68166016 50.56640625 183.1953125 C50.09074219 184.10023438 49.61507812 185.00515625 49.125 185.9375 C48.63128906 186.77667969 48.13757813 187.61585938 47.62890625 188.48046875 C47.09136719 189.31191406 46.55382812 190.14335937 46 191 C45.36964844 191.94488281 44.73929688 192.88976562 44.08984375 193.86328125 C43.59242676 194.58173218 43.59242676 194.58173218 43.08496094 195.31469727 C42.74754883 195.78834717 42.41013672 196.26199707 42.0625 196.75 C41.38574219 197.65234375 40.70898438 198.5546875 40.01171875 199.484375 C39.34785156 200.31453125 38.68398438 201.1446875 38 202 C37.38769531 202.70640625 36.77539062 203.4128125 36.14453125 204.140625 C35.56058594 204.75421875 34.97664063 205.3678125 34.375 206 C33.80523437 206.53625 33.23546875 207.0725 32.6484375 207.625 C32.10445312 208.07875 31.56046875 208.5325 31 209 C30.49726562 209.37125 29.99453125 209.7425 29.4765625 210.125 C28.74566406 210.558125 28.74566406 210.558125 28 211 C27.01 211.33 26.02 211.66 25 212 C24.42121094 212.04125 23.84242187 212.0825 23.24609375 212.125 C22.64925781 212.08375 22.05242188 212.0425 21.4375 212 C20.85355469 211.88269531 20.26960938 211.76539063 19.66796875 211.64453125 C19.11753906 211.43183594 18.56710938 211.21914063 18 211 C17.52175781 210.65324219 17.04351562 210.30648437 16.55078125 209.94921875 C16.12152344 209.53285156 15.69226562 209.11648438 15.25 208.6875 C14.88390625 208.27886719 14.5178125 207.87023437 14.140625 207.44921875 C13.57601562 206.73185547 13.57601562 206.73185547 13 206 C12.49082031 205.39929688 11.98164062 204.79859375 11.45703125 204.1796875 C10.97621094 203.46039063 10.49539062 202.74109375 10 202 C9.70996094 201.15308594 9.41992188 200.30617188 9.12109375 199.43359375 C8.89550781 198.44488281 8.66992188 197.45617187 8.4375 196.4375 C8.20853027 195.32769775 7.97956055 194.21789551 7.74365234 193.07446289 C7.55587471 192.09081505 7.55587471 192.09081505 7.36430359 191.08729553 C7.2440834 190.39848801 7.12386322 189.70968048 7 189 C6.90052567 188.32218979 6.80105133 187.64437958 6.69856262 186.94602966 C6.60878647 186.24969925 6.51901031 185.55336884 6.42651367 184.8359375 C6.34138519 184.10842789 6.25625671 183.38091827 6.16854858 182.63136292 C6.08585724 181.86613815 6.00316589 181.10091339 5.91796875 180.3125 C5.83092682 179.48922714 5.74388489 178.66595428 5.65420532 177.81773376 C5.57149384 176.96514481 5.48878235 176.11255585 5.40356445 175.23413086 C5.32965485 174.36795135 5.25574524 173.50177185 5.17959595 172.60934448 C5.12032928 171.7482608 5.06106262 170.88717712 5 170 C4.96611176 169.17718536 4.93222351 168.35437073 4.89730835 167.50662231 C4.87858673 166.69434174 4.85986511 165.88206116 4.84057617 165.04516602 C4.83095352 164.22766876 4.82133087 163.41017151 4.81141663 162.56790161 C4.80919601 161.74240814 4.8069754 160.91691467 4.8046875 160.06640625 C4.80621323 159.22463837 4.80773895 158.38287048 4.80931091 157.51559448 C4.81439163 156.65829742 4.81947235 155.80100037 4.82470703 154.91772461 C4.8370639 153.60939163 4.8370639 153.60939163 4.84967041 152.27462769 C4.86220856 150.93212448 4.86220856 150.93212448 4.875 149.5625 C4.87933044 148.63277374 4.88366089 147.70304749 4.88812256 146.74514771 C4.89136536 145.79356781 4.89460815 144.84198792 4.89794922 143.86157227 C4.90160492 142.89596878 4.90526062 141.9303653 4.9090271 140.9355011 C4.91326691 139.95905136 4.91750671 138.98260162 4.921875 137.9765625 C4.92764557 136.99515793 4.93341614 136.01375336 4.93936157 135.00260925 C4.9458371 134.01593765 4.95231262 133.02926605 4.95898438 132.01269531 C4.96567139 131.02160767 4.9723584 130.03052002 4.97924805 129.00939941 C4.98609619 128.01629761 4.99294434 127.0231958 5 126 C5.00684814 125.00689819 5.01369629 124.01379639 5.02075195 122.99060059 C5.02743896 121.99951294 5.03412598 121.00842529 5.04101562 119.98730469 C5.04749115 119.00063309 5.05396667 118.01396149 5.06063843 116.99739075 C5.066409 116.01598618 5.07217957 115.0345816 5.078125 114.0234375 C5.08236481 113.04698776 5.08660461 112.07053802 5.0909729 111.0644989 C5.0946286 110.09889542 5.0982843 109.13329193 5.10205078 108.13842773 C5.10529358 107.18684784 5.10853638 106.23526794 5.11187744 105.25485229 C5.11620789 104.32512604 5.12053833 103.39539978 5.125 102.4375 C5.13335876 101.54249786 5.14171753 100.64749573 5.15032959 99.72537231 C5.16268646 98.41703934 5.16268646 98.41703934 5.17529297 97.08227539 C5.18030602 96.22505009 5.18531908 95.36782478 5.19048405 94.48462296 C5.19207744 93.64278332 5.19367083 92.80094368 5.1953125 91.93359375 C5.19289504 90.69438486 5.19289504 90.69438486 5.19042873 89.43014145 C5.17670522 88.20314215 5.17670522 88.20314215 5.16270447 86.95135498 C5.13482503 85.73271885 5.13482503 85.73271885 5.10638237 84.48946381 C5.07127619 83.66794075 5.03617001 82.84641769 5 82 C4.90440135 80.71547817 4.90440135 80.71547817 4.80687141 79.40500641 C4.72768408 78.54442375 4.64849674 77.68384109 4.56690979 76.79718018 C4.48040916 75.94860947 4.39390854 75.10003876 4.30478668 74.22575378 C4.21395561 73.40649918 4.12312454 72.58724457 4.02954102 71.74316406 C3.9398127 70.98540176 3.85008438 70.22763947 3.75763702 69.44691467 C3.66980202 68.72227524 3.58196701 67.9976358 3.49147034 67.2510376 C3.40646082 66.54898445 3.3214513 65.8469313 3.23386574 65.12360382 C3.15669004 64.42281456 3.07951435 63.7220253 3 63 C2.93756292 62.25592644 2.87512585 61.51185287 2.81079674 60.74523163 C2.75834108 60.01701454 2.70588543 59.28879745 2.65184021 58.53851318 C2.60844733 57.89067745 2.56505445 57.24284172 2.52034664 56.5753746 C2.48140569 55.94721973 2.44246473 55.31906487 2.40234375 54.671875 C2.35988053 53.97530918 2.31741732 53.27874336 2.27366734 52.56106949 C2.23685321 51.94279156 2.20003908 51.32451363 2.16210938 50.6875 C2.12496826 50.0378125 2.08782715 49.388125 2.04956055 48.71875 C2.01258057 48.0690625 1.97560059 47.419375 1.9375 46.75 C1.89874756 46.09322266 1.85999512 45.43644531 1.82006836 44.75976562 C1.78083252 44.10169922 1.74159668 43.44363281 1.70117188 42.765625 C1.6620166 42.10905411 1.62286133 41.45248322 1.58251953 40.77601624 C1.54368652 40.12289963 1.50485352 39.46978302 1.46484375 38.796875 C1.42713867 38.15177475 1.38943359 37.5066745 1.35058594 36.84202576 C1.31288086 36.19991653 1.27517578 35.55780731 1.23632812 34.89624023 C1.19813965 34.25548553 1.15995117 33.61473083 1.12060547 32.95455933 C1.08080566 32.30955475 1.04100586 31.66455017 1 31 C0.95649414 30.33976837 0.91298828 29.67953674 0.86816406 28.9992981 C0.82336914 28.33832123 0.77857422 27.67734436 0.73242188 26.99633789 C0.68788376 26.34465134 0.64334564 25.69296478 0.59745789 25.02153015 C0.55369522 24.38149551 0.50993256 23.74146088 0.46484375 23.08203125 C0.4227327 22.45661942 0.38062164 21.83120758 0.3372345 21.18684387 C0.29724838 20.58426254 0.25726227 19.98168121 0.21606445 19.36083984 C0.14476318 18.2517627 0.07346191 17.14268555 0 16 C-0.05260986 15.10619629 -0.10521973 14.21239258 -0.15942383 13.29150391 C-0.19704834 12.52370605 -0.23467285 11.7559082 -0.2734375 10.96484375 C-0.29277344 10.28228516 -0.31210937 9.59972656 -0.33203125 8.89648438 C-0.34621094 8.25001953 -0.36039063 7.60355469 -0.375 6.9375 C-0.41238281 6.22529297 -0.44976563 5.51308594 -0.48828125 4.77929688 C-0.49988281 4.11865234 -0.51148437 3.45800781 -0.5234375 2.77734375 C-0.35070312 1.86082031 -0.17796875 0.94429688 0 0 Z " transform="translate(25,125)" style="fill: #EBB2EB;"/><path d="M0 0 C0.56122559 -0.05446289 1.12245117 -0.10892578 1.70068359 -0.16503906 C2.3189502 -0.2162793 2.9372168 -0.26751953 3.57421875 -0.3203125 C4.53545654 -0.37662842 4.53545654 -0.37662842 5.51611328 -0.43408203 C6.49813721 -0.46671143 6.49813721 -0.46671143 7.5 -0.5 C8.47815674 -0.50362549 8.47815674 -0.50362549 9.47607422 -0.50732422 C10.11432129 -0.48428223 10.75256836 -0.46124023 11.41015625 -0.4375 C12.02777832 -0.3859375 12.64540039 -0.334375 13.28173828 -0.28125 C13.84876465 -0.1884375 14.41579102 -0.095625 15 0 C16.32837891 0.5259375 16.32837891 0.5259375 17.68359375 1.0625 C18.42738281 1.536875 19.17117187 2.01125 19.9375 2.5 C20.97583984 3.32564453 20.97583984 3.32564453 22.03515625 4.16796875 C22.68355469 4.77253906 23.33195312 5.37710937 24 6 C24.63808594 6.61488281 25.27617188 7.22976562 25.93359375 7.86328125 C26.57425781 8.50652344 27.21492188 9.14976563 27.875 9.8125 C28.52597656 10.48925781 29.17695312 11.16601562 29.84765625 11.86328125 C30.55792969 12.56839844 31.26820312 13.27351563 32 14 C32.84433594 14.73605469 33.68867187 15.47210938 34.55859375 16.23046875 C35.00783203 16.60413574 35.45707031 16.97780273 35.91992188 17.36279297 C36.37947266 17.73807129 36.83902344 18.11334961 37.3125 18.5 C37.77333984 18.87527832 38.23417969 19.25055664 38.70898438 19.63720703 C39.17498047 20.01087402 39.64097656 20.38454102 40.12109375 20.76953125 C40.59272949 21.14029785 41.06436523 21.51106445 41.55029297 21.89306641 C42.02869629 22.25835449 42.50709961 22.62364258 43 23 C43.49000488 23.35626465 43.98000977 23.7125293 44.48486328 24.07958984 C44.97583496 24.42844238 45.46680664 24.77729492 45.97265625 25.13671875 C46.45621582 25.47832031 46.93977539 25.81992187 47.43798828 26.171875 C47.91220215 26.50703125 48.38641602 26.8421875 48.875 27.1875 C49.78121094 27.84105469 50.68742187 28.49460937 51.62109375 29.16796875 C52.40613281 29.77253906 53.19117187 30.37710938 54 31 C54.82177734 31.76763672 54.82177734 31.76763672 55.66015625 32.55078125 C56.29244141 33.26814453 56.29244141 33.26814453 56.9375 34 C57.29328125 34.47953125 57.6490625 34.9590625 58.015625 35.453125 C58.50289062 36.21882813 58.50289062 36.21882813 59 37 C59.36609375 37.59296875 59.7321875 38.1859375 60.109375 38.796875 C60.46515625 39.44140625 60.8209375 40.0859375 61.1875 40.75 C61.50589844 41.43707031 61.82429688 42.12414063 62.15234375 42.83203125 C62.43207031 43.54746094 62.71179688 44.26289062 63 45 C63.34224609 46.05767578 63.34224609 46.05767578 63.69140625 47.13671875 C63.87574219 47.89597656 64.06007813 48.65523437 64.25 49.4375 C64.4665625 50.70013672 64.4665625 50.70013672 64.6875 51.98828125 C64.790625 52.98214844 64.89375 53.97601563 65 55 C65.03609375 55.61020996 65.0721875 56.22041992 65.109375 56.84912109 C65.13515625 57.51121582 65.1609375 58.17331055 65.1875 58.85546875 C65.20304932 59.54769531 65.21859863 60.23992187 65.23461914 60.953125 C65.23969482 61.66984375 65.24477051 62.3865625 65.25 63.125 C65.24411865 63.85589844 65.2382373 64.58679688 65.23217773 65.33984375 C65.21614502 66.0771875 65.2001123 66.81453125 65.18359375 67.57421875 C65.15765137 68.31333496 65.13170898 69.05245117 65.10498047 69.81396484 C65.07033691 70.53535645 65.03569336 71.25674805 65 72 C64.95891113 72.67369629 64.91782227 73.34739258 64.87548828 74.04150391 C64.82505371 74.69425293 64.77461914 75.34700195 64.72265625 76.01953125 C64.66086182 76.66720459 64.59906738 77.31487793 64.53540039 77.98217773 C64.46184326 78.62743408 64.38828613 79.27269043 64.3125 79.9375 C64.18379517 80.9121521 64.18379517 80.9121521 64.05249023 81.90649414 C63.90275757 82.8925061 63.90275757 82.8925061 63.75 83.8984375 C63.63527344 84.56456055 63.52054687 85.23068359 63.40234375 85.91699219 C63.26957031 86.60438477 63.13679688 87.29177734 63 88 C62.76603516 89.09296387 62.76603516 89.09296387 62.52734375 90.20800781 C62.35332031 90.95663086 62.17929688 91.70525391 62 92.4765625 C61.81066895 93.2305835 61.62133789 93.98460449 61.42626953 94.76147461 C61.22372559 95.52081299 61.02118164 96.28015137 60.8125 97.0625 C60.60093262 97.82763916 60.38936523 98.59277832 60.17138672 99.38110352 C59.83518311 100.51310181 59.83518311 100.51310181 59.4921875 101.66796875 C59.25467773 102.4057959 59.01716797 103.14362305 58.77246094 103.90380859 C58.51754883 104.59555176 58.26263672 105.28729492 58 106 C57.71930664 106.59506348 57.43861328 107.19012695 57.14941406 107.80322266 C56.85518555 108.35929199 56.56095703 108.91536133 56.2578125 109.48828125 C55.95866943 110.04314209 55.65952637 110.59800293 55.35131836 111.16967773 C54.89897827 112.01381226 54.89897827 112.01381226 54.4375 112.875 C54.13658447 113.46031494 53.83566895 114.04562988 53.52563477 114.64868164 C53.23229248 115.27766357 52.9389502 115.90664551 52.63671875 116.5546875 C52.35489746 117.23885742 52.07307617 117.92302734 51.78271484 118.62792969 C51.52441895 119.41071289 51.26612305 120.19349609 51 121 C50.78424316 121.95036133 50.56848633 122.90072266 50.34619141 123.87988281 C50.15589355 124.93272461 49.9655957 125.98556641 49.76953125 127.0703125 C49.59478271 128.18623779 49.42003418 129.30216309 49.23999023 130.4519043 C49.157883 131.0316098 49.07577576 131.61131531 48.99118042 132.20858765 C48.91159088 132.79975372 48.83200134 133.3909198 48.75 134 C48.67178009 134.59978668 48.59356018 135.19957336 48.51296997 135.8175354 C48.43658295 136.42535858 48.36019592 137.03318176 48.28149414 137.65942383 C48.20703568 138.27385849 48.13257721 138.88829315 48.05586243 139.52134705 C47.94699959 140.45244041 47.94699959 140.45244041 47.8359375 141.40234375 C47.73027718 142.34449486 47.73027718 142.34449486 47.6224823 143.30567932 C47.5533815 143.93554245 47.4842807 144.56540558 47.41308594 145.21435547 C47.34488647 145.84315613 47.27668701 146.47195679 47.2064209 147.11981201 C47.10424255 148.05050507 47.10424255 148.05050507 47 149 C46.93059204 149.59983704 46.86118408 150.19967407 46.78967285 150.81768799 C46.72018433 151.40910583 46.6506958 152.00052368 46.57910156 152.60986328 C46.51021729 153.19998703 46.44133301 153.79011078 46.37036133 154.39811707 C46.30228271 154.9899025 46.2342041 155.58168793 46.1640625 156.19140625 C46.06387817 157.09050468 46.06387817 157.09050468 45.96166992 158.00776672 C45.86317749 158.9154908 45.86317749 158.9154908 45.76269531 159.84155273 C45.69812134 160.45247772 45.63354736 161.06340271 45.5670166 161.69284058 C45.50365112 162.30982819 45.44028564 162.9268158 45.375 163.5625 C45.31292358 164.1840799 45.25084717 164.80565979 45.18688965 165.44607544 C45.12618286 166.07754486 45.06547607 166.70901428 45.00292969 167.35961914 C44.94371338 168.00570633 44.88449707 168.65179352 44.82348633 169.31745911 C44.76572021 169.97840073 44.7079541 170.63934235 44.6484375 171.3203125 C44.59196045 171.99466843 44.5354834 172.66902435 44.47729492 173.36381531 C44.39523804 174.41010857 44.39523804 174.41010857 44.31152344 175.47753906 C44.25879272 176.202677 44.20606201 176.92781494 44.1517334 177.67492676 C44.10166138 178.44220093 44.05158936 179.2094751 44 180 C43.95379517 180.83430542 43.90759033 181.66861084 43.85998535 182.52819824 C43.81627808 183.40286743 43.7725708 184.27753662 43.72753906 185.17871094 C43.66444801 186.52701492 43.66444801 186.52701492 43.6000824 187.90255737 C43.55932083 188.81901031 43.51855927 189.73546326 43.4765625 190.6796875 C43.43648575 191.60137726 43.396409 192.52306702 43.3551178 193.47268677 C43.31567551 194.40064056 43.27623322 195.32859436 43.2355957 196.28466797 C43.19665192 197.21728455 43.15770813 198.14990112 43.11758423 199.11077881 C43.07878143 200.0435968 43.03997864 200.97641479 43 201.9375 C42.96095551 202.86725647 42.92191101 203.79701294 42.88168335 204.75494385 C42.82266342 206.13719147 42.82266342 206.13719147 42.76245117 207.54736328 C42.70275902 208.90862839 42.70275902 208.90862839 42.64186096 210.2973938 C42.60149216 211.18925385 42.56112335 212.08111389 42.51953125 213 C42.45807167 214.31567459 42.45807167 214.31567459 42.39537048 215.65792847 C42.35336014 216.50686676 42.31134979 217.35580505 42.26806641 218.23046875 C42.22474182 219.04418945 42.18141724 219.85791016 42.13677979 220.69628906 C42.06907379 221.83662598 42.06907379 221.83662598 42 223 C41.92842682 224.01465332 41.92842682 224.01465332 41.85540771 225.04980469 C41.80563782 225.67145508 41.75586792 226.29310547 41.70458984 226.93359375 C41.59969238 228.06925781 41.49479492 229.20492187 41.38671875 230.375 C41.21885864 231.93408081 41.21885864 231.93408081 41.04760742 233.5246582 C40.86935425 234.96651489 40.86935425 234.96651489 40.6875 236.4375 C40.50054565 237.82424927 40.50054565 237.82424927 40.30981445 239.23901367 C40.11005005 240.56509644 40.11005005 240.56509644 39.90625 241.91796875 C39.76316406 242.76278809 39.62007813 243.60760742 39.47265625 244.47802734 C39.31667969 245.31027832 39.16070312 246.1425293 39 247 C38.82597656 247.85416504 38.65195313 248.70833008 38.47265625 249.58837891 C38.28574219 250.44222168 38.09882812 251.29606445 37.90625 252.17578125 C37.70974854 253.01866699 37.51324707 253.86155273 37.31079102 254.72998047 C37.10510498 255.56158691 36.89941895 256.39319336 36.6875 257.25 C36.47343506 258.06355957 36.25937012 258.87711914 36.03881836 259.71533203 C35.81846924 260.5195459 35.59812012 261.32375977 35.37109375 262.15234375 C35.14534668 262.95269043 34.91959961 263.75303711 34.68701172 264.57763672 C34.46029785 265.3770166 34.23358398 266.17639648 34 267 C33.77973145 267.80324707 33.55946289 268.60649414 33.33251953 269.43408203 C33.11063965 270.24087402 32.88875977 271.04766602 32.66015625 271.87890625 C32.43126709 272.69133789 32.20237793 273.50376953 31.96655273 274.34082031 C31.73009033 275.15647461 31.49362793 275.97212891 31.25 276.8125 C31.00515869 277.62428711 30.76031738 278.43607422 30.50805664 279.27246094 C30.25016357 280.09649414 29.99227051 280.92052734 29.7265625 281.76953125 C29.45360352 282.61209473 29.18064453 283.4546582 28.89941406 284.32275391 C28.60260742 285.20624512 28.30580078 286.08973633 28 287 C27.66452148 287.96470215 27.32904297 288.9294043 26.98339844 289.92333984 C26.62536133 290.92187988 26.26732422 291.92041992 25.8984375 292.94921875 C25.34289185 294.45077515 25.34289185 294.45077515 24.77612305 295.98266602 C24.20631714 297.47624634 24.20631714 297.47624634 23.625 299 C23.04842651 300.46747681 23.04842651 300.46747681 22.46020508 301.96459961 C22.07501709 302.90698486 21.6898291 303.84937012 21.29296875 304.8203125 C20.90931152 305.7165332 20.5256543 306.61275391 20.13037109 307.53613281 C19.75734863 308.34920898 19.38432617 309.16228516 19 310 C18.47720459 311.00691895 18.47720459 311.00691895 17.94384766 312.03417969 C17.60788574 312.61844727 17.27192383 313.20271484 16.92578125 313.8046875 C16.59570068 314.33433105 16.26562012 314.86397461 15.92553711 315.40966797 C15.59948486 315.89322754 15.27343262 316.37678711 14.9375 316.875 C14.28523438 317.761875 13.63296875 318.64875 12.9609375 319.5625 C11.99027344 320.7690625 11.99027344 320.7690625 11 322 C10.02933594 323.2375 10.02933594 323.2375 9.0390625 324.5 C8.06066406 325.675625 8.06066406 325.675625 7.0625 326.875 C6.41152344 327.58398438 5.76054688 328.29296875 5.08984375 329.0234375 C4.40019531 329.67570312 3.71054687 330.32796875 3 331 C1.79537109 331.91652344 1.79537109 331.91652344 0.56640625 332.8515625 C-0.23925781 333.39554687 -1.04492188 333.93953125 -1.875 334.5 C-2.61492188 334.9640625 -3.35484375 335.428125 -4.1171875 335.90625 C-4.73851562 336.2671875 -5.35984375 336.628125 -6 337 C-6.66 337.33 -7.32 337.66 -8 338 C-9.051875 338.103125 -10.10375 338.20625 -11.1875 338.3125 C-11.80882812 338.29703125 -12.43015625 338.2815625 -13.0703125 338.265625 C-14.02550781 338.13414062 -14.02550781 338.13414062 -15 338 C-15.89332031 337.71382813 -15.89332031 337.71382813 -16.8046875 337.421875 C-17.38476562 337.13828125 -17.96484375 336.8546875 -18.5625 336.5625 C-19.13613281 336.19382812 -19.70976563 335.82515625 -20.30078125 335.4453125 C-20.86152344 334.96835937 -21.42226563 334.49140625 -22 334 C-22.55042969 333.37867188 -23.10085937 332.75734375 -23.66796875 332.1171875 C-24.45107422 331.03824219 -24.45107422 331.03824219 -25.25 329.9375 C-25.70408234 329.18300064 -26.15816467 328.42850128 -26.62600708 327.65113831 C-27.07942474 326.77626266 -27.53284241 325.90138702 -28 325 C-28.28551727 324.1787413 -28.57103455 323.3574826 -28.86520386 322.51133728 C-29.09643951 321.65028885 -29.32767517 320.78924042 -29.56591797 319.90209961 C-29.81517029 318.9356955 -30.06442261 317.96929138 -30.32122803 316.97360229 C-30.54522278 315.99231354 -30.76921753 315.01102478 -31 314 C-31.17162659 313.09951935 -31.34325317 312.1990387 -31.52008057 311.27127075 C-31.66314636 310.37036713 -31.80621216 309.4694635 -31.95361328 308.54125977 C-32.08017303 307.59613022 -32.20673279 306.65100067 -32.33712769 305.67723083 C-32.45532867 304.67128372 -32.57352966 303.66533661 -32.6953125 302.62890625 C-32.88699509 300.96813805 -32.88699509 300.96813805 -33.08255005 299.27381897 C-33.14407572 298.69168546 -33.20560139 298.10955194 -33.26899147 297.50977802 C-33.32749968 296.91116553 -33.38600788 296.31255304 -33.44628906 295.69580078 C-33.50067327 295.08378657 -33.55505749 294.47177237 -33.61108971 293.84121227 C-33.68498641 292.90071765 -33.68498641 292.90071765 -33.76037598 291.94122314 C-33.80402786 291.29863808 -33.84767975 290.65605301 -33.89265442 289.99399567 C-33.94579048 289.00696781 -33.94579048 289.00696781 -34 288 C-34.02301682 287.32610985 -34.04603363 286.6522197 -34.06974792 285.95790863 C-34.08455704 285.26932014 -34.09936615 284.58073166 -34.11462402 283.87127686 C-34.12374911 283.16885833 -34.1328742 282.4664398 -34.14227581 281.74273586 C-34.14656503 281.02696408 -34.15085424 280.3111923 -34.15527344 279.57373047 C-34.15641301 278.84519143 -34.15755259 278.11665239 -34.15872669 277.36603642 C-34.15672606 276.6252708 -34.15472544 275.88450518 -34.15266418 275.12129211 C-34.14774271 274.36875971 -34.14282124 273.6162273 -34.13775063 272.84089088 C-34.13096479 272.07742033 -34.12417896 271.31394978 -34.1171875 270.52734375 C-34.10980246 269.75402899 -34.10241741 268.98071423 -34.09480858 268.18396568 C-34.08641771 267.4004706 -34.07802685 266.61697552 -34.06938171 265.80973816 C-34.05994443 265.01595292 -34.05050714 264.22216768 -34.04078388 263.40432835 C-34.025309 262.19883791 -34.025309 262.19883791 -34.00952148 260.96899414 C-33.99823054 260.1559101 -33.9869396 259.34282606 -33.97530651 258.50510311 C-33.96378709 257.68237691 -33.95226767 256.85965071 -33.94039917 256.01199341 C-33.92913372 255.17978901 -33.91786827 254.34758461 -33.90626144 253.4901619 C-33.89594517 252.64778347 -33.88562889 251.80540504 -33.875 250.9375 C-33.86669788 250.08343945 -33.85839577 249.22937889 -33.84984207 248.34943771 C-33.84292721 247.48629581 -33.83601234 246.62315392 -33.82888794 245.7338562 C-33.82012965 244.428172 -33.82012965 244.428172 -33.81119442 243.09611034 C-33.80654958 242.2193329 -33.80190474 241.34255545 -33.79711914 240.43920898 C-33.79368531 239.55754972 -33.79025148 238.67589045 -33.7867136 237.76751423 C-33.7844826 236.88140052 -33.78225161 235.99528681 -33.779953 235.08232117 C-33.77903341 234.19236639 -33.77811382 233.30241161 -33.77716637 232.38548851 C-33.7772249 231.49257418 -33.77728344 230.59965984 -33.77734375 229.6796875 C-33.77770945 228.78464319 -33.77807514 227.88959888 -33.77845192 226.96743202 C-33.78024641 226.0710269 -33.7820409 225.17462177 -33.78388977 224.25105286 C-33.78795617 223.35412877 -33.79202257 222.45720469 -33.7962122 221.53310108 C-33.8027151 220.63626952 -33.80921801 219.73943796 -33.81591797 218.81542969 C-33.82496123 217.91911426 -33.8340045 217.02279882 -33.8433218 216.09932232 C-33.85593076 215.20492852 -33.86853971 214.31053473 -33.88153076 213.38903809 C-33.89821556 212.49754562 -33.91490036 211.60605316 -33.93209076 210.68754578 C-33.95450081 209.80065567 -33.97691086 208.91376556 -34 208 C-34.03086952 207.12019974 -34.06173904 206.24039948 -34.09354401 205.3339386 C-34.13012871 204.45984848 -34.16671341 203.58575836 -34.20440674 202.68518066 C-34.24505627 201.81620305 -34.2857058 200.94722544 -34.32758713 200.05191517 C-34.37175388 199.18819137 -34.41592064 198.32446756 -34.46142578 197.43457031 C-34.53131651 196.1464584 -34.53131651 196.1464584 -34.60261917 194.83232403 C-34.65161739 193.97920541 -34.70061562 193.12608679 -34.75109863 192.24711609 C-34.80235397 191.40010321 -34.85360931 190.55309032 -34.90641785 189.68041039 C-34.95921402 188.83970308 -35.01201019 187.99899578 -35.06640625 187.1328125 C-35.14659752 185.88153281 -35.14659752 185.88153281 -35.22840881 184.60497475 C-35.28286667 183.77774595 -35.33732452 182.95051716 -35.39343262 182.09822083 C-35.44896427 181.27829494 -35.50449593 180.45836905 -35.56171036 179.61359692 C-35.61820629 178.80146394 -35.67470222 177.98933096 -35.73291016 177.15258789 C-35.79042324 176.3489018 -35.84793633 175.5452157 -35.90719223 174.71717548 C-35.96531208 173.92178962 -36.02343193 173.12640375 -36.08331299 172.30691528 C-36.17097805 171.12657148 -36.17097805 171.12657148 -36.26041412 169.92238235 C-36.31885246 169.14362118 -36.3772908 168.36486 -36.4375 167.5625 C-36.49545494 166.79090923 -36.55340988 166.01931847 -36.61312103 165.22434616 C-36.67075874 164.46194248 -36.72839645 163.6995388 -36.78778076 162.91403198 C-36.84516481 162.16216614 -36.90254887 161.41030029 -36.96167183 160.63565063 C-37.04711156 159.52520889 -37.04711156 159.52520889 -37.13427734 158.39233398 C-37.19062788 157.66515167 -37.24697842 156.93796936 -37.30503654 156.18875122 C-37.3608848 155.47450989 -37.41673306 154.76026855 -37.47427368 154.02438354 C-37.5295586 153.32347469 -37.58484352 152.62256584 -37.64180374 151.90041733 C-37.69684444 151.21269367 -37.75188515 150.52497002 -37.80859375 149.81640625 C-37.8640675 149.1408884 -37.91954124 148.46537056 -37.97669601 147.76938248 C-38.03146732 147.10895824 -38.08623863 146.44853401 -38.14266968 145.76809692 C-38.19586805 145.12515686 -38.24906643 144.4822168 -38.30387688 143.8197937 C-38.35538462 143.19485016 -38.40689236 142.56990662 -38.45996094 141.92602539 C-38.50977175 141.31914886 -38.55958256 140.71227234 -38.61090279 140.08700562 C-38.65781195 139.50191223 -38.70472111 138.91681885 -38.75305176 138.31399536 C-38.83454468 137.22037689 -38.9160376 136.12675842 -39 135 C-39.05361694 134.04197479 -39.10723389 133.08394958 -39.16247559 132.09689331 C-39.20199341 131.23790436 -39.24151123 130.37891541 -39.28222656 129.49389648 C-39.31646225 128.71255341 -39.35069794 127.93121033 -39.38597107 127.12619019 C-39.4171553 126.41423492 -39.44833954 125.70227966 -39.48046875 124.96875 C-39.51249893 124.30932404 -39.54452911 123.64989807 -39.57752991 122.9704895 C-39.61422287 122.36800385 -39.65091583 121.76551819 -39.6887207 121.14477539 C-39.79144287 120.10699951 -39.89416504 119.06922363 -40 118 C-40.19360107 117.16911865 -40.38720215 116.3382373 -40.58666992 115.48217773 C-40.82361572 114.79583252 -41.06056152 114.1094873 -41.3046875 113.40234375 C-41.55718262 112.81839844 -41.80967773 112.23445313 -42.06982422 111.6328125 C-42.33553223 111.07335937 -42.60124023 110.51390625 -42.875 109.9375 C-43.1445752 109.28652344 -43.41415039 108.63554688 -43.69189453 107.96484375 C-43.95856934 107.29453125 -44.22524414 106.62421875 -44.5 105.93359375 C-44.75910156 105.27858887 -45.01820312 104.62358398 -45.28515625 103.94873047 C-45.52105469 103.30564941 -45.75695312 102.66256836 -46 102 C-46.18949219 101.38398926 -46.37898438 100.76797852 -46.57421875 100.13330078 C-46.73535156 99.52341309 -46.89648438 98.91352539 -47.0625 98.28515625 C-47.20494141 97.66592285 -47.34738281 97.04668945 -47.49414062 96.40869141 C-47.68266602 95.46388916 -47.68266602 95.46388916 -47.875 94.5 C-47.99037109 93.85981934 -48.10574219 93.21963867 -48.22460938 92.56005859 C-48.32580078 91.8892627 -48.42699219 91.2184668 -48.53125 90.52734375 C-48.61632813 89.81690918 -48.70140625 89.10647461 -48.7890625 88.37451172 C-48.85867187 87.59092285 -48.92828125 86.80733398 -49 86 C-49.05414063 85.08621582 -49.10828125 84.17243164 -49.1640625 83.23095703 C-49.22207031 81.75731689 -49.22207031 81.75731689 -49.28125 80.25390625 C-49.30437256 79.24175049 -49.32749512 78.22959473 -49.35131836 77.18676758 C-49.3591333 76.15575928 -49.36694824 75.12475098 -49.375 74.0625 C-49.36799072 73.03213623 -49.36098145 72.00177246 -49.35375977 70.94018555 C-49.33112061 69.92351807 -49.30848145 68.90685059 -49.28515625 67.859375 C-49.24664551 66.86486328 -49.20813477 65.87035156 -49.16845703 64.84570312 C-49.11286621 63.90662109 -49.05727539 62.96753906 -49 62 C-48.88760986 60.74993164 -48.88760986 60.74993164 -48.77294922 59.47460938 C-48.63590576 58.31928711 -48.63590576 58.31928711 -48.49609375 57.140625 C-48.39039063 56.40996826 -48.2846875 55.67931152 -48.17578125 54.92651367 C-48.05589844 54.22888916 -47.93601562 53.53126465 -47.8125 52.8125 C-47.6784375 52.13098877 -47.544375 51.44947754 -47.40625 50.74731445 C-47.26058594 50.08948975 -47.11492188 49.43166504 -46.96484375 48.75390625 C-46.80870605 48.12242676 -46.65256836 47.49094727 -46.49169922 46.84033203 C-46.32943848 46.23302246 -46.16717773 45.62571289 -46 45 C-45.83902832 44.41718262 -45.67805664 43.83436523 -45.51220703 43.23388672 C-45.34446777 42.67072754 -45.17672852 42.10756836 -45.00390625 41.52734375 C-44.63136719 40.44582031 -44.25882813 39.36429688 -43.875 38.25 C-43.441875 37.21617188 -43.00875 36.18234375 -42.5625 35.1171875 C-42.046875 34.08851562 -41.53125 33.05984375 -41 32 C-40.69320312 31.45891602 -40.38640625 30.91783203 -40.0703125 30.36035156 C-39.73773438 29.81088867 -39.40515625 29.26142578 -39.0625 28.6953125 C-38.71034424 28.14593018 -38.35818848 27.59654785 -37.99536133 27.03051758 C-37.62564209 26.48419678 -37.25592285 25.93787598 -36.875 25.375 C-36.49174561 24.83834717 -36.10849121 24.30169434 -35.71362305 23.7487793 C-35.11868042 22.95467651 -35.11868042 22.95467651 -34.51171875 22.14453125 C-34.10228027 21.62197754 -33.6928418 21.09942383 -33.27099609 20.56103516 C-32.85156738 20.04589355 -32.43213867 19.53075195 -32 19 C-31.57412598 18.49130371 -31.14825195 17.98260742 -30.70947266 17.45849609 C-30.27554199 16.96043457 -29.84161133 16.46237305 -29.39453125 15.94921875 C-28.95173828 15.46525635 -28.50894531 14.98129395 -28.05273438 14.48266602 C-27.60220703 14.01401123 -27.15167969 13.54535645 -26.6875 13.0625 C-26.23052734 12.6099585 -25.77355469 12.15741699 -25.30273438 11.69116211 C-24.83802734 11.25940674 -24.37332031 10.82765137 -23.89453125 10.3828125 C-23.42225098 9.97450195 -22.9499707 9.56619141 -22.46337891 9.14550781 C-21.98046387 8.76749023 -21.49754883 8.38947266 -21 8 C-20.50032715 7.66323242 -20.0006543 7.32646484 -19.48583984 6.97949219 C-18.7252124 6.52171387 -18.7252124 6.52171387 -17.94921875 6.0546875 C-16.93472656 5.52101563 -15.92023437 4.98734375 -14.875 4.4375 C-13.86824219 3.99019531 -12.86148438 3.54289063 -11.82421875 3.08203125 C-10.89222656 2.72496094 -9.96023437 2.36789062 -9 2 C-7.89591797 1.60361328 -7.89591797 1.60361328 -6.76953125 1.19921875 C-6.08246094 1.00972656 -5.39539062 0.82023438 -4.6875 0.625 C-3.97980469 0.50382813 -3.27210937 0.38265625 -2.54296875 0.2578125 C-1.70378906 0.17273438 -0.86460938 0.08765625 0 0 Z M4 5 C3.13761719 5.10183594 2.27523437 5.20367188 1.38671875 5.30859375 C0.47535156 5.45425781 -0.43601563 5.59992187 -1.375 5.75 C-2.29925781 5.92917969 -3.22351562 6.10835937 -4.17578125 6.29296875 C-5.10777344 6.52628906 -6.03976563 6.75960938 -7 7 C-7.94230469 7.32613281 -8.88460937 7.65226563 -9.85546875 7.98828125 C-10.74878906 8.34277344 -11.64210937 8.69726562 -12.5625 9.0625 C-13.36816406 9.40410156 -14.17382812 9.74570313 -15.00390625 10.09765625 C-15.99197266 10.54431641 -15.99197266 10.54431641 -17 11 C-17.99 11.495 -17.99 11.495 -19 12 C-19 12.66 -19 13.32 -19 14 C-19.59296875 14.30421875 -20.1859375 14.6084375 -20.796875 14.921875 C-21.52390625 15.27765625 -22.2509375 15.6334375 -23 16 C-23.54140625 16.47953125 -24.0828125 16.9590625 -24.640625 17.453125 C-25.17171875 18.04609375 -25.7028125 18.6390625 -26.25 19.25 C-26.84941406 19.96285156 -27.44882812 20.67570312 -28.06640625 21.41015625 C-28.70449219 22.26480469 -29.34257812 23.11945312 -30 24 C-30.34144043 24.50644043 -30.68288086 25.01288086 -31.03466797 25.53466797 C-31.38287598 26.07881348 -31.73108398 26.62295898 -32.08984375 27.18359375 C-32.43740723 27.75207031 -32.7849707 28.32054688 -33.14306641 28.90625 C-33.48772949 29.4940625 -33.83239258 30.081875 -34.1875 30.6875 C-34.52700684 31.28691406 -34.86651367 31.88632812 -35.21630859 32.50390625 C-35.54324707 33.10976563 -35.87018555 33.715625 -36.20703125 34.33984375 C-36.51721191 34.94812012 -36.82739258 35.55639648 -37.14697266 36.18310547 C-37.56922119 37.08246826 -37.56922119 37.08246826 -38 38 C-38.23380371 38.57508301 -38.46760742 39.15016602 -38.70849609 39.74267578 C-38.91168457 40.30325684 -39.11487305 40.86383789 -39.32421875 41.44140625 C-39.67097656 42.53324219 -40.01773438 43.62507813 -40.375 44.75 C-40.65085937 45.71421875 -40.92671875 46.6784375 -41.2109375 47.671875 C-41.47132812 48.77015625 -41.73171875 49.8684375 -42 51 C-42.17660156 51.72018311 -42.35320313 52.44036621 -42.53515625 53.18237305 C-42.71691406 53.98715088 -42.89867187 54.79192871 -43.0859375 55.62109375 C-43.25367676 56.48041504 -43.42141602 57.33973633 -43.59423828 58.22509766 C-43.72813965 59.14081543 -43.86204102 60.0565332 -44 61 C-44.06300293 61.96856934 -44.12600586 62.93713867 -44.19091797 63.93505859 C-44.21557129 64.94262207 -44.24022461 65.95018555 -44.265625 66.98828125 C-44.26981445 68.01816162 -44.27400391 69.04804199 -44.27832031 70.10913086 C-44.26897461 71.16624268 -44.25962891 72.22335449 -44.25 73.3125 C-44.24323242 74.41537354 -44.23646484 75.51824707 -44.22949219 76.65454102 C-44.21563477 77.74565186 -44.20177734 78.8367627 -44.1875 79.9609375 C-44.16171875 81.00862305 -44.1359375 82.05630859 -44.109375 83.13574219 C-44.07328125 84.08094727 -44.0371875 85.02615234 -44 86 C-43.95359375 86.74411133 -43.9071875 87.48822266 -43.859375 88.25488281 C-43.80265625 88.88491211 -43.7459375 89.51494141 -43.6875 90.1640625 C-43.4709375 91.78441406 -43.4709375 91.78441406 -43.25 93.4375 C-43.06050781 94.40171875 -42.87101562 95.3659375 -42.67578125 96.359375 C-42.45277344 97.23078125 -42.22976562 98.1021875 -42 99 C-41.76667969 99.87140625 -41.53335938 100.7428125 -41.29296875 101.640625 C-41.01066406 102.48109375 -40.72835937 103.3215625 -40.4375 104.1875 C-39.92316406 105.37279297 -39.92316406 105.37279297 -39.3984375 106.58203125 C-38.70621094 107.77892578 -38.70621094 107.77892578 -38 109 C-37.31164062 109.89074219 -36.62328125 110.78148438 -35.9140625 111.69921875 C-35.52935791 112.14692627 -35.14465332 112.59463379 -34.74829102 113.0559082 C-34.16132446 113.70885864 -34.16132446 113.70885864 -33.5625 114.375 C-32.82128906 115.16648437 -32.08007812 115.95796875 -31.31640625 116.7734375 C-30.55199219 117.50820312 -29.78757812 118.24296875 -29 119 C-27.84564453 120.00740234 -27.84564453 120.00740234 -26.66796875 121.03515625 C-25.78753906 121.68355469 -24.90710938 122.33195312 -24 123 C-23.45351807 123.33451172 -22.90703613 123.66902344 -22.34399414 124.01367188 C-21.75094482 124.35076172 -21.15789551 124.68785156 -20.546875 125.03515625 C-19.62563843 125.53499023 -19.62563843 125.53499023 -18.68579102 126.04492188 C-18.04697998 126.38072266 -17.40816895 126.71652344 -16.75 127.0625 C-16.07960693 127.41248047 -15.40921387 127.76246094 -14.71850586 128.12304688 C-14.05214111 128.46529297 -13.38577637 128.80753906 -12.69921875 129.16015625 C-12.0551709 129.48258301 -11.41112305 129.80500977 -10.74755859 130.13720703 C-10.17086426 130.42192871 -9.59416992 130.70665039 -9 131 C-8.20207031 131.39058594 -7.40414062 131.78117187 -6.58203125 132.18359375 C-5.91558594 132.45300781 -5.24914063 132.72242188 -4.5625 133 C-3.52996094 133.29777344 -3.52996094 133.29777344 -2.4765625 133.6015625 C-1.65929688 133.73304688 -0.84203125 133.86453125 0 134 C0.82806152 134.07686035 0.82806152 134.07686035 1.67285156 134.15527344 C2.59662598 134.21376465 2.59662598 134.21376465 3.5390625 134.2734375 C4.19003906 134.29784912 4.84101562 134.32226074 5.51171875 134.34741211 C6.18847656 134.35651611 6.86523438 134.36562012 7.5625 134.375 C8.58537109 134.36255249 8.58537109 134.36255249 9.62890625 134.34985352 C10.32113281 134.32592529 11.01335937 134.30199707 11.7265625 134.27734375 C12.42942383 134.23851074 13.13228516 134.19967773 13.85644531 134.15966797 C14.56381836 134.10697754 15.27119141 134.05428711 16 134 C16.70737305 133.93570801 17.41474609 133.87141602 18.14355469 133.80517578 C18.84641602 133.72638184 19.54927734 133.64758789 20.2734375 133.56640625 C20.96630859 133.47085449 21.65917969 133.37530273 22.37304688 133.27685547 C23.05431641 133.16486816 23.73558594 133.05288086 24.4375 132.9375 C25.44393555 132.74631592 25.44393555 132.74631592 26.47070312 132.55126953 C27.11716797 132.40415527 27.76363281 132.25704102 28.4296875 132.10546875 C29.04424805 131.93708496 29.65880859 131.76870117 30.29199219 131.59521484 C30.85563477 131.39879395 31.41927734 131.20237305 32 131 C33.36511719 130.25169922 33.36511719 130.25169922 34.7578125 129.48828125 C35.51835938 128.91464844 36.27890625 128.34101563 37.0625 127.75 C37.73925781 127.12867188 38.41601562 126.50734375 39.11328125 125.8671875 C39.73589844 125.25101562 40.35851562 124.63484375 41 124 C41.63292969 123.48695312 42.26585938 122.97390625 42.91796875 122.4453125 C43.82482422 121.66800781 43.82482422 121.66800781 44.75 120.875 C45.30558594 120.3078125 45.86117187 119.740625 46.43359375 119.15625 C46.95050781 118.4446875 47.46742187 117.733125 48 117 C48.72896484 115.43765625 48.72896484 115.43765625 49.47265625 113.84375 C49.81441895 112.98934326 49.81441895 112.98934326 50.16308594 112.11767578 C50.4845459 111.25505127 50.4845459 111.25505127 50.8125 110.375 C51.19019531 109.28960937 51.56789063 108.20421875 51.95703125 107.0859375 C52.47330078 105.55839844 52.47330078 105.55839844 53 104 C53.33257812 103.20464844 53.66515625 102.40929687 54.0078125 101.58984375 C54.33523437 100.73519531 54.66265625 99.88054687 55 99 C55.25511353 98.12939941 55.25511353 98.12939941 55.51538086 97.24121094 C55.77266968 96.27683105 55.77266968 96.27683105 56.03515625 95.29296875 C56.28942383 94.2884668 56.28942383 94.2884668 56.54882812 93.26367188 C56.8030957 92.2359668 56.8030957 92.2359668 57.0625 91.1875 C57.23587891 90.51396484 57.40925781 89.84042969 57.58789062 89.14648438 C57.75611328 88.47294922 57.92433594 87.79941406 58.09765625 87.10546875 C58.25548584 86.42154053 58.41331543 85.7376123 58.57592773 85.03295898 C58.71587158 84.36208252 58.85581543 83.69120605 59 83 C59.16447632 82.07199585 59.16447632 82.07199585 59.33227539 81.12524414 C59.46557251 80.18926392 59.46557251 80.18926392 59.6015625 79.234375 C59.67479736 78.57590576 59.74803223 77.91743652 59.82348633 77.23901367 C59.88173584 76.50013916 59.93998535 75.76126465 60 75 C60.06900513 73.64708862 60.06900513 73.64708862 60.1394043 72.2668457 C60.17203369 71.28288818 60.20466309 70.29893066 60.23828125 69.28515625 C60.25310547 68.26873047 60.26792969 67.25230469 60.28320312 66.20507812 C60.29287109 65.16802734 60.30253906 64.13097656 60.3125 63.0625 C60.34150391 62.02931641 60.37050781 60.99613281 60.40039062 59.93164062 C60.41295898 58.40506836 60.41295898 58.40506836 60.42578125 56.84765625 C60.38179199 55.3630188 60.38179199 55.3630188 60.33691406 53.84838867 C60.22573242 52.90842041 60.11455078 51.96845215 60 51 C59.72639648 50.13544189 59.45279297 49.27088379 59.17089844 48.38012695 C58.6551123 47.19809692 58.6551123 47.19809692 58.12890625 45.9921875 C57.78802979 45.31140137 57.44715332 44.63061523 57.09594727 43.92919922 C56.55345337 42.97424561 56.55345337 42.97424561 56 42 C55.59595947 41.3085791 55.19191895 40.6171582 54.77563477 39.90478516 C54.39592529 39.29683105 54.01621582 38.68887695 53.625 38.0625 C53.11710937 37.4128125 52.60921875 36.763125 52.0859375 36.09375 C51.39757812 35.4028125 50.70921875 34.711875 50 34 C49.26765137 33.41798828 49.26765137 33.41798828 48.52050781 32.82421875 C47.96975586 32.41816406 47.41900391 32.01210938 46.8515625 31.59375 C46.26850342 31.17867187 45.68544434 30.76359375 45.0847168 30.3359375 C44.47926025 29.91570313 43.87380371 29.49546875 43.25 29.0625 C42.33504761 28.43601562 42.33504761 28.43601562 41.40161133 27.796875 C40.79341553 27.37921875 40.18521973 26.9615625 39.55859375 26.53125 C38.95772949 26.11359375 38.35686523 25.6959375 37.73779297 25.265625 C37.16432129 24.84796875 36.59084961 24.4303125 36 24 C35.48195801 23.57976563 34.96391602 23.15953125 34.43017578 22.7265625 C33.94919434 22.31148437 33.46821289 21.89640625 32.97265625 21.46875 C32.29251465 20.86148071 32.29251465 20.86148071 31.59863281 20.24194336 C31.17420898 19.85272705 30.74978516 19.46351074 30.3125 19.0625 C29.54550781 18.35222656 28.77851562 17.64195313 27.98828125 16.91015625 C27.33214844 16.27980469 26.67601563 15.64945313 26 15 C25.45730469 14.42121094 24.91460937 13.84242187 24.35546875 13.24609375 C23.90816406 12.83488281 23.46085937 12.42367188 23 12 C22.34 12 21.68 12 21 12 C21 11.34 21 10.68 21 10 C20.2575 9.319375 19.515 8.63875 18.75 7.9375 C17.38875 6.9784375 17.38875 6.9784375 16 6 C15.401875 5.7525 14.80375 5.505 14.1875 5.25 C13.465625 5.1675 12.74375 5.085 12 5 C11.18789062 4.94005859 11.18789062 4.94005859 10.359375 4.87890625 C9.72515625 4.85699219 9.0909375 4.83507812 8.4375 4.8125 C7.39529297 4.82990234 7.39529297 4.82990234 6.33203125 4.84765625 C5.56246094 4.89792969 4.79289062 4.94820312 4 5 Z M-34 121 C-34.08765625 121.85335937 -34.1753125 122.70671875 -34.265625 123.5859375 C-34.26965332 124.17246094 -34.27368164 124.75898438 -34.27783203 125.36328125 C-34.26864746 126.02714844 -34.25946289 126.69101563 -34.25 127.375 C-34.24468262 128.08269531 -34.23936523 128.79039062 -34.23388672 129.51953125 C-34.22115723 130.28394531 -34.20842773 131.04835937 -34.1953125 131.8359375 C-34.16985352 132.6619043 -34.14439453 133.48787109 -34.11816406 134.33886719 C-34.07916992 135.21704102 -34.04017578 136.09521484 -34 137 C-33.94295898 137.92200195 -33.88591797 138.84400391 -33.82714844 139.79394531 C-33.75786133 140.76170898 -33.68857422 141.72947266 -33.6171875 142.7265625 C-33.50056763 144.24975098 -33.50056763 144.24975098 -33.3815918 145.80371094 C-33.2969165 146.85848633 -33.21224121 147.91326172 -33.125 149 C-33.03581299 150.08055664 -32.94662598 151.16111328 -32.85473633 152.27441406 C-32.76216553 153.3981543 -32.66959473 154.52189453 -32.57421875 155.6796875 C-32.52689102 156.25714722 -32.47956329 156.83460693 -32.43080139 157.42956543 C-32.38322189 158.0222522 -32.3356424 158.61493896 -32.28662109 159.22558594 C-32.23906677 159.83543335 -32.19151245 160.44528076 -32.14251709 161.0736084 C-32.09548645 161.70931763 -32.04845581 162.34502686 -32 163 C-31.93138763 164.01543884 -31.93138763 164.01543884 -31.86138916 165.0513916 C-31.81641296 165.75147339 -31.77143677 166.45155518 -31.72509766 167.17285156 C-31.68064514 167.8846759 -31.63619263 168.59650024 -31.59039307 169.32989502 C-31.54638367 170.04860779 -31.50237427 170.76732056 -31.45703125 171.5078125 C-31.41318298 172.22507507 -31.36933472 172.94233765 -31.32415771 173.68133545 C-31.28083313 174.39622131 -31.23750854 175.11110718 -31.19287109 175.84765625 C-31.15023132 176.55809082 -31.10759155 177.26852539 -31.06365967 178.00048828 C-31.02202698 178.70157715 -30.98039429 179.40266602 -30.9375 180.125 C-30.89747864 180.81158691 -30.85745728 181.49817383 -30.81622314 182.20556641 C-30.7771283 182.8763623 -30.73803345 183.5471582 -30.69775391 184.23828125 C-30.65849289 184.89488739 -30.61923187 185.55149353 -30.57878113 186.22799683 C-30.54118179 186.856586 -30.50358246 187.48517517 -30.46484375 188.1328125 C-30.36610962 189.83268311 -30.36610962 189.83268311 -30.26538086 191.56689453 C-30.17780518 192.69981934 -30.09022949 193.83274414 -30 195 C-29.88003741 195.88245046 -29.88003741 195.88245046 -29.75765133 196.7827282 C-29.66851247 197.4077479 -29.57937361 198.0327676 -29.48753357 198.67672729 C-29.35411041 199.73236279 -29.35411041 199.73236279 -29.21799183 200.80932426 C-29.14605453 201.53224726 -29.07411722 202.25517025 -29 203 C-28.97272922 203.68041918 -28.94545843 204.36083836 -28.91736126 205.0618763 C-28.91160989 205.74810507 -28.90585852 206.43433384 -28.89993286 207.14135742 C-28.90289368 207.85811646 -28.90585449 208.57487549 -28.90890503 209.31335449 C-28.91721344 210.0697522 -28.92552185 210.8261499 -28.93408203 211.60546875 C-28.93875488 212.42640015 -28.94342773 213.24733154 -28.94824219 214.09313965 C-28.95332794 214.95596558 -28.9584137 215.8187915 -28.96365356 216.70776367 C-28.97101658 217.59934174 -28.97837959 218.4909198 -28.98596573 219.40951538 C-28.99317516 220.32625031 -29.0003846 221.24298523 -29.0078125 222.1875 C-29.01247402 223.1210733 -29.01713554 224.05464661 -29.02193832 225.01651001 C-29.02580677 225.96794891 -29.02967522 226.91938782 -29.03366089 227.8996582 C-29.03767347 228.86789017 -29.04168606 229.83612213 -29.04582024 230.83369446 C-29.0500355 231.81670029 -29.05425076 232.79970612 -29.05859375 233.8125 C-29.06344851 234.80988693 -29.06830326 235.80727386 -29.07330513 236.83488464 C-29.07860174 237.84070084 -29.08389835 238.84651703 -29.08935547 239.8828125 C-29.09769409 241.3980249 -29.09769409 241.3980249 -29.10620117 242.94384766 C-29.11240479 243.95237793 -29.1186084 244.9609082 -29.125 246 C-29.13249268 246.99821777 -29.13998535 247.99643555 -29.14770508 249.02490234 C-29.15552002 250.01699707 -29.16333496 251.0090918 -29.17138672 252.03125 C-29.17890583 253.01898911 -29.18642494 254.00672821 -29.19417191 255.0243988 C-29.20099361 256.0063472 -29.20781532 256.98829559 -29.21484375 258 C-29.22032604 258.97554337 -29.22580833 259.95108673 -29.23145676 260.95619202 C-29.23570286 261.92463547 -29.23994896 262.89307892 -29.24432373 263.89086914 C-29.24721153 264.85074738 -29.25009933 265.81062561 -29.25307465 266.79959106 C-29.25463814 267.75260101 -29.25620163 268.70561096 -29.2578125 269.6875 C-29.25838905 270.63769012 -29.25896561 271.58788025 -29.25955963 272.56686401 C-29.25811699 273.50571442 -29.25667435 274.44456482 -29.25518799 275.41186523 C-29.25086132 276.33282486 -29.24653465 277.25378448 -29.24207687 278.20265198 C-29.23470127 279.10386276 -29.22732567 280.00507355 -29.21972656 280.93359375 C-29.20931965 281.81357529 -29.19891273 282.69355682 -29.18819046 283.60020447 C-29.17333981 284.45127274 -29.15848915 285.302341 -29.14318848 286.17919922 C-29.1231929 286.9971698 -29.10319733 287.81514038 -29.08259583 288.65789795 C-29.0553392 289.43079163 -29.02808258 290.2036853 -29 291 C-28.96194748 291.70844055 -28.92389496 292.4168811 -28.88468933 293.14678955 C-28.8393959 293.80878357 -28.79410248 294.47077759 -28.74743652 295.15283203 C-28.69715113 295.77869705 -28.64686573 296.40456207 -28.59505653 297.0493927 C-28.54016249 297.64281967 -28.48526844 298.23624664 -28.42871094 298.84765625 C-28.30849579 299.95858643 -28.18828064 301.0695166 -28.06442261 302.21411133 C-27.93746002 303.21595459 -27.81049744 304.21779785 -27.6796875 305.25 C-27.56247345 306.14678467 -27.4452594 307.04356934 -27.32449341 307.9675293 C-27.19920258 308.78777588 -27.07391174 309.60802246 -26.94482422 310.453125 C-26.80381287 311.21036865 -26.66280151 311.9676123 -26.51751709 312.74780273 C-26.34673645 313.49102783 -26.17595581 314.23425293 -26 315 C-25.77201721 315.81090088 -25.54403442 316.62180176 -25.30914307 317.45727539 C-24.93012848 318.64824829 -24.93012848 318.64824829 -24.54345703 319.86328125 C-24.3077298 320.56493408 -24.07200256 321.26658691 -23.82913208 321.98950195 C-23.55551849 322.65296631 -23.28190491 323.31643066 -23 324 C-22.60328094 324.7002832 -22.20656189 325.40056641 -21.79782104 326.12207031 C-21.4107901 326.72116211 -21.02375916 327.32025391 -20.625 327.9375 C-20.19316406 328.49308594 -19.76132812 329.04867187 -19.31640625 329.62109375 C-18.88199219 330.07613281 -18.44757812 330.53117188 -18 331 C-16.7934375 331.7425 -16.7934375 331.7425 -15.5625 332.5 C-14.716875 332.665 -13.87125 332.83 -13 333 C-12.030625 332.95875 -11.06125 332.9175 -10.0625 332.875 C-8.5465625 332.441875 -8.5465625 332.441875 -7 332 C-5.5459375 331.195625 -5.5459375 331.195625 -4.0625 330.375 C-3.56492187 330.00890625 -3.06734375 329.6428125 -2.5546875 329.265625 C-1.78511719 328.63914062 -1.78511719 328.63914062 -1 328 C-0.46632812 327.56171875 0.06734375 327.1234375 0.6171875 326.671875 C1.17664062 326.16140625 1.73609375 325.6509375 2.3125 325.125 C2.89257812 324.52558594 3.47265625 323.92617188 4.0703125 323.30859375 C5.02550781 322.16583984 5.02550781 322.16583984 6 321 C6.37092773 320.4961377 6.74185547 319.99227539 7.12402344 319.47314453 C7.70845215 318.63759033 7.70845215 318.63759033 8.3046875 317.78515625 C8.69769043 317.20193604 9.09069336 316.61871582 9.49560547 316.01782227 C9.88893066 315.41381592 10.28225586 314.80980957 10.6875 314.1875 C11.07695801 313.57124756 11.46641602 312.95499512 11.86767578 312.32006836 C12.42817627 311.40366577 12.42817627 311.40366577 13 310.46875 C13.35191406 309.87191406 13.70382813 309.27507812 14.06640625 308.66015625 C14.37449219 308.11230469 14.68257812 307.56445312 15 307 C15.4125 306.1646875 15.825 305.329375 16.25 304.46875 C16.559375 303.7159375 16.86875 302.963125 17.1875 302.1875 C17.61095703 301.011875 17.61095703 301.011875 18.04296875 299.8125 C18.51669922 298.4203125 18.51669922 298.4203125 19 297 C19.22252441 296.38253906 19.44504883 295.76507813 19.67431641 295.12890625 C19.9222998 294.44699219 20.1702832 293.76507813 20.42578125 293.0625 C20.68294922 292.35101807 20.94011719 291.63953613 21.20507812 290.90649414 C21.46740234 290.17422607 21.72972656 289.44195801 22 288.6875 C22.25845703 287.95200928 22.51691406 287.21651855 22.78320312 286.45874023 C23.03650391 285.72856689 23.28980469 284.99839355 23.55078125 284.24609375 C23.79779785 283.52663574 24.04481445 282.80717773 24.29931641 282.06591797 C24.53054199 281.38416504 24.76176758 280.70241211 25 280 C25.30236572 279.09531982 25.30236572 279.09531982 25.61083984 278.17236328 C25.79469238 277.61145996 25.97854492 277.05055664 26.16796875 276.47265625 C26.50441406 275.40917969 26.84085938 274.34570312 27.1875 273.25 C27.49816406 272.22261719 27.80882812 271.19523438 28.12890625 270.13671875 C28.41636719 269.10160156 28.70382813 268.06648437 29 267 C29.14034668 266.4323291 29.28069336 265.8646582 29.42529297 265.27978516 C29.56209473 264.69890137 29.69889648 264.11801758 29.83984375 263.51953125 C29.97302002 262.94106445 30.10619629 262.36259766 30.2434082 261.76660156 C30.3693335 261.20424805 30.49525879 260.64189453 30.625 260.0625 C30.84414062 259.04285156 31.06328125 258.02320313 31.2890625 256.97265625 C31.52367188 255.99167969 31.75828125 255.01070312 32 254 C32.32742187 253.10539063 32.65484375 252.21078125 32.9921875 251.2890625 C33.32476562 250.20367187 33.65734375 249.11828125 34 248 C34.13486816 247.26869873 34.26973633 246.53739746 34.40869141 245.78393555 C34.53163574 244.94386963 34.65458008 244.10380371 34.78125 243.23828125 C34.95914063 241.84101807 34.95914063 241.84101807 35.140625 240.41552734 C35.31851563 238.87952881 35.31851563 238.87952881 35.5 237.3125 C35.62890625 236.20600098 35.7578125 235.09950195 35.890625 233.95947266 C35.98778809 233.0745816 35.98778809 233.0745816 36.08691406 232.17181396 C36.18311035 231.24951996 36.18311035 231.24951996 36.28125 230.30859375 C36.3440918 229.67004456 36.40693359 229.03149536 36.47167969 228.37359619 C36.53258789 227.70616394 36.59349609 227.03873169 36.65625 226.35107422 C36.71490234 225.65278503 36.77355469 224.95449585 36.83398438 224.23504639 C36.88876953 223.49748108 36.94355469 222.75991577 37 222 C37.04833984 221.20829407 37.09667969 220.41658813 37.14648438 219.60089111 C37.19095703 218.77240662 37.23542969 217.94392212 37.28125 217.09033203 C37.32339127 216.23589005 37.36553253 215.38144806 37.40895081 214.50111389 C37.46948891 213.18765236 37.46948891 213.18765236 37.53125 211.84765625 C37.57092392 210.95908432 37.61059784 210.07051239 37.651474 209.15501404 C37.69035233 208.25380325 37.72923065 207.35259247 37.76928711 206.42407227 C37.80746552 205.51199005 37.84564392 204.59990784 37.88497925 203.66018677 C37.9229361 202.74107513 37.96089294 201.8219635 38 200.875 C38.03819855 199.95226288 38.07639709 199.02952576 38.11575317 198.0788269 C38.15433441 197.15554596 38.19291565 196.23226501 38.23266602 195.28100586 C38.27189682 194.36081161 38.31112762 193.44061737 38.35154724 192.49253845 C38.4114962 191.11951317 38.4114962 191.11951317 38.47265625 189.71875 C38.51322647 188.80851578 38.55379669 187.89828156 38.59559631 186.96046448 C38.63768723 186.06343307 38.67977814 185.16640167 38.72314453 184.2421875 C38.7672345 183.36304688 38.81132446 182.48390625 38.85675049 181.578125 C38.90402283 180.72734375 38.95129517 179.8765625 39 179 C39.05242859 178.19433594 39.10485718 177.38867188 39.15887451 176.55859375 C39.21456604 175.78386719 39.27025757 175.00914062 39.32763672 174.2109375 C39.38545319 173.45910187 39.44326965 172.70726624 39.50283813 171.93264771 C39.56248749 171.20206146 39.62213684 170.47147522 39.68359375 169.71875 C39.7444516 169.004841 39.80530945 168.29093201 39.86801147 167.5553894 C39.92993683 166.85890289 39.99186218 166.16241638 40.05566406 165.44482422 C40.14998718 164.4267569 40.14998718 164.4267569 40.24621582 163.38812256 C40.3093396 162.72379211 40.37246338 162.05946167 40.4375 161.375 C40.53097717 160.39276459 40.53097717 160.39276459 40.62634277 159.39068604 C40.68874146 158.75016296 40.75114014 158.10963989 40.81542969 157.44970703 C40.87846283 156.82643524 40.94149597 156.20316345 41.00643921 155.56100464 C41.07005646 154.95563873 41.13367371 154.35027283 41.19921875 153.7265625 C41.26339996 153.14045197 41.32758118 152.55434143 41.39370728 151.95046997 C41.49151993 151.10148636 41.49151993 151.10148636 41.59130859 150.23535156 C41.72617676 149.16768555 41.86104492 148.10001953 42 147 C42.14646973 146.03288086 42.29293945 145.06576172 42.44384766 144.06933594 C42.59257324 143.18793945 42.74129883 142.30654297 42.89453125 141.3984375 C43.03769775 140.5935791 43.18086426 139.7887207 43.32836914 138.95947266 C43.46750732 138.23034668 43.60664551 137.5012207 43.75 136.75 C43.88978271 136.09435059 44.02956543 135.43870117 44.17358398 134.76318359 C44.35836304 133.88267334 44.35836304 133.88267334 44.546875 132.984375 C44.69640625 131.99953125 44.8459375 131.0146875 45 130 C44.95101562 129.12730469 44.90203125 128.25460938 44.8515625 127.35546875 C44.57054688 126.90816406 44.28953125 126.46085937 44 126 C43.37351562 126.41378906 42.74703125 126.82757813 42.1015625 127.25390625 C41.28429687 128.01574219 40.46703125 128.77757812 39.625 129.5625 C38.83351563 130.30628906 38.04203125 131.05007812 37.2265625 131.81640625 C36.51306641 132.37255615 36.51306641 132.37255615 35.78515625 132.93994141 C35.19605469 133.28976074 34.60695313 133.63958008 34 134 C32.80697266 134.46092041 32.80697266 134.46092041 31.58984375 134.93115234 C30.68621094 135.20008301 29.78257813 135.46901367 28.8515625 135.74609375 C27.89491699 135.9793335 26.93827148 136.21257324 25.95263672 136.45288086 C24.9782666 136.63343018 24.00389648 136.81397949 23 137 C21.61385498 137.15384155 21.61385498 137.15384155 20.19970703 137.31079102 C19.28302246 137.36291748 18.36633789 137.41504395 17.421875 137.46875 C16.49616699 137.48550781 15.57045898 137.50226563 14.61669922 137.51953125 C13.19768311 137.50986328 13.19768311 137.50986328 11.75 137.5 C10.24783936 137.49033203 10.24783936 137.49033203 8.71533203 137.48046875 C7.71356934 137.45597656 6.71180664 137.43148437 5.6796875 137.40625 C4.70741211 137.3546875 3.73513672 137.303125 2.73339844 137.25 C1.83137695 137.1675 0.92935547 137.085 0 137 C-0.76022461 136.87625 -1.52044922 136.7525 -2.30371094 136.625 C-2.9846582 136.4703125 -3.66560547 136.315625 -4.3671875 136.15625 C-5.00519287 135.97626465 -5.64319824 135.7962793 -6.30053711 135.61083984 C-6.90260986 135.4092627 -7.50468262 135.20768555 -8.125 135 C-8.70967041 134.78424316 -9.29434082 134.56848633 -9.89672852 134.34619141 C-10.46576904 134.11077637 -11.03480957 133.87536133 -11.62109375 133.6328125 C-12.17522949 133.37661133 -12.72936523 133.12041016 -13.30029297 132.85644531 C-13.86119629 132.57381836 -14.42209961 132.29119141 -15 132 C-15.60086426 131.67870117 -16.20172852 131.35740234 -16.82080078 131.02636719 C-17.42778809 130.68508789 -18.03477539 130.34380859 -18.66015625 129.9921875 C-19.2536084 129.64285156 -19.84706055 129.29351562 -20.45849609 128.93359375 C-21.02906738 128.58425781 -21.59963867 128.23492187 -22.1875 127.875 C-22.71682129 127.53855469 -23.24614258 127.20210938 -23.79150391 126.85546875 C-24.2869873 126.52933594 -24.7824707 126.20320313 -25.29296875 125.8671875 C-26.18628906 125.25101562 -27.07960938 124.63484375 -28 124 C-28.73863281 123.42507812 -29.47726563 122.85015625 -30.23828125 122.2578125 C-30.81964844 121.84273438 -31.40101562 121.42765625 -32 121 C-32.66 121 -33.32 121 -34 121 Z " transform="translate(59,4)" style="fill: #3D3449;"/></svg>